<svg xmlns="http://www.w3.org/2000/svg" width="93.614" height="20" viewBox="0 0 93.614 20"><g transform="translate(0 0.017)"><g transform="translate(0 -0.017)"><path d="M3.085,8.364,11.045.67h4.119L5.919,9.4l9.3,10.555H11.088L3.73,11.369l-.639.6v7.992H0V.67H3.085Z" transform="translate(0 -0.304)" fill="#fff"/><path d="M36.825.67V19.952H33.74V.67Z" transform="translate(-15.763 -0.304)" fill="#fff"/><path d="M51.835,8.364,59.8.67h4.124L54.669,9.4l9.3,10.555H59.838l-7.363-8.584-.639.6v7.992H48.75V.67h3.085Z" transform="translate(-22.776 -0.304)" fill="#fff"/><path d="M122.624,3.4V19.952h-3.085V3.4h-4.7V.67h12.478V3.4Z" transform="translate(-53.652 -0.304)" fill="#fff"/><path d="M87.315,0a10,10,0,1,0,10,10A10,10,0,0,0,87.315,0Zm0,17.082A7.086,7.086,0,1,1,94.4,10,7.086,7.086,0,0,1,87.315,17.082Z" transform="translate(-36.123 0.009)" fill="#fff"/><path d="M152.985,20.814h.1a.533.533,0,0,0,.5-.33l3.064-7.321a.533.533,0,0,0-.7-.7L148.61,15.5a.533.533,0,0,0,.208,1.034h3.73v3.756A.533.533,0,0,0,152.985,20.814Z" transform="translate(-69.265 -5.791)" fill="#03a9f4"/><path d="M147.783-.008A10,10,0,1,0,156,16.3a.176.176,0,0,0-.075-.277h0a5.206,5.206,0,0,0-4.385.245A7.086,7.086,0,1,1,154.9,7.526a5.493,5.493,0,0,0,3.058,3.2h0a.181.181,0,0,0,.25-.155v-.6A10,10,0,0,0,147.783-.008Z" transform="translate(-64.596 0.017)" fill="#03a9f4"/></g></g></svg>