<?xml version="1.0" encoding="utf-8"?>
<!-- Generator: Adobe Illustrator 25.0.0, SVG Export Plug-In . SVG Version: 6.00 Build 0)  -->
<svg version="1.1" id="Capa_1" xmlns="http://www.w3.org/2000/svg" xmlns:xlink="http://www.w3.org/1999/xlink" x="0px"
     y="0px"
     viewBox="0 0 175.7 37.5" style="enable-background:new 0 0 175.7 37.5;" xml:space="preserve">
<style type="text/css">
	.st0{fill:#3E4146;}
	.st1{fill:#03A9F4;}
</style>
    <path class="st0" d="M5.8,15.1L20.7,0.7h7.7L11.1,17.1l17.5,19.8h-7.8L7,20.8l-1.2,1.1v15H0V0.7h5.8V15.1z"/>
    <path class="st0" d="M39.5,0.7v36.2h-5.8V0.7H39.5z"/>
    <path class="st0" d="M54.5,15.1L69.5,0.7h7.7L59.9,17.1l17.4,19.8h-7.8L55.7,20.8l-1.2,1.1v15h-5.8V0.7h5.8V15.1z"/>
    <path class="st0" d="M129.4,5.8v31.1h-5.8V5.8h-8.8V0.7h23.4v5.1H129.4z"/>
    <path class="st0" d="M96.1,0C85.7,0,77.3,8.4,77.3,18.8s8.4,18.8,18.8,18.8s18.8-8.4,18.8-18.8S106.4,0,96.1,0C96.1,0,96.1,0,96.1,0
	z M96.1,32.1c-7.3,0-13.3-5.9-13.3-13.3c0-7.3,5.9-13.3,13.3-13.3c7.3,0,13.3,5.9,13.3,13.3l0,0C109.4,26.1,103.4,32.1,96.1,32.1
	C96.1,32.1,96.1,32.1,96.1,32.1L96.1,32.1z"/>
    <path class="st1" d="M157.5,28.2h0.2c0.4,0,0.8-0.2,0.9-0.6l5.8-13.7c0.2-0.5,0-1.1-0.5-1.3c0,0,0,0,0,0c-0.3-0.1-0.6-0.1-0.8,0
	l-13.8,5.7c-0.5,0.2-0.8,0.8-0.6,1.3c0.2,0.4,0.6,0.7,1,0.7h7v7.1C156.7,27.7,157,28.1,157.5,28.2z"/>
    <path class="st1" d="M156,0c-10.4,0.5-18.3,9.3-17.8,19.7c0.5,10.4,9.3,18.3,19.7,17.8c5.3-0.3,10.3-2.8,13.6-6.9
	c0.1-0.1,0.1-0.3,0-0.5c0,0,0,0,0,0h-0.1l0,0c-2.7-1.1-5.7-0.9-8.3,0.5c-6.5,3.4-14.6,0.9-18-5.6c-3.4-6.5-0.9-14.6,5.6-18
	c6.5-3.4,14.5-0.9,18,5.6c0.3,0.5,0.5,1,0.7,1.6c1,2.7,3.1,4.9,5.8,6l0,0c0.2,0.1,0.4,0,0.4-0.2c0,0,0,0,0,0c0,0,0-0.1,0-0.1v-1.1
	c0-10.4-8.5-18.8-18.9-18.8c0,0,0,0,0,0H156z"/>
</svg>
