<?xml version="1.0" encoding="utf-8"?>
<!-- Generator: Adobe Illustrator 24.0.3, SVG Export Plug-In . SVG Version: 6.00 Build 0)  -->
<svg version="1.1" id="Capa_1" xmlns="http://www.w3.org/2000/svg" xmlns:xlink="http://www.w3.org/1999/xlink" x="0px" y="0px"
	 viewBox="0 0 775.9 180.4" style="enable-background:new 0 0 775.9 180.4;" xml:space="preserve">
<style type="text/css">
	.st0{fill:#026A9D;}
	.st1{fill:#7BB732;}
</style>
<title>logo</title>
<circle class="st0" cx="268.7" cy="21.4" r="21.4"/>
<path class="st1" d="M65.3,50.2C29.4,50,0.1,79.1,0,115.1c0,0.1,0,0.3,0,0.4c0.1,36,30.1,64.9,66.1,64.9h60.2c2.2,0,4-1.8,4-4v-60.2
	C130.2,80.2,101.4,50.3,65.3,50.2z M65,137.7c-12.3,0-22.3-10-22.3-22.3s10-22.3,22.3-22.3s22.3,10,22.3,22.3l0,0
	C87.3,127.7,77.3,137.7,65,137.7L65,137.7z"/>
<path class="st0" d="M510.8,138c-12.6,0-22.8-10.2-22.8-22.8s10.2-22.8,22.8-22.8c9.9,0,18.7,6.4,21.7,15.9c0.5,1.7,2.1,2.8,3.8,2.8
	h35.1c2.2,0,4-1.8,4-4c0-0.2,0-0.4,0-0.5c-4.8-35.7-37.6-60.7-73.3-56s-60.7,37.6-56,73.3s37.6,60.7,73.3,56
	c29.1-3.9,52-26.8,56-55.9c0.3-2.2-1.2-4.2-3.4-4.5c-0.2,0-0.4,0-0.5,0h-35.1c-1.7,0-3.3,1.1-3.8,2.8
	C529.5,131.6,520.7,138,510.8,138z"/>
<path class="st0" d="M654.6,49.9c-36-0.5-65.7,28.3-66.2,64.3s28.3,65.7,64.3,66.2c12.9,0.2,25.6-3.5,36.5-10.5v6.5c0,2.2,1.8,4,4,4
	H715c2.2,0,4-1.8,4-4V116C719,80.2,690.4,50.4,654.6,49.9z M656,137.9c-12.6,1.3-23.8-7.9-25.1-20.5s7.9-23.8,20.5-25.1
	s23.8,7.9,25.1,20.5c0.2,1.6,0.2,3.1,0,4.7C675.4,128.3,666.8,136.8,656,137.9L656,137.9z"/>
<path class="st0" d="M369.1,49.9c-13-0.2-25.7,3.4-36.6,10.5v-6.9c0-1.9-1.6-3.5-3.5-3.5l0,0h-22.2c-2.2,0-4,1.8-4,4v61.2l0,0v61.7
	c0,1.9,1.6,3.5,3.5,3.5l0,0h34.8c2.2,0,4-1.8,4-4v-60.7c0-12.4,9.7-23,22.1-23.4c12.6-0.5,23.3,9.4,23.7,22.1c0,0.3,0,0.6,0,0.8
	v61.3c0,2.2,1.8,4,4,4h34.4c2.2,0,4-1.8,4-4v-60.3C433.3,80.3,404.9,50.5,369.1,49.9z"/>
<path class="st0" d="M251.3,50.1h34.8c2.2,0,4,1.8,4,4v122.3c0,2.2-1.8,4-4,4h-34.8c-2.2,0-4-1.8-4-4V54.1
	C247.3,51.9,249.1,50.1,251.3,50.1z"/>
<circle class="st1" cx="754.5" cy="159" r="21.4"/>
<path class="st0" d="M187.9,117.8h43.5c1.9,0,3.4-1.5,3.4-3.4l0,0V78.5c0-1.9-1.5-3.4-3.4-3.4l0,0H188c-1.9,0-3.4-1.5-3.4-3.4l0,0
	v-6.5h0.1c0-0.5-0.1-0.9-0.1-1.4c-0.2-11.6,9.1-21.1,20.7-21.3c0.2,0,0.4,0,0.6,0h25.4c1.9,0,3.4-1.5,3.4-3.4l0,0V3.4
	c0-1.9-1.5-3.4-3.4-3.4l0,0h-25.4l0,0C170.4,0.8,142,29.8,142,65.2V177c0,1.9,1.5,3.4,3.4,3.4l0,0H181c1.9,0,3.4-1.5,3.4-3.4
	l0.1-55.9C184.5,119.3,186,117.8,187.9,117.8z"/>
</svg>
