<svg xmlns="http://www.w3.org/2000/svg" xmlns:xlink="http://www.w3.org/1999/xlink" width="335" height="180" viewBox="0 0 335 180">
  <defs>
    <clipPath id="clip-path">
      <path id="Mask" d="M0,0H335a0,0,0,0,1,0,0V162.2A17.8,17.8,0,0,1,317.2,180H17.8A17.8,17.8,0,0,1,0,162.2V0A0,0,0,0,1,0,0Z" transform="translate(335 180) rotate(-180)" fill="#bbcde5"/>
    </clipPath>
    <clipPath id="clip-path-2">
      <path id="Clip_2" data-name="Clip 2" d="M0,0H326.944V150.184H0Z" fill="none"/>
    </clipPath>
    <clipPath id="clip-path-3">
      <path id="Clip_11" data-name="Clip 11" d="M0,0H27.505V99.066H0Z" fill="none"/>
    </clipPath>
    <clipPath id="clip-path-4">
      <path id="Clip_18" data-name="Clip 18" d="M0,0H18.6V10.513H0Z" fill="none"/>
    </clipPath>
  </defs>
  <g id="Recurso_6_2x" data-name="Recurso 6@2x" clip-path="url(#clip-path)">
    <g id="Group_72" data-name="Group 72" transform="translate(-4 12)">
      <g id="Group_3" data-name="Group 3" transform="translate(0 33.816)">
        <path id="Clip_2-2" data-name="Clip 2" d="M0,0H326.944V150.184H0Z" fill="none"/>
        <g id="Group_3-2" data-name="Group 3" clip-path="url(#clip-path-2)">
          <path id="Fill_1" data-name="Fill 1" d="M326.133,150.184l-.15,0h-.131l-1.614,0c-2.659,0-5.407-.01-8.111-.021l-9.192-.039-.42,0c-17.666-.075-35.933-.153-53.9-.233-9.319-.042-18.707-.086-27.787-.13-14.976-.071-30.462-.145-45.8-.206-16.483-.066-33.243-.126-49.45-.183h-.05c-15.388-.055-32.83-.117-49.5-.184-18.682-.074-37.611-.165-55.918-.253L6.75,148.845a5.154,5.154,0,0,1-.95-.077.463.463,0,0,1-.33-.559.421.421,0,0,1,.362-.419,9.8,9.8,0,0,1,1.076-.043H27.581l-.447-1.783-.006-.023c-.4-1.594-.813-3.242-1.221-4.858l-2.253-8.937c-2.792-11.076-5.68-22.53-8.526-33.836-.013-.051-.025-.1-.036-.15-.111-.472-.2-.845-.957-.863a5.908,5.908,0,0,1-3.384-1.083,5.42,5.42,0,0,1-1.934-2.785A5.5,5.5,0,0,1,10.989,87.2c.077-.06.152-.121.254-.206l.2-.169L9.262,85.519l-.068-.041-.008,0c-1.147-.687-2.276-1.364-3.407-2.04A11.325,11.325,0,0,1,.3,76.557,11.321,11.321,0,0,1,1.856,67.9L2.513,66.8l.044-.075c.892-1.5,1.814-3.055,2.76-4.556a.957.957,0,0,0-.076-1.339c-.969-1.152-1.947-2.383-2.905-3.66a3.023,3.023,0,0,0-.259-.285c-.233-.237-.474-.482-.458-.752a.63.63,0,0,1,.277-.441.754.754,0,0,1,.462-.2c.307,0,.513.307.713.6a2.713,2.713,0,0,0,.272.362,14.621,14.621,0,0,1,.964,1.157c.171.219.347.445.55.7A7.366,7.366,0,0,0,4.517,56.2c-.08-.293-.155-.568-.207-.85-.007-.041-.016-.083-.024-.125-.078-.388-.166-.828.4-.961a.88.88,0,0,1,.2-.026c.411,0,.538.372.641.786a16.706,16.706,0,0,0,.927,2.875c.047-.261.093-.527.139-.784.117-.666.238-1.351.369-2.022.007-.034.013-.068.019-.1.075-.4.159-.861.63-.861a.9.9,0,0,1,.165.016c.623.115.53.623.439,1.114l-.008.045c-.115.623-.218,1.259-.318,1.873-.165,1.012-.335,2.057-.558,3.073a1.015,1.015,0,0,0,.618,1.312c1.957,1.124,3.965,2.319,5.969,3.55a12.343,12.343,0,0,1,3.4,3.034,10.136,10.136,0,0,1,1.947,7.934,12.411,12.411,0,0,1-1.605,4.271c-.77,1.3-1.536,2.567-2.346,3.91l-.023.038q-.555.921-1.123,1.864a7.194,7.194,0,0,1,3.087,1.032,5.307,5.307,0,0,1,2,2.416,5.4,5.4,0,0,1-2.308,6.935,1.108,1.108,0,0,0-.6,1.5c3.628,14.341,7.922,31.341,12.259,48.688.209.84.533,1.1,1.385,1.1h.052c1.5-.017,3-.025,4.44-.025,2.083,0,4.143.017,6.124.052l.2,0c.385,0,.638-.031.794-.189s.217-.449.207-1c-.082-4.409-.07-8.894-.059-13.23,0-1.513.008-3.078.008-4.621v-1.478c-.557.23-1.082.5-1.59.769a12.182,12.182,0,0,1-2.236.985,3.568,3.568,0,0,1-.991.144,3.115,3.115,0,0,1-2.288-.968,3.236,3.236,0,0,1-.857-2.432A3.106,3.106,0,0,1,37.781,123a13.906,13.906,0,0,1,1.9.768l.093.043c.414.192.815.407,1.278.656.211.114.451.243.709.378v-6.48l1.372,0v6.428c.506-.226.985-.473,1.448-.712a14.65,14.65,0,0,1,2.326-1.038,3.645,3.645,0,0,1,1.085-.177,3.218,3.218,0,0,1,2.851,4.426,3.063,3.063,0,0,1-2.782,1.966c-.061,0-.124.006-.185.006a5.59,5.59,0,0,1-2.43-.767c-.14-.069-.285-.141-.43-.209-.382-.182-.748-.381-1.173-.612-.2-.107-.416-.227-.653-.352-.008.179-.017.343-.026.5-.018.315-.033.585-.033.86,0,1.635,0,3.294,0,4.9.007,4.247.014,8.634-.046,12.948-.008.551.027.91.225,1.111.174.176.475.245,1.073.245H44.8c9.266,0,19.238.051,31.384.16h.078c1.045,0,1.443-.215,1.6-1.422,1.106-8.768,2.292-17.667,3.44-26.274q.518-3.888,1.035-7.776l.541.026.569.027q-.385,2.939-.77,5.877l-.024.18c-1.216,9.281-2.474,18.878-3.742,28.355-.052.387-.056.659.084.819.116.132.332.189.723.189h.033c1.4-.009,2.848-.014,4.309-.014,2.669,0,5.422.015,8.416.045H92.5a.941.941,0,0,0,1.057-.764c2.93-8.335,6.4-18.2,9.967-28.155.273-.762.159-1.059-.554-1.444a10.509,10.509,0,0,1-4.421-4.563,10.749,10.749,0,0,1-1.039-6.3c.6-4.37,1.147-8.324,1.688-12.089a4.4,4.4,0,0,1,1.042-2.468,2.787,2.787,0,0,1,2.1-.842c.105,0,.215,0,.325.013l.025,0a3.8,3.8,0,0,1,.451.056,2.4,2.4,0,0,1,1.106.711,1.851,1.851,0,0,0,.923.593.785.785,0,0,0,.1.006,2.22,2.22,0,0,0,.893-.294l.064-.031a2.54,2.54,0,0,1,1.088-.325l.071,0a3.079,3.079,0,0,1,2.237,1.109,3.234,3.234,0,0,1,.7,2.526c-.174,1.309-.353,2.622-.526,3.892-.191,1.4-.389,2.857-.579,4.291-.006.042-.015.085-.025.13a.5.5,0,0,0,.1.536,1.219,1.219,0,0,0,.565-.656c.043-.086.087-.174.137-.255.637-1.04,1.273-2.09,1.889-3.107l.012-.019c.7-1.155,1.423-2.349,2.142-3.519a2.982,2.982,0,0,1,2.634-1.579,3.654,3.654,0,0,1,.381.021,2.8,2.8,0,0,1,2.558,2.034c.139.444.327.609.695.609a2.273,2.273,0,0,0,.315-.027,3.574,3.574,0,0,1,.5-.037,2.842,2.842,0,0,1,2.466,1.42,2.951,2.951,0,0,1,.012,3.284c-.639,1.063-1.28,2.151-1.9,3.2l0,.007c-1.611,2.732-3.277,5.557-5.068,8.234a9.859,9.859,0,0,1-8.611,4.659,14.193,14.193,0,0,1-2.244-.187l-.124-.02a2.281,2.281,0,0,0-.365-.043c-.232,0-.418.089-.57.521-2.54,7.241-5.139,14.591-7.651,21.7q-1.222,3.457-2.444,6.915c-.006.018,0,.04.021.107.015.048.037.121.067.235h76.65c-.517-.2-1.025-.4-1.516-.588l0,0h0c-1.112-.429-2.163-.834-3.208-1.27-.338-.141-.63-.249-.865-.335-.542-.2-.84-.309-.939-.535-.123-.283.074-.755.505-1.79l.056-.135c.507-1.218,1-2.44,1.517-3.734l.022-.055c.24-.6.486-1.21.742-1.844l-1.534.193-.135.017c-1.168.146-2.272.284-3.383.438-3.829.53-7.569,1.061-11.041,1.556a2.574,2.574,0,0,1-.363.026,2.808,2.808,0,0,1-1.036-.212l-.461-.181c-7.478-2.93-15.21-5.96-22.837-8.9-.873-.337-1.065-.741-.761-1.6a10.557,10.557,0,0,1,4.242-5.3,12.149,12.149,0,0,1,6.6-1.985c.107,0,.216,0,.324,0l.437.012c1.221.035,2.48.071,3.72.071a27.57,27.57,0,0,0,10.063-1.528,16.112,16.112,0,0,0,5.446-3.4c.408-.389.439-.664.13-1.178-1.7-2.828-1.422-5.568.82-8.144,10.5-12.063,20.829-23.922,32.279-37.063l4.524-5.193.745-.856c8.412-9.658,17.11-19.645,25.7-29.452a3.447,3.447,0,0,0,.659-2.809,9.041,9.041,0,0,1-.033-1.031,1.621,1.621,0,0,0,.267-1.215c0-.091-.009-.184-.01-.276l-.031-2.893c-.071-6.653-.144-13.533-.236-20.3-.013-.956-.078-1.926-.14-2.865-.028-.426-.058-.866-.082-1.3.161-.585.615-.625,1.054-.665.1-.009.209-.019.308-.035.462-.078.925-.2,1.373-.327a8.645,8.645,0,0,1,2.264-.408,4,4,0,0,1,.753.069c.034.171.069.342.1.513.076.37.154.751.217,1.128q.356,2.143.709,4.286l0,.013c.367,2.222.746,4.519,1.125,6.777.01.063.017.129.023.194.03.311.06.632.557.632.04,0,.083,0,.128-.006,3.783-.347,7.764-.684,12.53-1.06.547-.043.732-.236.761-.795.167-3.214.355-6.482.536-9.641V3.177q.09-1.559.179-3.118A4.556,4.556,0,0,1,244.929,0a10.561,10.561,0,0,1,1.883.228c.364.067.741.135,1.114.179.176.021.357.029.533.037a2.059,2.059,0,0,1,1.751.666c0,.037,0,.074-.005.111a1.319,1.319,0,0,0,0,.247c.291,2.242.589,4.521.878,6.726l.008.059c.756,5.768,1.538,11.733,2.25,17.613a6.155,6.155,0,0,0,2.2,4.241c3.972,3.462,7.97,7.027,11.835,10.474,2.749,2.451,5.592,4.986,8.415,7.474.6.525,1.189,1.073,1.763,1.6a43.894,43.894,0,0,0,4.376,3.7l-.029-.01c.022.172.125.266.326.3,1.87,1.9,3.909,3.672,5.881,5.389l.009.008c.81.705,1.647,1.435,2.461,2.162a19.339,19.339,0,0,1,4.026,4.948,17.88,17.88,0,0,1,2.052,6.019,22.037,22.037,0,0,1,.2,3.343c.013,15.268.01,30.652.007,45.529,0,3.394-1.078,4.711-4.435,5.422-.366.077-.448.187-.4.532a18.88,18.88,0,0,0,2.6,8,6.179,6.179,0,0,0,3.7,2.642,10.806,10.806,0,0,1,8.195,10.283c.033.915.314,1.07,1.141,1.07h.025c1.186,0,2.4-.005,3.707-.005,3.171,0,6.387.011,9.5.021l4.324.013h.6l.123,0h.147c.406,0,.84.044.854.575a.545.545,0,0,1-.132.415A.944.944,0,0,1,326.133,150.184Zm-50.546-7.041-.027.005-.011,0-.163.03q0,.676,0,1.352c0,1.218,0,2.478-.006,3.718a.6.6,0,0,0,.123.445.518.518,0,0,0,.387.119h.033c.331-.008.694-.011,1.142-.011l.8,0,.926,0-1.515-2.675ZM231.331,148.7c2.952,0,5.378,0,7.634.006,7,.011,15.262.029,23.408.078h.03a.787.787,0,0,0,.981-.971c-.023-5.381-.017-10.836-.012-16.111v-.243q0-2.306,0-4.612c0-.033,0-.066,0-.1a.852.852,0,0,0-.409-.908c-1.594-.946-2.3-2.387-2.3-4.673.019-6.58.02-13.246.021-19.693,0-5.776,0-11.748.016-17.686a2.548,2.548,0,0,0-.9-2.063c-5.3-4.934-10.864-10.152-16.526-15.509-.29-.275-.514-.445-.734-.445s-.418.148-.707.494c-11.484,13.775-23.168,27.748-34.468,41.262l-5.491,6.567q-1.947,2.328-3.9,4.655l-.063.075-.008.01c-2.735,3.265-5.563,6.642-8.333,9.973a6.614,6.614,0,0,1-5.217,2.734c-.118,0-.238,0-.357-.01-.063,0-.122-.005-.177-.005-.636,0-.925.219-1.186.9-1.42,3.7-2.9,7.437-4.324,11.054l-.045.113q-.672,1.7-1.343,3.406c-.286.727-.429,1.091-.307,1.271s.494.177,1.239.177H219.88v.256h11.451Zm43.447-8.806c.355,0,.5.3.641.595.037.076.071.147.108.213l.265.462c1.221,2.125,2.483,4.323,3.682,6.511a1.462,1.462,0,0,0,1.469.886h.012c3.958-.016,7.954-.023,11.876-.023,3.84,0,7.721.008,11.533.022h.023c.459,0,.7-.063.847-.219a1.075,1.075,0,0,0,.151-.832A10.207,10.207,0,0,0,303.175,142a9.063,9.063,0,0,0-4.93-3.172,7.811,7.811,0,0,1-5.325-4.41,19.111,19.111,0,0,1-1.945-6.863c-.077-.736-.28-1.109-1.178-1.109h-.057c-1.645.026-3.387.038-5.646.038-1.078,0-2.194,0-3.179-.005h-.05c-1.026,0-2.086,0-3.129,0h-5.641c-1.819,0-4.213,0-6.6-.008h-.178a.829.829,0,0,0-.607.151.843.843,0,0,0-.168.617c.027,6.395.022,13.1-.014,20.486a.891.891,0,0,0,.178.658.931.931,0,0,0,.678.174h.048c1.438-.016,2.76-.023,4.042-.023,1.34,0,2.646.009,3.881.026h.044a.868.868,0,0,0,.654-.179.907.907,0,0,0,.166-.685c-.054-2.122-.055-4.239-.051-6.588,0-.086-.008-.176-.017-.272-.036-.394-.073-.8.474-.921A.75.75,0,0,1,274.778,139.892Zm-106.3-3.316c.315,0,.515.07.612.213.128.189.089.52-.121,1.043-.857,2.133-1.7,4.22-2.593,6.3a.848.848,0,0,0-.1.654c.063.147.222.262.517.372,2.9,1.083,5.307,2.015,7.586,2.932a1.4,1.4,0,0,0,.5.131c.24,0,.393-.153.545-.547,2.023-5.22,4.093-10.494,6.152-15.676.225-.567.149-.782-.387-1.1-6.7-3.914-13.981-8.2-22.259-13.111a1.232,1.232,0,0,0-.589-.226.829.829,0,0,0-.571.312,17.066,17.066,0,0,1-7.752,4.318,35.728,35.728,0,0,1-9.025.926l-.571.011c-.317,0-.661,0-1.025-.006-.4,0-.843-.007-1.294-.007-.587,0-1.1.007-1.56.021a9.826,9.826,0,0,0-9.012,5.7.925.925,0,0,0-.148.729c.069.181.258.32.634.465,8.153,3.146,16.194,6.289,22.289,8.675a2.91,2.91,0,0,0,1.078.21,3.18,3.18,0,0,0,.439-.032c3.318-.468,6.692-.941,9.955-1.4l6.185-.868A3.675,3.675,0,0,1,168.479,136.576ZM225.5,2.632a8.705,8.705,0,0,0-.966.091l-.288.036c-1.225.149-1.424.663-1.4,1.759.134,7.76.233,15.651.328,23.281v.025q.044,3.5.088,6.994l-.7.805-1.985,2.289c-2.582,2.813-5.2,5.813-8,9.172l-.324.342-.018.018a20.363,20.363,0,0,0-2.292,2.713c-3.238,3.482-6.374,7.159-9.406,10.715l-.742.87-3.185,3.675c-2.151,2.316-4.232,4.707-6.187,7.105l-3.179,3.636-.029.016a.244.244,0,0,0-.072.049q-3.493,4.007-6.989,8.013l-.144.165c-7.014,8.04-14.263,16.35-21.367,24.547a5.25,5.25,0,0,0-1.256,4.263,5.336,5.336,0,0,0,2.568,3.715c7.806,4.683,15.607,9.253,21.533,12.711a5.339,5.339,0,0,0,2.679.75,5.1,5.1,0,0,0,3.931-1.9c3.992-4.741,8.027-9.581,11.929-14.262l0,0q2.3-2.754,4.593-5.507a10.357,10.357,0,0,0,2.819-3.439l3.783-4.5,3.783-4.5a13.029,13.029,0,0,0,2.854-3.33l.285-.354c.179-.222.36-.448.543-.667l4.02-4.807.027-.032c5.969-7.139,12.141-14.522,18.231-21.766a1.228,1.228,0,0,0,.406-.826c-.022-.207-.174-.408-.492-.653-.675-.519-1.317-1.1-1.938-1.669-.279-.254-.567-.516-.857-.771q-.67-.59-1.341-1.178c-.561-.492-1.142-1-1.717-1.509-.276-.244-.546-.536-.249-.914a.547.547,0,0,1,.429-.251,1.019,1.019,0,0,1,.594.3c.07.061.139.122.208.184s.159.143.241.213c3.089,2.627,6.129,5.411,9.068,8.1l0,0c1.107,1.014,2.252,2.062,3.383,3.087a38.712,38.712,0,0,0,3.654,3.447l.218.188c1.705,1.783,3.5,3.4,5.491,5.171l1.9,1.784,1.988,1.864.865.841c.835.812,1.7,1.652,2.559,2.481l0,0c.33.319.705.68.3,1.1a.529.529,0,0,1-.385.189c-.268,0-.525-.247-.732-.445-.59-.565-1.18-1.126-1.863-1.775l-.659-.627v18.891a31.557,31.557,0,0,0,0,4.264l-.005,6.018-.005,6.012c0,.364-.019.733-.037,1.091a6.972,6.972,0,0,0,.332,3.188,3.007,3.007,0,0,0,3.007,2.12c2.248.009,4.662.013,7.378.013,3.105,0,6.263-.005,9.317-.011h.111l5.877-.009c.337.007.676.018,1,.029.511.017,1.04.035,1.562.035a13.88,13.88,0,0,0,2.1-.138,3.847,3.847,0,0,0,2.09-1.191,3.486,3.486,0,0,0,.736-2.23c.022-1.236.011-2.493,0-3.709v-.007c0-.534-.009-1.087-.011-1.63a9.681,9.681,0,0,0,.013-4.551c0-3.6,0-7.223.006-10.727v-.006c.007-8.566.014-17.424-.014-26.135a16.674,16.674,0,0,0-5.875-12.857c-8.2-7.284-16.52-14.7-24.569-21.872l-.055-.049-.092-.082-9.107-8.113a15.513,15.513,0,0,0-3.254-2.868c-.021-.058-.047-.119-.07-.172a1.528,1.528,0,0,1-.126-.386c-.371-2.857-.741-5.757-1.1-8.561l-.21-1.644a11.2,11.2,0,0,0-.635-4.546c-.128-.988-.26-1.979-.388-2.938-.343-2.571-.7-5.23-.979-7.851-.1-.97-.343-1.412-1.481-1.47l-.2-.01c-.389-.02-.7-.036-.954-.036-1.148,0-1.167.319-1.273,2.088l-.008.13c-.063,1.049-.115,2.115-.165,3.145-.125,2.589-.255,5.267-.581,7.888l-.019-.034-3.753.3c-3.533.281-7.184.571-10.773.887-.154.014-.286.02-.4.02-.653,0-1.087-.2-1.231-1.167-.475-3.2-1.028-6.448-1.564-9.587V5.19l-.155-.909C226.268,2.947,226.189,2.632,225.5,2.632ZM47.993,124.19a2.076,2.076,0,0,0-.645.11,13.7,13.7,0,0,0-3.548,1.784,17.142,17.142,0,0,0,3.483,1.742,2.053,2.053,0,0,0,.678.122,1.736,1.736,0,0,0,1.436-.8,1.769,1.769,0,0,0,.035-2.121A1.7,1.7,0,0,0,47.993,124.19Zm-11.1,0a1.748,1.748,0,0,0-1.472.85,1.707,1.707,0,0,0,.051,2.12,1.734,1.734,0,0,0,1.431.781,2.28,2.28,0,0,0,.805-.16,17.85,17.85,0,0,0,3.37-1.715,16.194,16.194,0,0,0-3.451-1.74,2.213,2.213,0,0,0-.733-.135Zm79.821-27.494a1.93,1.93,0,0,0-1.65,1.034c-.515.849-1.047,1.707-1.561,2.537-2.926,4.724-5.953,9.608-7.419,15.193l-.089.336c-.257.97-.386,1.456-.189,1.715.212.278.818.283,2.026.294h.1a9.2,9.2,0,0,0,7.743-4.164c2.012-3.172,3.969-6.454,5.861-9.627l.075-.126.955-1.6a1.863,1.863,0,0,0-.586-2.712,1.823,1.823,0,0,0-.948-.276,2.033,2.033,0,0,0-1.7,1.072c-.879,1.4-1.747,2.841-2.587,4.234l-.009.015c-.352.584-.716,1.188-1.076,1.781q-.178.292-.353.587l-.013.021c-.263.439-.535.894-.817,1.334-.166.258-.339.383-.528.383a.543.543,0,0,1-.271-.081.623.623,0,0,1-.325-.379.69.69,0,0,1,.132-.532c.114-.178.222-.363.327-.542.055-.093.109-.187.165-.279.412-.688.83-1.383,1.234-2.054l0-.007c1.03-1.71,2.095-3.478,3.108-5.237a2,2,0,0,0,.254-1.558,1.839,1.839,0,0,0-.937-1.113A1.929,1.929,0,0,0,116.713,96.695ZM102.323,92.64c-.982,0-1.632.62-1.88,1.794-.023.112-.044.231-.06.354-.169,1.207-.341,2.417-.507,3.587l0,.012c-.39,2.741-.792,5.576-1.155,8.368a9.414,9.414,0,0,0,3.773,9.269c.714.544,1.132.852,1.429.852.373,0,.55-.459.949-1.591.059-.166.127-.363.191-.562.291-.9.632-1.8.963-2.677a26.2,26.2,0,0,0,1.75-6.075c.332-2.751.723-5.541,1.1-8.239l0-.021q.119-.849.238-1.7c.194-1.393-.369-2.387-1.467-2.595a2.246,2.246,0,0,0-.414-.04c-.994,0-1.674.742-1.865,2.036-.142.964-.281,1.945-.416,2.893l0,.028c-.233,1.643-.475,3.342-.738,5.009a3.108,3.108,0,0,0-.019.479,1.36,1.36,0,0,1-.193.938.539.539,0,0,1-.4.143,1.2,1.2,0,0,1-.158-.011.637.637,0,0,1-.477-.246c-.17-.255-.063-.664.032-1.024a3.5,3.5,0,0,0,.1-.435c.258-2.075.56-4.171.826-6.021l0-.02c.089-.619.175-1.217.256-1.787.053-1.729-.452-2.589-1.591-2.705A2.543,2.543,0,0,0,102.323,92.64Zm-88.2-5.164a4.3,4.3,0,1,0-.028,8.59h.034A4.325,4.325,0,0,0,17.215,94.8a4.239,4.239,0,0,0,1.239-3.028,4.343,4.343,0,0,0-4.271-4.3H14.12ZM6.863,62.457c-.208,0-.368.134-.569.479-.508.87-1.038,1.74-1.551,2.582-.772,1.266-1.569,2.574-2.3,3.891A9.3,9.3,0,0,0,5.488,81.76c1.349.89,2.744,1.708,4.221,2.575.7.411,1.422.835,2.172,1.285-.046-.217-.085-.4-.119-.572-.067-.325-.119-.578-.181-.826l-.188-.756-.007-.028c-.615-2.478-1.25-5.041-1.89-7.558-.013-.053-.028-.106-.043-.16a1.161,1.161,0,0,1-.038-.853.625.625,0,0,1,.428-.262.921.921,0,0,1,.2-.025c.44,0,.536.421.62.792.02.089.039.174.063.252.136.457.245.929.35,1.386l0,.007c.061.265.124.54.192.808.511,2.018,1.03,4.05,1.579,6.2l.017.069.318,1.246c.423-.706.838-1.389,1.239-2.049l.006-.01c.859-1.413,1.67-2.748,2.435-4.113a9.329,9.329,0,0,0-3.232-12.755C12.5,65.694,11.318,65,10.177,64.327c-.921-.543-1.87-1.1-2.8-1.674a1.045,1.045,0,0,0-.518-.2Z" transform="translate(0 0)" fill="#001e35"/>
        </g>
      </g>
      <path id="Fill_4" data-name="Fill 4" d="M41.251,0c.077,1.388.2,2.776.222,4.165q.156,11.6.267,23.195a2.052,2.052,0,0,1-.258,1.491C38.2,32.662,34.945,36.5,31.625,40.275A9.548,9.548,0,0,1,20.9,43.216a8.5,8.5,0,0,1-3.156-1.9Q8.858,32.587,0,23.829a2.025,2.025,0,0,1,2.765,0,2.846,2.846,0,0,0,1.34.448c4.315.681,8.669-3.005,8.865-7.527A11.167,11.167,0,0,0,9.262,7.905a8.283,8.283,0,0,1,4.292,2.457c2.965,2.906,5.941,5.8,8.855,8.756.774.786,1.177.943,1.953-.047,2.557-3.263,5.228-6.438,7.854-9.647a4.344,4.344,0,0,0,1.193-1.445c1.1-1.291,2.211-2.573,3.3-3.874A14.9,14.9,0,0,1,41.251,0" transform="translate(180.301 36.329)" fill="#f37777"/>
      <path id="Fill_6" data-name="Fill 6" d="M54.312,115.37H1.612c-1.594,0-1.594,0-1.594-1.559q0-28.033,0-56.066V15.1q0-1.816,0-3.632C.024,8.141.029,4.706,0,1.328A1.4,1.4,0,0,1,.271.283a1.355,1.355,0,0,1,1-.279C19.082.015,36.608.021,53.364.021,71.739.021,89.879.014,107.279,0c.59,0,.938.122,1.129.395a1.986,1.986,0,0,1,.209,1.136c-.016,18.378-.015,37.063-.015,55.134V67.3q0,23.242,0,46.482c0,1.588,0,1.588-1.59,1.588Zm-1.147-1.08c17.885,0,35.712.008,52.986.025h.01a1.415,1.415,0,0,0,1.082-.288,1.586,1.586,0,0,0,.249-1.079c-.03-33.527-.028-66.416,0-97.753,0-.579-.08-.894-.277-1.085a1.494,1.494,0,0,0-1.077-.261h-.012c-11.3.024-22.728.027-32.411.027H35.009c-9.746,0-21.24,0-32.6-.03H2.4a1.427,1.427,0,0,0-1.084.287,1.545,1.545,0,0,0-.253,1.085c.03,33.363.03,66.252,0,97.753a1.47,1.47,0,0,0,.27,1.073,1.534,1.534,0,0,0,1.1.268h.006C19.537,114.3,36.6,114.29,53.164,114.29ZM2.248,1.129a1.325,1.325,0,0,0-.962.24,1.232,1.232,0,0,0-.222.916c.072,3.051.073,6.114,0,9.1a1.46,1.46,0,0,0,.251,1.1,1.462,1.462,0,0,0,1.085.281h.014c11.277-.025,22.663-.029,32.313-.029H72.257c10.748,0,22.3,0,33.982.023h.013a1.4,1.4,0,0,0,1.016-.25,1.3,1.3,0,0,0,.227-.971c-.081-3.118-.08-6.14,0-8.982.018-.616-.055-.949-.252-1.151a1.547,1.547,0,0,0-1.142-.289h-.01c-17.644.028-35.508.032-52.184.032H18.943c-4.928,0-10.764,0-16.675-.022Z" transform="translate(40.443 3.816)" fill="#001e35"/>
      <path id="Fill_8" data-name="Fill 8" d="M31.728,52.245a74.732,74.732,0,0,1-6.14-5.3C18.822,40.98,12.137,34.924,5.338,29a6.15,6.15,0,0,1-2.2-4.241C2.157,16.616,1.06,8.49.006.358A2.479,2.479,0,0,1,.01,0,7.249,7.249,0,0,1,4.8,3.8C5.671,5.262,6.521,6.736,7.38,8.2A6.6,6.6,0,0,0,8.6,10.386c2.156,3.911,4.293,7.833,6.471,11.733q8.141,14.581,16.3,29.15c.166.3.461.572.351.977" transform="translate(250.198 34.925)" fill="#f37777"/>
      <g id="Group_12" data-name="Group 12" transform="translate(316.495 65)">
        <path id="Clip_11-2" data-name="Clip 11" d="M0,0H27.505V99.066H0Z" fill="none"/>
        <g id="Group_12-2" data-name="Group 12" clip-path="url(#clip-path-3)">
          <path id="Fill_10" data-name="Fill 10" d="M4.377,99.066c-.03,0-.061,0-.093,0a.609.609,0,0,1-.453-.2A1.163,1.163,0,0,1,3.766,98c.01-.061.019-.121.026-.178.663-5.148,1.389-10.728,2.284-17.561Q6.885,74.09,7.7,67.921t1.62-12.339c.62-4.737,1.245-9.554,1.85-14.213l0-.031.4-3.08c.007-.053.018-.106.03-.161a.767.767,0,0,0-.129-.74A7.566,7.566,0,0,1,6.84,39.1a7.061,7.061,0,0,1-2.827-.62,6.408,6.408,0,0,1-3.6-3.952,6.127,6.127,0,0,1,.248-4.984c1-1.869,3.052-3.264,5.945-4.033-3.75-1.67-5.3-4.35-4.619-7.963a6.178,6.178,0,0,1,4.992-5.086,8,8,0,0,1,1.752-.2,6.694,6.694,0,0,1,5.646,3.223.749.749,0,0,0,.272-.7,1.121,1.121,0,0,1,.051-.4,1.066,1.066,0,0,0,.061-.837c-.11-.244-.374-.431-.856-.608a6.547,6.547,0,0,1-3.239-2.577A6.629,6.629,0,0,1,9.58,6.406,6.75,6.75,0,0,1,14.47.264,6.6,6.6,0,0,1,16.319,0,6.937,6.937,0,0,1,20.6,1.5a6.55,6.55,0,0,1,2.391,3.87,6.835,6.835,0,0,1-1.247,5.435,6.336,6.336,0,0,1-4.591,2.524c-1.166.093-1.171.721-1.175,1.327a2.285,2.285,0,0,1-.078.712,1.094,1.094,0,0,1-.012.113c-.012.087-.023.17.012.2a.126.126,0,0,0,.076.034c.053,0,.081-.062.109-.122.008-.017.016-.034.024-.048a7.718,7.718,0,0,1,4.558-1.7,6.343,6.343,0,0,1,1.258.129,7.142,7.142,0,0,1,4.094,2.439A6.422,6.422,0,0,1,27.5,20.766a6.726,6.726,0,0,1-6.206,6.478c-.06.006-.12.018-.24.042-.084.016-.2.039-.362.069,3.2,1.362,4.8,3.328,5,6.184a6.424,6.424,0,0,1-1.868,5.123,6.239,6.239,0,0,1-4.538,2.023A8.671,8.671,0,0,1,13,37.4q-.164,1.219-.325,2.405v.008c-.238,1.752-.462,3.408-.684,5.1C10.632,55.2,9.313,65.253,8.2,73.735c-1.054,8.036-2.121,16.179-3.17,24.2-.009.067-.016.139-.023.208C4.964,98.6,4.919,99.065,4.377,99.066ZM18.934,28.52a5.332,5.332,0,0,0-3.867,1.636,5.838,5.838,0,0,0-1.607,4.031,5.007,5.007,0,0,0,1.511,3.546,5.668,5.668,0,0,0,3.956,1.714h.045a5.463,5.463,0,0,0,.036-10.926h-.074ZM6.795,26.943a5.479,5.479,0,0,0-3.835,1.522,5.439,5.439,0,0,0,3.7,9.344h.116a5.442,5.442,0,0,0,3.871-1.519A5.6,5.6,0,0,0,12.241,32.4a5.257,5.257,0,0,0-1.493-3.814,5.452,5.452,0,0,0-3.811-1.641l-.141,0ZM14.76,23.8l-.019.147-.01.076c-.239,1.868-.442,3.453-.68,5.311a7.959,7.959,0,0,1,5.318-2.143A7.594,7.594,0,0,1,14.76,23.8Zm-1.28-.151a8.425,8.425,0,0,1-4.765,2.192A8.287,8.287,0,0,1,12.8,29.1c.163-1.294.308-2.45.459-3.655l0-.024Zm7.144-8.551a5.161,5.161,0,0,0-3.7,1.535A5.81,5.81,0,0,0,15.3,20.5a5.218,5.218,0,0,0,1.412,3.793,5.409,5.409,0,0,0,3.82,1.737l.18,0a5.5,5.5,0,0,0,3.781-1.5,5.313,5.313,0,0,0,1.692-3.654,5.511,5.511,0,0,0-1.417-3.994A5.568,5.568,0,0,0,20.91,15.1C20.815,15.1,20.719,15.094,20.624,15.094ZM8.57,13.544h0a5.5,5.5,0,0,0-3.887,1.571,5.439,5.439,0,0,0-.017,7.694,5.486,5.486,0,0,0,3.884,1.6h.022a5.465,5.465,0,0,0,3.933-1.613,5.566,5.566,0,0,0,1.573-4.033A5.5,5.5,0,0,0,8.59,13.545H8.57Zm7.405-4.556h.04a.565.565,0,0,1,.418.168.765.765,0,0,1,.133.587c-.008.1-.015.2-.022.3a6.392,6.392,0,0,1-.168,1.245c-.094.343-.09.575.013.709a.531.531,0,0,0,.453.157,2.952,2.952,0,0,0,.4-.033,5.466,5.466,0,0,0,.214-10.752,5.982,5.982,0,0,0-1.084-.1A5.444,5.444,0,0,0,13.725,11.5a2.719,2.719,0,0,0,.965.406c.281,0,.352-.291.471-1.062.036-.23.068-.463.1-.689.023-.165.046-.33.071-.5C15.4,9.209,15.61,8.988,15.975,8.988Z" fill="#001e35"/>
        </g>
      </g>
      <path id="Fill_13" data-name="Fill 13" d="M.011,40.863v0a22.891,22.891,0,0,1,1.362-8.63A23.374,23.374,0,0,1,5.93,24.779a2.556,2.556,0,0,0,.76-2.113,15.015,15.015,0,0,1,1.187-7.248,1.07,1.07,0,0,0-.053-1.092A5.492,5.492,0,0,1,7,10.247,5.746,5.746,0,0,1,9.567,6.9c.15-.009.3-.022.45-.036.251-.023.511-.046.764-.046.074,0,.143,0,.211.006,1.994.114,4.019.244,5.979.37l1.781.114c.089.1.181.193.27.286a6.122,6.122,0,0,1,.935,1.16,1.487,1.487,0,0,0,1.283.5,1.442,1.442,0,0,0,1.25-.49,5.33,5.33,0,0,1,.8-1.006c.135-.143.274-.292.4-.445.237,0,.478-.009.71-.015.348-.008.706-.017,1.059-.017a10.216,10.216,0,0,1,2.476.253,3.557,3.557,0,0,1,.973,4.237,3.479,3.479,0,0,1-3.242,2.057l-.13,0a3.5,3.5,0,0,1-3.315-2.784,1.6,1.6,0,0,1-.044-.192c-.044-.234-.09-.476-.442-.476H21.5c-.2,0-.41.024-.471.309-.054.252-.123.51-.189.759a5.861,5.861,0,0,0-.3,2.039c.036.348.552.416,1.051.482a4.461,4.461,0,0,1,.616.109l.061.018a1.176,1.176,0,0,1,.482.216.623.623,0,0,1,.24.613.441.441,0,0,1-.4.279,3.324,3.324,0,0,1-.394.023,7.143,7.143,0,0,1-2.166-.462c-.154-.05-.312-.1-.467-.149-.471-.144-.421-.492-.367-.86a1.078,1.078,0,0,0-.053-.722,4.509,4.509,0,0,1-2.422.817,4.012,4.012,0,0,1-3-1.586,7.941,7.941,0,0,0,.057,6.867,8.947,8.947,0,0,0,5.84,4.931,9.358,9.358,0,0,0,2.27.287,8.916,8.916,0,0,0,2.809-.46,1.647,1.647,0,0,1,.491-.1.486.486,0,0,1,.5.412c.141.514-.271.689-.668.813-.28.087-.582.169-.924.251a9.249,9.249,0,0,1-2.161.256,11.879,11.879,0,0,1-4.164-.825c-.041.561-.081,1.111-.12,1.655-.085,1.181-.165,2.3-.255,3.427a6.074,6.074,0,0,0,1.33,4.375,5.894,5.894,0,0,0,4.008,2.106c.189.019.38.028.569.028A5.7,5.7,0,0,0,27.123,34.8a6.056,6.056,0,0,0,1.933-3.778c.3-2.46.574-4.964.843-7.386v-.005c.224-2.021.457-4.112.7-6.166.094-.8.2-1.21.5-1.21a2.381,2.381,0,0,1,1.053.608A4.741,4.741,0,0,0,35.078,17.9a4.581,4.581,0,0,0,3.737-7.217,4.547,4.547,0,0,0-3.736-1.92,4.774,4.774,0,0,0-2.142.51,2.462,2.462,0,0,0-.291.183,1.139,1.139,0,0,1-.6.269.6.6,0,0,1-.39-.161c-.345-.292-.2-.595-.064-.887a1.419,1.419,0,0,0,.149-.423,1.01,1.01,0,0,1,.136-.324c.094-.172.191-.349.12-.477-.06-.108-.235-.169-.535-.184l-2.528-.212c-1.788-.149-3.637-.3-5.454-.465L22.5,6.5l-.022,0a84.576,84.576,0,0,1-8.5-1.041l-.1-.018c-.494-.092-.961-.179-1.083-.791a.8.8,0,0,1,.632-.512,64.643,64.643,0,0,0,8.459,1.131c1.165.1,2.368.211,3.548.343a1.554,1.554,0,0,0,.171.01c.521,0,.57-.335.628-.722.006-.042.012-.084.019-.127a6.15,6.15,0,0,1,.971-2.6A4.6,4.6,0,0,1,29.443.495,7.742,7.742,0,0,1,31.222.117c.262-.034.533-.07.8-.117a.841.841,0,0,1,.593.372.83.83,0,0,1-.022.691c-.136.023-.274.05-.408.076-.288.056-.585.114-.88.141a4.4,4.4,0,0,0-2.637,1.041,4.285,4.285,0,0,0-1.25,2.51.98.98,0,0,0,.069.782.819.819,0,0,0,.643.215c1.185.033,2.389.1,3.553.173h.005c.481.028.978.058,1.467.084.529.332.384.712.23,1.115a2.024,2.024,0,0,0-.154.555c.306-.012.611-.041.907-.068.379-.036.77-.072,1.153-.072a4.457,4.457,0,0,1,1,.1,5.825,5.825,0,0,1,4.183,3.619,5.556,5.556,0,0,1-.73,5.295,1.981,1.981,0,0,0-.382,1.84,12.13,12.13,0,0,1,.262,4.274,2.381,2.381,0,0,0,.736,2A23.6,23.6,0,0,1,44.862,32a22.262,22.262,0,0,1,1.431,8.423,6.614,6.614,0,0,1-1.221-2.182,21.3,21.3,0,0,0-6.086-13.272,1.815,1.815,0,0,1-.564-1.713,13.35,13.35,0,0,0-.125-4.283c-.006-.04-.01-.087-.014-.136-.019-.22-.042-.495-.289-.495a.706.706,0,0,0-.3.088,5.79,5.79,0,0,1-2.587.636,6.81,6.81,0,0,1-3.428-1.023c-.309,2.887-.61,5.7-.909,8.5l-.016.147-.227,2.127q-.051.412-.1.825v.008c-.065.54-.133,1.1-.2,1.649a6.975,6.975,0,0,1-2.379,4.4,7.027,7.027,0,0,1-6.823,1.342,6.368,6.368,0,0,1-3.463-2.53,9.6,9.6,0,0,1-1.369-4.756q.053-.7.1-1.408v-.008c.084-1.182.17-2.4.286-3.6a1.147,1.147,0,0,0-.613-1.16,8.222,8.222,0,0,1-3.5-4.714c-.489-2.057-1.449-2.669-2.741-2.955a2.069,2.069,0,0,0-.435-.059c-.369,0-.476.193-.618.6a14.522,14.522,0,0,0-.794,6.479,2.667,2.667,0,0,1-.82,2.331,22.076,22.076,0,0,0-4.27,6.513A20.986,20.986,0,0,0,1.2,39.418,4.348,4.348,0,0,1,.012,40.862ZM10.625,7.839A1.5,1.5,0,0,0,9.74,8.2a3.806,3.806,0,0,0-1.614,3.853,3.725,3.725,0,0,0,2.529,3.051,2.091,2.091,0,0,1,.192.091,1.268,1.268,0,0,0,.525.182c.213,0,.349-.152.417-.464a2.287,2.287,0,0,1,.07-.231c.078-.229.166-.488.058-.64a.406.406,0,0,0-.353-.127,1.91,1.91,0,0,0-.365.043.274.274,0,0,1-.054.006.313.313,0,0,1-.26-.161.611.611,0,0,1-.032-.571,2.969,2.969,0,0,1,.515-.8c.319-.342.444-.618.38-.843s-.324-.4-.792-.534a1.523,1.523,0,0,1-.309-.137c-.041-.022-.082-.044-.123-.064a.984.984,0,0,1-.538-.474.563.563,0,0,1,.061-.441.465.465,0,0,1,.436-.292,1.312,1.312,0,0,1,.5.14c.477.211.949.435,1.449.673l.663.314a7.567,7.567,0,0,1,.787-2.658l-.918-.078c-.778-.066-1.51-.127-2.245-.2C10.69,7.84,10.657,7.839,10.625,7.839Zm5.16,2.769a1.033,1.033,0,0,1,.484.136.935.935,0,0,1,.512.56,1.876,1.876,0,0,1-.409,1.324c1.55,0,2.353-.5,2.686-1.667a2.374,2.374,0,0,0-2.277-3,2.309,2.309,0,0,0-1.575.592,2.257,2.257,0,0,0-.49,2.939C14.976,11.054,15.307,10.608,15.785,10.608Zm8.88,0a1.03,1.03,0,0,1,.576.2c.731.5.425,1.115.016,1.752.153.014.307.022.454.022A2.108,2.108,0,0,0,27.9,11.166,2.342,2.342,0,0,0,27.082,8.4a2.482,2.482,0,0,0-2.9.091,2.192,2.192,0,0,0-.54,2.844A1.431,1.431,0,0,1,24.665,10.61Z" transform="translate(212.507 4.891)" fill="#001e35"/>
      <path id="Fill_15" data-name="Fill 15" d="M7.088,31.991a7.173,7.173,0,0,1-5.17-2.613A5.124,5.124,0,0,1,.5,25.413a15.878,15.878,0,0,0,.014-4.125c-.062-.6-.105-1.212-.147-1.8C.3,18.494.224,17.469.059,16.45a4.591,4.591,0,0,1,.884-3.5,5.873,5.873,0,0,1,3.969-2.239,15.251,15.251,0,0,1,1.925-.119,22.777,22.777,0,0,1,4.392.478c.278.054.56.1.886.163l.565.1q-.246-.772-.482-1.5c-.368-1.141-.715-2.218-1.044-3.311A6.573,6.573,0,0,1,11.038,2.4,3.4,3.4,0,0,1,12.864.294,2.989,2.989,0,0,1,14.112,0a2.5,2.5,0,0,1,2.283,1.664,68.637,68.637,0,0,0,4.78,8.54c.936,1.5,1.9,3.049,2.787,4.611a.921.921,0,0,0,.293.269c.053.036.107.074.154.113a12.371,12.371,0,0,1,2.855,4.01,10.94,10.94,0,0,1,.854,4.837,7.922,7.922,0,0,1-2.5,5.363,7.822,7.822,0,0,1-5.325,2.245,6.7,6.7,0,0,1-1.041-.081,2.878,2.878,0,0,1-1.34-.448,2.054,2.054,0,0,0-1.329-.547,2.509,2.509,0,0,0-1.436.546,75.607,75.607,0,0,1-7.74.859C7.3,31.988,7.2,31.991,7.088,31.991ZM2.007,24.585c-.185,0-.3.2-.358.625a4.173,4.173,0,0,0-.016,1.3,5.076,5.076,0,0,0,2.142,2.914,6.946,6.946,0,0,0,3.945,1.392h.1c.512-.057,1.059-.115,1.638-.176,1.468-.155,3.132-.332,4.78-.551A2.9,2.9,0,0,0,16.625,28.5a1.718,1.718,0,0,0-.074-1.814,1.438,1.438,0,0,0-1.285-.67,2.7,2.7,0,0,0-.39.031c-.751.111-1.516.212-2.256.309-.852.112-1.731.228-2.594.36a13.68,13.68,0,0,1-2.089.172,7.624,7.624,0,0,1-5.4-1.995A.929.929,0,0,0,2.007,24.585Zm12.037-9.773a3.359,3.359,0,0,1,2.992,1.2c.555.858.477,2.134-.224,3.691a.415.415,0,0,0,.1.575c.027.028.054.057.082.089a3.436,3.436,0,0,1,1.03,2.144,3.452,3.452,0,0,1-.958,2.21c-.353.436-.255.572.08.9a2.52,2.52,0,0,1,.623,3.067,1.07,1.07,0,0,0-.134.808c.1.287.416.457.758.619a4.356,4.356,0,0,0,1.884.4A6.437,6.437,0,0,0,24.5,28.847a7.394,7.394,0,0,0,2.465-5.395,9.221,9.221,0,0,0-2.588-6.511,16.965,16.965,0,0,1-2.624-3.529c-.509-.87-1.046-1.744-1.565-2.589-.385-.627-.781-1.273-1.164-1.913-.228-.381-.462-.766-.689-1.139A39.547,39.547,0,0,1,15.5,2.531L15.46,2.44c-.27-.652-.525-1.268-1.321-1.268l-.077,0a2.025,2.025,0,0,0-1.823,1.348,5.009,5.009,0,0,0-.059,3.285,45.481,45.481,0,0,0,1.946,5.771c.019.047.041.095.063.143.126.277.256.563.013.868a.55.55,0,0,1-.45.236,1.442,1.442,0,0,1-.415-.087c-.076-.024-.154-.048-.231-.065-.236-.052-.472-.107-.708-.161-.764-.175-1.554-.356-2.34-.476a21.854,21.854,0,0,0-3.321-.313,10.331,10.331,0,0,0-2.048.192,4.6,4.6,0,0,0-3.435,3.017A3.126,3.126,0,0,0,1.848,18.1a7.044,7.044,0,0,0,5.244,2.685c.135,0,.272,0,.409-.014,1.424-.095,2.85-.252,3.933-.379.284-.033.575-.054.856-.073a7.205,7.205,0,0,0,2.207-.39c1.388-.555,2.061-1.493,1.844-2.574-.183-.919-.876-1.385-2.06-1.385-.161,0-.334.009-.514.026-.234.023-.473.034-.73.034a17.434,17.434,0,0,1-2.046-.16l-.014,0a17.526,17.526,0,0,0-2.025-.158c-.242,0-.467.01-.687.03-.033,0-.066,0-.1,0a.653.653,0,0,1-.481-.174.563.563,0,0,1-.148-.424.594.594,0,0,1,.653-.563H8.2l.3,0c.69,0,1.4.008,2.1.081.208.022.417.048.619.073a12.633,12.633,0,0,0,1.56.13,5.391,5.391,0,0,0,.564-.028C13.581,14.822,13.819,14.812,14.044,14.812ZM1.859,19.7C1.5,20.712,1.5,20.712,1.62,21.4a5.426,5.426,0,0,0,1.945,2.834,5.467,5.467,0,0,0,3.282,1.455h.014a39.839,39.839,0,0,0,7.852-.829,2.6,2.6,0,0,0,2.012-1.711,1.592,1.592,0,0,0-.361-1.772,1.323,1.323,0,0,0-.894-.472,1,1,0,0,0-.384.082,10.149,10.149,0,0,1-3.257.581c-.6.04-1.216.081-1.815.182a14.127,14.127,0,0,1-2.354.213,7.942,7.942,0,0,1-5.8-2.257h0Z" transform="translate(165.154 29.037)" fill="#001e35"/>
      <g id="Group_19" data-name="Group 19" transform="translate(225.931)">
        <path id="Clip_18-2" data-name="Clip 18" d="M0,0H18.6V10.513H0Z" fill="none"/>
        <g id="Group_19-2" data-name="Group 19" clip-path="url(#clip-path-4)">
          <path id="Fill_17" data-name="Fill 17" d="M18.6,4.891a13.793,13.793,0,0,0-2.578.495,4.989,4.989,0,0,0-3.192,4.278c-.078.482-.07.923-.818.839C8,10.053,3.954,9.918,0,9.028,1.445.851,10.339-2.714,16.738,2.326A5.249,5.249,0,0,1,18.6,4.891" transform="translate(0 0)" fill="#f37777"/>
        </g>
      </g>
      <path id="Fill_20" data-name="Fill 20" d="M4.858,9.957,3.748,9.9A5.256,5.256,0,0,1,.064,5.741,5.113,5.113,0,0,1,3.806.114,5.126,5.126,0,0,1,9.757,3.7a4.994,4.994,0,0,1-4.9,6.252" transform="translate(78.589 136.486)" fill="#f37777"/>
      <path id="Fill_22" data-name="Fill 22" d="M6.743,5.731l-1.2-.009c-.864-.006-1.756-.012-2.633-.031A2.8,2.8,0,0,1,0,2.985,2.867,2.867,0,0,1,.758.9,2.728,2.728,0,0,1,2.692.063C4.263.021,5.843,0,7.386,0c1.6,0,3.2.023,4.767.067a2.768,2.768,0,0,1,2.722,2.911A2.824,2.824,0,0,1,11.947,5.69c-.882.021-1.779.026-2.647.031H9.291l-1.176.008ZM3.019,2.322a.852.852,0,0,0-.608.16.516.516,0,0,0-.129.386c0,.588.576.59.995.59H9.664c.739,0,1.336,0,1.88-.006h.089c.42,0,.9,0,.9-.577a.543.543,0,0,0-.132-.4.767.767,0,0,0-.555-.152l-.148,0h-.053l-.1,0c-1.2,0-2.482,0-3.908,0l-4.358,0H3.019Z" transform="translate(35.016 146.452)" fill="#f37777"/>
      <path id="Fill_24" data-name="Fill 24" d="M2.548,13.053a2.558,2.558,0,0,1-2.5-2.681C0,9.731-.011,9.046.011,8.338A2.526,2.526,0,0,1,2.538,5.7,3.132,3.132,0,0,1,3.7,5.935c.567.225,1.128.491,1.671.748.414.2.842.4,1.27.583a2.565,2.565,0,0,1,.236.122,1.314,1.314,0,0,0,.662.222,1.045,1.045,0,0,0,.318-.052c-.19-.354-.382-.709-.568-1.053C6.838,5.679,6.417,4.9,6,4.1a2.848,2.848,0,0,1-.161-2.734A2.861,2.861,0,0,1,8.267.07C8.8.033,9.33,0,9.849,0c.248,0,.475.007.695.023a2.71,2.71,0,0,1,2.2,1.232,2.6,2.6,0,0,1,.06,2.424c-.492,1.1-1.031,2.2-1.552,3.268-.374.764-.76,1.553-1.126,2.336a1.323,1.323,0,0,1-.657.652l-1.324.677c-1.345.69-2.736,1.4-4.12,2.073A3.393,3.393,0,0,1,2.548,13.053ZM2.533,6.9h0A1.254,1.254,0,0,0,1.247,8.135a11.85,11.85,0,0,0,.056,2.5,1.306,1.306,0,0,0,1.269,1.246,1.55,1.55,0,0,0,.656-.154c1.093-.51,2.172-1.067,3.315-1.658.5-.26,1.022-.528,1.567-.8-.554-.254-1.08-.5-1.588-.735l-.01,0C5.391,8,4.333,7.513,3.277,7.061A1.889,1.889,0,0,0,2.533,6.9ZM9.744,1.19A12.4,12.4,0,0,0,7.9,1.32a1.321,1.321,0,0,0-1.022.66,1.3,1.3,0,0,0,.041,1.195c.543,1.1,1.122,2.162,1.734,3.29.252.464.512.944.773,1.432.241-.494.481-.977.713-1.444l0-.006c.541-1.089,1.051-2.118,1.526-3.17a1.523,1.523,0,0,0,.013-1.445A1.5,1.5,0,0,0,10.4,1.2C10.177,1.2,9.957,1.19,9.744,1.19Z" transform="translate(300.134 24.477)" fill="#001e35"/>
      <path id="Fill_26" data-name="Fill 26" d="M22.1,2.914a16.307,16.307,0,0,0-4.245-.222l-4.941-.007c-2.587-.164-5.173-.336-7.76-.484a12.582,12.582,0,0,0-1.425.075c-.9-.567-2-.421-2.941-.85C.474,1.283.007,1.211,0,.8-.009.275.527.251.886.189A44.2,44.2,0,0,1,6.957.025c.13.653.662.711,1.179.81a95.053,95.053,0,0,0,9.505,1.129c2.66.237,5.321.452,7.982.677L22.1,2.914" transform="translate(218.344 9.516)" fill="#f37777"/>
      <path id="Fill_28" data-name="Fill 28" d="M5.78,5.024C4.1,4.934,2.431,4.813.754,4.766c-.772-.021-.818-.387-.712-1A3.936,3.936,0,0,1,3.929.218C4.361.178,4.788.074,5.217,0A15.364,15.364,0,0,1,5.78,5.024" transform="translate(239.88 5.953)" fill="#f37777"/>
      <path id="Fill_30" data-name="Fill 30" d="M.326.3A.331.331,0,0,1,0,0C.23-.03.259.155.326.3" transform="translate(281.897 87.157)" fill="#f37777"/>
      <path id="Fill_32" data-name="Fill 32" d="M.286,7.484A11.1,11.1,0,0,1,5.444,1.235c.125-.067.126-.169.057-.28L5.52.99A15.963,15.963,0,0,1,11.553.043a11.258,11.258,0,0,1,.635,4.546,6.05,6.05,0,1,0,1.5,10.763,15.363,15.363,0,0,1,3.255,2.869c-6.433,4.955-15.236,1.761-16.815-6.1a18.634,18.634,0,0,1-.1-3.447A2.089,2.089,0,0,0,.286,7.484" transform="translate(238.872 47.606)" fill="#f37777"/>
      <path id="Fill_34" data-name="Fill 34" d="M0,1.253,1.393.941c.262,3.985,1.778,6.271,4.831,7.287a7.034,7.034,0,0,0,9.2-5.747c.107-.826.2-1.654.3-2.482l1.142.165c-.242,4.257-.494,8.513-.716,12.771-.029.547-.2.751-.761.8q-6.268.5-12.529,1.06c-.741.068-.644-.431-.709-.82C1.538,10.28.935,6.586.321,2.894.229,2.345.108,1.8,0,1.253" transform="translate(227.303 33.711)" fill="#f37777"/>
      <path id="Fill_36" data-name="Fill 36" d="M.087,0A10.36,10.36,0,0,1,9.562,7.562C11.267,13.845,7.045,19.811.369,20.573c-.594-1.392-.293-2.845-.294-4.279a5.984,5.984,0,0,0,5.662-5.936A6.037,6.037,0,0,0,.086,4.264,31.327,31.327,0,0,1,.087,0" transform="translate(261.971 136.374)" fill="#f37777"/>
      <path id="Fill_38" data-name="Fill 38" d="M2.831,17.41A10.408,10.408,0,0,1,.255,8.1C1.853.943,9.564-2.18,16.07,1.648a12.939,12.939,0,0,1-2.853,3.33A5.964,5.964,0,0,0,5.67,6.332a5.817,5.817,0,0,0-.02,7.64A10.444,10.444,0,0,1,2.831,17.41" transform="translate(201.796 125.116)" fill="#f37777"/>
      <path id="Fill_40" data-name="Fill 40" d="M13.314,0A9.39,9.39,0,0,1,15.5,10.464a9.83,9.83,0,0,1-8.719,6.651A9.473,9.473,0,0,1,0,15.339a23.461,23.461,0,0,1,2.633-3.072,6.271,6.271,0,0,0,5.063.615c4.164-1.269,5.545-5.9,2.936-9.787L13.314,0" transform="translate(209.947 68.634)" fill="#f37777"/>
      <path id="Fill_42" data-name="Fill 42" d="M12.551,0a10.2,10.2,0,0,1-1.328,11.494A10.256,10.256,0,0,1,0,14.416L3.179,10.78A5.983,5.983,0,0,0,9.366,3.674L12.551,0" transform="translate(187.247 95.558)" fill="#f37777"/>
      <path id="Fill_44" data-name="Fill 44" d="M0,.646a9.725,9.725,0,0,1,10.422,2.21A9.61,9.61,0,0,1,13.254,13.1L9.363,9.453a5.938,5.938,0,0,0-5.49-5.172A40.811,40.811,0,0,1,0,.646" transform="translate(248.712 102.614)" fill="#f37777"/>
      <path id="Fill_46" data-name="Fill 46" d="M.5,13.393A10.409,10.409,0,0,1,7.994,0a9.639,9.639,0,0,1-.012,4.552C4.511,5.859,3.243,9.806,5.166,13.32A27.344,27.344,0,0,1,.5,13.393" transform="translate(287.53 145.666)" fill="#f37777"/>
      <path id="Fill_48" data-name="Fill 48" d="M10.285,20.571h-.129A10.23,10.23,0,0,1,0,10.172,10.162,10.162,0,0,1,3.059,2.993,10.192,10.192,0,0,1,10.262,0h.165A10.393,10.393,0,0,1,17.7,3.1a10.231,10.231,0,0,1-.087,14.5A10.393,10.393,0,0,1,10.285,20.571Zm.042-16.333A6.082,6.082,0,0,0,10.276,16.4h.037A6.105,6.105,0,0,0,14.649,6.024a6.031,6.031,0,0,0-4.3-1.786Z" transform="translate(273.449 107.636)" fill="#f37777"/>
      <path id="Fill_50" data-name="Fill 50" d="M10.35,20.586h-.015A10.293,10.293,0,1,1,10.351,0h.028a10.293,10.293,0,1,1-.03,20.586Zm0-16.343a6.12,6.12,0,0,0-4.3,1.709,5.958,5.958,0,0,0-1.8,4.225,5.993,5.993,0,0,0,5.874,6.156l.161,0a6.158,6.158,0,0,0,4.294-1.684,5.967,5.967,0,0,0,1.824-4.191,5.989,5.989,0,0,0-5.935-6.215h-.123Z" transform="translate(170.457 125.067)" fill="#f37777"/>
      <path id="Fill_52" data-name="Fill 52" d="M10.37,20.586h-.041a10.316,10.316,0,0,1-7.282-3.051,10.164,10.164,0,0,1-.012-14.5A10.322,10.322,0,0,1,10.333,0h.022a10.332,10.332,0,0,1,7.395,3.086,10.11,10.11,0,0,1,2.962,7.259A10.378,10.378,0,0,1,10.37,20.586Zm0-16.349A6.135,6.135,0,0,0,6.07,5.96a5.927,5.927,0,0,0-1.812,4.208,6.04,6.04,0,0,0,5.989,6.16h.073a6.067,6.067,0,0,0,6.16-5.934A5.973,5.973,0,0,0,14.794,6.1a6.1,6.1,0,0,0-4.32-1.866Z" transform="translate(247.124 72.339)" fill="#f37777"/>
      <path id="Fill_54" data-name="Fill 54" d="M10.565,20.565c-.187,0-.377-.006-.564-.017a10.835,10.835,0,0,1-7.283-3.359A9.761,9.761,0,0,1,.013,9.946a10.466,10.466,0,0,1,3.2-7.16A10.642,10.642,0,0,1,10.559,0c.218,0,.439.006.659.017a10.011,10.011,0,0,1,6.823,3.4,10.084,10.084,0,0,1,2.647,7.208,10.685,10.685,0,0,1-3.208,7.048A9.881,9.881,0,0,1,10.565,20.565ZM10.326,4.154a6.174,6.174,0,0,0-6.107,6,5.99,5.99,0,0,0,1.726,4.3,6.06,6.06,0,0,0,4.3,1.869h.072a6.085,6.085,0,0,0,.118-12.168h-.108Z" transform="translate(209.97 93.877)" fill="#f37777"/>
      <path id="Fill_56" data-name="Fill 56" d="M8.393,0a2.089,2.089,0,0,1-.256,1.191q-3.388.289-6.776.576C.84,1.81.081,2.128.005,1.316-.074.464.777.7,1.265.649,3.638.408,6.016.212,8.393,0" transform="translate(230.765 55.089)" fill="#001e35"/>
      <path id="Fill_58" data-name="Fill 58" d="M0,2.19A2.1,2.1,0,0,1,2.043,0,2.255,2.255,0,0,1,4.228,2.1a2.156,2.156,0,0,1-2.1,2.169A2.041,2.041,0,0,1,0,2.19" transform="translate(44.612 8.622)" fill="#f37777"/>
      <path id="Fill_60" data-name="Fill 60" d="M2.171,4.272A2.2,2.2,0,0,1,0,2.164,2.3,2.3,0,0,1,2.138,0,2.175,2.175,0,0,1,4.271,2.127a2.158,2.158,0,0,1-2.1,2.145" transform="translate(56.45 8.623)" fill="#f37777"/>
      <path id="Fill_62" data-name="Fill 62" d="M4.228,2.146A2.035,2.035,0,0,1,2.142,4.274,2.157,2.157,0,0,1,0,2.153,2.25,2.25,0,0,1,2.133,0,2.177,2.177,0,0,1,4.228,2.146" transform="translate(50.508 8.622)" fill="#f37777"/>
      <path id="Fill_64" data-name="Fill 64" d="M3.323,3.35a2.775,2.775,0,0,1-1.912-.812A3.905,3.905,0,0,1,.788,1.82a2.3,2.3,0,0,0-.339-.385c-.285-.28-.579-.57-.388-1A.734.734,0,0,1,.815,0c.123,0,.253.012.378.024l.018,0c.121.012.245.024.362.024.038,0,.074,0,.108,0,.192-.015.4-.021.648-.021.171,0,.344,0,.512.006s.342.006.512.006H4.626c.447,0,.79,0,1.115,0h.126c.347,0,.646.029.791.383s-.093.632-.287.849c-.12.133-.239.271-.353.4a11.633,11.633,0,0,1-.852.917A2.682,2.682,0,0,1,3.323,3.35ZM1.905,1.278a2.1,2.1,0,0,0,1.432.9c.429,0,.856-.285,1.344-.9Z" transform="translate(230.538 21.332)" fill="#001e35"/>
      <path id="Fill_66" data-name="Fill 66" d="M2.166,1.483c.656.465,1.085.745,1.486,1.061a.514.514,0,0,1,.174.728.531.531,0,0,1-.814.19C2.116,2.878,1.2,2.314.36,1.657-.189,1.228-.116.729.621.571,1.667.348,2.73.2,3.786.026c.382-.064.768-.039.858.407.109.546-.341.635-.735.717-.493.1-.99.19-1.743.332" transform="translate(244.253 16.412)" fill="#001e35"/>
      <path id="Fill_68" data-name="Fill 68" d="M46.719,42.439a2.2,2.2,0,0,1-1.593-.992c-.509-.6-1.036-1.21-1.546-1.8-.831-.956-1.691-1.944-2.493-2.949A5.1,5.1,0,0,0,36.8,34.721h-.083c-3.633.036-7.245.054-10.735.054-2.89,0-5.779-.013-8.585-.037A17.284,17.284,0,0,1,.363,20.827,13.879,13.879,0,0,1,0,17.536,17.466,17.466,0,0,1,5,5.256,17.075,17.075,0,0,1,17.08.082C20.63.041,24.3,0,27.913,0c3.265,0,6.159.034,8.847.1A17.856,17.856,0,0,1,46.113,2.78a17.043,17.043,0,0,1,6.211,7.444A16.944,16.944,0,0,1,53.882,19.7a18.162,18.162,0,0,1-4,8.8,5.914,5.914,0,0,0-1.455,4.039c.04,1.589.032,3.205.025,4.768,0,.95-.009,1.932,0,2.9,0,.849-.13,1.768-1.167,2.137A1.674,1.674,0,0,1,46.719,42.439ZM36.808,33.4a6.253,6.253,0,0,1,5.248,2.446c1.058,1.322,2.2,2.616,3.3,3.868l.032.037.488.556a2.443,2.443,0,0,1,.183.254c.159.24.323.488.589.488A.537.537,0,0,0,46.852,41c.365-.153.317-.513.27-.861a2.421,2.421,0,0,1-.03-.332c.019-2.186.034-4.777,0-7.424a6.738,6.738,0,0,1,1.615-4.5,16.968,16.968,0,0,0,3.865-8.273,15.646,15.646,0,0,0-1.481-8.94,15.659,15.659,0,0,0-5.934-6.93,17.02,17.02,0,0,0-8.906-2.339c-1.027-.009-2.116-.014-3.426-.014-1,0-2.009,0-2.989.005h-.007q-1.408,0-2.817.005l-2.778,0-2.778,0c-1.571,0-2.855,0-4.041-.008h-.077a15.785,15.785,0,0,0-5.443.937A16.293,16.293,0,0,0,3.5,9.311a15.746,15.746,0,0,0-2.013,10.6,16.468,16.468,0,0,0,1.9,5.4,15.827,15.827,0,0,0,8.25,7.056A16.5,16.5,0,0,0,17.3,33.405c2.836.025,5.826.038,8.885.038,3.336,0,6.787-.014,10.551-.044Z" transform="translate(67.707 43.78)" fill="#001e35"/>
      <path id="Fill_70" data-name="Fill 70" d="M0,4.622A4.55,4.55,0,0,1,2.793.469a4.738,4.738,0,0,1,5.255.786C8.69,1.776,9.138,2.866,9.9,2.8c.627-.059,1.161-1,1.754-1.522A4.861,4.861,0,0,1,18.2,1.3a4.692,4.692,0,0,1,.356,6.593c-2.664,2.865-5.5,5.566-8.249,8.356-.413.419-.645.245-.966-.078C6.664,13.477,3.968,10.807,1.306,8.1A4.754,4.754,0,0,1,0,4.622" transform="translate(84.971 52.87)" fill="#f37777"/>
    </g>
  </g>
</svg>
