<svg xmlns="http://www.w3.org/2000/svg" xmlns:xlink="http://www.w3.org/1999/xlink" width="335" height="180" viewBox="0 0 335 180">
  <defs>
    <clipPath id="clip-path">
      <path id="Mask" d="M0,0H335a0,0,0,0,1,0,0V162.2A17.8,17.8,0,0,1,317.2,180H17.8A17.8,17.8,0,0,1,0,162.2V0A0,0,0,0,1,0,0Z" transform="translate(335 180) rotate(-180)" fill="#bbcde5"/>
    </clipPath>
    <clipPath id="clip-path-2">
      <path id="Clip_2" data-name="Clip 2" d="M0,0H352V192.761H0Z" fill="none"/>
    </clipPath>
    <clipPath id="clip-path-3">
      <path id="Clip_9" data-name="Clip 9" d="M0,0H13.757V13.8H0Z" fill="none"/>
    </clipPath>
  </defs>
  <g id="Recurso_6_2x" data-name="Recurso 6@2x" clip-path="url(#clip-path)">
    <g id="Group_41" data-name="Group 41" transform="translate(-9 27)">
      <g id="Group_3" data-name="Group 3" transform="translate(0 5.239)">
        <path id="Clip_2-2" data-name="Clip 2" d="M0,0H352V192.761H0Z" fill="none"/>
        <g id="Group_3-2" data-name="Group 3" clip-path="url(#clip-path-2)">
          <path id="Fill_1" data-name="Fill 1" d="M1.674,192.761l-.4,0H.709a.763.763,0,0,1-.565-.194A.559.559,0,0,1,0,192.137c.016-.384.286-.6.742-.6H.891l.349,0,.351,0q2.291,0,4.582,0t4.582,0c3.507,0,6.195.01,8.716.033h.06a1.4,1.4,0,0,0,1.037-.264,1.48,1.48,0,0,0,.271-1.078c-.028-30.847-.028-62.211-.027-92.543v-13.5c0-1.869,0-1.869,1.921-1.869.873,0,1.761,0,2.619-.007h.059c.909,0,1.85-.007,2.785-.007,1.713,0,3.1.012,4.377.039h.108c.488,0,.761-.076.914-.256s.19-.484.108-1c-.744-4.684-1.471-9.451-2.174-14.062v-.008q-.3-1.943-.594-3.886c-.173-1.132-.353-2.283-.527-3.4l0-.013c-.418-2.676-.851-5.443-1.225-8.175a6.129,6.129,0,0,1,1.2-5.005,6.162,6.162,0,0,1,4.82-1.88c6.308-.005,12.931-.008,19.683-.008,6.852,0,13.839,0,21.36.008a6.212,6.212,0,0,1,4.263,1.383,6.572,6.572,0,0,1,1.934,4.083c.73,4.929,1.49,9.938,2.224,14.781l.005.034c.631,4.165,1.284,8.472,1.918,12.725.114.763.328,1.15,1.182,1.15l.134,0c.838-.034,1.739-.05,2.835-.05.711,0,1.434.007,2.134.013h.021c.488,0,.993.009,1.49.011a3.14,3.14,0,0,1,3.5,2.736c.133.529.3.781.92.781h.02c1.672-.015,3.384-.023,5.236-.023,1.652,0,3.394.006,5.323.018h.018a1.119,1.119,0,0,0,1.184-.737,9.706,9.706,0,0,1,.6-1.071,4.1,4.1,0,0,0,.816-2.032c-.017-.7-.655-1.139-1.33-1.607a6.056,6.056,0,0,1-.967-.77c-.52-.556-1.055-1.115-1.572-1.656l-.006-.006c-.428-.448-.871-.911-1.309-1.376-2.035-2.158-2.517-4.93-2.721-7.357a7.828,7.828,0,0,0-1.439-4.012,9.4,9.4,0,0,0-3.279-2.724c-.907-.479-1.845-.933-2.753-1.373l-.008,0c-.5-.243-1.019-.493-1.526-.746A8.55,8.55,0,0,1,93,55.435,2.7,2.7,0,0,1,92,52.357c.391-1.048,1.245-1.536,2.685-1.536l.144,0a18.038,18.038,0,0,1,3.551.529c.294.066.584.135.919.215l.475.113a1.818,1.818,0,0,0-.669-.886c-.063-.052-.121-.1-.178-.153l-.359-.329-.038-.035a25.6,25.6,0,0,1-4.266-4.6l-.028-.042c-.749-1.133-1.523-2.305-.5-3.678a2.122,2.122,0,0,1,1.81-.834,5.454,5.454,0,0,1,2.161.537c.49.217.978.466,1.449.706l.01.005c.208.106.424.216.638.322a.465.465,0,0,0-.122-.669,1.215,1.215,0,0,1-.1-.109l-.071-.089a11.354,11.354,0,0,1-1.478-2.177,2.259,2.259,0,0,1,.114-2.488,2.189,2.189,0,0,1,1.814-.907,3.218,3.218,0,0,1,.646.07,12.219,12.219,0,0,1,5.15,2.929c.752.616,1.473,1.3,2.17,1.954.274.259.558.526.84.787.15.139.3.284.437.425a3.91,3.91,0,0,0,2.134,1.337c.943.172,1.488,1.128,1.969,1.972l.068.119c1.334,2.334,2.651,4.728,3.924,7.044l.424.772c.807,1.468,1.619,2.966,2.4,4.416q.51.941,1.025,1.889v0c.72-1.044,1.018-1.476,1.535-1.476a4.963,4.963,0,0,1,1.679.607l.011.005c4.809,2.231,9.885,4.583,15.518,7.188.109.05,13.555,6.111,14.034,6.3L168.4,52.549a22.066,22.066,0,0,1,5.577-5.611,21.666,21.666,0,0,1,7.256-3.177c1.26-.3,2.532-.65,3.761-.987.622-.17,1.265-.346,1.907-.516l.114-.029c.381-.095.71-.176.651-.779-.22-2.217-.415-4.466-.6-6.64l-.008-.087q-.1-1.158-.2-2.318a10.232,10.232,0,0,1-2.111.232,5.859,5.859,0,0,1-6.186-4.979,5.792,5.792,0,0,1,.365-3.453,7.694,7.694,0,0,1,2.176-2.741,7.212,7.212,0,0,1,3.592-1.059,6.85,6.85,0,0,1,4.4,1.777l.033.064,0,.009c.169.328.36.7-.061.969a.627.627,0,0,1-.338.105,1.16,1.16,0,0,1-.726-.385,4.837,4.837,0,0,0-.662-.509,4.959,4.959,0,0,0-7.03,1.774,4.888,4.888,0,0,0-.4,3.91A4.789,4.789,0,0,0,182.47,31a4.815,4.815,0,0,0,5.094-.472l.1-.07.005,0a1.174,1.174,0,0,1,.614-.291.542.542,0,0,1,.42.238.572.572,0,0,1,.148.455.89.89,0,0,1-.425.551.869.869,0,0,0-.351.934c.108,1.181.209,2.383.306,3.546l0,.049c.211,2.528.43,5.141.737,7.706a6.252,6.252,0,0,0,6.084,5.633,5.849,5.849,0,0,0,.624-.034,6.356,6.356,0,0,0,5.845-6.889l0-.057c-.093-1.585-.189-3.224-.367-4.828a1.909,1.909,0,0,1,.961-2.058,9.426,9.426,0,0,0,1.876-13.938,2.305,2.305,0,0,1-.653-1.71,1.3,1.3,0,0,0-.169-.937.6.6,0,0,0-.463-.163,1.749,1.749,0,0,0-.344.039.593.593,0,0,1-.119.012c-.4,0-.641-.44-.747-.7a.825.825,0,0,1,.242-1.076c.362-.17.566-.354.623-.562.077-.282-.12-.573-.328-.88-.053-.077-.105-.155-.154-.232a8.019,8.019,0,0,0-1.205-1.4c-.208-.207-.423-.42-.622-.641l.629-.237.112-.042.517-.195a11.335,11.335,0,0,1,2.46,3.492c.136.349.409.452.725.572l.091.035a5.857,5.857,0,0,1,3.5,3.361,5.73,5.73,0,0,1-.458,4.731,2.416,2.416,0,0,0-.228,1.483,10.973,10.973,0,0,1-.783,5.44,11.329,11.329,0,0,1-3.419,4.317,2.8,2.8,0,0,1-.248.17,1.02,1.02,0,0,0-.559.652,1.317,1.317,0,0,0,.107,1.1.786.786,0,0,0,.643.244,2.521,2.521,0,0,0,.531-.066c.44-.1.9-.2,1.3-.293a34.842,34.842,0,0,1,7.683-1.151c.318,0,.635.009.944.026a22.565,22.565,0,0,1,8.4,2.18c1.424.663,2.863,1.33,4.255,1.974l.008,0c3.368,1.561,6.851,3.174,10.26,4.8a1.625,1.625,0,0,0,.675.2c.3,0,.514-.169.8-.623,3.561-5.66,7.2-11.4,10.722-16.956l.006-.009,2.825-4.458c.476-.751.693-1.094,1.04-1.094a3.257,3.257,0,0,1,1.259.569c.25.144.506.287.753.425.577.321,1.171.653,1.727,1.022a1.111,1.111,0,0,0,.573.234c.269,0,.438-.245.623-.639l.554-1.189a90.665,90.665,0,0,1,6.906-12.939c.158-.231.308-.486.454-.732a3.743,3.743,0,0,1,1.76-1.874A9.522,9.522,0,0,0,271.1,5.026,16.676,16.676,0,0,1,272.965,3.3c.253-.19.507-.385.751-.573A16.713,16.713,0,0,1,277.345.411,4.543,4.543,0,0,1,279.115,0a3.122,3.122,0,0,1,.565.051,2.054,2.054,0,0,1,1.427,1,2.353,2.353,0,0,1,.145,1.96,9.311,9.311,0,0,1-1.9,2.873l-.08.093c-.922,1.075-1.841,2.122-2.814,3.232l-.037.042q-.647.738-1.31,1.5a5.187,5.187,0,0,1,2.591,1.3,3.043,3.043,0,0,1,.859,3.284.906.906,0,0,0-.073.687c.085.18.312.288.675.413a3.6,3.6,0,0,1,2.263,2.343,3.947,3.947,0,0,1-.539,3.478,37.493,37.493,0,0,1-4.487,5.432,7.041,7.041,0,0,0-1.612,3.843l-.015.072-.049.238c-.033.156-.053.323-.072.484a2.324,2.324,0,0,1-.277,1.015,1.627,1.627,0,0,0-.384,1.256c.121.494.666.822,1.313,1.171,1.261.679,1.873,1.027,2.009,1.509s-.223,1.109-.942,2.34q-2.635,4.514-5.271,9.027c-4.073,6.972-8.284,14.182-12.436,21.324a19.227,19.227,0,0,1-7.013,7.208,1.132,1.132,0,0,0-.725,1.087c.019,6.1.021,12.261.022,18.22q0,3.217,0,6.434a.126.126,0,0,0,.029.081.1.1,0,0,0-.016-.045,68.754,68.754,0,0,1,18.862-13.005,51.17,51.17,0,0,1,9.987-3.313A48.668,48.668,0,0,1,290.181,85.5a53.857,53.857,0,0,1,12.556,1.535,69.648,69.648,0,0,1,13.107,4.66,65.465,65.465,0,0,1,12.8,9.4,50.991,50.991,0,0,1,9.084,11.511,49.686,49.686,0,0,1,5.288,13.625,61.485,61.485,0,0,1,1.409,15.738,52.4,52.4,0,0,1-12.007,31.167,53.983,53.983,0,0,1-13.031,11.525,52.534,52.534,0,0,1-16.7,6.86h48.436a1.042,1.042,0,0,1,.745.19.584.584,0,0,1,.137.449c-.019.534-.391.577-.839.577h-.987l-112.5,0L23.4,192.748c-4.879,0-9.98,0-14.481.008Zm93.949-1.241a1.643,1.643,0,0,1,.208.018,1.779,1.779,0,0,0,.228.02.529.529,0,0,0,.46-.229q-.748-.617-1.492-1.236l-.05-.041c-1.308-1.086-2.659-2.208-4.006-3.284a.951.951,0,0,1-.144-1.652c.923-1.034,1.813-2.1,2.755-3.236.4-.48.813-.977,1.247-1.493-.817.077-1.615.137-2.387.2-1.732.132-3.368.256-4.979.54a7.165,7.165,0,0,1-1.257.117,5.693,5.693,0,0,1-3.923-1.625c-2.878-2.515-5.908-4.982-8.838-7.368-1.2-.98-2.447-1.993-3.676-3-.032.112-.063.212-.091.3a2.937,2.937,0,0,0-.119.458q-.421,2.9-.838,5.791c-.694,4.8-1.411,9.771-2.147,14.655-.072.473-.046.73.088.887.153.178.462.215.879.215h.021c6.1-.022,12.308-.023,18.31-.025h.041C88.914,191.525,92.315,191.524,95.623,191.52Zm84.336-16.987h0a1.413,1.413,0,0,0-1.578,1.087c-1.635,4.28-4.054,6.776-7.612,7.853a7.152,7.152,0,0,0-1.44.688l-.274.155a8.579,8.579,0,0,0-2.888,2.545,8.4,8.4,0,0,0-1.387,3.594,1.091,1.091,0,0,0,.091.866c.136.158.389.228.823.228h.016c4.325-.018,8.916-.028,13.644-.028,4.372,0,8.9.008,13.829.023h.007a1.444,1.444,0,0,0,1.4-.824c1.555-2.517,3.158-5.022,4.54-7.172.046-.072.089-.151.134-.235.168-.31.342-.631.7-.631a.722.722,0,0,1,.186.026c.552.148.528.612.5,1.06,0,.092-.01.18-.009.265q0,.429.005.859c.012,1.879.024,3.817-.018,5.721a.991.991,0,0,0,.179.743.891.891,0,0,0,.665.186h.09c1-.026,2.018-.039,3.012-.039s2,.013,2.986.039h.1a.936.936,0,0,0,.7-.194,1.067,1.067,0,0,0,.2-.79c-.038-5.018-.038-10.049,0-14.954a.852.852,0,0,0-1.051-1.05h-.037c-1.941.015-4.016.022-6.728.022l-3.534,0-3.534,0v-.022h-.752l-2.8,0q-1.774,0-3.549,0c-2.64,0-4.669-.008-6.578-.027h-.051ZM23.3,83.518c-.523,0-.844.038-1.043.238a1.3,1.3,0,0,0-.248.945c.033,15.651.033,31.561.033,46.947q0,5.13,0,10.26a6.322,6.322,0,0,0,.1,5.492c-.012.077-.028.158-.04.223a2.523,2.523,0,0,0-.062.475q0,5.866,0,11.732c0,10.065,0,20.474-.023,30.755a1.05,1.05,0,0,0,.2.768.982.982,0,0,0,.734.192h.092c.891-.015,1.864-.022,3.062-.022q.975,0,1.949,0h.043q.953,0,1.906,0c.742,0,1.114,0,1.273-.182s.108-.54.008-1.257c-.011-.08-.022-.159-.033-.237l-.873-5.84q-2.516-16.822-5.031-33.644l1.285.274c.121.823.247,1.66.368,2.469.324,2.159.658,4.392.95,6.6.1.724.352.956,1.057.956h.069c1.1-.022,2.234-.033,3.466-.033,1.132,0,2.344.009,3.7.028h.065c.36,0,.552-.051.662-.177a.826.826,0,0,0,.1-.66c-.295-2.2-.567-4.432-.83-6.589l-.018-.147q-.144-1.182-.29-2.363l1.28-.017c.1.824.2,1.662.295,2.472.262,2.178.532,4.43.757,6.653.071.7.356.825.928.825h.042c1.622-.016,2.952-.024,4.185-.024,1.38,0,2.634.01,3.835.029h.071a.973.973,0,0,0,.732-.2,1.04,1.04,0,0,0,.183-.785c-.066-2.173-.09-4.383-.114-6.521v-.06q-.013-1.186-.028-2.372a2.455,2.455,0,0,1,.616-.08,2.394,2.394,0,0,1,.614.081q.015.865.028,1.729l.007.445v.023c.037,2.259.075,4.594.121,6.891,0,.059,0,.122-.006.184a.688.688,0,0,0,.1.519.557.557,0,0,0,.421.131H50c1.3,0,2.7-.007,4.544-.007h4.623c-1.023-1.062-1.513-1.595-1.469-2.06.034-.36.389-.674,1.03-1.127a5.3,5.3,0,0,0,2.006-2.625,12.568,12.568,0,0,0,.552-3.157c.02-.233.038-.466.056-.7l.02-.255a3.253,3.253,0,0,1,.645-.069,2.359,2.359,0,0,1,.618.079l-.017.169q-.19,1.854-.379,3.709c-.011.015-.025.031-.04.048-.032.037-.064.074-.057.085a.133.133,0,0,0,.105.075.162.162,0,0,0,.12-.084,13.409,13.409,0,0,1,4.234-.757,9.482,9.482,0,0,1,3.384.607.9.9,0,0,0,.3.067c.3,0,.339-.29.377-.6,0-.026.007-.052.01-.079.1-.757.21-1.525.315-2.269l0-.029q.072-.506.143-1.012l.5-.11.745-.162c-.051.391-.1.788-.145,1.171v.005c-.113.937-.231,1.905-.4,2.849-.123.7.162.916.731,1.071,3.456.941,6.086,1.678,8.526,2.392a9.971,9.971,0,0,0,2.795.417,8.806,8.806,0,0,0,1.24-.087,31.538,31.538,0,0,0,13.614-5.557c.254-.175.368-.311.379-.453s-.085-.3-.32-.524c-1.124-1.068-2.245-2.176-3.33-3.248l-.024-.024q-.635-.627-1.271-1.254c-.558-.548-.838-.824-.838-1.1s.284-.546.8-1.047l9.579-9.349c9.563-9.335,19.452-18.988,29.2-28.469.983-.956,1.972-1.939,2.929-2.889l.011-.011c2.6-2.586,5.3-5.261,8.171-7.71-.142-.062-.275-.123-.4-.181-.258-.117-.5-.228-.748-.324l-8.327-3.26c-7.335-2.87-14.92-5.838-22.4-8.784a7.615,7.615,0,0,0-2.837-.547h-.072c-4.548.04-8.988.06-13.2.06-23.274,0-48.061-.006-72.724-.035ZM162.668,191.524c.068,0,.123,0,.175.007s.082.005.12.005c.37,0,.54-.177.568-.59a9.206,9.206,0,0,1,2.144-5.518,11.5,11.5,0,0,1,4.948-3.187c4.024-1.439,5.72-4.664,6.849-7.629l-.022,0c-1.76-.219-1.794-.223-1.981-2.043-.174-1.7-.328-3.429-.476-5.1v-.017c-.076-.86-.155-1.749-.236-2.622q-.773-8.4-1.549-16.8l-.526-5.705-.339-3.671c-.371-4.02-.743-8.055-1.122-12.157-.809.189-1.642.386-2.378.561-2.085.494-4.053.96-6.074,1.4a3.672,3.672,0,0,0-1.921,1.087c-2.483,2.47-5.016,4.971-7.466,7.391l-.015.015,0,0c-4.167,4.115-8.476,8.369-12.668,12.6-2.961,2.987-6.023,5.975-8.985,8.864-6.99,6.819-14.214,13.866-20.657,21.446-2.257,2.656-4.536,5.218-6.949,7.929l-.006.007-.008.009c-1.08,1.214-2.2,2.47-3.314,3.736h61.59l.142,0h.016Zm66.743-8.4c1.568,0,3.18.009,4.792.026a8.935,8.935,0,0,1,5.837,2.148,8.831,8.831,0,0,1,2.948,5.45c.092.613.278.78.866.78,7.766-.01,15.62-.011,22.279-.011h13.126l.037-.126,0-.01c-.447-.122-.9-.243-1.342-.359-.954-.252-1.937-.511-2.892-.808a53.922,53.922,0,0,1-17.662-9.327,53.364,53.364,0,0,1-19.329-32.612,53.8,53.8,0,0,1,.307-19.959c.088-.433.076-.669-.042-.813s-.339-.2-.748-.2h-.037c-2.542.022-4.812.032-6.941.032-2.35,0-4.516-.013-6.619-.039h-.05c-.932,0-1.034.374-1.034,1.167.007,20.457-.01,37.495-.055,53.617a1.2,1.2,0,0,0,.222.869,1.157,1.157,0,0,0,.836.21H224C225.771,183.138,227.59,183.126,229.411,183.126Zm-31.91,8.4h1.332a.661.661,0,0,0,.465-.108.414.414,0,0,0,.1-.307c0-1.32,0-2.656,0-3.947v-1.3l-.132-.02-.1-.016-.011,0-1.571,2.474-2.05,3.228H197.5ZM96.286,178.994a.552.552,0,0,1,.551.343c.214.445-.07.74-.344,1.024-.067.07-.13.135-.186.2l-.245.293c-1.2,1.439-2.446,2.928-3.707,4.359-.231.262-.323.448-.307.623s.145.35.433.578c2.063,1.637,3.906,3.157,5.634,4.647a1.235,1.235,0,0,0,.762.385c.246,0,.482-.15.789-.5,5.376-6.131,11.126-12.651,17.579-19.934.423-.479.484-.737-.021-1.229-5.008-4.884-10.375-10.154-16.406-16.111a.982.982,0,0,0-.667-.375,1.068,1.068,0,0,0-.614.266,33.017,33.017,0,0,1-10.377,5.051,18.459,18.459,0,0,1-5.177.927,9.656,9.656,0,0,1-2.256-.256A120.848,120.848,0,0,1,69.673,155.8a10.182,10.182,0,0,0-3.348-.6,9.51,9.51,0,0,0-6.586,2.853c-.312.293-.443.507-.436.714s.161.425.53.727c7.168,5.864,15.606,12.783,23.845,19.642a3.41,3.41,0,0,0,2.311.874,5.186,5.186,0,0,0,.615-.039c2.138-.255,4.309-.47,6.408-.677h.005c.773-.076,1.648-.163,2.482-.248a1.01,1.01,0,0,0,.126.007,2.589,2.589,0,0,0,.337-.03A2.528,2.528,0,0,1,96.286,178.994ZM36.721,191.336c1.022,0,2.029.014,2.991.041l.127,0c.391,0,.612-.062.741-.209a1.059,1.059,0,0,0,.117-.841c-.464-3.61-.926-7.49-1.453-12.212-.065-.582-.325-.692-.781-.692h-.069c-.431.008-.9.012-1.471.012l-1,0-1,0c-.347,0-.7,0-1.034.007h-.031c-.329,0-.669.007-1,.007-.545,0-.992-.009-1.407-.028q-.071,0-.134,0a.648.648,0,0,0-.516.149c-.118.138-.108.382-.053.732.7,4.423,1.325,8.823,1.8,12.163.1.686.348.917,1,.917H33.6C34.674,191.349,35.723,191.336,36.721,191.336ZM41.2,177.418c-.34,0-.532.054-.644.18a.854.854,0,0,0-.1.684c.534,4.249,1.038,8.551,1.461,12.2.068.58.229.895.883.895h.064c.776-.023,1.573-.035,2.435-.035.8,0,1.647.01,2.591.03h.06a.772.772,0,0,0,.579-.165.867.867,0,0,0,.162-.652c-.028-1.465-.023-2.953-.018-4.393v-.04q0-.828,0-1.655h-.151c0-.555,0-1.119,0-1.664v-.066c0-1.428-.009-2.906.015-4.357a1.023,1.023,0,0,0-.188-.772.9.9,0,0,0-.665-.193h-.072c-.976.025-1.978.037-3.064.037-1.01,0-2.083-.011-3.279-.033Zm9.238,0a.727.727,0,0,0-.544.154.761.761,0,0,0-.15.566c.086,4.506.143,8.575.173,12.44,0,.589.2.788.774.788h.074c.766-.019,1.775-.041,2.779-.041.681,0,1.3.01,1.9.029h.077c.629,0,.774-.281.846-.872.5-4.1,1.031-8.21,1.57-12.209a.858.858,0,0,0-.1-.685.736.736,0,0,0-.585-.175q-.065,0-.137,0c-.391.017-.813.025-1.329.025-.319,0-.642,0-.955-.006-.3,0-.63-.006-.954-.006s-.648,0-.972,0-.648,0-.972,0c-.55,0-1-.005-1.415-.017ZM210.6,184.369a.855.855,0,0,0-.639.18.866.866,0,0,0-.167.649l.005.279c.029,1.518.059,3.086-.017,4.624-.026.532.035.824.21,1.008a1.267,1.267,0,0,0,.951.259H211c2.054-.026,4.232-.037,7.064-.037,1.247,0,2.515,0,3.744,0h.125c1.252,0,2.546,0,3.82,0l3.554,0h.338l3.553,0c3.1,0,5.465.006,7.667.02h.036c.43,0,.649-.057.759-.2s.117-.378.013-.809a8,8,0,0,0-2.58-4.234,7.2,7.2,0,0,0-4.618-1.708c-3.831-.037-7.664-.041-10.575-.041l-4.206,0h-.577l-4.36,0c-1.55,0-2.907,0-4.149,0H210.6ZM63.19,191.351c.482,0,.875,0,1.238.015h.08c.454,0,.75-.112.828-.669.553-3.958,1.154-8.216,1.795-12.531a.736.736,0,0,0-.072-.592c-.092-.107-.256-.152-.55-.152h-.04c-1.021.011-2.088.017-3.172.017-1.054,0-2.165-.006-3.3-.016h-.026c-.486,0-.745.109-.816.707-.491,4.079-1.025,8.305-1.589,12.562a.668.668,0,0,0,.078.532c.086.1.231.138.5.138h.053c.4-.007.839-.01,1.367-.01l.959,0H60.6l.834,0c.293,0,.586,0,.879,0h.022C62.619,191.353,62.9,191.351,63.19,191.351ZM290.9,86.831a52.773,52.773,0,0,0-31.239,10.283,50.793,50.793,0,0,0-8.141,7.509,2.226,2.226,0,0,0-.6,1.6l0,.187c.025,3,.051,6.093-.008,9.146A12.075,12.075,0,0,1,240.829,127.1a1.217,1.217,0,0,0-1.215,1.146,51.626,51.626,0,0,0-.106,21.138,52.425,52.425,0,0,0,51.363,41.964,53.476,53.476,0,0,0,11.38-1.234,51.561,51.561,0,0,0,18.774-8.245,52.813,52.813,0,0,0,21.332-32.693,51.124,51.124,0,0,0-.053-20.446,52.44,52.44,0,0,0-51.358-41.9ZM215.75,183.121c1.612,0,3.185.016,4.675.047h.115a1.2,1.2,0,0,0,.888-.233,1.354,1.354,0,0,0,.241-.987c-.035-6.876-.031-13.849-.028-20.593v-.7q0-2.7,0-5.39h.028c0-2.084,0-4.2,0-6.253v-.019c0-6.691-.008-13.61.032-20.414a1.414,1.414,0,0,0-.255-1.035,1.265,1.265,0,0,0-.944-.244h-.122c-1.347.025-2.821.037-4.64.037-.971,0-1.952,0-2.9-.006h-.029c-.941,0-1.913-.006-2.87-.006h-.017c-.766,0-1.151,0-1.323.187s-.136.532-.077,1.233l.008.1c.547,6.486,1.088,13.083,1.611,19.462l0,.03.22,2.681q.348,4.248.693,8.5c.361,4.438.734,9.028,1.111,13.559.061.731.092,1.1-.084,1.288-.142.154-.424.184-.864.184-.11,0-.235,0-.42-.006h-.089a.966.966,0,0,0-.73.2,1.054,1.054,0,0,0-.193.787c.056,2.241.056,4.455,0,6.581a1.123,1.123,0,0,0,.195.849,1.041,1.041,0,0,0,.774.211h.071C212.571,183.135,214.181,183.121,215.75,183.121ZM39.235,161.862a.746.746,0,0,0-.571.148.729.729,0,0,0-.081.58c.631,4.913,1.126,8.982,1.557,12.808.073.644.272.83.886.83h.056c1.081-.018,2.183-.027,3.276-.027s2.209.009,3.318.027h.043a.794.794,0,0,0,.591-.165.868.868,0,0,0,.159-.649c-.027-1.528-.023-3.082-.018-4.584q0-.876,0-1.752H48.29c0-.561,0-1.1,0-1.752v-.01c0-1.5-.007-3.051.015-4.575a.937.937,0,0,0-.181-.7.888.888,0,0,0-.663-.188H47.42c-1.233.017-2.517.025-3.926.025-1.266,0-2.609-.007-4.227-.02Zm11.072,0a.83.83,0,0,0-.632.172.887.887,0,0,0-.168.658c.1,4.341.151,8.707.194,12.778.005.515.111.76.7.76h.034c1.062-.015,2.171-.023,3.391-.023,1.089,0,2.257.006,3.676.018h.027c.435,0,.654-.1.719-.636.468-3.862.989-7.961,1.639-12.9.045-.341.017-.539-.091-.662a.707.707,0,0,0-.555-.166h-.085c-.533.018-1.111.026-1.818.026-.423,0-.861,0-1.247-.006-.408,0-.83-.006-1.246-.006s-.849,0-1.274,0-.849,0-1.273,0c-.735,0-1.334-.006-1.885-.02Zm10.88.321q-.181,1.428-.357,2.825l-.034.267,0,.02c-.443,3.5-.861,6.813-1.3,10.156-.037.281-.056.506.059.637a.651.651,0,0,0,.5.142h.036c1-.015,2.053-.022,3.21-.022,1.017,0,2.127.006,3.491.018h.017c.475,0,.667-.178.735-.68.19-1.408.4-2.827.6-4.2l.009-.061c.113-.77.229-1.566.34-2.348a.9.9,0,0,0-.253-.97c-1.767-1.437-3.509-2.871-5.355-4.389l-.014-.012-.313-.258-1.369-1.126Zm-32.012-.334a.808.808,0,0,0-.647.2c-.135.158-.165.424-.1.864.615,3.914,1.236,8.047,1.9,12.633.075.519.242.677.714.677h.018c1.156-.01,2.371-.015,3.613-.015,1.172,0,2.382,0,3.7.013h.02c.265,0,.407-.037.488-.129a.583.583,0,0,0,.074-.465c-.45-3.583-1.039-8.316-1.6-13.16-.064-.558-.34-.6-.723-.6h-.065c-.473.006-.988.009-1.62.009l-1.048,0-1.048,0c-.347,0-.7.005-1.042.01s-.7.01-1.045.01c-.537,0-.978-.012-1.388-.039C29.3,161.849,29.236,161.847,29.175,161.847ZM184.226,173.3c8.371,0,17,.019,25.65.057h.024c.455,0,.7-.061.833-.211s.179-.4.141-.829c-.3-3.421-.582-6.9-.852-10.264-.124-1.554-.253-3.16-.384-4.756q-.393-4.8-.79-9.608l-.038-.459c-.305-3.706-.652-7.907-.984-11.986-.167-2.051-.331-4.107-.49-6.1v-.016c-.277-3.468-.563-7.054-.861-10.579a.974.974,0,0,1,1.079-1.273c1.429-.119,2.877-.273,4.277-.421,1.8-.191,3.67-.388,5.51-.515a17.233,17.233,0,0,0,7.758-2.381,16.164,16.164,0,0,0,7.782-12.388,16.953,16.953,0,0,0-1.163-7.91c-1.886-4.748-3.642-9.639-5.34-14.369l-.007-.019c-.613-1.708-1.247-3.473-1.878-5.207a2.657,2.657,0,0,0-1.417-1.637c-.979-.472-1.952-1-2.893-1.5-.439-.237-.893-.482-1.344-.719a.97.97,0,0,1-.531-.488.554.554,0,0,1,.076-.436.542.542,0,0,1,.489-.329,1.145,1.145,0,0,1,.544.18c.172.1.353.185.528.269.108.052.219.106.327.162,1.4.72,2.824,1.454,4.2,2.164l.088.045c3.014,1.554,6.131,3.161,9.222,4.729a18.414,18.414,0,0,0,8.393,2.054,17.3,17.3,0,0,0,8.616-2.3,18.3,18.3,0,0,0,6.593-6.605c3.406-5.785,6.843-11.678,10.167-17.376l.025-.043c2.627-4.5,5.344-9.161,8.027-13.734a1.125,1.125,0,0,0,.236-.821c-.055-.205-.236-.38-.627-.6-6.884-3.938-14.066-8.086-21.347-12.326a1.44,1.44,0,0,0-.685-.245c-.279,0-.5.177-.783.633-2.221,3.559-4.5,7.135-6.7,10.593l-.007.011c-3.85,6.053-7.83,12.311-11.583,18.568a7.523,7.523,0,0,1-.67.982.485.485,0,0,1-.372.182.559.559,0,0,1-.279-.081.542.542,0,0,1-.308-.694,4.128,4.128,0,0,1,.366-.686l.007-.012.085-.139c.912-1.507,1.825-3.012,2.753-4.543l.159-.262,1.091-1.8c-2.274-1.016-4.542-2.094-6.736-3.137-3.5-1.662-7.111-3.38-10.754-4.846a17.428,17.428,0,0,0-6.539-1.251,21.172,21.172,0,0,0-4.873.6c.848,3.368.922,5.384.283,7.7a13,13,0,0,1-4.545,6.765,12.418,12.418,0,0,1-7.557,2.641c-.1,0-.212,0-.319,0a12.732,12.732,0,0,1-12.374-10.355c-.01-.048-.019-.094-.027-.138l0-.019c-.072-.38-.119-.631-.518-.631a1.7,1.7,0,0,0-.361.047,22.587,22.587,0,0,0-7.576,3.126,21.733,21.733,0,0,0-5.85,5.763c-2.681,3.834-5.464,7.693-8.156,11.425l-.007.01c-1.94,2.689-3.945,5.469-5.9,8.223-.4.57-.763.814-1.2.814a2.322,2.322,0,0,1-.956-.27c-7.9-3.7-15.94-7.422-23.719-11.025l-.025-.012-.441-.2-4.99-2.312c-.068-.031-.134-.066-.2-.1a1.348,1.348,0,0,0-.57-.2c-.245,0-.446.178-.633.561-3.053,6.242-6.406,13.008-10.552,21.293a.867.867,0,0,0-.135.672c.07.183.285.3.585.416,9.911,3.869,20.509,8.02,32.4,12.69a1.918,1.918,0,0,0,.714.153,1.715,1.715,0,0,0,.848-.243,15.142,15.142,0,0,1,4.268-1.522c2.256-.462,4.552-.922,6.773-1.366l.031-.006c4.043-.809,8.224-1.646,12.322-2.532.7-.151,1.418-.271,2.113-.387a16.577,16.577,0,0,0,5.709-1.684,1.689,1.689,0,0,0,1.017-1.739c-.039-6.14-.026-12.352-.01-18.189,0-.109-.01-.231-.021-.359a1.365,1.365,0,0,1,.14-.993.634.634,0,0,1,.494-.174h.013a.645.645,0,0,1,.506.183,1.293,1.293,0,0,1,.107.96,3.47,3.47,0,0,0-.033.4c.017,3.66.018,7.361.019,10.941v.037c0,2.246,0,4.568.006,6.852,0,.077-.008.159-.017.246a.766.766,0,0,0,.073.571.407.407,0,0,0,.318.109,1.579,1.579,0,0,0,.344-.046A60.651,60.651,0,0,1,188.9,85.6c1.16-.1,2.359-.2,3.534-.327,5.361-.585,10.816-1.13,16.091-1.656l.023,0c2.147-.214,4.367-.436,6.549-.657l1.942-.2.048,0c1.7-.171,3.447-.348,5.168-.528a2.05,2.05,0,0,1,.211-.012c.425,0,.657.174.71.531a.543.543,0,0,1-.082.423,1.027,1.027,0,0,1-.68.291c-.211.03-.462.063-.714.088l-2.862.278h-.014c-1.717.166-3.493.338-5.239.515-3.245.33-6.525.669-9.7,1-6.593.683-13.41,1.389-20.125,2.027a14.913,14.913,0,0,0-10.326,5.395,14.716,14.716,0,0,0-3.075,11.078c.118,1.007.208,2.034.294,3.028v.007l0,.025q.053.613.108,1.225.422,4.593.842,9.186l.052.566q.557,6.082,1.115,12.164c.808,8.792,1.466,15.944,2.073,22.509q.265,2.876.533,5.751l0,.039c.426,4.582.866,9.319,1.282,13.98.062.7.22.986,1.044.986C179.868,173.3,182.058,173.3,184.226,173.3Zm-10.64-82.734-.279.022h-.014l-.247.019c-2,.407-4.037.827-6.005,1.234L167,91.85c-4.7.972-9.567,1.978-14.374,2.871a22.45,22.45,0,0,0-5.629,1.769,17.655,17.655,0,0,0-4.826,3.365C127,114.69,111.351,129.947,95.668,145.2c-.329.321-.549.591-.549.867,0,.24.154.487.533.855,7.407,7.215,14.826,14.507,22.053,21.672.372.369.686.614,1.007.614.281,0,.57-.173,1-.6,10.032-9.986,20.247-20.106,30.125-29.893l.238-.236q5.111-5.064,10.222-10.129a3.2,3.2,0,0,1,1.594-.98c1.135-.252,2.285-.526,3.4-.79,1.561-.371,3.174-.754,4.769-1.086.916-.19,1.043-.591.969-1.362-.219-2.294-.42-4.629-.614-6.888v-.01c-.35-4.067-.712-8.273-1.192-12.394-.651-5.573.708-10.135,4.154-13.945Zm52.825,25.255a9.344,9.344,0,0,0-3.921.7,11.169,11.169,0,0,1-3.482.829c-1.074.11-2.161.224-3.212.335h-.007c-2.344.247-4.768.5-7.156.717a1.049,1.049,0,0,0-.758.284,1.066,1.066,0,0,0-.123.823v.009c.188,1.713.382,3.485.431,5.232.029,1.035.333,1.335,1.354,1.335h.026c5.205-.024,10.507-.027,15.461-.027H232.7q2.708,0,5.416,0a11.6,11.6,0,0,0,8.4-3.18,11.485,11.485,0,0,0,3.192-8.355c0-3.982,0-8.031,0-11.948v-.134q0-2.513,0-5.026,0-1.91,0-3.821V93.05c0-4.521,0-9.2.014-13.817,0-.407-.021-.666-.143-.789a.3.3,0,0,0-.226-.082,1.569,1.569,0,0,0-.582.168,12.806,12.806,0,0,1-4.632,1.116c-1.069.05-1.258.415-1.255,1.417.028,8.91.025,17.968.023,26.728v.009q0,3.14,0,6.28c0,1.752,0,1.752-1.7,1.752l-3.89,0H237.2q-2.059,0-4.118,0c-2.548,0-4.619-.006-6.517-.019Zm7.6-1.256c2.556,0,4.522.01,6.375.031h.069a1.282,1.282,0,0,0,.953-.244,1.333,1.333,0,0,0,.246-.983c-.038-5.462-.033-11.015-.029-16.385q0-2.627,0-5.254,0-1.138,0-2.276V88.8c0-2.64,0-5.371,0-8.074,0-.035,0-.07,0-.1v-.009c.005-.481.01-.861-.749-.891a18.453,18.453,0,0,1-7.978-2.285c-1.563-.823-3.121-1.615-4.77-2.452-.724-.368-1.473-.748-2.236-1.139.046.161.08.282.107.378.042.15.067.24.1.328,1.56,4.646,3.284,9.32,4.952,13.839l.011.029c.653,1.77,1.328,3.6,1.984,5.4a17.37,17.37,0,0,1-5.545,19.99,1.387,1.387,0,0,1-.163.107.564.564,0,0,0-.363.649h.562q1.477,0,2.953,0h.078Q232.289,114.566,234.009,114.565ZM95.614,82.218a1.834,1.834,0,0,1,.265.028l.013,0a2.018,2.018,0,0,0,.3.03.418.418,0,0,0,.453-.338,1.364,1.364,0,0,0-.391-1.208,2.329,2.329,0,0,0-1.9-.734h-.041c-.582,0-1.2.005-2,.005H89.613c-.782,0-1.814,0-2.864.014h-.038c-.739,0-1.054-.264-1.16-.974-.652-4.353-1.323-8.773-1.971-13.047-.773-5.094-1.573-10.362-2.345-15.55a5.441,5.441,0,0,0-1.548-3.465,5.259,5.259,0,0,0-3.64-1.06h-.988c-3.418,0-6.891,0-10.25.008H64.5c-3.375,0-6.865.008-10.3.008-7.547,0-13.354-.019-18.831-.061h-.059a5.047,5.047,0,0,0-3.951,1.611,5.124,5.124,0,0,0-.938,4.273C31.952,61.1,33.29,70.12,34.88,80.938c.152,1.032.486,1.314,1.552,1.314h.023c5.861-.023,11.758-.026,16.24-.026l6.578,0,6.578,0h23.21c1.926,0,4.209,0,6.546-.013ZM94.521,52.052c-.569,0-1.129.09-1.372.745a1.4,1.4,0,0,0,.447,1.509,7.727,7.727,0,0,0,2.265,1.538c.481.243.974.483,1.45.716l.009,0c1.036.506,2.106,1.03,3.125,1.6a9.692,9.692,0,0,1,3.309,2.944,9.581,9.581,0,0,1,1.547,4.18c.052.384.088.78.123,1.162a8.965,8.965,0,0,0,.761,3.388c1.447,2.8,3.718,4.784,6.122,6.885l.01.009.447.391,1.781-3.59.013-.027c1.956-3.944,3.8-7.67,5.71-11.465a1.36,1.36,0,0,0-.177-1.426q-1.407-2.584-2.808-5.168l-.024-.044c-1.159-2.135-2.358-4.343-3.558-6.544q-.125-.228-.248-.458a15.923,15.923,0,0,0-1.833-2.884c-.033-.039-.067-.081-.1-.125-.157-.2-.334-.422-.586-.422a.509.509,0,0,0-.173.032c-.394.143-.376.6-.363.932v.008l.006.147a12.7,12.7,0,0,0,.253,2.462c.337,1.408.706,2.833,1.063,4.211l0,.017c.387,1.494.787,3.039,1.148,4.566.1.442.2.893.294,1.33l0,.008a14.4,14.4,0,0,0,2.114,5.721.747.747,0,0,1,.172.574.544.544,0,0,1-.281.357.637.637,0,0,1-.324.1.781.781,0,0,1-.6-.379,10.639,10.639,0,0,1-1.805-4c-.177-.745-.354-1.5-.524-2.236l0-.01c-.519-2.236-1.056-4.546-1.7-6.792l-.079-.276c-.638-2.212-1.3-4.5-.792-6.879a.875.875,0,0,0-.347-.856l-.064-.067a33.762,33.762,0,0,0-5.83-5.135,6.575,6.575,0,0,0-2.8-1.286,2.141,2.141,0,0,0-.274-.019,1.038,1.038,0,0,0-.905.4,1.226,1.226,0,0,0,0,1.154,7.493,7.493,0,0,0,1.339,1.974c.7.817,1.416,1.637,2.107,2.43,1.085,1.247,2.208,2.536,3.3,3.823a3.155,3.155,0,0,0,.267.266c.244.225.5.457.506.738a.651.651,0,0,1-.214.467.661.661,0,0,1-.475.25c-.281,0-.522-.246-.755-.484-.088-.09-.171-.174-.253-.242l-.129-.107a57.617,57.617,0,0,0-5.872-4.46,9.165,9.165,0,0,0-2.578-1.242l-.011,0a3.27,3.27,0,0,0-.8-.136,1.008,1.008,0,0,0-.853.416c-.381.5-.137.973.1,1.428l.067.13a11.648,11.648,0,0,0,2.112,2.737,77.12,77.12,0,0,0,5.738,5.26c.048.041.1.081.15.122.338.269.687.546.423,1.037a.554.554,0,0,1-.513.332,1.775,1.775,0,0,1-.524-.115c-.089-.029-.173-.056-.254-.076-.524-.125-1.052-.277-1.562-.423-.433-.124-.88-.253-1.324-.365a18.708,18.708,0,0,0-4.583-.758ZM187.1,43.578a6.446,6.446,0,0,0-1.162.191l-.161.034c-.991.212-1.232.562-1.034,1.5a11.363,11.363,0,0,0,4.052,6.625,11.724,11.724,0,0,0,7.389,2.523,13.156,13.156,0,0,0,1.315-.067,10.878,10.878,0,0,0,7.123-3.758,11.927,11.927,0,0,0,2.893-7.857,7.719,7.719,0,0,0-.2-1.944c-.031-.172-.067-.367-.1-.555-.149-.887-.467-1.282-1.033-1.282a2.027,2.027,0,0,0-.723.163,6.1,6.1,0,0,1-1.629.367,1.28,1.28,0,0,0-.95.4,1.227,1.227,0,0,0-.111.978,10.551,10.551,0,0,1,.135,2.381,7.329,7.329,0,0,1-2.038,4.83,8.036,8.036,0,0,1-4.856,2.365,6.515,6.515,0,0,1-.763.045A7.347,7.347,0,0,1,190.872,49a7.63,7.63,0,0,1-2.726-3.867C187.8,43.97,187.681,43.578,187.1,43.578ZM268.119,8.731c-.458,0-.785.541-1.073,1.019-.093.154-.181.3-.27.425a87.325,87.325,0,0,0-7.637,14.1l-.029.062-.4.856c-.307.66-.072.941.534,1.287,3.727,2.127,8.131,4.651,12.531,7.24a1.479,1.479,0,0,0,.695.257c.286,0,.474-.215.646-.742a16.325,16.325,0,0,0,.447-1.828,9.868,9.868,0,0,1,.94-2.961c-1.687-.747-1.984-1.284-1.767-3.191a2.657,2.657,0,0,1,.174-.613,1.458,1.458,0,0,0,.1-1.145l.006,0,.008-.011.008-.011.135.017-.018-.084-.016-.069-.1.135-.036,0,.013.029c-.047.029-.1.055-.145.08l-.006,0a3.022,3.022,0,0,0-.352.206,3.133,3.133,0,0,1-1.8.7,2.13,2.13,0,0,1-1.193-.381A2.561,2.561,0,0,1,268.5,21.24a19.514,19.514,0,0,1,2.872-6.516.661.661,0,0,1,.552-.371.681.681,0,0,1,.365.119.589.589,0,0,1,.15.85c-.132.252-.28.5-.423.737l0,.007c-.1.162-.2.329-.291.5a15.711,15.711,0,0,0-2.008,4.826,1.483,1.483,0,0,0,.518,1.714.979.979,0,0,0,.524.161,1.87,1.87,0,0,0,1.04-.482l.066-.048a9.075,9.075,0,0,0,2.146-2.4c.339-.509.667-1.032.984-1.538.535-.853,1.085-1.731,1.689-2.548.947-1.281,1.044-2.218.325-3.135a2.472,2.472,0,0,0-1.962-1,2.886,2.886,0,0,0-1.422.4,1.218,1.218,0,0,1-.547.2.523.523,0,0,1-.4-.213c-.306-.358-.086-.68.145-.954l.169-.2c.221-.264.449-.537.679-.8.5-.573,1.007-1.151,1.5-1.71l.005-.006,0,0c1.191-1.351,2.423-2.748,3.567-4.174.132-.164.289-.332.456-.51.7-.744,1.488-1.587.662-2.515a1.28,1.28,0,0,0-.989-.479,3.855,3.855,0,0,0-1.853.8c-.166.107-.323.208-.475.3a30.842,30.842,0,0,0-5.936,5,1.959,1.959,0,0,0-.728,2.046,7.03,7.03,0,0,1-.113,2.848c-.334,1.856-.838,3.7-1.327,5.486-.42,1.535-.854,3.122-1.177,4.709a7.175,7.175,0,0,1-.931,2.188c-.172.286-.349.544-.636.544a.667.667,0,0,1-.305-.086.573.573,0,0,1-.317-.34.935.935,0,0,1,.177-.678,7.9,7.9,0,0,0,1-2.545c.3-1.562.722-3.116,1.134-4.618.239-.871.486-1.772.706-2.668a24.48,24.48,0,0,0,.586-3.286c.013-.123.033-.259.053-.391.1-.686.218-1.463-.4-1.675a.666.666,0,0,0-.216-.038Zm9.976,8.675c-.482,0-.86.3-1.191.945l-.164.318c-.519,1.009-1.055,2.05-1.518,3.1a13.805,13.805,0,0,0-1.3,4.054,2.453,2.453,0,0,1,0,.311c-.011.308-.021.6.288.8a.722.722,0,0,0,.4.121,1.5,1.5,0,0,0,.734-.284l.087-.052a7.193,7.193,0,0,0,1.685-1.507A30.824,30.824,0,0,0,280,21.263a2.487,2.487,0,0,0,.261-1.976,2.523,2.523,0,0,0-1.235-1.6A2.072,2.072,0,0,0,278.095,17.406Zm-73.5.875c.018.191.02.39.022.582a2.825,2.825,0,0,0,.174,1.191,11.652,11.652,0,0,0,.882,1.448,9.814,9.814,0,0,1,1.262,2.3,4.78,4.78,0,0,0-.169-3.765A3.52,3.52,0,0,0,204.6,18.281Z" transform="translate(-0.001)" fill="#001e35"/>
        </g>
      </g>
      <path id="Fill_4" data-name="Fill 4" d="M34.744,36.493c-.493,0-1-.35-1.582-1.1-.421-.539-.856-1.082-1.277-1.607-.659-.823-1.338-1.671-1.982-2.524a1.75,1.75,0,0,0-1.512-.722c-3.99-.135-7.572-.2-10.951-.2-2.505,0-4.949.037-7.263.111-.1,0-.206,0-.309,0a10.1,10.1,0,0,1-6.553-2.43A9.363,9.363,0,0,1,.122,20.979Q.111,20.553.1,20.128A97.415,97.415,0,0,1,.262,8.318,9.331,9.331,0,0,1,9.077.194c.882-.015,1.8-.022,2.984-.022.771,0,1.581,0,2.438.006h.038c1.032,0,2.1.007,3.308.007.52.024,1.082.036,1.718.036,1.312,0,2.721-.051,4.212-.1l.21-.008C25.684.05,27.218,0,28.795,0c.656,0,1.262.009,1.854.027,2.582.078,5.207.091,7.745.1,1.82.009,3.7.018,5.553.052a8.851,8.851,0,0,1,5.848,2.438A8.622,8.622,0,0,1,52.6,8.253a95.822,95.822,0,0,1-.012,14.2,8.481,8.481,0,0,1-2.758,5.384,9.016,9.016,0,0,1-5.59,2.526l-.07.006c-.033,0-.066.006-.1.006A.339.339,0,0,1,44,30.371a6.353,6.353,0,0,0-1.335-.151c-1.961,0-3.487,1.032-4.8,3.247a12.942,12.942,0,0,1-1.393,1.81l-.226.261A2.149,2.149,0,0,1,34.744,36.493ZM13.729,18.627a4.138,4.138,0,0,0-.881.066.538.538,0,0,0-.414.636.5.5,0,0,0,.451.483,8.764,8.764,0,0,0,.957.04l7.629,0H39.152c.269,0,.544,0,.84-.01.4-.011.63-.21.645-.56.017-.4-.221-.626-.687-.649-.167-.008-.335-.009-.492-.009H29.922l-16.123,0h-.07ZM33,15.329h2.956c1.4,0,2.549,0,3.61,0h.172l.168,0a.808.808,0,0,0,.585-.163.593.593,0,0,0,.134-.451c-.02-.6-.509-.606-.941-.608l-.153,0-.144,0H13.521a3.3,3.3,0,0,0-.578.041.586.586,0,0,0-.538.67.536.536,0,0,0,.57.5c.358.012.672.018.959.018H33Zm6.554-4.484.145,0c.061,0,.122,0,.182,0,.381,0,.737-.07.761-.577a.64.64,0,0,0-.138-.489,1.121,1.121,0,0,0-.8-.2c-.066,0-.13,0-.192-.005l-.092,0H29.1l-15.257,0h-.238a3.476,3.476,0,0,0-.716.056.584.584,0,0,0-.5.593.548.548,0,0,0,.508.571,8.493,8.493,0,0,0,1.076.048l7.556,0h10.22c2.307,0,5.034,0,7.773-.006Z" transform="translate(3.678 10.098)" fill="#f37777"/>
      <path id="Fill_6" data-name="Fill 6" d="M8.5,23.6a6.456,6.456,0,0,0-7.995-.718c-.751-3-.95-5.923,1.421-8.387.4-.411.122-.722.042-1.084A6.586,6.586,0,0,1,9.356,5.329c.839.115,1.119-.025,1.447-.8a7.421,7.421,0,1,1,11.355,8.777c-.411.313-.861.575-1.294.861l-1.258.474a6.815,6.815,0,0,1-2.723.16,5.041,5.041,0,0,0-2.9.3c-1.82.572-3.625,1.211-5.475,1.667-1.135.28-1.282.794-1.027,1.817.412,1.652.688,3.339,1.021,5.011" transform="translate(180.593 3.82)" fill="#f37777"/>
      <g id="Group_10" data-name="Group 10" transform="translate(285.057)">
        <path id="Clip_9-2" data-name="Clip 9" d="M0,0H13.757V13.8H0Z" fill="none"/>
        <g id="Group_10-2" data-name="Group 10" clip-path="url(#clip-path-3)">
          <path id="Fill_8" data-name="Fill 8" d="M6.952,13.8c-.471-.068-.558-.407-.65-.7-.3-.947-.6-1.9-.851-2.857A2.561,2.561,0,0,0,3.436,8.279c-.887-.224-1.753-.53-2.629-.8C.47,7.377.022,7.361,0,6.906c-.025-.539.486-.555.844-.671.872-.281,1.746-.56,2.631-.795A2.605,2.605,0,0,0,5.453,3.425C5.7,2.5,5.974,1.589,6.263.68c.092-.289.17-.656.575-.679.5-.028.534.395.639.726.287.909.626,1.809.828,2.738a2.371,2.371,0,0,0,1.877,1.926c.961.262,1.907.576,2.857.875.343.108.742.22.717.67-.022.392-.4.433-.708.526-.914.28-1.812.634-2.742.833a2.455,2.455,0,0,0-2,1.962c-.261.958-.592,1.9-.876,2.849-.094.315-.193.6-.482.7" transform="translate(0 0)" fill="#f37777"/>
        </g>
      </g>
      <path id="Fill_11" data-name="Fill 11" d="M6.583,13.24H6.565A6.628,6.628,0,0,1,0,6.58,6.557,6.557,0,0,1,6.582,0h.037A6.6,6.6,0,0,1,11.3,1.956a6.536,6.536,0,0,1,1.914,4.676,6.6,6.6,0,0,1-1.966,4.663A6.57,6.57,0,0,1,6.583,13.24Zm0-11.979H6.566A5.349,5.349,0,0,0,2.808,10.4a5.3,5.3,0,0,0,3.777,1.582h.029a5.435,5.435,0,0,0,5.351-5.341,5.288,5.288,0,0,0-1.553-3.787A5.36,5.36,0,0,0,6.584,1.261Z" transform="translate(284.991 34.865)" fill="#001e35"/>
      <path id="Fill_13" data-name="Fill 13" d="M6.555,13.208H6.523a6.48,6.48,0,0,1-4.61-1.93A6.632,6.632,0,0,1,0,6.536,6.528,6.528,0,0,1,1.941,1.9,6.594,6.594,0,0,1,6.61,0h.049a6.595,6.595,0,0,1,4.578,11.3A6.64,6.64,0,0,1,6.555,13.208ZM6.588,1.231h0A5.364,5.364,0,0,0,2.8,10.383a5.312,5.312,0,0,0,3.8,1.592A5.406,5.406,0,0,0,11.966,6.66a5.29,5.29,0,0,0-1.554-3.809,5.336,5.336,0,0,0-3.82-1.619Z" transform="translate(284.991 17.698)" fill="#001e35"/>
      <path id="Fill_15" data-name="Fill 15" d="M13.912,0Q20.206,0,26.5,0a6.043,6.043,0,0,1,1.068.08.526.526,0,0,1,.426.624.507.507,0,0,1-.421.509,5.225,5.225,0,0,1-.948.077Q14.036,1.3,1.447,1.3A6.761,6.761,0,0,1,.61,1.267.611.611,0,0,1,0,.652.605.605,0,0,1,.606.034,7.951,7.951,0,0,1,1.562,0Q7.737,0,13.912,0" transform="translate(307.701 41.486)" fill="#001e35"/>
      <path id="Fill_17" data-name="Fill 17" d="M14.042.008q6.411,0,12.823.006c.448,0,1.082-.156,1.1.562.024.785-.635.652-1.137.675-.2.009-.4,0-.6,0H1.546a8.61,8.61,0,0,1-.957-.021A.6.6,0,0,1,0,.6.559.559,0,0,1,.62.019q.419-.01.838-.011H14.042" transform="translate(307.705 6.151)" fill="#001e35"/>
      <path id="Fill_19" data-name="Fill 19" d="M14.161,0H26.5a6.139,6.139,0,0,1,.956.029.581.581,0,0,1,.523.678.53.53,0,0,1-.553.515c-.318.023-.638.02-.958.02H1.548c-.28,0-.559-.01-.839,0C.28,1.252-.018,1.055,0,.627A.649.649,0,0,1,.741.008c.28,0,.559,0,.839,0H14.161" transform="translate(307.705 23.703)" fill="#001e35"/>
      <path id="Fill_21" data-name="Fill 21" d="M.576,3.3C2.061.895,4.231-.011,7.039,0,20.919.057,34.8.019,48.68.031A5.986,5.986,0,0,1,54.951,6.61a5.961,5.961,0,0,1-4.039,5.184l-1.247.272-8.5.066a2.74,2.74,0,0,0-1.262-.011l-12.038.007a2.4,2.4,0,0,0-1.229,0l-10.886-.019-1.28.016-9.3-.088-1.286-.274A6.5,6.5,0,0,1,.673,8.793,6.359,6.359,0,0,1,.576,3.3" transform="translate(21.465 143.847)" fill="#f37777"/>
      <path id="Fill_23" data-name="Fill 23" d="M14.178,1.272q-6.3,0-12.595,0A8.518,8.518,0,0,1,.508,1.222.549.549,0,0,1,0,.651.585.585,0,0,1,.5.058,4.543,4.543,0,0,1,1.451,0Q14.165,0,26.88,0c.08,0,.16,0,.24,0,.51.024,1.168-.072,1.133.694-.031.683-.661.57-1.119.571q-6.477.012-12.954.005" transform="translate(16.07 19.678)" fill="#001e35"/>
      <path id="Fill_25" data-name="Fill 25" d="M14.112,1.227H1.533q-.479,0-.958-.018A.535.535,0,0,1,0,.71.589.589,0,0,1,.543.04,5.481,5.481,0,0,1,1.5,0Q14.137,0,26.776,0c.12,0,.24,0,.359,0,.476.012,1.071-.064,1.093.611.024.72-.6.608-1.059.61-2.436.009-4.872,0-7.308,0Z" transform="translate(16.078 24.201)" fill="#001e35"/>
      <path id="Fill_27" data-name="Fill 27" d="M14.128,1.228q-6.358,0-12.716,0a8.778,8.778,0,0,1-.956-.04A.5.5,0,0,1,.005.7.538.538,0,0,1,.419.068,4.381,4.381,0,0,1,1.37,0Q14.086,0,26.8,0c.24,0,.48,0,.72.009.412.02.706.2.687.649-.016.382-.277.55-.645.56q-.42.01-.84.011h-12.6" transform="translate(16.106 28.723)" fill="#001e35"/>
      <path id="Fill_29" data-name="Fill 29" d="M.017,16.718V1.648c0-.239.007-.479,0-.717C0,.453.074-.01.664,0c.519.009.592.439.577.873-.009.279,0,.558,0,.837,0,9.887.014,19.774-.024,29.66a1.726,1.726,0,0,0,1.032,1.747Q15.925,40.879,29.567,48.7a3.379,3.379,0,0,1,.413.241c.4.311,1.251.435.822,1.173-.415.715-.987.145-1.434-.11Q15.136,41.883.908,33.759A1.6,1.6,0,0,1,0,32.146C.032,27,.017,21.861.017,16.718" transform="translate(290.271 111.457)" fill="#001e35"/>
      <path id="Fill_31" data-name="Fill 31" d="M3,3.238C2.027,2.47,1.251,1.871.489,1.254.183,1.007-.211.732.135.277.5-.2.9.027,1.269.317c1.191.934,2.38,1.871,3.575,2.8.3.234.557.488.416.9-.148.429-.545.391-.9.413-.956.058-1.911.123-2.867.184C1,4.643.421,4.708.347,4.071c-.081-.7.533-.644,1-.683S2.275,3.3,3,3.238" transform="translate(182.074 29.107)" fill="#001e35"/>
      <path id="Fill_33" data-name="Fill 33" d="M.515,0a1.133,1.133,0,0,1,.813.545C2.287,1.763,3.236,2.99,4.215,4.193c.545.67.488,1.13-.365,1.419-.715.243-1.425.5-2.14.74C1.3,6.492.888,6.51.739,6c-.123-.42.133-.653.522-.792.514-.184,1.386-.327,1.446-.62C2.83,3.98,2.1,3.564,1.738,3.058,1.256,2.378.7,1.75.2,1.081-.181.566.012.212.515,0" transform="translate(197.625 21.58)" fill="#001e35"/>
      <path id="Fill_35" data-name="Fill 35" d="M1.978,3.3a1.288,1.288,0,0,1-.306-.02c-.611-.229-1.76.1-1.667-.882.1-1.059,1.066-.351,1.65-.347A3.511,3.511,0,0,0,4.729.545c.257-.359.541-.793,1.042-.372.457.384.166.794-.093,1.152A4.7,4.7,0,0,1,1.978,3.3" transform="translate(198.417 28.744)" fill="#001e35"/>
      <path id="Fill_37" data-name="Fill 37" d="M1.128,2.213A1.1,1.1,0,0,1,0,1.081,1.026,1.026,0,0,1,1.056,0a1.022,1.022,0,0,1,1.139.99c.059.7-.363,1.1-1.067,1.221" transform="translate(193.9 24.053)" fill="#001e35"/>
      <path id="Fill_39" data-name="Fill 39" d="M5.738,30.14c-1.045,0-1.453-.34-1.615-1.348-.778-4.839-1.586-9.751-2.368-14.5C1.195,10.888.616,7.37.052,3.9A3.35,3.35,0,0,1,.747,1.147,3.362,3.362,0,0,1,3.365.014C9.382,0,15.563,0,22.261,0c6,0,12.343,0,19.386.012a3.476,3.476,0,0,1,2.34.778,3.544,3.544,0,0,1,1.125,2.19c.478,2.924.962,5.9,1.43,8.776l.019.117,0,.012c.909,5.587,1.849,11.365,2.789,17.044a1.116,1.116,0,0,1-.127.916,1.412,1.412,0,0,1-1.072.277h-.023c-4.281-.005-8.591-.006-11.867-.006H26.769l-5.059,0h-.038l-5.1,0c-2.948,0-6.84,0-10.806.031Zm7.639-28.9c-3.735,0-6.767,0-9.54,0a2.658,2.658,0,0,0-2.122.7,2.7,2.7,0,0,0-.337,2.24q.347,2.106.7,4.213l.013.076C3.131,14.786,4.212,21.32,5.225,27.754c.14.9.424,1.14,1.321,1.14h.028c3.893-.019,7.745-.021,10.666-.021l4.74,0h.059l4.682,0H36.13c2.979,0,6.906,0,10.857.018h.033c.408,0,.69-.034.835-.206.127-.15.15-.41.077-.843-1.208-7.163-2.4-14.447-3.544-21.492l-.435-2.665C43.629,1.7,43.1,1.244,41.131,1.244q-3.957,0-7.914,0H13.377Z" transform="translate(33.471 54.124)" fill="#001e35"/>
    </g>
  </g>
</svg>
