<svg xmlns="http://www.w3.org/2000/svg" xmlns:xlink="http://www.w3.org/1999/xlink" width="335" height="180" viewBox="0 0 335 180">
  <defs>
    <clipPath id="clip-path">
      <path id="Mask" d="M0,0H335a0,0,0,0,1,0,0V162.2A17.8,17.8,0,0,1,317.2,180H17.8A17.8,17.8,0,0,1,0,162.2V0A0,0,0,0,1,0,0Z" transform="translate(335 180) rotate(-180)" fill="#bbcde5"/>
    </clipPath>
    <clipPath id="clip-path-2">
      <path id="Clip_2" data-name="Clip 2" d="M0,0H357V184.975H0Z" fill="none"/>
    </clipPath>
    <clipPath id="clip-path-3">
      <path id="Clip_7" data-name="Clip 7" d="M0,0H36.287V43.775H0Z" fill="none"/>
    </clipPath>
  </defs>
  <g id="Recurso_6_2x" data-name="Recurso 6@2x" clip-path="url(#clip-path)">
    <g id="Group_75" data-name="Group 75" transform="translate(-11 11)">
      <g id="Group_3" data-name="Group 3" transform="translate(0 0.025)">
        <path id="Clip_2-2" data-name="Clip 2" d="M0,0H357V184.975H0Z" fill="none"/>
        <g id="Group_3-2" data-name="Group 3" clip-path="url(#clip-path-2)">
          <path id="Fill_1" data-name="Fill 1" d="M12.953,184.975a.717.717,0,0,1-.547-.175.741.741,0,0,1-.16-.565c.02-.546.371-.616.675-.616a3.761,3.761,0,0,1,.457.038,3.5,3.5,0,0,0,.431.04h.009c3.528-.026,7.1-.039,10.615-.039,1.782,0,3.581,0,5.349.01h.036c.427,0,.7-.034.856-.206a1,1,0,0,0,.116-.789,13.344,13.344,0,0,1-.047-2.079c.009-.3.018-.613.018-.918.1-.01.19-.014.271-.014a1.383,1.383,0,0,1,.9.282c0,.3,0,.613.008.89a18.681,18.681,0,0,1-.046,2.093c-.031.322-.006.495.088.6s.241.137.515.137h.033c3.192-.035,6.437-.057,9.575-.078l3.318-.023c.228,0,.455.011.683.018h.017c.45.013.916.027,1.376.027h.059c5.11-.014,10.3-.032,15.311-.049l2.6-.009,10.344-.012,10.1-.012h2.637l4.71.006h.022c5.953.007,12.109.015,18.162.04h.005c.57,0,.722-.294.888-.743.446-1.2.908-2.416,1.354-3.587l.017-.044.448-1.177a2.551,2.551,0,0,1,1.255-.282c.058,0,.119,0,.18,0l-.842,2.192-.038.1-.88,2.291c-.235.612-.352.918-.245,1.075s.432.159,1.049.159h.1l24.181-.014,24.187-.014h10.272c-.049-.166-.092-.319-.133-.463-.082-.289-.152-.538-.237-.784-8.354-24.09-16.535-47.678-24.317-70.106-.127-.365-.228-.773-.327-1.167a4.518,4.518,0,0,0-1.1-2.432,2.072,2.072,0,0,0-1.35-.372c-.349,0-.727.038-1.092.076h-.005c-.351.036-.748.076-1.12.076-.14,0-.268-.005-.389-.017-.079-.007-.154-.011-.224-.011-.7,0-.974.373-1.221,1.018-5.04,13.211-10.043,26.23-14.7,38.331-2.058,5.348-4.154,10.764-6.182,16q-1.31,3.384-2.62,6.769a1.437,1.437,0,0,1-1.055-.557l8.236-21.445,15.4-40.09H87.187l-.11,0-.118,0a1.241,1.241,0,0,1-.132-.006,1.48,1.48,0,0,0-.152-.008.786.786,0,0,0-.777.554c-.385.852-.8,1.71-1.191,2.54l0,.007c-.4.832-.807,1.692-1.194,2.547a2.885,2.885,0,0,0,.149,2.1,3.147,3.147,0,0,0,1.309,1.676,12.59,12.59,0,0,1,6.463,6.926c.453,1.151.886,2.332,1.3,3.474.176.48.357.974.536,1.459q1.305,3.517,2.609,7.035c3.153,8.5,6.413,17.3,9.655,25.944a1.536,1.536,0,0,1,.1,1.224,1.407,1.407,0,0,1-.958.6,12.267,12.267,0,0,0-1.542.577c-.224.1-.455.194-.685.285L93.779,168.5l-.8.3-9.472,3.5a1.909,1.909,0,0,1-.785.211c-.5,0-.836-.342-1.126-1.145-1.752-4.836-3.574-9.733-5.336-14.469l-.017-.046q-.87-2.337-1.738-4.675l-1.831-4.933-1.447-3.9-.257.42c-.173.282-.315.514-.456.748l-7.663,12.724L55.19,169.96c-.68,1.128-.961,1.595-1.456,1.595a4.528,4.528,0,0,1-1.663-.7l-.008,0a.791.791,0,0,0-.294-.065c-.046,0-.091-.009-.134-.016a.181.181,0,0,0-.006-.147c-.032-.049-.1-.06-.17-.071-.026,0-.053-.009-.077-.015-6.307-3.98-12.623-7.714-17.968-10.841a1.429,1.429,0,0,1-.853-.812,1.726,1.726,0,0,1,.379-1.347c1.358-2.191,2.673-4.46,3.944-6.654.376-.648.8-1.383,1.22-2.1l.077-.131.008-.013a2.235,2.235,0,0,0,.424-1.171c-.012-2.46-.02-5.107,0-7.789a.811.811,0,0,0-.161-.6.747.747,0,0,0-.553-.161h-.036c-.98.016-1.857.024-2.68.024-.876,0-1.685-.009-2.472-.026h-.057a.772.772,0,0,0-.576.165.887.887,0,0,0-.171.658c.023,6.851.031,13.788.04,20.5l.005,4.307a17.634,17.634,0,0,1-1.184,4.075c0-2.277,0-4.592-.006-6.832v-.015c-.008-7.042-.017-14.323.03-21.484a1.6,1.6,0,0,0-.29-1.176,1.53,1.53,0,0,0-1.108-.279h-.117c-2.059.03-4.236.043-6.85.043-2.059,0-4.148-.009-6.169-.017l-.9,0a5.843,5.843,0,0,1-3.674-1.226,5.95,5.95,0,0,1-2.023-3.314c-2.749-11.423-5.7-23.708-9.3-38.66-1.1-4.581.308-8.27,3.773-9.868a2.9,2.9,0,0,0,1.933-2.908,12.478,12.478,0,0,1,2.213-6.236,13.149,13.149,0,0,1,5.186-4.175,1.821,1.821,0,0,0,1.248-1.485,9.618,9.618,0,0,1,9.507-7.853c.288,0,.58.013.869.037.117.01.216.015.3.015.56,0,.73-.2.788-.952a10.666,10.666,0,0,1,3.617-7.2,11.046,11.046,0,0,1,7.292-2.785,10.422,10.422,0,0,1,5.415,1.525,9.456,9.456,0,0,1,3.756,4.166,13.4,13.4,0,0,1,1.095,5.558,3.662,3.662,0,0,0,.333,1.713,10.474,10.474,0,0,1,.006,9.416,10.343,10.343,0,0,1-7.475,5.53c-1.236.225-1.424.775-1.338,1.711-.027.1-.056.193-.084.286a4.829,4.829,0,0,0-.161.627c-.545,3.361-2.619,5.288-5.691,5.289a8.446,8.446,0,0,1-1.469-.135A1.6,1.6,0,0,0,31.2,87.9c-.4,0-.5.226-.627.6a11.937,11.937,0,0,1-2.309,3.9c-.4.474-.837.927-1.3,1.407-.22.23-.447.468-.682.719a8.18,8.18,0,0,1,2.919-.534,11.3,11.3,0,0,1,3.313.552l-.148-.192-.016-.021c-.728-.947-1.308-1.7-1.89-2.455a.764.764,0,0,1-.2-.561.568.568,0,0,1,.263-.371.545.545,0,0,1,.315-.111.715.715,0,0,1,.522.3c.1.119.2.245.291.367.051.066.1.133.153.2l1.949,2.465.119.151c2.176,2.752,4.426,5.6,6.624,8.406.244.312.439.493.709.493a1.126,1.126,0,0,0,.547-.184c2.256-1.3,4.509-2.5,6.416-3.509a1.137,1.137,0,0,0,.734-1.2c-.047-.978-.028-1.975-.011-2.94l0-.18c0-.065,0-.133,0-.205a.944.944,0,0,1,.13-.678.518.518,0,0,1,.382-.142h.04a.545.545,0,0,1,.414.138.936.936,0,0,1,.13.685c0,.088-.007.171,0,.248.03.806.019,1.605,0,2.281-.007.361.031.557.128.656a.243.243,0,0,0,.184.071,1.061,1.061,0,0,0,.492-.183c1.257-.739,2.541-1.479,3.783-2.194l.06-.034,1.543-.889.915-.45c.718-.354,1.46-.719,2.2-1.069a1.582,1.582,0,0,0,.717-.877l.012-.026.819-1.733c1.322-2.8,2.69-5.7,4.063-8.539a4.3,4.3,0,0,0,.363-1.97c-.005-16.729,0-33.43,0-49.582,0-1.577,0-1.577,1.609-1.577H99.525c32.167,0,66.629,0,100.69.027h.006c1.1,0,1.461-.285,1.7-1.328A34.793,34.793,0,0,1,206.1,17.575,36.873,36.873,0,0,1,222.308,3.181,34.7,34.7,0,0,1,232.955.256c.4-.042.8-.068,1.2-.094C234.661.13,235.188.1,235.7.026A2.667,2.667,0,0,1,236.055,0c.684,0,.942.347.954,1.28.058,4.645.137,9.364.213,13.927.07,4.161.142,8.463.2,12.721.139,10.611.262,21.4.382,31.834v.04q.066,5.73.132,11.46c.009.8.014,1.2-.183,1.4-.153.155-.425.184-.906.184-.133,0-.283,0-.443,0h-.011a35.482,35.482,0,0,1-13.713-3.019c-.213-.093-.434-.177-.69-.275l-.016-.006-.414-.16v37.291c0,1.677,0,1.677-1.663,1.677H148.884a1.209,1.209,0,0,0,.114.973c.037.084.072.163.1.246,4.707,13.6,9.62,27.779,13.955,40.292q5.637,16.271,11.272,32.542c.221.636.395,1.139,1.339,1.139h.008c19.1-.049,38.53-.07,57.315-.09h.1l13.161-.014c.085,0,.171-.008.254-.015l.1-.009,1.036-.028h.047l.128,0,1.045-.028c.114.009.231.022.343.034h.005a6.74,6.74,0,0,0,.71.05h.008c15.128-.02,31.6-.047,50.37-.081.219,0,.441-.023.656-.044.1-.01.2-.019.3-.027s.2.015.3.024c.214.018.436.037.654.037,8.628-.005,19.993-.013,31.384-.029,2.528,0,5.1-.016,7.583-.029h.01l3.3-.016,3.549.009,7.491.02.2,0h.19a3.965,3.965,0,0,1,.564.031.559.559,0,0,1,.519.566.551.551,0,0,1-.59.6c-.187.011-.37.012-.54.012h-.3l-12.174.016-2.032,0c-12.841.018-26.12.036-39.209.048l-102.2.1-5.908.006-70.74.069h-.166c-20.089.019-40.862.04-61.292.069-5.94.009-11.983.02-17.827.032h-.381c-9.766.019-19.865.038-29.8.045a3.6,3.6,0,0,0-.4.034A4.113,4.113,0,0,1,12.953,184.975Zm71-66.365c.043,3.6-1.662,6.388-3.31,9.082-1.521,2.486-3.047,5.024-4.522,7.478l-.015.025c-1.189,1.978-2.418,4.023-3.637,6.027a1.693,1.693,0,0,0-.188,1.651c3.957,10.564,7.2,19.293,10.209,27.47.2.539.379.73.69.73a1.646,1.646,0,0,0,.552-.129c6.417-2.406,13.094-4.881,19.847-7.358.344-.126.592-.254.689-.468a1.041,1.041,0,0,0-.089-.791c-.891-2.275-1.751-4.606-2.583-6.86q-.389-1.053-.776-2.1L98.569,147.3c-2.642-7.114-5.374-14.471-8.063-21.741A11.7,11.7,0,0,0,83.957,118.61ZM51.92,125.582c.334,0,.539.07.627.214.109.179.047.481-.2.951-.144.277-.305.551-.462.815l-.132.225-3.435,5.867C43.737,141.489,39,149.59,34.3,157.548c-.454.77-.381,1.052.386,1.508,5.943,3.527,11.917,7.123,17.755,10.687a1.837,1.837,0,0,0,.889.355c.314,0,.573-.22.894-.759,4.314-7.242,8.733-14.578,13.006-21.672q1.917-3.183,3.834-6.366c1.016-1.689,2.054-3.4,3.058-5.06l.015-.025c2.309-3.812,4.694-7.75,6.979-11.657a11.792,11.792,0,0,0,1.64-5.455,11.381,11.381,0,0,0-9.391-11.737,20.312,20.312,0,0,0-3.834-.308c-.8,0-1.625.027-2.418.053s-1.622.053-2.43.053c-.273,0-.527,0-.776-.009h-.019a1.083,1.083,0,0,0-.724.369c-.056.05-.112.1-.17.146l-3.688,2.949c-4.711,3.766-9.582,7.661-14.389,11.514a9.66,9.66,0,0,1-6.03,2.4c-2.585,0-5.014-1.358-7.027-3.927-.87-1.11-1.762-2.233-2.624-3.318-2.171-2.732-4.416-5.557-6.5-8.428a3.611,3.611,0,0,0-3.094-1.805,5.091,5.091,0,0,0-.755.06.813.813,0,0,1-.12.009.828.828,0,0,1-.121-.009,1.3,1.3,0,0,0-.19-.015c-.45,0-.55.308-.562.77-.028,1.071-.082,2.16-.134,3.213v.005q-.03.609-.059,1.218h-.065c0,.256,0,.512,0,.758,0,.538.009,1.094-.008,1.64a12.075,12.075,0,0,0,11.14,12.7c.894.085,1.8.126,2.784.126a68.487,68.487,0,0,0,8.132-.651c1.12-.135,2.278-.274,3.419-.387,1.388-.137,2.8-.289,4.161-.436,1.411-.152,2.87-.309,4.306-.45C51.707,125.588,51.821,125.582,51.92,125.582ZM40.286,138.85a.664.664,0,0,0-.494.146.725.725,0,0,0-.147.542c.016,1.5.014,3.021.011,4.494q0,.843,0,1.686l.1.034.1.034,1.466-2.5.025-.043,2.562-4.378h-.323l-.783,0h-.036l-.989,0c-.575,0-1.019,0-1.441-.015Zm-1.959-1.092,5.52,0h.009a.984.984,0,0,0,.995-.479c1.718-2.974,3.239-5.58,4.651-7.967.154-.261.2-.433.136-.541s-.208-.146-.475-.146h-.078c-.091,0-.187,0-.3,0H42.377c-6.925,0-14.085,0-21.127-.009-.083,0-.173.008-.269.017s-.206.018-.307.018c-.261,0-.564-.058-.585-.51a.6.6,0,0,1,.124-.463.582.582,0,0,1,.445-.139c.1,0,.2.008.287.016h.007c.1.008.191.015.277.015h.036c.344-.013.708-.019,1.179-.019.267,0,.542,0,.832,0,.309,0,.658,0,1.029,0-5.6-3.086-8.15-7.6-7.8-13.788.093-1.649.146-3.326.2-4.948v-.042q.027-.863.056-1.727,0-.05,0-.1a1.284,1.284,0,0,1,.323-1.01l.934,0h.022c.387,0,.788-.005,1.182-.005.358,0,.676,0,.972.007h.045c.272,0,.42-.043.494-.142s.076-.276-.006-.554a8.227,8.227,0,0,1-.209-3.782A10.355,10.355,0,0,1,23.5,95.944a18.977,18.977,0,0,1-5.73.842c-.046-.013-.093-.027-.139-.042a2.119,2.119,0,0,0-.321-.082c-5.723-.836-9.41-4.081-10.957-9.644-.152-.547-.327-.77-.6-.77a1.967,1.967,0,0,0-.678.213,6.572,6.572,0,0,0-3.419,3.283,7.512,7.512,0,0,0-.408,4.978c3.1,12.856,6.138,25.427,9.509,39.349a4.328,4.328,0,0,0,4.412,3.654c6.472.031,13.082.031,18.914.031h4.248Zm9.558-10.2c.8,0,1.443,0,2.038.007h.027c.491,0,.8-.122.826-.727l-3.534.386-1.948.213c-.007.028-.014.056-.02.084l-.009.04h2.62ZM29.25,95.139a7.634,7.634,0,0,0-4.789,1.713,7.724,7.724,0,0,0-1.075,11.028c3.487,4.477,6.661,8.521,9.7,12.365a7.491,7.491,0,0,0,5.854,3.091,7.95,7.95,0,0,0,4.919-1.858l1.242-.983c1.6-1.265,3.252-2.571,4.842-3.9,1.664-1.387,3.4-2.74,5.083-4.049a110.718,110.718,0,0,0,8.9-7.447,2.213,2.213,0,0,1,1.424-.564,8.33,8.33,0,0,0,3.746-1.145,7.546,7.546,0,0,1,3.948-1.183,8.481,8.481,0,0,1,4.215,1.242,14.181,14.181,0,0,0,3.15,1.445,2.174,2.174,0,0,0,.583.1.8.8,0,0,0,.717-.385c.278-.427-.008-.734-.26-1.006-.043-.046-.084-.09-.121-.134a18.309,18.309,0,0,0-2.631-2.358c-.294-.231-.6-.47-.892-.71a2.79,2.79,0,0,0-.292-.2c-.357-.222-.725-.451-.51-.957a.594.594,0,0,1,.569-.423,1.932,1.932,0,0,1,.586.134,2.932,2.932,0,0,0,.327.1c.337.069.678.143,1.009.214a26.64,26.64,0,0,0,5.257.764c.126,0,.262.012.406.023.163.013.333.026.5.026.394,0,.862-.068.981-.6.166-.749-.552-1.05-1.185-1.315-.11-.046-.21-.088-.305-.132A29.046,29.046,0,0,0,79.386,96.3l-.078-.018c-.066-.015-.137-.027-.213-.04-.419-.072-.891-.154-.811-.72a.585.585,0,0,1,.673-.552,3.627,3.627,0,0,1,.376.027c.076.008.147.016.217.021,1.311.091,2.6.186,3.96.288l.129.01,1.5.111c.1,0,.215,0,.332,0h.008c.125,0,.256,0,.39,0,.195,0,.356,0,.507-.013.07,0,.143-.006.213-.007.41-.009.874-.018.978-.531s-.325-.738-.7-.942l-.15-.083a11.446,11.446,0,0,0-3.275-1.107,33.8,33.8,0,0,0-7.3-.736,68.531,68.531,0,0,0-7.836.538,34.7,34.7,0,0,0-14.216,4.966c-2.376,1.44-4.865,2.784-7.271,4.083-1.568.847-3.187,1.721-4.761,2.614a2.26,2.26,0,0,1-1.074.373c-.421,0-.773-.242-1.175-.809-1.134-1.594-2.385-3.146-3.6-4.646l-.02-.025-.659-.818A8.1,8.1,0,0,0,29.25,95.139Zm43.783,8.187a4.416,4.416,0,0,0-1.771.371c-.456.2-.914.417-1.356.629a12.244,12.244,0,0,1-4.762,1.517c1.3.07,2.609.08,3.873.09h.011c.781.006,1.589.012,2.382.033a12.9,12.9,0,0,1,6.078,1.6,13.466,13.466,0,0,1,4.545,4.355,2.346,2.346,0,0,1,.157.295,1.039,1.039,0,0,0,.543.619l1.33-2.8.521-1.1q1.114-2.35,2.227-4.7c2.492-5.263,5.07-10.705,7.642-16.054a1.154,1.154,0,0,0,.173-.886c-.076-.2-.275-.347-.664-.5a20.548,20.548,0,0,1-2.807-1.337,1.345,1.345,0,0,0-.648-.228c-.3,0-.517.218-.737.752s-.468,1.044-.712,1.547c-.2.418-.412.846-.6,1.276-.2.454-.445.666-.781.666a1.533,1.533,0,0,1-.641-.18c-4.813-2.3-9.578-4.566-14.162-6.723a1.111,1.111,0,0,1-.65-.584,1.065,1.065,0,0,1,.147-.83c.291-.568.568-1.156.835-1.725.217-.462.441-.938.671-1.4a.715.715,0,0,0,.108-.558.681.681,0,0,0-.414-.343c-1.1-.472-2.09-.943-3.025-1.44a1.721,1.721,0,0,0-.725-.253c-.3,0-.523.219-.76.733-1.645,3.566-3.361,7.172-5.021,10.66-.766,1.609-1.556,3.269-2.339,4.926a1.492,1.492,0,0,1-.078.137.626.626,0,0,0-.056.726,39.3,39.3,0,0,1,4.824-.9c.679-.1,1.381-.2,2.07-.312a45.408,45.408,0,0,1,7.389-.636,36.96,36.96,0,0,1,7.743.8,10.654,10.654,0,0,1,4.317,1.682,1.806,1.806,0,0,1,.827,1.971,1.746,1.746,0,0,1-1.669,1.326,9.265,9.265,0,0,1-1.187.075c-.221.005-.471.011-.745.023.306.2.6.359.884.512a4.852,4.852,0,0,1,1.271.865,1.914,1.914,0,0,1,.582,1.836,1.839,1.839,0,0,1-1.4,1.207,6.175,6.175,0,0,1-1.421.131h-.008c-.119,0-.238,0-.356.007-.074,0-.151,0-.228,0a16.5,16.5,0,0,1-2.7-.3c-.544-.091-1.1-.184-1.7-.256.17.151.338.3.5.438l0,0a9.96,9.96,0,0,1,1.994,2.087,1.746,1.746,0,0,1,.147,2.114,1.945,1.945,0,0,1-1.614.88,2.266,2.266,0,0,1-.49-.056,11.244,11.244,0,0,1-2.143-.733c-.521-.233-1.038-.5-1.538-.755-.478-.246-.972-.5-1.469-.724A5.817,5.817,0,0,0,73.033,103.325Zm42.439,3.8c33.141,0,68.444,0,103.662.024a1.32,1.32,0,0,0,.971-.252,1.439,1.439,0,0,0,.246-1.028c-.033-12-.033-24.118,0-36.016a1.736,1.736,0,0,0-1.066-1.757,33.69,33.69,0,0,1-9.111-7.337A37.074,37.074,0,0,1,202.43,47.1a37.824,37.824,0,0,1-1.2-15.655c.058-.474.022-.756-.118-.914-.155-.175-.421-.188-.81-.188h-.163c-20.821.005-39.123.008-55.952.008-27.8,0-52.84-.007-76.554-.02a.945.945,0,0,0-1.174,1.183c.021,10.77.023,21.722.024,32.313v.081q0,6.853,0,13.707c0,.059-.006.12-.012.185a.716.716,0,0,0,.2.694c.187-.4.383-.8.555-1.158.425-.88.826-1.711,1.2-2.574.255-.594.523-.847.9-.847a1.615,1.615,0,0,1,.746.241c.654.358,1.344.673,2.012.978.549.251,1.113.508,1.653.787a1.513,1.513,0,0,0,.661.22c.278,0,.485-.192.69-.641.547-1.2.791-1.683,1.337-1.683a5.238,5.238,0,0,1,1.688.57,1.277,1.277,0,0,0,.491.131c.251,0,.412-.153.577-.547.174-.416.375-.829.57-1.228.219-.447.445-.91.633-1.381.213-.529.47-.765.835-.765a1.722,1.722,0,0,1,.739.219c1.7.84,3.448,1.657,5.138,2.448l.007,0,1.668.782.005,0c1.278.6,1.92.9,2.088,1.375s-.138,1.12-.75,2.408c-.433.911-.65,1.369-.528,1.7s.544.531,1.423.935c.479.22.723.423.813.678a1.259,1.259,0,0,1-.169.963c-.471.958-.692,1.433-.561,1.783s.651.577,1.677,1a.525.525,0,0,0,.073.023l.041.011c.242.119.486.244.722.365.525.27,1.069.55,1.624.774.508.205.781.422.885.7a1.391,1.391,0,0,1-.206,1.1c-.7,1.347-1.338,2.751-1.958,4.109-.254.555-.516,1.128-.78,1.694l-.78,1.629L91.7,96.755l-4.967,10.372h28.741Zm-91.2-42.877h0a8.681,8.681,0,0,0-5.343,1.909,8.3,8.3,0,0,0-3.032,4.8c-.008.039-.018.081-.027.123-.048.21-.1.447-.018.578a1.013,1.013,0,0,1,.236.837c-.1.291-.491.419-.9.556l-.133.044A11.593,11.593,0,0,0,9.322,77.28a11.375,11.375,0,0,0-2.162,6.7,11.532,11.532,0,1,0,20.983-6.556,3.815,3.815,0,0,0-.276-.338c-.26-.3-.529-.6-.451-.9.06-.23.323-.425.805-.6.06-.022.074-.158.089-.3a1.535,1.535,0,0,1,.041-.259,5.873,5.873,0,0,0-.2-3.207,8.879,8.879,0,0,1-.357-2.075c0-.066-.067-.134-.131-.2a1.137,1.137,0,0,1-.079-.086,4.817,4.817,0,0,1-1.073-3.8c.1-.789-.243-1.2-1.115-1.327a7.768,7.768,0,0,0-1.123-.082ZM76.815,75.073c-.195,0-.354.146-.487.448-.7,1.574-1.487,3.238-2.558,5.4a.717.717,0,0,0-.1.549c.061.176.239.288.526.423l1.139.537.01,0c3.732,1.758,7.591,3.575,11.368,5.4a1.2,1.2,0,0,0,.5.146c.317,0,.466-.271.628-.626.537-1.174,1.1-2.353,1.645-3.493l.009-.019q.348-.728.694-1.457c.059-.124.118-.256.18-.395l.006-.013.1-.215a1.153,1.153,0,0,0-.789-.587,2.268,2.268,0,0,1-.5-.226.56.56,0,0,0-.3-.114c-.17,0-.294.136-.389.43-.189.578-.461.847-.858.847a2.439,2.439,0,0,1-.977-.313c-2.333-1.159-4.911-2.379-7.881-3.729-.442-.2-.866-.437-.978-.807a1.215,1.215,0,0,1,.241-.971.633.633,0,0,0,.135-.526c-.065-.174-.288-.244-.5-.312a1.263,1.263,0,0,1-.357-.149A.959.959,0,0,0,76.815,75.073ZM29.5,70.882c-.126,0-.238.083-.353.26a8.53,8.53,0,0,1,.132,5.468.976.976,0,0,0,.206.737l.026.043A12.33,12.33,0,0,1,31.23,85.9c-.106.639.143.818.7.958a4.136,4.136,0,0,0,1,.123,4.46,4.46,0,0,0,4.251-3.192,13.408,13.408,0,0,0,.322-1.538c.071-.421.145-.855.25-1.275.068-.271.067-.432-.006-.537s-.225-.163-.523-.2a9.985,9.985,0,0,1-3.525-1.089l-.066-.034c-.372-.192-.793-.409-.531-.937a.493.493,0,0,1,.439-.335,1.29,1.29,0,0,1,.557.2l.127.067a9.551,9.551,0,0,0,4.426,1.008c.106,0,.214,0,.322,0a9.248,9.248,0,0,0,8.667-9.037c0-.046,0-.094,0-.144.009-.2.019-.4-.167-.508a.3.3,0,0,0-.152-.046.5.5,0,0,0-.318.19,1.152,1.152,0,0,1-.132.117c-.32.227-.634.472-.938.709q-.2.154-.4.308a.724.724,0,0,1-.433.174.5.5,0,0,1-.409-.231.576.576,0,0,1,.14-.848c.053-.044.1-.092.155-.138a1.847,1.847,0,0,1,.405-.31c.385-.192.594-.4.641-.641.052-.265-.09-.571-.461-.994-.357-.407-.677-.856-.987-1.29-.147-.206-.3-.419-.454-.626a.964.964,0,0,1-.256-.663.573.573,0,0,1,.264-.374.539.539,0,0,1,.311-.114c.24,0,.431.215.59.417.187.236.371.479.549.714l.006.008.236.312a1.755,1.755,0,0,0,.375-1.7,3.4,3.4,0,0,1-.05-.835,4.758,4.758,0,0,0-1.909-4.829,2.118,2.118,0,0,0-1.106-.528c-.312,0-.608.19-1.02.657-.442.5-.876,1.025-1.295,1.533a21.548,21.548,0,0,1-3.878,3.949c-.693.5-1.129.891-.9,1.794a1.122,1.122,0,0,1-.062.884.6.6,0,0,1-.487.218h-.033c-.482,0-.5-.381-.524-.749,0-.081-.009-.164-.019-.24a4.272,4.272,0,0,0-1.126-2.494A3.443,3.443,0,0,0,31.5,62.739c-.071,0-.142-.006-.212-.006A3.633,3.633,0,0,0,27.736,65.6a3.574,3.574,0,0,0,2.336,4.2c.064.029.133.055.2.081.35.134.711.272.527.786a.492.492,0,0,1-.487.39,1.769,1.769,0,0,1-.478-.1l-.154-.045-.029-.008A.524.524,0,0,0,29.5,70.882Zm52.15,1.165c-.218,0-.374.144-.522.482C80.587,73.785,80,75.022,79.4,76.207c-.146.288-.186.464-.135.609s.191.26.46.384c1.709.783,3.435,1.606,5.1,2.4l.009,0q.957.456,1.915.911c.093.044.185.086.283.131l.005,0,.017.008.146.067h.011c.244,0,.32-.175.4-.359.014-.032.028-.063.043-.094q.234-.493.465-.987c.448-.953.911-1.938,1.4-2.893a.645.645,0,0,0,.09-.491c-.06-.176-.258-.281-.472-.382l-.01,0c-2.3-1.081-4.681-2.2-7.01-3.327A1.112,1.112,0,0,0,81.655,72.047ZM234.915,1.211c-.107,0-.227.006-.366.019a35.375,35.375,0,0,0-9.34,2.022,36.34,36.34,0,0,0-10.872,6.376,34.894,34.894,0,0,0-11.772,20.758,36.836,36.836,0,0,0,.075,12.655A34.816,34.816,0,0,0,214.2,63.092a34.546,34.546,0,0,0,21.412,8.587l.16,0a1.08,1.08,0,0,0,.8-.214c.162-.164.225-.434.218-.931-.123-8.982-.218-18.116-.31-26.949v-.029q-.037-3.56-.074-7.12h-.167c0-.977,0-1.971.006-2.932.007-2.108.014-4.287-.013-6.432-.04-3.162-.087-6.378-.134-9.487V17.53c-.074-4.934-.15-10.035-.195-15.067-.008-.947-.248-1.251-.99-1.251ZM46.477,66.654c-.046,0-.094,0-.144.006a4.3,4.3,0,0,0,1.1,1.418,1.753,1.753,0,0,1-.124-.528C47.247,67.109,47.187,66.654,46.477,66.654ZM31.365,61.513a4.211,4.211,0,0,1,3.2,1.431,1.673,1.673,0,0,0,1.161.722,1.772,1.772,0,0,0,1.156-.72c1.387-1.5,2.78-3.033,4.127-4.52l.876-.966c.049-.054.1-.109.146-.164a1.955,1.955,0,0,1,1.481-.885,1.829,1.829,0,0,1,.23.015,7.314,7.314,0,0,0-2.912-2.205A9.672,9.672,0,0,0,27.37,63.4l.09-.078c.237-.2.436-.376.634-.549A5,5,0,0,1,31.365,61.513Z" fill="#001e35"/>
        </g>
      </g>
      <path id="Fill_4" data-name="Fill 4" d="M33.823,147.268c-.264,0-.593-.224-1.19-.632-.091-.063-.186-.12-.277-.176l-.13-.08-.478-.345c-.317-.23-.644-.467-.971-.693q-8.294-5.754-16.589-11.5l-.156-.108-3.394-2.353c-.3-.212-.592-.434-.879-.648A23.963,23.963,0,0,0,7.707,129.3c-.456-.272-.7-.531-.762-.817a1.567,1.567,0,0,1,.4-1.169c5.935-8.78,11.941-17.72,17.748-26.365l3.465-5.158q3.124-4.648,6.245-9.3c6.168-9.184,12.543-18.678,18.84-28a4.7,4.7,0,0,0,.855-3.517l-.5.447c-.361.326-.7.634-1.05.932-4.56,3.907-9.414,8.064-14.222,12.166l-.018.015c-.461.394-.766.654-.43,1.425a2.219,2.219,0,0,1-.514,1.9c-.757,1.155-2.162,2.4-3.112,2.4a.929.929,0,0,1-.16-.013l-.1-.015c-.136-.019-.29-.04-.352-.121a1.427,1.427,0,0,0-1.086-.69,2.372,2.372,0,0,0-1.334.7c-.1.082-.2.166-.305.243a13.152,13.152,0,0,1-4.379,2.156c-3.16.907-5.106,3.053-5.949,6.562q-.129.54-.257,1.08l0,.011c-.233.981-.473,1.992-.726,2.982a7.035,7.035,0,0,1-.959,2.181A2.5,2.5,0,0,1,16.922,90.6a3.013,3.013,0,0,1-.532-.05c-1.094-.2-1.468-1.043-1.71-1.928a14.254,14.254,0,0,1-.354-3.582c-.009-.512-.018-1.041-.046-1.6-.27.441-.517.848-.756,1.242-.517.852-.963,1.588-1.434,2.327A14.812,14.812,0,0,1,9.225,90.53a2.815,2.815,0,0,1-1.781.8,1.962,1.962,0,0,1-.858-.206A2.3,2.3,0,0,1,5.363,88.6c.069-.69.193-1.377.337-2.171.07-.385.141-.783.215-1.226-.235.26-.447.5-.635.7l0,0c-.377.42-.675.751-.989,1.083A3.143,3.143,0,0,1,2.1,88.217a2.366,2.366,0,0,1-.875-.179c-1.008-.4-1.4-1.451-1.153-3.118a14.9,14.9,0,0,1,1.788-4.672c.327-.621.693-1.236,1.048-1.83l0-.008c.147-.247.3-.5.446-.754.078-.133.166-.264.251-.391.43-.638.837-1.241-.042-2.112-.557-.552.008-1.467.394-1.963a13.459,13.459,0,0,1,3.247-2.823,117.017,117.017,0,0,0,11.33-8.656l.036-.031c.248-.213.428-.367.44-.563a.824.824,0,0,0-.294-.555,1.467,1.467,0,0,1,.114-2.072c.7-.83,1.279-1.487,1.83-2.066a1.878,1.878,0,0,1,1.331-.709,1.881,1.881,0,0,1,1.193.524c.217.182.388.326.572.326a.709.709,0,0,0,.475-.272c2.623-2.66,5.3-5.353,7.891-7.957l0,0,.033-.033q1.7-1.71,3.4-3.422a.31.31,0,0,0,.062-.141c.006-.024.013-.049.021-.072h0l.006,0c.174,0,.257-.125.335-.264.032-.022.065-.042.1-.062a1.008,1.008,0,0,0,.191-.138c4.509-4.52,8.3-8.321,12.135-12.179a1.326,1.326,0,0,1,.1-.091c.141-.115.288-.233.179-.474a.475.475,0,0,0,.106.013c.141,0,.232-.084.268-.25.494-.483,1-.965,1.486-1.431,1.1-1.048,2.231-2.131,3.278-3.259,2.078-2.237,4.755-3.228,7.784-4.206a2.487,2.487,0,0,1,.422-.078c.3-.039.61-.079.751-.269a.477.477,0,0,0,.066-.378A1.961,1.961,0,0,0,61.5,19.726a9.522,9.522,0,0,1-6.112-5.011,9.606,9.606,0,0,1,.047-7.972l.038-.085a.92.92,0,0,0,.053-.893A4.3,4.3,0,0,1,55.088,2.3,4.511,4.511,0,0,1,57.948.023a3.53,3.53,0,0,1,.4-.023A5.372,5.372,0,0,1,59.778.22,4.668,4.668,0,0,1,62.01,2.539,4.663,4.663,0,0,1,65.248.845c1.325,0,2.534.883,3.494,2.554.087.038.176.081.263.123a2.156,2.156,0,0,0,.889.286.87.87,0,0,0,.584-.227,5.509,5.509,0,0,1,3.711-1.414,7.2,7.2,0,0,1,1.728.225c3.034,1.659,4.222,4.048,3.344,6.727a5.254,5.254,0,0,1-2,2.781A6.854,6.854,0,0,1,73.9,12.973c.168.44.338.878.5,1.3.415,1.072.807,2.082,1.172,3.121.1.3.251.427.474.427a1.494,1.494,0,0,0,.405-.083l.04-.012.672-.2.006,0c.791-.232,1.608-.473,2.4-.741a9.786,9.786,0,0,1,10.563,2.622c2.273,2.131,4.573,4.31,6.8,6.417l2.539,2.4q1.341,1.269,2.68,2.541l.019.018c1.77,1.68,3.6,3.417,5.411,5.114a25.33,25.33,0,0,1,6.541,9.909c1.013,2.786,2.066,5.609,3.083,8.34l.021.056q.5,1.346,1,2.692c.021.056.04.112.059.167.128.372.239.693.656.693a1.445,1.445,0,0,0,.477-.1,1.482,1.482,0,0,1,.5-.091,1.612,1.612,0,0,1,1.438,1.257,5.5,5.5,0,0,0,.617,1.164c.555.874,1.13,1.778.329,2.972a.733.733,0,0,1-.365.3,1.473,1.473,0,0,0-1.059.686c-.214.464.038,1.06.365,1.734.042.088.081.179.118.268a2.907,2.907,0,0,0,.241.487c1.55,2.336,2.9,4.84,4.213,7.261,1.137,2.1,2.313,4.278,3.614,6.336.1.161.207.32.32.488a4.589,4.589,0,0,1,1.063,2.528,22.721,22.721,0,0,0,.66,5.525,21.949,21.949,0,0,1,.649,5.67,8.822,8.822,0,0,1-.344,2.124,2.163,2.163,0,0,1-4.128.471,12.793,12.793,0,0,1-.953-2.165c-.139-.378-.284-.769-.445-1.15a10.488,10.488,0,0,0-.109,1.337,7.346,7.346,0,0,1-.231,1.858c-.034.111-.065.226-.1.336a4.859,4.859,0,0,1-.316.908,2.19,2.19,0,0,1-1.914,1.347,2.337,2.337,0,0,1-1.849-1.064,11.912,11.912,0,0,1-1.735-4.524l0-.015q-.056-.241-.113-.481c-.194-.814-.351-1.65-.518-2.534-.08-.425-.163-.865-.256-1.333l-.376,1,0,.01c-.271.719-.5,1.339-.749,1.971a7.733,7.733,0,0,1-1.136,2.1,2.343,2.343,0,0,1-1.785,1.073,2.007,2.007,0,0,1-.358-.033,2.441,2.441,0,0,1-2.015-1.831,9.519,9.519,0,0,1-.145-3.81c.137-1.287.293-2.743.373-4.18a7.893,7.893,0,0,0-.628-3.71,7.153,7.153,0,0,0-2.387-2.867,17.8,17.8,0,0,1-5.108-6.1c-.255-.46-.468-.785-.9-.785a1.128,1.128,0,0,0-.365.068.4.4,0,0,1-.129.019,1.361,1.361,0,0,1-.2-.021l-.023,0c-.8-.121-1.631-1.287-2.1-2.388a3.42,3.42,0,0,1-.23-2.931.831.831,0,0,0,.107-1.04c-1.624-3.259-3.255-6.58-4.832-9.792L94.92,53.648a1.638,1.638,0,0,0-.741-.827,11.113,11.113,0,0,0,.615,3.86c2.246,5.508,4.525,11.112,6.728,16.531l.036.089c2.836,6.974,5.768,14.186,8.673,21.3a14.083,14.083,0,0,1,.953,5.273c.07,5.543.135,11.169.2,16.61v.025c.09,7.809.183,15.884.293,23.826a1.631,1.631,0,0,1-.308,1.207,1.107,1.107,0,0,1-.826.268c-.088,0-.183,0-.283-.014-.079-.007-.16-.011-.248-.011a6.63,6.63,0,0,0-.735.056c-.147.017-.3.034-.447.044-1.123-.006-2.285-.01-3.454-.01-7.039,0-14.193.116-21.113.229H84.2l-4.935.079h-.056c-.947,0-.954-.668-.962-1.376-.068-5.924-.143-11.945-.216-17.767l0-.13q-.071-5.694-.141-11.388c-.012-1,.021-2.016.054-3a29.648,29.648,0,0,0-.27-6.574,29.849,29.849,0,0,0-2.276-6.31c-.382-.855-.778-1.739-1.129-2.615-.063-.157-.118-.322-.172-.481a3.756,3.756,0,0,0-.681-1.358l-.263.369c-.146.2-.279.39-.409.576L58.711,112.169l-.275.392L34.857,146.243C34.364,146.946,34.14,147.268,33.823,147.268ZM92.459,56.625c-.052,0-.108,0-.164,0-4.877.221-9.836.409-14.631.59l-.1,0-3.73.142-3.236.125c-4.637.179-9.43.365-14.145.519a1.9,1.9,0,0,0-1.724.966c-15.172,22.62-30.6,45.583-45.869,68.252-.491.73-.518,1.068.293,1.626,8.393,5.79,16.083,11.145,23.511,16.372a1.54,1.54,0,0,0,.828.36c.329,0,.574-.26.887-.709C39.855,137,45.446,129.013,50.852,121.29l3.1-4.424,1.165-1.665C62.3,104.935,69.732,94.319,77.066,83.872a3.36,3.36,0,0,0,.178-.3c.174-.315.372-.673.7-.673a.726.726,0,0,1,.419.166.632.632,0,0,1,.3.426c.032.273-.195.535-.414.788a3.189,3.189,0,0,0-.234.291c-1.048,1.563-2.114,3.082-3.167,4.514a1.474,1.474,0,0,0-.194,1.626c.753,1.835,1.5,3.71,2.213,5.523.539,1.36,1.1,2.764,1.652,4.143a7.193,7.193,0,0,1,.529,2.673c.057,5.958.123,12,.186,17.84v.012c.067,6.187.136,12.585.2,18.877.007.813.106,1.169,1.024,1.169h.057c8.585-.133,17.7-.235,28.677-.323a1.457,1.457,0,0,0,1-.241,1.284,1.284,0,0,0,.281-1.018c-.04-5.009-.035-10.1-.03-15.029q0-2.512,0-5.016h-.445l0-5.31c0-4.554,0-9.261-.009-13.894a13.834,13.834,0,0,0-.945-5.269C103.821,82.082,98.744,69.585,93.946,57.7A1.4,1.4,0,0,0,92.459,56.625ZM119.271,85.8a.829.829,0,0,1,.107.007c.422.056.483.426.541.783l.006.034.1.61c.256,1.544.52,3.14.823,4.7a17.939,17.939,0,0,0,1.568,5.133c.237.446.532,1,1.118,1a1.009,1.009,0,0,0,.1-.005c.686-.073.864-.674,1.036-1.256l.015-.052a8.021,8.021,0,0,0,.245-2.137,44.656,44.656,0,0,0-.623-7.183l-.006-.044-.074-.526c-.009-.064-.022-.131-.036-.2-.079-.406-.168-.867.43-.991a.9.9,0,0,1,.183-.02c.426,0,.529.379.628.745.018.066.035.128.054.189.264.845.528,1.706.783,2.539l0,.007c.572,1.865,1.163,3.793,1.8,5.673.044.129.084.267.127.414.231.787.493,1.679,1.359,1.679a1.458,1.458,0,0,0,.254-.024c1.034-.183,1.052-1.249,1.068-2.191,0-.119,0-.231.008-.342a30.753,30.753,0,0,0-1.193-8.274.756.756,0,0,0-.564-.673,8.631,8.631,0,0,1-3.805-2.623c-1.008-1.032-2.017-2.1-2.992-3.125-1.592-1.681-3.239-3.419-4.93-5.061a9.1,9.1,0,0,1-2.109-3.175c-.152-.381-.273-.806.216-1.021a.673.673,0,0,1,.268-.063c.324,0,.5.329.618.616a11.862,11.862,0,0,0,3.092,4.073c1.606,1.5,3.213,3.168,4.911,5.091a22.715,22.715,0,0,0,3,2.927c.131.1.266.223.409.349.43.381.918.813,1.36.813a.659.659,0,0,0,.411-.146c.56-.436.027-1.282-.4-1.962-.062-.1-.119-.19-.171-.276-1.215-2.022-2.363-4.127-3.474-6.163-1.389-2.546-2.825-5.177-4.4-7.671a9.143,9.143,0,0,1-1.3-2.681c-.108-.443-.259-.624-.518-.624a1.272,1.272,0,0,0-.537.167c-4.145,2.092-8.4,4.2-12.647,6.274-.331.161-.5.312-.555.488a1.037,1.037,0,0,0,.221.763,17.014,17.014,0,0,0,4.531,5.5,8.769,8.769,0,0,1,3.787,8.207c-.09,1.247-.21,2.472-.327,3.657-.051.518-.1,1-.143,1.477,0,.183,0,.336-.006.471a4.616,4.616,0,0,0,.011.6l.01.093c.088.8.188,1.716,1.181,1.889a1.249,1.249,0,0,0,.216.02c.612,0,.882-.518,1.144-1.02.069-.133.141-.27.217-.392a5.724,5.724,0,0,0,.545-1.2c.541-1.628,1.1-3.351,1.655-5.122l.007-.023C118.74,86.169,118.855,85.8,119.271,85.8ZM10,77.913a.656.656,0,0,1,.354.121c.474.3.261.675.074,1-.029.051-.058.1-.084.15l-.137.26c-.885,1.687-1.8,3.431-2.537,5.226a14.177,14.177,0,0,0-1.086,3.537c-.006.045-.012.091-.018.137-.084.629-.179,1.339.553,1.668a.983.983,0,0,0,.4.092,1.777,1.777,0,0,0,1.126-.648l.13-.122a12.571,12.571,0,0,0,1.808-2.231c1.3-1.927,2.432-4,3.521-6.011l.218-.4c.032-.058.062-.121.091-.182.143-.3.29-.6.659-.6a.816.816,0,0,1,.168.019c.523.11.489.491.455.86-.007.076-.013.148-.015.218-.016.741-.052,1.493-.088,2.22q-.016.33-.031.657a17.592,17.592,0,0,0,.245,4.42c.106.5.249.957.819,1.063a1.535,1.535,0,0,0,.28.027,1.278,1.278,0,0,0,1.126-.711,6.591,6.591,0,0,0,.709-1.511c.339-1.213.659-2.505,1.005-4.068a11.06,11.06,0,0,1,2.361-4.968A9.472,9.472,0,0,1,26.828,75.3a13.121,13.121,0,0,0,5.118-2.947l-2.3-2.025-.043-.038c-2.954-2.6-6.009-5.3-9-7.95a.7.7,0,0,0-.445-.226.673.673,0,0,0-.442.232,87.457,87.457,0,0,1-9.477,7.373c-1.18.834-2.4,1.7-3.584,2.566a8.313,8.313,0,0,0-1.745,1.636c-.26.345-.343.621-.248.82s.375.311.807.322l.148,0a10.786,10.786,0,0,0,2.912-.523c1.411-.4,2.818-.893,4.178-1.371,1.674-.588,3.4-1.2,5.16-1.633a12.01,12.01,0,0,0,4.666-2.084,1.254,1.254,0,0,1,.682-.356.552.552,0,0,1,.443.273c.337.462-.005.722-.307.952-.045.035-.089.068-.131.1A10.169,10.169,0,0,1,19.5,72.29c-3.033.866-6.059,1.838-9,2.888a17.215,17.215,0,0,1-4.059,1,1.446,1.446,0,0,0-1.164.7,36.6,36.6,0,0,0-3.415,6.173A6.968,6.968,0,0,0,1.2,85.71v.08c0,.417,0,.849.439,1.086a.939.939,0,0,0,.448.12,1.357,1.357,0,0,0,.866-.4A11.416,11.416,0,0,0,4.7,84.63C6.06,82.811,7.667,80.658,9.3,78.481l.038-.051C9.522,78.176,9.718,77.913,10,77.913ZM22.042,57.231c-.448,0-.865.442-1.7,1.324l-.109.116a1.381,1.381,0,0,0-.5.95c.014.282.2.554.645.939,2.229,1.936,4.476,3.923,6.649,5.846,1.861,1.646,3.785,3.349,5.695,5.015.4.349.716.646.97.884.544.511.816.766,1.078.766.281,0,.552-.308,1.092-.922.246-.281.553-.63.945-1.046a.979.979,0,0,0,.337-.689,1.045,1.045,0,0,0-.442-.7c-.361-.316-.707-.662-1.041-1-.139-.139-.282-.282-.425-.422-.356-.347-.641-.693-.231-1.118a.514.514,0,0,1,.367-.187.952.952,0,0,1,.563.322l.088.078.052.044a1.6,1.6,0,0,1,.29.292c.211.305.415.447.643.447a1.406,1.406,0,0,0,.81-.426C42.672,63.687,48.39,58.855,54,53.811A1.57,1.57,0,0,0,54.63,52.6c.013-.6.053-1.2.092-1.789.031-.473.063-.961.081-1.442.12-3.189.235-6.428.347-9.56q.06-1.7.121-3.4c0-.044,0-.089,0-.135.009-.426.019-.91.565-.91l.078,0c.6.044.58.567.56,1.028,0,.036,0,.072,0,.107q-.028.84-.06,1.679-.079,2.134-.155,4.268c-.154,4.262-.312,8.665-.5,12.995-.023.522,0,.863.195,1.066a1.124,1.124,0,0,0,.844.232c.062,0,.129,0,.2,0,5.5-.233,11.1-.421,16.51-.6h.021c2.325-.078,4.729-.159,7.094-.242,3.535-.124,7.339-.272,11.632-.454h.041c.06,0,.125.006.193.011s.145.013.215.013a.414.414,0,0,0,.33-.111.615.615,0,0,0,.086-.485c-.061-.529-.1-1.068-.139-1.589a15.379,15.379,0,0,0-.678-4.085c-.62-1.742-1.153-3.549-1.668-5.3q-.2-.668-.395-1.332c-.023-.076-.051-.156-.081-.24a1.309,1.309,0,0,1-.11-.926.6.6,0,0,1,.374-.294.875.875,0,0,1,.28-.053c.409,0,.515.434.609.817.025.1.049.2.078.288.137.421.267.851.393,1.268.159.525.322,1.064.5,1.589.208.618.388,1.26.562,1.881.586,2.087,1.191,4.246,2.957,5.844a1.787,1.787,0,0,1,.391.7c.046.121.095.246.151.36l1.187,2.411.008.017c1.429,2.9,2.907,5.9,4.353,8.856l.01.021c.183.376.342.7.654.7a.961.961,0,0,0,.542-.237,1.289,1.289,0,0,1,.689-.319.524.524,0,0,1,.452.3.61.61,0,0,1,.1.469c-.063.241-.327.395-.583.543l-.114.067c-2.085,1.25-2.085,1.25-1.1,3.332l.063.132c.292.615.567.866.95.866a2.01,2.01,0,0,0,.863-.273c3.578-1.818,7.235-3.629,10.772-5.379l.107-.053c1.316-.652,2.678-1.326,4.015-1.99,2.367-1.176,2.367-1.176,1.214-3.515l-.053-.107c-.262-.532-.5-.75-.827-.75a1.651,1.651,0,0,0-.716.226c-3.477,1.78-6.935,3.477-9.859,4.9a3.586,3.586,0,0,0-.312.181,1.631,1.631,0,0,1-.754.32.545.545,0,0,1-.486-.358.681.681,0,0,1-.081-.567c.107-.268.467-.4.785-.507a3.132,3.132,0,0,0,.371-.148c2.693-1.377,5.4-2.718,8.044-3.984.634-.3.751-.6.5-1.276l-.3-.794c-.859-2.311-1.748-4.7-2.506-7.089a36.316,36.316,0,0,0-3.525-7.965,25.972,25.972,0,0,0-5.677-6.618c-1.4-1.163-2.728-2.464-4.01-3.723-.6-.59-1.223-1.2-1.845-1.788-.951-.9-1.907-1.809-2.832-2.687l-.006-.005c-2.379-2.26-4.839-4.6-7.287-6.864A8.969,8.969,0,0,0,82.979,17.4a8.516,8.516,0,0,0-2.046.259c-.45.112-.679.233-.79.418a1.15,1.15,0,0,0,0,.869c.913,3.648,1.755,7.278,2.681,11.3.025.109.062.218.1.335.131.39.267.793-.071,1.144a.65.65,0,0,1-.483.22,1.621,1.621,0,0,1-.625-.185,2.781,2.781,0,0,0-.343-.135c-.748-.218-1.5-.468-2.226-.71a34.818,34.818,0,0,0-4.066-1.171,8.035,8.035,0,0,0-2.934-1.073c-.85,0-1.453.591-2.854,2.047a2.975,2.975,0,0,0-.2.246c-.031.04-.061.079-.093.118l-1.077,1.094,0,0L64.812,35.36c-.49.5-.782.7-1.008.7-.277,0-.479-.3-.746-1.089-1.065-3.174-2.165-6.454-3.242-9.773-.144-.441-.3-.715-.631-.715a1.3,1.3,0,0,0-.534.154,11.87,11.87,0,0,0-3.4,2.2l-7.445,7.473-.169.17c-7.3,7.332-14.854,14.913-22.3,22.367-.264.264-.437.486-.428.713.008.194.144.39.455.655,2.09,1.775,4.169,3.634,6.179,5.432l.486.435c.061.054.13.107.2.163.222.17.473.362.5.611a.615.615,0,0,1-.185.459.6.6,0,0,1-.448.258c-.244,0-.467-.22-.663-.414-.061-.06-.119-.117-.177-.168-2.456-2.154-4.942-4.359-7.345-6.491l-.029-.025-.005,0C22.947,57.646,22.479,57.231,22.042,57.231ZM62.9,23.238h0a5.226,5.226,0,0,0-1.55.469l-.07.027c-.487.189-.591.4-.43.878.893,2.628,2,5.9,3.043,9.047.089.27.177.45.32.45.094,0,.212-.076.37-.24,1.186-1.225,2.366-2.437,3.615-3.72l.016-.016.007-.007,1.657-1.7a8.407,8.407,0,0,1-3.45-1.165,6.1,6.1,0,0,1-2.14-2.4c-.615-1.182-.845-1.624-1.387-1.624Zm15.6-4.847a.9.9,0,0,0-.433.152,1.7,1.7,0,0,1-.665.155c-.348.037-.708.075-.881.33a1.148,1.148,0,0,0-.02.942,6.19,6.19,0,0,1-.982,5.358,10.564,10.564,0,0,1-2.462,2.389l.609.193.125.04,7.766,2.463c-.029-.179-.05-.329-.069-.46-.033-.232-.058-.4-.1-.569l-.326-1.392,0-.012c-.663-2.827-1.348-5.75-2.038-8.621-.016-.066-.029-.137-.044-.213C78.914,18.791,78.838,18.391,78.5,18.391Zm-9.551-1.1a.541.541,0,0,1,.4.2.524.524,0,0,1,.008.757,4.737,4.737,0,0,1-.87.627,11.457,11.457,0,0,1-4.842,1.309c.167.413.328.822.484,1.217.347.88.673,1.707,1.037,2.528a5.21,5.21,0,0,0,6.658,2.925A5.751,5.751,0,0,0,74.9,24.083a5.175,5.175,0,0,0,.369-4.035c-.575-1.7-1.24-3.406-1.884-5.053-.27-.691-.549-1.4-.818-2.111-.235-.615-.28-.922-.161-1.1.083-.121.256-.177.544-.177a4.819,4.819,0,0,1,.621.051,4.173,4.173,0,0,0,4.162-2.041,4.131,4.131,0,0,0-4.783-6.064A4.066,4.066,0,0,0,69.96,7.34c-.038.371-.137.751-.589.758h-.014a.572.572,0,0,1-.434-.16.889.889,0,0,1-.173-.671c.017-.339.042-.683.066-1.016V6.232q.014-.194.027-.387a4.227,4.227,0,0,1-3.692,2.277l-.134,0c-1.583-.044-2.682-.934-3.563-2.884l-.7,1.9c.137.017.265.031.378.043.247.027.46.05.67.089a.623.623,0,0,1,.6.632.523.523,0,0,1-.5.538.5.5,0,0,1-.164-.029,1.229,1.229,0,0,0-.406-.059,4.481,4.481,0,0,0-.5.039,4.476,4.476,0,0,1-.5.04c-.415,0-.863-.113-1.04-.953a.168.168,0,0,0-.185-.153.89.89,0,0,0-.146.017.9.9,0,0,1-.146.017l-.032,0c-.122-.014-.25-.02-.373-.026a2.346,2.346,0,0,1-.8-.131,1.457,1.457,0,0,0-.562-.142c-.412,0-.619.331-.8.829a8.158,8.158,0,0,0,2.277,8.958,8.233,8.233,0,0,0,5.409,2.05,8.1,8.1,0,0,0,3.86-.986c.159-.086.315-.183.466-.277s.3-.189.461-.274A.507.507,0,0,1,68.951,17.289ZM63.191,4.015a.825.825,0,0,1,.912.709c.108.548-.278.761-.687.986-.086.047-.174.1-.258.148a3,3,0,0,0,2.08,1.082,2.278,2.278,0,0,0,1.1-.3,2.411,2.411,0,0,0,1.176-2.762,2.262,2.262,0,0,0-2.141-1.785c-.1-.008-.192-.012-.282-.012-1.1,0-1.791.593-2.312,1.981A2.182,2.182,0,0,1,63.191,4.015ZM56.712,3.69a.7.7,0,0,1,.71.444.848.848,0,0,1-.363,1.132c-.113.08-.166.153-.163.223.005.1.141.182.261.25.035.02.068.039.1.058a2.167,2.167,0,0,0,1.185.384,2.281,2.281,0,0,0,2.027-1.731,2.575,2.575,0,0,0,.071-2.116,2.134,2.134,0,0,0-1.482-.989,2.723,2.723,0,0,0-.645-.082c-1.194,0-2.045.9-2.4,2.524l.07-.014A3.432,3.432,0,0,1,56.712,3.69Z" transform="translate(221.988 25.084)" fill="#001e35"/>
      <g id="Group_8" data-name="Group 8" transform="translate(239.341)">
        <path id="Clip_7-2" data-name="Clip 7" d="M0,0H36.287V43.775H0Z" fill="none"/>
        <g id="Group_8-2" data-name="Group 8" clip-path="url(#clip-path-3)">
          <path id="Fill_6" data-name="Fill 6" d="M36.282,35.907a35.937,35.937,0,0,1-.673,7.031c-.153.83-.439.94-1.182.767Q18.8,40.072,3.158,36.477C.519,35.867.534,35.854.5,33.181.343,22.58.2,11.98,0,1.38-.019.3.216-.013,1.35,0A35.835,35.835,0,0,1,35.567,28.641a35.123,35.123,0,0,1,.715,7.266" transform="translate(0 0)" fill="#f37777"/>
        </g>
      </g>
      <path id="Fill_9" data-name="Fill 9" d="M30.818,18.2c.137.3-.134.415-.284.565Q24.471,24.86,18.4,30.945a1.9,1.9,0,0,1-.289.2c-.165.03-.349.032-.372.263h.032c-.443-.186-.771.11-1.11.288A36.163,36.163,0,0,1,.944,35.846C0,35.881.222,35.332.22,34.868.2,29.23.211,23.591.175,17.954.14,12.4.057,6.845,0,1.29-.012-.142,0-.144,1.325.163c10.716,2.48,21.426,4.981,32.153,7.41,1.159.263,1.362.654,1.048,1.732a40,40,0,0,1-2.9,7.336c-.215.412-.577.79-.434,1.325l.008-.025-.379.259" transform="translate(239.863 38.341)" fill="#f37777"/>
      <path id="Fill_11" data-name="Fill 11" d="M28.016,0q10.07,6.982,20.139,13.966c.488.339.966.692,1.449,1.039a3.688,3.688,0,0,0-.482.659q-2.448,5.623-4.872,11.257l-2.256.061a19.042,19.042,0,0,0-4.59-2.215Q19.992,17.166,2.54,9.66A15.887,15.887,0,0,0,.993,9.014c-1.176-.366-1.181-1-.664-1.987A9.5,9.5,0,0,1,6.377,2.45a22.034,22.034,0,0,1,7.7-.673c4.019.206,8.08.478,12-.868A5.368,5.368,0,0,0,28.016,0" transform="translate(204.609 156.459)" fill="#f37777"/>
      <path id="Fill_13" data-name="Fill 13" d="M0,.309C9.858.157,19.712-.047,29.568.01A16.585,16.585,0,0,0,31.93,4.3a8.14,8.14,0,0,0,4.039,3.055,11.718,11.718,0,0,1,4.319,2.517,8.941,8.941,0,0,1,2.945,6.471c-3.633.016-7.265.041-10.9.046q-15.692.022-31.384.029c-.317,0-.635-.04-.952-.061Q0,8.332,0,.309" transform="translate(301.248 166.957)" fill="#f37777"/>
      <path id="Fill_15" data-name="Fill 15" d="M5.259,0C11.3,3.532,17.311,7.108,23.228,10.841c.029.137.073.259.25.247l-.007-.015c-.136,2.023,1.214,3.092,2.674,4.027,1.437.92,3.152,1.063,4.764,1.452,4.218,1.018,6,3,6.413,7.3q-8.957.031-17.915.059c-.712,0-1.424-.03-2.136-.045a56.643,56.643,0,0,0-5.747-1.668,18.634,18.634,0,0,0-1.014-3.83,35.144,35.144,0,0,0-1.336-4.876c-.738,2.324-1.425,4.445-2.079,6.575-.2.665-.428,1.045-1.241.705a13.6,13.6,0,0,0-2.073-.524,1.558,1.558,0,0,0-1.172-.268A4.82,4.82,0,0,0,.715,19.3c-.765-.162-.811-.481-.621-1.179.837-3.069,1.894-6.079,2.526-9.2A17.775,17.775,0,0,0,3.8,4.842,45.7,45.7,0,0,0,5.259,0" transform="translate(28.153 159.725)" fill="#f37777"/>
      <path id="Fill_17" data-name="Fill 17" d="M29.889,13.092c-1.8,1.038-3.6,2.066-5.385,3.118-.706.415-.816.075-.8-.545.016-.76.024-1.521,0-2.28-.016-.439.172-1.1-.58-1.072-.643.02-.5.614-.507,1.025-.019,1.04-.042,2.082.007,3.12a1.143,1.143,0,0,1-.734,1.2c-2.156,1.138-4.3,2.295-6.417,3.508-.615.353-.881.17-1.255-.308Q9.884,15.335,5.518,9.84c-.149-.188-.289-.383-.445-.565-.229-.269-.514-.421-.837-.194-.38.268-.313.6-.058.932.625.809,1.247,1.62,2.054,2.668A9.233,9.233,0,0,0,0,12.662c.724-.774,1.379-1.426,1.977-2.127a11.971,11.971,0,0,0,2.308-3.9c.156-.459.283-.681.9-.57C9.055,6.752,11.72,4.8,12.351.913A8.968,8.968,0,0,1,12.6,0,35.4,35.4,0,0,1,16.88.276,10.719,10.719,0,0,1,23.556,4.55q3.173,4.266,6.333,8.542" transform="translate(26.29 81.883)" fill="#f37777"/>
      <path id="Fill_19" data-name="Fill 19" d="M1.955,7.372a4.841,4.841,0,0,0-1.829-.2c-.292-.495,0-.926.164-1.359a9.229,9.229,0,0,1,17.8,3.728,5.733,5.733,0,0,0-5.439,1.19c-.578.495-1.174.064-1.736-.182.1-2.169-.843-3.209-2.995-3.221-1.99-.012-3.98.026-5.97.043" transform="translate(279.811 17.933)" fill="#f37777"/>
      <path id="Fill_21" data-name="Fill 21" d="M.012,36.4C.019,24.768.047,13.134,0,1.5,0,.256.337-.045,1.528.005,3.8.1,6.084.06,8.361.019,9.115.005,9.4.189,9.4,1.008q-.034,21.59,0,43.179c0,.853-.351.975-1.072.967-2.678-.029-5.356-.008-8.034-.006.906-1.938,1.759-3.9,2.739-5.8.5-.972.251-1.428-.678-1.8-.8-.325-1.565-.755-2.345-1.139" transform="translate(92.873 48.559)" fill="#f37777"/>
      <path id="Fill_23" data-name="Fill 23" d="M2.407,18.231,0,7.008,18.944,0A8.987,8.987,0,0,0,25,3.019a65.367,65.367,0,0,1,8.2,1.526A3.258,3.258,0,0,0,33.8,4.6a1.435,1.435,0,0,0,1.055.558,14.33,14.33,0,0,1,3.38,2.434,9.513,9.513,0,0,1,.619.728c1.3,1.9,1.13,2.321-1.081,2.82-1.9.428-3.789.873-5.684,1.311a2.714,2.714,0,0,0-1.435.278,4.154,4.154,0,0,0-.6.041c-4.907,1.039-9.817,2.06-14.712,3.154a1.649,1.649,0,0,1-1.7-.462C12.3,14.213,10.931,12.982,9.5,11.83a8.814,8.814,0,0,0-2.368-1.8c.5,2.232.914,4.253,1.42,6.251.2.777-.007,1.082-.759,1.254a10.359,10.359,0,0,0-2.753.7H2.407" transform="translate(83.509 165.317)" fill="#f37777"/>
      <path id="Fill_25" data-name="Fill 25" d="M0,10Q.342,5.422.683.842A19.071,19.071,0,0,0,6.414,0,10.412,10.412,0,0,0,3.435,5.522,8.273,8.273,0,0,0,3.643,9.3c.172.577-.006.7-.533.7C2.074,9.985,1.037,10,0,10" transform="translate(17.086 95.97)" fill="#f37777"/>
      <path id="Fill_27" data-name="Fill 27" d="M.111.152.084.088.156.1Z" transform="translate(23.735 95.671)" fill="#f37777"/>
      <path id="Fill_29" data-name="Fill 29" d="M6.585,1.073C5.1,2.446,5.422,4.059,5.832,5.776c.742,3.107,1.337,6.249,2.013,9.372a6.439,6.439,0,0,1-.372,4.1c-.853,1.937-1.628,3.908-2.434,5.866-.184.446-.332.929-.932.96-.67.035-.846-.485-1.059-.965-.841-1.9-1.695-3.793-2.526-5.7a5.513,5.513,0,0,1-.334-3.745c.959-3.56,1.207-7.25,1.958-10.845C2.469,3.268,1.517,2.889.5,2.412c.1-.122.189-.252.3-.365C3.233-.484,3.312-.5,6.585,1.073" transform="translate(290.509 53.759)" fill="#f37777"/>
      <path id="Fill_31" data-name="Fill 31" d="M1.074,3.83c-.007.276-.023.552-.018.828.006.347-.035.6-.493.613C.047,5.289-.007,5.023,0,4.617.029,3.078.041,1.539.06,0A18.641,18.641,0,0,1,1.074,3.83" transform="translate(38.602 178.088)" fill="#001e35"/>
      <path id="Fill_33" data-name="Fill 33" d="M1.988,42.289C.021,42.211.021,42.211.021,40.246Q.021,20.8,0,1.363C0,.355.178-.043,1.295,0,3.57.1,5.855.083,8.132.009,9.13-.023,9.4.266,9.4,1.269,9.36,11.19,9.375,21.11,9.376,31.032c0,.359.022.719.034,1.079L1.988,42.289" transform="translate(122.894 51.442)" fill="#f37777"/>
      <path id="Fill_35" data-name="Fill 35" d="M.041,36.38Q.029,18.681,0,.982C0,.147.31-.01,1.051,0Q4.709.057,8.368,0C9.14-.012,9.4.207,9.4,1.011Q9.361,18.47,9.372,35.929c-1.072-1-2.181-1.968-3.2-3.02a1.11,1.11,0,0,0-1.808-.08C2.951,34.046,1.485,35.2.041,36.38" transform="translate(107.902 55.892)" fill="#f37777"/>
      <path id="Fill_37" data-name="Fill 37" d="M.03,28.1c0-9,0-18.009-.03-27.013C0,.267.191-.019,1.054,0,3.534.058,6.015.033,8.5.013c.562,0,.872.069.871.763q-.044,20.769-.049,41.538a.576.576,0,0,1-.023.117c-.241-.364-.5-.714-.721-1.091Q5,35.107,1.432,28.871c-.3-.517-.507-1.3-1.4-.771" transform="translate(137.857 47.851)" fill="#f37777"/>
      <path id="Fill_39" data-name="Fill 39" d="M0,22.072C.01,15.154.046,8.235,0,1.318,0,.255.268-.035,1.324,0c2.316.085,4.638.072,6.956,0C9.207-.02,9.4.29,9.4,1.163q-.044,14.7-.017,29.395c0,.559.025,1.119.038,1.678-.228.516-.4.112-.546-.049Q4.431,27.135,0,22.072" transform="translate(168.007 55.919)" fill="#f37777"/>
      <path id="Fill_41" data-name="Fill 41" d="M.084,35.2c-.021-.358-.06-.716-.061-1.074,0-10.949.01-21.9-.024-32.847C0,.3.225-.03,1.248,0c2.395.076,4.793.037,7.19.016.613-.005.954.093.949.837-.037,5.593-.039,11.187-.052,16.781a1.758,1.758,0,0,0-.949.459Q5.42,20.4,2.455,22.713c-.364.285-.91.592-.467,1.137.42.517.847.1,1.227-.186l3.622-2.707.254.29C4.82,25.931,2.536,30.609.084,35.2" transform="translate(183.615 40.401)" fill="#f37777"/>
      <path id="Fill_43" data-name="Fill 43" d="M9.718,4.949a2.691,2.691,0,0,0-.185,1.524c-.006,8.162-.026,16.323.02,24.485.006,1.119-.323,1.45-1.422,1.413-2.277-.076-4.56-.065-6.838,0-.916.025-1.146-.275-1.137-1.161C.2,27.127.179,23.045.17,18.965c0-.428.123-.884-.17-1.278L8.829,0l.226.093.663,4.855" transform="translate(183.461 61.345)" fill="#f37777"/>
      <path id="Fill_45" data-name="Fill 45" d="M89.921,8.257,89.258,3.4l-.226-.093L80.2,21q-2.549,5.081-5.1,10.164c-.227.453-.376.978-1,1.059-.707-.278-1.068-.93-1.538-1.454q-3.894-4.341-7.759-8.708l-4.694-5.429-1.365,2.9c-2.917,5.313-5.649,10.722-8.372,16.135-.727,1.371-1.443,2.748-2.187,4.11-.529.968-.915.975-1.486.019-.878-1.472-1.726-2.962-2.586-4.442q-4.269-7.49-8.541-14.982c-.274-.479-.55-1.186-1.022-.122-1.929,2.517-3.83,5.054-5.593,7.692l-5.688,7.731c-1.041,1.4-2.1,2.793-3.115,4.214-.488.683-.915.741-1.526.137-1.526-1.509-3.089-2.98-4.636-4.466-1.2-1.153-2.417-2.289-3.589-3.471-.4-.4-.67-.406-1.083-.051-1.411,1.213-2.845,2.4-4.271,3.6l-3.81,3.085c-.36.291-.738.571-1.115.053-.334-.46.036-.728.341-.986q2.1-1.774,4.212-3.54c1.444-1.181,2.91-2.334,4.321-3.552a1.11,1.11,0,0,1,1.808.08c1.021,1.052,2.13,2.018,3.2,3.02,1.6,1.561,3.2,3.115,4.786,4.689.353.351.58.451.9-.042.611-.931,1.276-1.827,1.919-2.737l7.423-10.179,5.583-7.6c.895-.525,1.1.254,1.4.771q3.582,6.228,7.142,12.468c.216.377.479.728.721,1.091L47.4,38.659l2.073-4.151c1.056-2,2.129-4,3.164-6.018q3.11-6.058,6.186-12.134c.113-.159.238-.311.336-.478.67-1.147.86-1.161,1.778-.141q1.9,2.113,3.814,4.218,4.435,5.06,8.874,10.115c.142.161.319.565.546.049q3.306-6.191,6.272-12.553c2.452-4.593,4.736-9.271,7.008-13.954.111-.138.28-.316.143-.462-.191-.2-.283.061-.4.172L83.573,6.028c-.38.284-.807.7-1.227.186-.443-.545.1-.852.467-1.137Q85.772,2.76,88.743.459A1.76,1.76,0,0,1,89.692,0a1.476,1.476,0,0,1,.533,1.15c.3,2.3.623,4.592.91,6.891.059.472.337,1.152-.428,1.282-.787.133-.675-.593-.786-1.066" transform="translate(103.258 58.037)" fill="#001e35"/>
      <path id="Fill_47" data-name="Fill 47" d="M9.384,10.684Q6.293,16.752,3.2,22.818C2.163,24.833,1.09,26.83.034,28.835Q.024,14.932,0,1.03C0,.258.209-.014,1.009,0,3.485.047,5.962.042,8.438,0c.753-.012.946.263.941.973-.023,3.236,0,6.472.006,9.708" transform="translate(152.696 63.709)" fill="#f37777"/>
      <path id="Fill_49" data-name="Fill 49" d="M0,.555C.472-.508.748.2,1.021.678Q5.3,8.167,9.562,15.66c-.308.339-.718.288-1.114.288-2.434,0-4.869-.046-7.3.023C.2,16,.037,15.653.041,14.8.06,10.052.02,5.3,0,.555" transform="translate(137.815 77.722)" fill="#f37777"/>
      <path id="Fill_51" data-name="Fill 51" d="M.048,0Q3.924,4.357,7.807,8.708c.47.524.831,1.176,1.538,1.454-.049,1.1.489,2.48-.225,3.208-.613.626-1.972.165-3,.181-1.712.027-3.426-.017-5.138.019-.679.015-.992-.111-.983-.9C.048,8.445.038,4.222.048,0" transform="translate(168.02 80.093)" fill="#f37777"/>
      <path id="Fill_53" data-name="Fill 53" d="M0,16.135C2.724,10.722,5.456,5.313,8.372,0c.017,5.117.024,10.234.063,15.351.006.789-.435.8-1,.793-2.479-.012-4.957-.008-7.436-.01" transform="translate(153.636 77.56)" fill="#f37777"/>
      <path id="Fill_55" data-name="Fill 55" d="M0,7.731,5.688,0c.015,2.308.015,4.617.056,6.925.011.64-.246.824-.848.814C3.264,7.713,1.632,7.731,0,7.731" transform="translate(126.534 85.97)" fill="#f37777"/>
      <path id="Fill_57" data-name="Fill 57" d="M0,3.853c1.426-1.2,2.86-2.383,4.271-3.6.412-.355.686-.348,1.083.051C6.526,1.49,7.744,2.627,8.943,3.78L0,3.853" transform="translate(108.315 89.807)" fill="#f37777"/>
      <path id="Fill_59" data-name="Fill 59" d="M2.145,2.112c-.028-.55-.475-.76-.717-1.105-.206-.295-.3-.577,0-.844a.526.526,0,0,1,.759,0A30.512,30.512,0,0,1,4.413,2.649c.357.47.015.875-.545.841-1.111-.067-2.22-.2-3.324-.339A.555.555,0,0,1,.01,2.488c.063-.374.348-.5.707-.481.469.031.939.069,1.429.105" transform="translate(28.818 64.121)" fill="#001e35"/>
      <path id="Fill_61" data-name="Fill 61" d="M2.153,2.128A2.97,2.97,0,0,1,.246,1.262.641.641,0,0,1,.114.4.54.54,0,0,1,.959.341,1.611,1.611,0,0,0,3.544.251a.555.555,0,0,1,.921-.01c.263.312.1.589-.12.846A2.964,2.964,0,0,1,2.153,2.128" transform="translate(42.185 71.881)" fill="#001e35"/>
      <path id="Fill_63" data-name="Fill 63" d="M1.4.682a.666.666,0,0,1-.6.733A.658.658,0,0,1,0,.752.662.662,0,0,1,.718,0c.411,0,.629.267.678.682" transform="translate(40.673 65.894)" fill="#001e35"/>
      <path id="Fill_65" data-name="Fill 65" d="M3.882,4.684a5.764,5.764,0,0,1-1.968-.706C.743,3.426.163,3.08.03,2.61S.215,1.532.933.433A.783.783,0,0,1,1.722,0c.047,0,.1,0,.149.005.248.123.513.252.79.388.8.388,1.7.828,2.577,1.3.314.17.184.547.08.85l-.008.023C4.783,4.1,4.524,4.684,3.882,4.684ZM2.038,1.372a.939.939,0,0,0-.529.464.433.433,0,0,0-.049.318c.213.606.763.778,1.3.945a4.619,4.619,0,0,1,.588.214.378.378,0,0,0,.162.04A.326.326,0,0,0,3.77,3.2a.813.813,0,0,0,.145-.556c-.168-.553-.615-.716-1.089-.888a2.8,2.8,0,0,1-.789-.385Z" transform="translate(81.744 74.006)" fill="#001e35"/>
      <path id="Fill_67" data-name="Fill 67" d="M1.6,5A1.339,1.339,0,0,1,.091,3.586Q.075,3.349.059,3.133V3.126C-.025,1.958-.076,1.253.311.831.652.458,1.334.3,2.741.283,4.232.261,5.747.19,7.212.121,8.1.079,9.017.036,9.922,0q.092,0,.178,0c1.139,0,1.565.432,1.626,1.651.072,1.44.093,2.21-.279,2.608s-1.157.437-2.624.467c-.337.007-.7.01-1.128.01-.311,0-.622,0-.932,0s-.622,0-.933,0v.261l-1.247,0H4.573l-1.237,0c-.656,0-1.194,0-1.693.009ZM9.929,1.185q-.051,0-.107,0c-2.429.143-5.01.255-7.89.343a.812.812,0,0,0-.669.248.723.723,0,0,0-.034.641,1.436,1.436,0,0,1,.011.5.9.9,0,0,0,.108.69.77.77,0,0,0,.589.181H1.99c.444-.011.919-.017,1.5-.017.386,0,.779,0,1.159,0h.006c.382,0,.777,0,1.165,0V3.5H9.888a.771.771,0,0,0,.61-.191.891.891,0,0,0,.061-.715A1.919,1.919,0,0,1,10.52,2.2c0-.057.009-.115.015-.177a.882.882,0,0,0-.1-.678A.653.653,0,0,0,9.929,1.185Z" transform="translate(298.951 58.504)" fill="#001e35"/>
      <path id="Fill_69" data-name="Fill 69" d="M2.742,4.214A2.928,2.928,0,0,1,.038,1.7,1.009,1.009,0,0,1,.121.914.876.876,0,0,1,.748.6C1.63.469,2.514.332,3.37.2l1.2-.186A2.267,2.267,0,0,1,4.807,0a.665.665,0,0,1,.75.666A3.226,3.226,0,0,1,5.009,2.9,2.942,2.942,0,0,1,3.164,4.174,2.281,2.281,0,0,1,2.742,4.214ZM4.307,1.279l-1.128.173-.027,0L1.4,1.724c.149.83.609,1.287,1.3,1.288A1.717,1.717,0,0,0,2.881,3C3.709,2.917,4.189,2.337,4.307,1.279Z" transform="translate(280.393 34.9)" fill="#001e35"/>
      <path id="Fill_71" data-name="Fill 71" d="M2.016,1.841c.211.556.693.733,1,1.076a.609.609,0,0,1,.08.857.559.559,0,0,1-.85.029C1.572,3.243.883,2.7.263,2.084c-.455-.45-.3-.9.29-1.091C1.648.642,2.761.348,3.868.037A.576.576,0,0,1,4.65.384c.139.409-.057.686-.47.809-.712.212-1.423.426-2.164.648" transform="translate(294.009 30.599)" fill="#001e35"/>
      <path id="Fill_73" data-name="Fill 73" d="M0,.246C.113.135.206-.128.4.075.534.221.364.4.254.537L0,.246" transform="translate(190.453 61.112)" fill="#f37777"/>
    </g>
  </g>
</svg>
