<svg xmlns="http://www.w3.org/2000/svg" width="657.205" height="319.717" viewBox="0 0 657.205 319.717">
  <g id="Grupo_16" data-name="Grupo 16" transform="translate(-234.011 -350.543)">
    <path id="Trazado_664" data-name="Trazado 664" d="M523.154,457.665c0,34.061-.074,68.123.1,102.184.02,4.095-.979,5.229-5.155,5.22q-95.546-.207-191.09-.017c-3.6.006-4.765-.7-4.758-4.568q.2-102.68.032-205.362c0-3.321.692-4.571,4.339-4.565q96.044.163,192.088-.014c4.036-.008,4.527,1.485,4.515,4.938C523.109,389.542,523.154,423.6,523.154,457.665Z" fill="#242635"/>
    <path id="Trazado_665" data-name="Trazado 665" d="M461.127,665.641c.4,2.377,2.251,1.876,3.8,1.889,4.408.035,8.818.031,13.227.043a3.243,3.243,0,0,1,4.207-.019c6.062-.022,12.124-.015,18.185-.085,1.5-.017,3.442.68,3.841-1.79,1.71-.5.946,1.662,2.008,1.857l67.623-.187.1.466c8.243.7,16.505.07,24.75.374,1.381.051,3.4-1.216,4.125,1.251q-43.872.125-87.743.245-108.2.2-216.393.36c-19.752.034-39.5.115-59.255.105-1.7,0-3.674.755-5.594-1.675,3.976-1.255,7.739-.3,11.329-.748,1.505-.189,3.943,1.22,4.185-1.9-.155-1.5-1.494-3.279.985-4.155l1.115,5.98c4.046,1.065,8.166.191,12.242.468,1.737.118,2.3-.813,2.284-2.413-.011-.9-.242-2.09,1.32-2.035-.124,3.028,1.034,4.316,4.342,4.139,5.6-.3,11.233-.217,16.845-.07,2.434.064,3.053-.8,3.017-3.114-.125-7.921-.171-15.847.02-23.765.066-2.738-.867-3.8-3.485-4.134a11.341,11.341,0,0,1-6.589-3.1c-.176-.973.437-1.353,1.211-1.615a30.162,30.162,0,0,0,19.622.014c.768.3,1.366.718,1.1,1.69-1.107.686-2.176,1.887-3.328,1.972-6.953.517-6.9,5.119-6.655,10.325.286,6.117.195,12.26.008,18.384-.08,2.647.778,3.366,3.363,3.334q16.165-.2,32.333,0c2.564.034,3.4-.868,3.663-3.265.4-3.611,1.142-7.185,1.739-10.775,2.273.566.995,2.138.954,3.359a6.038,6.038,0,0,1,.06.982c-.3,3.074-2,7.4-.61,8.915,1.907,2.081,6.2.608,9.469.664,6.094.106,12.2-.169,18.282.117,2.92.138,3.152-1.189,2.946-3.345,3.158,1.318,6.331,2.471,9.757.877.843.194,1.465.533,1.019,1.562,1.539,1.516,3.465.739,5.186.743q38.773.09,77.548.045C460.139,667.178,459.323,665.2,461.127,665.641Z" fill="#232534"/>
    <path id="Trazado_666" data-name="Trazado 666" d="M337.7,630.636c-2.6-3.13-6.476-1.744-9.706-2.6-5.556-1.474-8.234-4.276-7.572-9.113.618-4.507,3.949-6.9,9.536-6.236q11.817,1.4,23.56,3.4a7.8,7.8,0,0,1,6.706,8.927c-.814,4.436-4.761,7.1-9.64,6.44-3.6-.486-7.193-1.051-10.788-1.581C339.065,630.046,338.7,631.23,337.7,630.636Z" fill="#f37777"/>
    <path id="Trazado_667" data-name="Trazado 667" d="M854.507,610.887c-4.932,2.906-9.365,2.254-11.531-1.7-2.226-4.059-.522-7.92,4.667-10.574,1.2-.492,2.526-.207,3.742-.6,2.495.19,4.095,1.767,5.55,3.57.562,1.011-.147,2.155.319,3.181-.056.662.687-.093.037.051-.151-1.053-.613-2.308,1.312-2.007,3.575-2.243,7.01-2.652,10.266.64,2.716,2.745,2.036,5.794.576,8.66-2.432,4.774-7.226,4.546-12.676-.427C855.857,611.867,856.357,608.037,854.507,610.887Z" fill="#bbcde5"/>
    <path id="Trazado_668" data-name="Trazado 668" d="M250.632,571.875l1-.792c1.127-1.838,1.955-4.057,4.771-3.75a31.613,31.613,0,0,1,5.764,4.156,17.924,17.924,0,0,1,5.141,6.879,10.976,10.976,0,0,1-.728,7.233,17.6,17.6,0,0,1-1.429,2.545c-1.864,1.436-2.157,4.439-4.946,4.957-1.755-.551-1.437-2.292-2.021-3.514a9.168,9.168,0,0,1-.527-2.8c-.249,2.3,1.8,4.459.4,6.83-.922.952-1.741.278-2.577-.157-1.832-1.661-3.982-2.936-5.718-4.716C245.376,582.336,245.578,578.417,250.632,571.875Z" fill="#fcfcfc"/>
    <path id="Trazado_669" data-name="Trazado 669" d="M603,669.44c-7.158-1.787-14.44-.295-21.641-.835-2.416-.181-4.972.8-7.234-.79,12.188-.019,24.376-.019,36.564-.079,1.789-.009,3.577-.3,5.366-.462,1.717-1.268,3.729-1.266,5.717-1.273q19.387-.063,38.776,0a11.9,11.9,0,0,1,6.26,1.244q27.267.026,54.535.073c2.467.008,4.933.313,7.4.48.648.453.621.976.16,1.543q-44.541.137-89.082.259C627.543,669.619,615.269,669.5,603,669.44Z" fill="#313341"/>
    <path id="Trazado_670" data-name="Trazado 670" d="M851.661,634.855c-1.444,9.35-2.689,18.738-4.443,28.03-.6,3.167-.256,4.1,3.076,3.929,4.8-.252,9.635-.194,14.445-.013,2.581.1,3.461-.926,3.753-3.356.591-4.933,1.454-9.833,2.205-14.747,2.367.54,1.036,2.169,1.007,3.414-.4,3.593-.449,7.273-1.3,10.756-.913,3.727.684,4.039,3.667,3.927,4.943-.186,9.9-.112,14.847-.072,1.221.01,3.249-.375,1.793,2.076a15.348,15.348,0,0,1-4.937.287c-29.343.016-58.687.044-88.03-.076-1.615-.006-4.039,1.548-5.015-1.352l.137.033c7.988-1.25,16.027-.39,24.038-.485,4.059-.049,8.048.492,9.586-4.545-.123,3.377,1.435,4.531,4.813,4.216,4.248-.4,9.588,1.174,12.523-.872,3-2.093,2.156-7.859,2.953-12.024,1.352-7.076,2.632-14.167,3.942-21.251C852.546,632.77,852.11,633.809,851.661,634.855Z" fill="#323442"/>
    <path id="Trazado_671" data-name="Trazado 671" d="M792.728,667.658c1.656,1.7,3.778.941,5.682.947q46.152.153,92.3.193c-12.072,1.164-24.177.458-36.261.519-41.191.209-82.384.152-123.576.189-.66,0-1.32-.109-1.978-.167q-.076-.771-.157-1.543Z" fill="#352b76"/>
    <path id="Trazado_672" data-name="Trazado 672" d="M861.55,586.861c1.808-.754,3.578-1.905,5.605-1.567,3.1.516,5.642,2,6.359,5.345a6.909,6.909,0,0,1-2.983,7.758,6.486,6.486,0,0,1-8.223-.292c-.9-.7-1.7-1.535-2.549-2.309-1.309-.757-1.665-2.1-2.093-3.4-.344-2.189-.865-4.408.92-6.286a6.234,6.234,0,0,1,.853-.054A1.906,1.906,0,0,1,861.55,586.861Z" fill="#bbcde5"/>
    <path id="Trazado_673" data-name="Trazado 673" d="M375.658,665.707c-3.571,3.23-6.092,2.9-9.874-1.314l-1.59-.922c.043-2.431-1.6-4.2-2.472-6.276-.694-1.562-1.581-3.112-.264-4.782a3.691,3.691,0,0,1,4.031.887c.683.638,1.073,1.653,2.2,1.747,1.9-1.629-1.041-7.234,4.7-5.711,2.157,2.049.062,5.1,1.76,7.342,1.864.278,1.889-1.965,3.212-2.412a2.3,2.3,0,0,1,2.091,0c1.816,1.2,1.831,2.73.824,4.447C379.051,661.254,377.862,663.815,375.658,665.707Z" fill="#f7f7f8"/>
    <path id="Trazado_674" data-name="Trazado 674" d="M859.769,582.92c-2.747-1.977-5.307-4.166-4.642-8,.581-3.348,2.386-5.744,6.1-6.143,3.773-.405,6.513,1.132,7.871,4.6,1.326,3.387-.117,6.181-2.818,8.226a22.2,22.2,0,0,1-4.432,2.051A1.973,1.973,0,0,1,859.769,582.92Z" fill="#bbcde5"/>
    <path id="Trazado_675" data-name="Trazado 675" d="M858.586,586.113q.006,3.365.013,6.73c.818.936.3,1.735-.254,2.535a10.565,10.565,0,0,1-2.911,2.094,6.077,6.077,0,0,1-2.157.417,4.358,4.358,0,0,1-2.744-.945,7.231,7.231,0,0,1-5.491-7.266,6.624,6.624,0,0,1,4.433-6.492C853.141,581.859,856.184,583.158,858.586,586.113Z" fill="#bbcde5"/>
    <path id="Trazado_676" data-name="Trazado 676" d="M337.7,630.636l2.1-.764a107.793,107.793,0,0,1-1.626,11.377c-.457,1.874.7,1.247,1.331,1.593a2.558,2.558,0,0,1,1.66,1.917c1.476,3.95,5.5,4.152,8.54,5.8a1.072,1.072,0,0,1-.18,1.247c-1.9,1.878-3.749,1.165-5.624-.086-2.01-1.341-4.059-2.623-6.274-4.048-.7,3.333-1.345,6.361-1.985,9.39-.285-1.128.106-2.448-.954-3.358l.689-6.478c-5.021.509-10.147,5.579-14.459-.424-2.086-2.9-1.266-5.97,1.538-8.329a2.449,2.449,0,0,1,.851,1.093,4.634,4.634,0,0,1,.194,1.442c-.083,2.089-.681,4.742,2.3,5.019,2.647.245,5.775.245,6.265-3.674.342-.659.75-1.179,1.6-.746,1.2.514,2.6,2,2.835-.913C336.764,637.328,337.285,633.986,337.7,630.636Z" fill="#2e303e"/>
    <path id="Trazado_677" data-name="Trazado 677" d="M247.633,650.691c-.747-.353-1.518-.665-2.238-1.067-3.83-2.131-4.9-5.8-2.674-9.071a6,6,0,0,1,8.718-1.4c2.9,2.172,3.052,6.739.28,9.642-.672.7-1.473,1.287-2.215,1.926A1.268,1.268,0,0,1,247.633,650.691Z" fill="#bbcde5"/>
    <path id="Trazado_678" data-name="Trazado 678" d="M274.7,624.71c-2.524-7.721-1.067-15.631-1.046-23.465,0-1.36,1.409-2.95,2.472-2.684,4.2,1.049,8.749-2.137,12.692,1.112a2.868,2.868,0,0,1-1.549,1.771c-2.486.738-3.152,2.655-3.234,4.966-.071,1.978.111,3.971-.1,5.93-.227,2.117.69,5.523-2.474,5.5-2.664-.017-2.061-3.25-2.231-5.276-.166-1.968.03-3.958-.086-5.931-.074-1.239.278-2.675-1.546-3.838-1.336,6.712-.047,13.288-.822,19.739C276.432,623.594,276.211,624.773,274.7,624.71Z" fill="#2e303e"/>
    <path id="Trazado_679" data-name="Trazado 679" d="M289.309,599.67a3.032,3.032,0,0,1,2.86-1.623,56.578,56.578,0,0,0,16.131.056c.378-.041.818.476,1.229.733a2.161,2.161,0,0,1-.93,2.1c-3.473,2.682-2.375,6.551-2.676,10.085-.211,2.471.879,6.683-2.207,6.68-3.7,0-2.184-4.332-2.532-6.874s.407-5.211-1.083-8.366c-1.855,3.671-.778,6.965-1.161,10.071-.251,2.029.411,5.27-2.226,5.315-3.2.054-2.281-3.372-2.5-5.488s0-4.292-.136-6.438c-.135-2.166-.972-3.822-3.22-4.472A2.835,2.835,0,0,1,289.309,599.67Z" fill="#2e303e"/>
    <path id="Trazado_680" data-name="Trazado 680" d="M506.4,667.536l-2.008-1.857c.174-1.456.322-2.916.529-4.367.372-2.615.782-4.915-2.39-6.588-2.777-1.464-3.546-4.521-3.351-7.7.15-2.443.117-4.9.165-7.348l.691-.219a2.451,2.451,0,0,1,.943,1.048c.669,2.014.28,4.207,1.05,6.206.525,1.693.469,3.633,2.255,5,1.4-.912.766-2.667,1.491-3.817.583-.926.752-2.429,2.276-2.119,1.385.282,1.709,1.6,1.471,2.758-.679,3.3,1.3,3.9,3.846,4.043a.963.963,0,0,1-.128,1.248c-.213.431-.354,1.182-.648,1.248C505.348,656.682,506.49,662.411,506.4,667.536Z" fill="#393b48"/>
    <path id="Trazado_681" data-name="Trazado 681" d="M280.567,415.382c1.681-2.77-1.176-4.329-1.795-6.48-.459-1.6-1.489-3.091.242-4.469a5.661,5.661,0,0,1,6.1-.54c2.128.956,2,3.1,1.084,4.718-1.788,3.172-2.112,7.547-6.612,8.672C279.133,416.248,279.737,415.757,280.567,415.382Z" fill="#bbcde5"/>
    <path id="Trazado_682" data-name="Trazado 682" d="M258.736,589.611c1.093.8-.132,2.972,1.9,3.215.908-.2,1.36.047,1.014,1.055-1.015,2.085,1.463,1.854,1.954,2.94.389.8-.13,1.223-.659,1.649-2.261,2.153-1.226,4.28.059,6.4a1.7,1.7,0,0,1,.558,1.769c-2.318,1.068-3.791,2.479-2.105,5.174-.878,1.253.289,2.972-.944,4.144-1.245-3.241-.116-7.745-4.863-9.123,2.6-3,2.163-5.993-.017-8.983.367-1.522.561-3-1-4.052-.163-.922.085-1.4,1.12-1.043l1.581,1C259.058,592.792,257.348,590.681,258.736,589.611Z" fill="#353644"/>
    <path id="Trazado_683" data-name="Trazado 683" d="M280.567,415.382l-.978,1.9c-1.412.827-2.774,1.761-4.25,2.453-1.7.8-3.6,1.343-4.817-.7a5.434,5.434,0,0,1,.011-6.087c1.38-2.06,3.129-1.242,4.8-.371C277.086,413.5,278.823,414.446,280.567,415.382Z" fill="#bbcde5"/>
    <path id="Trazado_684" data-name="Trazado 684" d="M388.168,606.774c2.23,1.725,3.509-.6,5.138-1.269,1.9-.776,3.856-1.694,5.309.383a4.852,4.852,0,0,1-.175,5.589c-1.376,2.113-3.187,1.188-4.772.3-2.518-1.415-5.7-1.939-7.05-5A.96.96,0,0,1,388.168,606.774Z" fill="#bbcde5"/>
    <path id="Trazado_685" data-name="Trazado 685" d="M484.467,651.465c-.481-1.04-.973-2.075-1.441-3.12a3.763,3.763,0,0,1,1.962-5.355,4.052,4.052,0,0,1,5.583,1.66c1.359,2.241.565,4.141-1.407,5.554a19.89,19.89,0,0,1-3.094,1.513C485.442,652.228,484.889,652.261,484.467,651.465Z" fill="#bbcde5"/>
    <path id="Trazado_686" data-name="Trazado 686" d="M388.168,606.774h-1.551c-.775-1.439-1.575-2.864-2.32-4.318-.838-1.637-1.774-3.495.106-4.857a4.98,4.98,0,0,1,5.976-.006c1.882,1.364.938,3.224.107,4.86C389.745,603.909,388.943,605.335,388.168,606.774Z" fill="#bbcde5"/>
    <path id="Trazado_687" data-name="Trazado 687" d="M831.208,626.8l-.391-.1c-4.983.352-9.936,1.009-14.886,1.636-2.174.276-4.19.534-6.1-.758-.633-1.368-3.738-2.008-1.276-4.3,3.435,1.31,6.907.116,10.364.119,2.841.053,5.527-1.2,8.384-1,1.8.116,3.674-.526,5.4.466C833.725,624.747,832.659,625.845,831.208,626.8Z" fill="#eeeeef"/>
    <path id="Trazado_688" data-name="Trazado 688" d="M308.2,599.976l1.324-1.14c2.425.7,2,2.7,2,4.461.022,4.96-.175,9.929.066,14.877a14.931,14.931,0,0,1-3.189,10.519c-1.16.056-1.416-.769-1.618-1.65C309.115,618.119,307.569,608.991,308.2,599.976Z" fill="#353645"/>
    <path id="Trazado_689" data-name="Trazado 689" d="M826.489,662.661c-.463,4.631-3.3,5.222-7.4,5.076-8.731-.31-17.481-.064-26.223-.046.029-.295.07-.588.125-.879,9.413-.01,18.827-.15,28.235.041,3.154.065,4.053-.832,3.513-3.906s-.627-6.216-.912-9.329c.885-1.332-.389-3.171,1.029-4.379Q825.673,655.95,826.489,662.661Z" fill="#3b3d4a"/>
    <path id="Trazado_690" data-name="Trazado 690" d="M851.661,634.855q-.471-1.063-.941-2.125,1.895-10.923,3.787-21.844c.523-.524,1.2-1.576,1.542-1.477,1.063.3.343,1.527.72,2.274C854.72,619.33,854.8,627.447,851.661,634.855Z" fill="#333543"/>
    <path id="Trazado_691" data-name="Trazado 691" d="M503.2,635.864l2.882-.206c.738-.533,1.131-1.818,2.435-1.115.362-1.2.725-2.409,1.119-3.72,1.949.164.872,6.321,4.43,1.869,1.369,2.333-1.363,2.441-1.453,3.83,1.231,1.306,3.045.774,4.537,1.319-.154,2.011-1.819,1.814-3.126,2.152-3.684.129-7.345.1-10.671-1.851A1.588,1.588,0,0,1,503.2,635.864Z" fill="#363845"/>
    <path id="Trazado_692" data-name="Trazado 692" d="M841.065,554.939a1.122,1.122,0,0,1-1.137,1.083c-2.452-2.4-2.077-5.242-1.279-8.151l-.078.1c3.122-2.942,5.17.079,7.534,1.354,1.788,1.113,2.616,2.35.514,3.964A12.1,12.1,0,0,1,841.065,554.939Z" fill="#dcdddf"/>
    <path id="Trazado_693" data-name="Trazado 693" d="M871.7,652.112c-.251-1.163.139-2.514-1.007-3.414.911-3.041-2.152-3.82-3.258-5.714-.446-.82-.02-1.282.668-1.637,1.5,0,2.27-.932,3.013-2.115.756-1.2,2.329-1.385,2.748-.122,1.023,3.089,3.35.867,4.9,1.549a1.3,1.3,0,0,1-.114,1.314c.12.88-.046,1.915-.883,2.091C873.341,644.994,872.256,648.327,871.7,652.112Z" fill="#3a3c49"/>
    <path id="Trazado_694" data-name="Trazado 694" d="M450.432,593.551c1.111.383-.28,3.013,2.061,2.291.941-.055,1.4.242.909,1.237-1.1,3.321-1.98,6.608-.061,9.988.762,1.342-.492,2.443-.886,3.64a.674.674,0,0,1-1.035.066,31.218,31.218,0,0,1-1.935-15.012C450.013,595.116,449.513,594.03,450.432,593.551Z" fill="#333443"/>
    <path id="Trazado_695" data-name="Trazado 695" d="M256.637,567.851c-2.4-.048-3.072,2.559-5,3.232-1.264-2.779,3.177-4.046,1.819-6.85a6.325,6.325,0,0,1,.025-3.4c.437-2.151.394-2.053,2.294-1.224,1.325.579.921-2.15,2.573-1.463,1.019,3.015-2.833,5.649-.869,8.784A1.457,1.457,0,0,1,256.637,567.851Z" fill="#323442"/>
    <path id="Trazado_696" data-name="Trazado 696" d="M267.471,663.677c-.509,4.485-3.2,5.7-7.3,4.96-2.823-.511-5.883,1.006-8.543-.98,3.63-.008,7.266-.151,10.887.02,2.534.119,3.588-.517,3.157-3.276-.505-3.238-.626-6.536-.914-9.807.945-1.25-.344-3.049,1.033-4.192A62.975,62.975,0,0,1,267.471,663.677Z" fill="#484a56"/>
    <path id="Trazado_697" data-name="Trazado 697" d="M809.662,626.754c5.628,2.136,11.159-.473,16.739-.593a20.864,20.864,0,0,1,4.416.533c-.314.314-.665.932-.938.9-6.271-.752-7.711,2.726-7.13,8.021l-.438.4-.5-.321c-.668-3.318.333-8.033-5.73-6.84a8.617,8.617,0,0,1-5.516-.087c-.807-.021-1.8.275-1.85-1.058A1.656,1.656,0,0,1,809.662,626.754Z" fill="#3a3b49"/>
    <path id="Trazado_698" data-name="Trazado 698" d="M807.715,438.193c-3.572-.6-3.75-3.868-4.317-6.291-.421-1.8,1.68-2.59,3.481-2.325,1.741.257,3.3,1.04,2.745,3.205-.485,1.874-1.309,3.66-1.983,5.485Z" fill="#bbcde5"/>
    <path id="Trazado_699" data-name="Trazado 699" d="M807.641,438.267c1.515-.581,3.02-1.192,4.549-1.735,1.272-.452,2.6-.771,3.465.691.891,1.505,1.141,3.059-.061,4.564-1.086,1.361-2.467.972-3.5.21-1.547-1.14-4.521-.73-4.378-3.8Z" fill="#bbcde5"/>
    <path id="Trazado_700" data-name="Trazado 700" d="M289.309,599.67l1.283,1.182c1.74,4.985.344,9.986.014,14.973-.062.937-.657,2.018-1.887,1.863a2.356,2.356,0,0,1-2.01-1.952c-.729-4.984-1.809-10.012.817-14.819l1.292-1.244A.48.48,0,0,1,289.309,599.67Z" fill="#292b39"/>
    <path id="Trazado_701" data-name="Trazado 701" d="M824.855,649.239c-.409,1.445.255,3.14-1.029,4.379l-1.215-9.8a2.612,2.612,0,0,1-1.54-2.674,2.022,2.022,0,0,1,.7-1.064c.962-1.309-.194-3.026.828-4.325l.147-.136c1.835.778.5,2.81,1.547,3.9a1.774,1.774,0,0,1,1.972.312c1.055.951,2.419,1.657,2.643,3.278-.531,1.165-1.344,1.248-2.344.608C822.233,644.393,826.139,647.618,824.855,649.239Z" fill="#3a3b49"/>
    <path id="Trazado_702" data-name="Trazado 702" d="M474.109,655.678c-2.121-.471-3.692-1.5-3.789-3.9a2.783,2.783,0,0,1,1.732-2.78,3.338,3.338,0,0,1,4.052.889c1.629,1.718.893,3.318-.143,4.932A2.389,2.389,0,0,1,474.109,655.678Z" fill="#bbcde5"/>
    <path id="Trazado_703" data-name="Trazado 703" d="M340.473,644.512l-.975-1.67c2.011-.657,4-1.418,6.04-1.944,2.521-.649,4.942-.359,6.661,1.84,1.743,2.228,2.211,4.634.349,7.1a2.489,2.489,0,0,1-1.677-1.232c-.973-3.906-3.273-5.314-7.192-3.943C342.659,645.015,341.5,645.405,340.473,644.512Z" fill="#373846"/>
    <path id="Trazado_704" data-name="Trazado 704" d="M250.632,571.875c.4,1.28-.5,1.978-1.1,2.952-2.975,4.841-2.2,9.487,1.168,13.857.365.946.042,1.3-.939,1.091C243.993,583.781,244.418,575,250.632,571.875Z" fill="#3f414e"/>
    <path id="Trazado_705" data-name="Trazado 705" d="M808.791,618.78c5.372-3.65,11.769-1.62,17.523-3.154a9.928,9.928,0,0,1,5.621,0,.564.564,0,0,1,.678.2c.126,1.007-.524,1.456-1.3,1.817-6.915.946-13.81,2.065-20.778,2.63A1.957,1.957,0,0,1,808.791,618.78Z" fill="#393b48"/>
    <path id="Trazado_706" data-name="Trazado 706" d="M455.131,632.99l-2.9-8.306-.1.1c1.436-.065,1.033-1.286,1.311-2.079.579-.626.073-1.732.979-2.213l1.266,2.787c.888-1.287.592-3.178,2.769-3.349-.157,3.792-3.009,6.977-2.361,10.838C455.564,631.419,456.078,632.519,455.131,632.99Z" fill="#353744"/>
    <path id="Trazado_707" data-name="Trazado 707" d="M372.381,649.8c-1.968-.38-3.094.109-2.936,2.436.146,2.157.031,4.331.031,7.486-2.508-2.2-3.722-3.734-4.177-5.818a1,1,0,0,1,.2-1.5c2.492,1.835,1.961-.377,2.232-1.631.6-2.777,1.67-4.684,4.772-2.275A.835.835,0,0,1,372.381,649.8Z" fill="#383a47"/>
    <path id="Trazado_708" data-name="Trazado 708" d="M255.637,597.85c3.706-.55,2.734,2.347,2.936,4.169.248,2.23.6,4.758-2.919,4.814l-.087-1.239c-2.576-2.65-2.295-5.262.1-7.846Z" fill="#eaebec"/>
    <path id="Trazado_709" data-name="Trazado 709" d="M818.753,644.889c-2.437,2.421-5.1,4.5-8.258,1.362-2.4-2.386-2.765-5.124.322-7.492.945-.309,1.2.339,1.423,1.023-.975,6.713,3.939,3.39,6.622,3.873A1.011,1.011,0,0,1,818.753,644.889Z" fill="#393b48"/>
    <path id="Trazado_710" data-name="Trazado 710" d="M372.381,649.8l.12-1.3c2.737.775,1.9,3.08,1.983,4.882.126,2.66,1.24.678,1.976.508.492.161,1.059.219,1.189.873-1.111,1.581-2.221,3.163-3.89,5.54C372.333,656.4,372.937,652.993,372.381,649.8Z" fill="#3f414e"/>
    <path id="Trazado_711" data-name="Trazado 711" d="M846.654,553.03c1.955-1.791-.07-2.365-1-3.273-.074-.845.022-1.477,1.1-.887l.923-.942c.263-.584.531-1.162,1.267-1.278,1.266.23,1.928,1.482,3.123,1.841.524.325,1.047.656.5,1.369-.739,3.153-3.142,3.933-5.937,4.154q-.363-.337-.23-.662C846.485,553.138,846.571,553.03,846.654,553.03Z" fill="#393b48"/>
    <path id="Trazado_712" data-name="Trazado 712" d="M262.808,624.454a61.639,61.639,0,0,1,1.675,13.3c-.957,1.244.333,3.042-1.034,4.184a62.02,62.02,0,0,1-1.683-13.278C262.7,627.4,261.4,625.595,262.808,624.454Z" fill="#4a4c58"/>
    <path id="Trazado_713" data-name="Trazado 713" d="M247.633,650.691l1.872.032,1,10.954c-1.362,1.14-.4,2.83-.985,4.155C248.5,660.834,247.4,655.846,247.633,650.691Z" fill="#464754"/>
    <path id="Trazado_714" data-name="Trazado 714" d="M274.7,624.71l.992-2.174a27.349,27.349,0,0,1,7.136,10.044l-1.207,1.057A14.371,14.371,0,0,1,274.7,624.71Z" fill="#383a47"/>
    <path id="Trazado_715" data-name="Trazado 715" d="M333.66,641.6l-1.17,1.1c-3.457-.365-6.652-1.645-9.878-2.819l-.163-1.417C327.246,635.729,330.38,638.928,333.66,641.6Z" fill="#40414e"/>
    <path id="Trazado_716" data-name="Trazado 716" d="M513.838,638.879c1.121-.284,2.44.058,3.307-1.038a4.393,4.393,0,0,1,4.112,1.364,19.486,19.486,0,0,0-4.945,7.7,2.954,2.954,0,0,1-1.435-3.6C515.978,640.521,515.986,640.524,513.838,638.879Z" fill="#3d3f4c"/>
    <path id="Trazado_717" data-name="Trazado 717" d="M857.48,594.9l1.119-2.054c1.489.553.787,1.964,1.16,2.954q-.577,3.5-1.156,7.011l-1.631,2.037-.615-3a3.753,3.753,0,0,1-.544-2.868A30.473,30.473,0,0,1,857.48,594.9Z" fill="#353949"/>
    <path id="Trazado_718" data-name="Trazado 718" d="M263.566,606.638l-1.117-.965a40.609,40.609,0,0,0-.022-7.749l1.181-1.1C267.245,600.769,267.236,602.994,263.566,606.638Z" fill="#585965"/>
    <path id="Trazado_719" data-name="Trazado 719" d="M868.415,641.7l-.976,1.289c-3.062-3.776-2.473-7.127,1.18-10.122a1.55,1.55,0,0,1,1.311,1.34C868.872,636.585,869.216,639.256,868.415,641.7Z" fill="#3e404d"/>
    <path id="Trazado_720" data-name="Trazado 720" d="M458.412,647.459c1.263,3.3,1.284,6.812,1.683,10.258-.724.907.174,2.3-.921,3.094-1.291-3.29-1.265-6.8-1.687-10.23C458.181,649.654,457.278,648.255,458.412,647.459Z" fill="#494b57"/>
    <path id="Trazado_721" data-name="Trazado 721" d="M852.577,539.128c4.815,1.6,5.186,3.14,1.872,7.768-.889.165-1.211-.39-1.411-1.1.686-2.585-1.546-3.748-2.672-5.453C850.677,539.16,851.92,539.679,852.577,539.128Z" fill="#303140"/>
    <path id="Trazado_722" data-name="Trazado 722" d="M265.8,585.855a16.44,16.44,0,0,0,.628-7.712c-.425-1.087.1-1.361,1.073-1.25,1.526,3.485,1.6,6.843-.875,9.978A1.431,1.431,0,0,1,265.8,585.855Z" fill="#232534"/>
    <path id="Trazado_723" data-name="Trazado 723" d="M453.392,613.545c3.9.13,1.434-5.133,5.036-5.606a18.211,18.211,0,0,1-3.01,8.057c-2.605,1.733-2.777,1.7-3.421-.591l-.118.141C453.156,615.462,452.56,613.965,453.392,613.545Z" fill="#343644"/>
    <path id="Trazado_724" data-name="Trazado 724" d="M452,615.405c.735,2.54,2.485-.786,3.421.591l-1,4.5-.979,2.213a11.721,11.721,0,0,0-2.618-6.023C449.745,615.364,450.192,614.548,452,615.405Z" fill="#2c2e3c"/>
    <path id="Trazado_725" data-name="Trazado 725" d="M262.808,624.454c-.666,1.323.37,3.067-1.042,4.205l-1.009-9.934c.61-.657.067-1.824,1.03-2.325C262.964,618.979,262.571,621.756,262.808,624.454Z" fill="#222433"/>
    <path id="Trazado_726" data-name="Trazado 726" d="M255.671,597.748a11.857,11.857,0,0,0-.1,7.846c-2.853.312-2.687-2.077-2.72-3.583C252.808,600.218,252.77,597.85,255.671,597.748Z" fill="#454653"/>
    <path id="Trazado_727" data-name="Trazado 727" d="M263.449,641.937c.654-1.318-.389-3.055,1.034-4.184l.95,8.951c-.74.969.2,2.431-.962,3.276C263.29,647.405,263.664,644.634,263.449,641.937Z" fill="#222433"/>
    <path id="Trazado_728" data-name="Trazado 728" d="M834.712,636.54c4.23,2.6,4.227,5.2-.009,8.387a2.086,2.086,0,0,1-.7-1.152,34.342,34.342,0,0,0,.006-6.084A2.033,2.033,0,0,1,834.712,636.54Z" fill="#434551"/>
    <path id="Trazado_729" data-name="Trazado 729" d="M878.656,641.973q-.126-.785-.254-1.569a11.071,11.071,0,0,1-2.1-6.7,1.772,1.772,0,0,1,1.208-.692C880.382,635.683,882.163,638.489,878.656,641.973Z" fill="#2d2f3d"/>
    <path id="Trazado_730" data-name="Trazado 730" d="M267.5,576.893l-1.073,1.25q-2.484-3.1-4.967-6.209a1.417,1.417,0,0,1,1.183-1.136A9.182,9.182,0,0,1,267.5,576.893Z" fill="#434552"/>
    <path id="Trazado_731" data-name="Trazado 731" d="M515.378,644.707l.934,2.193c.127,2.817-.433,5.33-3.073,6.92q-.069-.666-.137-1.332C512.047,649.365,513.268,646.906,515.378,644.707Z" fill="#222433"/>
    <path id="Trazado_732" data-name="Trazado 732" d="M375.658,665.707q1.906-3.523,3.812-7.049c.949-.111,1.577.06,1.081,1.224a25.007,25.007,0,0,1-3.993,6.949Z" fill="#494b57"/>
    <path id="Trazado_733" data-name="Trazado 733" d="M503.2,635.864v1.687a3.885,3.885,0,0,1-2.762,1.882l-1.09.24-2.093-3.745A11.235,11.235,0,0,1,503.2,635.864Z" fill="#2d2e3d"/>
    <path id="Trazado_734" data-name="Trazado 734" d="M834.557,643.472q.074.727.146,1.455c-3.065,1.961-5.538-.045-8.136-1.212l2.057-.852A5.509,5.509,0,0,1,834.557,643.472Z" fill="#474955"/>
    <path id="Trazado_735" data-name="Trazado 735" d="M462.4,611.81A13.052,13.052,0,0,1,459,618.734a8.868,8.868,0,0,1,2.244-6.978A.764.764,0,0,1,462.4,611.81Z" fill="#4e4f5b"/>
    <path id="Trazado_736" data-name="Trazado 736" d="M459.174,660.811c.411-1-.1-2.276.921-3.094l1.032,7.924-1.835,1.978C460.073,665.336,458.884,663.086,459.174,660.811Z" fill="#242635"/>
    <path id="Trazado_737" data-name="Trazado 737" d="M877.508,633.016l-1.137.776a9.425,9.425,0,0,1-6.63.005l-1.122-.935C871.624,630.463,874.586,630.612,877.508,633.016Z" fill="#242635"/>
    <path id="Trazado_738" data-name="Trazado 738" d="M848.73,546.666l-1.052,1.262c-1.207-2.646-2.467-5.293-.068-7.97.874-.48,1.229.1,1.556.752C849.329,542.716,850.19,544.777,848.73,546.666Z" fill="#3e404d"/>
    <path id="Trazado_739" data-name="Trazado 739" d="M846.755,548.87l-1.1.887c-2.238-1.075-4.229-3.133-7.08-1.786C841.919,542.634,844.1,547.922,846.755,548.87Z" fill="#3f414e"/>
    <path id="Trazado_740" data-name="Trazado 740" d="M307.415,627.463l.994,1.23a9.045,9.045,0,0,1-4.851,5.033l-1.175-1.1C302.709,629.588,304.481,627.96,307.415,627.463Z" fill="#3c3e4b"/>
    <path id="Trazado_741" data-name="Trazado 741" d="M262.646,570.8l-1.183,1.136c-1.728-1.22-3.631-2.234-4.826-4.083l.841-.922A12.835,12.835,0,0,1,262.646,570.8Z" fill="#474854"/>
    <path id="Trazado_742" data-name="Trazado 742" d="M458.412,647.459q-.463,1.562-.925,3.122l-1.041-7.918c.3-.451.364-1.08.988-1.278C458.544,643.283,458.26,645.406,458.412,647.459Z" fill="#252736"/>
    <path id="Trazado_743" data-name="Trazado 743" d="M484.467,651.465l1.6.252c-.354,2.877-.936,5.676-2.765,8.046-.584-.132-.641-.711-.93-1.093Z" fill="#3a3c49"/>
    <path id="Trazado_744" data-name="Trazado 744" d="M261.654,593.881l-1.014-1.055a16.029,16.029,0,0,1,3.96-5.023,1.224,1.224,0,0,1,1.047,1.041A13.966,13.966,0,0,1,261.654,593.881Z" fill="#474955"/>
    <path id="Trazado_745" data-name="Trazado 745" d="M447.356,618.687c-2.843-.669-3.847-3-4.658-5.491,2.217,1.255,4.4,2.542,4.559,5.587Z" fill="#454653"/>
    <path id="Trazado_746" data-name="Trazado 746" d="M457.434,641.385l-.988,1.278-1.011-6.98c.3-.431.368-1.044.974-1.232C457.547,636.645,457.365,639.033,457.434,641.385Z" fill="#242635"/>
    <path id="Trazado_747" data-name="Trazado 747" d="M447.257,618.783c2.777,1.065,4.578,2.922,4.872,6l.1-.1a7.223,7.223,0,0,1-4.877-6Z" fill="#454753"/>
    <path id="Trazado_748" data-name="Trazado 748" d="M253.48,560.832c1.776,1.147.265,2.27-.025,3.4-.639-.9-1.316-1.768-1.9-2.7-.489-.769-1.414-1.866-.319-2.465C252.74,558.246,252.378,560.642,253.48,560.832Z" fill="#40424f"/>
    <path id="Trazado_749" data-name="Trazado 749" d="M456.266,600.786c.133,2.194-.477,3.973-3.152,5.417.2-2.55.683-4.227,2.429-5.382l.346-.341Z" fill="#5d5f6a"/>
    <path id="Trazado_750" data-name="Trazado 750" d="M482.365,667.554l-4.207.019c-.386-2.815,1.966-2.367,3.481-2.916l.418-.1Z" fill="#434552"/>
    <path id="Trazado_751" data-name="Trazado 751" d="M249.764,589.775l.939-1.091,5.057,4.071-1.12,1.043A13.561,13.561,0,0,1,249.764,589.775Z" fill="#40414e"/>
    <path id="Trazado_752" data-name="Trazado 752" d="M361.6,652.878c-.524,1.731.508,3.185.851,4.761.594,1.005-.015,1.05-.778.972-1.6-2.259-2.952-4.526-.229-6.928Q362.264,652.184,361.6,652.878Z" fill="#222433"/>
    <path id="Trazado_753" data-name="Trazado 753" d="M450.432,593.551q-.474,1.105-.947,2.21c-.074-2.337-1.477-4.6-.485-7.628C450.716,590.036,450.355,591.854,450.432,593.551Z" fill="#242635"/>
    <path id="Trazado_754" data-name="Trazado 754" d="M834.712,636.54q-.059.66-.115,1.32a9.912,9.912,0,0,1-5.3.389c-.627-.379-1.118-.818-.706-1.642C830.618,635.453,832.646,634.226,834.712,636.54Z" fill="#222433"/>
    <path id="Trazado_755" data-name="Trazado 755" d="M828.59,636.607l1.152,1.148c-.334,2.392-1.92,3.073-4.075,2.978l-1.371-1.216C825.852,638.731,826.4,636.457,828.59,636.607Z" fill="#454753"/>
    <path id="Trazado_756" data-name="Trazado 756" d="M380.551,659.882l-1.081-1.224c.549-1.331,1.043-2.658-.273-3.857.105-.676.726-.766,1.184-1.039C383.157,655.727,382.208,657.795,380.551,659.882Z" fill="#5c5e69"/>
    <path id="Trazado_757" data-name="Trazado 757" d="M361.67,658.611l.778-.972c.871,1.858,3.778,3.107,1.746,5.832Q362.932,661.041,361.67,658.611Z" fill="#242635"/>
    <path id="Trazado_758" data-name="Trazado 758" d="M809.662,626.754l-.945.952a5.382,5.382,0,0,1-1.879-5.936.811.811,0,0,1,.949-.359,2.839,2.839,0,0,1,1.18,1.2.885.885,0,0,1-.3.983C806.947,625.288,810.027,625.481,809.662,626.754Z" fill="#232534"/>
    <path id="Trazado_759" data-name="Trazado 759" d="M811.687,639.741l-.87-.982c1.833-2.16,3.877-1.836,6.006-.509a1.155,1.155,0,0,1,.319.851q-.032.468-.123.467A5.658,5.658,0,0,1,811.687,639.741Z" fill="#3e3f4d"/>
    <path id="Trazado_760" data-name="Trazado 760" d="M831.208,626.8c.1-1.506,2.334-2.244,1.483-4.095q.191-.187.38-.376a1.866,1.866,0,0,1,1.549.029,6.046,6.046,0,0,1,.858,1.324C834.853,625.81,833.548,627.011,831.208,626.8Z" fill="#4d4f5b"/>
    <path id="Trazado_761" data-name="Trazado 761" d="M458.606,607.147c-.682-2.342.7-3.463,1.484-5.8C461.55,604.476,460.445,605.693,458.606,607.147Z" fill="#464854"/>
    <path id="Trazado_762" data-name="Trazado 762" d="M445.349,608.609c-2.607-.061-3.225-1.957-4.354-4.612,2.871,1.107,4.108,2.436,4.241,4.726Z" fill="#494a57"/>
    <path id="Trazado_763" data-name="Trazado 763" d="M846.654,553.03a3.77,3.77,0,0,1-.026.984c-1.742.983-3.322,2.935-5.563.925A9.253,9.253,0,0,1,846.654,553.03Z" fill="#4f515d"/>
    <path id="Trazado_764" data-name="Trazado 764" d="M456.266,600.786l-.368-.119-.355.154a5.7,5.7,0,0,1,2.414-5.193C458.58,597.941,457.579,599.412,456.266,600.786Z" fill="#333543"/>
    <path id="Trazado_765" data-name="Trazado 765" d="M474.109,655.678l1.852-.861,1.14,3.887c-.239.484-.331,1.1-1.038,1.169Z" fill="#525666"/>
    <path id="Trazado_766" data-name="Trazado 766" d="M482.057,664.56l-.418.1c-.97-2.145.984-3.931.736-5.987l.93,1.093C483.037,661.4,484.023,663.364,482.057,664.56Z" fill="#242635"/>
    <path id="Trazado_767" data-name="Trazado 767" d="M838.649,547.871a25.529,25.529,0,0,0,1.278,8.151C835.766,553.89,836.741,550.954,838.649,547.871Z" fill="#343644"/>
    <path id="Trazado_768" data-name="Trazado 768" d="M445.236,608.723c2.265.751,3.412,2.388,4.487,5.821-2.6-2.262-4.508-3.33-4.374-5.933Z" fill="#323442"/>
    <path id="Trazado_769" data-name="Trazado 769" d="M831.387,616.9l1.226-1.072a3.72,3.72,0,0,1,2.85,2.983c-.289.506-.475,1.1-1.143,1.271a3.108,3.108,0,0,1-2.14-1A2.418,2.418,0,0,1,831.387,616.9Z" fill="#4b4d59"/>
    <path id="Trazado_770" data-name="Trazado 770" d="M264.471,649.98c.2-1.127-.082-2.4.962-3.276q.177,1.85.355,3.7c-.652,1.322.374,3.056-1.033,4.192Z" fill="#222433"/>
    <path id="Trazado_771" data-name="Trazado 771" d="M859.769,582.92c.806-.073,1.611-.142,2.077.737q-.148,1.6-.3,3.2-1.055-.4-2.111-.8Q859.6,584.491,859.769,582.92Z" fill="#40424f"/>
    <path id="Trazado_772" data-name="Trazado 772" d="M453.4,597.079l-.909-1.237c.512-1.492.774-3.137,2.557-4.322C455.669,594,454.366,595.488,453.4,597.079Z" fill="#343643"/>
    <path id="Trazado_773" data-name="Trazado 773" d="M818.753,644.89q-.047-.6-.094-1.2a5.327,5.327,0,0,1,1.86-3.235.96.96,0,0,1,1.128.237l.964,3.116Z" fill="#424451"/>
    <path id="Trazado_774" data-name="Trazado 774" d="M444.024,599.148c2.446,1.882,3.868,3.041,4.554,6.434C446.258,603.517,444.8,602.455,444.024,599.148Z" fill="#333543"/>
    <path id="Trazado_775" data-name="Trazado 775" d="M850.533,596.944l3.034.055c.318,1.647-1.241,1.183-1.923,1.7l-4-.086Z" fill="#eef1f7"/>
    <path id="Trazado_776" data-name="Trazado 776" d="M821.647,640.7l-1.338.174q-2.538,1.441-3.643-1.258.078-.681.157-1.363l4.81,1.371q.414.336.291.689t-.258.358Z" fill="#3a3b49"/>
    <path id="Trazado_777" data-name="Trazado 777" d="M447.238,596.932c-1.868-.87-2.993-1.646-2.9-4.137C446.071,593.819,447.316,594.5,447.238,596.932Z" fill="#4a4b57"/>
    <path id="Trazado_778" data-name="Trazado 778" d="M508.512,634.543l-2.435,1.115-1.143-3.867C507.173,631.74,507.471,633.652,508.512,634.543Z" fill="#454754"/>
    <path id="Trazado_779" data-name="Trazado 779" d="M453.392,613.545c-.181.91-.3,1.864-1.511,2,.861-1.689-1.1-3.106-.461-4.773l1.035-.066C453.8,611.311,453.4,612.492,453.392,613.545Z" fill="#2c2e3c"/>
    <path id="Trazado_780" data-name="Trazado 780" d="M261.787,616.4l-1.03,2.325-.24-2.769c.461-1.348-.343-2.984.944-4.144Z" fill="#222433"/>
    <path id="Trazado_781" data-name="Trazado 781" d="M462.4,611.81l-1.162-.054a6.429,6.429,0,0,1,1.648-4.021A2.785,2.785,0,0,1,462.4,611.81Z" fill="#444552"/>
    <path id="Trazado_782" data-name="Trazado 782" d="M476.063,659.873,477.1,658.7c-.036,1.058,2.144,2.228.2,3.051C476.019,662.3,476.414,660.582,476.063,659.873Z" fill="#232534"/>
    <path id="Trazado_783" data-name="Trazado 783" d="M807.768,621.757l-.464.032-.466-.019a2.981,2.981,0,0,1,1.953-2.99l.858.836C810.184,621.348,809.313,621.848,807.768,621.757Z" fill="#424350"/>
    <path id="Trazado_784" data-name="Trazado 784" d="M380.381,653.762,379.2,654.8l-1.548-.041-1.189-.873C377.727,652.584,379.039,652.688,380.381,653.762Z" fill="#3f414e"/>
    <path id="Trazado_785" data-name="Trazado 785" d="M853.608,545.964l.841.932a4.175,4.175,0,0,1-1.884,2.964l-.831-.906C851.132,547.19,851.406,545.974,853.608,545.964Z" fill="#4a4b58"/>
    <path id="Trazado_786" data-name="Trazado 786" d="M848.57,540.586l-.96-.628c1.371-1.975,3.249-.926,4.967-.83l-2.229.988C849.864,540.684,849.589,542.038,848.57,540.586Z" fill="#2c2e3c"/>
    <path id="Trazado_787" data-name="Trazado 787" d="M834.49,619.914l.973-1.1a5.77,5.77,0,0,1,.015,4.868l-.97-1.1A1.942,1.942,0,0,1,834.49,619.914Z" fill="#222433"/>
    <path id="Trazado_788" data-name="Trazado 788" d="M361.6,652.878l-.156-1.2c1.393,0,2.961-.967,4.056.72l-.2,1.5A4.6,4.6,0,0,0,361.6,652.878Z" fill="#555762"/>
    <path id="Trazado_789" data-name="Trazado 789" d="M821.666,640.668l-.033-1.047.18-3.93c.264.01.527.029.789.059C822.437,637.417,823.361,639.291,821.666,640.668Z" fill="#464753"/>
    <path id="Trazado_790" data-name="Trazado 790" d="M351.57,648.681l.978,1.152c-.4,1.585-1.585,1.981-3.03,1.969l-.042-1.054A2.266,2.266,0,0,1,351.57,648.681Z" fill="#242635"/>
    <path id="Trazado_791" data-name="Trazado 791" d="M831.935,615.628l-5.62,0C828.188,614.88,830.062,614.335,831.935,615.628Z" fill="#484a56"/>
    <path id="Trazado_792" data-name="Trazado 792" d="M265.647,588.844,264.6,587.8l1.2-1.948.826,1.016Z" fill="#222433"/>
    <path id="Trazado_793" data-name="Trazado 793" d="M456.409,634.451l-.974,1.232q-.151-1.347-.3-2.693l.959-2.223Q456.25,632.609,456.409,634.451Z" fill="#242635"/>
    <path id="Trazado_794" data-name="Trazado 794" d="M810.567,628.764l5.514.087C814.232,629.634,812.386,630.046,810.567,628.764Z" fill="#444653"/>
    <path id="Trazado_795" data-name="Trazado 795" d="M422.849,376.4c31.261,0,62.522.073,93.782-.1,3.759-.021,4.607.933,4.6,4.632q-.19,88.71-.008,177.42c.006,3.577-.654,4.716-4.533,4.708q-94.032-.211-188.064-.017c-3.524.007-4.353-.923-4.346-4.385q.168-88.959-.03-177.919c-.011-4.069,1.435-4.424,4.818-4.411C360.327,376.447,391.588,376.4,422.849,376.4Z" fill="#fefefe"/>
    <path id="Trazado_796" data-name="Trazado 796" d="M422.44,374.394c-31.1,0-62.206-.076-93.308.1-3.915.022-5.167-.968-4.855-4.881a103.893,103.893,0,0,0,.023-13.45c-.149-2.941.966-3.746,3.726-3.562,3.146.21,6.317.048,9.477.048,59.378,0,118.756.062,178.133-.118,4.694-.014,6.012,1.319,5.581,5.756a56.161,56.161,0,0,0,.011,11.449c.456,4.184-1.324,4.754-4.981,4.738C484.978,374.338,453.709,374.394,422.44,374.394Z" fill="#fefefe"/>
    <path id="Trazado_797" data-name="Trazado 797" d="M307.415,627.463l-5.032,5.161c-6.526,3.633-13.044,3.545-19.555-.044a26.988,26.988,0,0,1-7.136-10.044q-.114-9.17-.233-18.338c-.027-1.912.08-4.006,2.516-4.011,2.355-.006,2.559,1.984,2.655,3.953.218,4.46-.666,9.008,1.009,13.4,1.675-4.325.783-8.826,1.012-13.232.174-3.345,1.178-5.228,4.875-3.391v16.5l1.876.032c1.531-5.41-.222-11.173,1.19-16.6,3.929-1.873,4.7.567,4.765,3.622a126.132,126.132,0,0,0,.578,13.072c2.384-2.505,1.246-5.488,1.5-8.235a55.275,55.275,0,0,0,.079-5.957c-.026-1.7.57-3.112,2.354-3.167,2.067-.063,2.725,1.43,2.7,3.344-.033,3.311-.055,6.625.054,9.933.045,1.363-.63,2.965,2.039,4.928,0-5.071.033-9.312-.012-13.553-.028-2.547.357-4.705,3.551-4.863.766.844,1.659,1.638,1.618,2.907C309.556,611.129,311.316,619.573,307.415,627.463Z" fill="#fdfdfd"/>
    <path id="Trazado_798" data-name="Trazado 798" d="M329.163,618.717c7.537,1.106,15.076,2.18,22.6,3.35,1.06.164,2.532.483,2.076,2.124-.315,1.132-1.389,1.2-2.466,1.036q-11.291-1.735-22.588-3.427c-1.2-.182-2.453-.447-2.091-2.059C326.988,618.436,328.22,618.788,329.163,618.717Z" fill="#f5f4fe"/>
    <path id="Trazado_799" data-name="Trazado 799" d="M851.644,598.7,853.567,597l1.857-.339c1.85-.015,1.835.976,1.232,2.283q-.148,1.45-.3,2.9C854.284,601.55,853.492,599.336,851.644,598.7Z" fill="#fefefe"/>
    <path id="Trazado_800" data-name="Trazado 800" d="M258.736,589.611c-.5,1.368.484,3.236-1.395,4.14.671-3.927-1.5-7.812-.278-12.634C259.143,584.241,258.545,587.007,258.736,589.611Z" fill="#222433"/>
    <path id="Trazado_801" data-name="Trazado 801" d="M856.656,598.942a2.7,2.7,0,0,0-1.232-2.282q1.027-.883,2.056-1.764A5.733,5.733,0,0,1,856.656,598.942Z" fill="#eef1f7"/>
    <path id="Trazado_802" data-name="Trazado 802" d="M322.612,639.886c3.828-.932,6.922.7,9.878,2.819.28.9,2.254,1.684,1.359,2.208-2.92,1.7-6.153,3.691-9.665,2.279-2.841-1.142-2.765-3.759-1.692-6.325A3.605,3.605,0,0,0,322.612,639.886Z" fill="#f7f7f7"/>
    <path id="Trazado_803" data-name="Trazado 803" d="M351.57,648.681l-2.094,2.067c-4.256.854-6.8-2.107-9.593-4.4-.9-.733-.124-1.383.59-1.84l3.771-1.144C349.8,641.68,351.464,642.889,351.57,648.681Z" fill="#e9eaeb"/>
    <path id="Trazado_804" data-name="Trazado 804" d="M500.434,639.433c-.118-2.148,1.65-1.535,2.762-1.882l10.642,1.328,3.654,1.164c-.482,1.657-2.134,2.789-2.114,4.664-.831,2.573-.81,5.394-2.276,7.781l-4.573,2.44c-1.1-2.979.468-5.718-.195-9.027-2.492,2.643-1.719,5.59-2.537,8.238-4.137-.959-4.655-4.1-4.774-7.5-.78-2.346.188-4.842-.623-7.185Z" fill="#f9f9fa"/>
    <path id="Trazado_805" data-name="Trazado 805" d="M500.4,639.45c1.88,2.25.848,4.752.623,7.185C499.536,644.35,500.49,641.855,500.4,639.45Z" fill="#2d2e3d"/>
    <path id="Trazado_806" data-name="Trazado 806" d="M262.427,597.924q3.249,3.865.022,7.749c-3.472-1.713-1.491-5.01-2.039-7.54C260.227,597.286,261.7,597.856,262.427,597.924Z" fill="#f8f8f9"/>
    <path id="Trazado_807" data-name="Trazado 807" d="M832.691,622.7a10.559,10.559,0,0,1-5.093.846c-.947-.59-2.07-.137-3.056-.514a16.648,16.648,0,0,1-1.851-.793c-.872-.671-2.535-.7-2.037-2.489,4.071-1.121,8.132-3.11,12.234-.1a2.433,2.433,0,0,1-.3,3.089Z" fill="#3c3d4a"/>
    <path id="Trazado_808" data-name="Trazado 808" d="M808.667,623.589q.009-.336,0-.672a1.94,1.94,0,0,1,1.8-1.575,11.932,11.932,0,0,0,4.184.91,19.088,19.088,0,0,1,3.068.766c.6.322,1.062.727.909,1.5C815.277,624.542,811.72,626.759,808.667,623.589Z" fill="#303240"/>
    <path id="Trazado_809" data-name="Trazado 809" d="M818.629,624.52l-1.139-.874a1.865,1.865,0,0,1,1.412-1.764,8.263,8.263,0,0,1,5.514.744c1.1.169,2.333-.114,3.182.922Z" fill="#333543"/>
    <path id="Trazado_810" data-name="Trazado 810" d="M869.741,633.8a7.552,7.552,0,0,1,6.63-.005c1.624,1.914,2.637,4.015,2.031,6.612-1.51.886-2.16,2.9-4.227,3.232-1.486-1.213.048-3.2-1.177-4.488-2.537-1.075.1,7.486-4.583,2.547C866.834,638.723,867.641,636.152,869.741,633.8Z" fill="#f3f3f4"/>
    <path id="Trazado_811" data-name="Trazado 811" d="M825.667,640.733l4.075-2.978c1.632-.577,3.266-1.29,4.855.1,1.514,1.881,1.335,3.751-.04,5.612-2.063.623-3.989-.08-5.933-.609C827.668,642.112,826.06,642.264,825.667,640.733Z" fill="#ececed"/>
    <path id="Trazado_812" data-name="Trazado 812" d="M810.692,621.791l-2.028,1.126c-.574-.174-1.025-.444-.9-1.16a3,3,0,0,0,1.881-2.141,128.972,128.972,0,0,1,21.738-2.716l1.6,1.5a1.126,1.126,0,0,1-.356,1.389c-4.154-.97-8.19-.134-12.219.8-1.133,1.484-2.845,1.134-4.367,1.382C814.271,621.584,812.463,622.2,810.692,621.791Z" fill="#e0e0e2"/>
    <path id="Trazado_813" data-name="Trazado 813" d="M816.666,639.613a5.229,5.229,0,0,0,3.643,1.258c.824,1.742-.882,2.01-1.65,2.824-2.129.981-4.09,3.286-6.683,1.344-2.022-1.514-1.338-3.464-.289-5.3C813.321,638.728,815.014,639.967,816.666,639.613Z" fill="#f6f6f7"/>
    <path id="Trazado_814" data-name="Trazado 814" d="M848.57,540.586l1.778-.47c3.6.552,6.155,1.684,3.26,5.848l-1.874,2.99c-2.438,1.12-1.625-2.02-3-2.288C849.111,544.628,847.124,542.652,848.57,540.586Z" fill="#d8d8db"/>
    <path id="Trazado_815" data-name="Trazado 815" d="M832.627,619.792c.118-.463.236-.925.355-1.389q.754.754,1.508,1.511.009,1.332.018,2.664l-1.921.166Z" fill="#b6b7bb"/>
    <path id="Trazado_816" data-name="Trazado 816" d="M369.391,505.275H471.707C469.228,507.366,375.34,508.042,369.391,505.275Z" fill="#222433"/>
    <path id="Trazado_817" data-name="Trazado 817" d="M329.827,363.467c.433-2.264,1.738-3.766,3.938-3.8a3.471,3.471,0,0,1,3.711,3.728,3.6,3.6,0,0,1-4.016,3.943C331.042,367.3,330.252,365.447,329.827,363.467Z" fill="#bbcde5"/>
    <path id="Trazado_818" data-name="Trazado 818" d="M345.132,359.572c2.061.586,3.519,1.8,3.356,4.129a3.575,3.575,0,0,1-3.838,3.632c-2.639-.026-3.877-1.915-3.677-4.242C341.159,360.939,342.86,359.773,345.132,359.572Z" fill="#bbcde5"/>
    <path id="Trazado_819" data-name="Trazado 819" d="M355.8,359.556c2.188.376,3.662,1.548,3.683,3.888a3.577,3.577,0,0,1-3.641,3.891,3.317,3.317,0,0,1-3.74-3.666C352.136,361.478,353.566,360.083,355.8,359.556Z" fill="#bbcde5"/>
    <path id="Trazado_820" data-name="Trazado 820" d="M815.683,620.958l4.725-.366c1.058.372,2.366-.066,3.211.993-1.336,1.251-2.978.37-4.455.64-1.026-.078-2.052.465-3.079,0A.851.851,0,0,1,815.683,620.958Z" fill="#222433"/>
    <path id="Trazado_821" data-name="Trazado 821" d="M818.726,621.859l4.893-.274.8,1.041-5.707.026c-.371-.184-.491-.362-.364-.537A.506.506,0,0,1,818.726,621.859Z" fill="#a6a7ad"/>
    <path id="Trazado_822" data-name="Trazado 822" d="M815.683,620.958q.011.466.007.935c.135.766-.037,1.2-.931.867-1.64.869-3.155,1.213-4.067-.969C812.213,620.66,813.976,620.978,815.683,620.958Z" fill="#303140"/>
    <path id="Trazado_823" data-name="Trazado 823" d="M814.759,622.76l.93-.868q1.52-.015,3.037-.033a2.279,2.279,0,0,0-.017.794l-1.217.994C816.52,623.536,815.335,624.084,814.759,622.76Z" fill="#74757e"/>
    <path id="Trazado_824" data-name="Trazado 824" d="M711.669,613.584c-.76-1.5.4-2.5,1-3.594,7.173-13.2,14.314-26.422,21.64-39.538,1.3-2.334.909-3.249-1.358-4.326-5.147-2.446-10.239-5.023-15.228-7.776-2.211-1.22-2.628-.621-3,1.581-1.377,8.223-2.712,16.464-4.491,24.6-2.6,11.9-9.779,20.347-21.016,24.827-25.337,10.1-50.8,19.884-76.225,29.772-1.07.416-2.154,1.27-3.409.423-1.448-.711-1.767-2.181-2.274-3.488q-10.944-28.242-21.936-56.466a5.308,5.308,0,0,1-.548-3.188c.247-1.716,1.79-1.749,2.951-2.2q27.543-10.789,55.12-21.493a4.253,4.253,0,0,0,3.1-3.652c1.051-6.388,2.23-12.756,3.379-19.128.329-1.822.549-3.041-2.241-2.618-5.856.888-5.952.714-6.717-4.947-1.426-10.555-2.885-21.108-4.056-31.693-.3-2.711-1.183-2.639-3.217-1.9-5.46,1.968-10.97,3.8-16.461,5.681-1.5.514-2.837,1.111-3.516-1.263-.472-1.648-1.826-.4-2.676-.115-10.8,3.626-21.528,7.478-32.381,10.935-10.373,3.3-20.334-3.505-21.334-14.318-.439-4.748,1.383-8.741,4.26-12.432,13.91-17.848,27.715-35.778,41.688-53.575a11.041,11.041,0,0,0,2.572-7.768,82.432,82.432,0,0,1,3.7-27.938,25.776,25.776,0,0,1,2.12-4.79c.873-1.563,2.049-2.946,4.142-2.7,1.912.229,2.766,1.578,3.226,3.277.581,1.781.1,3.614.278,5.414.051.52-.276,1.42.873,1.111a16.314,16.314,0,0,1,3.348-4.849c1.146-1.075,2.424-1.9,4.142-1.164s1.958,2.189,1.965,3.8a25.912,25.912,0,0,1-1.736,8.005,19.194,19.194,0,0,0-.874,3.472c3.609-3.622,8.663-4.664,12.585-7.685,2.9-2.233,6.653-2.772,10.364-2.48,2.319.182,4.589,1.407,6.575-1.342.863-1.2,3.122-.478,4.723-.05,1.225.328,2.416.782,4.01,1.307-.718-2.235-2.267-3.392-3.157-4.957a47.933,47.933,0,0,1-2.693-4.879c-.6-1.422-.817-3.053.561-4.278a3.661,3.661,0,0,1,4.591-.184c1.738,1.03,3.338,2.294,5.262,3.642-.59-2.188-1.176-4.043-1.576-5.937-.406-1.924-.219-3.754,1.711-4.9,1.886-1.117,3.4-.1,4.79,1.008a29.45,29.45,0,0,1,6.362,7.921c.629,1.018,1.268,2.03,1.917,3.067.254-.152.473-.2.531-.331.886-1.921,1.779-4.193,4.236-4.022,2.641.184,2.682,2.8,3.2,4.763a63.134,63.134,0,0,1,1.685,13.374c.1,2.395,1.086,3.385,3.047,4.345,14.569,7.129,29.128,14.28,43.6,21.6,9.423,4.767,12.331,15.59,6.68,23.975a16.155,16.155,0,0,1-8.515,6.417c-5.817,1.946-11.623,3.927-17.447,5.854A5.551,5.551,0,0,0,716,458.459a11.668,11.668,0,0,1-5.451,5.1c-1.537.7-1.76,1.636-1.978,3.234-1.021,7.486,2.228,11.184,9.079,14.447,26.9,12.812,53.412,26.444,80.082,39.744,11.034,5.5,18.058,14.011,20.036,26.374.62,1.06-.214,2.366.574,3.4v7.258c-.443,6.917-3.893,12.705-7.1,18.545-10.949,19.945-21.72,39.987-32.587,59.977-.919,1.691-1.568,3.715-3.8,4.278-3.183-.526-5.966-2.127-8.883-3.356q-24.99-10.531-49.928-21.184C714.485,615.606,712.6,615.319,711.669,613.584Z" fill="#222433"/>
    <path id="Trazado_825" data-name="Trazado 825" d="M805.1,667.549l.052.664H736.532a.879.879,0,0,0-.08-.626c1.217-1.255,2.82-1.089,4.332-1.092q29.975-.05,59.949,0C802.257,666.493,803.84,666.381,805.1,667.549Z" fill="#6544fb"/>
    <path id="Trazado_826" data-name="Trazado 826" d="M617.8,667.556l-.027.657H574.229l.064-.666c1.231-1.226,2.829-1.042,4.335-1.047q17.407-.054,34.814-.008C614.971,666.495,616.534,666.443,617.8,667.556Z" fill="#6544fb"/>
    <path id="Trazado_827" data-name="Trazado 827" d="M617.8,667.556l-43.508-.009q-8.252-23.4-16.5-46.8c-3.27-9.3-6.455-18.64-9.787-27.923-.7-1.939-.482-2.746,1.636-3.5,11.766-4.193,23.462-8.581,35.182-12.9q7.879,19.956,15.753,39.917c3.036,7.729,6.008,15.484,9.007,23.226-3.955,1.6-7.946,3.11-11.848,4.825a6.912,6.912,0,0,0-4.281,7.995c.707,3.235,3.25,5.306,6.885,5.488,3.061.154,6.151-.006,9.184.352C614.595,658.818,617.629,662.4,617.8,667.556Z" fill="#f37777"/>
    <path id="Trazado_828" data-name="Trazado 828" d="M619.637,390.3c-.214.351-.362.918-.656,1.008-.606.187-.556-.4-.554-.791.012-2.247.038-4.494.059-6.742C620.05,385.742,618.356,388.283,619.637,390.3Z" fill="#97989f"/>
    <path id="Trazado_829" data-name="Trazado 829" d="M805.1,667.549l-68.644.038c-14.1-5.777-28.2-11.582-42.324-17.3-2.156-.874-1.034-1.928-.453-3.008q8.186-15.231,16.39-30.452c.571-1.061,1.071-2.16,1.6-3.241L774.617,640.4c-2.584,8.095,2.056,14.549,10.527,14.632,2.187.022,4.375,0,6.563,0C800.528,655.043,804.428,658.688,805.1,667.549Z" fill="#f37777"/>
    <path id="Trazado_830" data-name="Trazado 830" d="M650.713,534.335c.276-1.943.546-3.887.832-5.829.152-1.03.5-1.862,1.718-2.08,9.859-1.771,17.2-7.6,23.713-14.759,2.7-.884,5.365.245,8.06.136,3.83-.155,5.93-2.133,5.728-5.567a4.864,4.864,0,0,0-2.728-4.156c-.883-.5-2.192-.579-2.327-1.984,4.973-7.127,10.31-13.908,17.8-18.635a2.838,2.838,0,0,1,1.708.893c2.843,2.807,5.883,2.987,9.146.757a2.043,2.043,0,0,1,1.828-.446c5.223,2.533,10.47,5.017,15.665,7.606q32.235,16.065,64.446,32.177c19.294,9.619,25.37,28.857,15.079,47.892-.989,1.829-2.053,3.618-3.082,5.425-1.262,1.193-2.853.881-4.358.938a19.607,19.607,0,0,0-4.244.24,4.986,4.986,0,0,0-4.021,4.252c-.354,2.355.965,3.893,2.8,5.145,1,.68,2.782.285,2.942,2.119l-14.939,27.563c-1.711.179-2.427-1.263-3.447-2.167-1.062-.942-2-2.017-3.035-3-3.241-3.077-5.536-3.193-8.832-.166-3.462,3.181-6.661,6.64-10.024,9.928-2.645,2.588-5.352,5.116-6.843,8.616q-16.949-7.074-33.895-14.154c-6.746-2.834-6.738-2.868-3.251-9.234q4.815-8.789,9.648-17.566c1.471-.691,2.22.494,3.08,1.248,1.237,1.084,2.288,2.371,3.548,3.43,2.567,2.158,5.183,2.149,7.387.033,1.98-1.9,2.012-5.008-.064-7.423-1.787-2.079-3.85-3.9-5.761-5.87a5.289,5.289,0,0,1-1.84-2.659c2.471-5.585,5.884-10.715,7.943-16.5.256-.72.571-1.419.834-2.136.25-.684.222-1.348-.586-1.582-.671-.194-.955.419-1.176.893a16.781,16.781,0,0,1-2.655,4.484c-.216-1.571-.319-3.169-.689-4.7-.224-.933.277-2.734-1.259-2.554s-.762,1.735-.642,2.746c.285,2.387.607,4.769.987,7.726-3.671-1.86-6.992-3.542-10.312-5.226q-3.948-2-7.893-4.009c-3.895-1.984-3.911-1.989-4.728,2.43-1.015,5.489-2,10.983-2.995,16.475a1.172,1.172,0,0,1-.952-.025c-5.463-2.769-7.121-2.734-10.98,1.918-4.29,5.172-4.515,4.9-9.211.112-.692-.7-1.374-1.42-2.1-2.084-2.518-2.288-4.768-2.712-7.4-.677A59.528,59.528,0,0,0,667.562,586.2c-1.873,2.56-1.489,4.854.576,6.791s4.353,2.1,6.872.358a44.478,44.478,0,0,0,5.507-5.176c1.58-1.54,2.987-1.521,4.521.037,1.461,1.485,2.9,2.992,4.441,4.4,2.931,2.684,5.426,2.669,8.383-.047,1.535-1.409,2.905-2.994,4.462-4.378,2.163-1.92,2.8-1.767,4.4.889a30.007,30.007,0,0,1-15.717,17.256,229.117,229.117,0,0,1-23.138,9.12c-1.289.248-1.975-.706-2.78-1.408-3.772-3.293-6.829-3.09-10.042.756a50.867,50.867,0,0,1-9.578,9.325q-16.47,6.541-32.937,13.1c-1.214.486-1.681.145-2.124-1.057-2.073-5.624-4.258-11.207-6.4-16.8,1.261-1.214,2.868-.885,4.371-.943,2.739-.106,5.5.206,8.22-.231,3.875-.622,5.334-2.271,5.445-6.163.106-3.731-.055-7.467.065-11.2.107-3.332.8-4.029,4.143-4.154,3.729-.14,7.465.042,11.2-.078,3.8-.123,6.17-2.067,6.209-4.965.04-2.937-2.159-5.2-5.913-5.407a173.476,173.476,0,0,0-20.075,0c-4.219.251-6.386,3.3-5.886,7.893a82.468,82.468,0,0,1,.334,9.862c-.027,2.582-1.295,3.92-3.86,3.791-3.016-.152-6.155.83-9.014-.9-3.823-9.624-7.63-19.254-11.491-28.862-.416-1.036-.313-1.637.746-2.037q11.628-4.38,23.251-8.773a8.674,8.674,0,0,1,3.423,1.061c20.076,8.724,41.832-3.309,45.093-24.933a15.976,15.976,0,0,0,.083-4.589c-.5-3.569-3.477-5.405-6.966-4.419C652.526,534.559,651.6,535.743,650.713,534.335Z" fill="#fefefe"/>
    <path id="Trazado_831" data-name="Trazado 831" d="M708.15,462.564c0-1.914,0-3.227,0-4.539,0-.795-.062-1.725-1.065-1.715-1.109.011-.928,1.034-.893,1.762.188,3.945.189,7.917.682,11.826.568,4.49-.3,7.552-4.717,10.086-6.527,3.748-11.269,9.7-15.783,15.7-3.894,5.175-7.714,10.414-11.795,15.44-7.407,9.121-17.161,13.684-28.829,14.493-2.244.156-3.011-.442-3.282-2.645-1.405-11.389-2.948-22.761-4.489-34.488,1.842,1.022,3.528,1.967,5.224,2.893.571.312,1.211.724,1.721-.039s-.085-1.231-.641-1.567c-2.25-1.362-4.54-2.656-6.78-4.032-1.1-.674-1.91.162-2.774.451-6.433,2.15-12.841,4.376-19.377,6.62-1.759-7.736-3.446-15.294-5.232-22.828a3.065,3.065,0,0,1,.352-2.465c1.872-3.216,3.771-6.417,5.565-9.676a4.355,4.355,0,0,1,2.8-2.054c8.464-2.662,16.938-5.3,25.371-8.055a5.354,5.354,0,0,1,4.075.172c3.117,1.347,6.223,2.734,9.4,3.92,5.066,1.889,9.591-1.832,8.371-7.1-.689-2.977-.024-4.086,2.9-4.98,7.537-2.3,14.923-5.1,22.414-7.56,15.524-5.1,25.341,7.927,24.683,20.317C715.811,457.1,712.953,460.273,708.15,462.564Z" fill="#fefefe"/>
    <path id="Trazado_832" data-name="Trazado 832" d="M604.967,424.207c.7,1.388-.522,3.606,1.144,3.6,2.1,0,1.065-2.263,1.058-3.446-.061-10.892-.185-21.779,2.7-32.421a28.429,28.429,0,0,1,2.858-7.681c.559-.908,1.147-2.05,2.514-1.711,1.158.287,1.264,1.4,1.437,2.374.793,4.446-.531,8.73-1,13.081-.116,1.067-1.4,2.662.347,3.075,1.447.343,1.467-1.581,1.931-2.6,1.638-3.59,3.031-7.308,5.407-10.51.7-.948,1.527-2.266,2.857-1.807,1.474.51.951,2.087.813,3.2-.556,4.516-2.5,8.614-4.043,12.83-.322.876-1.265,1.962-.228,2.671,1.01.691,1.715-.53,2.443-1.144,2.182-1.839,4.329-3.723,6.569-5.487.815-.642,1.872-1.523,2.939-.6,1.166,1.011.509,2.3-.086,3.312a33.361,33.361,0,0,1-3.18,4.6c-3.955,4.688-4.5,9.824-2.3,15.406.643,1.632,1.31,3.259,1.849,4.926a8.34,8.34,0,0,1-3.184,9.863,10.112,10.112,0,0,0-3.031,3.334q-7.9,13.5-15.913,26.932a5.722,5.722,0,0,0-.715,4.66c1.393,5.76,2.537,11.581,4.005,17.32.484,1.892-.042,2.429-1.731,2.995-10.706,3.583-21.35,7.352-32.06,10.924-6.845,2.283-13.262.272-17.03-5.066-3.846-5.448-3.641-11.951.8-17.709q20.95-27.144,42.014-54.2A7.228,7.228,0,0,1,604.967,424.207Z" fill="#fefefe"/>
    <path id="Trazado_833" data-name="Trazado 833" d="M717.885,454.4c.892-4.709-.329-8.67-1.836-12.577a18.44,18.44,0,0,0-9.4-10.572c-8.053-3.781-15.658-8.386-23.524-12.506-.583-.306-1.142-.662-1.742-.929-7.17-3.205-8.309-5.043-7.925-12.826a14.685,14.685,0,0,0,.067-2.63c-.107-.8-1.035-1.758-1.434-.745-1.128,2.859-1.978.472-2.851.021-4.755-2.457-7.783-7.028-12.136-9.986-.475-.323-.847-.723-.6-1.354a1.181,1.181,0,0,1,1.339-.727,12.527,12.527,0,0,1,2.884.578c2.557.981,5.074,2.063,7.592,3.142.727.311,1.479.758,2.027-.107.433-.684-.184-1.237-.595-1.726a80.4,80.4,0,0,1-7.461-9.635c-.929-1.52-2.839-3.589-1.317-4.957,1.775-1.6,3.586.657,4.977,1.883,2.136,1.885,3.962,4.119,6.064,6.046,1.1,1.011,1.844,3.676,3.484,2.571,1.376-.927-.714-2.609-1.291-3.927-1.009-2.307-2.283-4.5-3.278-6.813a29.84,29.84,0,0,1-1.3-4.4,2.243,2.243,0,0,1,.809-2.648,1.847,1.847,0,0,1,2.355.656c4.892,5.317,10.233,10.423,8.827,18.763-.221,1.308-1.51,3.672.529,3.9,1.734.19,1.1-2.445,1.308-3.783.483-3.135.485-6.35,1.655-9.361.354-.911.749-2.113,1.84-2.089,1.17.027,1.2,1.32,1.425,2.227a73.905,73.905,0,0,1,1.877,15.013,4.229,4.229,0,0,0,2.8,4.2q22.454,11,44.8,22.213c6.908,3.472,9.858,9.995,7.9,16.967-1.158,4.133-3.6,7.433-7.6,8.987C731.64,449.788,724.963,451.93,717.885,454.4Z" fill="#fefefe"/>
    <path id="Trazado_834" data-name="Trazado 834" d="M668.035,422.151c-1.656,6.461-6.09,10.161-12.574,10.516-.923.051-2.447-.388-2.441.9.008,1.55,1.629.986,2.625,1.055,2.015.138,3.87-.623,6.068-1.277.895,4.154,1.95,8.235,2.61,12.378a4.083,4.083,0,0,1-5.557,4.412c-3.4-1.208-6.655-2.8-10.021-4.109-1.2-.464-1.232-1.359-1.421-2.325-1.054-5.375-2.154-10.741-3.191-16.12-.359-1.865-.659-3.259-3.3-2.666-2.575.577-4.682-.738-5.907-3.171a5.43,5.43,0,0,1,.658-6.164,5.255,5.255,0,0,1,6.46-1.876c1.885.8,2.531.159,3.674-1.133,3.7-4.189,7.664-8.152,11.427-12.291,1-1.1,1.7-1.525,2.842-.273.734.807,1.673,1.424,2.437,2.208.525.539,1.607,1.075.946,1.951-.343.455-.987,1.57-2.078.712a.9.9,0,0,0-1.431.18c-.458.772.159,1.21.668,1.6.692.536,1.422,1.023,2.146,1.517,1.817,1.24,4.381,2.182,1.6,4.973-.642.643-.026,1.97.662,1.5,3.205-2.208,2.461.843,3.068,2.1.239.6-.113.833-.6.988-1.224.131-2.688-.466-3.572,1.386,1.114.169,2.2-.558,3.15.042A2.2,2.2,0,0,1,668.035,422.151Z" fill="#fefefe"/>
    <path id="Trazado_835" data-name="Trazado 835" d="M599.241,606.87c3.074-.017,6.153-.125,9.223-.016,1.945.069,2.842-.493,2.68-2.585-.262-3.383.091-6.774-.425-10.179-.832-5.5,2.225-8.905,7.762-8.949,6.26-.05,12.521-.063,18.78.008,4.479.05,7.137,2.182,7.532,5.809a6.1,6.1,0,0,1-6.147,6.631c-4.171.1-8.354.177-12.517-.027-2.566-.126-3.206.823-3.077,3.218.194,3.615.088,7.247.087,10.872,0,5.309-2.169,7.521-7.6,7.642-3.842.086-7.687.049-11.531.066A106.8,106.8,0,0,1,599.241,606.87Z" fill="#bbcde5"/>
    <path id="Trazado_836" data-name="Trazado 836" d="M706.725,589.075c-1.481-1.709-2.835-2.04-4.35.082a28.131,28.131,0,0,1-3.21,3.3c-4.08,4.08-6.867,4.112-10.886.126-1.247-1.237-2.581-2.4-3.7-3.748-1.252-1.5-2.22-1.759-3.593-.088a46.961,46.961,0,0,1-4.4,4.442c-3.14,2.919-6.34,3.071-9.043.5-2.679-2.543-2.938-5.6-.135-8.734a142.251,142.251,0,0,1,10.933-10.936c3-2.691,6.181-2.345,9.047.428,1.42,1.374,2.884,2.717,4.176,4.207,1.458,1.682,2.645,2.1,4.042-.07a19.386,19.386,0,0,1,2.626-2.934c4.489-4.544,6.985-4.657,11.749-.568C709.162,579.812,708.833,584.651,706.725,589.075Z" fill="#bbcde5"/>
    <path id="Trazado_837" data-name="Trazado 837" d="M650.713,534.335c.792.427,1.166-.341,1.713-.605a6.047,6.047,0,0,1,8.9,5.323c.833,16.4-14.163,32.461-30.581,32.883-6.806.175-13.3-.618-19-4.738,6.427-3.057,13.158-5.355,19.8-7.881.86-.518,1.936-.174,2.793-.7,3.711-1.445,7.1-3.629,10.959-4.742a3.051,3.051,0,0,0,2.279-2.817C648.518,545.466,649.652,539.906,650.713,534.335Z" fill="#bbcde5"/>
    <path id="Trazado_838" data-name="Trazado 838" d="M754.295,629.237a6.183,6.183,0,0,1,2.1-4.974c4.76-4.715,9.439-9.513,14.236-14.189,3.494-3.407,6.435-3.289,9.969.179q2.937,2.883,5.872,5.769-3.135,5.688-6.271,11.377a2.389,2.389,0,0,1-1.191-.508c-3.92-3.08-3.889-3.048-7.591.568-2.188,2.136-4.135,4.524-6.6,6.371Z" fill="#bbcde5"/>
    <path id="Trazado_839" data-name="Trazado 839" d="M632.942,424.736c-.856-2.118-1.807-4.2-2.548-6.36-1.5-4.377-.036-8.085,2.589-11.635,2.208-2.987,5.4-5.7,3.787-10.2-.3-.842.719-1.256,1.282-1.729,6.06-5.085,15.595-4.565,21.435,1.391-1.615.144-2.406,1.241-3.3,2.231-2.719,3.009-5.506,5.958-8.187,9-2.272,2.578-4.445,4.361-8.493,4.16-5.952-.3-8.589,5.935-5.76,12.406A.941.941,0,0,1,632.942,424.736Z" fill="#fefefe"/>
    <path id="Trazado_840" data-name="Trazado 840" d="M632.942,424.736l.8-.732c1.872,1.775,3.95,3.188,6.658,2.995,1.281-.092,1.651.313,1.878,1.538.937,5.056,1.989,10.092,3.05,15.124.255,1.208-.1,1.787-1.3,2.149-5.127,1.549-10.267,3.071-15.324,4.83-2.217.771-2.714-.967-3.529-2.021-.9-1.16-2.649-2.24-1.264-4.222,1.855-2.653,3.09-5.634,5.839-7.771C633.612,433.63,634.242,429.337,632.942,424.736Z" fill="#fefefe"/>
    <path id="Trazado_841" data-name="Trazado 841" d="M665.024,401.661c2.962,1.593,5.986,3.019,6.338,7.039.493,5.639,3.645,8.838,8.954,10.955,5.361,2.137,10.267,5.418,15.367,8.209a14.534,14.534,0,0,1,1.306.97c-7.793,1.415-14.607,4.694-22.38,6.834,2.153-10.234-3.354-18.086-7.265-26.415C666.237,406.9,666.457,404.065,665.024,401.661Z" fill="#fdfdfd"/>
    <path id="Trazado_842" data-name="Trazado 842" d="M733.147,577.042a70.728,70.728,0,0,1,8.479,8.228,5.991,5.991,0,0,1-.168,8.332c-2.538,2.429-5.823,2.427-8.563.078-2.062-1.767-3.5-4.239-6.1-5.4C728.853,584.5,730.662,580.581,733.147,577.042Z" fill="#bbcde5"/>
    <path id="Trazado_843" data-name="Trazado 843" d="M764.821,633.83c2.588-4.149,6.587-6.981,9.836-10.513.712-.774,1.372-.386,1.956.237q1.8,1.92,3.591,3.845c-1.6,3.074-3.231,6.13-4.776,9.231-.64,1.283-1.343,1.343-2.575.744C770.222,636.1,767.5,635,764.821,633.83Z" fill="#fdfdfe"/>
    <path id="Trazado_844" data-name="Trazado 844" d="M685.709,500.1c2.285.986,4.825,1.642,5.792,4.367,1.547,4.355-1.592,8.48-6.421,8.264a30.879,30.879,0,0,1-8.105-1.06Z" fill="#bbcde5"/>
    <path id="Trazado_845" data-name="Trazado 845" d="M801.415,588.459c-1.46-1.12-3.572-.667-4.915-2.31-1.582-1.936-2.476-3.911-1.531-6.31a5.775,5.775,0,0,1,5.449-4.036c2.624-.073,5.251-.03,7.877-.038Z" fill="#bbcde5"/>
    <path id="Trazado_846" data-name="Trazado 846" d="M645.47,624.124c3.546-3.853,6.92-7.885,10.694-11.5,2.907-2.784,6.084-2.406,9.053.38.878.823,1.769,1.632,2.654,2.447C660.505,618.6,653.084,621.613,645.47,624.124Z" fill="#bbcde5"/>
    <path id="Trazado_847" data-name="Trazado 847" d="M670.6,419.927c2.01,5.237,2.812,9.615,2.3,14.177-.228,2.021-5.714,5.321-7.569,4.609-.941-.361-2.025-6.256-1.079-6.992C667.806,428.953,669.611,425.224,670.6,419.927Z" fill="#fdfdfd"/>
    <path id="Trazado_848" data-name="Trazado 848" d="M716.187,482.665c-5.166,4.231-8.787,3.887-12.681-1.2,2.52-2.657,5.235-3.505,8.487-1.148A39.674,39.674,0,0,0,716.187,482.665Z" fill="#bbcde5"/>
    <path id="Trazado_849" data-name="Trazado 849" d="M625.135,451.787l-6.823,2.1,3.67-6.127Z" fill="#efeff0"/>
    <path id="Trazado_850" data-name="Trazado 850" d="M667.339,417.384l.662-.633a5.8,5.8,0,0,1,.034,5.4,2.45,2.45,0,0,0-1.516-2.612A4.971,4.971,0,0,1,667.339,417.384Z" fill="#909199"/>
    <path id="Trazado_851" data-name="Trazado 851" d="M634.339,558.616c-.742.986-1.81.672-2.792.7C632.391,558.74,633.185,557.963,634.339,558.616Z" fill="#c0c5d2"/>
    <path id="Trazado_852" data-name="Trazado 852" d="M762.458,571.909a19.033,19.033,0,0,1-11.017-2.542c-3.533-1.906-4.124-5.224-1.285-8.1q12.476-12.66,25.134-25.141c2.974-2.935,6.038-2.2,8.209,1.724,6.558,11.853.448,28.029-12.318,32.735A19.945,19.945,0,0,1,762.458,571.909Z" fill="#bbcde5"/>
    <path id="Trazado_853" data-name="Trazado 853" d="M753.054,521.833c.39,2.745-1.022,4.482-3.181,5.658-2.7,1.474-5.157.587-7.2-1.353-2.944-2.793-5.835-5.655-8.57-8.65-1.54-1.687-2.572-1.785-4.162-.045-2.736,2.994-5.667,5.814-8.589,8.632s-6.39,2.8-9.016.083a6.109,6.109,0,0,1,.343-8.585q7.472-7.656,15.13-15.127c2.737-2.663,6.117-2.712,8.8-.025,5.191,5.194,10.21,10.56,15.319,15.838A4.234,4.234,0,0,1,753.054,521.833Z" fill="#bbcde5"/>
    <path id="Trazado_854" data-name="Trazado 854" d="M691.1,538.158a7.636,7.636,0,0,1,7.734,7.355,7.822,7.822,0,1,1-15.641-.171A7.634,7.634,0,0,1,691.1,538.158Z" fill="#bbcde5"/>
    <path id="Trazado_855" data-name="Trazado 855" d="M703.327,471.754a4.7,4.7,0,0,1-1.1.96c-6.25,2.787-10.288,8.026-14.58,13.007-2.356,2.734-4.688,5.539-8.113,7.057-.756.335-1.715,1.138-2.3.081-.619-1.113.532-1.4,1.315-1.772,3.383-1.591,5.677-4.409,8.015-7.171,3.826-4.521,7.572-9.129,12.894-12.039a13.914,13.914,0,0,1,2.706-1.135C702.7,470.584,703.215,470.878,703.327,471.754Z" fill="#282a39"/>
    <path id="Trazado_856" data-name="Trazado 856" d="M675.272,490.006c-.749.126-1.206.034-1.378-.421a1.012,1.012,0,0,1,.573-1.363,15.681,15.681,0,0,0,5.027-3.649c.4-.4.979-.665,1.393-.082a1.292,1.292,0,0,1,.1,1.18A12.53,12.53,0,0,1,675.272,490.006Z" fill="#2d2f3d"/>
    <path id="Trazado_857" data-name="Trazado 857" d="M667.339,417.384c.7,1.091.954,2.008-.82,2.155-.212-.028-.426-.045-.635-.086-1.265-.251-1.711,2.467-3.176.995-.82-.825.036-1.818.539-2.6,1.013-1.569,2.367-1.636,3.865-.693A1.428,1.428,0,0,1,667.339,417.384Z" fill="#2c2e3c"/>
    <path id="Trazado_858" data-name="Trazado 858" d="M654.328,406.16c.568.084,1.023.341,1.037.969.017.784-.465,1.139-1.208,1.092-.656-.042-.881-.535-.856-1.1A.961.961,0,0,1,654.328,406.16Z" fill="#333543"/>
    <g id="Grupo_15" data-name="Grupo 15">
      <path id="Trazado_859" data-name="Trazado 859" d="M336.944,478.252l2.065-11.87L372.984,427.5H389.5l-6.709,38.019h7.053l-2.236,12.729h-7.053l-1.978,11.182H363.781l2.064-11.182Zm36.04-34.578-18.321,21.849h14.45Z" fill="none" stroke="#313341" stroke-miterlimit="10" stroke-width="3"/>
      <path id="Trazado_860" data-name="Trazado 860" d="M408.034,435.46q7.181-8.387,19.912-8.386,10.236,0,15.01,5.548t4.773,15.439a61.466,61.466,0,0,1-1.032,10.064q-2.5,14.28-9.72,22.665t-19.955,8.386q-10.236,0-14.923-5.548t-4.688-15.439a59.689,59.689,0,0,1,.946-10.064Q400.85,443.848,408.034,435.46Zm25.073,14.322a10.988,10.988,0,0,0-1.72-6.624q-1.722-2.322-5.849-2.322-5.936,0-8.644,4.559t-4.087,12.73a50.939,50.939,0,0,0-.945,8.344,10.963,10.963,0,0,0,1.72,6.622q1.719,2.324,5.849,2.323,5.936,0,8.644-4.559t4.086-12.73A51.055,51.055,0,0,0,433.107,449.782Z" fill="none" stroke="#313341" stroke-miterlimit="10" stroke-width="3"/>
      <path id="Trazado_861" data-name="Trazado 861" d="M451.255,478.252l2.065-11.87L487.3,427.5H503.81L497.1,465.523h7.053l-2.237,12.729h-7.052l-1.979,11.182H478.091l2.065-11.182Zm36.04-34.578-18.321,21.849h14.45Z" fill="none" stroke="#313341" stroke-miterlimit="10" stroke-width="3"/>
    </g>
  </g>
</svg>
