<svg xmlns="http://www.w3.org/2000/svg" xmlns:xlink="http://www.w3.org/1999/xlink" width="336" height="142" viewBox="0 0 336 142">
  <defs>
    <clipPath id="clip-path">
      <path id="Mask" d="M0,0H336a0,0,0,0,1,0,0V129.54A12.46,12.46,0,0,1,323.54,142H12.46A12.46,12.46,0,0,1,0,129.54V0A0,0,0,0,1,0,0Z" transform="translate(336 142) rotate(-180)" fill="#bbcde5"/>
    </clipPath>
    <clipPath id="clip-path-2">
      <path id="Clip_2" data-name="Clip 2" d="M0,0H377.119V215H0Z" fill="none"/>
    </clipPath>
  </defs>
  <g id="Group_7_Copy_3" data-name="Group 7 Copy 3" clip-path="url(#clip-path)">
    <g id="Group_60" data-name="Group 60" transform="translate(-41 -56)">
      <g id="Group_3" data-name="Group 3">
        <path id="Clip_2-2" data-name="Clip 2" d="M0,0H377.119V215H0Z" fill="none"/>
        <g id="Group_3-2" data-name="Group 3" clip-path="url(#clip-path-2)">
          <path id="Fill_1" data-name="Fill 1" d="M1.47,215a.459.459,0,0,1-.2-.035c-.315-.144-.623-.318-.92-.486-.118-.067-.236-.133-.354-.2.132-.066.265-.15.394-.232a1.794,1.794,0,0,1,.849-.362c4.287-.066,8.544-.082,12.892-.093l4.824-.013c4.272-.012,8.689-.025,13.04-.025,3.3,0,6.255.007,9.042.022h.036a1.187,1.187,0,0,0,1.459-1.557c-.083-1.206-.08-2.437-.078-3.628v-.014c0-.5,0-1.026,0-1.539l-.007-5.512-.007-5.512c.007-.16.017-.32.026-.48v-.01c.02-.342.04-.7.041-1.046q0-6.749,0-13.5v-.71c0-17.235,0-35.056.039-52.6a1.305,1.305,0,0,0-1.62-1.638h-.092c-4.58.041-9.193.047-13.495.047H18.284c-.074,0-.15,0-.218.006s-.145.006-.217.006a1.585,1.585,0,0,1-.264-.019.93.93,0,0,0-.151-.011c-.083,0-.172.007-.259.014s-.178.014-.262.014a.474.474,0,0,1-.393-.131.665.665,0,0,1-.061-.547c.047-.254.7-.563,1.081-.566,3.056-.024,6.167-.027,9.075-.027h5.773c.633,0,1.274-.006,1.895-.012.639-.006,1.3-.012,1.952-.012.541,0,1.024,0,1.476.013h.073c.359,0,.561-.057.675-.19s.146-.372.083-.772c-.729-4.674-1.458-9.429-2.162-14.028l0-.017v-.009c-.69-4.5-1.4-9.157-2.117-13.733a5.677,5.677,0,0,1,1.112-4.651,5.56,5.56,0,0,1,4.33-1.791c5.76-.005,11.736-.008,18.272-.008,6.046,0,12.578,0,19.969.007a5.6,5.6,0,0,1,3.81,1.246,5.836,5.836,0,0,1,1.78,3.641q.2,1.3.4,2.607c.343,2.225.7,4.526,1.018,6.8.135.951.481,1.265,1.543,1.4,4.866.618,10.036,1.3,15.046,2.3A15.654,15.654,0,0,1,105.5,109c.579.3,1.177.6,1.772.869,2.285,1.3,4.57,2.607,7.047,4.022,0-.439-.005-.851-.011-1.249a26.518,26.518,0,0,1,.051-2.692c.022-.254.27-.493.509-.724a4.1,4.1,0,0,0,.313-.325,4.018,4.018,0,0,0,.236.328,1.505,1.505,0,0,1,.385.727,31.647,31.647,0,0,1,.016,3.641,1.5,1.5,0,0,0,.927,1.637c2.73,1.419,4.95,2.641,6.987,3.847a1.752,1.752,0,0,0,.86.3c.405,0,.71-.288,1.043-.721,3.081-4,6.393-8.213,10.126-12.884a1.711,1.711,0,0,1,.866-.426,4.6,4.6,0,0,0,.461-.152c-.017.152-.02.315-.022.472a2,2,0,0,1-.171.973,15.681,15.681,0,0,1-1.247,1.707l0,.005c-.165.2-.32.4-.466.589h6.448a14.615,14.615,0,0,1-4.707-6.5c-.156-.44-.362-.62-.711-.62a3.09,3.09,0,0,0-.575.083,6.922,6.922,0,0,1-1.39.143,6.6,6.6,0,0,1-4.206-1.512,6.822,6.822,0,0,1-2.317-3.946l-.373-1.919c.144-1.237-.309-1.759-1.731-2a11.547,11.547,0,0,1-8.3-6.068,12.586,12.586,0,0,1-1.461-5.3,12.119,12.119,0,0,1,1.078-5.622,6.7,6.7,0,0,0,.512-2.51,14.665,14.665,0,0,1,2.769-8.516,10.639,10.639,0,0,1,3.578-3.013,12.686,12.686,0,0,1,5.291-1.336c.179-.008.36-.012.539-.012a12.721,12.721,0,0,1,12.454,11.734c.015.217.034.43.055.655.01.111.02.218.029.326a16.844,16.844,0,0,1,1.871-.108,10.956,10.956,0,0,1,9.948,5.624,10.733,10.733,0,0,1,.949,2.364c.159.509.324,1.035.53,1.529a2.271,2.271,0,0,0,.948,1.144,15.259,15.259,0,0,1,6.9,5.925,15.679,15.679,0,0,1,2.067,8.983c-.032.7.122.9.826,1.073a7.928,7.928,0,0,1,4.841,3.4,8.048,8.048,0,0,1,.99,5.88c-1.8,9.12-3.665,18.387-5.466,27.349l0,.017q-1.095,5.45-2.188,10.9c-.041.205-.084.41-.128.615l0,.015c-.108.511-.22,1.04-.3,1.567-.326,2.231-1.094,2.918-3.29,2.939-.859.009-1.29.013-1.478.234s-.13.633,0,1.479c1.616,10.613,3.269,21.39,4.868,31.811l.319,2.081q.5,3.258,1,6.517l.032.205c.883,5.732,1.8,11.657,2.668,17.488.1.7.234,1.006,1.039,1.006h.018c7.833-.041,15.8-.061,23.5-.08h.062l7.688-.02c-.506-.381-1.035-.749-1.595-1.139a29.26,29.26,0,0,1-3.709-2.891,12.516,12.516,0,0,1-3.671-8.968c-.008-.268-.008-.54-.007-.8V162.136c0-48.269,0-98.182,0-147.42a15.309,15.309,0,0,1,2.452-8.6,12.928,12.928,0,0,1,6.832-5.083A18.524,18.524,0,0,1,206.32.243c16.334-.031,32.942-.033,49-.034,9.279,0,18.872,0,28.353-.008,1.55,0,3.127-.052,4.651-.1,1.547-.049,3.144-.1,4.714-.1.235,0,.465,0,.685,0a13.67,13.67,0,0,1,7.967,2.636,13.854,13.854,0,0,1,4.97,6.781,9.031,9.031,0,0,1,.465,2.865c.02,37.189.019,75,.019,111.57v17.26c.2-.088.389-.167.564-.241.349-.147.651-.275.945-.418a54.851,54.851,0,0,0,8.752-5.318,53.739,53.739,0,0,0,7.356-6.636,63.609,63.609,0,0,0,10.94-16.792,66.006,66.006,0,0,0,2.632-7.216c.236-.734.479-1.492.727-2.236l.1-.291,0-.01c.5-1.515,1.012-3.082,2.757-3.533a3.21,3.21,0,0,1,.8-.105c1.426,0,2.479,1.023,3.52,2.163a35.636,35.636,0,0,1,6.009,10.039,135.7,135.7,0,0,1,6.531,18.654,155.856,155.856,0,0,1,3.914,19.376,62.843,62.843,0,0,1,.545,16.191,16.562,16.562,0,0,1-.762,3.4c-.687,1.978-1.791,3.023-3.19,3.023a5.036,5.036,0,0,1-3.228-1.585c-.663-.613-1.333-1.243-1.981-1.853l-.008-.008A85.314,85.314,0,0,0,346.2,160.9a60.422,60.422,0,0,0-15.659-8.353,54.4,54.4,0,0,0-17.515-3.037h-.2c-.938,0-1.891.059-2.813.117-.617.038-1.252.078-1.88.1-.738.026-1,.319-1,1.12.027,8.345.047,17.243-.014,26.2a1.2,1.2,0,0,0,.236.869.852.852,0,0,0,.636.191c.083,0,.168,0,.257-.007s.187-.008.281-.008l22.759,0h15.258c.209,0,.37,0,.522.007.411.014.674.118.784.309s.064.5-.149.89l-.037.07-.006.011a2.5,2.5,0,0,1-.245.4c-1.77,2.191-2.5,4.807-2.368,8.482.2,5.678.12,11.261.013,15.973a11.139,11.139,0,0,0,1.576,5.919,3.879,3.879,0,0,0,3.929,2.333l.18,0c6.027-.111,12.156-.111,18.083-.112,2.149,0,4.371,0,6.581-.006.071,0,.146-.006.217-.011s.151-.011.225-.011a.864.864,0,0,1,.255.032,5.213,5.213,0,0,1,.716.3c.1.048.2.1.3.141a3.234,3.234,0,0,0-.274.222,1.162,1.162,0,0,1-.6.355l-.61.034c-2.318.13-4.715.264-7.076.274-14.083.054-28.4.1-42.237.138h-.133c-9.538.028-19.4.058-29.1.091-17.082.057-34.353.122-51.056.183q-17,.063-34,.124l-38.569.136-1.192,0h-.014l-31.693.111-39.763.142q-23.42.085-46.84.167c-12.668.045-25.548.086-38,.126h-.04l-14.087.046c-.058,0-.119.006-.178.012S1.529,215,1.47,215Zm43.845-89.169a1.707,1.707,0,0,0-1.261.318,1.744,1.744,0,0,0-.321,1.275c.035,16.649.034,33.578.033,49.949v.076q0,6.653,0,13.306c0,1.048.013,2.1.024,3.121v.053q.008.722.015,1.444l.02,11.749c-.006.545-.009,1.111-.011,1.611-.006,1.259-.012,2.56-.067,3.838a1,1,0,0,0,.182.759,1.136,1.136,0,0,0,.839.215H44.8c7-.046,14.125-.074,21.011-.1h.037l5.945-.024.985-.006,1.189,0h.081q.746,0,1.492,0c.422,0,.8,0,1.147,0,4.576-.036,9.23-.075,13.73-.114l.193,0,6.046-.051h.093l21.781-.039,9.99-.034c12.332-.043,25.08-.088,37.626-.106.421,0,.688-.08.815-.242.157-.2.082-.505.01-.8-.026-.107-.053-.217-.069-.322-.613-4.018-1.24-8.1-1.848-12.046-.548-3.56-1.114-7.241-1.673-10.9-2.094-13.7-3.805-24.95-5.384-35.4-.128-.849-.461-1.135-1.319-1.135h-.019c-3.9.02-7.956.03-12.048.03-3.839,0-7.844-.009-11.9-.026H132.7c-.842,0-1.166.262-1.388,1.121-.6,2.309-1.22,4.645-1.822,6.9-.755,2.829-1.534,5.75-2.265,8.633a3.269,3.269,0,0,0,.278,2.179c2.614,4.666,4.677,8.2,6.688,11.471a2.136,2.136,0,0,1,.459,1.636,1.78,1.78,0,0,1-1.01,1.022L112.9,197.684c-.12.064-.241.127-.363.189-.25.129-.5.259-.744.4l-.006,0a4.248,4.248,0,0,1-1.666.783c-.456,0-.735-.466-1.349-1.487l-6.937-11.557-.8-1.326q-5.125-8.539-10.251-17.078c-.171-.284-.351-.562-.559-.884-.113-.175-.234-.362-.367-.571q-1.378,3.726-2.743,7.409c-3.18,8.585-6.184,16.693-9.211,24.989-.337.923-.684,1.495-1.372,1.495a2.16,2.16,0,0,1-.886-.235c-.576-.224-1.175-.46-1.7-.669-1.185-.467-2.409-.951-3.629-1.4-3.987-1.472-8.033-2.953-11.945-4.385l-4.583-1.678c-.278-.113-.557-.236-.828-.354a14.867,14.867,0,0,0-1.88-.725,1.578,1.578,0,0,1-1.068-.676,1.709,1.709,0,0,1,.111-1.361c5.346-14.336,10.723-28.872,16.222-43.744a14.115,14.115,0,0,1,4.876-6.684,10.027,10.027,0,0,1,1.589-.878,5.757,5.757,0,0,0,2.164-1.443,5.641,5.641,0,0,0,.851-2.3,7.761,7.761,0,0,1,.616-1.971,40.952,40.952,0,0,1,2.545-4c.378-.547.769-1.112,1.145-1.681H78.978l-7.589,0-7.587,0c-5.08,0-11.769,0-18.453-.034Zm192.36,86.585c14.555,0,30.176.008,45.785.063h.058c2.19,0,3.711-.441,4.523-2.636a8.277,8.277,0,0,1,.607-1.2,4.35,4.35,0,0,0,.751-1.927c.1-3.274.087-6.6.079-9.824,0-1.694-.008-3.445,0-5.167,0-.317-.007-.575-.018-.9-.016-.457-.036-1.027-.036-2.048,0-.285,0-.567,0-.845v-.01c.019-2.858.036-5.326-1.924-7.562a3.079,3.079,0,0,1-.354-.544c-.031-.055-.061-.11-.093-.165-.4-.685-.5-1.035-.381-1.246s.468-.294,1.239-.3c1.062-.007,2.207-.01,3.606-.01l2.531,0h.1l2.43,0c1.675,0,2.516,0,2.928-.423s.392-1.3.343-3.025l.3-.037h.007c.213-.027.433-.054.65-.07a4.9,4.9,0,0,0,3.779-7.7c-1.154-1.744-2.958-2.066-4.735-2.155V151.349c-.384.093-.757.182-1.124.268l-.007,0c-.764.181-1.486.352-2.209.543a6.82,6.82,0,0,0-3.961,2.668,6.9,6.9,0,0,0-1.122,4.658,6.631,6.631,0,0,0,6.408,5.882l-1.312,1.12-.154-.067-.008,0a3.721,3.721,0,0,0-.354-.143,8.578,8.578,0,0,1-4.314-3,7.948,7.948,0,0,1,.285-9.568,8.573,8.573,0,0,1,4.48-2.729c.385-.1.777-.2,1.157-.292h.007c.508-.126,1.032-.256,1.545-.4a54.467,54.467,0,0,1,14.246-2,46.784,46.784,0,0,1,7.789.651,59.45,59.45,0,0,1,15.369,4.821,67.523,67.523,0,0,1,13.609,8.609c.222.179.45.357.672.529l.006.006h0l.354.276a153.878,153.878,0,0,1-9.072-26.315,146.3,146.3,0,0,1-3.986-27.544c-.353.737-.7,1.477-1.026,2.192l0,0c-.733,1.582-1.425,3.077-2.219,4.551A64.253,64.253,0,0,1,324,131.04a53.517,53.517,0,0,1-15.16,10.672,59.489,59.489,0,0,1-11.111,3.551c-.949.236-1.93.479-2.9.733a13.009,13.009,0,0,0-9.51,15.639c1.123,5.091,5.865,9.514,10.57,9.859q.416.7.834,1.408c-6.8-.821-12.192-6.064-12.814-12.465a14.816,14.816,0,0,1,2.237-9.622,14.1,14.1,0,0,1,7.807-5.8,28.943,28.943,0,0,1,4.478-1.1c1.262-.175,1.484-.764,1.484-1.935-.024-36.4-.024-73.316-.024-109.013V14.784c0-.516,0-1.05-.024-1.574a12.621,12.621,0,0,0-3.519-8.077,11.842,11.842,0,0,0-7.872-3.759c-1.647-.095-3.441-.141-5.487-.141-1.963,0-3.96.042-5.891.082h-.01l-1.911.039a3.5,3.5,0,0,0-3.57,3.4c-.4,3.536-2.066,5.045-5.579,5.046l-19.759,0-19.759,0c-3.7,0-5.258-1.357-5.746-5-.3-2.247-1.538-3.407-3.68-3.448-1.467-.028-3.059-.041-4.866-.041s-3.644.013-5.421.026h-.027c-1.026.007-2.086.015-3.129.02a5.353,5.353,0,0,0-1.093.16l-.008,0-.14.03a12.434,12.434,0,0,0-6.9,4.229,13.876,13.876,0,0,0-3.105,9.038c.047,43.113.046,86.947.045,129.339v.03c0,17.862,0,36.333,0,54.613a16.669,16.669,0,0,0,.238,3.344,12.59,12.59,0,0,0,4.509,7.476,13.538,13.538,0,0,0,8.5,2.8h31.988Zm50.628-33.05c.129.222.243.433.353.636a8.147,8.147,0,0,0,.695,1.139,7.137,7.137,0,0,1,1.312,4.706c-.1,7.366-.1,13.026.008,18.353a9.4,9.4,0,0,1-1.729,6.414c-.345.434-.463.725-.371.916s.418.29,1.014.29h.009c8.9-.011,18.137-.016,27.444-.016,9.051,0,18.485.005,28.041.015h.006c.594,0,.9-.081.984-.263s-.03-.441-.355-.841c-1.669-2.056-1.854-4.424-1.8-6.676.127-5.756.126-11.459,0-16.951-.054-2.282.134-4.685,1.855-6.8a2.236,2.236,0,0,0,.295-.563c.047-.113.1-.231.156-.357ZM75.131,137.421c-.2.093-.379.176-.539.249l-.008,0c-.323.147-.6.274-.863.421a13.442,13.442,0,0,0-3.756,3.1,14.326,14.326,0,0,0-2.409,4.236l-.607,1.643c-4.955,13.417-10.079,27.291-15.162,40.94a1.5,1.5,0,0,0-.126,1.1c.11.238.369.418.866.6,8.385,3.06,15.8,5.813,22.657,8.418a2.243,2.243,0,0,0,.772.18c.5,0,.716-.348.968-1.033,3.65-9.954,7.455-20.241,11.632-31.449a2.385,2.385,0,0,0-.215-2.334c-1.648-2.694-3.3-5.449-4.893-8.113l-.008-.014c-1.44-2.405-2.93-4.893-4.414-7.327-1.934-3.174-3.935-6.457-3.893-10.622Zm11.85-11.588c-.988,0-1.793.021-2.536.067a4.984,4.984,0,0,0-2.544.85,13.114,13.114,0,0,0-5.15,8.118,13.838,13.838,0,0,0,1.764,9.635c2.795,4.717,5.671,9.492,8.452,14.111l.009.015c1.094,1.816,2.333,3.874,3.551,5.9l3.061,5.1c5.268,8.776,10.715,17.851,16.1,26.786a2.584,2.584,0,0,1,.149.311c.134.313.273.636.623.637a1.2,1.2,0,0,0,.594-.214c3.35-2.04,6.762-4.1,10.062-6.1,3.762-2.275,7.65-4.627,11.464-6.954a1.081,1.081,0,0,0,.25-1.029c-.555-1.069-1.178-2.125-1.78-3.147l0,0q-.252-.428-.5-.856l-3.233-5.536-.034-.057c-5.032-8.615-10.235-17.522-15.337-26.292a2.9,2.9,0,0,1-.281-.945c-.027-.151-.055-.308-.093-.456.15-.028.3-.068.453-.106a3.407,3.407,0,0,1,.831-.145c.046,0,.092,0,.136.006,1.169.114,2.355.254,3.5.388h.006c1.541.181,3.133.368,4.7.5,1.359.112,2.742.235,4.079.354l.026,0c4.23.377,8.6.766,12.913.854l.267,0a13.318,13.318,0,0,0,13.071-11.15,38.762,38.762,0,0,0,.222-7.572c-.024-.674-.049-1.37-.064-2.051-.052-2.4-.113-2.8-1.953-2.8-.309,0-.668.011-1.105.025a2.2,2.2,0,0,0-1.49.654c-1.882,2.384-3.774,4.825-5.6,7.185l0,.005c-2.134,2.751-4.34,5.6-6.542,8.369a9.8,9.8,0,0,1-7.686,3.979,10.558,10.558,0,0,1-6.549-2.452c-2.05-1.626-4.121-3.295-6.124-4.908-1.071-.863-2.178-1.755-3.269-2.63l-.979-.785c-3.65-2.927-7.424-5.953-11.159-8.926a2.255,2.255,0,0,0-.647-.312c-.106-.038-.214-.077-.318-.122-.022.089-.053.181-.083.27a1.464,1.464,0,0,0-.115.588.826.826,0,0,1-.132.655,1.036,1.036,0,0,1-.774.2h-.123c-.843-.008-1.765-.011-2.9-.011l-1.843,0h-.08l-1.761,0v.014c-.587,0-1.176-.007-1.745-.014H88.7C88.138,125.84,87.554,125.833,86.981,125.833Zm255.66-26.4h0c-.881,0-1.626.788-2.154,2.279A7.417,7.417,0,0,0,340,103.6c-.048.687-.106,1.386-.162,2.061a52.48,52.48,0,0,0-.268,6.165c.331,9.227,2.029,18.918,5.343,30.5,1.992,6.961,4.622,15.058,9.025,22.331a22.557,22.557,0,0,0,3.553,4.456,2.657,2.657,0,0,0,1.766.9c.8,0,1.49-.645,1.984-1.864a8.006,8.006,0,0,0,.571-2.009c.2-1.633.374-3.3.539-4.907q.1-.948.2-1.9a129.866,129.866,0,0,0-3.835-25.577c-1.862-7.663-4.635-17.644-9.595-26.888a32.412,32.412,0,0,0-4.328-6.141,3.121,3.121,0,0,0-2.148-1.3Zm-226.18,52.808c3.231,5.538,6.325,10.84,9.49,16.262.055-.074.1-.13.138-.175a.513.513,0,0,0,.115-.174q.688-2.543,1.371-5.087l.008-.031c.869-3.23,1.768-6.57,2.667-9.85a.889.889,0,0,0-.017-.755c-.141-.184-.438-.2-.784-.2h-.135c-1.56.007-3.225.01-5.4.01h-7.457Zm-2.92-5.279h0a2.428,2.428,0,0,0,2.685,2.1c.071,0,.146,0,.222,0,1.362-.047,2.852-.069,4.689-.069.977,0,1.971.006,2.932.012h.015l.3,0h.028c.891,0,1.812.01,2.718.01h.357a6.5,6.5,0,0,0,.738-.059c.113-.013.231-.027.346-.038,0-.108-.008-.216-.013-.324l-11.934-1.3-3.086-.336Zm37.166,2.055c2.983,0,6.92,0,10.914.031h.034c.963,0,1.309-.3,1.482-1.277.365-2.057.794-4.138,1.208-6.15l0-.012c.195-.946.4-1.923.588-2.886q.764-3.827,1.53-7.654c1.5-7.507,3.056-15.27,4.551-22.922a6.341,6.341,0,0,0-.937-4.629,6.558,6.558,0,0,0-3.766-2.841,2.37,2.37,0,0,0-.612-.1c-.45,0-.716.269-.887.9a14.225,14.225,0,0,1-5.223,7.576,17.159,17.159,0,0,1-7.713,3.025l-4.069-.392-2.271-.218c3.035,3.467,3.748,5.984,2.932,10.36-.058.313-.076.547.029.673.081.1.23.137.514.137h.063c.309-.005.638-.008,1.006-.008.483,0,.974,0,1.449.009h.011q.514,0,1.028.008c.045.121.1.244.157.363a2.152,2.152,0,0,1,.251.779c.03.75.063,1.52.093,2.2.112,2.584.228,5.253.216,7.877a15.065,15.065,0,0,1-2.818,8.708,15.363,15.363,0,0,1-7.3,5.552c-.6.218-1.223.4-1.884.592-.335.1-.678.2-1.044.308h1.914l3.376,0h.03ZM86.22,106.454c-.133,0-.346.175-.487.338a.627.627,0,0,0-.2.39c.46,3.28.99,6.716,1.619,10.5.04.244.435.506.692.594.789.27,1.6.524,2.382.77l.005,0c.687.216,1.4.439,2.093.672a10.809,10.809,0,0,1,1.014.42,5.489,5.489,0,0,0,1.844.593,5.077,5.077,0,0,1,4.194,2.072,4.173,4.173,0,0,0,.882.822c.086.066.176.135.261.2,4.273,3.432,8.732,7.009,12.666,10.165l.4.324,7.891,6.332A9.357,9.357,0,0,0,127.3,142.9a7.7,7.7,0,0,0,3.635-.92,10.2,10.2,0,0,0,3.2-2.744c2.679-3.391,5.378-6.853,7.988-10.2l.014-.018q1.6-2.057,3.209-4.113a9.226,9.226,0,0,0,2.066-5.811,8.969,8.969,0,0,0-8.991-8.959,8.678,8.678,0,0,0-6.674,3.081c-2.135,2.544-4.124,5.159-5.62,7.152-.409.546-.761.779-1.177.779a2.128,2.128,0,0,1-1.011-.339c-2.114-1.191-4.28-2.372-6.376-3.514-3.578-1.95-7.275-3.964-10.823-6.094-5.3-3.184-11.237-3.785-16.978-4.367-1.154-.117-2.348-.238-3.523-.379H86.22ZM39.9,90.544a7.818,7.818,0,0,0-.827.035A4.243,4.243,0,0,0,36.1,92.14a4.192,4.192,0,0,0-.751,3.228c.546,3.606,1.105,7.272,1.646,10.818l.02.129c.828,5.427,1.684,11.038,2.515,16.58.133.886.372,1.282,1.438,1.282H41c5.422-.034,10.851-.038,14.975-.038l6.173,0,6.173,0H78.351c5.218,0,11.369,0,17.429-.01h.01a2.416,2.416,0,0,1,.245.018h.008a2.691,2.691,0,0,0,.277.02.445.445,0,0,0,.368-.129.7.7,0,0,0,.057-.575,2.675,2.675,0,0,1-.035-.426c-.014-.491-.027-.955-.873-.955l-.091,0c-.865.031-1.8.046-2.937.046-.7,0-1.413-.005-2.1-.011h-.021c-.683-.005-1.39-.01-2.084-.01-2,0-2,0-2.285-1.915l-.015-.1,0-.025c-1.244-8.241-2.531-16.763-3.843-25.146-.538-3.439-1.672-4.381-5.275-4.381H39.9Zm48.437,29.17a1.388,1.388,0,0,0-.562.2,3.163,3.163,0,0,1-.311.148,3.9,3.9,0,0,1,.288.32c.2.244.417.5.654.529a8.951,8.951,0,0,0,1.185.067c.264,0,.53-.007.788-.013h.007c.261-.006.53-.013.794-.013l.041-.163.042-.166c-.262-.086-.527-.177-.783-.265-.669-.229-1.36-.466-2.055-.636A.376.376,0,0,0,88.337,119.714Zm55.922-45.488h0a8.4,8.4,0,0,0-1.166.081c-1.121.157-1.523.672-1.385,1.776a5.522,5.522,0,0,1-1.22,4.183,2.476,2.476,0,0,0-.412.994c-.054.251-.113.508-.165.735a18.166,18.166,0,0,0-.475,2.688c-.08,1.087-.115,2.367.326,2.622.5.29.774.571.825.86.063.354-.2.669-.479,1a4.5,4.5,0,0,0-.321.415c-2.949,4.54-3.245,9.181-.879,13.8a13.259,13.259,0,0,0,4.746,5.308,13.409,13.409,0,0,0,6.385,1.967h.056a14.356,14.356,0,0,0,9.038-3.041,13.166,13.166,0,0,0,4.738-7.746A13.416,13.416,0,0,0,155.948,84.9c-.2-.084-.425-.155-.64-.224-.6-.191-1.213-.388-1.428-.873a1.748,1.748,0,0,1,.18-1.409.122.122,0,0,0-.011-.084.329.329,0,0,1-.015-.051,9.309,9.309,0,0,0-3.448-5.687,10.271,10.271,0,0,0-6.327-2.349Zm-11.094,16a2.182,2.182,0,0,1,.558.107c.117.033.237.067.353.087a3.353,3.353,0,0,0-.127.34,1.13,1.13,0,0,1-.353.625,13.421,13.421,0,0,1-2.051.926l-.107.041a8.6,8.6,0,0,1-1.04.3c-.755.182-1.467.354-1.649.773a3.739,3.739,0,0,0,.223,2.3c.078.269.159.547.218.806a5.179,5.179,0,0,0,5.144,4.094c.186,0,.375-.009.563-.027a1.508,1.508,0,0,0,1.121-.432,1.444,1.444,0,0,0,.161-1.13,14.264,14.264,0,0,1,1.931-9.4,1.831,1.831,0,0,0,.3-1.164,12.382,12.382,0,0,1,.1-6.3l.059-.1.061-.107-.337-.023c-.057.015-.115.036-.172.057a.93.93,0,0,1-.3.076.3.3,0,0,1-.065-.007,5.4,5.4,0,0,1-.752-.25c-.094-.036-.2-.077-.3-.114.061-.091.121-.186.179-.278a3.862,3.862,0,0,1,.463-.638.815.815,0,0,1,.375-.173,1.558,1.558,0,0,0,.261-.09,4.345,4.345,0,0,0,2-2.018,4.059,4.059,0,0,0,.269-2.762,4.124,4.124,0,0,0-4.109-3.23c-.072,0-.145,0-.219,0-2.162.1-3.7,1.661-4,4.083a1.711,1.711,0,0,1-.446.775c-.093.114-.19.232-.268.351a4.119,4.119,0,0,0-.245-.388c-.193-.282-.393-.574-.342-.807a1.887,1.887,0,0,0-1.126-2.225,9.414,9.414,0,0,1-1.857-1.684c-.74-.808-1.475-1.637-2.186-2.439l-.006-.007c-.778-.876-1.582-1.783-2.388-2.659a1.408,1.408,0,0,0-.83-.4.29.29,0,0,0-.129.025,6.353,6.353,0,0,0-2.95,3.768A7.347,7.347,0,0,0,119.3,76.4c.1-.128.188-.262.277-.392a3.782,3.782,0,0,1,.676-.82,1.489,1.489,0,0,1,.714-.23c.118-.018.24-.037.353-.065,0,.116.009.241.019.362a1.335,1.335,0,0,1-.064.738,9.752,9.752,0,0,1-1.322,1.8c-.465.505-.928,1.1-.828,1.653.072.4.421.754,1.068,1.083.187.1.265.411.341.717a3.762,3.762,0,0,0,.118.409c-.141-.015-.291-.017-.437-.019a1.917,1.917,0,0,1-.9-.15,10.7,10.7,0,0,1-1.4-1.011c-.2-.165-.416-.335-.64-.506a10.581,10.581,0,0,0,.583,4.473,10.8,10.8,0,0,0,2.236,3.69,10.385,10.385,0,0,0,7.586,3.417,9.852,9.852,0,0,0,1.734-.155,12.693,12.693,0,0,0,2.123-.648c.471-.174.957-.354,1.446-.491A.68.68,0,0,1,133.165,90.23ZM118.319,76.908l-.29.432-.723,1.078.06.048.252.2.635-.856.074-.1.391-.527Zm3.621-11.582h0c.172.074.361.136.544.2a2.586,2.586,0,0,1,1.071.535c1.5,1.549,2.985,3.154,4.423,4.707.74.8,1.506,1.626,2.265,2.436a1.173,1.173,0,0,0,.808.47c.285,0,.584-.2.94-.617a5.433,5.433,0,0,1,4.141-1.952,5.5,5.5,0,0,1,2.943.864,10.694,10.694,0,0,1,1.039.782c.159.13.323.264.493.4a10.181,10.181,0,0,0-2.208-7.063,11.432,11.432,0,0,0-9.041-4.4,9.844,9.844,0,0,0-7.706,3.469l-.066.071-.013.014-.111.121c-.031.144-.061.288-.09.431l-.015.016-.032.027-.012.014-.066-.009-.094-.013c.006.041.011.081.016.122l.008.061.136-.161.046.007.013-.06.113-.1.144-.122.14-.113.033-.026.136-.11ZM220.481,1.294c.136.34.291.674.441,1a8.067,8.067,0,0,1,.759,2.113c.277,1.783.694,2.813,1.395,3.445.717.645,1.772.921,3.53.921l16.327,0c7.407,0,15.1,0,22.872,0a11.808,11.808,0,0,0,1.536-.078A3.573,3.573,0,0,0,269.37,7.7a3.972,3.972,0,0,0,1.106-1.983c.236-1.038.536-2.077.826-3.082l0-.013c.126-.436.256-.887.379-1.331Z" transform="translate(0)" fill="#2b2d3b"/>
        </g>
      </g>
      <path id="Fill_4" data-name="Fill 4" d="M20.074.058l.373,1.919a6.641,6.641,0,0,0,7.912,5.316c.63-.129,1.024-.207,1.287.536a14.552,14.552,0,0,0,4.707,6.5H27.905a25.223,25.223,0,0,0,1.717-2.3,3.791,3.791,0,0,0,.193-1.446c-.451.186-1.06.245-1.327.578q-5.115,6.4-10.125,12.884c-.6.774-1.015.943-1.9.417-2.287-1.354-4.628-2.621-6.987-3.847a1.51,1.51,0,0,1-.927-1.637,31.743,31.743,0,0,0-.016-3.641c-.024-.364-.4-.7-.621-1.055-.288.348-.79.677-.823,1.048-.106,1.2-.04,2.42-.04,3.941L0,15.244C2.1,12.4,4.343,9.653,6.28,6.7,9.582,1.673,14.2-.383,20.074.058" transform="translate(107.277 94.628)" fill="#f37777"/>
      <path id="Fill_6" data-name="Fill 6" d="M12.838,0q.007,5.513.013,11.025C8.861,10.174,4.876,9.3.876,8.488-.391,8.232.007,7.468.291,6.827A9.585,9.585,0,0,1,4.5,2.511,20.409,20.409,0,0,1,12.838,0" transform="translate(29.604 195.815)" fill="#f37777"/>
      <path id="Fill_8" data-name="Fill 8" d="M0,28.057c-.071-4.691,2.2-7.624,6.758-8.73,1.4-.339,2.806-.643,4.19-1.035a6.727,6.727,0,0,0,5.293-5.8L36.978,0c2.03,7.062,4.07,14.121,6.054,21.2a1.239,1.239,0,0,1-.584,1.059c-2.029.679-4.093,1.251-6.144,1.862-.776.232-1.182-.026-1.417-.83-.653-2.232-1.38-4.444-2.084-6.661-.079-.248-.2-.482-.416-.985-.845,3.132-1.652,5.982-2.366,8.855a1.953,1.953,0,0,1-1.593,1.632c-2.2.569-4.37,1.253-6.553,1.89L0,28.057" transform="translate(96.66 185.193)" fill="#f37777"/>
      <path id="Fill_10" data-name="Fill 10" d="M31.847,8.134q-1.433,6.8-2.867,13.6l-.986.006c-.167-.144-.313-.375-.5-.419-1.631-.381-3.262-.77-4.908-1.069-.756-.137-.9-.432-.711-1.136.341-1.257.613-2.533.892-3.806.26-1.187.49-2.38.814-3.965-2.654,2.308-5,4.285-7.264,6.353a2.481,2.481,0,0,1-2.5.68C9.224,17.346,4.618,16.41.02,15.44Q.01,9.566,0,3.692C3.752,3.606,7.244,2.82,9.985,0q8.266,3.03,16.529,6.063c1.788.661,3.555,1.379,5.332,2.07" transform="translate(43.805 191.683)" fill="#f37777"/>
      <path id="Fill_12" data-name="Fill 12" d="M2.29.677,4.3,0C6.168.092,7.914.453,9.039,2.154a4.744,4.744,0,0,1,.405,4.9A4.7,4.7,0,0,1,5.26,9.849c-.321.022-.64.071-.961.107L1.164,8.211.328,6.8a5.649,5.649,0,0,1,.649-5L2.29.677" transform="translate(295.557 164.691)" fill="#f37777"/>
      <path id="Fill_14" data-name="Fill 14" d="M6.341.611q.344,5.284.69,10.568c-1.164-.005-2.329-.029-3.493-.008-.633.011-.73-.14-.605-.81C3.758,5.931,3.008,3.436,0,0L6.341.611" transform="translate(145.538 111.467)" fill="#f37777"/>
      <path id="Fill_16" data-name="Fill 16" d="M63.727,0c5.121.807,5.433,7.928,2.954,10.915a8.01,8.01,0,0,1-6.432,3.117Q33.225,14.064,6.2,14.1A6.893,6.893,0,0,1,0,11.025q27.523.023,55.046.034a11.589,11.589,0,0,0,2.911-.275c4.7-1.232,6.934-5.459,5.77-10.785" transform="translate(216.854 129.439)" fill="#f37777"/>
      <path id="Fill_18" data-name="Fill 18" d="M62.191,16.645c-15.408,0-31.075-.014-46.226-.027h-.012L7.144,16.61A8.563,8.563,0,0,1,1.1,12.45,8.293,8.293,0,0,1,.51,5.459,8.175,8.175,0,0,1,3.543,1.524,8.594,8.594,0,0,1,8.4.021C9.916.01,11.575,0,13.475,0c1.645,0,3.318,0,4.936.007h.026c1.483,0,3.017.007,4.526.007,3.6,0,7.261.007,10.8.013,4.007.006,8.146.013,12.216.013C52,.046,56.968.031,61.6,0h.114a10.64,10.64,0,0,1,5.515,1.3,8.978,8.978,0,0,1,3.639,4.284,10.043,10.043,0,0,1-.686,6.927A7.79,7.79,0,0,1,65.1,16.37,11.618,11.618,0,0,1,62.191,16.645Zm-26.542-1h0v.033H49.1q6.725,0,13.451,0a7.263,7.263,0,0,0,6.756-3.729,7.171,7.171,0,0,0-.011-7.2,7.083,7.083,0,0,0-6.125-3.613c-3.421-.034-7.166-.05-11.784-.05-2.436,0-4.9,0-7.07.008l-1.149,0h-.008c-2.027,0-4.123.006-6.183.006h-.707L27.444,1.09c-3.986,0-8.107-.007-12.162-.007-2.435,0-4.644,0-6.754,0a7.142,7.142,0,0,0-6.943,4.5,7.092,7.092,0,0,0,.629,6.729A7.378,7.378,0,0,0,4.856,14.7a7.917,7.917,0,0,0,3.753.927c3.239.013,6.727.019,10.977.019,2.689,0,5.405,0,8.032,0S32.972,15.64,35.649,15.64Z" transform="translate(209.709 123.854)" fill="#2b2d3b"/>
      <path id="Fill_20" data-name="Fill 20" d="M9.741,20.13a7.944,7.944,0,0,1-.752-1.279c-.414-1.285-.834-2.575-1.14-3.888a3.682,3.682,0,0,0-2.9-3.034c-1.4-.347-2.774-.81-4.135-1.292C.489,10.523.268,10.127,0,9.861c.255-.237.47-.588.771-.692,1.541-.532,3.1-1.017,4.662-1.484A3,3,0,0,0,7.589,5.509c.459-1.565.917-3.132,1.443-4.675C9.144.5,9.55.275,9.82,0c.257.291.638.54.751.879.471,1.413.9,2.844,1.273,4.287a3.359,3.359,0,0,0,2.6,2.624c1.262.329,2.513.711,3.738,1.158a7.509,7.509,0,0,1,1.428.92,6.067,6.067,0,0,1-1.354.964c-1.313.473-2.665.844-4.01,1.225A3.021,3.021,0,0,0,11.98,14.3c-.425,1.526-.9,3.039-1.405,4.541a7.19,7.19,0,0,1-.833,1.293" transform="translate(209.625 33.063)" fill="#f37777"/>
      <path id="Fill_22" data-name="Fill 22" d="M9.4,18.913h-.01a9.3,9.3,0,0,1-6.644-2.778,9.508,9.508,0,0,1,0-13.375A9.319,9.319,0,0,1,9.4,0h.027a9.434,9.434,0,0,1,6.635,16.134A9.367,9.367,0,0,1,9.4,18.913ZM9.421,1.8a7.592,7.592,0,0,0-7.64,7.6,7.7,7.7,0,0,0,2.2,5.447,7.567,7.567,0,0,0,5.372,2.291h.069a7.7,7.7,0,0,0,5.4-13.092A7.545,7.545,0,0,0,9.454,1.8Z" transform="translate(209.517 58.42)" fill="#2b2d3b"/>
      <path id="Fill_24" data-name="Fill 24" d="M9.469,18.917q-.118,0-.237,0A9.453,9.453,0,0,1,2.606,16,9.34,9.34,0,0,1,0,9.285,9.42,9.42,0,0,1,9.466,0c.084,0,.168,0,.252,0a9.263,9.263,0,0,1,6.511,2.948A9.358,9.358,0,0,1,18.847,9.63,9.5,9.5,0,0,1,9.469,18.917Zm-.1-17.141h0A7.5,7.5,0,0,0,4.035,4.008a7.724,7.724,0,0,0-.083,10.828,7.511,7.511,0,0,0,5.366,2.277h.058a7.585,7.585,0,0,0,7.651-7.567A7.657,7.657,0,0,0,9.485,1.777H9.368Z" transform="translate(209.52 82.941)" fill="#2b2d3b"/>
      <path id="Fill_26" data-name="Fill 26" d="M20.016.024q9.026,0,18.051,0a2.874,2.874,0,0,1,1.105.056c.334.149.833.572.791.782a1.634,1.634,0,0,1-.808.936,2.522,2.522,0,0,1-1.1.062q-18.051,0-36.1,0c-.186,0-.408.065-.553-.013C.918,1.594.464,1.288,0,1,.468.675.93.078,1.406.067,4.949-.012,8.495.024,12.04.024Z" transform="translate(241.887 66.998)" fill="#2b2d3b"/>
      <path id="Fill_28" data-name="Fill 28" d="M19.883,1.787q-8.969,0-17.938,0A3.936,3.936,0,0,1,.7,1.716c-.295-.1-.719-.485-.7-.7A1.338,1.338,0,0,1,.65.1,3.054,3.054,0,0,1,1.891.025q18.079,0,36.157,0c.14,0,.306-.049.416.008C38.975.3,39.846.545,39.9.9c.132.9-.712.886-1.376.887q-4.134,0-8.268,0H19.883" transform="translate(241.935 92.438)" fill="#2b2d3b"/>
      <path id="Fill_30" data-name="Fill 30" d="M19.829,1.8q-9.039,0-18.078,0a2.444,2.444,0,0,1-1.1-.07A1.4,1.4,0,0,1,0,.8C-.023.59.4.207.695.1A3.91,3.91,0,0,1,1.943.033q18.008,0,36.017,0c.233,0,.512-.081.692.017a15.426,15.426,0,0,1,1.317.883c-.454.288-.906.822-1.362.826-6.259.055-12.519.037-18.779.037" transform="translate(241.935 41.907)" fill="#2b2d3b"/>
      <path id="Fill_32" data-name="Fill 32" d="M6.985.95C4.977.95,2.968.973.961.927.637.919.32.6,0,.429.3.287.606.023.911.021Q7-.02,13.1.025c.322,0,.642.324.963.5a3.371,3.371,0,0,1-1.054.409C11,.971,8.993.95,6.985.95" transform="translate(277.725 13.535)" fill="#2b2d3b"/>
      <path id="Fill_34" data-name="Fill 34" d="M7.029.918C4.976.918,2.923.935.871.9.578.893.29.62,0,.472.286.316.572.024.859.022q6.159-.045,12.318,0c.291,0,.581.286.871.439-.286.152-.571.431-.86.436-2.053.038-4.106.02-6.158.021" transform="translate(277.731 16.817)" fill="#2b2d3b"/>
      <path id="Fill_36" data-name="Fill 36" d="M7.135.007c1.865,0,3.731-.025,5.6.018A5.463,5.463,0,0,1,14.058.4,4.065,4.065,0,0,1,12.8.863Q6.993.918,1.187.866A4.036,4.036,0,0,1,0,.464,3.586,3.586,0,0,1,1.12.028c2-.044,4.01-.021,6.015-.021" transform="translate(277.726 10.295)" fill="#2b2d3b"/>
      <path id="Fill_38" data-name="Fill 38" d="M6.7,4.007a2.707,2.707,0,0,1-2.7,2.788A4.41,4.41,0,0,1,0,2.837,2.787,2.787,0,0,1,2.817,0,4.219,4.219,0,0,1,6.7,4.007" transform="translate(56.332 105.761)" fill="#f37777"/>
      <path id="Fill_40" data-name="Fill 40" d="M0,8.964A8.954,8.954,0,0,1,9.137.006,9.037,9.037,0,0,1,18.19,9.281,9.065,9.065,0,0,1,8.826,18.2,8.928,8.928,0,0,1,0,8.964" transform="translate(308.244 186.401)" fill="#f37777"/>
      <path id="Fill_42" data-name="Fill 42" d="M2.521,2.286a9.963,9.963,0,0,1,1.8-.069,3.054,3.054,0,0,1,.943.548c-.231.243-.433.655-.7.7A28.413,28.413,0,0,1,.822,3.9C-.059,3.927-.229,3.349.3,2.7A24.269,24.269,0,0,1,2.465.317C2.722.074,3.229.1,3.622,0a4.854,4.854,0,0,1-.19,1.19,5.815,5.815,0,0,1-.911,1.1" transform="translate(133.726 74.247)" fill="#2b2d3b"/>
      <path id="Fill_44" data-name="Fill 44" d="M2.574,2.569C1.67,2.011.844,1.56.1,1-.074.863.035.353.013.017.35.038.815-.076,1,.1a2.018,2.018,0,0,0,3.08.107c.173-.148.682-.057.925.1a.887.887,0,0,1-.061.821c-.686.495-1.442.893-2.371,1.443" transform="translate(118.376 83.284)" fill="#2b2d3b"/>
      <path id="Fill_46" data-name="Fill 46" d="M.847,1.957C.426,1.376.031,1.058,0,.709-.02.479.473.016.755,0s.786.408.793.65c.01.342-.348.7-.7,1.307" transform="translate(123.674 76.216)" fill="#2b2d3b"/>
      <path id="Fill_48" data-name="Fill 48" d="M0,14.816,8.748,0" transform="translate(361.701 107.549)" fill="#fff"/>
      <path id="Fill_50" data-name="Fill 50" d="M.966,15.386,0,14.816,8.748,0l.966.57Z" transform="translate(361.218 107.264)" fill="#2b2d3b"/>
      <path id="Fill_52" data-name="Fill 52" d="M0,4.95,19.22,0" transform="translate(365.64 127.994)" fill="#fff"/>
      <path id="Fill_54" data-name="Fill 54" d="M.28,6.035,0,4.95,19.22,0l.28,1.086Z" transform="translate(365.501 127.451)" fill="#2b2d3b"/>
      <path id="Fill_56" data-name="Fill 56" d="M0,0,14.817,8.747" transform="translate(367.301 144.108)" fill="#fff"/>
      <path id="Fill_58" data-name="Fill 58" d="M14.817,9.713,0,.966.57,0,15.387,8.747Z" transform="translate(367.017 143.626)" fill="#2b2d3b"/>
    </g>
  </g>
</svg>
