<svg xmlns="http://www.w3.org/2000/svg" xmlns:xlink="http://www.w3.org/1999/xlink" width="335" height="180" viewBox="0 0 335 180">
  <defs>
    <clipPath id="clip-path">
      <path id="Mask" d="M0,0H335a0,0,0,0,1,0,0V162.2A17.8,17.8,0,0,1,317.2,180H17.8A17.8,17.8,0,0,1,0,162.2V0A0,0,0,0,1,0,0Z" transform="translate(335 180) rotate(-180)" fill="#bbcde5"/>
    </clipPath>
    <clipPath id="clip-path-2">
      <path id="Clip_10" data-name="Clip 10" d="M0,0H367V73.461H0Z" fill="none"/>
    </clipPath>
    <clipPath id="clip-path-3">
      <path id="Clip_13" data-name="Clip 13" d="M0,0H116.2V129.453H0Z" fill="none"/>
    </clipPath>
  </defs>
  <g id="Recurso_6_2x" data-name="Recurso 6@2x" clip-path="url(#clip-path)">
    <g id="Group_83" data-name="Group 83" transform="translate(-22 17)">
      <path id="Fill_1" data-name="Fill 1" d="M0,112.76.012,2.191c0-.42.022-.842,0-1.261C-.03.269.256-.02.914.032c.278.022.558,0,.838,0Q33.665.033,65.578,0c1.412,0,1.764.347,1.762,1.768q-.065,51.71-.031,103.422c0,.747.036,1.494.056,2.24-.336,1.014-.656,2.034-1.013,3.041-.834,2.35-.841,2.347-3.335,2.347-2.173,0-2.164,0-2.378-2.086q-1.944-18.95-3.919-37.9c-.138-1.3.052-1.929,1.466-2.375a8.161,8.161,0,0,0,5.751-8.813c-.214-2.559-.54-5.107-.795-7.663-.192-1.933-1.437-2.433-3.212-1.707-1.334.545-2.916.162-4.408.538-.739.187-1.763-.3-2.562.353a.688.688,0,0,1-.873.111,2.151,2.151,0,0,0-2.591.279c-.377.321-.654.109-1-.01a2.206,2.206,0,0,0-3.117,2.443c.222,2.371.45,4.741.733,7.106a8.846,8.846,0,0,0,7.761,7.822c1.6.116,1.919.777,1.938,2.062,0,.28.025.561.054.839q1.19,11.566,2.384,23.13c.5,4.877.987,9.756,1.526,14.628.109.988-.159,1.3-1.164,1.261-2.14-.072-4.285-.065-6.425,0a1.267,1.267,0,0,1-1.522-1.147c-.985-3.935-2.052-7.85-3.1-11.769a3.849,3.849,0,0,1,.066-2.2c.916-2.987,1.794-5.985,2.674-8.982a5.882,5.882,0,0,0,.229-1.225c.019-.264,0-.646-.3-.72-.458-.111-.466.335-.552.624-.657,2.188-1.3,4.38-1.961,6.567-.266.88-.567,1.749-.933,2.873-.435-1.693-.961-3.007-.44-4.53.89-2.6,1.591-5.266,2.38-7.9.125-.418.308-.9-.266-1.035-.461-.11-.578.379-.683.73-.483,1.608-.912,3.233-1.446,4.823-.272.81-.227,1.755-.919,2.4a8.26,8.26,0,0,1-.734-3.062,3.472,3.472,0,0,1,.227-.947c.571-1.97,1.157-3.936,1.714-5.911.105-.374.384-.9-.171-1.1-.593-.208-.629.388-.747.763-.322,1.023-.593,2.062-.943,3.074-.218.629-.124,1.4-.765,1.853a5.617,5.617,0,0,1-.551-2.391,4.858,4.858,0,0,1,.285-1.08c.353-1.209.7-2.419,1.069-3.623.112-.367.079-.7-.285-.814-.394-.122-.562.218-.664.545-.3.975-.6,1.951-.994,3.215-.456-1.66-.831-3.037-1.212-4.412-.118-.425-.109-1.1-.772-.893s-.254.776-.152,1.194c.232.951.488,1.9.728,2.846.086.34.39.81.03,1-.344.179-.592-.342-.864-.576s-.517-.545-.815-.766c-.37-.275-.7-1.069-1.217-.542-.6.615.276.926.6,1.28a18.012,18.012,0,0,0,2.01,1.944,4.173,4.173,0,0,1,1.636,3.109l-.255.242c-1.179-1.126-2.355-2.256-3.54-3.376-.295-.279-.645-.729-1.052-.312-.442.452.105.744.374,1.01,1.357,1.347,2.685,2.729,4.119,3.99a4.863,4.863,0,0,1,1.617,2.993c.047.277.331.667-.074.851-.282.128-.485-.213-.679-.4-1.517-1.45-3.018-2.916-4.541-4.359-.305-.289-.656-.9-1.129-.368s.192.816.484,1.1c1.867,1.826,3.719,3.67,5.658,5.416a4.86,4.86,0,0,1,1.662,2.965c.045.287.322.653-.035.859-.1.058-.45-.251-.644-.436-1.892-1.8-3.762-3.622-5.673-5.4-.393-.366-.819-1.287-1.4-.722-.664.641.334,1,.693,1.354,2.358,2.324,4.753,4.609,7.153,6.889a3.361,3.361,0,0,1,1.027,1.618c1.022,3.925,2.042,7.85,3.109,11.763.232.852.117,1.11-.833,1.1q-6.145-.077-12.29,0c-.993.014-1.26-.378-1.366-1.263-.4-3.289-.822-6.575-1.3-9.853a1.06,1.06,0,0,1,.735-1.356,4.482,4.482,0,0,0,2.447-5.487,4.665,4.665,0,0,0-5.171-3.115,4.556,4.556,0,0,0-3.784,4.249,4.429,4.429,0,0,0,3.856,4.713c.69.132.9.406.979,1.07q.618,4.93,1.345,9.847c.137.926-.121,1.2-1.065,1.19-4.7-.044-9.4-.013-14.107-.022Q9.565,112.8,0,112.76" transform="translate(278.983 86.04)" fill="#f37777"/>
      <path id="Fill_3" data-name="Fill 3" d="M.647,85.652A.7.7,0,0,1,0,85.317q0-1.464.01-2.927c.008-2.024.016-4.117.016-6.179V67.384C.03,45.893.033,23.671,0,1.812A2.037,2.037,0,0,1,.343.352,1.868,1.868,0,0,1,1.7,0h.017c10.7.029,21.554.043,32.256.043S55.525.029,66.227,0h.017a1.873,1.873,0,0,1,1.364.356,2.017,2.017,0,0,1,.338,1.458c-.039,5.526-.025,11.144-.012,16.577,0,1.91.009,3.885.012,5.841a6,6,0,0,0-1.237,3.47,5.968,5.968,0,0,0,1.235,3.471l0,.369q.007,1.029.013,2.059a5.765,5.765,0,0,0-2.494,4.328,5.99,5.99,0,0,0,2.484,4.542q0,21.422,0,42.845c-.018.027-.037.056-.055.085-.038.06-.078.122-.118.123-1.02.017-2.05.03-3.047.042-1.147.015-2.334.03-3.505.05H61.2c-.485,0-.545-.323-.608-.665l-.012-.066-.5-2.641-.058-.3c-.587-3.087-1.194-6.279-1.8-9.421-.053-.279-.043-.451.032-.542a.26.26,0,0,1,.214-.082,1.423,1.423,0,0,1,.413.085,30.212,30.212,0,0,0,3.084.86,3.159,3.159,0,0,0,.644.068,2.715,2.715,0,0,0,2.49-1.6,2.841,2.841,0,0,0-.538-3.361,2.634,2.634,0,0,0-1.954-.9,2.844,2.844,0,0,0-1.477.436,23.725,23.725,0,0,0-2.434,1.77l-.154.122c-.287.227-.458.319-.592.319-.19,0-.306-.2-.376-.65-.232-1.5-.485-2.8-.772-3.982a1.078,1.078,0,0,1,.052-.87,1.2,1.2,0,0,1,.877-.409c1.128-.181,2.614-.432,4.112-.764a4.732,4.732,0,0,0,2.853-1.8,4.021,4.021,0,0,0,.675-3.1,4.134,4.134,0,0,0-4.217-3.411,5.236,5.236,0,0,0-.939.087c-3.713.679-7.537,1.413-11.366,2.181a4.078,4.078,0,0,0-2.68,1.716,4.306,4.306,0,0,0-.586,3.166,3.949,3.949,0,0,0,4,3.367,4.778,4.778,0,0,0,.708-.054c1.286-.194,2.583-.452,3.837-.7l.551-.11A2.8,2.8,0,0,1,55.2,64.3c.4,0,.611.217.692.724.168,1.062.378,2.136.582,3.174V68.2c.078.4.159.814.237,1.221.054.284.045.451-.03.541a.244.244,0,0,1-.2.078,1.3,1.3,0,0,1-.414-.095,13.356,13.356,0,0,0-3.495-.913c-.106-.008-.211-.012-.313-.012a2.663,2.663,0,0,0-2.6,1.726A2.978,2.978,0,0,0,52.233,74.9a3.032,3.032,0,0,0,1.437-.4,15.681,15.681,0,0,0,2.816-2.054c.226-.2.38-.285.5-.285.169,0,.27.18.35.62.756,4.165,1.538,8.244,2.2,11.684.081.419.1.737-.057.931a1,1,0,0,1-.8.235h-.045c-1.829-.023-3.77-.034-5.935-.034-2.3,0-4.574.013-6.492.025h-.027c-.753,0-1.053-.244-1.188-.968C44.684,83,44.3,81.3,43.859,79.612a1.88,1.88,0,0,1,.58-2.3,2.441,2.441,0,0,0,.884-1.933,2.946,2.946,0,0,0-1.135-2.223,2.819,2.819,0,0,0-1.769-.611,2.87,2.87,0,0,0-2.4,1.274,3.032,3.032,0,0,0-.326,2.664,2.1,2.1,0,0,0,1.383,1.354c1.574.466,1.777,1.513,2.012,2.727l.023.118q.045.232.09.466a24.715,24.715,0,0,0,.765,3.208c.169.5.185.826.05,1.014-.173.24-.6.26-1.1.26h-.03c-8.283-.015-16.7-.017-24.842-.019h-.118c-5.458,0-11.1,0-16.651-.008a2.745,2.745,0,0,0-.306.024A2.894,2.894,0,0,1,.647,85.652ZM58.53,34.47a1.254,1.254,0,0,0-1.194.728,3.087,3.087,0,0,0,.112,3.185A1.273,1.273,0,0,0,58.559,39a2.639,2.639,0,0,0,1-.236A10.58,10.58,0,0,0,62.7,36.885a6.918,6.918,0,0,0,1.984-3.132,2.458,2.458,0,0,0-.01-2.174,2.1,2.1,0,0,0-1.791-.617h-.014a2.605,2.605,0,0,0-2.249.8,1.666,1.666,0,0,0,0,1.613,4.183,4.183,0,0,0,.394.665c.323.479.629.932.338,1.24a.374.374,0,0,1-.286.119,2.209,2.209,0,0,1-.931-.4,4.147,4.147,0,0,0-.727-.371A2.817,2.817,0,0,0,58.53,34.47Z" transform="translate(189.505 113.521)" fill="#f37777"/>
      <path id="Fill_5" data-name="Fill 5" d="M65.166,55.919c-.75,0-.991-.452-1.122-1.131-.384-1.983-.785-3.768-1.225-5.457a1.262,1.262,0,0,1,.494-1.53,2.691,2.691,0,0,0,.456-3.864,2.766,2.766,0,0,0-2.185-1.151,3.088,3.088,0,0,0-.92.149,2.668,2.668,0,0,0-2.028,2.7,2.865,2.865,0,0,0,2.263,2.8c.42.1.817.194.94.848.309,1.642.712,3.295,1.1,4.893q.1.416.2.832a.807.807,0,0,1-.037.689c-.109.139-.32.2-.686.2H62.4c-2.2-.013-4.167-.019-6-.019-2.138,0-4.1.008-6,.025h-.024a.937.937,0,0,1-1.086-.913c-.512-2.681-1.058-5.465-1.671-8.51a1.016,1.016,0,0,1,.715-1.367,7.661,7.661,0,0,0,4.964-6.87c.166-2.787.2-5.858.1-9.663-.04-1.591-.883-2.58-2.2-2.58a3.527,3.527,0,0,0-1.508.379.906.906,0,0,1-.39.1,1.068,1.068,0,0,1-.472-.144,3.849,3.849,0,0,0-1.666-.448c-1.31,0-2.076,1.022-2.1,2.8-.014.983-.019,1.982-.023,2.949,0,.78-.007,1.584-.016,2.376,0,.2-.041.577-.121.593a.341.341,0,0,1-.07.008c-.177,0-.232-.168-.285-.33-.015-.045-.029-.088-.045-.127-.268-.626-.536-1.265-.8-1.883-.451-1.074-.916-2.182-1.4-3.262a2.518,2.518,0,0,0-2.182-1.739,2.681,2.681,0,0,0-1.985,1.091c-.035.042-.068.083-.1.123a.7.7,0,0,1-.619.362,1.291,1.291,0,0,1-.13-.007,5.1,5.1,0,0,0-.518-.028,2.39,2.39,0,0,0-2.107.907,2.824,2.824,0,0,0,.005,2.647c.534,1.305,1.091,2.627,1.629,3.905.564,1.34,1.147,2.724,1.706,4.092a7.99,7.99,0,0,0,7.5,5.311c.768.039,1.113.194,1.259,1.05.518,3.028,1,5.469,1.517,7.682.148.637.14.983-.029,1.2s-.506.3-1.135.3h-.026c-6.692-.024-13.521-.027-19.9-.027H11.48c-2.607,0-5.248-.016-7.8-.031H3.65L.034,55.837q0-5.56,0-11.12V44.71C.04,30.631.044,16.072,0,1.753A1.938,1.938,0,0,1,.357.334,1.659,1.659,0,0,1,1.592,0l.2,0c1.218.034,2.519.049,4.1.049C6.98.052,8.092.045,9.168.037c.967-.007,1.967-.013,2.951-.015.133.035.266.076.393.116a3.619,3.619,0,0,0,1.07.215c.551,0,1.11,0,1.663,0,5.027,0,10.159-.1,15.688-.292L38.842.06C48,.054,57.465.049,66.782.014H66.8a1.205,1.205,0,0,1,.887.255c.232.232.248.6.247,1.125-.011,4.126,0,8.321,0,12.378v.009q0,2.064.005,4.129c-.566.037-.68.443-.791.836-.025.089-.051.18-.081.266q-.3.851-.606,1.7l0,.009c-.383,1.079-.779,2.2-1.18,3.289a1.574,1.574,0,0,0-.053.2c-.048.222-.1.451-.341.457h-.012c-.263,0-.267-.2-.271-.4a.841.841,0,0,0-.028-.247,4.525,4.525,0,0,1,.107-3.272c.469-1.2.888-2.447,1.294-3.651q.162-.482.326-.964c.02-.06.047-.123.076-.189a.8.8,0,0,0,.106-.575.406.406,0,0,0-.242-.212.651.651,0,0,0-.242-.055c-.3,0-.388.311-.469.585-.02.067-.039.13-.06.187-.383,1.032-.744,2.065-1.126,3.159l0,.007q-.211.6-.431,1.229a4.333,4.333,0,0,1-.089-3.69c.283-.672.524-1.376.757-2.057.081-.236.161-.47.242-.7.136-.388.087-.632-.15-.746a.526.526,0,0,0-.225-.06c-.259,0-.367.293-.454.528-.079.211-.156.426-.231.634-.143.4-.29.8-.45,1.2a.883.883,0,0,0-.041.165c-.029.156-.058.318-.248.318h-.027c-.088-.007-.195-.286-.235-.476-.13-.606-.256-1.223-.377-1.82-.107-.527-.218-1.07-.331-1.6-.041-.194-.156-.518-.459-.518a.49.49,0,0,0-.086.008.379.379,0,0,0-.259.154.686.686,0,0,0-.05.517q.109.56.221,1.12c.133.667.27,1.356.394,2.036.041.226.066.584-.035.644a.232.232,0,0,1-.119.035c-.133,0-.25-.132-.353-.249-.027-.031-.054-.061-.08-.088-.22-.224-.44-.456-.652-.68-.2-.208-.4-.424-.607-.633a.652.652,0,0,0-.439-.244.408.408,0,0,0-.285.132c-.273.265-.056.507.119.7l.015.017c.5.559,1.016,1.117,1.516,1.658l.469.508c.087.094.178.188.266.278a2.763,2.763,0,0,1,.985,1.68c0,.051.01.107.016.166.03.305.068.684-.046.747a.341.341,0,0,1-.164.046c-.183,0-.323-.176-.458-.346-.046-.057-.089-.111-.133-.158-.48-.51-.962-1.032-1.428-1.536q-.475-.514-.951-1.027c-.14-.15-.331-.356-.544-.356a.425.425,0,0,0-.282.121.4.4,0,0,0-.162.28c-.008.174.142.333.275.472l.066.07c.276.3.552.613.82.912.833.932,1.695,1.9,2.609,2.774A5.038,5.038,0,0,1,63.7,24.278c.02.137.078.588-.031.647a.238.238,0,0,1-.112.03c-.138,0-.256-.137-.36-.259-.026-.03-.052-.06-.077-.087q-.605-.648-1.209-1.3L61.9,23.3c-.882-.949-1.792-1.928-2.7-2.881-.05-.052-.1-.116-.152-.182-.148-.189-.316-.4-.527-.4a.472.472,0,0,0-.31.143.462.462,0,0,0-.186.334c0,.2.191.378.361.535.059.054.113.1.159.154l.8.876c1.348,1.474,2.74,3,4.164,4.438a3.846,3.846,0,0,1,1.076,2.349,1.865,1.865,0,0,0,.042.2c.056.226.115.459-.093.562a.275.275,0,0,1-.122.031c-.161,0-.287-.158-.409-.311-.04-.05-.078-.1-.116-.138-.633-.673-1.269-1.354-1.884-2.013-.979-1.048-1.991-2.132-3-3.191-.049-.051-.1-.113-.149-.178-.151-.19-.322-.405-.533-.405a.461.461,0,0,0-.309.147.448.448,0,0,0-.172.325c0,.2.2.383.367.542.059.055.114.106.161.156l1.044,1.135c1.49,1.621,3.029,3.3,4.59,4.9a5.533,5.533,0,0,1,1.594,3.006c.528,2.861,1.112,5.759,1.677,8.562l0,.013c.221,1.1.449,2.229.671,3.344l-.015,4.912-.017,5.594-.384,0-.384,0H66.8a13.082,13.082,0,0,0-1.382.057A2.363,2.363,0,0,1,65.166,55.919ZM52.843,5.987c-.955,0-1.531.7-1.58,1.931a6.9,6.9,0,0,0,.043,1.256c.15,1.045.744,1.668,1.588,1.668a2.184,2.184,0,0,0,.923-.226l.048-.023c2.223-1.042,4.522-2.12,5.106-4.937a1.227,1.227,0,0,1,.142-.332c.031-.057.063-.115.089-.173a2.312,2.312,0,0,0,.144-2.2,2.229,2.229,0,0,0-2-.754h-.077a2.584,2.584,0,0,0-2.265.839,2.07,2.07,0,0,0,.1,1.979,4.955,4.955,0,0,0,.373.635c.315.483.641.982.352,1.266a.392.392,0,0,1-.288.114,2.273,2.273,0,0,1-.978-.44,4.641,4.641,0,0,0-.673-.374A2.859,2.859,0,0,0,52.843,5.987Z" transform="translate(100.339 142.948)" fill="#f37777"/>
      <path id="Fill_7" data-name="Fill 7" d="M0,27.223C.012,18.681.054,10.139,0,1.6-.008.266.409,0,1.646,0q32.1.053,64.2,0c1.261,0,1.647.3,1.64,1.615-.048,8.542-.007,17.084,0,25.626-1.1.573-2.268.223-3.4.252-2.459.063-2.463.02-2.692-2.369-.062-.651-.082-1.306-.149-1.955a.936.936,0,0,1,.676-1.146,3.721,3.721,0,0,0,2.444-4.116,5.436,5.436,0,0,1,.955-3.977c.53-.7.213-1.028-.582-.98s-1.577.14-2.367.189c-.315.02-.829.085-.911-.062-.176-.315.276-.518.432-.789.171-.3.677-.552.319-.935-.377-.4-.663.029-.895.3-.487.566-.808.652-.873-.246-.023-.323-.012-.765-.454-.716-.515.057-.391.545-.385.9.009.48.045.945-.611.389-.3-.255-.672-.8-1.037-.413-.484.515.253.742.5,1.069.136.177.4.35.236.568a.939.939,0,0,1-.621.212c-.789.057-1.583.06-2.372.123-.768.061-1.256.342-.516,1.1a5.269,5.269,0,0,1,1.4,3.693c.065,1.476.581,2.988,2.026,3.407,1.79.52,1.91,1.652,1.87,3.093a5.471,5.471,0,0,0,.135,1.393c.256,1.089-.177,1.315-1.218,1.314Q30.345,27.49,1.285,27.5c-.431,0-.944.215-1.282-.279" transform="translate(11.476 171.623)" fill="#f37777"/>
      <g id="Group_11" data-name="Group 11" transform="translate(0 126.539)">
        <path id="Clip_10-2" data-name="Clip 10" d="M0,0H367V73.461H0Z" fill="none"/>
        <g id="Group_11-2" data-name="Group 11" clip-path="url(#clip-path-2)">
          <path id="Fill_9" data-name="Fill 9" d="M.762,73.461c-.675,0-.758-.347-.762-.608a.621.621,0,0,1,.149-.467.739.739,0,0,1,.553-.17,4.457,4.457,0,0,1,.576.052,4.245,4.245,0,0,0,.545.053H1.84c1.2-.019,2.491-.027,4.057-.027,1.005,0,2.028,0,3.017.007h.173q1.2,0,2.391.007a.724.724,0,0,0,.654.325,2.982,2.982,0,0,0,.322-.024,2.866,2.866,0,0,1,.307-.023c6.942,0,14.143.006,20.5.007h.2c12.267,0,24.953.005,37.427.024h.012c.636,0,.967-.09,1.141-.309A1.174,1.174,0,0,0,72.1,71.3a5.5,5.5,0,0,1-.135-1.392c.039-1.434-.073-2.572-1.87-3.093-1.654-.479-1.979-2.34-2.026-3.407a5.223,5.223,0,0,0-1.4-3.693c-.3-.3-.416-.551-.347-.734.075-.2.366-.322.864-.362.417-.033.841-.05,1.252-.067.367-.015.746-.03,1.119-.057a.961.961,0,0,0,.622-.212c.131-.17,0-.312-.133-.45-.037-.039-.074-.078-.1-.117a1.609,1.609,0,0,0-.286-.258c-.179-.139-.364-.282-.379-.464a.466.466,0,0,1,.16-.347.369.369,0,0,1,.272-.135c.2,0,.405.2.584.377.064.064.124.123.181.171a.858.858,0,0,0,.444.253.125.125,0,0,0,.093-.037c.085-.086.08-.311.075-.548v-.057c0-.055,0-.113-.008-.17-.02-.321-.043-.686.394-.734a.582.582,0,0,1,.064,0c.345,0,.366.34.385.64,0,.029,0,.054.005.079.033.454.133.674.3.674.135,0,.322-.14.569-.428l.067-.079c.149-.18.319-.383.52-.383a.431.431,0,0,1,.309.165c.259.277.063.489-.127.695a1.442,1.442,0,0,0-.193.24,1.289,1.289,0,0,1-.217.251c-.171.168-.333.327-.215.538.035.063.154.094.362.094.128,0,.273-.011.4-.021h.008l.14-.01c.384-.024.773-.059,1.15-.092h.015c.393-.035.8-.071,1.2-.1.051,0,.1,0,.147,0,.352,0,.581.087.663.252s.006.425-.228.733a5.367,5.367,0,0,0-.955,3.977A3.735,3.735,0,0,1,73.4,67.107a.939.939,0,0,0-.676,1.147c.036.345.059.7.08,1.036.02.3.04.615.069.92.2,2.065.228,2.382,1.869,2.382.247,0,.53-.007.823-.014l.144,0c.272,0,.551.02.82.038l.03,0c.283.02.573.041.858.041a3.19,3.19,0,0,0,1.546-.331c.488,0,.984-.009,1.464-.015h.008c.651-.008,1.323-.017,1.986-.017.634,0,1.192.008,1.707.024h.077c.617,0,.894-.244,1.022-.9.7-3.622,1.338-6.885,2.013-10.147.094-.454.088-.715-.019-.846a.314.314,0,0,0-.261-.1,2.021,2.021,0,0,0-.662.169,8.558,8.558,0,0,1-2.983.647H83.27a2.724,2.724,0,0,1-.012-5.442,2.78,2.78,0,0,1,1.236.312,11.423,11.423,0,0,1,2.587,1.885c.233.215.393.312.517.312.168,0,.276-.175.349-.569.263-1.408.548-2.906.894-4.382a.656.656,0,0,0-.033-.507.811.811,0,0,0-.557-.262l-.016,0-.057-.012c-.412-.088-.831-.167-1.236-.243-.627-.118-1.275-.241-1.9-.4a3.228,3.228,0,0,1,.7-6.391,3.533,3.533,0,0,1,.657.062c2.777.527,5.537,1.073,8.2,1.623a4.177,4.177,0,0,1,2.512,1.391,3.084,3.084,0,0,1,.556,2.5A3.035,3.035,0,0,1,94.376,53.6a5.954,5.954,0,0,1-.953-.081c-.061-.01-.123-.017-.183-.024-.076-.009-.155-.018-.231-.033a13.3,13.3,0,0,0-2.119-.312c-1.128,0-1.256.694-1.678,2.993l0,.014c-.211,1.149-.317,1.726-.118,1.965a.469.469,0,0,0,.386.134,8.055,8.055,0,0,0,1.532-.3l.032-.008a9.626,9.626,0,0,1,1.781-.287c.055,0,.109,0,.161,0a2.413,2.413,0,0,1,2.335,1.666,2.554,2.554,0,0,1-.722,3.054,2.581,2.581,0,0,1-1.729.709,2.824,2.824,0,0,1-1.25-.315,11.2,11.2,0,0,1-2.481-1.8c-.252-.227-.439-.368-.591-.368-.173,0-.291.192-.371.6-.751,3.877-1.39,7.1-2.013,10.146-.077.376-.06.606.055.747s.335.2.717.2h.041c3.326-.037,6.7-.046,9.96-.056l3.439-.011,3.542.019h.12c2.551.014,5.19.029,7.784.03H126.8c7.65,0,14.086,0,20.629.028h.026c.629,0,.968-.09,1.135-.3s.177-.559.029-1.2c-.517-2.215-1-4.656-1.516-7.682-.146-.856-.491-1.011-1.259-1.05a7.99,7.99,0,0,1-7.5-5.31c-.564-1.382-1.147-2.766-1.711-4.1l-.005-.012c-.535-1.27-1.088-2.584-1.619-3.881A2.824,2.824,0,0,1,135,46.141a2.39,2.39,0,0,1,2.107-.907,5.089,5.089,0,0,1,.518.028,1.289,1.289,0,0,0,.13.007.7.7,0,0,0,.619-.363c.031-.04.063-.081.1-.123a2.681,2.681,0,0,1,1.984-1.091,2.518,2.518,0,0,1,2.182,1.739c.481,1.081.947,2.19,1.4,3.263l.011.025c.255.609.52,1.238.784,1.855.016.038.03.08.045.125.054.165.108.332.286.332a.342.342,0,0,0,.069-.008c.085-.017.118-.415.121-.594.009-.779.012-1.572.016-2.339V48.04c0-.961.009-1.955.023-2.932.026-1.781.793-2.8,2.1-2.8a3.849,3.849,0,0,1,1.666.448,1.068,1.068,0,0,0,.472.144.906.906,0,0,0,.39-.1,3.527,3.527,0,0,1,1.509-.379c1.316,0,2.159.989,2.2,2.58.1,3.8.063,6.875-.1,9.663a7.661,7.661,0,0,1-4.963,6.87,1.016,1.016,0,0,0-.715,1.367c.611,3.035,1.158,5.818,1.671,8.509a.944.944,0,0,0,1.086.914h.024c1.9-.017,3.865-.025,6-.025,1.837,0,3.8.006,6.006.019h.018c.368,0,.581-.062.69-.2a.808.808,0,0,0,.037-.689q-.1-.41-.2-.819c-.391-1.6-.795-3.26-1.1-4.906-.123-.653-.52-.747-.94-.847a2.865,2.865,0,0,1-2.263-2.8,2.667,2.667,0,0,1,2.028-2.7,3.081,3.081,0,0,1,.92-.149,2.767,2.767,0,0,1,2.185,1.151,2.691,2.691,0,0,1-.456,3.864,1.262,1.262,0,0,0-.494,1.53c.44,1.689.841,3.474,1.225,5.457.131.679.371,1.131,1.121,1.131a2.366,2.366,0,0,0,.25-.014,13.076,13.076,0,0,1,1.382-.057h.358l.383,0q.193,0,.385,0l.515.01c.378.007.768.013,1.152.036l.094,0a.505.505,0,0,0,.42-.144.594.594,0,0,0,.037-.51c-.33-1.357-.6-2.75-.866-4.1-.375-1.918-.762-3.9-1.32-5.8-.214-1.077-.435-2.173-.649-3.233l-.023-.112c-.566-2.806-1.151-5.707-1.679-8.573a5.528,5.528,0,0,0-1.594-3.006c-1.561-1.6-3.1-3.274-4.587-4.893L158.718,40.8c-.047-.051-.1-.1-.161-.157-.172-.159-.367-.34-.367-.542a.447.447,0,0,1,.172-.324.46.46,0,0,1,.309-.147c.211,0,.382.215.532.4.052.065.1.127.15.178,1.011,1.066,2.03,2.158,3.016,3.213l.007.007c.607.65,1.235,1.323,1.857,1.984.037.04.074.086.113.135.125.156.251.314.412.314a.276.276,0,0,0,.122-.031c.208-.1.15-.336.093-.562a1.86,1.86,0,0,1-.042-.2,3.843,3.843,0,0,0-1.076-2.348c-1.426-1.444-2.816-2.965-4.161-4.436l-.044-.048-.76-.831c-.046-.05-.1-.1-.16-.155-.17-.157-.362-.334-.361-.535a.461.461,0,0,1,.186-.333.472.472,0,0,1,.311-.144c.211,0,.379.214.526.4.05.064.1.13.152.183.914.961,1.831,1.947,2.717,2.9q.6.645,1.2,1.289c.025.027.05.056.076.086.1.122.223.26.361.26a.239.239,0,0,0,.112-.03c.109-.058.051-.51.031-.647a5.042,5.042,0,0,0-1.475-3.069c-.912-.875-1.771-1.836-2.6-2.766-.27-.3-.55-.615-.827-.92l-.066-.07c-.133-.14-.283-.3-.275-.472a.4.4,0,0,1,.162-.28.425.425,0,0,1,.282-.121c.213,0,.4.206.544.356.327.35.652.7.967,1.044l.015.016c.456.494.928,1,1.4,1.5.044.047.087.1.132.157.136.171.276.347.459.347a.341.341,0,0,0,.164-.046c.115-.063.077-.441.046-.745-.006-.059-.012-.116-.016-.167a2.763,2.763,0,0,0-.985-1.68c-.088-.091-.179-.184-.266-.278l-.453-.49-.058-.063c-.46-.5-.981-1.06-1.475-1.612l-.017-.019c-.173-.194-.389-.435-.117-.7a.409.409,0,0,1,.285-.132.651.651,0,0,1,.439.244c.208.212.416.431.617.643l.013.014c.2.216.417.439.629.656.025.026.051.055.077.084.106.12.223.252.356.252a.232.232,0,0,0,.119-.035c.1-.061.077-.419.035-.644-.123-.676-.26-1.361-.392-2.024v-.007q-.112-.563-.222-1.127a.685.685,0,0,1,.05-.516.38.38,0,0,1,.259-.154.489.489,0,0,1,.086-.008c.3,0,.417.324.458.517.115.543.23,1.108.331,1.606l0,.009c.121.594.246,1.208.375,1.81.033.157.139.469.235.475h.028c.189,0,.219-.161.247-.317a.872.872,0,0,1,.041-.165c.16-.4.307-.8.45-1.2.072-.2.152-.422.232-.635.087-.235.195-.528.454-.528a.526.526,0,0,1,.225.06c.237.115.286.359.15.746q-.122.348-.24.7c-.233.682-.474,1.388-.759,2.064a4.332,4.332,0,0,0,.089,3.69c.146-.415.289-.824.427-1.219l.012-.033c.381-1.089.74-2.117,1.121-3.144.021-.057.04-.12.059-.187.081-.275.173-.586.469-.586a.651.651,0,0,1,.242.055.406.406,0,0,1,.242.212.8.8,0,0,1-.106.574c-.028.064-.056.129-.076.19q-.164.481-.326.964c-.405,1.2-.825,2.448-1.294,3.651a4.528,4.528,0,0,0-.107,3.272.843.843,0,0,1,.028.248c0,.2.008.4.271.4h.012c.244,0,.293-.234.341-.456a1.573,1.573,0,0,1,.053-.205c.4-1.09.795-2.2,1.177-3.279l.006-.017.014-.041q.3-.832.592-1.664c.031-.087.058-.182.081-.266.111-.393.225-.8.791-.836.366.327.23.649.1.959a1.111,1.111,0,0,0-.132.573c-.224.618-.444,1.249-.656,1.86-.492,1.417-1,2.878-1.6,4.269a5.378,5.378,0,0,0,.2,4.158l.517-1.457c.62-1.749,1.216-3.43,1.812-5.111l.139-.378.007-.018c.141-.383.286-.78.423-1.172l.026-.075c.092-.272.2-.581.472-.581a.56.56,0,0,1,.22.053c.351.154.2.588.105.876-.38,1.122-.773,2.273-1.119,3.288l-.08.235-.458,1.344c-.068.171-.143.344-.215.51l0,.005a8.63,8.63,0,0,0-.436,1.152,9.8,9.8,0,0,1-.446,1.2,4.519,4.519,0,0,0-.526,2.67c.358,1.809.757,3.641,1.143,5.413.149.684.318,1.46.478,2.2l.6,2.936c.827,4.068,1.683,8.274,2.519,12.412l.014.073c.054.286.106.557.441.557a.761.761,0,0,0,.1-.007c.371-.05.372-.331.372-.579a1.486,1.486,0,0,1,.009-.2c.638-4.279,1.255-8.519,1.836-12.6.345-2.423.693-4.887,1.03-7.27l.005-.036c.714-5.055,1.453-10.282,2.2-15.419.1-.695.031-1.062-.66-1.4a3.741,3.741,0,0,1-2.219-3.737,3.811,3.811,0,0,1,2.764-3.656c.356-.114.543-.235.588-.382.056-.181-.094-.392-.33-.692-.884-1.125-1.732-2.253-2.521-3.353A8.076,8.076,0,0,1,173.418,17a8.019,8.019,0,0,1,3.206-5.221l.166-.128c1.181-.907,2.4-1.845,3.642-2.712a1.189,1.189,0,0,0,.515-1.636,22.991,22.991,0,0,1-.737-2.487V4.807h0c-.051-.2-.1-.4-.153-.594l-.013-.048c-.08-.3-.179-.67.2-.807a.642.642,0,0,1,.217-.044c.3,0,.389.3.476.6l.019.065c.118.394.242.794.4,1.3l0,.011.242.779c.055-.34.1-.639.15-.91V5.153c.09-.542.16-.967.224-1.4.038-.258.128-.6.467-.6a.638.638,0,0,1,.13.014c.333.069.333.393.307.69,0,.017,0,.034-.007.051a.306.306,0,0,0-.007.088,1.874,1.874,0,0,1-.074.618c-.084.367-.163.713.151.864a.163.163,0,0,0,.071.017c.177,0,.341-.3.514-.626a3.634,3.634,0,0,1,.3-.494c.033-.042.066-.088.1-.133.13-.183.264-.372.463-.372a.415.415,0,0,1,.189.052.457.457,0,0,1,.258.277.936.936,0,0,1-.226.67c-.177.28-.356.571-.514.828-.385.626-.783,1.274-1.215,1.881a1.205,1.205,0,0,0,.052,1.712c1.07,1.31,2.047,2.654,2.944,3.91a8.087,8.087,0,0,1,1.523,5.807,8.074,8.074,0,0,1-3.055,5.163c-.959.764-1.962,1.505-2.932,2.222l-.524.388-.113.082c-.219.158-.408.294-.4.465,0,.144.14.3.432.5a4.035,4.035,0,0,1-1.579,7.33c-.715.122-.836.436-.926,1.076-.943,6.7-1.918,13.507-2.86,20.091q-.5,3.467-.992,6.931c-.126.881-.253,1.791-.364,2.594-.248,1.788-.5,3.633-.79,5.442-.065.416-.041.656.082.8s.359.215.8.222h.085c.423.007.788.014,1.116.014,1.232,0,1.894-.088,2.325-.589a7.715,7.715,0,0,0,1-3q.281-1.237.56-2.475l.035-.155c.471-2.088.958-4.247,1.456-6.366a1.3,1.3,0,0,0-.549-1.629A3.213,3.213,0,0,1,179.163,54a3.378,3.378,0,0,1,3.03-1.928,3.154,3.154,0,0,1,.678.074,3.444,3.444,0,0,1,2.668,3.2,3.252,3.252,0,0,1-2.626,3.339c-.976.171-1.145.651-1.309,1.419-.888,4.191-1.709,7.85-2.512,11.187-.111.458-.111.691,0,.831s.311.184.719.184h.059c1.229-.014,2.558-.021,4.182-.021q1.409,0,2.818,0h.064q1.286,0,2.573,0a.7.7,0,0,0,.646.334,2.9,2.9,0,0,0,.322-.024,2.74,2.74,0,0,1,.306-.024c5.668.005,11.43.007,17,.008h.068c8.043,0,16.36,0,24.541.019h.031c.5,0,.923-.02,1.1-.26.135-.188.119-.51-.05-1.013a24.528,24.528,0,0,1-.762-3.191l-.008-.041q-.043-.222-.086-.443l-.023-.12c-.235-1.212-.438-2.258-2.012-2.724a2.1,2.1,0,0,1-1.382-1.353,3.033,3.033,0,0,1,.325-2.664,2.872,2.872,0,0,1,2.4-1.274,2.819,2.819,0,0,1,1.769.611,2.944,2.944,0,0,1,1.135,2.223,2.441,2.441,0,0,1-.884,1.934,1.881,1.881,0,0,0-.58,2.3c.444,1.7.826,3.4,1.135,5.046.136.724.436.969,1.189.969h.027c1.939-.013,4.23-.026,6.522-.026,2.159,0,4.09.011,5.905.035h.045a1,1,0,0,0,.8-.235c.16-.193.138-.512.057-.931-.618-3.191-1.426-7.4-2.2-11.684-.08-.44-.182-.62-.351-.62-.118,0-.271.088-.5.285a15.708,15.708,0,0,1-2.817,2.054,3.028,3.028,0,0,1-1.436.4,2.977,2.977,0,0,1-2.571-4.159,2.663,2.663,0,0,1,2.6-1.725c.1,0,.207,0,.313.012a13.381,13.381,0,0,1,3.5.913,1.3,1.3,0,0,0,.414.095.244.244,0,0,0,.2-.078c.074-.09.083-.257.029-.542q-.112-.59-.229-1.179l-.007-.035c-.2-1.043-.415-2.119-.584-3.185-.08-.508-.287-.724-.691-.724a2.809,2.809,0,0,0-.518.068l-.538.107c-1.26.252-2.561.511-3.849.705a4.781,4.781,0,0,1-.708.054,3.949,3.949,0,0,1-4-3.367,4.306,4.306,0,0,1,.585-3.166,4.077,4.077,0,0,1,2.679-1.716c3.831-.768,7.656-1.5,11.367-2.181a5.234,5.234,0,0,1,.938-.087,4.134,4.134,0,0,1,4.217,3.411,4.018,4.018,0,0,1-.674,3.1,4.732,4.732,0,0,1-2.854,1.8c-1.462.324-2.9.568-4.112.764a1.2,1.2,0,0,0-.877.409,1.079,1.079,0,0,0-.052.871c.287,1.18.54,2.482.772,3.982.07.45.186.65.376.65.134,0,.305-.092.591-.319l.163-.129a23.71,23.71,0,0,1,2.425-1.763,2.843,2.843,0,0,1,1.477-.436,2.631,2.631,0,0,1,1.954.9,2.839,2.839,0,0,1,.538,3.361,2.713,2.713,0,0,1-2.49,1.6,3.153,3.153,0,0,1-.644-.068,30.276,30.276,0,0,1-3.085-.86,1.418,1.418,0,0,0-.413-.085.26.26,0,0,0-.214.081c-.075.091-.085.263-.032.542.6,3.12,1.2,6.295,1.787,9.365l.021.113.549,2.888.012.067c.063.342.122.664.607.664h.019c1.169-.021,2.357-.036,3.506-.05.938-.012,2-.025,3.046-.042.041,0,.081-.064.119-.125a.877.877,0,0,1,.054-.079,2.667,2.667,0,0,0,.6.08c.95,0,1.136-.8,1.2-1.673.1-1.515.294-3.05.48-4.534.076-.607.154-1.234.227-1.861q.438-3.8.877-7.6l.1-.829c.613-5.313,1.308-11.335,1.973-17.139.3-2.594.584-5.2.86-7.726l.159-1.449c.005-.047.015-.1.026-.148.037-.182.076-.369-.108-.473a.1.1,0,0,0-.048-.011,1.042,1.042,0,0,0-.422.205,5.271,5.271,0,0,1-3.089,1.052,6.3,6.3,0,0,1-2.824-.741,5.989,5.989,0,0,1-2.484-4.541,5.767,5.767,0,0,1,2.495-4.328,10.106,10.106,0,0,1,2.811-.855,6.179,6.179,0,0,1-2.584-1.383l-.242-.189a5.969,5.969,0,0,1-1.235-3.471,5.993,5.993,0,0,1,1.238-3.47A6.5,6.5,0,0,1,261.4,9.507a6.079,6.079,0,0,1,3.973,1.866,1.28,1.28,0,0,1,.118.13c.095.113.19.227.288.227.069,0,.13-.058.186-.177.267-.568.246-1.007-.063-1.3a1.149,1.149,0,0,0-.467-.221,2.305,2.305,0,0,1-.291-.1,5.208,5.208,0,0,1-2.939-6.137,5.1,5.1,0,0,1,1.87-2.7A5.165,5.165,0,0,1,267.168,0a4.4,4.4,0,0,1,.45.023,5.26,5.26,0,0,1,4.82,4.965,4.944,4.944,0,0,1-1.117,3.386,5.444,5.444,0,0,1-3.151,1.915,1.029,1.029,0,0,1-.106.015l-.032,0c-.073.009-.153.012-.223.015-.33.014-.67.028-.717.542-.005.057-.015.117-.025.176-.039.229-.079.465.147.585a.475.475,0,0,0,.227.061.87.87,0,0,0,.5-.245,1.749,1.749,0,0,1,.258-.178,5.632,5.632,0,0,1,2.584-.679,5.12,5.12,0,0,1,2.954.991,5.05,5.05,0,0,1,1.79,2.1,5.176,5.176,0,0,1,.352,2.752,4.956,4.956,0,0,1-3.529,4.266c-.251.091-.511.158-.813.237-.162.042-.33.086-.522.139.151.073.286.135.406.189a5.635,5.635,0,0,1,.6.3c1.792,1.089,2.6,2.319,2.555,3.871a8.627,8.627,0,0,1-.606,3.294,4.109,4.109,0,0,1-2.535,2.221,5.843,5.843,0,0,1-1.918.346,5.26,5.26,0,0,1-3.621-1.544c-.086-.08-.186-.188-.283-.293-.189-.2-.367-.4-.452-.4a.042.042,0,0,0-.019,0c-.251.125-.238.406-.226.677a2.019,2.019,0,0,1,0,.315c-1.114,9.595-2.216,19.2-3.282,28.49l-.018.154c-.14,1.217-.279,2.456-.414,3.654l-.012.1c-.322,2.869-.656,5.835-1.022,8.755-.051.409-.054.717.1.893.13.147.37.21.8.21h.042c4.493-.04,9.062-.045,13.481-.051h.015l4.375-.006,5.452.018c4.48.015,9.112.03,13.679.039h1.8l3.078,0h.286l2.639,0c1.737,0,4.024,0,6.3.024h.044c.472,0,.75-.078.9-.253a1.156,1.156,0,0,0,.119-.937c-.477-3.22-.929-6.533-1.345-9.847-.087-.693-.316-.943-.98-1.07a4.828,4.828,0,0,1-2.907-1.64,4.468,4.468,0,0,1-.949-3.074,4.559,4.559,0,0,1,3.784-4.248,4.817,4.817,0,0,1,.73-.056,4.725,4.725,0,0,1,2.745.871,4.509,4.509,0,0,1,1.55,5.462,4.675,4.675,0,0,1-2.3,2.326,1.059,1.059,0,0,0-.734,1.355c.436,2.971.863,6.194,1.3,9.853.1.838.331,1.263,1.314,1.263h.052c1.969-.028,4.011-.042,6.07-.042,2.014,0,4.106.014,6.22.041h.06c.44,0,.677-.064.791-.214.137-.179.091-.483-.019-.885-1.007-3.695-1.989-7.463-2.938-11.108l-.171-.655a3.329,3.329,0,0,0-1.027-1.618c-2.311-2.2-4.766-4.537-7.153-6.889a2.639,2.639,0,0,0-.328-.253c-.266-.185-.566-.4-.587-.656a.571.571,0,0,1,.222-.445.538.538,0,0,1,.372-.179c.281,0,.519.294.749.579a3.206,3.206,0,0,0,.283.322c1.252,1.166,2.507,2.37,3.72,3.534l.006.006c.637.611,1.3,1.243,1.946,1.862.214.2.494.443.614.443a.059.059,0,0,0,.03-.007c.263-.152.181-.391.1-.621a1.453,1.453,0,0,1-.067-.238,4.838,4.838,0,0,0-1.662-2.965c-1.647-1.485-3.258-3.064-4.816-4.591l-.088-.086-.755-.739a2.559,2.559,0,0,0-.211-.176c-.2-.152-.417-.324-.436-.541a.651.651,0,0,1,.539-.593c.222,0,.417.215.589.4.058.064.111.122.164.173.91.861,1.824,1.743,2.708,2.6.6.578,1.219,1.176,1.833,1.763.041.039.083.086.123.13.131.146.266.3.432.3a.3.3,0,0,0,.124-.028c.306-.139.216-.4.137-.633a1.448,1.448,0,0,1-.063-.218,4.838,4.838,0,0,0-1.617-2.993c-1.125-.988-2.2-2.068-3.242-3.112q-.438-.44-.877-.877c-.047-.046-.1-.093-.159-.142-.175-.15-.373-.318-.382-.52a.587.587,0,0,1,.508-.517c.222,0,.427.2.608.38.035.035.07.069.1.1.823.778,1.656,1.575,2.461,2.345l.019.018,1.061,1.013a.376.376,0,0,1,.1.116c.042.065.082.126.146.126a.17.17,0,0,0,.1-.04c.035-.025,0-.148-.041-.278-.018-.059-.036-.117-.046-.165a4.174,4.174,0,0,0-1.636-3.11,17.83,17.83,0,0,1-2.01-1.944,2.25,2.25,0,0,0-.306-.257c-.234-.176-.476-.358-.494-.593a.566.566,0,0,1,.2-.428.483.483,0,0,1,.34-.177c.216,0,.4.213.581.419a2.05,2.05,0,0,0,.3.3,4.074,4.074,0,0,1,.47.433c.11.113.224.229.344.332a2.188,2.188,0,0,1,.225.241c.155.183.314.372.5.372a.3.3,0,0,0,.141-.036c.276-.143.163-.449.055-.744a2.612,2.612,0,0,1-.084-.255c-.093-.367-.19-.74-.284-1.1l-.007-.026c-.146-.56-.3-1.14-.438-1.72a2.661,2.661,0,0,0-.091-.278.921.921,0,0,1-.086-.678.506.506,0,0,1,.33-.239.761.761,0,0,1,.222-.038c.353,0,.426.353.5.694.017.084.034.163.054.237.26.94.523,1.9.8,2.914l.021.078.024.088.365,1.332.342-1.108.015-.049.012-.039c.225-.729.424-1.375.625-2.019.083-.266.216-.571.51-.571a.527.527,0,0,1,.155.025c.4.125.377.511.284.814-.293.956-.577,1.933-.852,2.878l0,.016-.212.728c-.029.1-.064.2-.1.3a2.927,2.927,0,0,0-.187.778,5.662,5.662,0,0,0,.551,2.391,1.777,1.777,0,0,0,.625-1.266,4.148,4.148,0,0,1,.139-.587c.211-.61.4-1.24.575-1.849l0-.007c.111-.378.237-.807.367-1.218.018-.058.034-.12.051-.185.075-.291.159-.621.474-.621a.677.677,0,0,1,.221.043c.476.167.343.571.225.928-.02.06-.038.116-.053.17-.374,1.326-.764,2.657-1.141,3.945l0,.015q-.285.975-.569,1.95c-.021.072-.045.146-.068.218l0,.01a2.33,2.33,0,0,0-.154.719,8.313,8.313,0,0,0,.734,3.062,2.883,2.883,0,0,0,.731-1.647,6.608,6.608,0,0,1,.188-.757c.354-1.054.666-2.139.968-3.188.154-.536.314-1.09.477-1.634l.018-.06c.091-.306.2-.687.54-.687a.543.543,0,0,1,.125.016.5.5,0,0,1,.342.218,1.015,1.015,0,0,1-.054.746l-.022.071c-.252.842-.5,1.7-.738,2.53l0,.006c-.509,1.768-1.035,3.6-1.64,5.366a6.124,6.124,0,0,0,.242,3.794c.065.237.132.482.2.737l.259-.787.086-.26c.22-.664.411-1.237.588-1.827.381-1.258.761-2.539,1.129-3.778l.012-.041c.267-.9.543-1.829.819-2.748.014-.047.026-.1.038-.15v-.005c.053-.228.114-.487.381-.487a.566.566,0,0,1,.132.017c.232.056.334.3.3.72a5.807,5.807,0,0,1-.229,1.225l-.075.257c-.839,2.861-1.707,5.82-2.6,8.725a3.824,3.824,0,0,0-.066,2.2q.3,1.122.6,2.244l.019.069,0,.007c.829,3.092,1.686,6.29,2.477,9.448.215.859.57,1.149,1.406,1.149l.115,0c1.123-.034,2.225-.05,3.277-.05,1.072,0,2.132.018,3.149.052l.142,0a1.1,1.1,0,0,0,.861-.254,1.28,1.28,0,0,0,.16-1.01c-.4-3.61-.774-7.282-1.137-10.834v-.013q-.193-1.891-.388-3.782c-.866-8.391-1.646-15.957-2.383-23.13-.034-.325-.051-.591-.054-.839-.019-1.276-.324-1.945-1.938-2.062a8.144,8.144,0,0,1-5.192-2.5,9.229,9.229,0,0,1-2.57-5.323c-.285-2.377-.51-4.718-.733-7.106a2.53,2.53,0,0,1,.558-1.971,2.04,2.04,0,0,1,1.557-.648,3.127,3.127,0,0,1,1,.176c.063.021.125.046.18.068a1.152,1.152,0,0,0,.419.111.611.611,0,0,0,.407-.17,2.228,2.228,0,0,1,1.46-.588,2.39,2.39,0,0,1,1.131.309.686.686,0,0,0,.873-.111,1.723,1.723,0,0,1,1.146-.355c.171,0,.346.013.5.024h.01c.164.012.319.023.472.023a1.768,1.768,0,0,0,.434-.045,9.121,9.121,0,0,1,2.035-.2,6.584,6.584,0,0,0,2.374-.338,3.75,3.75,0,0,1,1.393-.317c1.058,0,1.687.7,1.819,2.024.1,1,.212,2.017.32,3l0,.015c.168,1.522.342,3.1.473,4.649a8.668,8.668,0,0,1-1.282,5.481,8.134,8.134,0,0,1-4.47,3.331c-1.422.449-1.6,1.1-1.466,2.376,1.112,10.495,2.205,21.167,3.262,31.488l.082.8q.287,2.8.575,5.609l0,.026c.211,2.059.211,2.059,2.374,2.059h.017c2.485,0,2.485,0,3.318-2.347.247-.7.479-1.408.7-2.1q.154-.473.31-.945l1.072-2.97.056-.154c1.427-3.953,2.9-8.04,4.38-12.1.169-.464.068-.715-.4-.994-3.325-1.981-4.6-4.953-3.892-9.086.236-1.381.422-2.792.6-4.157.161-1.227.328-2.495.532-3.742.241-1.478.99-2.326,2.056-2.326a3.187,3.187,0,0,1,1.85.736.83.83,0,0,0,.511.218,1.292,1.292,0,0,0,.434-.1,3.386,3.386,0,0,1,1.167-.226,2.027,2.027,0,0,1,1.587.681,2.846,2.846,0,0,1,.519,2.3c-.229,1.6-.494,3.453-.73,5.269a.97.97,0,0,1-.029.125.424.424,0,0,0-.01.321.242.242,0,0,0,.175.1h.012c.1,0,.276-.215.36-.351.394-.639.789-1.291,1.171-1.921.52-.858,1.058-1.745,1.6-2.612a2.8,2.8,0,0,1,2.192-1.578,2.614,2.614,0,0,1,2.1,1.55.774.774,0,0,0,.826.43c.055,0,.117,0,.181,0a2.4,2.4,0,0,1,2.087,1.162,2.3,2.3,0,0,1-.134,2.287c-1.516,2.606-3.291,5.625-5.183,8.464a7.17,7.17,0,0,1-6.3,3.338,10.511,10.511,0,0,1-1.221-.074,2.871,2.871,0,0,0-.337-.022c-.558,0-.824.221-1.054.875-1.047,2.994-2.127,6.035-3.17,8.975l-.024.067c-.89,2.508-1.9,5.35-2.859,8.084-.478,1.363-.676,2.045-.419,2.407s.943.394,2.351.394h3.812c1.134,0,2.63,0,4.151.008.07,0,.146,0,.226-.008h.012c.076,0,.162-.009.245-.009.31,0,.628.059.638.5a.574.574,0,0,1-.138.435.852.852,0,0,1-.615.172c-.072,0-.145,0-.216-.005h-.007c-.073,0-.139,0-.2,0-5.728.012-11.577.013-17.043.013l-71.159,0-93.691,0H144.78c-46.835,0-95.264,0-142.89-.018H1.881a4.533,4.533,0,0,0-.511.043l-.023,0A5.093,5.093,0,0,1,.762,73.461ZM75.654,58.972l-.205.067-1.415.072-.089,0c-1.826.094-3.714.19-5.571.281l-.036,0c-.239.011-.463.022-.523.145-.044.091.007.236.155.442a6.228,6.228,0,0,1,.946,3.443,3.164,3.164,0,0,0,.509,1.719c.476.657,1.006,1.265,1.658,1.265a1.119,1.119,0,0,0,.347-.057c.439-.143.351-.556.257-.994a1.834,1.834,0,0,1-.061-.75,2.292,2.292,0,0,0-.03-.78c-.052-.356-.1-.693.047-.87a.4.4,0,0,1,.309-.127h.031a.41.41,0,0,1,.315.115c.168.177.151.528.132.9a2.53,2.53,0,0,0,.031.745,2.171,2.171,0,0,1,.019.71c-.036.469-.07.911.392,1.01a1.017,1.017,0,0,0,.213.023c.663,0,1.172-.678,1.582-1.342a2.654,2.654,0,0,0,.34-1.75,8.67,8.67,0,0,1,.556-4.093C75.593,59.09,75.623,59.031,75.654,58.972Zm156.252,1.519-.106,0a1.888,1.888,0,0,0,.1,3.773c.042,0,.084,0,.127,0a1.887,1.887,0,0,0-.122-3.772Zm-70.081-.31c-.04,0-.081,0-.12,0a1.879,1.879,0,0,0,.128,3.755c.043,0,.085,0,.126,0a1.878,1.878,0,1,0-.134-3.755ZM92.767,58.563l-.088,0a17.082,17.082,0,0,0-3.425.963.009.009,0,0,0,0,.009,4.756,4.756,0,0,0,1.9,1.83l.006,0c.242.158.493.321.727.5a.309.309,0,0,0,.068.035.459.459,0,0,1,.057.026,1.669,1.669,0,0,0,.819.232,1.809,1.809,0,0,0,1.222-.549,1.654,1.654,0,0,0,.385-1.935A1.671,1.671,0,0,0,92.767,58.563Zm44.275-12.55a1.614,1.614,0,0,0-.675.169,1.393,1.393,0,0,0-.64,2.014c.3.714.595,1.443.883,2.147l.009.021c.94,2.3,1.912,4.669,2.981,6.951a6.39,6.39,0,0,0,2.316,2.715,7.469,7.469,0,0,0,3.436,1.109c.164.01.352.02.505.02.312,0,.477-.042.568-.144.142-.158.115-.474.05-1.066-.511-4.653-2.378-8.932-4.184-13.069q-.257-.589-.513-1.179c-.31-.716-.74-1.078-1.278-1.078a1.6,1.6,0,0,0-.582.122,1.39,1.39,0,0,0-.83.717,1.734,1.734,0,0,0,.123,1.337c.714,1.683,1.415,3.4,2.093,5.068l.3.736c.019.048.041.1.064.149a1.009,1.009,0,0,1,.144.711.424.424,0,0,1-.261.226.561.561,0,0,1-.2.042c-.286,0-.39-.316-.483-.594-.027-.081-.052-.158-.081-.226-.379-.881-.757-1.779-1.123-2.648l0-.009c-.431-1.024-.877-2.083-1.328-3.123-.322-.742-.755-1.119-1.288-1.119ZM241.787,56.923h-.041a1.96,1.96,0,0,0-1.917,1.985,1.9,1.9,0,0,0,1.9,1.975h.008a10.823,10.823,0,0,0,4.042-2.527c.02-.042.02-.074,0-.094a3.446,3.446,0,0,0-2.136-.961c-.271-.054-.552-.109-.817-.184A3.9,3.9,0,0,0,241.787,56.923ZM147.771,43.156l-.088,0c-.907.036-1.378.621-1.4,1.741-.007.341-.006.683-.006,1.014,0,.539,0,1.1-.028,1.644a40.764,40.764,0,0,0,1.084,12.191c.18.724.388,1.007.741,1.007a1.755,1.755,0,0,0,.806-.295,8.066,8.066,0,0,0,2.7-2.39,6.584,6.584,0,0,0,1.115-3.4c.063-1.122.047-2.268.031-3.377-.007-.5-.014-1.008-.014-1.517h.168q0-.721,0-1.443c0-1.03,0-2.2,0-3.315.01-1.2-.472-1.823-1.433-1.841H151.4c-.884,0-1.32.56-1.334,1.711-.021,1.763-.053,3.856-.122,6.016a2.536,2.536,0,0,0,.019.314c.026.26.054.554-.087.711a.419.419,0,0,1-.327.12h-.008a.509.509,0,0,1-.4-.141c-.155-.173-.12-.484-.089-.758a2.743,2.743,0,0,0,.024-.317c-.015-1.4-.006-2.82,0-4.2v-.02q.006-.9.009-1.8a1.838,1.838,0,0,0-.4-1.336A1.237,1.237,0,0,0,147.771,43.156ZM83.3,56.638a1.771,1.771,0,0,0-1.209.539,1.669,1.669,0,0,0-.4,1.936A1.725,1.725,0,0,0,83.5,60.22l.139,0a8.515,8.515,0,0,1,1.024-.247,5.182,5.182,0,0,0,2.261-.844,8.447,8.447,0,0,0-2.176-1.862l-.007,0c-.158-.106-.321-.216-.479-.327a.357.357,0,0,0-.071-.035.474.474,0,0,1-.055-.025,1.72,1.72,0,0,0-.837-.235Zm228.387-4.493a3.3,3.3,0,0,0-.662.067,3.651,3.651,0,0,0-3,3.531,3.738,3.738,0,0,0,2.805,3.558,1.616,1.616,0,0,0,.378.055.4.4,0,0,0,.33-.121c.1-.123.118-.336.051-.712-.092-.518-.164-1.046-.222-1.469v-.009c-.024-.173-.045-.33-.065-.466-.007-.117-.018-.226-.029-.331-.046-.451-.079-.777.356-.829a.714.714,0,0,1,.085-.005c.395,0,.441.381.481.718l.007.059c.028.227.069.463.1.671a7.52,7.52,0,0,1,.145,1.264c0,.663.152.985.462.985a1.9,1.9,0,0,0,.888-.421A3.606,3.606,0,0,0,315,54.34,3.685,3.685,0,0,0,311.687,52.145Zm-59.642,2.817a1.753,1.753,0,0,0-1,.338c-.686.474-1.355,1-2,1.5q-.323.253-.646.5c-.223.172-.319.3-.3.416s.162.212.436.3l.4.131a14.707,14.707,0,0,0,2.946.745c.061,0,.121.006.179.006a1.756,1.756,0,0,0,1.768-1.221,1.846,1.846,0,0,0-.5-2.152A1.866,1.866,0,0,0,252.045,54.962Zm-69.8.112a.308.308,0,0,1,.227.1.367.367,0,0,1,.093.277c-.015.212-.046.426-.077.633-.015.1-.032.22-.047.333a2.284,2.284,0,0,1-.108.408c-.12.366-.244.743.157.923a.68.68,0,0,0,.28.06,1.894,1.894,0,0,0,1.159-.71,2.193,2.193,0,0,0,.628-1.653,2.3,2.3,0,0,0-1.551-2.253,2.412,2.412,0,0,0-.9-.186,2.274,2.274,0,0,0-1.647.765,2.248,2.248,0,0,0-.462,2.7c.226.479.506.99.978.99a.67.67,0,0,0,.072,0c.308-.033.34-.376.372-.708a2.391,2.391,0,0,1,.056-.382c.028-.1.053-.205.081-.319a4.692,4.692,0,0,1,.227-.752.58.58,0,0,1,.458-.222ZM85.5,46.406a2.1,2.1,0,0,0-2.037,1.86,2.042,2.042,0,0,0,1.48,2.518c2.28.549,4.558,1.005,6.762,1.446.848.17,1.648.33,2.444.494,1.548-.067,2.37-.667,2.588-1.887A2.017,2.017,0,0,0,95.286,48.3c-2.8-.656-5.881-1.266-9.415-1.865A2.192,2.192,0,0,0,85.5,46.406Zm165.257-3.8h0a3.343,3.343,0,0,0-.465.033c-.582.083-1.168.2-1.734.318h-.006c-.283.058-.575.118-.864.172-.945.178-1.922.36-2.783.52H244.9c-2.051.381-4.173.775-6.253,1.193a3.271,3.271,0,0,0-2.678,3.551c.23,1.766,1.691,2.866,3.814,2.869,1.009-.2,2.044-.4,3.14-.61l.048-.009c2.915-.56,5.926-1.139,8.966-1.837a2.433,2.433,0,0,0,1.549-1.137,3.438,3.438,0,0,0,.363-2.582,3.176,3.176,0,0,0-3.091-2.483ZM361.5,35.255a1.276,1.276,0,0,0-1.072.661l-.425.669c-2.61,4.106-5.309,8.352-6.519,13.261-.075.306-.1.523,0,.655.075.1.22.152.47.165.126.007.26.01.423.01.112,0,.225,0,.338,0h.009c.116,0,.231,0,.346,0A6.657,6.657,0,0,0,361,47.376c.991-1.574,1.965-3.2,2.907-4.763.592-.986,1.2-2,1.814-3,.6-.983.509-1.7-.283-2.188a1.472,1.472,0,0,0-.768-.247,1.61,1.61,0,0,0-1.307.96c-.925,1.542-1.942,3.211-3.2,5.252-.029.048-.059.1-.087.152-.129.232-.275.495-.513.495a.531.531,0,0,1-.311-.125c-.323-.24-.115-.544.069-.812.038-.056.077-.113.109-.167.45-.757.911-1.525,1.357-2.267l.015-.026.01-.017c.631-1.05,1.283-2.136,1.914-3.21a1.275,1.275,0,0,0-.472-1.923,1.448,1.448,0,0,0-.754-.233Zm-10.613-2.962a1.237,1.237,0,0,0-1.25,1.175c-.381,2.521-.733,5.007-1.074,7.411v.008l-.021.147c-.11.777-.218,1.537-.323,2.274a7.32,7.32,0,0,0,3.123,6.33,1.324,1.324,0,0,0,.7.326c.283,0,.469-.283.695-.772,1.857-4.022,2.433-8.393,2.991-12.621l0-.018c.08-.61.164-1.24.249-1.859.139-1.005-.254-1.645-1.106-1.8a1.958,1.958,0,0,0-.351-.034c-.731,0-1.166.487-1.293,1.448-.251,1.917-.537,3.907-.876,6.083-.009.057-.015.119-.022.185-.034.326-.076.731-.453.731a.668.668,0,0,1-.122-.012.423.423,0,0,1-.292-.167.942.942,0,0,1-.011-.673c.016-.08.031-.154.041-.224.155-1.125.313-2.3.452-3.339.127-.95.259-1.929.39-2.891a1.327,1.327,0,0,0-1.09-1.669A1.8,1.8,0,0,0,350.891,32.293ZM178.553,28.031l-.123,0a3.152,3.152,0,0,0-3,3.221,3.1,3.1,0,0,0,3.1,3.034h.06a3.136,3.136,0,0,0,3.089-3.128A3.184,3.184,0,0,0,178.553,28.031Zm91.018-6.117a4.042,4.042,0,0,0-2.913,1.2,4.547,4.547,0,0,0-1.245,3.313,3.83,3.83,0,0,0,1.265,2.7,4.288,4.288,0,0,0,2.879,1.147h.023a4.256,4.256,0,0,0,2.976-1.212,4.033,4.033,0,0,0,1.224-2.906,4.233,4.233,0,0,0-1.224-2.958,4.149,4.149,0,0,0-2.909-1.282Zm57.034-8.093c-.042,0-.085,0-.128,0a1.2,1.2,0,0,0-.874.385,2.051,2.051,0,0,0-.249,1.485c.083.748.159,1.5.232,2.233.156,1.552.317,3.157.549,4.725a8.263,8.263,0,0,0,2.722,4.989,7.774,7.774,0,0,0,5.116,1.982,7.266,7.266,0,0,0,.882-.054c4.775-.589,7.7-4.467,7.271-9.651-.039-.391-.081-.826-.126-1.294l-.006-.063c-.133-1.373-.3-3.083-.482-4.767-.1-.864-.573-1.423-1.217-1.423a1.334,1.334,0,0,0-.569.137,1.32,1.32,0,0,0-.681,1.534c.062.63.13,1.28.19,1.853.123,1.173.25,2.386.345,3.583a2.566,2.566,0,0,0,.053.309,1.017,1.017,0,0,1-.018.766.531.531,0,0,1-.4.184c-.025,0-.05,0-.073,0-.442,0-.443-.42-.444-.79a2.653,2.653,0,0,0-.012-.305c-.118-.961-.224-1.929-.327-2.865l0-.02c-.1-.878-.2-1.787-.3-2.679s-.486-1.32-1.157-1.32a1.836,1.836,0,0,0-.283.023c-.951.15-1.012.888-.947,1.59.073.78.152,1.573.228,2.34v.011c.105,1.054.214,2.145.309,3.223.006.069.017.143.028.222a1.131,1.131,0,0,1-.061.8.458.458,0,0,1-.328.164.761.761,0,0,1-.094.006c-.443,0-.471-.462-.493-.833,0-.079-.01-.161-.019-.233-.21-1.661-.412-3.474-.636-5.705-.083-.831-.472-1.253-1.157-1.253-.057,0-.118,0-.181.009-.781.074-1.1.559-1.018,1.525.057.632.118,1.273.176,1.894.109,1.16.223,2.359.318,3.546a2.843,2.843,0,0,0,.065.367,1.065,1.065,0,0,1-.009.81.561.561,0,0,1-.426.2c-.026,0-.051,0-.074,0-.465,0-.477-.48-.488-.9,0-.112-.006-.218-.016-.312-.182-1.56-.389-3.409-.554-5.293-.088-1.012-.477-1.5-1.189-1.5a1.81,1.81,0,0,0-.227.015c-.845.107-1.18.681-1.054,1.805l.008.075c.185,1.665.376,3.384.508,5.08a2.42,2.42,0,0,0,.074.374c.073.293.148.6.008.791a.561.561,0,0,1-.436.195c-.027,0-.052,0-.077,0a.418.418,0,0,1-.317-.113,1.055,1.055,0,0,1-.136-.738,2.584,2.584,0,0,0,0-.364c-.129-1.075-.242-2.165-.351-3.22-.065-.631-.133-1.283-.2-1.933C327.748,14.631,327.534,13.82,326.605,13.82Zm-66.368,7.027a4.2,4.2,0,0,0-3.029,1.261,4.1,4.1,0,0,0-1.179,2.979,4.166,4.166,0,0,0,4.178,4.092h.049a4.166,4.166,0,0,0-.008-8.331Zm-80-2.45a.8.8,0,0,1,.138.013.475.475,0,0,1,.342.19.921.921,0,0,1-.024.691,2.477,2.477,0,0,0-.067.3c-.156,1.189-.327,2.384-.492,3.539l-.005.036c-.111.779-.226,1.585-.335,2.377-.031.224-.077.561.04.659a.207.207,0,0,0,.138.054.663.663,0,0,0,.358-.2c.033-.027.064-.054.095-.077.368-.28.757-.567,1.1-.821.889-.659,1.809-1.34,2.66-2.072a6.671,6.671,0,0,0,2.318-5.417,5.241,5.241,0,0,0-.667-2.732,27.314,27.314,0,0,0-2.461-3.539c-.452-.581-.919-1.182-1.352-1.792-.141-.2-.279-.295-.42-.295a.8.8,0,0,0-.455.243c-.042.034-.085.07-.129.1-.442.332-.9.67-1.308.969-.934.686-1.9,1.4-2.813,2.141a6.667,6.667,0,0,0-2.461,6.727,9.839,9.839,0,0,0,2.405,4.374c.426.532.866,1.082,1.247,1.654.025.038.05.081.075.127.093.165.2.351.39.351a.376.376,0,0,0,.129-.025c.232-.086.225-.3.219-.513a1.353,1.353,0,0,1,.005-.228c.16-1.08.32-2.2.46-3.182l0-.016c.123-.857.25-1.742.377-2.613.012-.078.018-.163.024-.253C179.8,18.8,179.825,18.4,180.236,18.4Zm85.93.371q-.046.383-.094.766c-.069.561-.141,1.14-.2,1.716-.007.063-.016.133-.026.208v.007c-.041.3-.087.642.026.715a.36.36,0,0,0,.2.065.733.733,0,0,0,.449-.276,1.489,1.489,0,0,1,.249-.211,6.279,6.279,0,0,1,2.762-.851c-.206-.1-.394-.2-.576-.294-.372-.192-.692-.358-1.03-.5a2.131,2.131,0,0,1-.744-.636,1.694,1.694,0,0,0-1.013-.709Zm-1.2-.214a.762.762,0,0,0-.473.279,1.63,1.63,0,0,1-.248.207,6.873,6.873,0,0,1-2.717.9c.184.092.352.18.515.265a9.651,9.651,0,0,0,.953.457,2.063,2.063,0,0,1,.762.63,1.685,1.685,0,0,0,.987.686q.048-.344.1-.689c.082-.578.166-1.175.243-1.765.01-.075.025-.161.04-.253v-.006c.049-.29.105-.619.024-.66a.4.4,0,0,0-.184-.048Zm5.8-6.928a4.121,4.121,0,0,0-2.92,1.136,4.182,4.182,0,0,0-1.2,2.915,4.045,4.045,0,0,0,3.979,4.266l.119,0a4.263,4.263,0,0,0,2.929-1.159,4.074,4.074,0,0,0,.155-5.833,4.236,4.236,0,0,0-3-1.327Zm-9.32-1.078a4.315,4.315,0,0,0-3,1.186,4.037,4.037,0,0,0-1.259,2.9,4.3,4.3,0,0,0,4.125,4.259h.1a4.11,4.11,0,0,0,4.136-4.057,4.064,4.064,0,0,0-3.978-4.288l-.124,0Zm5.52-3.6a.584.584,0,0,1,.11.011.484.484,0,0,1,.385.512,3.128,3.128,0,0,1-.086.832c-.124.426-.128.709-.01.866a.445.445,0,0,0,.383.149,2.918,2.918,0,0,0,.713-.133,4.17,4.17,0,0,0,2.932-4.514,4.1,4.1,0,0,0-1.364-2.579,4.192,4.192,0,0,0-2.741-1.063h-.041a4.206,4.206,0,0,0-3.92,2.565,4.176,4.176,0,0,0,1.015,4.614l.029.028a2.5,2.5,0,0,0,1.481.885A.9.9,0,0,0,266,9.111c.429-.074.407-.433.385-.813a1.467,1.467,0,0,1,.043-.6.828.828,0,0,0,.038-.154,1.151,1.151,0,0,1,.025-.116C266.592,7.1,266.742,6.95,266.966,6.95Z" transform="translate(0 0)" fill="#001e35"/>
        </g>
      </g>
      <g id="Group_14" data-name="Group 14" transform="translate(109.44)">
        <path id="Clip_13-2" data-name="Clip 13" d="M0,0H116.2V129.453H0Z" fill="none"/>
        <g id="Group_14-2" data-name="Group 14" clip-path="url(#clip-path-3)">
          <path id="Fill_12" data-name="Fill 12" d="M17.35,129.453a1.469,1.469,0,0,1-.379-.071c-.072-.02-.146-.041-.219-.055-.113-.5.191-.782.484-1.053.072-.066.146-.135.213-.205.553-.586,1.118-1.174,1.665-1.743l.017-.017.61-.635.048-.012c.136-.032.277-.065.231-.277l.013-.011a1.854,1.854,0,0,0,1.167-.885c.065-.085.131-.172.2-.254l.3-.257.031-.028.009-.008.258-.228.147-.134.005,0,.141-.129.294-.271.3-.265.078-.047a1.736,1.736,0,0,0,.874-.871c.01-.029-.021-.09-.053-.135-.021-.029-.049-.059-.066-.059a1.217,1.217,0,0,0-.816.568c-.066.081-.134.165-.206.241a.293.293,0,0,0-.048.08c-.006.013-.012.026-.019.039l-.183.185-.092.092c-.073.073-.147.145-.221.218l-.168.179-.155.164-.16.187-.08.094c-.07.1-.142.2-.213.3l-.03.043-.566.173-.392.12-7.034-6.224-.254-.224L3,109.109a1.056,1.056,0,0,1-.458-.714c-.022-.378.3-.721.651-1.083L3.2,107.3a207.957,207.957,0,0,1,15.425-14.2C22.753,89.574,27,86.038,31.1,82.618L32.323,81.6a3.842,3.842,0,0,0,1.261-1.778c.963-2.811,1.958-5.663,2.92-8.421q.717-2.055,1.432-4.11a2.818,2.818,0,0,1,.119-.276c.142-.3.288-.607.029-.872a.092.092,0,0,0-.068-.021,3.249,3.249,0,0,0-.906.384c-.634.337-1.271.686-1.887,1.025-.546.3-1.11.609-1.667.907a10.22,10.22,0,0,1-4.841,1.288,9.5,9.5,0,0,1-2.441-.325,1.714,1.714,0,0,0-.438-.061,2.041,2.041,0,0,0-1.3.618l-.006,0a39.843,39.843,0,0,1-13.356,7.35,29.5,29.5,0,0,1-5.682,1.359c-.1.01-.193.022-.29.034-.225.028-.455.056-.681.062-.077,0-.155,0-.23,0-1.66,0-2.678-.555-2.865-1.563-.259-1.392.705-1.922,1.638-2.434.12-.066.244-.134.364-.2a2.611,2.611,0,0,1,.463-.184c.345-.114.672-.221.618-.467-.034-.155-.151-.228-.37-.228a2.783,2.783,0,0,0-.412.046,2.753,2.753,0,0,1-.41.047H3.306c-2.032-.03-3.17-.626-3.29-1.723-.177-1.625,1.111-2.187,2.246-2.682l.1-.043a30.564,30.564,0,0,1,2.948-1.056c.369-.118.749-.24,1.123-.365a2.528,2.528,0,0,1,.408-.085c.33-.05.671-.1.752-.415a.072.072,0,0,0-.01-.058c-.068-.11-.408-.181-.736-.25-.13-.027-.253-.053-.355-.081a10.784,10.784,0,0,1-2.732-1.02A1.918,1.918,0,0,1,2.58,64.12,2.029,2.029,0,0,1,4.13,62.33a6.618,6.618,0,0,1,2.2-.336h.14c1.085.016,2.162.024,3.2.024h.707A5.715,5.715,0,0,0,15.413,59.5a19.386,19.386,0,0,1,3.143-3.448,20.023,20.023,0,0,0,3.044-3.3,6.216,6.216,0,0,1,2.307-1.762l.01-.005,18.239-9.932c-.035.413-.069.832-.1,1.237-1.822.988-3.677,1.979-5.472,2.938-4.209,2.249-8.56,4.573-12.758,7a8.3,8.3,0,0,0-3.9,5.225,9.124,9.124,0,0,0,.835,6.554A8.857,8.857,0,0,0,32.386,67.9c1.556-.729,3.086-1.581,4.566-2.405.441-.246.893-.5,1.338-.741a2.081,2.081,0,0,0,.97-2.622,15.774,15.774,0,0,1-.3-8.093,17.491,17.491,0,0,1,3.76-7.158A2.052,2.052,0,0,1,43.2,47.94a14.341,14.341,0,0,0-3.146,13.392c.055.222.169.553.256.554h.009c.238,0,.277-.228.311-.43.005-.03.01-.06.016-.089a10.7,10.7,0,0,1,1.021-2.731c.986-1.95,1.99-3.931,2.962-5.848l.011-.022.989-1.951q.122-.225.246-.449c.162-.295.329-.6.485-.9,1.136-2.212,2.289-4.463,3.4-6.64l.018-.035c2.47-4.824,5.025-9.813,7.568-14.706a10.637,10.637,0,0,1,3.767-4.143,9.623,9.623,0,0,1,5.1-1.466,10,10,0,0,1,2.606.35,9.8,9.8,0,0,1,5.484,3.736,10.424,10.424,0,0,1,1.882,6.52,4.821,4.821,0,0,1-.129.8c-.106.49-.206.953-.011,1.2a.6.6,0,0,0,.516.227,2.949,2.949,0,0,0,.626-.1l.021,0a3.193,3.193,0,0,1,.686-.1,1.142,1.142,0,0,1,.24.024,6.352,6.352,0,0,0,.751.1c.116.01.235.02.351.033a1.976,1.976,0,0,0,.7.128,2.9,2.9,0,0,0,1.4-.429c.617-.336,1.233-.7,1.828-1.048a30.2,30.2,0,0,1,3.974-2.077l2.287-.748a3.346,3.346,0,0,1,.4-.06c.455-.049.926-.1,1.026-.705.008-.045.016-.092.024-.14.107-.624.241-1.4-.283-1.667a3.48,3.48,0,0,1-.428-.279,1.837,1.837,0,0,0-1.011-.462,1.059,1.059,0,0,0-.72.322,10.694,10.694,0,0,0-1.962,2.147,6.3,6.3,0,0,1-4.127,1.714,6.52,6.52,0,0,1-3.092-.854c-2.983-2.89-3.242-5.137-.99-8.588l.073-.062a2.589,2.589,0,0,0,.9-1.111.711.711,0,0,0-.327-.083,1.276,1.276,0,0,0-.616.226,1.76,1.76,0,0,1-.451.206,1.167,1.167,0,0,1-.6-.766c.189-.077.38-.173.564-.265a3.544,3.544,0,0,1,1.234-.442c1.7-.137,2.682-1.262,3.631-2.35.236-.271.481-.551.732-.811.567-.588.2-1.016-.152-1.431a2.184,2.184,0,0,1-.339-.471c-.084-.185-.175-.275-.279-.275-.145,0-.29.18-.418.338a1.212,1.212,0,0,1-.2.219,8.848,8.848,0,0,1-5,1.638,8.764,8.764,0,0,1-5.867-2.392,1.9,1.9,0,0,0-1.129-.63,1.052,1.052,0,0,0-.763.406,10.848,10.848,0,0,1-3.639,2.3l-.219.1-1.792.293a8.965,8.965,0,0,1-6.417-2.586,1.285,1.285,0,0,0-.893-.473,2.06,2.06,0,0,0-1.219.685,8.9,8.9,0,0,1-5.86,2.263,8.3,8.3,0,0,1-7.976-5.857A8.559,8.559,0,0,1,49.371.028a8.013,8.013,0,0,1,5.381,2.062,2.294,2.294,0,0,0,1.463.758,2.427,2.427,0,0,0,1.521-.791A8.227,8.227,0,0,1,63.131,0,8.415,8.415,0,0,1,68.8,2.257a1.955,1.955,0,0,0,1.257.668,1.826,1.826,0,0,0,1.185-.605A8.629,8.629,0,0,1,77.039.013a8.213,8.213,0,0,1,4.3,1.221,8.845,8.845,0,0,1,3.223,3.545c.275.541.461.752.662.752s.421-.21.76-.6a10.784,10.784,0,0,1,3.619-2.725,10.012,10.012,0,0,1,4.208-.926,10.285,10.285,0,0,1,4.959,1.3,10.147,10.147,0,0,1,4.535,5.068,10.431,10.431,0,0,1,.348,6.891,3.942,3.942,0,0,0,.54,2.949c.1.2.193.4.282.606.03.068.06.135.091.2a1.3,1.3,0,0,1,.2.963,1.023,1.023,0,0,1-.627.5c-.369.146-.42.521-.469.883a3.107,3.107,0,0,1-.06.348A10.483,10.483,0,0,1,99.9,26.7a10.232,10.232,0,0,1-6.359,2.179c-.242,0-.488-.008-.732-.025a1.314,1.314,0,0,1-.267-.06,1.236,1.236,0,0,0-.33-.067c-.169,0-.275.091-.332.286a2.1,2.1,0,0,0,.013,1.241c.064.174.162.259.3.259a1.013,1.013,0,0,0,.361-.1,1.167,1.167,0,0,1,.279-.093c.441-.058.889-.125,1.322-.189a25.414,25.414,0,0,1,3.73-.371,10.372,10.372,0,0,1,1.882.161c.958.175,1.925.439,2.295,1.55.126.38.344.431.541.431a2.23,2.23,0,0,0,.25-.019c.075-.009.152-.017.228-.02.164,0,.33-.007.491-.007a11.8,11.8,0,0,1,10.6,5.762A11.6,11.6,0,0,1,114.55,50.1c-2.076,3.682-4.294,7.365-6.439,10.927-.953,1.582-1.936,3.214-2.894,4.825-.179.3-.353.615-.521.917-.078.14-.155.28-.234.419-.079.179-.1.292-.066.345a.092.092,0,0,0,.084.036.961.961,0,0,0,.272-.073l.064-.023c.1,0,.193-.006.286-.006a3.768,3.768,0,0,1,2.876,6.463,1.245,1.245,0,0,0-.184.3c-.024.05-.049.1-.076.148l.257.034c.18.025.362.05.543.065a3.784,3.784,0,0,1,3.678,3.193,3.67,3.67,0,0,1-.467,2.4,3.9,3.9,0,0,1-1.878,1.628,3.56,3.56,0,0,1-1.38.26,7.179,7.179,0,0,1-1.5-.191c-2.188-.476-4.405-.981-6.549-1.469l-2-.454c-.392-.089-.789-.184-1.174-.276l-.587-.14a4.793,4.793,0,0,1,1.086-2.675c.195-.291.4-.591.566-.9.511-.92.415-1.272-.488-1.795-4.734-2.74-9.524-5.565-14.157-8.3q-2.278-1.343-4.549-2.681a.882.882,0,0,0,0-.092.339.339,0,0,1,.02-.183c1.487-2.563,3.219-5.021,4.895-7.4.529-.751,1.074-1.523,1.6-2.288.167-.241.323-.363.464-.363.215,0,.388.307.438.782l-5.665,8.324c-.276.424-.4.675-.328.874.094.253.525.415,1.455.683-.058.2.067.251.188.3a.655.655,0,0,1,.125.064l.414.236.414.236c.08.265.287.27.488.274l.079,0L86.835,66.4l.095.056c3.876,2.305,7.885,4.689,11.824,7.054a.844.844,0,0,0,.412.147c.222,0,.344-.179.518-.474,2.347-3.966,4.744-7.993,7.061-11.888l.009-.015,1.909-3.209c.5-.825,1.013-1.656,1.514-2.459a67.906,67.906,0,0,0,4-7.04,11.261,11.261,0,0,0-10.026-15.7h-.071a3.89,3.89,0,0,0-.752-.074,7.043,7.043,0,0,0-3,.907,14.281,14.281,0,0,1-1.735.724c.29.023.557.039.815.054a11.539,11.539,0,0,1,1.469.145c.784.147,1.847.477,2.021,1.648.169,1.13-.673,1.639-1.551,2.063a14.85,14.85,0,0,1-3.509,1.032c-.3.062-.607.125-.909.193a1.537,1.537,0,0,1-.3.019c-.254,0-.516,0-.535.263-.022.3.256.368.525.436a1.708,1.708,0,0,1,.3.1c.224.107.459.2.687.3,1.028.429,2.089.871,2.384,2.227-.114,1.168-.82,1.81-2.156,1.962a6.849,6.849,0,0,1-.783.042,13.438,13.438,0,0,1-1.85-.157l-.313-.044-.013,0a17.593,17.593,0,0,0-2.438-.229,6.8,6.8,0,0,0-1.389.133c-1.281.265-3.041.836-3.533,2.73A10.7,10.7,0,0,1,82.8,53.81c-1.559,1.025-3.122,2.1-4.633,3.141-.663.457-1.348.928-2.027,1.391l-6.417,4.3-.14.094-2.63,1.762c-1.138.754-2.285,1.517-3.394,2.255-2.5,1.663-5.086,3.383-7.645,5.049a10.356,10.356,0,0,1-5.65,1.719,9.784,9.784,0,0,1-6.9-2.861,11.584,11.584,0,0,1-3.209-6.788L36,75.971c-.107.286-.218.576-.326.857l0,.006a25.7,25.7,0,0,0-1.167,3.544l-.684,1.882-.026.072,0,.006c-.545,1.5-1.109,3.052-1.659,4.579l-.005.014c-.108.3-.22.613-.518.613a.626.626,0,0,1-.23-.051c-.389-.156-.265-.554-.174-.845l0-.013c.224-.709.466-1.425.7-2.117l0-.01q.133-.394.266-.788l.037-.07c.1-.19.217-.406.045-.561a.146.146,0,0,0-.1-.041c-.112,0-.22.141-.311.278C28.575,85.9,25.166,88.755,20.8,92.579c-2.511,2.071-5.791,4.831-8.9,7.816-2.229,1.83-4.311,3.89-6.323,5.882l-.007.007q-.6.589-1.192,1.177c-.324.318-.466.561-.459.788.007.265.218.5.58.817,2.575,2.259,5.183,4.567,7.705,6.8,2,1.774,4.075,3.607,6.118,5.4a8.31,8.31,0,0,1,.648.669c.5.556,1.018,1.131,1.616,1.131.029,0,.059,0,.089,0,.527-.05,1.013-.629,1.483-1.188a9.188,9.188,0,0,1,.641-.713c.134-.128.273-.256.408-.38l.206-.19c8.9-8.3,18.473-16.162,26.918-23.1a11.427,11.427,0,0,0,3.813-4.9c.717-1.958,1.4-3.965,2.069-5.905.284-.829.577-1.684.868-2.523l.167-.454c1.179-3.205,2.4-6.52,3.4-9.85.124-.325.258-.653.386-.971a23.4,23.4,0,0,0,.826-2.257,2.15,2.15,0,0,1,1.615-1.644c1.337-.4,2.679-.866,3.976-1.319.537-.187,1.09-.38,1.635-.566l8.631-2.72.875-.241c.286.329.4.569.35.736-.057.19-.322.263-.578.334a1.079,1.079,0,0,0-.529.243l-3.542,1.128-.053.017c-3.427,1.092-6.971,2.221-10.465,3.313-.692.216-.867.718-1.069,1.3l0,.005c-.887,2.546-1.795,5.129-2.673,7.628-1.472,4.19-3,8.523-4.46,12.8a14.365,14.365,0,0,1-4.655,6.646c-6.539,5.33-15.125,12.417-23.542,19.975-.676.607-1.473,1.33-2.26,2.085-.033.032-.075.064-.118.1-.119.094-.255.2-.268.333a.285.285,0,0,0,.081.214.273.273,0,0,0,.21.118.6.6,0,0,0,.337-.182,1.244,1.244,0,0,1,.158-.118,4.105,4.105,0,0,1,2.063-.612,3.7,3.7,0,0,1,2.24.807,3.485,3.485,0,0,1,1.361,3.73,3.684,3.684,0,0,1-3.018,2.927c-2.9.7-5.891,1.114-8.787,1.515l-.018,0c-.628.087-1.277.176-1.914.268A.565.565,0,0,1,17.35,129.453Zm10.186-8.3h0a3.153,3.153,0,0,0-1.96.793c-2.144,1.723-4.162,3.641-6.212,5.619-.032.031-.071.062-.112.1-.148.118-.316.253-.2.439.045.074.2.077.425.081.119,0,.254,0,.4.019.745-.136,1.5-.272,2.274-.411l.012,0c1.878-.337,3.819-.686,5.755-1.064a2.749,2.749,0,0,0,2.357-2.435,2.619,2.619,0,0,0-1.343-2.716,2.67,2.67,0,0,0-1.393-.418Zm-3.273.17h0a.4.4,0,0,0-.177.058l-.216.194a.23.23,0,0,1,.063.1c.023.058.046.117.106.117a.2.2,0,0,0,.1-.036,1.932,1.932,0,0,0,.223-.167l.093-.076a.221.221,0,0,1-.054-.08c-.028-.056-.057-.115-.137-.115Zm84.285-45.881a2.821,2.821,0,0,0-.725.1,65.565,65.565,0,0,0-7.815,2.809l-.422.172c-.09.037-.387.167-.409.3a.25.25,0,0,0,.035.205c.058.069.17.07.278.072a.708.708,0,0,1,.164.014,79.722,79.722,0,0,0,8.431,1.846,2.9,2.9,0,0,0,.43.033,2.69,2.69,0,0,0,1.931-.8,2.844,2.844,0,0,0-.017-3.963A2.642,2.642,0,0,0,108.548,75.446ZM10.257,72.9a1.217,1.217,0,0,0-.452.118c-.643.264-1.3.525-1.934.777-1.231.49-2.5,1-3.732,1.544-.124.055-.26.107-.4.161-.712.269-1.519.575-1.273,1.531.186.721.8.725,1.516.729a5.2,5.2,0,0,1,.878.055,38.379,38.379,0,0,0,19.111-8.664.915.915,0,0,1,.107-.069c.1-.06.231-.135.229-.222,0-.055-.052-.107-.154-.161a3.939,3.939,0,0,1-.553-.38,1.915,1.915,0,0,0-1.119-.534,1.449,1.449,0,0,0-.854.33c-1.521,1.115-3.126,2.169-4.678,3.188l-1.1.721q-.227.15-.453.3a12.4,12.4,0,0,1-2.811,1.551,2.347,2.347,0,0,1-.758.147,1.079,1.079,0,0,1-1.036-.679C10.643,73.039,10.478,72.9,10.257,72.9Zm95.31-4.461a2.7,2.7,0,0,0-2.415,1.207c-1.659,2.464-3.1,5.026-4.431,7.438-.087.159-.2.381-.14.484a.171.171,0,0,0,.154.1.57.57,0,0,0,.241-.089c.028-.015.056-.03.082-.042l.673-.317a66.312,66.312,0,0,0,7.249-3.783,2.509,2.509,0,0,0,1.03-3.077A2.57,2.57,0,0,0,105.566,68.441ZM19.138,63.213h0c-.134,0-.25.172-.352.324a1.618,1.618,0,0,1-.123.168c-1.9,2.13-3.623,4.083-5.26,5.97a10.706,10.706,0,0,0-1.652,2.411.741.741,0,0,0-.043.788.355.355,0,0,0,.3.153,1.051,1.051,0,0,0,.354-.089c.041-.015.08-.03.118-.042a3.691,3.691,0,0,0,.871-.427c2.531-1.667,5.1-3.369,7.578-5.015l.321-.213a3.22,3.22,0,0,0,.279-.216c.045-.038.091-.076.139-.114l-.092-.12-.011-.015c-.065-.086-.121-.16-.183-.228a10.293,10.293,0,0,1-1.884-2.918c-.12-.281-.236-.418-.356-.418ZM6.352,63.08c-.456,0-.83.008-1.178.025-.624.031-1.469.173-1.608,1.052-.117.745.482.978,1.011,1.183.08.031.155.06.227.09a23.366,23.366,0,0,0,4.622,1.242l.009,0,.751.149.041.008c.346.069.776.156.754.614-.017.364-.387.442-.713.511l-.027.006c-.278.058-.558.132-.828.2L9.3,68.2c-.385.1-.777.2-1.157.294a26.384,26.384,0,0,0-5.978,2.023l-.147.076c-.537.275-1.144.587-.988,1.326.161.76.867.789,1.49.814h.009l.1,0c.222.01.449.015.676.015a30.415,30.415,0,0,0,7.089-1.129l.207-.05a.783.783,0,0,0,.536-.384,28.026,28.026,0,0,1,3.757-4.623c.731-.779,1.487-1.584,2.178-2.421l.207-.25c1.05-1.26,2.04-2.449,1.428-4.287a1.077,1.077,0,0,1,.016-.519,2.184,2.184,0,0,0,.043-.313,3.064,3.064,0,0,1,.1-.55c.094-.4.192-.82-.108-.936a.414.414,0,0,0-.151-.03c-.344,0-.622.471-.845.849-.048.081-.092.156-.136.225C15.533,61.6,12.908,63.2,9.6,63.2a11.253,11.253,0,0,1-1.5-.1c-.29,0-.586,0-.871-.006H7.223C6.937,63.083,6.642,63.08,6.352,63.08Zm59.9-39.615h0a8.852,8.852,0,0,0-7.879,4.794c-4.939,9.512-10.178,19.72-16.016,31.208A9,9,0,0,0,50.3,72.561a9.01,9.01,0,0,0,4.986-1.532c7.862-5.215,15.823-10.566,23.523-15.74l.005,0,.181-.121,3.8-2.553a7.411,7.411,0,0,0,2.959-3.443.414.414,0,0,0,.159-.553l-.4.221-.184.076c-.107.044-.218.089-.326.136a7.916,7.916,0,0,1-3.2.695A6.751,6.751,0,0,1,76.09,46.7a7.205,7.205,0,0,1,1.354-9.17,3.257,3.257,0,0,1,.537-.386,1.782,1.782,0,0,0,.849-.852,3.563,3.563,0,0,0-1.1-.159,6.975,6.975,0,0,0-1.084.1A20.986,20.986,0,0,0,69.6,39.145a114.549,114.549,0,0,0-11.751,7.788c-.042.031-.085.066-.129.1a1,1,0,0,1-.548.287.479.479,0,0,1-.382-.243.438.438,0,0,1-.1-.334c.033-.185.232-.321.408-.44.043-.029.085-.057.123-.086C62.834,42.086,67.96,38.465,73.822,36a1.837,1.837,0,0,0,1.21-1.507,9.22,9.22,0,0,0-.889-6.329,9,9,0,0,0-7.893-4.7ZM97.906,30.71c-.218,0-.436.009-.647.026l-.921.1c-.607.065-1.234.132-1.851.206a31.17,31.17,0,0,0-13.737,5.432c-.274.183-.559.359-.835.53a9.611,9.611,0,0,0-2.4,1.869,6.179,6.179,0,0,0-1.231,6.062,5.675,5.675,0,0,0,1.625,2.395,6.016,6.016,0,0,0,2.836,1.355,6.735,6.735,0,0,0,1.288.13,5.268,5.268,0,0,0,4.3-2.175,8.528,8.528,0,0,1,2.815-2.4,7.379,7.379,0,0,1,3.379-.781,10.3,10.3,0,0,1,2.106.231,12.182,12.182,0,0,0,2.521.22h.173c.622,0,1.4-.006,1.578-.771.166-.7-.392-.961-.885-1.195-.1-.047-.191-.091-.278-.137a17.262,17.262,0,0,0-3.14-1.192c-.43-.132-.874-.268-1.307-.416l-.118-.038c-.282-.089-.548-.173-.544-.545,0-.395.317-.459.593-.515l.1-.022a3.36,3.36,0,0,1,.46-.058c.123-.01.249-.02.371-.041.472-.08.955-.153,1.421-.223a19.294,19.294,0,0,0,5.474-1.384l.039-.018c.408-.192.87-.411.785-.969-.082-.527-.547-.64-1-.749l-.05-.012a8.59,8.59,0,0,0-2.046-.226,16.1,16.1,0,0,0-1.7.1c-.526.056-1.06.119-1.576.18-.664.078-1.351.159-2.029.227l-.134.016a2.311,2.311,0,0,1-.294.026.422.422,0,0,1-.478-.4c-.068-.435.292-.55.609-.651l.121-.04c.462-.16.939-.3,1.4-.438l.464-.139c.488-.148.985-.3,1.466-.44,1.138-.34,2.314-.69,3.46-1.065.417-.136,1.046-.342.968-1.021-.071-.614-.646-.729-1.108-.822l-.049-.01A9.927,9.927,0,0,0,97.906,30.71ZM85.043,15.825c-.093,0-.148.019-.174.06s-.019.131.037.249c.289.6-.033.882-.345,1.151a2.781,2.781,0,0,0-.245.229c-.631.7-1.285,1.394-1.916,2.068-1.186,1.267-2.413,2.576-3.543,3.928a4.539,4.539,0,0,0,3.452,7.454,4.807,4.807,0,0,0,3.32-1.372c.225-.215.437-.451.642-.679.225-.25.457-.509.707-.74.348-.322.666-.67.635-1.027-.024-.272-.249-.541-.687-.822a6.03,6.03,0,0,1-1.909-2.2,2.53,2.53,0,0,0-.179-.257c-.16-.212-.341-.452-.293-.674a.557.557,0,0,1,.321-.346.547.547,0,0,1,.256-.075c.263,0,.4.28.534.551a2.385,2.385,0,0,0,.158.289,10.092,10.092,0,0,0,3.3,3.121,8.87,8.87,0,0,0,4.2,1.138,9.442,9.442,0,0,0,7.377-3.243c.33-.366.535-.656.459-.879-.062-.184-.317-.314-.78-.4a1.911,1.911,0,0,1-.8-.505l-.113-.1c-.26-.224-.513-.491-.23-.829a.45.45,0,0,1,.343-.19.725.725,0,0,1,.488.278,1.75,1.75,0,0,0,1.228.58l.073,0a.879.879,0,0,0,.96-.73,1.8,1.8,0,0,1,.164-.406c.144-.288.292-.586.05-.876l-.038-.045c-.342-.41-.513-.616-.472-.769.036-.134.225-.224.665-.388.462-.172.728-.381.813-.639a1.217,1.217,0,0,0-.277-1.008,3.715,3.715,0,0,1-.419-3.865,4.362,4.362,0,0,0-1.009-4.9l-.012-.013c-.3-.334-.5-.555-.7-.555-.172,0-.348.166-.589.555-.676,1.093-1.424,2.166-2.148,3.2q-.336.482-.669.964a7.643,7.643,0,0,1-5.837,3.374c-.238.022-.43.033-.586.033-.385,0-.608-.067-.724-.217-.179-.233-.108-.676.074-1.363a3.48,3.48,0,0,0-3.2-4.51,3.607,3.607,0,0,0-1.505.354,3.352,3.352,0,0,0-1.923,3.294c.048,1,.211,1.178.514,1.178a2.364,2.364,0,0,0,.886-.289.547.547,0,0,1,.224-.047l.05,0c.211.021.4.032.561.032.445,0,.7-.079.781-.241.124-.25-.192-.667-.5-1.071-.084-.112-.172-.227-.249-.338-.129-.185-.225-.328-.311-.464a.8.8,0,0,1-.189-.549.468.468,0,0,1,.237-.279.478.478,0,0,1,.249-.079.613.613,0,0,1,.455.314c.583.825,1.258,1.787,1.893,2.769a.616.616,0,0,1,.12.613.739.739,0,0,1-.668.283c-.2.006-.406.009-.618.009-.74,0-1.471-.036-2.027-.068-.046,0-.1-.009-.148-.015A1.819,1.819,0,0,0,85.043,15.825ZM70.072,13.056c.536,0,1.07.378,1.994,1.172.185.16.383.306.553.427A7.462,7.462,0,0,0,76.981,16.1,6.989,6.989,0,0,0,80.7,15.034a7.523,7.523,0,0,0,2.732-3.071,4.451,4.451,0,0,1,3.957-2.482,4.311,4.311,0,0,1,1.21.174,4.463,4.463,0,0,1,2.483,1.853,4,4,0,0,1,.6,3c-.088.433-.074.713.044.857a.415.415,0,0,0,.348.13,3.023,3.023,0,0,0,.582-.089,6.629,6.629,0,0,0,4.2-2.784c.622-.9,1.25-1.825,1.857-2.716l.005-.008c.5-.732,1.015-1.49,1.53-2.24.04-.058.078-.117.117-.178a1.907,1.907,0,0,1,.488-.577l.069-.045c.328-.215.492-.323.513-.459s-.12-.317-.4-.665l-.005-.006a9.254,9.254,0,0,0-7.186-3.449,9.424,9.424,0,0,0-8.1,4.641,2.354,2.354,0,0,0-.145.309c-.126.3-.257.62-.624.62a.749.749,0,0,1-.115-.009c-.389-.061-.442-.409-.493-.746a2.765,2.765,0,0,0-.053-.284,7.524,7.524,0,0,0-7.276-5.793,7.708,7.708,0,0,0-5.211,2.064,2.8,2.8,0,0,1-1.763.956,2.71,2.71,0,0,1-1.71-.911,7.786,7.786,0,0,0-5.2-2.118,7.881,7.881,0,0,0-5.269,2.164,2.617,2.617,0,0,1-1.658.873,2.663,2.663,0,0,1-1.7-.915,7.218,7.218,0,0,0-4.69-2.06h-.081A8.427,8.427,0,0,0,44.9,2.5a7.057,7.057,0,0,0-2.745,3.753,7.639,7.639,0,0,0,.108,4.9,7.5,7.5,0,0,0,7.007,4.935,7.768,7.768,0,0,0,5.1-1.963c.77-.673,1.324-1.063,1.879-1.063s1.117.4,1.893,1.08a7.621,7.621,0,0,0,5.035,1.933,7.517,7.517,0,0,0,4.911-1.85C69.005,13.433,69.536,13.056,70.072,13.056Z" transform="translate(0 0)" fill="#001e35"/>
        </g>
      </g>
      <path id="Fill_15" data-name="Fill 15" d="M11.664,0c6.23,3.667,12.448,7.356,18.705,10.978.911.527.991.889.488,1.794-.633,1.139-1.654,2.13-1.652,3.572-.28.587-.57,1.17-.841,1.763a4.636,4.636,0,0,0,3.062,6.618,8.665,8.665,0,0,1,6.088,8.584c-.041.7-.3.864-.923.854q-7.4-.12-14.8-.2A2.729,2.729,0,0,1,20.5,33.5c-1.963-1.065-3.915-2.152-5.9-3.172a1.588,1.588,0,0,1-.933-1.388c-.592-4.438-1.231-8.87-1.862-13.3-.057-.4.11-1.06-.3-1.123-.474-.074-.56.617-.763.993-1.57,2.912-3.159,5.817-4.644,8.773-.487.97-.9,1.044-1.769.491A28.976,28.976,0,0,0,.887,22.932C-.058,22.5-.24,22.081.3,21.09,3.353,15.534,6.321,9.932,9.316,4.345c.352-.657.7-1.318,1.044-1.977.323-.4,1.787-.129.758-1.313L11.664,0" transform="translate(176.905 63.088)" fill="#f37777"/>
      <path id="Fill_17" data-name="Fill 17" d="M33.03,16.565c-.765.8-1.534,1.591-2.292,2.4-.337.357-.836.632-.7,1.258-.485.679-.985,1.348-1.453,2.04A2.5,2.5,0,0,0,30,26.332,6.894,6.894,0,0,1,34.161,28.9c1.025,1.54.826,3.3.961,5-5.782.2-11.565.313-17.351.288a5.733,5.733,0,0,1-1.464-.33,28.026,28.026,0,0,0-3.618-3.275A1.772,1.772,0,0,1,12,28.917c.357-4.468.654-8.941.961-13.413.028-.408.183-.834-.072-1.23l.162-.079c-.028,0-.071-.02-.081-.009a.55.55,0,0,0-.06.116C10.762,16.37,9.025,18.8,7.038,21c-.774.859-1.349,2.354-2.343,2.43s-1.81-1.286-2.682-2.04C1.283,20.763-.016,20.246,0,19.439c.015-.771,1.083-1.535,1.714-2.279Q9,8.575,16.288,0l17.37,15.37c-.124.294-.494.5-.335.9l-.013.011c-.221-.029-.3.086-.28.288" transform="translate(96.151 109.109)" fill="#f37777"/>
      <path id="Fill_19" data-name="Fill 19" d="M38.7,4.068a1.175,1.175,0,0,0,.605.765l.419.824c-2.256,3.456-2,5.693.99,8.588L40.695,18.4c-.368-.041-.742-.053-1.1-.129-.725-.152-1.654.518-2.089-.041-.3-.392.115-1.316.14-2.006a9.931,9.931,0,0,0-18.84-5c-3.695,7.11-7.327,14.252-10.989,21.38-.234.455-.487.9-.731,1.351a14.249,14.249,0,0,1-2.428-2.876,2.04,2.04,0,0,0-.485-1.064,14.6,14.6,0,0,1-.664-4.587q.051-.618.1-1.238c.28-.343-.024-.494-.228-.656-.508-.4-1.033-.787-1.542-1.19C-.328,20.638-.588,18.633,1.1,16.423c1.918-2.508,3.862-5,5.794-7.493,1.484.582,2.549,1.775,3.823,2.662.488.34.785.547,1.207-.081.9-1.335,1.859-2.627,2.794-3.936A18.146,18.146,0,0,1,25.059.3L26.853,0c1.2.042,2.405.02,3.6.14A14.935,14.935,0,0,1,38.7,4.068" transform="translate(147.987 16.858)" fill="#f37777"/>
      <path id="Fill_21" data-name="Fill 21" d="M.487,22.13a.463.463,0,0,1-.381-.255c-.283-.434.061-.669.365-.876.051-.035.1-.067.143-.1A78.141,78.141,0,0,0,9,13.951c.471-.467.928-.941,1.357-1.411.582-.636.874-.955.812-1.171s-.459-.319-1.184-.52C8.638,10.476,7.97,9.8,7.88,8.723c-.11-1.329.857-1.944,1.817-2.37a4,4,0,0,1,1.641-.38l.119,0a2.6,2.6,0,0,1,2.156.93,2.139,2.139,0,0,1,.22,1.957c-.145.464-.164.746-.06.887a.333.333,0,0,0,.292.113,2.871,2.871,0,0,0,.528-.079l.194-.039a91.6,91.6,0,0,0,16.959-5.4c2.264-.916,4.537-1.918,6.736-2.887C39.374,1.061,40.3.655,41.2.26c.051-.022.1-.047.156-.071A1.533,1.533,0,0,1,41.949,0c.2,0,.343.117.437.357.177.451-.247.623-.587.762-.055.022-.107.044-.156.065C33.878,4.677,25.078,8.636,15.78,10.559a7.7,7.7,0,0,0-4.809,2.721,52.607,52.607,0,0,1-9.526,8.272l-.283.208-.106.081A1.077,1.077,0,0,1,.487,22.13ZM11.441,7.042a3.136,3.136,0,0,0-2.236.825.913.913,0,0,0-.26.717c.139,1.14.982,1.25,1.725,1.348.183.024.356.047.518.083.062,0,.123.005.181.005.975,0,1.433-.485,1.53-1.622a1.244,1.244,0,0,0-.235-.972,1.475,1.475,0,0,0-1.1-.381Z" transform="translate(54.533 94.735)" fill="#001e35"/>
      <path id="Fill_23" data-name="Fill 23" d="M.515,3.965c.307-.108.289-.326.142-.532A5.086,5.086,0,0,1,.035,0,7.938,7.938,0,0,0,4.774,3.951,3.976,3.976,0,0,0,7.862,3.81c.584-.244.922-.621.5-1.279a2.59,2.59,0,0,0,1.171-.752c.372-.058.575-.351.817-.591C13.217.008,15.6,1.163,15.88,3.866l-.765.073c-.185-.136-.364-.283-.558-.408-2.041-1.313-2.706-.977-2.877,1.464a2.025,2.025,0,0,1-.911,1.626,4.925,4.925,0,0,1-4.989.5C5.19,6.864,4.6,6.6,4.016,6.345a1.4,1.4,0,0,0-.9-.562l-.481-.371A4.216,4.216,0,0,0,1.088,4.328c-.06-.318,0-.8-.57-.412Z" transform="translate(273.388 42.967)" fill="#f37777"/>
      <path id="Fill_25" data-name="Fill 25" d="M4.321.99A4.216,4.216,0,0,1,5.87,2.074l-.221.244C4.335,1.873,3.02,1.432,1.709.978,1.383.866,1.049.739.932,1.2c-.088.347.21.465.477.562s.531.169.784.282.559.221.5.573c-.054.326-.35.392-.631.435-.229.035-.462.051-.686.106a.443.443,0,0,0-.39.489c.032.322.31.339.52.3,1.607-.31,3.381-.056,4.7-1.366l.146-.135a1.4,1.4,0,0,1,.9.563c-1.361.559-1.332,1.254-.223,2.087a9.165,9.165,0,0,1,.688.692A4.7,4.7,0,0,0,15,5.173,4.744,4.744,0,0,1,16.6,3.65,2.908,2.908,0,0,0,18.348.6l.764-.073c.281.808,1,.481,1.547.6.16.036.316.091.473.137-.122.124-.221.3-.369.364a15.7,15.7,0,0,0-5.322,4.439,5.466,5.466,0,0,1-8.154.4C5.729,4.789,4.267,4.119,2.005,4.717.3,5.167-.234,4.385.414,2.735c.175-.446-.085-.551-.22-.8A1.225,1.225,0,0,1,.276.5,1.286,1.286,0,0,1,1.78.084,5.008,5.008,0,0,0,3.747.628s0-.05,0-.05c.013.383.381.273.57.412" transform="translate(270.155 46.304)" fill="#001e35"/>
      <path id="Fill_27" data-name="Fill 27" d="M8.39,5.814c.421.658.083,1.035-.5,1.279A3.977,3.977,0,0,1,4.8,7.233,7.939,7.939,0,0,1,.062,3.282C.04,2.494-.005,1.7,0,.916.007-.01.311-.289,1.17.334A20.742,20.742,0,0,0,4.4,2.7a.685.685,0,0,0,.759.519A12.557,12.557,0,0,0,8.39,5.814" transform="translate(273.361 39.684)" fill="#001e35"/>
      <path id="Fill_29" data-name="Fill 29" d="M7.824,1.757c-.935,1.309-1.9,2.6-2.794,3.936-.422.628-.719.421-1.207.081C2.549,4.886,1.484,3.693,0,3.112c1.141-1.59,2.159-3.3,4.561-3.1,1.38.117,2.236,1.05,3.263,1.74" transform="translate(154.883 22.676)" fill="#f37777"/>
      <path id="Fill_31" data-name="Fill 31" d="M.836,9.866C.453,9.905.092,9.932.011,9.5s.288-.541.6-.624C7.606,7,13.944,3.61,20.286.23c.334-.178.688-.416.976.007.319.467-.105.686-.411.852C14.571,4.491,8.249,7.8,1.334,9.764c-.178.051-.363.075-.5.1" transform="translate(80.615 99.548)" fill="#001e35"/>
      <path id="Fill_33" data-name="Fill 33" d="M2.776,6.773c-.966-.212-.9-1.191-1.3-1.812a22.43,22.43,0,0,1-1.2-2.367A1.664,1.664,0,0,1,.02,1.528,1.485,1.485,0,0,1,1.252.174C2.374.063,3.589-.319,4.576.592a1.625,1.625,0,0,1,.216,2.063C4.126,4.04,3.436,5.414,2.756,6.793Z" transform="translate(353.586 130.357)" fill="#f37777"/>
      <path id="Fill_35" data-name="Fill 35" d="M0,2.144C1.48,1.975,2.62,1.015,3.916.424c1.953-.891,2.82-.4,2.84,1.714,0,.42.018.841-.008,1.259-.077,1.22-.855,1.93-1.932,1.494C3.189,4.231,1.657,3.336.095,2.522c-.074-.038-.052-.261-.075-.4Z" transform="translate(356.342 135.006)" fill="#f37777"/>
      <path id="Fill_37" data-name="Fill 37" d="M1.675,13.156C1.13,10.618.557,8.085.053,5.539c-.28-1.416.622-2.586.972-3.871A15.855,15.855,0,0,1,1.679,0l0,13.156" transform="translate(166.563 169.681)" fill="#f37777"/>
      <path id="Fill_39" data-name="Fill 39" d="M2.873,3.721.545,10.287a5.311,5.311,0,0,1-.2-4.158C1.213,4.135,1.864,2.047,2.606,0c.185,1.234-.292,2.514.267,3.721" transform="translate(165.635 162.391)" fill="#f37777"/>
      <path id="Fill_41" data-name="Fill 41" d="M.759,4.479A.685.685,0,0,1,0,3.96Q.72,2.449,1.442.937c.2-.414.339-.9.916-.935.667-.042.813.523,1.055.955a49.938,49.938,0,0,0,2.562,4.77c-.241.24-.444.533-.816.59C4.39,4.8,3.627,3.271,2.848,1.756a4.39,4.39,0,0,0-.456-.609,4.74,4.74,0,0,0-.371.57c-.429.917-.843,1.841-1.262,2.763" transform="translate(277.764 38.428)" fill="#001e35"/>
      <path id="Fill_43" data-name="Fill 43" d="M1.613,8.034A1.272,1.272,0,0,1,.5,7.421,3.089,3.089,0,0,1,.389,4.235a1.254,1.254,0,0,1,1.195-.728,2.819,2.819,0,0,1,.88.164,4.147,4.147,0,0,1,.727.371,2.21,2.21,0,0,0,.931.4.374.374,0,0,0,.286-.119c.291-.308-.014-.761-.338-1.24a4.185,4.185,0,0,1-.394-.666A1.665,1.665,0,0,1,3.674.8,2.6,2.6,0,0,1,5.922,0h.014A2.1,2.1,0,0,1,7.727.616a2.46,2.46,0,0,1,.01,2.174A6.922,6.922,0,0,1,5.753,5.922,10.591,10.591,0,0,1,2.617,7.8,2.647,2.647,0,0,1,1.613,8.034ZM1.528,4.28a.527.527,0,0,0-.394.152C.869,4.7.886,5.3.9,5.78a2.787,2.787,0,0,1,.012.37C.905,6.642.9,7.2,1.774,7.242h.009a6.547,6.547,0,0,0,1.649-.73,8.406,8.406,0,0,0,1.349-.82.005.005,0,0,0,0-.007c-.234-.12-.472-.249-.7-.374a9.244,9.244,0,0,0-2.315-1,1.077,1.077,0,0,0-.233-.028ZM5.253.8c-.441,0-.881.062-.982.8A14.922,14.922,0,0,0,5.78,4.613c.015.017.026.026.032.026l0,0a7.269,7.269,0,0,0,1.45-2.969.689.689,0,0,0-.094-.6C6.959.807,6.481.785,6.01.785H5.835A1.879,1.879,0,0,1,5.565.8L5.41.8Z" transform="translate(246.451 144.484)" fill="#001e35"/>
      <path id="Fill_45" data-name="Fill 45" d="M1.641,8.644C.8,8.644.2,8.021.053,6.976A7.028,7.028,0,0,1,.009,5.72C.058,4.493.635,3.789,1.59,3.789a2.855,2.855,0,0,1,1.052.23,4.66,4.66,0,0,1,.672.374,2.277,2.277,0,0,0,.979.44.391.391,0,0,0,.288-.115c.29-.284-.036-.783-.352-1.266a4.963,4.963,0,0,1-.374-.635,2.069,2.069,0,0,1-.1-1.979A2.583,2.583,0,0,1,6.021,0H6.1A2.227,2.227,0,0,1,8.093.753a2.312,2.312,0,0,1-.144,2.2c-.026.059-.058.117-.089.173a1.245,1.245,0,0,0-.143.333c-.583,2.817-2.881,3.894-5.1,4.936l-.05.024A2.185,2.185,0,0,1,1.641,8.644ZM1.585,4.605c-.538,0-.769.44-.773,1.47a2.272,2.272,0,0,0,.341,1.549A.6.6,0,0,0,1.6,7.8a2.594,2.594,0,0,0,1.132-.392c.2-.111.421-.211.63-.307A4.086,4.086,0,0,0,4.893,6.093c-.224-.118-.451-.241-.671-.359l-.009,0c-.493-.266-1-.542-1.518-.786A2.78,2.78,0,0,0,1.585,4.605ZM6.066.8H6.061c-.911,0-1.4.14-1.6.45-.176.282-.1.727.225,1.4.267.543.559,1.084.842,1.607.129.238.262.483.391.728a4.475,4.475,0,0,0,1-1.717c.088-.221.178-.449.28-.667.312-.668.374-1.11.195-1.392S6.8.8,6.072.8Z" transform="translate(151.593 145.146)" fill="#001e35"/>
      <path id="Fill_47" data-name="Fill 47" d="M.254,0C.288.154.393.406.342.444.151.584.117.316,0,.241L.254,0" transform="translate(321.545 172.101)" fill="#f37777"/>
      <path id="Fill_49" data-name="Fill 49" d="M.206.144.134.222C.112.194.072.165.073.138S.117.085.141.059L.206.144" transform="translate(162.977 163.19)" fill="#82b0fe"/>
      <path id="Fill_51" data-name="Fill 51" d="M1.5,1.7a5.684,5.684,0,0,1,9.287,1.726,5.66,5.66,0,0,1-3.116,7.388A5.572,5.572,0,0,1,.319,7.465,13.014,13.014,0,0,1,0,6.113,33.834,33.834,0,0,1,1.5,1.7" transform="translate(143.946 74.266)" fill="#f37777"/>
      <path id="Fill_53" data-name="Fill 53" d="M5.664,0a5.666,5.666,0,0,1,4.929,6.164,5.6,5.6,0,0,1-6.676,4.875,9,9,0,0,0-1.1-.057L2.841,11c-.075-.334-.339-.276-.574-.277l-.828-.472c-.033-.184-.092-.346-.307-.383l.02.025L0,8.323,5.664,0" transform="translate(190.323 53.547)" fill="#f37777"/>
      <path id="Fill_55" data-name="Fill 55" d="M4.21,11.2A7.807,7.807,0,0,1,1.159,9.1a5.765,5.765,0,0,1,.4-7.418A5.566,5.566,0,0,1,8.82,1.058c.3.21.6.429.9.644A104.769,104.769,0,0,1,4.21,11.2" transform="translate(213.893 46.866)" fill="#f37777"/>
      <path id="Fill_57" data-name="Fill 57" d="M4.683,11.085A5.56,5.56,0,0,1,.143,6.929,5.612,5.612,0,0,1,2.388,1.015,5.238,5.238,0,0,1,8.245.781C7.2,4.266,5.937,7.674,4.683,11.085" transform="translate(161.833 73.079)" fill="#f37777"/>
      <path id="Fill_59" data-name="Fill 59" d="M9.187,0a6.47,6.47,0,0,1,1.566,6.041L2.12,8.762A5.983,5.983,0,0,1,0,6.153L9.187,0" transform="translate(176.397 58.342)" fill="#f37777"/>
      <path id="Fill_61" data-name="Fill 61" d="M7.986.074A7.005,7.005,0,0,1,9.723,3.953,5.438,5.438,0,0,1,4.851,9.9c-.32.055-.635.137-.952.206C3.538,8.449,2.062,8.167.827,7.578.524,7.433-.03,7.463,0,7.046c.028-.372.54-.215.837-.281A19.772,19.772,0,0,0,5.257,5.54c.863-.418,1.719-.931,1.55-2.063C6.645,2.39,5.734,2.007,4.786,1.829,4.1,1.7,3.4,1.7,2.5,1.632,4.428,1.017,5.944-.329,7.986.074" transform="translate(205.536 32.794)" fill="#f37777"/>
      <path id="Fill_63" data-name="Fill 63" d="M8.9,0a7.241,7.241,0,0,1,.408,4.364C8.075,8.613,3.779,10.221,0,7.815,2.853,5.079,5.855,2.514,8.9,0" transform="translate(121.337 92.579)" fill="#f37777"/>
      <path id="Fill_65" data-name="Fill 65" d="M.662,3.739,0,2.147A10.579,10.579,0,0,1,1.962,0a12.084,12.084,0,0,1,.987,2.99L.662,3.739" transform="translate(195.917 28.095)" fill="#f37777"/>
      <path id="Fill_67" data-name="Fill 67" d="M.039,1.187c-.159-.4.211-.6.335-.9L1.333,0,1.4.047C1.022.515.721,1.08.039,1.187" transform="translate(129.434 124.188)" fill="#f37777"/>
      <path id="Fill_69" data-name="Fill 69" d="M0,.293C-.013.091.06-.025.282,0,.333.241.154.254,0,.293" transform="translate(129.178 125.381)" fill="#f37777"/>
      <path id="Fill_71" data-name="Fill 71" d="M.221,0,.7.371.557.505,0,.244.221,0" transform="translate(275.804 48.379)" fill="#001e35"/>
      <path id="Fill_73" data-name="Fill 73" d="M1.158,4.582A1.116,1.116,0,0,1,.019,3.552C-.1,2.756.326,2.295,1.36,2.1L6.746,1.092l.061-.011,3.737-.7,1.119-.21.9-.17.1,0c.753,0,1.172.3,1.282.929a1.131,1.131,0,0,1-.989,1.427c-4.635.9-8.184,1.58-11.507,2.2A1.594,1.594,0,0,1,1.158,4.582ZM12.549.972a.506.506,0,0,0-.089.007C8.946,1.626,5.266,2.314,1.522,3.024l-.021,0c-.137.026-.308.058-.375.173a.284.284,0,0,0-.007.237.264.264,0,0,0,.188.176c.014,0,.019.006.019.009s-.008.006-.034.012l4.6-.874.315-.06,6.323-1.2a.591.591,0,0,0,.392-.181.289.289,0,0,0,.029-.231C12.938,1.028,12.715.972,12.549.972Z" transform="translate(237.909 171.231)" fill="#001e35"/>
      <path id="Fill_75" data-name="Fill 75" d="M5.555,0a5.571,5.571,0,0,1,5.632,5.55A5.631,5.631,0,0,1,5.511,11.22,5.5,5.5,0,0,1,0,5.582,5.493,5.493,0,0,1,5.555,0" transform="translate(137.534 96.479)" fill="#f37777"/>
      <path id="Fill_77" data-name="Fill 77" d="M.647,1.4A.647.647,0,0,1,0,.674.629.629,0,0,1,.709,0a.66.66,0,0,1,.678.721.681.681,0,0,1-.74.679" transform="translate(208.483 15.461)" fill="#001e35"/>
      <path id="Fill_79" data-name="Fill 79" d="M.907,1.635C.382,1.583.038,1.325,0,.871A.753.753,0,0,1,.835,0a.731.731,0,0,1,.771.789c.022.517-.345.7-.7.845" transform="translate(286.012 46.859)" fill="#001e35"/>
      <path id="Fill_81" data-name="Fill 81" d="M.2,2.663c.119-.031-.106.011-.174-.2-.108-.329.2-.376.4-.414Q5.892,1.015,11.364.007c.16-.029.476.038.492.11.065.3-.182.366-.421.411L.2,2.663" transform="translate(239.005 172.204)" fill="#f37777"/>
    </g>
  </g>
</svg>
