<svg xmlns="http://www.w3.org/2000/svg" xmlns:xlink="http://www.w3.org/1999/xlink" width="335" height="180" viewBox="0 0 335 180">
  <defs>
    <clipPath id="clip-path">
      <path id="Mask" d="M0,0H335a0,0,0,0,1,0,0V162.2A17.8,17.8,0,0,1,317.2,180H17.8A17.8,17.8,0,0,1,0,162.2V0A0,0,0,0,1,0,0Z" transform="translate(335 180) rotate(-180)" fill="#bbcde5"/>
    </clipPath>
    <clipPath id="clip-path-2">
      <path id="Clip_4" data-name="Clip 4" d="M0,0H345.527V110.879H0Z" fill="none"/>
    </clipPath>
    <clipPath id="clip-path-3">
      <path id="Clip_21" data-name="Clip 21" d="M0,0H13.2V10.895H0Z" fill="none"/>
    </clipPath>
  </defs>
  <g id="Recurso_6_2x" data-name="Recurso 6@2x" clip-path="url(#clip-path)">
    <g id="Group_47" data-name="Group 47" transform="translate(-9 9)">
      <path id="Fill_1" data-name="Fill 1" d="M98.258,0a14.68,14.68,0,0,1,7.42,3.64c4.746,4.108,9.574,8.12,14.374,12.164q8.8,7.42,17.617,14.83,7.3,6.139,14.591,12.278c.4.333.749.716,1.121,1.075-4.28.014-8.56.043-12.84.038q-13.563-.014-27.125-.056L110.521,41.5c-.026-.436-.074-.872-.074-1.309q-.008-8.524,0-17.047c0-.32.005-.641-.013-.96-.021-.379-.1-.749-.58-.759-.537-.011-.641.383-.661.813-.013.28-.005.56-.005.84,0,6.483-.029,12.966.026,19.448.01,1.152-.195,1.531-1.465,1.525-13.036-.063-26.072-.044-39.109-.055-2.918,0-5.836-.035-8.754-.054-.811-1.646-2-3.082-2.682-4.8,1.445.279,2.892.548,4.333.842.457.093.924.2,1.057-.4s-.364-.72-.8-.82c-.951-.219-1.907-.42-2.861-.628a34.533,34.533,0,0,1,4.319-2.295c.43-.2.978-.414.641-1.039-.287-.534-.76-.271-1.155-.09-2.026.931-4.045,1.879-6.074,2.8a1.09,1.09,0,0,0-.785.947q-1.759.855-3.517,1.71c-2.671,1.3-5.448,2.379-8.053,3.821-.957.015-1.915.034-2.872.041-.388,0-.756.082-.859.494-.133.531.283.67.681.784l-5.308,2.351c.509-1.338,1.024-2.673,1.524-4.014.154-.412.346-.905-.232-1.118-.559-.205-.746.252-.916.683-.411,1.045-.84,2.083-1.355,3.353-.6-1.268-1.085-2.306-1.582-3.337-.208-.432-.423-.973-1.042-.653-.538.278-.284.742-.094,1.144.7,1.477,1.4,2.952,2.087,4.432.208.447.5.715,1.024.594,1.164,2,2.31,4.005,3.5,5.989,1.983,3.314,3.771,6.743,5.912,9.963a2.078,2.078,0,0,0,.718,1.222A81.1,81.1,0,0,0,49.6,73.084a9.3,9.3,0,0,0,1.314,2.163,6.9,6.9,0,0,0,1.3,2.2,1.87,1.87,0,0,0,.719,1.228c.016.078.028.157.049.233.206.748,1.238,1.426.87,2.034-.316.52-1.4.575-2.142.836a2.074,2.074,0,0,0-1.193.431,10.652,10.652,0,0,0-1.049.194q-9.353,2.691-18.7,5.4c-1.039-.889-1.217.647-1.928.685-.672-.036-1.335.485-1.944-.48-3.729-5.91-7.532-11.774-11.347-17.629-1.938-2.974-3.751-6.03-5.855-8.894a6.47,6.47,0,0,0-1.32-2.023c-1.537-2.809-3.4-5.411-5.13-8.1a19.278,19.278,0,0,1-3-6.733A14.481,14.481,0,0,1,8.244,29.156c9.783-4.45,19.535-8.969,29.292-13.476q10.12-4.674,20.218-9.394a24.159,24.159,0,0,1,6.739-1.552c4.65-.7,9.268-1.619,13.948-2.123.065.393.144.783.193,1.177a8.563,8.563,0,0,0,6.8,7.021,7.747,7.747,0,0,0,8.335-4.694,23.461,23.461,0,0,0,1.377-3.441A3.16,3.16,0,0,1,98.258,0" transform="translate(59.784 32.676)" fill="#f37777"/>
      <g id="Group_5" data-name="Group 5" transform="translate(0 87.121)">
        <path id="Clip_4-2" data-name="Clip 4" d="M0,0H345.527V110.879H0Z" fill="none"/>
        <g id="Group_5-2" data-name="Group 5" clip-path="url(#clip-path-2)">
          <path id="Fill_3" data-name="Fill 3" d="M9.906,110.878c-.329,0-.708-.076-.721-.672a.783.783,0,0,1,.172-.589.707.707,0,0,1,.536-.173,3.855,3.855,0,0,1,.492.044l.015,0a3.594,3.594,0,0,0,.451.042h.023c.979-.021,2.016-.031,3.361-.031.661,0,1.315,0,2.008,0h.008c.7,0,1.419,0,2.152,0a17.027,17.027,0,0,1-7.382-7.075,14.4,14.4,0,0,1-.783-9.989c1.352-5.622,5.771-9.122,13.135-10.4L21.91,80.153l-.04-.052c-.933-1.206-1.9-2.454-2.843-3.672-.883-1.138-1.784-2.293-2.655-3.41l-.812-1.041-.033-.042c-.24-.306-.488-.623-.252-1.033a.725.725,0,0,1,.713-.317h.122l.136,0h4.077a.9.9,0,0,0-.031-.825c-.029-.075-.056-.146-.076-.217-2.475-8.922-4.947-17.773-7.69-27.589-.189-.677-.289-1-.492-1-.175,0-.428.244-.859.675A17.857,17.857,0,0,1,8.347,44.04a3.59,3.59,0,0,1-1.95.6,3.429,3.429,0,0,1-2.179-.793,3.513,3.513,0,0,1-1.107-3.9,3.429,3.429,0,0,1,3.372-2.316H6.53a16.45,16.45,0,0,1,4.126.707,1.6,1.6,0,0,0,.4.068.321.321,0,0,0,.269-.1c.087-.109.092-.312.016-.64A7.466,7.466,0,0,0,8.52,32.872c-1.951-1.47-3.826-3.11-5.639-4.7-.709-.62-1.439-1.259-2.163-1.879-.061-.053-.13-.1-.2-.154-.29-.218-.589-.441-.507-.872s.449-.522.8-.6c.078-.017.158-.034.234-.055q2.3-.641,4.589-1.285l.016,0c2.875-.806,5.847-1.64,8.775-2.448.087-.024.175-.056.268-.09a1.744,1.744,0,0,1,.58-.143.664.664,0,0,1,.5.228c.333.355.173.713.018,1.06a3.053,3.053,0,0,0-.116.286q-.323.984-.643,1.968l-.015.046c-.856,2.625-1.74,5.339-2.709,7.975a5.407,5.407,0,0,0-.078,4.147,8.313,8.313,0,0,1,.33,1.1c.048.19.1.385.155.588a2.291,2.291,0,0,0,.962-.736c.106-.117.205-.228.316-.33l.212-.2a17.447,17.447,0,0,1,2.178-1.806,3.824,3.824,0,0,1,2.1-.707,3.675,3.675,0,0,1,2.309.917,1.227,1.227,0,0,1,.136.137.608.608,0,0,0,.476.267.71.71,0,0,0,.12-.011.543.543,0,0,0,.023.563.982.982,0,0,1,.046.092,3.7,3.7,0,0,1-.2,3.519,3.634,3.634,0,0,1-3.114,1.514h-.122a16.3,16.3,0,0,1-3.1-.478l-.441-.1-.069-.015a4.5,4.5,0,0,0-.773-.132.241.241,0,0,0-.206.071c-.1.125-.011.428.157,1.032l.009.033q.573,2.063,1.148,4.125l.014.049.029.106.768,2.759c.511,1.837,1.038,3.718,1.5,5.379V54.1c1.421,5.079,2.891,10.33,4.276,15.511.238.891.71,1.011,1.142,1.011.142,0,.29-.014.433-.027s.29-.026.432-.026c.044,0,.086,0,.126,0s.077,0,.113,0a.637.637,0,0,0,.508-.171.989.989,0,0,0,.072-.766,2.011,2.011,0,0,1-.034-.369c.082-1.659.123-3.348.162-4.981.015-.613.031-1.307.05-1.982q.082-2.915.164-5.831l0-.055c.162-5.766.33-11.728.49-17.644a1.922,1.922,0,0,1,.022-.21c.038-.276.081-.589-.335-.689a5.921,5.921,0,0,1-3.244-2.4l-.016.03a5.934,5.934,0,0,1-.1-4.2,5.717,5.717,0,0,1,3.236-2.9c-.425-.448-.853-.9-1.267-1.328-.931-.973-1.809-1.89-2.684-2.847a9.165,9.165,0,0,1-1.905-10.22,9.057,9.057,0,0,1,2.383-3.273c.462-.432.926-.873,1.374-1.3.894-.849,1.816-1.725,2.747-2.559a1.042,1.042,0,0,0,.314-1.435c-.517-1.1-.95-2.2-1.421-3.431-.039-.1-.093-.208-.151-.321-.153-.3-.31-.609-.211-.864A.647.647,0,0,1,24.3.5a.845.845,0,0,1,.288-.059c.371,0,.5.369.621.726a2.4,2.4,0,0,0,.185.444A2.5,2.5,0,0,1,25.571,2a2.168,2.168,0,0,0,.705,1.034c0-.287,0-.554,0-.806,0-.533,0-.993,0-1.464,0-.5.223-.769.617-.769.027,0,.055,0,.083,0,.482.043.531.479.526.8-.008.5-.007,1-.005,1.528v.013c0,.228,0,.465,0,.714a3.429,3.429,0,0,0,.72-1.168,5.576,5.576,0,0,1,.256-.537c.034-.061.069-.128.1-.188.152-.3.309-.6.634-.6a.756.756,0,0,1,.3.071.6.6,0,0,1,.361.326,1.037,1.037,0,0,1-.182.758c-.023.046-.046.091-.067.135q-.173.365-.344.73l-.011.024c-.452.962-.92,1.957-1.438,2.9a1.019,1.019,0,0,0,.236,1.434c1.2,1.206,2.382,2.47,3.524,3.692l.369.4a9.612,9.612,0,0,1,2.8,6.87A9.623,9.623,0,0,1,31.6,24.621c-.929.894-1.88,1.788-2.8,2.653l-.015.014q-.589.554-1.174,1.1c.066.335.287.412.5.486a1.174,1.174,0,0,1,.229.1,5.259,5.259,0,0,1,1.9,1.912,4.593,4.593,0,0,1,.525,2.6,4.513,4.513,0,0,1-3.343,4.243c-.7.22-1.014.455-1.035,1.264-.238,9.272-.522,19.329-.87,30.748a.96.96,0,0,0,.17.717.607.607,0,0,0,.463.152,1.927,1.927,0,0,0,.229-.015,4.343,4.343,0,0,1,.5-.031,2.982,2.982,0,0,1,.456.033,2.027,2.027,0,0,0,.315.027c.552,0,.869-.283,1.132-1.01,1.525-4.221,3.112-8.5,4.646-12.637l.007-.019.019-.052Q34.156,55,34.862,53.09a1.046,1.046,0,0,1,.181-.016,1.849,1.849,0,0,1,.892.315l0,0,.12.067q-.7,1.9-1.4,3.808l-.029.078c-1.483,4.026-3.017,8.189-4.56,12.28-.16.425-.188.678-.089.82.08.115.242.166.526.166.078,0,.166,0,.268-.012.229-.018.475-.026.776-.026.2,0,.4,0,.592.007s.438.008.671.008h.078c.312,0,.606.024.774.317.213.371.018.674-.219.977C32.629,72.928,31.8,73.994,31,75.026l-.023.03-.257.331L28.25,78.572l-.128.165-2.536,3.27A16.98,16.98,0,0,1,34.9,85.933,13.823,13.823,0,0,1,39.141,94.9a13.252,13.252,0,0,1-1.7,8.575,16.247,16.247,0,0,1-6.682,5.863c.005.01.011.025.018.043.019.047.042.105.065.105,8.888,0,17.737-.011,26.04-.021l13.5.012,14.448-.008,4.058.015h.15c2.988.012,6.078.024,9.117.024h.448c5.645,0,11.385-.013,16.937-.024h.006l6.77-.013.3.016c.219.012.442.025.661.025H206.87c.217,0,.437-.013.65-.025l.306-.016,6.308,0,6.308,0,5.646.007,7.242.012c6.334.011,12.884.022,19.366.025h.359c2.441,0,4.916-.012,7.311-.023q1.858-.009,3.715-.016c.107,0,.214.011.32.018.21.013.426.026.637.026q28.694,0,57.389,0h.917a17.013,17.013,0,0,1-7.389-7.1,13.768,13.768,0,0,1-.629-9.959,13.084,13.084,0,0,1,4.665-7.193,16.615,16.615,0,0,1,8.313-3.037l-.283-.381,0-.005c-.2-.274-.4-.533-.59-.783q-1.374-1.776-2.749-3.551c-1.285-1.659-2.613-3.374-3.936-5.087-.052-.067-.111-.135-.169-.2-.265-.3-.538-.618-.317-1.053a.68.68,0,0,1,.686-.372c.1,0,.206.009.3.017s.2.016.295.016h.027c.409-.008.855-.011,1.4-.011l.982,0,1.059,0-1.118-3.664-.059-.192c-.918-3.009-1.825-5.981-2.733-8.952l-.355-1.165c-.489-1.607-1-3.268-1.508-4.905-.017-.053-.031-.108-.045-.16-.093-.344-.181-.669-.743-.669h-.024a3.508,3.508,0,0,1-3.462-2.453,3.553,3.553,0,0,1,1.006-4.047.444.444,0,0,0,.077-.133c.017-.037.038-.084.066-.139l-1.151-.616c-.755-.4-1.535-.821-2.311-1.24a7.046,7.046,0,0,1-3.075-9.814c.626-1.231,1.243-2.432,1.915-3.595a.957.957,0,0,0-.157-1.345c-.427-.437-.828-.912-1.217-1.371-.172-.2-.349-.412-.525-.614l-.06-.068c-.207-.235-.422-.479-.4-.74a.6.6,0,0,1,.248-.409.564.564,0,0,1,.363-.152c.279,0,.516.268.726.5l.011.012a1.955,1.955,0,0,0,.188.176c.039.033.081.07.129.113a1.094,1.094,0,0,0,.013-.747.92.92,0,0,1,.021-.7.641.641,0,0,1,.455-.223.8.8,0,0,1,.12-.01c.378,0,.481.316.591.652a1.5,1.5,0,0,0,.251.53.96.96,0,0,0,.287-.657c.061-.335.118-.652.471-.652a.984.984,0,0,1,.3.056c.671.22.519.778.384,1.27a3.483,3.483,0,0,0-.1.409l-.006.042c-.394,2.736-.394,2.736,2.1,4.054q.3.157.594.311c.573.3,1.163.605,1.726.938a6.989,6.989,0,0,1,2.829,8.971c-.424.932-.926,1.848-1.411,2.734-.122.223-.243.444-.362.664l-.039.072c-.127.233-.219.4-.161.546.051.127.215.23.534.332a3.862,3.862,0,0,1,2.787,2.848,4.02,4.02,0,0,1-1.524,3.8.79.79,0,0,0-.309,1c1.921,6.225,3.844,12.507,5.716,18.672.218.716.622.808.951.808a3.429,3.429,0,0,0,.547-.061l.014,0a3.352,3.352,0,0,1,.524-.058,1.166,1.166,0,0,1,.16.01,1.309,1.309,0,0,0,.174.013.449.449,0,0,0,.36-.128c.136-.158.095-.439.058-.687a2.133,2.133,0,0,1-.031-.3c.034-3.444.046-6.935.058-10.312v-.225q0-1.338.01-2.676h1.129q0,1.435.008,2.87c.009,3.388.018,6.888.057,10.33a1.588,1.588,0,0,1-.046.315c-.049.234-.1.5.029.662a.623.623,0,0,0,.507.166h.1c.089,0,.177,0,.281.01s.192.009.283.009c.5,0,.871-.156,1.079-.917,2.551-9.338,5.192-18.82,7.746-27.99l.042-.15q1.093-3.924,2.185-7.848l.085-.412.085-.412c.791-2.307,1.371-4.6,1.835-6.533a1.237,1.237,0,0,1,.733-.423c.271,0,.44.287.5.852l-.784,2.879-.32,1.174-.63,2.311-.125.472-.017.063-.1.394q-.624,2.208-1.25,4.415l-.006.022c-.969,3.418-1.971,6.953-2.944,10.433-.744,2.659-1.5,5.364-2.223,7.98l-.014.051,0,.012c-1.15,4.137-2.339,8.416-3.527,12.618-.114.4-.16.687-.036.851.089.117.267.172.562.172.063,0,.133,0,.208-.007.381-.025.79-.036,1.288-.036.337,0,.681.005,1.013.011h.016c.3,0,.617.01.925.01l.133,0h.005l.121,0a.706.706,0,0,1,.7.331c.227.4,0,.673-.214.937-.034.041-.068.082-.1.123q-1.506,1.951-3.014,3.9l-.031.04c-1.337,1.728-2.719,3.515-4.074,5.275a2.248,2.248,0,0,1-.154.174.833.833,0,0,0-.315.631,16.26,16.26,0,0,1,8.481,3.29,13.4,13.4,0,0,1,4.535,7.724c1.554,6.971-1.221,12.445-8.248,16.27h7.107c.183,0,.324,0,.457.011a.615.615,0,0,1,.658.688.584.584,0,0,1-.626.587c-.285.02-.57.022-.838.022h-62.5c-80.416,0-175.237,0-268.79-.016h-.009a3.465,3.465,0,0,0-.4.035l-.04,0A4.043,4.043,0,0,1,9.906,110.878ZM24.458,83.345a13.946,13.946,0,0,0-9.437,3.531,12.467,12.467,0,0,0-4.094,8.833,12.8,12.8,0,0,0,3.523,9.453,13.687,13.687,0,0,0,9.979,4.072h.021a14.027,14.027,0,0,0,9.5-3.529,12.453,12.453,0,0,0,4.076-8.823,12.819,12.819,0,0,0-3.406-9.332,13.644,13.644,0,0,0-9.255-4.179C25.061,83.354,24.757,83.345,24.458,83.345Zm304.411.183a12.887,12.887,0,0,0-12.847,11.3,12.737,12.737,0,0,0,.836,6.315,12.469,12.469,0,0,0,4.855,5.96,14.252,14.252,0,0,0,7.707,2.116,18.694,18.694,0,0,0,2.651-.194A12.813,12.813,0,0,0,342.8,97.06a12.964,12.964,0,0,0-3.518-9.564,13.58,13.58,0,0,0-9.9-3.958C329.206,83.531,329.035,83.528,328.868,83.528ZM17.065,71.88l7.4,9.542,5.252-6.772,2.147-2.769Zm305.176.18c.007.062.008.115.01.158a.278.278,0,0,0,.028.156c.742.965,1.5,1.946,2.232,2.894l.035.046c1.441,1.866,2.931,3.8,4.387,5.711.179.235.333.35.472.35.178,0,.312-.186.454-.382.033-.046.067-.093.1-.138l1.381-1.784.008-.01c1.614-2.085,3.283-4.241,4.92-6.364.024-.031.053-.062.083-.094.127-.136.271-.291.087-.54Zm-5.2-26.678c-.13,0-.272.136-.444.34a2.348,2.348,0,0,0-.433,2.656,2.484,2.484,0,0,0,2.436,1.529c-.134-.437-.267-.864-.4-1.277l0-.005c-.3-.957-.581-1.862-.835-2.781-.086-.311-.193-.463-.327-.463Zm1.323-.479.587,1.905.007.024.819,2.661c1.149-.928,1.5-1.9,1.06-2.972A2.432,2.432,0,0,0,318.368,44.9ZM6.417,38.839a2.125,2.125,0,0,0-2.144,1.55,2.119,2.119,0,0,0,.719,2.478,2.246,2.246,0,0,0,1.419.554A2.466,2.466,0,0,0,7.849,42.9a22.873,22.873,0,0,0,3.4-3.122,21.812,21.812,0,0,0-4.567-.926C6.594,38.843,6.5,38.839,6.417,38.839Zm306.6-9.582c-.2,0-.353.137-.5.446-.279.569-.589,1.136-.888,1.684-.417.763-.848,1.552-1.2,2.36a5.808,5.808,0,0,0-.491,3.278A5.958,5.958,0,0,0,311.4,40a9.7,9.7,0,0,0,3.207,2.156c.631.313,1.284.637,1.937,1.04l-.509-1.685,0-.01-.007-.025c-.417-1.379-.777-2.57-1.142-3.789-.022-.072-.047-.144-.075-.221a1.065,1.065,0,0,1-.089-.8.614.614,0,0,1,.412-.281.887.887,0,0,1,.235-.036c.424,0,.532.419.627.789.021.082.041.159.064.232.389,1.22.761,2.453,1.154,3.758l.006.021c.16.529.324,1.074.5,1.639.252-.492.5-.956.74-1.405l0-.007c.5-.943.981-1.834,1.365-2.753a5.668,5.668,0,0,0-2.4-7.083c-.735-.439-1.508-.841-2.255-1.23l-.006,0c-.54-.281-1.1-.572-1.637-.874A1.1,1.1,0,0,0,313.014,29.257ZM18.464,35.481h0a2.372,2.372,0,0,0-1.375.487,20.718,20.718,0,0,0-3.447,3.183l.311.079a22.761,22.761,0,0,0,4.311.816c.065,0,.13.006.192.006a2.121,2.121,0,0,0,2.132-1.486,2.1,2.1,0,0,0-.743-2.555,2.194,2.194,0,0,0-1.381-.529ZM26.5,33.329c0,.26,0,.52,0,.779,0,.608.01,1.238-.013,1.857-.01.287,0,.486.1.586a.264.264,0,0,0,.2.072,1.233,1.233,0,0,0,.414-.1,3.565,3.565,0,0,0,.163-6.636,1.142,1.142,0,0,0-.415-.111.254.254,0,0,0-.191.07.691.691,0,0,0-.113.488c.008.706.007,1.424,0,2.118v.006q0,.435,0,.869Zm-1.437-3.6a1.187,1.187,0,0,0-.344.066,3.66,3.66,0,0,0-2.35,3.311A3.57,3.57,0,0,0,24.6,36.492a1.126,1.126,0,0,0,.372.086.259.259,0,0,0,.2-.07.79.79,0,0,0,.1-.525c-.013-.682-.01-1.372-.008-2.04v-.031q0-.4,0-.809h.125c0-.265,0-.535,0-.8V32.3c0-.639-.009-1.3.013-1.951.01-.286-.023-.445-.109-.534A.3.3,0,0,0,25.062,29.73ZM14.385,22.188,10.747,23.2,1.874,25.66l5.447,4.63.26.221,3.136,2.666L13,26.321l.06-.18Zm11.833.062.06,0c.6.032.581.463.559.88,0,.081-.008.157-.007.23.008.9.006,1.814,0,2.785,0,.419,0,.854,0,1.314.543-.529,1.083-1.035,1.6-1.525,1.147-1.076,2.23-2.092,3.213-3.211a7.606,7.606,0,0,0,1.871-5.046,7.86,7.86,0,0,0-1.871-5.087c-.889-1.042-1.854-2.048-2.788-3.022-.563-.587-1.145-1.194-1.706-1.8-.19-.207-.331-.3-.473-.3a.728.728,0,0,0-.47.269c-.663.648-1.348,1.293-2.011,1.916-.913.859-1.855,1.745-2.748,2.649a7.513,7.513,0,0,0-2.144,5.312,7.529,7.529,0,0,0,1.316,4.451,20.355,20.355,0,0,0,3.038,3.341c.6.569,1.217,1.155,1.779,1.764a32.828,32.828,0,0,0,.149-3.361q0-.264.005-.527v-.055C25.6,22.77,25.608,22.25,26.218,22.25Z" transform="translate(0)" fill="#001e35"/>
        </g>
      </g>
      <path id="Fill_6" data-name="Fill 6" d="M65.437,38.15q-11.857.02-23.713.036c-4.591,0-9.181-.025-13.772-.039Q23.42,33.78,18.9,29.406c-.433-.421-.613-.291-.856.173-1.5,2.865-3.021,5.718-4.535,8.576L0,38.143Q5.657,25.868,11.313,13.592,14.437,6.8,17.54,0c.407-.016.639.307.917.51Q26.3,6.218,34.134,11.951q5.555,4.068,11.091,8.159a3.59,3.59,0,0,0-.382,4.152A3.75,3.75,0,0,0,48.548,26.2c2.157-.055,4.317.03,6.473-.03a7.329,7.329,0,0,1,3.468.758A11.557,11.557,0,0,1,65.437,38.15" transform="translate(56.882 158.44)" fill="#f37777"/>
      <path id="Fill_8" data-name="Fill 8" d="M135.573,132.21c-.377,0-.53-.355-.9-1.213-.063-.146-.132-.307-.21-.483-7.386-16.76-13.421-30.482-18.992-43.182a4.3,4.3,0,0,0-1.363-1.759c-4.276-3.286-7.548-5.828-10.61-8.243a2.91,2.91,0,0,0-1.946-.658h-.017c-2.8.01-6.107.02-9.422.02-3.459,0-6.541-.011-9.421-.034H82.66a1.329,1.329,0,0,0-1.542,1.151,21.869,21.869,0,0,1-2.758,6.326,28.889,28.889,0,0,1-4.435,5.338c-5.9,5.691-11.835,11.546-17.571,17.209l-.01.01c-2.325,2.295-4.728,4.668-7.1,7q-1.54,1.514-3.082,3.026c-2.865,2.811-5.827,5.717-8.717,8.6a1.611,1.611,0,0,1-1.081.6,1.407,1.407,0,0,1-.933-.465,6.165,6.165,0,0,0-1-.706c-.157-.1-.319-.195-.474-.3l-3.228-2.377-.1-.071c-2.544-1.874-5.174-3.812-7.768-5.711-5.131-3.758-10.405-7.607-15.676-11.441-.069-.05-.135-.108-.2-.164a1.051,1.051,0,0,0-.688-.345H6.27c-.04-.047-.08-.1-.118-.144a2.091,2.091,0,0,0-.276-.3l0,0c-.812-.678-1.22-1.018-1.238-1.381s.367-.761,1.136-1.545l0,0q2.053-2.093,4.1-4.189c4-4.083,8.131-8.306,12.225-12.431.694-.7.707-1.142.056-1.824a6.658,6.658,0,0,1-2.135-5.165.679.679,0,0,0-.123-.521.842.842,0,0,0-.622-.156H19.21c-.938.007-1.961.01-3.127.01-.99,0-1.982,0-3-.005A14.528,14.528,0,0,1,7.8,75.722a11.859,11.859,0,0,1-6.811-6.8,14.529,14.529,0,0,1-.97-5.3C0,57.637,0,51.558,0,45.679v-.112Q0,41.8,0,38.034a6.48,6.48,0,0,1,1.319,2.024c0,2.45-.012,4.942-.023,7.352v.037c-.026,5.767-.052,11.729.055,17.591a10.265,10.265,0,0,0,2.753,6.709,11.215,11.215,0,0,0,6.456,3.507,22.112,22.112,0,0,0,3.573.237c.574,0,1.15-.011,1.707-.021h.006c.557-.01,1.132-.021,1.7-.021s1.062.011,1.52.033c.05,0,.1,0,.143,0,.648,0,.857-.243.858-1q0-.293,0-.587a40.072,40.072,0,0,1,.4-6.838c.271-.014.468-.251.659-.48s.4-.481.685-.481a.939.939,0,0,1,.584.276,64.5,64.5,0,0,1,2.633,10.567c.078.5.1.952-.432,1.078a.821.821,0,0,1-.184.023c-.429,0-.512-.434-.586-.817l-.006-.03c-.08-.412-.154-.83-.226-1.234-.121-.68-.246-1.382-.4-2.065l-.1-.457a30.274,30.274,0,0,0-1.542-5.34c-.3,3.133-.3,6.076-.3,8.923q0,.482,0,.964a4.445,4.445,0,0,0,1.03,2.759c.62.809,1.212,1.542,1.81,2.241a5.08,5.08,0,0,0,3.877,2.043,5.63,5.63,0,0,0,3.047-1.011,1.72,1.72,0,0,1,.941-.328,1.919,1.919,0,0,1,.91.276,4.628,4.628,0,0,0,2.215.589,4.508,4.508,0,0,0,2.151-.564,1.965,1.965,0,0,1,.942-.276,2.167,2.167,0,0,1,1.03.312,5.011,5.011,0,0,0,2.352.574,5.769,5.769,0,0,0,3.3-1.058,4.909,4.909,0,0,0,1.969-2.807,12.962,12.962,0,0,0,.287-4.4c-.613-6.019-2.984-11.47-4.981-15.546a1.747,1.747,0,0,1,1.013-.4l.181-.031c.156.357.316.717.471,1.065.355.8.723,1.623,1.054,2.447a8.4,8.4,0,0,0,2.223,3.2,35.559,35.559,0,0,1,5.027,5.951A2.3,2.3,0,0,1,52.7,74.3a1.175,1.175,0,0,0,.21.9,1.285,1.285,0,0,0,.965.252H65.753c28.913,0,58.311.005,86.742.01h.386l9.749,0c.088,0,.178,0,.264-.005s.18-.005.268-.005a2.682,2.682,0,0,1,.308.015,1.39,1.39,0,0,0,.154.009.487.487,0,0,0,.368-.122.767.767,0,0,0,.132-.574q-.006-.162-.012-.325a18.818,18.818,0,0,1,.027-2.672,4.24,4.24,0,0,1,1.1-2.584,3.167,3.167,0,0,1,2.309-.915,4.991,4.991,0,0,1,1.583.278l.035-.059a.888.888,0,0,0,.079-.15c.782-2.07,1.623-2.915,2.9-2.915a6.049,6.049,0,0,1,2.536.748.393.393,0,0,0,.453-.03l.006,0,.045-.026a4.79,4.79,0,0,1,2.253-.682c1.451,0,2.446,1.065,2.879,3.08a30.383,30.383,0,0,1,.507,4.835c.015.3.03.6.047.895.055.98.319,1.234,1.281,1.234h.023c5.4-.026,10.849-.03,15.472-.03h13.226a11.268,11.268,0,0,0,11.975-11.939c.014-9.924.014-19,0-27.757-.013-7.126-4.791-11.915-11.891-11.916q-41.32,0-82.644,0l-94.346,0c-.25,0-.5.014-.749.028l-.328.017c-.365-.105-.818-.236-.681-.785.109-.432.516-.491.859-.494.682,0,1.376-.016,2.046-.027l.826-.013c2.027.028,4.7.06,7.4.06,3,0,5.679-.039,8.176-.119l2.677.02h.056c1.973.016,4.013.032,6.021.034,3.573,0,7.206,0,10.719.005H71c9.3,0,18.912,0,28.379.05h.031a1.566,1.566,0,0,0,1.152-.3,1.7,1.7,0,0,0,.281-1.228c-.041-4.888-.036-9.86-.03-14.667V6.279q0-2.313,0-4.626c0-.068,0-.135,0-.2V1.424c0-.2,0-.407.007-.61.019-.4.109-.813.638-.813h.023c.474.01.559.37.58.759.014.264.014.533.013.793v3.64c0,4.449,0,9.05,0,13.575,0,.3.023.6.045.893.01.136.021.276.029.417-.178,1.276-.268,1.917,0,2.227.215.247.66.291,1.517.291l.539,0c.193,0,.389-.014.578-.027l.258-.016,8.037.019c6.25.015,12.712.031,19.088.038h.89c2.6,0,5.242-.012,7.8-.023h.024q2.065-.009,4.129-.016c.164.006.328.013.492.02h.008c.347.015.705.032,1.058.032h24.564c13.083,0,26.611,0,39.917,0,6.5,0,11.521,3.974,12.781,10.119a14.9,14.9,0,0,1,.257,2.984c.017,8.331.031,18.157.005,27.878-.017,6.331-3.65,11.2-9.482,12.7a14.731,14.731,0,0,1-3.662.384h-.023l-3.743,0h-7.034c-4.95,0-9.117,0-13.359-.027h-.034c-.564,0-.88.085-1.055.284a1.18,1.18,0,0,0-.152.951,4.658,4.658,0,0,1-1.2,3.7,5.362,5.362,0,0,1-3.948,1.846,4.553,4.553,0,0,1-1.781-.36.951.951,0,0,0-.376-.082,1.419,1.419,0,0,0-.615.184l-.124.058a3.552,3.552,0,0,1-1.5.287c-.334,0-.671-.028-1-.056s-.66-.056-.985-.056c-.088,0-.174,0-.255.006a5.234,5.234,0,0,0-1.6.44,5.415,5.415,0,0,1-1.961.488h-.065c-1.1-.023-2.654-.972-3.965-2.416a6.16,6.16,0,0,1-1.937-4.059.945.945,0,0,0-1.146-1.22l-.138,0c-1.082.029-2.263.043-3.715.043-.8,0-1.614,0-2.4-.008s-1.6-.008-2.411-.008a1.18,1.18,0,0,0,.2.891c.044.081.09.166.127.25,4.663,10.617,9.5,21.62,13.768,31.328L171,114.785l0,.006c.684,1.556.684,1.556-.858,2.253l-.019.008c-.571.258-1.147.534-1.7.8-.261.125-.519.249-.776.371-.111.041-.227.08-.33.116-.226.077-.457.157-.676.253l-1.83.808-.016.007c-4.965,2.192-10.1,4.459-15.144,6.7-2.772,1.232-5.587,2.5-8.309,3.717l-.018.008-.136.061-3.446,1.546c-.06.018-.12.034-.18.05a2.593,2.593,0,0,0-.386.123l-.4.176A3.819,3.819,0,0,1,135.573,132.21ZM117.157,87.8c.008.095.015.188.022.283.012.034.024.069.036.1.027.077.054.157.087.232l3.282,7.462.208.474c4.847,11.019,9.86,22.414,14.766,33.634.194.443.39.632.657.632a1.8,1.8,0,0,0,.653-.2c10.233-4.54,21.2-9.4,32.09-14.174.425-.186.73-.365.835-.635a1.318,1.318,0,0,0-.164-.988c-5.2-11.736-10.674-24.168-16.259-36.949a1.457,1.457,0,0,0-1.593-1.007h-.011c-10.234.016-20.338.018-29.733.018h-17.05a.615.615,0,0,0,.351.534c.037.024.073.047.105.072,1.238.947,2.485,1.926,3.691,2.873l.008.007A117.267,117.267,0,0,0,121.5,89.037l.022.013c.28.165.6.353.664.63a.589.589,0,0,1-.108.462.537.537,0,0,1-.455.3,1.382,1.382,0,0,1-.67-.287l-.12-.076c-.893-.551-1.794-1.113-2.666-1.656l-.786-.49-.229-.131ZM23.743,84.681h0c-.225,0-.43.12-.732.43-5.434,5.58-10.92,11.175-16.3,16.629-.288.292-.451.5-.434.71.015.182.162.362.493.6,9.363,6.786,19.049,13.842,28.788,20.97a1.363,1.363,0,0,0,.773.341,1.175,1.175,0,0,0,.795-.44C49.549,111.663,62.1,99.312,74.426,87.214a21.592,21.592,0,0,0,5.722-10.519H78.962l-9.527-.009h-.007L50.4,76.667h-.158c-1.685,0-1.692.07-1.865,1.865v.009c-.019.2-.046.4-.071.587s-.054.4-.073.605a6.749,6.749,0,0,1-2.2,4.406,6.613,6.613,0,0,1-4.42,1.7,6.712,6.712,0,0,1-2.7-.571,1.838,1.838,0,0,0-.747-.184,1.654,1.654,0,0,0-.688.167,5.651,5.651,0,0,1-4.768,0,1.633,1.633,0,0,0-.679-.167,1.6,1.6,0,0,0-.847.283,5.864,5.864,0,0,1-3.064.923A6.323,6.323,0,0,1,24.462,85a1.3,1.3,0,0,0-.719-.313ZM167.517,69.423a1.907,1.907,0,0,0-1.428.712,2.921,2.921,0,0,0-.763,1.971q0,.3-.009.6a31.729,31.729,0,0,0,.232,5.514c.307,1.92,1.549,3.437,3.8,4.638a2.629,2.629,0,0,0,1.253.317,3.387,3.387,0,0,0,2.031-.749,1.473,1.473,0,0,1,1.731-.258,3.049,3.049,0,0,0,1.267.281,3.242,3.242,0,0,0,1.723-.518,1.474,1.474,0,0,1,.8-.251,2.189,2.189,0,0,1,.852.213,3.787,3.787,0,0,0,4.136-.79,3.94,3.94,0,0,0,1.2-2.744c.023-.832.035-1.25-.17-1.461s-.645-.215-1.515-.215c-.186,0-.375,0-.558-.007s-.372-.007-.558-.007c-.264,0-.481.007-.684.022-.063,0-.124.007-.181.007-.624,0-.881-.283-.917-1.009-.071-1.434-.2-2.888-.32-4.294v-.007c-.044-.511-.09-1.04-.133-1.565a4.944,4.944,0,0,0-.629-2.29,1.753,1.753,0,0,0-1.449-.984,1.573,1.573,0,0,0-.452.07,1.685,1.685,0,0,0-1.293,1.786c.02.981.016,1.978.011,2.942q0,.631,0,1.261h.14v1.2c0,.981,0,1.995,0,3v.037c0,.446,0,.951-.563.988l-.071,0c-.552,0-.576-.467-.6-.879,0-.054-.006-.108-.009-.16-.015-.218-.017-.441-.019-.656q0-.092,0-.184-.012-.968-.026-1.937v-.055c-.025-1.827-.052-3.717-.057-5.575a1.653,1.653,0,0,0-1.141-1.768,1.824,1.824,0,0,0-.558-.091,1.95,1.95,0,0,0-1.475.772,3.707,3.707,0,0,0-.728,2.592c.046,2.552.087,5.086.125,7.445.008.439-.03.868-.562.879h-.02c-.411,0-.62-.27-.64-.826-.01-.281-.016-.566-.021-.842l0-.119q-.014-.809-.027-1.618V74.8c-.02-1.2-.041-2.432-.065-3.648a1.563,1.563,0,0,0-1.014-1.616A1.866,1.866,0,0,0,167.517,69.423Zm-120.6-.448q.077.309.156.618c.121.476.246.965.356,1.448.162.709.314,1.436.465,2.224l0,.01c.379,1.971.418,2.177,2.1,2.177.173,0,.362,0,.571,0,.574-.006.911-.117,1.032-.338s.033-.55-.261-1.014A22.283,22.283,0,0,0,46.913,68.975Z" transform="translate(68.151 54.097)" fill="#001e35"/>
      <path id="Fill_10" data-name="Fill 10" d="M0,13.217C3.969,11.438,7.934,9.65,11.909,7.884Q20.4,4.113,28.9.369C29.224.225,29.568.122,29.9,0c3.363,6.994,8.833,10.949,16.569,12.067,5.072.733,8.547,3.911,10.71,8.513a10.384,10.384,0,0,1,1,3.685c-3.795.014-7.59.042-11.385.04q-13.3-.007-26.608-.037l-7.017-9.047-.244.123,1.615,8.917-12.616.006L0,13.217" transform="translate(205.899 172.321)" fill="#f37777"/>
      <path id="Fill_12" data-name="Fill 12" d="M5.524,20.835a1.808,1.808,0,0,0-1.2-.369,10.709,10.709,0,0,1-3.332-3.2,7.893,7.893,0,0,1-.463-6.7C.937,9.4,1.385,8.244,1.712,7.054A9.831,9.831,0,0,0,1.375,1.4,2.3,2.3,0,0,1,1.108,0C2.873.643,4.6,1.317,6.35,1.893c1.273.418,2.444,1.179,3.843,1.186l-.033-.009.211.247L12.15,4l8.916,3.327c.057.424-.22.482-.409.582a10.97,10.97,0,0,0-5.521,6.781,9.58,9.58,0,0,1-1.89,3.71,7.876,7.876,0,0,1-7.722,2.432" transform="translate(30.536 119.745)" fill="#f37777"/>
      <path id="Fill_14" data-name="Fill 14" d="M9.582,15.012H8.452A6.06,6.06,0,0,1,2.7,8.724C2.769,5.595,2.406,2.668,0,.33L.112.015H6.805L11.154,0h6.733c-.054.234-.044.372-.109.442-2.048,2.242-2.535,4.911-2.448,7.867a6.176,6.176,0,0,1-5.749,6.7" transform="translate(320.436 128.576)" fill="#f37777"/>
      <path id="Fill_16" data-name="Fill 16" d="M.02,11.912A11.247,11.247,0,0,1,22.135,8.449c-.057.691-.738.419-1.066.69-2.9-.023-5.806-.072-8.709-.061-2.456.01-3.7,1.309-3.724,3.792-.014,1.272-.033,2.545-.05,3.817C6.808,12.377,4.341,11,.02,11.912" transform="translate(139.191)" fill="#f37777"/>
      <path id="Fill_18" data-name="Fill 18" d="M25.325.69c.329-.271,1.009,0,1.066-.69a9.653,9.653,0,0,1,.286,4.494A1.193,1.193,0,0,0,27,5.67a11.32,11.32,0,0,1-3.716,18.4c-.068.028-.116.1-.173.155A3.16,3.16,0,0,0,19.993,26.9a23.487,23.487,0,0,1-1.377,3.441,7.747,7.747,0,0,1-8.335,4.694,8.563,8.563,0,0,1-6.8-7.021c-.049-.394-.128-.784-.193-1.177.535-3.509,2.238-6.623,3.367-9.931.192-.563.307-.788-.482-.847A6.469,6.469,0,0,1,3.852,3.677l.424-.214c4.322-.91,6.789.466,8.566,4.776.016.439.034.879.047,1.319a.539.539,0,0,1-.559.631.609.609,0,0,1-.653-.574c-.032-.237-.017-.482-.054-.718A5.211,5.211,0,1,0,7.3,14.772c1.233-.188,1.45.089,1,1.269-1.141,3.026-2.377,6.02-3.389,9.089A7,7,0,0,0,8.794,33.3a6.431,6.431,0,0,0,8.18-2.5,51.157,51.157,0,0,0,2.5-5.8A12.106,12.106,0,0,1,13.4,23.427c-.5-.313-1.58-.51-1.068-1.377.492-.833,1.125.032,1.61.308A10.079,10.079,0,0,0,26.8,7.286c-.38-.466-.643-1.094-1.477-.447-.5.384-1.112.021-1.362-.563s-.1-1.321.507-1.388c1.3-.144,1.054-1.032,1.106-1.817A9.506,9.506,0,0,0,25.325.69" transform="translate(134.934 8.449)" fill="#001e35"/>
      <g id="Group_22" data-name="Group 22" transform="translate(340.801 103.22)">
        <path id="Clip_21-2" data-name="Clip 21" d="M0,0H13.2V10.895H0Z" fill="none"/>
        <g id="Group_22-2" data-name="Group 22" clip-path="url(#clip-path-3)">
          <path id="Fill_20" data-name="Fill 20" d="M4.726,10.895c-.113-1.009-.549-1.082-1.237-.429L0,0,13.2,3.665,4.726,10.895" fill="#f37777"/>
        </g>
      </g>
      <path id="Fill_23" data-name="Fill 23" d="M0,2.012l.246-.929A45.984,45.984,0,0,1,5.867.007,3.253,3.253,0,0,1,9.374,2.09,3.273,3.273,0,0,1,8.336,5.852a3.24,3.24,0,0,1-4.084,0A45.151,45.151,0,0,1,0,2.012" transform="translate(343.546 119.396)" fill="#f37777"/>
      <path id="Fill_25" data-name="Fill 25" d="M9.539,4.653l-.169.825A35.63,35.63,0,0,1,3.5,6.566,3.188,3.188,0,0,1,.175,4.373,3.32,3.32,0,0,1,1.26.713,3.232,3.232,0,0,1,5.254.668,24.4,24.4,0,0,1,9.539,4.653" transform="translate(332.916 115.566)" fill="#f37777"/>
      <path id="Fill_27" data-name="Fill 27" d="M3.971,6.487,2.192,5.8c-.017-.128-.022-.266-.211-.247l.033.009A43.669,43.669,0,0,0,.282,1.379C.1.914-.312.353.412.059c.617-.25.79.348.984.779.5,1.115,1,2.233,1.607,3.6.5-1.395.915-2.528,1.316-3.664.157-.446.353-.877.918-.644.475.2.393.634.255,1.034C5.1,2.32,4.7,3.472,4.21,4.887,5.568,4.2,6.66,3.655,7.748,3.1c.4-.2.863-.47,1.155.033.337.581-.153.834-.6,1.068-1.448.753-2.887,1.522-4.329,2.284" transform="translate(38.714 117.262)" fill="#001e35"/>
      <path id="Fill_29" data-name="Fill 29" d="M6.253,5.4,1.9,5.418C1.412,4.506.9,3.6.435,2.678.2,2.222-.385,1.662.379,1.253c.683-.366.845.373,1.089.784C2.052,3.019,2.6,4.022,3.3,5.246a14.17,14.17,0,0,0,.2-3.364c.019-.359.009-.72,0-1.081C3.49.407,3.583.034,4.027,0c.5-.036.688.328.691.781.007,1.241,0,2.481.005,3.722a.978.978,0,0,0,.2.668C5.535,4.1,6.132,3.012,6.759,1.945c.227-.386.41-1.024,1.032-.706.693.356.26.893.026,1.332C7.311,3.524,6.776,4.46,6.253,5.4" transform="translate(325.337 123.174)" fill="#001e35"/>
      <path id="Fill_31" data-name="Fill 31" d="M8.157,13.991h0a1.856,1.856,0,0,1-.719-1.227c1.076,0,2.17-.006,3.229-.011h.023c1.285-.005,2.613-.011,3.919-.011,1.8,0,3.294.011,4.7.034h.078a1.231,1.231,0,0,0,.91-.244,1.4,1.4,0,0,0,.228-1.019c-.058-2.732-.06-5.667-.006-9.236a1.16,1.16,0,0,0-.2-.865,1.058,1.058,0,0,0-.783-.213H19.48c-1.869.022-3.819.032-5.959.032-1.908,0-3.937-.008-6.387-.026H7.1a1.1,1.1,0,0,0-.8.2,1.018,1.018,0,0,0-.192.761c.043,2.013.04,4.06.037,6.04,0,.772,0,1.569,0,2.356A7.594,7.594,0,0,1,5,8.759c-.062-.122-.121-.24-.181-.358q.008-.874.012-1.748V6.641c.009-1.531.018-3.114.06-4.67a.81.81,0,0,0-.155-.606.74.74,0,0,0-.564-.16l-.126,0c-.781.03-1.575.031-2.344.032H1.7c-.328,0-.656,0-.983,0A2.067,2.067,0,0,1,0,.022L1.707.014h.012C2.925.007,4.173,0,5.4,0H40.536L97.383,0c.329,0,.664.01.987.02l.451.013-.009.033q-.16.594-.32,1.188L95.52,1.249c-3.464-.008-7.046-.015-10.57-.041h-.018a.779.779,0,0,0-.582.159.791.791,0,0,0-.157.585c.024,3.424.024,6.814,0,10.076a.772.772,0,0,0,.154.573.781.781,0,0,0,.582.156h.025c3.356-.023,6.768-.033,10.068-.041l3.473-.01.135.54.009.038.16.642-4.793.016c-3.5.013-7.124.026-10.692.027l-24.813,0H8.877c-.163,0-.328.007-.488.014l-.231.009Zm52.062-1.252c2.142,0,4.264.008,6.306.025h.021a.871.871,0,0,0,.637-.177,1,1,0,0,0,.171-.729c-.03-3.713-.029-6.8,0-9.714a1.018,1.018,0,0,0-.186-.761.883.883,0,0,0-.657-.185h-.082c-.784.02-1.636.029-2.683.029-.593,0-1.194,0-1.774-.006s-1.181-.006-1.774-.006-1.176,0-1.764,0-1.176,0-1.765,0c-1.106,0-2-.007-2.823-.02h-.06a.88.88,0,0,0-.657.178.911.911,0,0,0-.178.675c.034,3.22.034,6.528,0,9.832a.933.933,0,0,0,.176.693.9.9,0,0,0,.669.179h.023C56,12.747,58.156,12.739,60.219,12.739Zm-27.813,0c1.084,0,1.964.008,2.769.025h.09a.907.907,0,0,0,.684-.182.982.982,0,0,0,.183-.725c-.044-2.967-.045-6.144,0-9.715a1.008,1.008,0,0,0-.184-.753.96.96,0,0,0-.706-.19H35.2c-1.966.018-3.995.026-6.2.026-1.951,0-4.039-.007-6.382-.021H22.6a.932.932,0,0,0-.7.182.9.9,0,0,0-.177.67c.034,3.205.035,6.514,0,9.835a.934.934,0,0,0,.176.695.857.857,0,0,0,.635.176h.058c.817-.016,1.709-.023,2.809-.023q.886,0,1.771,0t1.772,0q.856,0,1.712,0h.021Q31.541,12.739,32.406,12.738Zm15.549,0c1.109,0,2.008.007,2.83.023h.087a.923.923,0,0,0,.693-.182.97.97,0,0,0,.182-.718C51.7,8.942,51.7,5.856,51.743,2.15a1.024,1.024,0,0,0-.184-.761.951.951,0,0,0-.7-.19h-.032c-1.933.018-3.948.027-6.159.027-1.931,0-3.972-.007-6.423-.021h-.019a.949.949,0,0,0-.708.182.892.892,0,0,0-.177.663c.034,3.119.035,6.428,0,9.833a.951.951,0,0,0,.177.7.839.839,0,0,0,.624.175H38.2c.8-.016,1.666-.024,2.737-.024q.869,0,1.737,0h.01q.874,0,1.747,0t1.761,0Q47.075,12.74,47.955,12.739Zm31.347,0c1.063,0,1.927.008,2.718.024h.092a.9.9,0,0,0,.68-.182.981.981,0,0,0,.183-.724c-.042-2.967-.043-6.144,0-9.712a1,1,0,0,0-.185-.752.967.967,0,0,0-.711-.191h-.03c-1.967.018-4,.026-6.2.026-1.951,0-4.037-.007-6.38-.021h-.022a.927.927,0,0,0-.695.182.9.9,0,0,0-.177.671c.034,3.22.034,6.527,0,9.832a.937.937,0,0,0,.176.7.85.85,0,0,0,.631.175h.061c.816-.016,1.709-.023,2.808-.023q.886,0,1.771,0h.011q.88,0,1.76,0t1.755,0C78.12,12.739,78.714,12.737,79.3,12.737Z" transform="translate(104.558 97.358)" fill="#001e35"/>
      <path id="Fill_33" data-name="Fill 33" d="M1.32,4.653C.9,4.4.325,4.428,0,3.978a1.09,1.09,0,0,1,.785-.946c2.029-.925,4.048-1.873,6.074-2.8.395-.181.867-.444,1.155.09.336.625-.211.835-.641,1.039A34.533,34.533,0,0,0,3.053,3.651c.954.208,1.909.409,2.861.628.433.1.932.218.8.82s-.6.49-1.057.4C4.212,5.2,2.765,4.932,1.32,4.653" transform="translate(115.664 67.163)" fill="#001e35"/>
      <path id="Fill_35" data-name="Fill 35" d="M3.926,5.183,3.34,6.266c-.527.121-.816-.147-1.024-.594C1.626,4.192.925,2.718.229,1.241.039.838-.215.375.323.1c.619-.32.834.221,1.042.653.5,1.031.982,2.069,1.582,3.337C3.462,2.817,3.89,1.779,4.3.734c.17-.431.357-.888.916-.683C5.8.263,5.6.757,5.45,1.169,4.95,2.51,4.435,3.845,3.926,5.183" transform="translate(91.81 75.16)" fill="#001e35"/>
      <path id="Fill_37" data-name="Fill 37" d="M0,1.252Q.164.642.329.031C2.77.021,5.211,0,7.652,0q28.7,0,57.4,0c1.674,0,1.676,0,1.677,1.649,0,3.685-.021,7.37.015,11.055.009.921-.276,1.269-1.237,1.268Q33.022,13.944.541,13.959a1.4,1.4,0,0,1-.236-.039Q.154,13.311,0,12.7,0,6.977,0,1.252" transform="translate(203.05 97.362)" fill="#f37777"/>
      <path id="Fill_39" data-name="Fill 39" d="M3.725,6.277c-.8-.125-1.9-.3-3-.467-.433-.066-.818-.218-.7-.739.105-.487.507-.54.948-.472.758.117,1.834.619,2.2.1s-.4-1.437-.644-2.19c-.169-.53-.357-1.055-.566-1.57A.611.611,0,0,1,2.288.052c.36-.158.627.063.751.389C3.676,2.112,4.332,3.776,4.9,5.47c.229.681-.218.935-1.177.807" transform="translate(154.4 12.556)" fill="#001e35"/>
      <path id="Fill_41" data-name="Fill 41" d="M3.615,2.1C2.5,1.783,1.578,1.529.664,1.255.266,1.135-.123.947.037.423s.551-.464.975-.341c1.263.365,2.538.69,3.8,1.071.789.239.941.718.3,1.3-.707.647-1.444,1.26-2.172,1.885-.337.289-.711.434-1.038.022-.289-.364-.072-.667.222-.927.445-.393.885-.791,1.491-1.333" transform="translate(138.341 15.75)" fill="#001e35"/>
      <path id="Fill_43" data-name="Fill 43" d="M.969,0A1.851,1.851,0,0,1,2.5.811c.419.529.755.583,1.207.032A2.1,2.1,0,0,1,5.358,0c.34,0,.655.046.739.444a.544.544,0,0,1-.457.716c-.723.067-1.1.587-1.558,1.022A1.226,1.226,0,0,1,2.451,2.4C1.744,1.944,1.3,1.078.274,1.1.048,1.1-.076.69.05.389.228-.034.614.015.969,0" transform="translate(154.672 21.859)" fill="#001e35"/>
      <path id="Fill_45" data-name="Fill 45" d="M2.232,1.1c-.166.7-.53,1.16-1.249,1.087A1.022,1.022,0,0,1,0,1.035,1.014,1.014,0,0,1,1.208.005C1.9.057,2.123.546,2.232,1.1" transform="translate(150.08 13.194)" fill="#001e35"/>
    </g>
  </g>
</svg>
