<svg xmlns="http://www.w3.org/2000/svg" xmlns:xlink="http://www.w3.org/1999/xlink" width="336" height="142" viewBox="0 0 336 142">
  <defs>
    <clipPath id="clip-path">
      <path id="Mask" d="M0,0H336a0,0,0,0,1,0,0V129.54A12.46,12.46,0,0,1,323.54,142H12.46A12.46,12.46,0,0,1,0,129.54V0A0,0,0,0,1,0,0Z" transform="translate(336 142) rotate(-180)" fill="#bbcde5"/>
    </clipPath>
    <clipPath id="clip-path-2">
      <path id="Clip_4" data-name="Clip 4" d="M0,0H329.059V172.048H0Z" fill="none"/>
    </clipPath>
    <clipPath id="clip-path-3">
      <path id="Clip_7" data-name="Clip 7" d="M0,0H54.731V60.843H0Z" fill="none"/>
    </clipPath>
    <clipPath id="clip-path-4">
      <path id="Clip_12" data-name="Clip 12" d="M0,0H12.46V12.763H0Z" fill="none"/>
    </clipPath>
  </defs>
  <g id="Group_7_Copy" data-name="Group 7 Copy" clip-path="url(#clip-path)">
    <g id="Group_74" data-name="Group 74" transform="translate(0 -3)">
      <path id="Fill_1" data-name="Fill 1" d="M17.627,61.413q-5.085-4.262-10.168-8.524C6.167,51.8,4.822,50.771,3.609,49.6A11.566,11.566,0,0,1,2.453,34.083c.18-.237.333-.5.5-.744l.87-1.034c.509-.544,1.038-1.071,1.524-1.635C10.581,24.6,15.837,18.541,21.027,12.43a12.185,12.185,0,0,1,7.512-4.34c1.293-.215,2.588-.412,3.883-.618.012.149.029.3.034.446A6.709,6.709,0,0,0,45.8,8.866a26.668,26.668,0,0,0,.181-3.007c1.685-.06,3.37-.17,5.055-.173,9.611-.017,19.223.1,28.831-.065A85.945,85.945,0,0,0,89.8,4.434Q101.054,2.919,112.3,1.356c2.9-.4,5.789-.832,8.687-1.221a11.475,11.475,0,0,1,7.693,1.412c-2.552.392-5.116.724-7.653,1.2a5.044,5.044,0,0,0-3.811,3.045,10.8,10.8,0,0,0,1.094,11.174c2.316,3.214,6.624,4.121,10.672,2.555,1.177-.455,2.375-.856,3.564-1.281a9.971,9.971,0,0,1-7.166,4.912c-4.206.755-8.46,1.244-12.7,1.828Q102.377,26.4,92.06,27.8a104.328,104.328,0,0,1-10.94,1.334c-7.508.2-15.025.053-22.538.048.227-1.918.485-3.833.654-5.755.03-.344-.307-.72-.474-1.081-.245.315-.657.606-.706.949-.24,1.692-.414,3.394-.533,5.1-.022.322.309.668.478,1q-.277,3.07-.553,6.14c-.647.305-.575,1.592-1.7,1.242-.3.036-.591.091-.889.107q-11.909.636-23.818,1.265c1.556-2.285,3.119-4.564,4.658-6.859.281-.419.942-.908.2-1.381-.177-.113-.9.325-1.149.67-1.636,2.276-3.218,4.591-4.793,6.91a4.079,4.079,0,0,0-.35,1.011c-1.057,1.335-1.063,1.341.29,2.464,2.819,2.34,5.624,4.7,8.47,7a11.873,11.873,0,0,1,4.6,11.678c-.053-.252-.118-.5-.156-.757-.645-4.3-3.306-7-7.84-7.965a9.4,9.4,0,0,0-9.892,4.215,7.475,7.475,0,0,0-.091,8.355c.882,1.476,1.812,2.933,1.806,4.745a34.684,34.684,0,0,1-3.036-1.856c-1.724-1.3-3.368-2.705-5.046-4.066l-1.09-.9" transform="translate(28.198 27.504)" fill="#f37777"/>
      <g id="Group_5" data-name="Group 5" transform="translate(0 7.952)">
        <path id="Clip_4-2" data-name="Clip 4" d="M0,0H329.059V172.048H0Z" fill="none"/>
        <g id="Group_5-2" data-name="Group 5" clip-path="url(#clip-path-2)">
          <path id="Fill_3" data-name="Fill 3" d="M8.738,172.048a.7.7,0,0,1-.3-.053,1,1,0,0,1-.515-.583c-.03-.117.266-.415.479-.484a1.223,1.223,0,0,1,.384-.05c.077,0,.157,0,.234.007h.011c.074,0,.172.008.266.008q10.988-.077,21.976-.156c.148,0,.293-.013.421-.024H31.7l.145-.011-.951-2.634c-.733-2.029-1.491-4.128-2.24-6.216l-.861-2.4c-2.293-6.392-4.665-13-7-19.554-.185-.521-.325-.841-.846-.841a2.2,2.2,0,0,0-.455.057,10.8,10.8,0,0,1-2.263.239,11.137,11.137,0,0,1-9.309-5.007c-1.9-2.951-3.741-6.008-5.522-8.964l0,0c-.609-1.01-1.238-2.055-1.869-3.095a3.086,3.086,0,0,1,.022-3.5A3.055,3.055,0,0,1,3.175,117.3a3.774,3.774,0,0,1,.571.045,2.256,2.256,0,0,0,.341.032c.364,0,.546-.166.694-.636a3.036,3.036,0,0,1,2.852-2.186c.1-.007.192-.011.286-.011a3.221,3.221,0,0,1,2.826,1.66c.969,1.571,1.938,3.155,2.874,4.687q.792,1.3,1.585,2.59a3.06,3.06,0,0,0,.835.972q-.109-.822-.217-1.645l0-.023c-.178-1.351-.362-2.748-.549-4.12-.083-.61-.175-1.23-.264-1.829v-.014c-.094-.634-.192-1.29-.279-1.937A3.377,3.377,0,0,1,17.964,111a3.3,3.3,0,0,1,1.707.506,1.188,1.188,0,0,0,.554.225c.173,0,.332-.1.531-.34a3.01,3.01,0,0,1,2.365-1.19,3.6,3.6,0,0,1,1.072.174,3.25,3.25,0,0,1,2.351,2.866c.456,3.151.972,6.718,1.419,10.233.042.335.089.676.135,1.006l0,.017a23.55,23.55,0,0,1,.327,4.442,10.617,10.617,0,0,1-1.72,5.385,11.706,11.706,0,0,1-4.269,3.756c-.695.375-.732.682-.488,1.36,3.479,9.667,7.039,19.611,10.58,29.555a4.747,4.747,0,0,1,.2,1.094c.021.2.042.4.074.611h3.056l1.63,0q1.923-.006,3.847-.015c2.263-.01,4.6-.02,6.9-.02.868,0,1.665,0,2.436,0H50.7c.431,0,.665-.062.807-.215a1,1,0,0,0,.159-.778,10.982,10.982,0,0,1,2.473-7.73c.125-.16.243-.331.357-.5a6.168,6.168,0,0,1,.585-.763c2.191-2.309,2.795-5.142,1.9-8.915-.1-.438-.242-.876-.375-1.3-.121-.383-.245-.779-.345-1.176-.111-.443-.285-.641-.562-.641a1.341,1.341,0,0,0-.563.17c-.5.244-1.034.441-1.551.632-.209.077-.425.157-.639.24a3.707,3.707,0,0,1-1.107.33c-.4,0-.54-.333-.857-1.152q-5.183-13.4-10.363-26.793-.461-1.193-.926-2.384c-.744-1.913-1.514-3.891-2.249-5.856a18.809,18.809,0,0,1-1.238-7.111,19.018,19.018,0,0,1,1.618-7.049c1.891-4.369,3.789-8.823,5.625-13.13l.019-.046q1.18-2.769,2.363-5.537l.517.427.572.472c-.094.214-.184.434-.272.646A13.356,13.356,0,0,1,45.954,84c-.347.615-.273.974.3,1.48a10.666,10.666,0,0,1-1.232,16.926,11.345,11.345,0,0,1-6.182,1.764h-.13a1.78,1.78,0,0,1-.27-.032,1.809,1.809,0,0,0-.29-.033c-.2,0-.437.067-.516.59a13.942,13.942,0,0,0,.426,6.763c.76,2.2,1.6,4.408,2.415,6.546l0,.008,0,.012c.6,1.588,1.229,3.231,1.816,4.855.191.529.339.8.62.8a1.614,1.614,0,0,0,.75-.315,10.605,10.605,0,0,1,5.592-1.562,10.93,10.93,0,0,1,6.94,2.451,10.582,10.582,0,0,1,3.3,11.868,10.3,10.3,0,0,1-8.293,6.928c-.457.081-.692.191-.785.366s-.054.414.133.832c.511,1.148.944,2.331,1.336,3.439.149.421.289.65.6.65a1.41,1.41,0,0,0,.5-.121c9.952-3.963,20.109-7.975,30.189-11.923.631-.248.647-.508.443-1.034-2.266-5.835-4.609-11.868-6.878-17.836-.193-.507-.382-.687-.725-.687a1.943,1.943,0,0,0-.482.078,11.922,11.922,0,0,1-3.037.4,10.716,10.716,0,0,1-7.072-2.627,11.146,11.146,0,0,1-3.66-6.91,1.085,1.085,0,0,0-.549-.764,2.266,2.266,0,0,1-1.66-2.071,47,47,0,0,1-.121-5.254,24.771,24.771,0,0,1,.246-2.573c.052-.4.106-.813.152-1.236-.369.417-.723.828-1.066,1.225-.8.928-1.556,1.8-2.375,2.627a2.7,2.7,0,0,1-1.877.935,2.212,2.212,0,0,1-1.076-.3,2.461,2.461,0,0,1-1.172-3c.265-.929.624-1.847.971-2.735.321-.82.652-1.667.909-2.522a24.064,24.064,0,0,0,.613-2.905c.073-.433.148-.88.233-1.318a8.8,8.8,0,0,0-1.679-4.533l-.128-.213a7.482,7.482,0,0,1,.091-8.355,9.425,9.425,0,0,1,7.964-4.418,9.28,9.28,0,0,1,1.929.2A10.4,10.4,0,0,1,68.552,73.2a9.211,9.211,0,0,1,2.461,5.232c.027.175.067.352.105.523.018.078.035.156.052.234.136.955.285,1.925.43,2.863l0,.015a58.325,58.325,0,0,1,1.011,13.2c-.012.165.345.466.572.522.455.113.924.206,1.377.3a18.669,18.669,0,0,1,2.111.5,1.793,1.793,0,0,0,.529.113c.27,0,.427-.152.6-.58,1.506-3.789,2.918-7.246,4.316-10.567.179-.426.742-1.035.956-1.035a.089.089,0,0,1,.03,0,.632.632,0,0,1,.41.322,1.057,1.057,0,0,1-.169.79c-.047.1-.091.191-.124.281-.215.581-.441,1.164-.66,1.727-.325.839-.662,1.706-.965,2.572a.88.88,0,0,0,.268.8c1.243.5,2.53.969,3.774,1.423l.006,0,1.107.405c.03-.215.045-.325.059-.435a11.018,11.018,0,0,1,2.561-5.809,10.607,10.607,0,0,1,5.308-3.33,11.14,11.14,0,0,1,2.89-.382,10.963,10.963,0,0,1,8.756,4.344,10.593,10.593,0,0,1,2.133,5.953,10.752,10.752,0,0,1-1.687,6.158c-.255.405-.329.642-.255.818s.271.274.642.356a2.206,2.206,0,0,1,.353.122,2.856,2.856,0,0,0,.278.1,1.168,1.168,0,0,1,.778.515,1.133,1.133,0,0,1-.031.9,14.445,14.445,0,0,0-.456,1.744c-.061.281-.124.571-.194.854q-2.8,11.287-5.606,22.591l-3.769,15.187,1.369.212c1.043.162,2.121.33,3.2.493,4.221.641,9.208,1.4,14.2,2.152,1.321.2,2.665.4,3.967.594l.07.01c3.331.5,6.774,1.011,10.155,1.551a2.133,2.133,0,0,0,.336.031c.5,0,.65-.268.769-.795.262-1.155.553-2.321.835-3.447.161-.645.328-1.312.489-1.974.328-1.357.639-2.671.969-4.062l.077-.325q.19-.8.384-1.616a17.7,17.7,0,0,1-5.7,1.047,9.917,9.917,0,0,1-9.162-5.4,10.717,10.717,0,0,1-1.1-7.241,10.784,10.784,0,0,1,10.529-8.616,12.353,12.353,0,0,1,1.718.123,10.6,10.6,0,0,1,4.174,1.5,12.216,12.216,0,0,1,3.265,3.071c.044-.091.083-.166.118-.231l0,0a1.306,1.306,0,0,0,.128-.289l.8-3.264.105-.428.013-.052c1.181-4.812,2.4-9.787,3.589-14.685q.12-.5.243-.99l0-.013c.78-3.157,1.586-6.421.936-9.807a17.9,17.9,0,0,0-1.991-5.5,17.059,17.059,0,0,0-3.758-4.51l-.113.161c-.082.116-.159.226-.238.335a11.387,11.387,0,0,1-4.006,3.445,10.943,10.943,0,0,1-4.955,1.2,10.823,10.823,0,0,1-4.451-.957,10.578,10.578,0,0,1-5.255-5.009,10.951,10.951,0,0,1-.8-7.323c.156-.689-.083-.867-.663-1.106-3.383-1.4-6.8-2.831-10.1-4.217l-3.74-1.568a4.755,4.755,0,0,0-1.4-.47c-.448,0-.516.447-.7,1.64a10.306,10.306,0,0,1-3.68,6.33,10.891,10.891,0,0,1-6.922,2.556A10.04,10.04,0,0,1,90.913,75a10.707,10.707,0,0,1-6.7-18.046,1.138,1.138,0,0,0,.2-.417c.019-.056.04-.118.063-.177a.744.744,0,0,1-.181.021,1.2,1.2,0,0,1-.353-.06l.547.006-.013.032c.317-.08.483-.375.643-.66a1.358,1.358,0,0,1,.525-.619c.208.145.413.306.611.462a6.188,6.188,0,0,0,1.369.893c8.852,3.71,17.855,7.465,26.563,11.1l.033.014c5.078,2.118,10.329,4.308,15.492,6.465.761.318,1.544.624,2.3.92a40.2,40.2,0,0,1,5.98,2.722,17.178,17.178,0,0,1,7.2,8.491,18.225,18.225,0,0,1,1.244,5.476,18.631,18.631,0,0,1-.493,5.739c-3.02,12.329-6.075,24.858-9.029,36.975q-1.507,6.18-3.014,12.361l0,.013c-.43,1.765-.533,2.185-1.631,2.185-.355,0-.826-.046-1.422-.1l-.1-.027-.026-.007-.161-.043.022.121.026.143a13.355,13.355,0,0,0,5.091,4.161c4.371,2.04,8.324,3.86,12.425,5.463,5.252,2.054,8.1,5.5,8.692,10.546.082.7.343.816.9.816h.074c3.171-.056,6.314-.079,9.8-.1,7.267-.047,14.567-.09,21.627-.132h.016l8.1-.048,1.828.022h.059c1.52.019,3.093.039,4.653.039h.072c.5,0,1.008-.05,1.5-.1.215-.021.459-.045.693-.063l7.63-.041c16.124-.088,32.8-.178,49.284-.247.755,0,.852-.374.914-.938.358-3.239.717-6.448,1.148-10.27l.315-2.8c.913-8.127,1.857-16.53,2.8-24.883l.006-.053c.074-.652.111-.979-.038-1.147s-.51-.172-1.22-.172H173.293c-1.712,0-1.712,0-1.712-1.66V42.385c0-.089,0-.18.008-.268a2.438,2.438,0,0,0-.025-.627.981.981,0,0,0-.368-.6q-.491-.292-.981-.587l-.01-.006c-1.255-.754-2.553-1.534-3.879-2.2a7.332,7.332,0,0,0-3.295-.831,6.549,6.549,0,0,0-2.056.336l-.039.033-.033.027-.162.135.008-.011c-.357.128-.722.255-1.074.379l-.02.007-.007,0c-.81.284-1.649.577-2.463.892a10.768,10.768,0,0,1-3.893.749,8.2,8.2,0,0,1-6.779-3.3A10.94,10.94,0,0,1,144.4,31.1a11.7,11.7,0,0,1,1.018-5.756A5.055,5.055,0,0,1,149.23,22.3c1.778-.332,3.6-.6,5.358-.856l.033,0c.742-.109,1.509-.221,2.262-.337h.169c3.634,0,5.352-1.052,6.444-1.968a15,15,0,0,1,1.952-1.314c.352-.211.713-.428,1.056-.654a7.153,7.153,0,0,1,5.079-1.3v-8.9q0-.822,0-1.643V5.282c0-1.365.009-2.776-.015-4.166a1.212,1.212,0,0,1,.249-.895A.868.868,0,0,1,172.471,0a2.141,2.141,0,0,1,.23.013,2.024,2.024,0,0,0,.206.009c.059,0,.119,0,.178,0s.119,0,.179,0H291.272c1.66,0,1.66,0,1.66,1.668V14.757c0,28.872,0,58.727-.022,88.089,0,.843.074,1.24.746,1.24a3.382,3.382,0,0,0,.586-.064,4.713,4.713,0,0,1,.835-.071,7.367,7.367,0,0,1,2.249.387c5.985,1.978,12.214,4.091,19.041,6.458a6.943,6.943,0,0,1,3.7,2.857,7.214,7.214,0,0,1,.967,4.6,6.823,6.823,0,0,1-6.079,5.992,5.637,5.637,0,0,1-.6.032,9.766,9.766,0,0,1-2.807-.482c-1.965-.594-3.934-1.28-5.838-1.944-.6-.209-1.278-.445-1.932-.67-.051-.018-.1-.037-.152-.056a1.19,1.19,0,0,0-.4-.106c-.189,0-.32.131-.413.413-.844,2.558-1.712,5.156-2.55,7.669l-.039.117-.08.239-.8,2.394-.131.41-.136.426q-.59,1.695-1.182,3.389l-.051.147c-.939,2.687-1.909,5.466-2.849,8.212-2.025,5.919-4.057,11.893-6.022,17.671l-.068.2-1.935,5.688c-.071.211-.135.421-.208.665l-.007.023c-.035.115-.072.238-.113.371.11.005.215.012.315.018l.052,0c.231.015.43.027.634.027h.027c12.846-.077,25.914-.157,38.551-.235l.743,0,.6,0c.023,0,.047,0,.071-.005s.053-.005.077-.005a.193.193,0,0,1,.077.013c.318.135.64.279.95.418l.012.005.048.021.257.115c-.138.061-.277.14-.412.216a1.966,1.966,0,0,1-.88.334c-10.749.089-21.678.156-32.248.221h-.128l-8.084.05-15.028.094-.523,0c-22.064.139-44.879.282-67.314.428-13.952.09-29.213.2-46.657.329-4.764.035-9.609.078-14.3.119l-.244,0c-5.2.046-10.578.093-15.928.132-7.814.056-15.756.1-23.436.138l-4.059.021-26.757.14c-13.715.071-27.9.145-41.983.222-4.886.027-9.808.064-14.568.1l-7.3.054c-.075,0-.154.007-.231.013S8.819,172.048,8.738,172.048ZM81.3,92.243c-.354,0-.566.205-.81.785-.854,2.032-1.738,4.09-2.593,6.08-1.04,2.421-2.116,4.924-3.145,7.4A2.942,2.942,0,0,0,74.7,108.5c1.571,4.192,3.209,8.428,4.793,12.524q.786,2.033,1.571,4.067.658,1.707,1.313,3.416l.008.022c.893,2.327,1.817,4.734,2.741,7.1a1.368,1.368,0,0,1,.089,1.107,1.135,1.135,0,0,1-.776.52,1.87,1.87,0,0,0-.33.139,1.5,1.5,0,0,1-.4.153.964.964,0,0,0-.705.367c-.146.243-.083.576.066,1.034,2.169,6.686,4.054,12.588,5.764,18.045a3.924,3.924,0,0,1,.067,1.951c-.8,3.532-1.665,7.066-2.481,10.359-.113.454-.149.753,0,.939.11.141.324.207.672.207.057,0,.118,0,.183-.005.592-.033,1.233-.049,2.015-.049.489,0,.987.006,1.469.012h.015c.478.006.972.012,1.457.012v-.086h.212c.421,0,.846,0,1.258,0h.029c.464,0,.99-.006,1.5-.006.853,0,1.547.008,2.185.026h.081a.928.928,0,0,0,.684-.2,1.126,1.126,0,0,0,.206-.837c-.046-6.347-.067-12.781-.087-19q-.009-2.747-.019-5.495c0-.072,0-.148,0-.215.017-.485.032-.943-.749-.977-.132-.006-.357-.527-.349-.808a5.252,5.252,0,0,1,.212-1.151c.024-.09.047-.18.069-.269,2.561-10.277,5.167-20.725,7.688-30.83l1.923-7.708c.147-.591.2-.969-.617-1.268C98.991,98.84,90.975,95.835,81.95,92.4A1.915,1.915,0,0,0,81.3,92.243Zm.08,46.267a1.207,1.207,0,0,0-.427.105c-7.22,2.867-14.8,5.861-23.173,9.153-.476.187-.692.4-.476.976.31.826.553,1.7.755,2.462a12.452,12.452,0,0,1,.376,5.419,9.458,9.458,0,0,1-2.454,4.862,13.839,13.839,0,0,0-1.264,1.713l-.006.009c-.1.154-.2.308-.307.46a9.769,9.769,0,0,0-1.579,5.524,1.14,1.14,0,0,0,.2.851,1.1,1.1,0,0,0,.806.216h.037c2.159-.02,4.465-.03,7.477-.03q1.9,0,3.807,0t3.808,0H76.2c2.137,0,4.961,0,7.854.015h.028c.626,0,.973-.127,1.132-.822.492-2.147,1.014-4.324,1.518-6.43l0-.007c.35-1.46.711-2.97,1.063-4.47a1.911,1.911,0,0,0-.017-.969c-.87-2.736-1.779-5.574-2.58-8.077l-.005-.016c-1.088-3.4-2.213-6.912-3.308-10.371C81.75,138.661,81.617,138.51,81.376,138.51Zm66.534,31.721c2.759,0,4.869.007,6.843.022h.031c.384,0,.6-.06.727-.2a.932.932,0,0,0,.116-.747,11.014,11.014,0,0,0-2.222-5.677,12.235,12.235,0,0,0-4.934-3.593q-1.375-.584-2.751-1.164c-3.031-1.281-6.161-2.6-9.213-3.963a16.873,16.873,0,0,1-7.179-5.616,2.551,2.551,0,0,0-1.921-1.109c-3.178-.455-6.4-.94-9.521-1.409l-1.686-.253-2.654-.4-.05-.007c-4.351-.652-8.85-1.326-13.271-2.017a2.673,2.673,0,0,0-.38-.039.387.387,0,0,0-.294.092c-.092.092-.13.267-.127.584.073,7.942.124,16.262.153,24.727,0,.67.249.783.8.783h.048c1.931-.023,3.691-.034,5.382-.034,1.047,0,2.08,0,3.07.013h.028a.825.825,0,0,0,.616-.17.877.877,0,0,0,.153-.661c-.057-1.894-.077-3.815-.1-5.672l0-.154q0-.458-.01-.916c-.008-.713.022-1.16.2-1.337a.321.321,0,0,1,.241-.091,3.231,3.231,0,0,1,1.209.5l3.662,2.028c3.5,1.942,7.126,3.949,10.7,5.9a3.956,3.956,0,0,0,1.793.484c2.591.023,5.148.026,7.086.026l2.886,0h.333l3.219,0v.077h.952l2.556,0Zm-37.024-7.321h0c0,.647,0,1.281,0,1.9v.021c0,1.641.006,3.191-.014,4.753a.684.684,0,0,0,.137.507.762.762,0,0,0,.556.142h.048c1.9-.022,3.838-.025,5.709-.028h.015l1.251,0h4.986c.018-.083.036-.166.053-.25l-.553-.306-1.07-.592-11.121-6.149Zm159.606-33.9c-.777,0-1.047.249-1.071.986-.02.61-.1,1.229-.17,1.828v.005c-.025.2-.051.416-.074.623-.7,6.257-1.458,12.954-2.375,21.078-.648,5.759-1.177,10.436-1.662,14.721l0,.026c-.039.338-.072.63.086.808a.85.85,0,0,0,.657.192h.04c3.15-.046,6.332-.074,9.409-.1h.059c2.986-.026,6.074-.053,9.111-.1a1.249,1.249,0,0,0,.908-.666c.542-1.438,1.041-2.919,1.524-4.352q.194-.575.388-1.149,3.936-11.581,7.87-23.162l2.542-7.483.143-.455.143-.454q.436-1.256.871-2.512c.873-2.521,1.776-5.127,2.693-7.718a.707.707,0,0,0,.03-.547c-.094-.191-.347-.275-.614-.364l-.2-.067c-2.3-.764-4.685-1.554-7-2.394a1.571,1.571,0,0,0-.5-.118.316.316,0,0,0-.237.084,1.016,1.016,0,0,0-.135.678c.012,1.849,0,3.72-.015,5.53q-.008,1.043-.014,2.086l-1.188-.761q0-1.005,0-2.011V123.2c0-1.757,0-3.574.03-5.36a1.452,1.452,0,0,0-.714-1.361,6.886,6.886,0,0,1-2.857-5.573,6.793,6.793,0,0,1,2.75-5.531,1.786,1.786,0,0,0,.82-1.651c-.02-35.011-.015-61.845.014-87.008,0-.54-.082-.846-.275-1.021a1.511,1.511,0,0,0-1.012-.23h-.007c-19.056.012-37.7.018-55.408.018-20.931,0-41.423-.009-60.908-.025h-.005c-.579,0-.891.082-1.076.283a1.592,1.592,0,0,0-.243,1.073c.031,39.083.029,74.934-.006,109.6a1.51,1.51,0,0,0,.275,1.1,1.592,1.592,0,0,0,1.141.269h.008c20.884-.021,41.408-.025,65.8-.025H267.1c.069,0,.144.007.216.014s.146.014.217.014a.51.51,0,0,0,.235-.045c.233-.12.717-.368.749-.619.254-1.96.47-3.958.678-5.89.057-.53.114-1.056.172-1.583q.152-1.332.3-2.664c.43-3.79.875-7.709,1.35-11.567a1.466,1.466,0,0,1,.459-.709,4.013,4.013,0,0,0,.279-.321,3.747,3.747,0,0,0,.173.358,1.449,1.449,0,0,1,.245.751c-.395,3.84-.828,7.741-1.246,11.514v.01q-.157,1.412-.313,2.825c-.075.66-.147,1.332-.216,1.982l0,.022c-.172,1.61-.349,3.273-.593,4.9-.063.423-.035.677.092.825.144.167.412.2.826.2h.05c1.848-.01,3.8-.014,6.144-.014,1.778,0,3.582,0,5.326.005l3.831,0-.222,1.176-.016.083h-7.35c-2.18,0-5.056,0-7.966-.022Zm-221.208-6.07a10.207,10.207,0,0,0-5.356,1.631l-.006,0c-.427.261-.8.487-.532,1.139.915,2.253,1.822,4.554,2.7,6.779l.01.026.012.029q.493,1.251.988,2.5l.226.642.218.621q.255.676.512,1.351l.031.082c.445,1.173.906,2.387,1.343,3.59a.829.829,0,0,0,.865.668,2.364,2.364,0,0,0,.32-.025,9.467,9.467,0,0,0,8.3-9.293,9.581,9.581,0,0,0-1.217-4.98,9.376,9.376,0,0,0-3.716-3.5A9.755,9.755,0,0,0,49.284,122.943ZM3.313,118.5a2.061,2.061,0,0,0-1.607,3.291q.778,1.284,1.552,2.57l.021.035c1.8,2.989,3.665,6.078,5.571,9.069a9.759,9.759,0,0,0,8.514,4.6h.356c.078,0,.144,0,.207,0,1.042-.035,1.595-.066,1.781-.341s.011-.791-.341-1.756c-.3-.817-.578-1.659-.849-2.474a39.01,39.01,0,0,0-2.27-5.777c-1.364-2.607-2.973-5.14-4.53-7.591-.654-1.029-1.33-2.094-1.98-3.152a3.233,3.233,0,0,0-.4-.543,2.031,2.031,0,0,0-1.479-.646,2.008,2.008,0,0,0-1.177.384,1.9,1.9,0,0,0-.611,2.479c.229.477.5.938.764,1.368.415.684.84,1.38,1.251,2.052l.046.076c1.03,1.687,2.1,3.431,3.117,5.167a1.124,1.124,0,0,1,.012.7,3.237,3.237,0,0,0-.049.359c-.1-.04-.2-.077-.3-.113a3.617,3.617,0,0,1-.7-.313.846.846,0,0,1-.253-.363,2.164,2.164,0,0,0-.1-.2q-.665-1.084-1.326-2.17C7.421,123.39,6.266,121.5,5.1,119.651A2.163,2.163,0,0,0,3.313,118.5Zm14.711-6.252a2.12,2.12,0,0,0-.276.019c-1.271.167-1.883,1.155-1.723,2.78.016.169.038.346.068.557q.125.906.246,1.812c.19,1.411.386,2.868.6,4.3.092.6.175,1.211.255,1.8a37.453,37.453,0,0,0,.92,5.034c.442,1.576,1.039,3.138,1.617,4.648.405,1.06.825,2.155,1.188,3.251.157.474.336.685.581.685a1.468,1.468,0,0,0,.668-.282,10.379,10.379,0,0,0,3.715-3.712,11.5,11.5,0,0,0,1.419-5.3l-.6-4.339c-.408-2.946-.83-5.982-1.251-9.018-.013-.094-.026-.189-.039-.284v-.009a11.332,11.332,0,0,0-.193-1.147,1.974,1.974,0,0,0-1.973-1.553,2.45,2.45,0,0,0-.311.02,1.988,1.988,0,0,0-1.719,2.028,4.848,4.848,0,0,0,.072.693c.01.066.02.132.029.2q.153,1.1.309,2.2c.314,2.226.638,4.528.921,6.8a1.456,1.456,0,0,1-.234.764,3.879,3.879,0,0,0-.167.36,3.906,3.906,0,0,0-.288-.3,1.429,1.429,0,0,1-.484-.678c-.352-2.212-.669-4.464-.975-6.642q-.165-1.174-.332-2.348C19.86,113.119,19.1,112.247,18.024,112.247Zm111.949,4.083h0a9.637,9.637,0,0,0-8.477,5,9.26,9.26,0,0,0-1.013,6.264,9.578,9.578,0,0,0,3.33,5.627,9.7,9.7,0,0,0,6.2,2.165l.181,0A8.85,8.85,0,0,0,135.033,134a2.191,2.191,0,0,0,.895-1.171c.4-1.536.778-3.1,1.147-4.619.444-1.827.9-3.714,1.393-5.559a2.294,2.294,0,0,0-.4-2.07,9.6,9.6,0,0,0-3.541-3.142,9.941,9.941,0,0,0-4.55-1.107Zm164.771-11.088h0a6.739,6.739,0,0,0-.839.121,5.618,5.618,0,0,0-4.432,5.162,5.538,5.538,0,0,0,3.858,5.7c6.147,2.116,12.387,4.222,18.421,6.259l.4.136a6.459,6.459,0,0,0,1.638.364c.126.009.254.013.381.013a5.683,5.683,0,0,0,3.532-1.246,5.487,5.487,0,0,0,1.958-3.149,5.561,5.561,0,0,0-3.731-6.587c-4.672-1.615-9.433-3.223-14.037-4.778l-.047-.016-1.23-.415c-1.218-.412-2.464-.813-3.668-1.2l-.009,0q-.874-.281-1.747-.565h0l-.067.16c-.126.016-.254.029-.378.042ZM65.694,102.268h0l-.575.927c-.688,1.108-1.4,2.251-2.087,3.4a1.262,1.262,0,0,0-.091.641,8.759,8.759,0,0,0,3.1,6.268,10.132,10.132,0,0,0,6.608,2.6,8.341,8.341,0,0,0,2.7-.443c.254-.087.412-.162.47-.291a.6.6,0,0,0-.056-.461c-.6-1.467-1.185-2.959-1.754-4.4q-.336-.853-.674-1.7a2.869,2.869,0,0,1,.231-2.714,10.072,10.072,0,0,0,.4-1.049l0-.008c.053-.155.108-.315.165-.47q.34-.792.677-1.585l0-.01c.606-1.423,1.233-2.895,1.88-4.33.136-.3.165-.5.1-.638a.594.594,0,0,0-.434-.267l-.437-.106-.03-.007c-.912-.222-1.855-.452-2.8-.6l-.021,0c-.208,0-.616.411-.66.666-.244,1.381-.45,2.79-.648,4.152l-.011.077q-.094.643-.189,1.285l-.383,1.066-.671,1.869c-.073.088-.145.177-.217.266-.158.2-.319.4-.492.58a2.324,2.324,0,0,1-1.689.776,2.113,2.113,0,0,1-1.964-1.418,6.545,6.545,0,0,1-.34-1.749c-.058-.587-.081-1.181-.1-1.7-.008-.2-.016-.417-.025-.61Zm1.255-2.642c0,.231,0,.466,0,.694v.034c-.006.535-.011,1.087.011,1.632q.008.192.015.383c.041,1.049.084,2.134.229,3.187a1.309,1.309,0,0,0,.786.933.489.489,0,0,0,.1.009,1.463,1.463,0,0,0,1-.558,5.649,5.649,0,0,0,1.009-2.1q.071-.426.142-.853l0-.021c.465-2.794.945-5.684,1.184-8.546.393-4.706-.466-9.38-1.3-13.9l0-.02c-.154-.837-.313-1.7-.461-2.555A7.106,7.106,0,0,0,67.4,73.711,9.446,9.446,0,0,0,63,71.683a9.715,9.715,0,0,0-1.972-.212,7.751,7.751,0,0,0-6.373,3.341A6.554,6.554,0,0,0,53.177,79a8.155,8.155,0,0,0,1.513,4.244,8.013,8.013,0,0,1,1.417,6.511,23.01,23.01,0,0,1-1.083,3.055c-.263.644-.535,1.309-.763,1.978a14.514,14.514,0,0,0-.833,3.335,1.165,1.165,0,0,0,.263.913.952.952,0,0,0,.714.3,1.512,1.512,0,0,0,.862-.3,5.133,5.133,0,0,0,1.145-1.07c.6-.8,1.2-1.617,1.786-2.409l.005-.007c.659-.9,1.338-1.825,2.023-2.722a1.616,1.616,0,0,1,.629-.409c.112-.051.227-.1.329-.163.03.115.073.234.115.349a1.708,1.708,0,0,1,.154.748c-.082.676-.194,1.361-.3,2.024v.008c-.165,1.007-.335,2.048-.405,3.079a58.45,58.45,0,0,0-.036,6.038c.015.427.508,1.115.824,1.15a.7.7,0,0,0,.079,0,1.8,1.8,0,0,0,1.264-.714,7.713,7.713,0,0,0,1.13-2.417c.344-1.38.648-2.794.942-4.161.231-1.074.469-2.184.726-3.272.117-.5.494-1.256.737-1.256a.611.611,0,0,1,.477.161,1.046,1.046,0,0,1,.1.791,2.9,2.9,0,0,0-.022.346c.027,1.076.022,2.172.017,3.231q0,.633,0,1.265ZM45.21,86.179c-.137,0-.264.151-.387.461-.569,1.434-1.182,2.877-1.775,4.273-.237.557-.481,1.132-.721,1.7q-.421,1.031-.841,2.063l-.123.165-.052.07q-.411.974-.82,1.948l-.012.029c-.721,1.714-1.466,3.487-2.217,5.223-.152.351-.18.591-.087.734a.493.493,0,0,0,.444.165,2.03,2.03,0,0,0,.266-.02c.3-.04.615-.072.916-.1a11.36,11.36,0,0,0,2.288-.391,9.411,9.411,0,0,0,6.364-7.027,9.2,9.2,0,0,0-2.709-8.864c-.049-.045-.1-.1-.145-.15C45.473,86.321,45.343,86.179,45.21,86.179ZM97.4,84.11c-.18,0-.364,0-.546.013A9.4,9.4,0,0,0,90.839,86.8a9.007,9.007,0,0,0-2.844,5.84,1.032,1.032,0,0,0,.43.838c1.826.7,3.7,1.383,5.5,2.039l.006,0,1.613.586.055.021.078.03,1.581.609,1.661.633,0,0c1.81.691,3.682,1.406,5.54,2.064a.475.475,0,0,0,.157.023,1.278,1.278,0,0,0,.884-.407,9.331,9.331,0,0,0,1.589-7.241,9.13,9.13,0,0,0-3.326-5.561A10.255,10.255,0,0,0,97.4,84.11Zm23.607-12.3c-.348,0-.475.295-.577.8a9.442,9.442,0,0,0,.941,6.278,9.729,9.729,0,0,0,4.738,4.339A9.575,9.575,0,0,0,129.9,84a9.756,9.756,0,0,0,7.889-3.92c.252-.345.342-.6.285-.811s-.246-.361-.6-.515c-1.346-.578-2.717-1.162-4.042-1.727L133.368,77l-1.85-.788-1.845-.774-1.845-.773c-.594-.254-1.193-.507-1.772-.752l-.008,0c-1.474-.623-3-1.267-4.477-1.943a1.439,1.439,0,0,0-.566-.16ZM86.027,57.253a1.262,1.262,0,0,0-.94.5,9.779,9.779,0,0,0-2.5,4.907,9.048,9.048,0,0,0,.633,5.414,9.241,9.241,0,0,0,8.455,5.8h.015a10.363,10.363,0,0,0,7.064-2.633,9.358,9.358,0,0,0,3.011-6.5,1.216,1.216,0,0,0-.9-1.4c-4.344-1.776-8.969-3.711-14.142-5.916A1.787,1.787,0,0,0,86.027,57.253Zm76.9-21.139a9.9,9.9,0,0,1,4.878,1.375c.807.455,1.61.935,2.46,1.442l.006,0c.4.238.849.507,1.312.78,0-.244-.007-.465-.013-.678V39.03a6.887,6.887,0,0,1,.025-1.153c.29-2.093-.32-3.466-1.918-4.32a1.092,1.092,0,0,1-.367-.567,3.148,3.148,0,0,0-.143-.317c.1-.029.208-.06.309-.091a6.7,6.7,0,0,1,.763-.2.644.644,0,0,1,.11-.009,1.141,1.141,0,0,1,.44.1,1.161,1.161,0,0,0,.44.119.3.3,0,0,0,.224-.083c.1-.1.145-.3.141-.664-.013-1.368-.013-2.751-.012-4.088,0-1.382,0-2.811-.014-4.224,0-.335-.177-.958-.341-.981l-.284-.041h-.007a7.67,7.67,0,0,0-1.067-.11.96.96,0,0,0-.714.2c-1.063,1.143-2.07,2.37-3.044,3.557-.683.833-1.388,1.693-2.107,2.516a16.386,16.386,0,0,1-2.464,2.181.374.374,0,0,1-.231.061,2.34,2.34,0,0,1-.453-.069,3.26,3.26,0,0,0-.362-.064,3.243,3.243,0,0,0,.153-.325,1.129,1.129,0,0,1,.4-.588,4.9,4.9,0,0,0,2.247-2.262,7.027,7.027,0,0,1,.98-1.321l.1-.112c.97-1.121,1.959-2.254,2.916-3.35s1.947-2.23,2.916-3.35a11.993,11.993,0,0,0,1.083-1.429.821.821,0,0,0,.15-.805.542.542,0,0,0-.508-.237,1.369,1.369,0,0,0-.25.025,10.581,10.581,0,0,0-3.166.96c-1.028.566-2.028,1.221-3,1.854-.759.5-1.544,1.011-2.338,1.479a6.024,6.024,0,0,1-2.182.716c-1.611.225-3.246.426-4.826.62-1.67.205-3.4.417-5.094.657a4.8,4.8,0,0,0-4.168,4.137,12.035,12.035,0,0,0-.219,3.451,8.841,8.841,0,0,0,2.415,5.62,7.227,7.227,0,0,0,5.175,2.122,8.684,8.684,0,0,0,1.921-.221,19.911,19.911,0,0,0,3.672-1.373l.1-.046A9.616,9.616,0,0,1,162.926,36.114Zm8.538-16.243h0l-1.054,1.192a3.954,3.954,0,0,0,.888.214.251.251,0,0,0,.2-.074c.13-.15.074-.545-.038-1.332Zm81.815-5.637c11.727,0,24.357,0,37.255.027h.01c.521,0,.8-.071.975-.245s.233-.449.224-.983c-.063-3.53-.063-7.085,0-10.566a1.364,1.364,0,0,0-.239-1.021,1.376,1.376,0,0,0-1.015-.26h-.01c-11.477.023-22.7.026-33.122.026h-39c-14.146,0-29.3,0-44.306-.025h-.01a1.334,1.334,0,0,0-.994.253,1.311,1.311,0,0,0-.234.984c.066,3.779.065,7.236,0,10.566A1.348,1.348,0,0,0,173.048,14c.182.185.484.261,1.044.261h.012c13.009-.02,25.781-.023,37.645-.023h41.53Z" transform="translate(0)" fill="#2b2d3b"/>
        </g>
      </g>
      <g id="Group_8" data-name="Group 8" transform="translate(26.564 0)">
        <path id="Clip_7-2" data-name="Clip 7" d="M0,0H54.731V60.843H0Z" fill="none"/>
        <g id="Group_8-2" data-name="Group 8" clip-path="url(#clip-path-3)">
          <path id="Fill_6" data-name="Fill 6" d="M4.585,60.844h0a24.378,24.378,0,0,1-2.374-8.083,22.443,22.443,0,0,1,.738-8.387,2.663,2.663,0,0,0-.22-2.108A24.69,24.69,0,0,1,0,30.54,25.908,25.908,0,0,1,10.237,10.425,24.84,24.84,0,0,1,21.368,5.688,27.915,27.915,0,0,1,25.8,5.334a30.011,30.011,0,0,1,5.424.507,1.828,1.828,0,0,0,.329.035c.383,0,.568-.191.8-.569A11.36,11.36,0,0,1,42.125,0a10.871,10.871,0,0,1,6.75,2.249,5.832,5.832,0,0,1,1.273,1.26,17.278,17.278,0,0,1,2.539,5.316,12.186,12.186,0,0,1,.1,5.9,2.34,2.34,0,0,0,.337,1.511,11.1,11.1,0,0,1,1.4,7.809,10.212,10.212,0,0,1-4.307,6.409c-.075.051-.151.1-.227.158a3.777,3.777,0,0,1-1.235.66c-.755.176-1.48.562-1.139,2.088-.017.314-.025.634-.032.944a14.46,14.46,0,0,1-.149,2.062,7.054,7.054,0,0,1-2.287,4.121,6.408,6.408,0,0,1-4.211,1.623c-.147,0-.3-.005-.444-.016a6.725,6.725,0,0,1-6.4-6.674c0-.1-.013-.206-.022-.306,0-.047-.008-.094-.012-.141q0-1.5.007-2.994v-.021c.005-2.841.01-5.778.05-8.667.01-.74-.21-1-.942-1.132A4.717,4.717,0,0,1,29.233,18.6a4.977,4.977,0,0,1,1.342-5.063,2.455,2.455,0,0,0,.529-1.425c.054-.6.073-1.212.092-1.8.024-.761.049-1.549.147-2.314.091-.713,0-.985-.711-1.086a34.82,34.82,0,0,0-4.943-.378A23.858,23.858,0,0,0,19.9,7.2a24.918,24.918,0,0,0-8.3,3.74A24.153,24.153,0,0,0,1.9,25.155a25.018,25.018,0,0,0-.461,9.114,21.625,21.625,0,0,0,2.339,7.444c.045-.089.086-.166.122-.236.073-.139.13-.248.181-.36a23.541,23.541,0,0,1,21.83-14.17,26.883,26.883,0,0,1,3,.17,24.368,24.368,0,0,1,3.831.856c.218.061.39.3.556.525a3.57,3.57,0,0,0,.24.3c-.111.026-.223.053-.331.08-.274.067-.558.137-.842.18l-.03,0a.584.584,0,0,1-.233-.075,1.056,1.056,0,0,0-.16-.065,23.292,23.292,0,0,0-6.173-.838,22.55,22.55,0,0,0-9.845,2.26,21.779,21.779,0,0,0-7.905,6.531c-5.339,7.086-6.2,14.8-2.556,22.935l-.29.344-.579.688Zm30.128-39.79a.716.716,0,0,1,.534.165,1.1,1.1,0,0,1,.2.8c-.118,4.564-.216,9.037-.129,13.59a5.333,5.333,0,0,0,5.5,5.258h.106A5.446,5.446,0,0,0,46.329,35.4c.013-.418.01-.844.007-1.255,0-.181,0-.362,0-.543,0-1.392,0-1.392-1.322-1.412l-.11,0h-.045c-.1,0-.218.007-.339.015h-.013c-.119.007-.254.016-.385.016-.428,0-.866-.079-.871-.668a.671.671,0,0,1,.161-.5.768.768,0,0,1,.574-.176,4.486,4.486,0,0,1,.455.032l.017,0c.149.015.289.03.414.03h.011a8.254,8.254,0,0,0,7.592-4.765,9.087,9.087,0,0,0,1.141-4.558,8.769,8.769,0,0,0-1.48-4.5,1.2,1.2,0,0,0-.535-.363,2.35,2.35,0,0,1-.385-.206c-.1-.068-.2-.136-.318-.208-.345-.216-.7-.44-.716-.678-.014-.259.268-.54.542-.813.1-.1.2-.2.285-.3a2.313,2.313,0,0,1,.293-.265c.185-.15.361-.292.4-.47.645-3.082-.03-5.293-2.125-6.957a1.612,1.612,0,0,0-.876-.468,1.22,1.22,0,0,0-.783.444c-.559.535-1.114,1.1-1.65,1.641-2.271,2.3-4.62,4.686-7.912,5.52.084.284.17.564.253.833.225.73.437,1.417.581,2.121.033.161-.14.367-.308.566a3.125,3.125,0,0,0-.214.274c-.063-.064-.131-.127-.2-.188a2.373,2.373,0,0,1-.428-.474.867.867,0,0,1-.083-.411,1.833,1.833,0,0,0-.023-.248,3.814,3.814,0,0,0-1.358-2.271,3.923,3.923,0,0,0-2.456-.874,3.823,3.823,0,0,0-1.143.175,3.89,3.89,0,0,0-2.711,4.373,3.693,3.693,0,0,0,1.306,2.292,4.01,4.01,0,0,0,2.56.915h.034c.094,0,.187-.006.278-.011S34.628,21.054,34.713,21.054Zm-.452-8.817a3.736,3.736,0,0,1,1.665.3,3.292,3.292,0,0,0,1.518.394A3.439,3.439,0,0,0,39.2,12.4a29.746,29.746,0,0,0,4.153-2.822c1.311-1.105,2.542-2.35,3.733-3.553q.4-.408.808-.815a1.321,1.321,0,0,1,.863-.5c.275,0,.534.2.792.605L49.785,5c-.128-.156-.254-.319-.375-.478a7.524,7.524,0,0,0-.858-1A9.428,9.428,0,0,0,42.135,1.2a11.149,11.149,0,0,0-4.978,1.175,8.852,8.852,0,0,0-3.924,3.776,9.814,9.814,0,0,0-.981,5.534c.05.513.2.6.542.6.059,0,.124,0,.193,0l.09,0,.39-.015C33.727,12.248,34,12.237,34.261,12.237Z" transform="translate(0 0)" fill="#2b2d3b"/>
        </g>
      </g>
      <path id="Fill_9" data-name="Fill 9" d="M0,1.887.267,1.05C2.672.7,5.067.224,7.485.018a4.029,4.029,0,0,1,4.5,3.718A4.1,4.1,0,0,1,8.38,8.243,4.373,4.373,0,0,1,5.387,7.41C3.463,5.714,1.779,3.747,0,1.887" transform="translate(299.079 138.749)" fill="#f37777"/>
      <g id="Group_13" data-name="Group 13" transform="translate(321.54 14.234)">
        <path id="Clip_12-2" data-name="Clip 12" d="M0,0H12.46V12.763H0Z" fill="none"/>
        <g id="Group_13-2" data-name="Group 13" clip-path="url(#clip-path-4)">
          <path id="Fill_11" data-name="Fill 11" d="M6.156,12.763a1.152,1.152,0,0,1-.792-.722A4.82,4.82,0,0,0,.7,7.407a.968.968,0,0,1-.505-.383A.711.711,0,0,1,0,6.575a1.436,1.436,0,0,1,.778-.912A8.3,8.3,0,0,1,1.9,5.309a6.769,6.769,0,0,0,1.325-.452A3.2,3.2,0,0,0,4.531,3.531a7.291,7.291,0,0,0,.478-1.38,9.885,9.885,0,0,1,.332-1.058A2.32,2.32,0,0,1,5.859.412C5.974.292,6.1.155,6.235,0c.14.164.286.3.415.429.243.235.435.421.457.625C7.4,3.789,8.919,5.306,11.757,5.69a1.014,1.014,0,0,1,.527.407.676.676,0,0,1,.175.426,1.429,1.429,0,0,1-.787.912,8.232,8.232,0,0,1-1.12.352,6.719,6.719,0,0,0-1.325.448A3.164,3.164,0,0,0,7.91,9.562a6.7,6.7,0,0,0-.44,1.311A7.99,7.99,0,0,1,7.115,12a1.411,1.411,0,0,1-.934.759ZM6.2,1.872h0c-.283,2.76-1.748,4.25-4.611,4.686A4.787,4.787,0,0,1,6.214,11.2a5.511,5.511,0,0,1,1.41-3.233A5.289,5.289,0,0,1,10.85,6.53C8.112,6.247,6.634,4.766,6.2,1.872Z" fill="#2b2d3b"/>
        </g>
      </g>
      <path id="Fill_14" data-name="Fill 14" d="M7.981,2.676c-.1.242-.141.61-.323.705-1.621.849-3.252,1.686-4.913,2.455A1.774,1.774,0,0,1,.071,4.319,10.972,10.972,0,0,1,.078,1.77,1.792,1.792,0,0,1,2.838.254C4.226.9,5.582,1.618,6.959,2.29c.33.161.687.266,1.032.4Z" transform="translate(4.874 98.15)" fill="#2b2d3b"/>
      <path id="Fill_16" data-name="Fill 16" d="M2.634,8.075c-.25-.65-.465-1.316-.759-1.945A26.52,26.52,0,0,0,.359,3.138,2,2,0,0,1,2.245.007C2.88.03,3.52-.031,4.152.023A1.89,1.89,0,0,1,5.847,2.745c-.755,1.663-1.6,3.287-2.454,4.9-.113.214-.506.281-.769.416Z" transform="translate(10.231 92.762)" fill="#2b2d3b"/>
      <path id="Fill_18" data-name="Fill 18" d="M4,8.785c-.1-.239-.221-.474-.31-.718A5.833,5.833,0,0,1,3.347,7,1.947,1.947,0,0,0,1.538,5.18a2.314,2.314,0,0,1-.855-.263A4.194,4.194,0,0,1,0,4.277a5.532,5.532,0,0,1,.671-.658,1.414,1.414,0,0,1,.638-.2,2.166,2.166,0,0,0,2.1-2.087A2.492,2.492,0,0,1,3.742.387c.313-.518.7-.506,1.061-.024a.437.437,0,0,1,.086.2A3.165,3.165,0,0,0,7.957,3.657a.815.815,0,0,1,.513.606c0,.208-.3.443-.5.626a.808.808,0,0,1-.425.131A2.648,2.648,0,0,0,5.008,7.529a3.658,3.658,0,0,1-.568,1.079L4,8.785" transform="translate(306.656 40.145)" fill="#f37777"/>
      <path id="Fill_20" data-name="Fill 20" d="M.482,4.5C.346,4.423.089,4.365.055,4.244a.938.938,0,0,1,.03-.716C.969,2.377,1.879,1.245,2.826.145a.863.863,0,0,1,.767-.1.692.692,0,0,1,.169.642C2.811,1.922,1.818,3.127.828,4.333c-.063.077-.2.1-.347.165" transform="translate(87.967 3.654)" fill="#2b2d3b"/>
      <path id="Fill_22" data-name="Fill 22" d="M4.936,2.3c-.378.158-.743.457-.952.373C2.743,2.175,1.528,1.606.331,1.006.148.914.107.54,0,.3.25.194.563-.06.74.013,2.012.538,3.259,1.122,4.5,1.711c.142.067.213.283.433.591" transform="translate(88.711 13.511)" fill="#2b2d3b"/>
      <path id="Fill_24" data-name="Fill 24" d="M.539,1.7C.4,1.576.086,1.408,0,1.161-.039,1.032.3.626.514.587Q2.5.224,4.5,0c.191-.021.42.3.631.469-.177.207-.327.558-.536.6C3.313,1.309,2.015,1.48.539,1.7" transform="translate(88.875 9.787)" fill="#2b2d3b"/>
      <path id="Fill_26" data-name="Fill 26" d="M1.431,8.258C1.021,8.65.659,9.231,0,8.61A4.085,4.085,0,0,1,.35,7.6C1.924,5.279,3.507,2.965,5.143.688,5.391.343,6.115-.1,6.292.018c.739.473.078.962-.2,1.381-1.539,2.3-3.1,4.575-4.658,6.859" transform="translate(57.805 57.39)" fill="#2b2d3b"/>
      <path id="Fill_28" data-name="Fill 28" d="M1.06,6.836l-.582.215c-.168-.335-.5-.681-.477-1,.119-1.7.293-3.407.533-5.1C.583.606,1,.315,1.24,0c.167.361.5.737.474,1.081C1.545,3,1.288,4.919,1.06,6.836" transform="translate(85.72 49.844)" fill="#2b2d3b"/>
      <path id="Fill_30" data-name="Fill 30" d="M12.315,42.255a14.88,14.88,0,0,1-.531-29.212c.948-.2.794-.412.318-.987-1.364-1.644-2.69-3.32-4.02-4.992C6.818,5.476,6.916,3.8,8.322,2.711c1.3-1.005,3.04-.676,4.242.806.49.6.97,1.215,1.6,2.007.156-1.157.255-2.077.407-2.988a2.841,2.841,0,0,1,5.652.589c-.043.925-.178,1.845-.3,3.038.8-.63,1.4-1.113,2.009-1.583,1.582-1.22,3.329-1.132,4.386.215,1.043,1.329.747,2.974-.791,4.215-1.808,1.459-3.633,2.9-5.6,4.467.426.177.749.306,1.067.445a14.9,14.9,0,0,1-4.168,28.485,30.592,30.592,0,0,1-3.263.046c.529-4.783,1.069-9.564,1.561-14.35.036-.352-.271-.738-.419-1.109-.255.342-.693.662-.738,1.03-.583,4.739-1.111,9.486-1.653,14.23" transform="translate(257.05 85.351)" fill="#f37777"/>
      <path id="Fill_32" data-name="Fill 32" d="M4.293,20.156c-1.3-2.356-2.632-4.7-3.9-7.072a2.861,2.861,0,0,1,.815-3.795,2.885,2.885,0,0,1,3.713.278c.344.34.628.741,1.039,1.232.038-.377.087-.644.088-.912.006-2.358-.011-4.717.009-7.075a2.6,2.6,0,1,1,5.181.044A42.461,42.461,0,0,0,11.4,7.232c.226-.691.458-1.38.677-2.073.679-2.144,2.156-3.087,3.9-2.484s2.343,2.2,1.6,4.346Q15.34,13.538,13.1,20.056c-.731.057-1.462.161-2.193.162-2.2,0-4.407-.038-6.611-.062" transform="translate(193.027 157.479)" fill="#f37777"/>
      <path id="Fill_34" data-name="Fill 34" d="M7.053.99l5.129,5.34-.285.909c-2.354.364-4.7.879-7.065,1.052C1.844,8.508.257,6.975,0,4L.237,2.743C1.642.234,3.075-.407,5.864.229L7.053.99" transform="translate(285.835 132.983)" fill="#f37777"/>
      <path id="Fill_36" data-name="Fill 36" d="M0,6.335c.013-1.9.033-3.8.033-5.707C.033.111.1-.2.708.15c2.06,1.2,4.126,2.386,6.359,3.675L.444,7.6,0,6.335" transform="translate(47.099 136.67)" fill="#2b2d3b"/>
      <path id="Fill_38" data-name="Fill 38" d="M0,6.458V0L6.872,3.954,1.714,7.118,0,6.458" transform="translate(95.549 97.597)" fill="#2b2d3b"/>
      <path id="Fill_40" data-name="Fill 40" d="M1.053,0,3.622,1.363c-.188.51-.341,1.038-.573,1.528A2.86,2.86,0,0,0,2.819,5.6L0,7.318C0,5.685,0,4.31,0,2.935L1.053,0" transform="translate(70.522 111.143)" fill="#2b2d3b"/>
      <path id="Fill_42" data-name="Fill 42" d="M3.7,1.547C2.658,2.2,1.625,2.863.564,3.476c-.074.043-.524-.282-.533-.449C-.02,2.02.007,1.01.008,0L3.7,1.547" transform="translate(127.821 82.617)" fill="#2b2d3b"/>
      <path id="Fill_44" data-name="Fill 44" d="M.842,0,2.489.885,0,2.064.842,0" transform="translate(41.484 100.568)" fill="#2b2d3b"/>
      <path id="Fill_46" data-name="Fill 46" d="M.234.015,0,.21l.234-.2" transform="translate(160.741 45.543)" fill="#f37777"/>
      <path id="Fill_48" data-name="Fill 48" d="M.2,0,.022.242.2,0" transform="translate(41.288 102.623)" fill="#bbcde5"/>
      <path id="Fill_50" data-name="Fill 50" d="M28.883,39c-6.133,0-12.37,0-18.537,0S.015,34.87.007,28.736C0,21.506,0,15.613.007,10.192A10.141,10.141,0,0,1,2.824,2.847,10.2,10.2,0,0,1,10.187.014C12.363,0,14.695,0,17.527,0q2.841,0,5.683,0t5.684,0q2.8,0,5.605,0h.036q2.821,0,5.641,0c2.868,0,5.226,0,7.423.012a10.513,10.513,0,0,1,6.549,2.127,9.55,9.55,0,0,1,3.415,5.713,12.084,12.084,0,0,1,.171,2.346c.014,6.778.015,12.844,0,18.544a10.226,10.226,0,0,1-2.834,7.444,10.339,10.339,0,0,1-7.486,2.806C41.253,39,35.016,39,28.883,39Zm-.092-1.264H39.939c2.971,0,5.406,0,7.664-.005a8.933,8.933,0,0,0,6.487-2.455,8.96,8.96,0,0,0,2.451-6.5c.008-5.87.008-11.934,0-18.537A9.006,9.006,0,0,0,54.076,3.7a9.025,9.025,0,0,0-6.552-2.456l-17.331,0-19.956,0A8.986,8.986,0,0,0,3.732,3.674,8.9,8.9,0,0,0,1.273,10.15c-.014,5.988-.014,12.263,0,18.651.011,5.419,3.516,8.924,8.931,8.931,2.2,0,4.559,0,7.435,0H28.791Z" transform="translate(203.378 53.271)" fill="#2b2d3b"/>
      <path id="Fill_52" data-name="Fill 52" d="M2.307,0A2.414,2.414,0,0,1,4.73,2.4,2.53,2.53,0,0,1,2.289,4.721,2.339,2.339,0,0,1,0,2.326,2.192,2.192,0,0,1,2.307,0" transform="translate(189.576 13.356)" fill="#2b2d3b"/>
      <path id="Fill_54" data-name="Fill 54" d="M2.257,0A2.435,2.435,0,0,1,4.725,2.255,2.526,2.526,0,0,1,2.316,4.721,2.256,2.256,0,0,1,0,2.374,2.2,2.2,0,0,1,2.257,0" transform="translate(176.263 13.356)" fill="#2b2d3b"/>
      <path id="Fill_56" data-name="Fill 56" d="M4.732,2.378A2.4,2.4,0,0,1,2.366,4.72,2.437,2.437,0,0,1,0,2.245,2.407,2.407,0,0,1,2.453,0,2.278,2.278,0,0,1,4.732,2.378" transform="translate(182.85 13.356)" fill="#2b2d3b"/>
      <path id="Fill_58" data-name="Fill 58" d="M0,0,7.038,4.033C4.807,5.313,2.713,6.524.6,7.7c-.1.058-.569-.215-.571-.338C-.008,4.983,0,2.606,0,0" transform="translate(127.848 129.787)" fill="#2b2d3b"/>
      <path id="Fill_60" data-name="Fill 60" d="M20.855,10.288a2.632,2.632,0,0,1-.818-.137c-1.543-.506-3.1-1.044-4.612-1.564-.784-.27-1.594-.549-2.4-.822C11.984,7.409,10.921,7.05,9.892,6.7,7.192,5.791,4.4,4.849,1.677,3.879A2.815,2.815,0,0,1,.094,2.635,2.506,2.506,0,0,1,.393.688,1.4,1.4,0,0,1,1.675,0a2.969,2.969,0,0,1,.943.173c1.4.475,2.828.964,4.205,1.436,1.125.386,2.289.785,3.436,1.175,3.688,1.255,7.334,2.49,10.835,3.671,1.111.374,1.659.958,1.675,1.786A1.9,1.9,0,0,1,20.855,10.288ZM2.1,1.449a1.488,1.488,0,0,0-.562.187,3.169,3.169,0,0,1-.333.143c.061.079.122.16.18.239a4.288,4.288,0,0,0,.448.544.788.788,0,0,0,.356.151c.055.014.112.028.164.045L6.2,4.063Q10.71,5.59,15.214,7.118c.536.182,1.079.37,1.605.553,1.144.4,2.326.806,3.5,1.174a.86.86,0,0,0,.26.036,2.836,2.836,0,0,0,.519-.068c.124-.024.252-.049.374-.061l.071-.494V8.253c-.111-.064-.221-.135-.328-.2a3.439,3.439,0,0,0-.721-.389C16.9,6.42,13.239,5.176,9.7,3.972L8.278,3.489,7.06,3.073c-1.586-.542-3.224-1.1-4.85-1.609A.371.371,0,0,0,2.1,1.449Z" transform="translate(293.31 116.909)" fill="#2b2d3b"/>
      <path id="Fill_62" data-name="Fill 62" d="M.227,0C.442.094.514.118.578.155,2.527,1.273,4.48,2.385,6.41,3.536a.762.762,0,0,1-.059.67C4.521,5.3,2.664,6.36.816,7.43.286,7.737-.006,7.7,0,6.984.017,4.852,0,2.718.017.585A1.926,1.926,0,0,1,.227,0" transform="translate(89.965 68.463)" fill="#2b2d3b"/>
      <path id="Fill_64" data-name="Fill 64" d="M3.163,4.3a2.779,2.779,0,0,1-.384-.027A3.334,3.334,0,0,1,.669,2.918,3.011,3.011,0,0,1,.027.716,1.114,1.114,0,0,1,.815.054,6.282,6.282,0,0,1,1.708,0c.2,0,.412.006.613.011s.413.011.618.011V.064L3.4.085h.018L4.73.149C5.424.182,5.808.24,5.977.459s.126.615-.022,1.31A2.95,2.95,0,0,1,3.163,4.3ZM1.723,1.22c-.192,0-.311.042-.364.127-.081.129.007.347.1.543A1.83,1.83,0,0,0,3.094,3.112a1.8,1.8,0,0,0,.2-.011c.842-.094,1.344-.676,1.492-1.73-.306-.014-.61-.027-.9-.039-.7-.029-1.365-.056-2.038-.107-.042,0-.083,0-.12,0Z" transform="translate(71.165 21.671)" fill="#2b2d3b"/>
      <path id="Fill_66" data-name="Fill 66" d="M1.936,1.678A9.212,9.212,0,0,1,.5,1.083C.268.938.163.588,0,.33.281.215.614-.06.833.012A24.265,24.265,0,0,1,3.962,1.23c.578.282.553.8-.068,1.087A10.12,10.12,0,0,1,2,2.995,3.243,3.243,0,0,1,.91,2.868c.219-.316.43-.638.66-.945a1.655,1.655,0,0,1,.367-.244" transform="translate(59.092 15.39)" fill="#2b2d3b"/>
      <path id="Fill_68" data-name="Fill 68" d="M1.888,2.686A13.033,13.033,0,0,1,1.24.964,2.47,2.47,0,0,1,1.439,0a4.362,4.362,0,0,1,.889.6,2.812,2.812,0,0,1,.346.817C3.713,3.86,3.7,3.643.8,4.064.558,4.1.268,3.817,0,3.683c.21-.25.374-.593.643-.725a5.234,5.234,0,0,1,1.244-.272" transform="translate(72.746 15.829)" fill="#2b2d3b"/>
      <path id="Fill_70" data-name="Fill 70" d="M2.449.966c-.667.459-1.072.955-1.415.915C.659,1.837.342,1.3,0,.974.356.63.672.089,1.081,0c.3-.061.721.48,1.368.961" transform="translate(69.302 14.456)" fill="#2b2d3b"/>
      <path id="Fill_72" data-name="Fill 72" d="M14.946,7.343c-.381.23-.648.418-.937.562-4.29,2.141-8.589,4.262-12.867,6.426-.826.418-1.153.455-1.141-.647C.046,9.382.026,5.078.011.776c0-.661.033-1.009.838-.6C5.363,2.458,9.894,4.7,14.417,6.968a4.94,4.94,0,0,1,.529.375" transform="translate(225.692 65.445)" fill="#2b2d3b"/>
    </g>
  </g>
</svg>
