<svg xmlns="http://www.w3.org/2000/svg" xmlns:xlink="http://www.w3.org/1999/xlink" width="335" height="180" viewBox="0 0 335 180">
  <defs>
    <clipPath id="clip-path">
      <path id="Mask" d="M0,0H335a0,0,0,0,1,0,0V162.2A17.8,17.8,0,0,1,317.2,180H17.8A17.8,17.8,0,0,1,0,162.2V0A0,0,0,0,1,0,0Z" transform="translate(335 180) rotate(-180)" fill="#fff"/>
    </clipPath>
    <clipPath id="clip-path-2">
      <path id="Clip_2" data-name="Clip 2" d="M0,0H336V188H0Z" fill="none"/>
    </clipPath>
  </defs>
  <g id="Recurso_6_2x" data-name="Recurso 6@2x" clip-path="url(#clip-path)">
    <g id="Group_62" data-name="Group 62" transform="translate(0 10)">
      <g id="Group_3" data-name="Group 3">
        <path id="Clip_2-2" data-name="Clip 2" d="M0,0H336V188H0Z" fill="none"/>
        <g id="Group_3-2" data-name="Group 3" clip-path="url(#clip-path-2)">
          <path id="Fill_1" data-name="Fill 1" d="M331.347,188h-.166c-3.81-.013-7.652-.029-11.366-.044l-2.778-.011-55.192-.223c-37.71-.152-80.451-.325-122.264-.5-19.143-.079-39.257-.164-61.491-.261-14.721-.064-29.989-.134-43.46-.2h-.014l-21.852-.1h-.326c-.11,0-.194,0-.273-.01-.311-.029-.643-.1-.649-.539-.005-.366.192-.541.622-.552.163,0,.326,0,.45,0H24.473q-.384-1.539-.766-3.073l-.01-.041c-.554-2.223-1.126-4.521-1.7-6.808q-1.145-4.56-2.291-9.12l-.031-.122c-2.04-8.117-4.149-16.511-6.212-24.783-.187-.751-.375-1.212-1.413-1.274a4.573,4.573,0,0,1-4.245-3.33,4.757,4.757,0,0,1-.135-2.758,5.237,5.237,0,0,1,1.456-2.38,6.153,6.153,0,0,1,.563-.471c.093-.072.185-.143.275-.216-.076-.306-.32-.422-.557-.534a2.5,2.5,0,0,1-.229-.118c-.766-.465-1.541-.928-2.291-1.376l-.027-.016c-.652-.39-1.327-.793-1.988-1.193a9.464,9.464,0,0,1-3.414-13.347c1.052-1.8,2-3.422,3.021-5.011a1.292,1.292,0,0,0-.095-1.847c-.655-.721-1.259-1.509-1.844-2.272-.251-.327-.51-.665-.771-1a1.017,1.017,0,0,1-.315-.682.525.525,0,0,1,.233-.348.541.541,0,0,1,.325-.128c.227,0,.4.2.575.4l.081.091c.135.149.254.31.379.48a3.5,3.5,0,0,0,1.022,1.028,2.806,2.806,0,0,0-.14-1.6,5.409,5.409,0,0,1-.152-.581c-.071-.381-.105-.764.313-.9a.72.72,0,0,1,.222-.04c.342,0,.455.331.55.7a9.294,9.294,0,0,0,.85,2.334l.127-.645c.119-.6.242-1.23.36-1.848.054-.284.162-.61.528-.61a.824.824,0,0,1,.185.023c.424.1.4.45.349.77q-.067.4-.131.8l0,.025c-.176,1.082-.359,2.2-.6,3.289a1.457,1.457,0,0,0,.841,1.9c1.607.852,3.178,1.833,4.7,2.782l.338.211a9.443,9.443,0,0,1,3.294,13.2c-.707,1.221-1.445,2.451-2.159,3.64l-.015.025c-.329.548-.67,1.115-1,1.677a6.507,6.507,0,0,1,3.614,1.734,4.891,4.891,0,0,1-1.014,7.381,1.166,1.166,0,0,0-.669,1.575c2.95,11.644,5.8,22.977,8.944,35.522l.068.272c.672,2.678,1.367,5.448,1.979,8.19.1.462.276.463.589.463h.012l2.709,0h.01c2.723,0,5.539.007,8.309.03h.019a.7.7,0,0,0,.567-.178c.127-.16.068-.41.016-.631a2.014,2.014,0,0,1-.05-.259c-.342-3.584-.71-7.226-1.066-10.748l0-.044q-.152-1.5-.3-3a1.43,1.43,0,0,1,.79-.175c.107,0,.218-.005.326-.018l.677,7.058.646,6.737q.006.062.011.122c.059.654.105,1.171,1.156,1.171,11.84.014,23.867.072,35.5.128l8.717.041H85.2a1.536,1.536,0,0,0-.572-.827c-.064-.056-.124-.109-.181-.167l-1.815-1.823-.076-.076c-2.617-2.629-5.322-5.348-8.025-7.987-.455-.444-.641-.753-.641-1.066a1.546,1.546,0,0,1,.606-1.029c2.591-2.514,5.179-5.119,7.681-7.637q1.034-1.04,2.067-2.079c.065-.066.138-.128.208-.188a1.3,1.3,0,0,0,.518-.717,1.173,1.173,0,0,0-.649-.163c-.107,0-.214.008-.317.015s-.214.016-.318.016l-2.412,0q-1.91,0-3.819,0h-.308l-3.539,0c-2.591,0-4.583-.006-6.458-.02a14.138,14.138,0,0,1-14.341-14.167c0-1.854-.014-3.74-.026-5.563v-.01q-.008-1.217-.015-2.433,0-5,.007-10.006l-.005-8.6V101.953c0-.16.01-.32.016-.48.012-.354.025-.715.025-1.072q0-15.172,0-30.345v-.525c0-18.1,0-36.82,0-55.226A14.127,14.127,0,0,1,66.985,0H67l14,0h8.142c8.616,0,17.526,0,26.29.005a14.264,14.264,0,0,1,10.119,4.049,14.166,14.166,0,0,1,4.136,10.063c.029,3.872.022,7.81.015,11.617v.1c0,1.646-.006,3.348-.006,5.021v90.1a2.921,2.921,0,0,0,1.383-.575l.143-.092a1.546,1.546,0,0,1,.8-.3c.358,0,.643.251.952.841,2.262,4.309,4.6,8.674,6.853,12.894l.014.027.066.123q1.048,1.959,2.095,3.919c.108.2.214.408.316.606.257.5.522,1.011.824,1.49a1.027,1.027,0,0,1-.57,1.753,4.5,4.5,0,0,0-.777.44c-.114.075-.23.151-.346.22l-.347.158c-.255.116-.545.247-.82.379-.086.041-.172.089-.255.136a1.543,1.543,0,0,1-.715.261.8.8,0,0,1-.529-.218c-2.718-5.125-5.8-10.934-8.835-16.652,0,0-.007,0-.016,0a.677.677,0,0,0-.071.008c-.039.005-.092.012-.162.019q0,.643,0,1.291c0,.9,0,1.93,0,2.924q.017,4.789.036,9.579l0,.423.005,1.339q.01,2.7.02,5.395a14.7,14.7,0,0,1-2.479,8.563,14.067,14.067,0,0,1-11.891,6.2c-3.429.041-6.917.043-10.29.045-1.484,0-3.013,0-4.529.006H88.373c.077.093.137.168.187.23a2.745,2.745,0,0,0,.2.239l.021.021c2.954,2.956,6.008,6.013,9.022,9.012a1.25,1.25,0,0,1,.11.133c.1.126.194.257.357.257a.43.43,0,0,0,.192-.052c-.064.377.172.553.4.723a1.5,1.5,0,0,1,.287.253c.057.073.12.144.181.213.276.312.536.606.37,1.1L94.364,179.7l-.878.889-5.261,5.327H127.2c-1.873-1.633-1.985-3.607-1.94-5.488.051-2.144.031-4.273,0-6.448a6.414,6.414,0,0,1,.795-3.44,5.217,5.217,0,0,1,4.3-2.227h.125l2.319.009h.069c1.77.007,3.6.015,5.4.019a5.78,5.78,0,0,1,4.2,1.414,5.629,5.629,0,0,1,1.429,4.153c0,.765,0,1.541-.007,2.291-.009,1.6-.018,3.25.022,4.878a5.712,5.712,0,0,1-2.2,5.033h21.917c.116.008.231.018.346.028.237.021.482.042.723.043q2.993.018,5.987.032h.139c5.022.025,10.215.052,15.326.105h.065c.826,0,1.126-.172,1.168-1.138a12.662,12.662,0,0,1,2.38-6.951,11.136,11.136,0,0,1,5.823-4.147,21.185,21.185,0,0,0,5.978-2.877,27.853,27.853,0,0,0,4.916-4.382c.9-.994,1.391-1.542,1.472-2.111s-.222-1.155-.823-2.343l-.046-.09c-.288-.572-.554-.774-1.013-.774a2.286,2.286,0,0,0-.452.053c-5.246,1.062-10.586,2.107-15.752,3.118l-.009,0-.156.031-4.5.881c-.439-.057-.605-.386-.765-.705l0-.007c-.032-.063-.065-.129-.1-.191-2.091-3.723-4.219-7.508-6.277-11.168l-.033-.059-.01-.018c-5.638-10.028-11.468-20.4-17.16-30.618a15.2,15.2,0,0,1-1.828-10.37,13.7,13.7,0,0,1,1.862-4.7,14.693,14.693,0,0,1,3.589-3.884,11.286,11.286,0,0,1,7.07-2.309c.1,0,.209,0,.312,0,1.6.034,3.223.039,4.795.044,1.216,0,2.473.007,3.716.025h.044a1.715,1.715,0,0,0,1.4-.612,11,11,0,0,1,4.585-2.715,58.027,58.027,0,0,1,19.537-3.474c.926,0,1.867.024,2.8.07.131.007.261.01.388.01a5.919,5.919,0,0,0,2.295-.439,10.338,10.338,0,0,1,3.738-.727c1.592-.038,3.2-.084,4.761-.129h.01c1.893-.054,3.849-.11,5.774-.152.419-.009.725-.053.853-.241.107-.155.092-.4-.046-.784a15.893,15.893,0,0,1-.74-2.763c-.117-.694-.392-.952-1.017-.952-.082,0-.17,0-.269.013-3.468.313-6.994.6-10.4.882l-.253.021-2.12.174q-.752.062-1.5.127l-.034,0c-1.531.131-3.113.267-4.675.35-.152.008-.307.012-.46.012a13.462,13.462,0,0,1-4.993-1.169c-7.417-3.021-14.92-6.062-22.176-9l-5.944-2.409a13.082,13.082,0,0,1-6.584-6.116A8.425,8.425,0,0,0,157.344,67c-.484,0-1,.026-1.528.077-.567.055-1.14.128-1.695.2a27.809,27.809,0,0,1-3.487.3,11.687,11.687,0,0,1-1.378-.077,5.394,5.394,0,0,1-1.392-.317,2.46,2.46,0,0,1-.689-4.312A11.874,11.874,0,0,1,150.863,61l.029-.011c.523-.191,1.04-.365,1.639-.567l.026-.009c.286-.1.588-.2.912-.31l-1.908-.4-.023,0-.014,0c-1.384-.289-2.69-.563-4-.85a14.048,14.048,0,0,1-3.818-1.35c-1.056-.579-2.015-1.3-1.883-2.646.153-1.56,1.426-2.085,2.517-2.367a12.1,12.1,0,0,1,3.07-.338c.233,0,.474,0,.738.012l.151,0a1.849,1.849,0,0,0,.76-.138c-.369-.133-.742-.265-1.1-.393-.84-.3-1.709-.607-2.557-.93a4.12,4.12,0,0,1-1.695-1.094,2.226,2.226,0,0,1,.473-3.419,5.263,5.263,0,0,1,2.614-.758c.421-.028.856-.042,1.292-.042a37.405,37.405,0,0,1,8.876,1.371l.09.022a3.181,3.181,0,0,0,.743.123,1.266,1.266,0,0,0,.828-.307,1.3,1.3,0,0,1,.853-.285,3.728,3.728,0,0,1,1.1.224,14.6,14.6,0,0,1,3.406,1.719c2.753,1.786,5.655,3.426,8.461,5.012,1.148.649,2.335,1.32,3.5,1.995l.084.049a1.743,1.743,0,0,0,.562.251,42.678,42.678,0,0,1,9.6,3.295c1.36.592,2.764,1.2,4.169,1.737,5.133,1.95,10.154,4.046,15.273,6.2a5.734,5.734,0,0,0,2.291.427c.32,0,.669-.018,1.1-.056q4.677-.416,9.354-.836c6.509-.583,13.24-1.185,19.886-1.765.628-.055.918-.205.868-.913s-.055-1.458-.059-2.171v-.009c0-.3,0-.62-.009-.929a1.037,1.037,0,0,1,.157-.012,2.019,2.019,0,0,1,.693.166,3.674,3.674,0,0,0,.375.123c.01.53.009,1.068.007,1.59a29.636,29.636,0,0,0,.172,4.008,7.4,7.4,0,0,0,7.49,6.548c.136,0,.276,0,.413-.01a7.325,7.325,0,0,0,6.918-7.2c.039-2.873-.021-5.794-.078-8.619-.025-1.241-.052-2.519-.069-3.777,0-.374,0-.753-.007-1.119-.01-.842-.021-1.712.047-2.562.086-1.092-.112-1.88-1.358-2.179a.958.958,0,0,1-.74-.515.851.851,0,0,1,.229-.792,1.035,1.035,0,0,1,.184-.017,1.824,1.824,0,0,1,.823.267c.109.056.222.113.336.16a6.416,6.416,0,0,0,2.436.483,6.312,6.312,0,0,0,3.644-1.152,6.39,6.39,0,0,0,2.369-3.151,6.5,6.5,0,0,0-.368-5.094A6.261,6.261,0,0,0,258.9,34.5a6.369,6.369,0,0,0-5.77,1.133,6.347,6.347,0,0,0-2.267,3.666v.006a3.316,3.316,0,0,1-.379,1.112,1.467,1.467,0,0,1-.195.014.647.647,0,0,1-.486-.171,1.078,1.078,0,0,1-.214-.794q.029-.319.059-.636l0-.024a10.951,10.951,0,0,1,3.1-4.374,6.852,6.852,0,0,1,4.364-1.379,11.976,11.976,0,0,1,1.369.083,7.846,7.846,0,0,1,5.5,4.354,7.564,7.564,0,0,1-.135,6.593,7.376,7.376,0,0,1-6.63,4.188c-.658.028-.875.153-.864.843.076,4.55.127,9.282.158,14.466,0,.606.185.8.749.8h.07c1.534-.039,3.159-.057,5.27-.057h.6a11.486,11.486,0,0,1,11.906,11.9q0,.738,0,1.476v.046c0,1.539,0,3.13-.043,4.694a.906.906,0,0,0,.166.683.886.886,0,0,0,.666.181h.031c1.644-.015,3.375-.022,5.445-.022,1.68,0,3.389,0,5.041.009h.061a5.65,5.65,0,0,1,4.6,2,5.515,5.515,0,0,1,.794,4.833c-2.643,10.477-5.348,21.126-7.964,31.425l-.035.139q-1.425,5.608-2.848,11.216a5.635,5.635,0,0,1-1.4,2.574c1.907.612,2.357,2.248,2.628,3.733a16.079,16.079,0,0,1,.211,2.855c.012,13.938.021,28.76-.016,43.279a1.5,1.5,0,0,0,.257,1.07,1.322,1.322,0,0,0,.975.256h.048c.927-.008,1.891-.012,2.946-.012,2.17,0,4.371.017,6.5.034,1.263.01,2.568.02,3.855.027.057,0,.114,0,.17,0s.119,0,.176,0c.337,0,.671-.055.737-.707.433-4.278.9-8.625,1.346-12.829q.292-2.736.582-5.469a3.638,3.638,0,0,0,.008-.478v-.008c0-.087,0-.178,0-.277-.425.149-.841.313-1.244.472a15.591,15.591,0,0,1-2.531.836,3.866,3.866,0,0,1-.789.084,3.049,3.049,0,0,1-2.7-1.535,3.165,3.165,0,0,1,.362-3.767,3.066,3.066,0,0,1,2.3-1.039,3.564,3.564,0,0,1,1.409.3,13.572,13.572,0,0,1,2.759,1.66,1.148,1.148,0,0,0,.578.3c.193,0,.3-.212.332-.689.1-1.3.25-2.619.394-3.894v-.01c.058-.512.118-1.041.174-1.561.091,0,.184-.006.274-.011.109-.006.22-.011.329-.011a1.5,1.5,0,0,1,.735.159l-.341,3.233-.016.155-.3,2.886c.412-.136.81-.273,1.195-.4.865-.3,1.679-.576,2.512-.8a3.8,3.8,0,0,1,.993-.138,2.993,2.993,0,0,1,2.627,1.509,3.124,3.124,0,0,1-.341,3.77,3.02,3.02,0,0,1-2.3,1.056,3.779,3.779,0,0,1-1.511-.335,15.567,15.567,0,0,1-2.528-1.507l-.01-.007c-.258-.176-.525-.359-.8-.538a11.026,11.026,0,0,0-.457,2.8c-.026.348-.052.708-.092,1.059-.248,2.18-.479,4.4-.7,6.547v.008c-.275,2.644-.559,5.374-.878,8.054a1.192,1.192,0,0,0,.133.934c.169.19.473.227.943.227h.04c1.434-.006,2.753-.009,4.033-.009,3.478,0,6.588.022,9.507.068h.052c.828,0,1.017-.337,1.107-1.044.706-5.532,1.438-11.119,2.146-16.523l.318-2.426q.695-5.307,1.392-10.614l.075-.57q.9-6.841,1.794-13.684c.327-2.5.607-4.708.855-6.754a2.22,2.22,0,0,1,.081-.337c.087-.3.176-.6-.076-.787a.382.382,0,0,0-.228-.082.845.845,0,0,0-.5.289,1.66,1.66,0,0,1-.284.224,6.488,6.488,0,0,1-3.151.888,5.889,5.889,0,0,1-3.3-1.066,5.526,5.526,0,0,1-2.578-5.662,5.821,5.821,0,0,1,1.332-3.071,6.24,6.24,0,0,1,2.866-1.8,8.111,8.111,0,0,1,.886-.211c.189-.038.4-.082.652-.137-2.773-1.3-4.113-3.075-4.217-5.581a5.63,5.63,0,0,1,1.589-4.242,5.464,5.464,0,0,1,4.041-1.889,8.066,8.066,0,0,1,5.45,2.682c.6-1.423.549-1.586-.745-2.177a5.852,5.852,0,0,1-1.092-10.1,6,6,0,0,1,3.525-1.2,5.291,5.291,0,0,1,.78.058,6,6,0,0,1,5.238,5.895,5.932,5.932,0,0,1-1.431,3.857,5.465,5.465,0,0,1-3.6,1.9c-1.264.127-1.284.793-1.31,1.635,0,.149-.009.3-.021.464a7.432,7.432,0,0,1,4.321-1.637,5.951,5.951,0,0,1,3.786,1.478,5.409,5.409,0,0,1,1.908,5.9,5.743,5.743,0,0,1-4.94,4.422l-1.233.019h-.024l-1.236.019a3.908,3.908,0,0,0,.821.086,2.63,2.63,0,0,1,1.213.237,6.9,6.9,0,0,1,3.166,2.507,5.36,5.36,0,0,1,.877,3.6,5.868,5.868,0,0,1-5.019,5.328,6.385,6.385,0,0,1-1.034.087A5.905,5.905,0,0,1,324,134.791a3.2,3.2,0,0,1-.37-.469,1.828,1.828,0,0,1-.145-.292c-.019-.046-.038-.091-.059-.134l-.118.063-.137.073-.361,2.737-.071.538q-.337,2.555-.673,5.111l-1.123,8.557q-1.187,9.047-2.376,18.094l-.357,2.725-.012.089c-.6,4.589-1.224,9.335-1.86,14-.053.394-.027.61.09.745s.332.19.721.19h.025c1.209-.007,2.466-.01,3.845-.01,2.493,0,5.022.011,7.468.021l2.593.01a5.8,5.8,0,0,1,1.068.068.51.51,0,0,1,.406.526.526.526,0,0,1-.425.513A4.594,4.594,0,0,1,331.347,188ZM225.164,186.38h.016c4.187.055,8.348.076,11.506.089l12.251.045.608,0h.019c10.118.037,20.581.075,30.871.123h.029a.96.96,0,0,0,.691-.172.9.9,0,0,0,.175-.658c-.022-12.855-.025-25.925-.027-38.566V140.73a7.8,7.8,0,0,0-.523-2.682,1.731,1.731,0,0,0-1.7-1.372,2.537,2.537,0,0,0-.271.015,17.143,17.143,0,0,1-1.855.074h-.419c-14.829-.019-28.2-.038-41.71-.072h-.013c-.435,0-.636.049-.717.177s-.039.348.149.756c2.255,4.856,4.514,9.81,6.7,14.6l0,0,1.005,2.2c.532,1.165.8,1.75.639,2.157-.153.39-.692.614-1.766,1.061-.051,0-.1,0-.155,0a1.351,1.351,0,0,0-.32.025l-7.627,1.806-.435.1c-7.1,1.681-14.435,3.42-21.7,5.122a2.906,2.906,0,0,0-1.739,1.1c-3.954,5-8.087,8-13,9.462a10.047,10.047,0,0,0-5.3,3.923,10.977,10.977,0,0,0-2.008,6.284c0,.582.119.859.762.859h.024c2.354-.027,4.74-.03,7.047-.033l2.4,0,3.292.012h.059c6.478.024,13.176.048,19.763.064.072,0,.148.008.223.015s.158.016.236.016a.552.552,0,0,0,.519-.273h1.111a.609.609,0,0,0,.566.3,2.323,2.323,0,0,0,.313-.029h.006A2.154,2.154,0,0,1,225.164,186.38Zm-90.6-16.9c-1.469,0-2.954.013-4.414.038a3.64,3.64,0,0,0-3.709,3.733c-.044,2.865-.044,5.8,0,8.725a3.669,3.669,0,0,0,3.586,3.754c1.521.049,3.063.073,4.584.073,1.5,0,3.023-.024,4.521-.072a3.551,3.551,0,0,0,2.584-1.141,4.1,4.1,0,0,0,1-2.722c.014-1.025.01-2.066.006-3.073v-.041q0-.594,0-1.189c0-.448,0-.9,0-1.344,0-.971.01-1.971-.009-2.96a3.879,3.879,0,0,0-1.059-2.661,3.73,3.73,0,0,0-2.634-1.084C137.531,169.492,136.033,169.479,134.563,169.479Zm-47.8-6.969c-.187,0-.378.116-.657.4-3.31,3.358-6.782,6.832-10.32,10.327-.249.245-.415.453-.415.67a.985.985,0,0,0,.381.64c2.577,2.537,5.176,5.139,7.689,7.655q1.368,1.37,2.735,2.737c.112.112.229.221.354.336l.2.189c.071-.06.141-.117.209-.174l0,0a5.559,5.559,0,0,0,.422-.368q1.489-1.486,2.976-2.974c2.436-2.437,4.954-4.957,7.455-7.411a.957.957,0,0,0,.365-.626c0-.217-.149-.407-.426-.682-3.3-3.271-6.835-6.785-10.324-10.322C87.146,162.627,86.951,162.509,86.765,162.509ZM306.4,164.495a2.987,2.987,0,0,0-.785.116,17.555,17.555,0,0,0-3.338,1.294,16.98,16.98,0,0,0,2.971,1.978,2.4,2.4,0,0,0,1.142.332,1.749,1.749,0,0,0,1.26-.564,1.727,1.727,0,0,0,.315-2.181A1.67,1.67,0,0,0,306.4,164.495Zm-10.964-1.179h0a1.728,1.728,0,0,0-1.266.572,1.76,1.76,0,0,0-.238,2.3,1.665,1.665,0,0,0,1.494.86,2.772,2.772,0,0,0,.815-.135c.757-.235,1.5-.514,2.291-.81.354-.133.72-.27,1.1-.408a17.156,17.156,0,0,0-3.053-2.048,2.4,2.4,0,0,0-1.144-.33ZM171.191,102.769a9.64,9.64,0,0,0-5.944,2.019,13.509,13.509,0,0,0-3.315,3.525,12.464,12.464,0,0,0-1.741,4.282,13.789,13.789,0,0,0,1.635,9.5c5.02,9.053,10.177,18.228,15.164,27.1l.007.012.069.122c2.635,4.688,5.36,9.537,8.032,14.308.221.4.419.609.829.609a1.88,1.88,0,0,0,.37-.043c6.675-1.36,13.233-2.644,18.768-3.721.42-.082.622-.178.7-.331s.023-.382-.181-.774c-6.53-12.549-13.042-25.13-19.107-36.857a16.533,16.533,0,0,1-1.886-9.574q0-.039.009-.076a.78.78,0,0,0-.279-.854,3.121,3.121,0,0,1-1.342-2.176,3.183,3.183,0,0,1,1.041-2.386,11.5,11.5,0,0,1,2.248-1.715c.368-.235.747-.478,1.111-.739-.368.035-.743.076-1.1.116-.809.089-1.64.18-2.46.209-.069,0-.139,0-.206,0a2.218,2.218,0,0,1-2.481-1.84c-.175-.668-.5-.67-1-.671-2.292-.006-4.61-.021-6.851-.035l-2.014-.013Zm25.182,7.516a.37.37,0,0,0-.271.147l-.677.182-.048.013-1,.269c-.411.11-.825.225-1.225.336a24.217,24.217,0,0,1-6.379,1.17c-.832,0-1,.331-1.049,1.019a15.678,15.678,0,0,0,1.751,8.426c2.111,4.081,4.26,8.231,6.339,12.244l.111.215c4.83,9.324,9.824,18.966,14.714,28.469.326.633.647.88,1.145.88a2.559,2.559,0,0,0,.587-.083c11.185-2.679,21-5.009,30.02-7.124.474-.111.692-.223.778-.4s.038-.421-.152-.83c-1.14-2.444-2.273-4.941-3.368-7.356l-.009-.02c-2.341-5.162-4.762-10.5-7.4-15.635-.4-.775-.574-1.211-.43-1.446s.588-.275,1.417-.275h.106c2.137.007,4.3.02,6.4.033,3.236.019,6.578.039,9.865.039.833,0,1.653,0,2.436,0a20.675,20.675,0,0,0,8.154-1.62,20.377,20.377,0,0,0,6.777-4.832A11.162,11.162,0,0,0,268,115.813c-.011-.511-.114-.71-.367-.71a1.74,1.74,0,0,0-.552.15,12.025,12.025,0,0,1-4.109.723c-10.447.3-20.984.6-31.173.883l-1.309.037-14.365.406c-.171,0-.342.007-.508.007a10.3,10.3,0,0,1-6.512-1.935,4.2,4.2,0,0,0-2.684-.923,7.9,7.9,0,0,0-1.831.25,10.235,10.235,0,0,0-3.243,1.491c-1.126.727-2.335,1.5-3.544,2.226a7.582,7.582,0,0,1-3.117,1.153,3.409,3.409,0,0,1-.362.02,2.612,2.612,0,0,1-2.26-1.16,2.657,2.657,0,0,1-.111-2.579,9.028,9.028,0,0,1,.939-1.521,23.487,23.487,0,0,1,2.548-2.813c.285-.282.579-.573.865-.867a.374.374,0,0,1,.113-.088c.059-.036.114-.069.123-.119a.126.126,0,0,0-.036-.1A.162.162,0,0,0,196.373,110.285ZM67.841,1.177a16.549,16.549,0,0,0-3.99.4,12.682,12.682,0,0,0-7.165,4.6,13.545,13.545,0,0,0-2.664,8.3c-.007,16.189-.005,32.529,0,48.332v1.651q0,8.254,0,16.508,0,8.27,0,16.539V99.16c0,15.831,0,32.2,0,48.419A14.526,14.526,0,0,0,55,152.932a12.242,12.242,0,0,0,6.923,6.962,14.356,14.356,0,0,0,5.336.991c5.99.007,12.334.011,19.962.011q8.8,0,17.6,0l10.393,0a13.792,13.792,0,0,0,4.82-.777,12.578,12.578,0,0,0,6.218-4.823,14.275,14.275,0,0,0,2.225-7.93c0-34.728,0-70.052,0-104.213V14.571c0-.142,0-.289,0-.435a13.509,13.509,0,0,0-2.8-8.127,12.622,12.622,0,0,0-7.127-4.467,16.837,16.837,0,0,0-3.876-.367c-.509,0-1.021.01-1.517.02s-1.014.02-1.521.02c-.4,0-.755-.006-1.088-.019H110.5c-.427,0-.473.262-.521.54-.009.052-.018.1-.03.156a7.919,7.919,0,0,1-2.66,4.656A8.148,8.148,0,0,1,102.112,8.1c-6.573.049-13.748.114-21.935.2h-.108a7.239,7.239,0,0,1-7.617-6.462c-.008-.049-.013-.1-.019-.145-.029-.263-.054-.49-.431-.49h-.035c-.313.011-.643.016-1.01.016-.536,0-1.08-.011-1.56-.021-.51-.01-1.037-.021-1.556-.021ZM131.829,121.4a.645.645,0,0,0-.319.112,3.832,3.832,0,0,1-.742.314c-.5.173-.976.336-1.061.809a2.691,2.691,0,0,0,.41,1.546l.064.119q1.035,1.942,2.072,3.883c2.2,4.111,4.466,8.361,6.647,12.57.342.66.645.942,1.013.942a1.542,1.542,0,0,0,.9-.428,1.126,1.126,0,0,1,.316-.167c.412-.147.644-.319.728-.54.092-.241.019-.559-.238-1.032-1.844-3.4-3.694-6.87-5.483-10.226l0-.007c-1.181-2.216-2.52-4.728-3.811-7.129a1.465,1.465,0,0,1-.09-.246C132.161,121.675,132.076,121.4,131.829,121.4ZM12.459,131.679a3.8,3.8,0,0,0-3.79,3.76,3.784,3.784,0,0,0,3.763,3.822h.035a3.828,3.828,0,0,0,3.833-3.742,3.868,3.868,0,0,0-3.787-3.84Zm316.008-5.611h0a5.013,5.013,0,0,0-3.525,1.518,4.314,4.314,0,0,0-1.24,3.2,4.53,4.53,0,0,0,1.186,3.312,4.674,4.674,0,0,0,3.2,1.546c.11.007.222.01.331.01a4.787,4.787,0,0,0,4.893-4.446,4.873,4.873,0,0,0-4.573-5.135c-.09-.006-.183-.009-.276-.009Zm-97.143,5.646c.186.373.367.734.543,1.085l.011.021c.42.838.818,1.63,1.2,2.427a.607.607,0,0,0,.637.361c.047,0,.1,0,.143,0s.1,0,.143,0h7.919l12.668,0c8.466,0,15.295,0,21.492-.012,2.18,0,3.293-.88,3.843-3.029,3.475-13.6,7.179-28.111,10.9-42.78a4.327,4.327,0,0,0-.616-3.79,4.391,4.391,0,0,0-3.568-1.564c-.516,0-1.077,0-1.712,0l-1.912,0H282.7q-1.146,0-2.292,0c-1.684,0-2.98-.009-4.2-.031h-.082c-.851,0-1.085.252-1.088,1.173v.005c-.02,5.929-.043,12.649-.194,19.248a10.738,10.738,0,0,1-1.272,4.928,11.676,11.676,0,0,1-3.406,3.813,2.153,2.153,0,0,0-1,2.071,11.792,11.792,0,0,1-2.562,8.368,20.448,20.448,0,0,1-13.93,7.565,44.385,44.385,0,0,1-4.861.227c-1.107,0-2.233-.024-3.322-.047l-.081,0c-1.055-.023-2.145-.046-3.218-.046l-.5,0c-1.067.007-2.208.011-3.593.011l-2.819,0C233.31,131.715,232.326,131.713,231.324,131.713Zm86.389-7.064a4.8,4.8,0,0,0-.01,9.594h.039a4.795,4.795,0,0,0,3.414-8.173,4.833,4.833,0,0,0-3.389-1.421ZM6.059,109.5c-.22,0-.371.181-.528.454-.445.768-.911,1.538-1.363,2.282-.684,1.129-1.391,2.3-2.033,3.473a8.223,8.223,0,0,0,2.678,10.864c1.19.8,2.429,1.528,3.74,2.3.613.361,1.245.734,1.9,1.128-.033-.189-.06-.35-.083-.492-.044-.271-.076-.466-.125-.663-.673-2.707-1.282-5.15-1.918-7.63a.985.985,0,0,1,0-.719.543.543,0,0,1,.372-.225.689.689,0,0,1,.148-.017c.35,0,.477.327.556.646.143.588.3,1.212.49,1.966.4,1.58.8,3.159,1.224,4.82l.529,2.083c.392-.661.779-1.3,1.152-1.91l0,0c.806-1.325,1.568-2.576,2.253-3.866a8.231,8.231,0,0,0-2.705-10.77c-1.132-.756-2.326-1.46-3.48-2.141-.77-.454-1.564-.923-2.333-1.4A.931.931,0,0,0,6.059,109.5Zm318.719,12.358c-.066.557-.144,1.08-.22,1.585a21.027,21.027,0,0,0-.314,3.257,6.4,6.4,0,0,1,4-1.751c-.289-.212-.6-.408-.9-.6A6.271,6.271,0,0,1,324.779,121.856Zm-1.273.033a7.132,7.132,0,0,1-4.38,1.769,7.071,7.071,0,0,1,3.9,2.979c.051-.69.145-1.328.235-1.944A15.977,15.977,0,0,0,323.505,121.89Zm6.488-7.6h-.05a4.751,4.751,0,0,0-4.757,4.908,4.836,4.836,0,0,0,4.839,4.687h.057a4.8,4.8,0,1,0-.089-9.594Zm-10.729-1.4a4.83,4.83,0,0,0-3.4,1.387,4.712,4.712,0,0,0-.04,6.728,4.882,4.882,0,0,0,3.49,1.465,4.812,4.812,0,0,0,4.824-5,4.469,4.469,0,0,0-1.453-3.215A5.042,5.042,0,0,0,319.263,112.887ZM199.3,108.146a.505.505,0,0,1,.466.329c.23.447-.069.71-.358.964-.047.041-.093.082-.137.123-.324.3-.662.618-.96.895-.52.483-1.056.98-1.575,1.479a22.161,22.161,0,0,0-3.339,3.74l-.065.1c-.381.581-.813,1.239-.268,1.976a1.478,1.478,0,0,0,1.254.649,3.425,3.425,0,0,0,1.02-.19,16.4,16.4,0,0,0,4.585-2.535,11.625,11.625,0,0,1,6.848-2.415,12.119,12.119,0,0,1,5.21,1.269,7.581,7.581,0,0,0,2.994.765c.087,0,.176,0,.263,0a8.341,8.341,0,0,0,6.275-3.072,9.777,9.777,0,0,0,1.9-3.465,8.915,8.915,0,0,0,.291-4.038,9.643,9.643,0,0,0-10.066-8.617l-2.035,0H208.09c-.85-.075-1.752-.113-2.679-.113a47.574,47.574,0,0,0-7.431.648,49.609,49.609,0,0,0-12,3.118,9.872,9.872,0,0,0-3.151,1.911,1.5,1.5,0,0,0-.5,1.718,1.217,1.217,0,0,0,1.3.749c.06,0,.121,0,.188,0a19.049,19.049,0,0,0,2.14-.223c1.329-.209,2.679-.428,3.985-.64l.013,0,.013,0c1.357-.22,2.759-.448,4.14-.664.055-.008.111-.02.171-.031a2.192,2.192,0,0,1,.409-.054.491.491,0,0,1,.525.429c.146.587-.28.712-.692.832-.061.018-.122.036-.18.055a45.062,45.062,0,0,0-7.21,2.861,6.694,6.694,0,0,0-2.61,2.043,1.641,1.641,0,0,0-.252,1.6,1.613,1.613,0,0,0,1.339.856,7.092,7.092,0,0,0,.963.063,10.159,10.159,0,0,0,1.544-.128,47.443,47.443,0,0,0,6.164-1.451c.976-.286,1.962-.595,2.915-.893q.711-.223,1.424-.443c.066-.02.134-.045.2-.07A1.487,1.487,0,0,1,199.3,108.146Zm19.672,7.635c.83,0,1.691.006,2.525.012h.031c.872.006,1.773.012,2.678.012,1.221,0,2.233-.011,3.186-.036,13.311-.343,24.989-.67,35.7-1a11.186,11.186,0,0,0,7.5-3.008,9.861,9.861,0,0,0,2.216-3.225,10.866,10.866,0,0,0,.853-4.081c.177-9.087.244-18.63.2-29.174a9.575,9.575,0,0,0-2.875-6.7,10.248,10.248,0,0,0-6.67-3.048c-.356-.017-.635-.031-.869-.031-1.064,0-1.1.282-1.3,1.85a13.139,13.139,0,0,1-4.41,8.24,13.322,13.322,0,0,1-8.776,3.324h-.1a13.35,13.35,0,0,1-8.79-3.481,12.913,12.913,0,0,1-4.327-8.308c-.075-.759-.239-1.121-.965-1.121-.092,0-.192.005-.307.016-5.167.49-10.423.96-15.507,1.415q-3.163.283-6.326.568c-.761.069-1.506.15-2.37.243l-.02,0c-.427.046-.878.1-1.364.146l.908.542c.609.363,1.135.676,1.645.992l.09.054.011.007c.253.152.515.309.569.553a.616.616,0,0,1-.133.478.507.507,0,0,1-.419.268A1.169,1.169,0,0,1,211,71.06l0,0c-.053-.033-.1-.065-.154-.094-.509-.29-1.018-.607-1.51-.913a22.206,22.206,0,0,0-3.164-1.738c-6.325-2.617-12.771-5.216-19.005-7.73-2.111-.851-4.294-1.731-6.451-2.6l-.031-.015a.693.693,0,0,0-.275-.087.282.282,0,0,0-.235.142l.38.159c1.643,1.27,3.152,2.588,3.573,4.734.492,2.509-.472,5.846-2.455,8.5a9.7,9.7,0,0,1-6.7,4.164c-.354.034-.714.05-1.071.05a12.434,12.434,0,0,1-3.769-.6.547.547,0,0,0-.37-.152.817.817,0,0,0-.384.114l.529.268a8.086,8.086,0,0,0,2.284,1.273c4.92,2,9.925,4.03,14.766,5.994l.241.1c4.543,1.843,9.242,3.749,13.887,5.636a11.1,11.1,0,0,0,4.255.839c.334,0,.675-.015,1.014-.044,1.686-.144,3.393-.275,5.044-.4h.009c2.651-.2,5.393-.415,8.083-.682.694-.069,1.407-.109,2.1-.148a15.149,15.149,0,0,0,6.665-1.407,1.013,1.013,0,0,1,.346-.09,1.206,1.206,0,0,1,.163-.012.473.473,0,0,1,.512.352.533.533,0,0,1-.275.7l-.12.053c-.5.22-1.014.447-1.535.627-.572.2-.7.459-.508,1.036a34.941,34.941,0,0,1,.96,3.57c.112.505.328.684.826.684h.07c8.617-.245,15.585-.431,21.93-.586.674-.017.8-.318.787-.868-.016-.8,0-1.621.016-2.411.006-.312.012-.625.017-.938l.016-1.215v-.032c.019-1.473.038-3,.066-4.493,0-.06,0-.121,0-.187V82.6a1,1,0,0,1,.149-.722.536.536,0,0,1,.4-.136h.058c.589.029.586.5.583.925,0,.063,0,.124,0,.183,0,.178,0,.36,0,.536,0,.061,0,.121,0,.181-.01.709-.01,1.431-.011,2.129,0,1.618,0,3.289-.122,4.925a5.953,5.953,0,0,0,.255,2.508,3.932,3.932,0,0,0,1.547,1.939.9.9,0,0,1,.167.165c.027.031.054.063.082.092.295.3.548.656.194,1.038a.531.531,0,0,1-.389.2,1.01,1.01,0,0,1-.631-.377q-.187-.189-.377-.376c-.406-.4-.826-.82-1.206-1.258a1.756,1.756,0,0,0-1.457-.632l-.111,0c-4.006.121-8.06.229-11.981.334-3.293.088-6.7.179-10.067.278-2.742.08-5.523.185-8.212.286l-.076,0q-1.784.067-3.567.132a.482.482,0,0,0-.286-.1.714.714,0,0,0-.373.128.443.443,0,0,0,.391.186c.057,0,.116-.005.173-.011l.076-.007h0a10.346,10.346,0,0,1,5.55,3.365,12.176,12.176,0,0,1,2.515,5.87c.813,4.84-1.2,8.779-5.819,11.392Zm106.83-6.922.051,0a.56.56,0,0,1,.4.186.639.639,0,0,1,.123.478,12.646,12.646,0,0,1-.2,1.418.738.738,0,0,0,.049.605.462.462,0,0,0,.379.133,2.068,2.068,0,0,0,.34-.034,4.815,4.815,0,0,0,2.857-7.908,4.654,4.654,0,0,0-2.9-1.591,5.509,5.509,0,0,0-.73-.049,4.768,4.768,0,0,0-4.651,3.413,4.824,4.824,0,0,0,2.539,5.71,1.514,1.514,0,0,0,.611.188c.291,0,.431-.227.453-.736a8.312,8.312,0,0,1,.159-1.3C325.311,109.216,325.426,108.859,325.8,108.859Zm-321.616-3.6a.17.17,0,0,0-.08.025.155.155,0,0,0-.05.091.117.117,0,0,0,0,.082.525.525,0,0,0,.14.127c.022.016.045.032.066.049l0-.006,0-.005c.022-.064.044-.128.066-.194l-.015-.032C4.284,105.333,4.252,105.263,4.183,105.263ZM237.388,65.774a.555.555,0,0,0-.442.15c-.147.169-.105.457-.065.735.011.078.023.159.03.235a11.734,11.734,0,0,0,3.935,7.636,12.142,12.142,0,0,0,8.082,3.2h.028a12.251,12.251,0,0,0,11.931-9.777c.23-1.215.345-1.825.1-2.122-.2-.237-.62-.279-1.435-.279-.172,0-.36,0-.566,0h-.034c-.2,0-.4-.015-.6-.029l-.035,0c-.211-.016-.428-.032-.635-.032a1.944,1.944,0,0,0-.827.146c-.509.234-.519.772-.529,1.293a3.127,3.127,0,0,1-.072.749,8.645,8.645,0,0,1-8.481,6.49c-.184,0-.371-.005-.557-.016a8.544,8.544,0,0,1-7.893-7.515c-.107-.821-.453-.931-.778-.931a2.868,2.868,0,0,0-.421.044,2.9,2.9,0,0,1-.429.045,1.063,1.063,0,0,1-.117-.006A1.709,1.709,0,0,0,237.388,65.774Zm-80.047.026a9.82,9.82,0,0,1,7.833,3.494c.981,1.128,1.761,1.965,2.528,2.714a8.8,8.8,0,0,0,6.1,2.458,7.815,7.815,0,0,0,3.861-.987,10.7,10.7,0,0,0,4.534-5.4,8.208,8.208,0,0,0,.727-5.012,6.421,6.421,0,0,0-3.236-3.957c-.2-.123-.4-.26-.585-.392-.132-.093-.268-.188-.405-.278-2.975-1.963-6.122-3.756-9.165-5.49-2.573-1.466-5.234-2.982-7.779-4.595a6.57,6.57,0,0,0-1.751-.74,1.737,1.737,0,0,0-.454-.072.483.483,0,0,0-.43.179c-.114.169-.095.447.058.827a7.572,7.572,0,0,0,1.662,2.463c3.282,3.377,6.75,6.909,10.308,10.5a8.586,8.586,0,0,0,2.561,1.738l.133.059c.252.111.538.236.619.467a.6.6,0,0,1-.077.484.531.531,0,0,1-.468.345,1.328,1.328,0,0,1-.576-.207c-.07-.037-.135-.072-.2-.1a13.109,13.109,0,0,1-4.222-3.285c-1.935-2.11-3.966-4.174-6.209-6.31l-.263-.25c-1.794-1.705-3.649-3.469-4.536-5.921-.128-.35-.386-.4-.659-.458-.068-.014-.139-.028-.207-.047a39.624,39.624,0,0,0-6.8-1.316c-.831-.083-1.58-.151-2.335-.151a8.192,8.192,0,0,0-2.538.358,1.25,1.25,0,0,0-1.023,1.042,1.211,1.211,0,0,0,.765,1.239,11.914,11.914,0,0,0,1.853.818c1.551.492,3.131.98,4.659,1.453l.015,0c1.5.463,3.045.941,4.564,1.423.077.024.16.045.249.067.431.106.92.226.784.827a.54.54,0,0,1-.582.484,2.639,2.639,0,0,1-.481-.064c-.082-.016-.163-.032-.24-.043a66.767,66.767,0,0,0-8.1-.818c-.2-.005-.38-.008-.553-.008a9.422,9.422,0,0,0-3,.409c-.592.2-1.154.469-1.258,1.139-.112.724.476,1.09.949,1.383a13.3,13.3,0,0,0,3.677,1.377c2.146.563,4.368.919,6.518,1.263.677.108,1.375.22,2.064.337l.053.009c.391.065.8.132.787.641-.007.429-.375.539-.732.645l-.012,0-.517.155c-1.334.4-2.709.814-4.047,1.26a14.118,14.118,0,0,0-3.582,1.616c-.47.322-.919.692-.813,1.346a1.523,1.523,0,0,0,1.282,1.262,7.669,7.669,0,0,0,1.753.206,7.428,7.428,0,0,0,.746-.038l.593-.06c1.328-.134,2.7-.273,4.053-.414A14.874,14.874,0,0,1,157.341,65.8ZM74.663,1.262c-.488,0-.766.079-.9.257-.161.21-.115.551,0,1a6.007,6.007,0,0,0,6.178,4.525h.063L83.1,7.02h.206c3.392-.023,6.9-.046,10.35-.091.35,0,.715-.007,1.116-.007.634,0,1.261.006,1.955.012h.029c.637.006,1.3.011,1.944.011a47.843,47.843,0,0,0,5-.213,5.663,5.663,0,0,0,4.953-4.252c.168-.493.184-.78.056-.959s-.412-.26-.917-.26h-.046c-2.3.021-4.738.031-7.911.031q-2.154,0-4.307,0t-4.305,0q-2.14,0-4.28,0t-4.279,0c-3.2,0-5.655-.009-7.965-.029Z" fill="#001e35"/>
        </g>
      </g>
      <path id="Fill_4" data-name="Fill 4" d="M32.541,26a5.19,5.19,0,0,0-4.425,2.226,2.316,2.316,0,0,0-1.109.4c-4.409,2.134-8.8,4.309-13.229,6.4A9.433,9.433,0,0,1,1.766,31.982c.2-.6-.24-.915-.551-1.309-.245-.31-.781-.428-.688-.976a9.764,9.764,0,0,1,2.1-9.841c4.939-.013,9.879.009,14.818-.05a14.05,14.05,0,0,0,11.89-6.2,14.888,14.888,0,0,0,2.48-8.564L40.832.717c.565.479,1.018.051,1.5-.179C42.718.353,43.11.179,43.5,0a9.852,9.852,0,0,1,8.317,3.671A9.482,9.482,0,0,1,48.507,18.16c-4.717,2.4-9.513,4.645-14.272,6.964-.572.278-1.13.585-1.694.879" transform="translate(97.939 142.313)" fill="#f37777"/>
      <path id="Fill_6" data-name="Fill 6" d="M25.752,10.073q0,9.63,0,19.26a11.439,11.439,0,0,1-5.743.66l-1.435-.339a13.707,13.707,0,0,1-4.235-2.626c-3.526-3.05-7.095-6.05-10.633-9.085A10.116,10.116,0,0,1,10.248,0a9.793,9.793,0,0,1,6.267,2.313c2.684,2.255,5.341,4.544,8.015,6.812.392.333.813.632,1.221.946" transform="translate(27.017 91.88)" fill="#f37777"/>
      <path id="Fill_8" data-name="Fill 8" d="M21.573,4.084C28.38,2.748,35.191,1.429,41.989.052a1.111,1.111,0,0,1,1.465.722c1.245,2.46,1.28,2.456-.6,4.543a23.719,23.719,0,0,1-10.894,7.26,11.843,11.843,0,0,0-8.2,11.1c-.042.965-.336,1.147-1.234,1.137-7.15-.075-14.3-.1-21.452-.138-.357,0-.713-.046-1.069-.071.085-4.73,2.651-7.921,6.463-10.325A16.869,16.869,0,0,1,10.4,12.6,21.994,21.994,0,0,0,21.573,4.084" transform="translate(163.628 161.511)" fill="#f37777"/>
      <path id="Fill_10" data-name="Fill 10" d="M13.464,21.551a18.558,18.558,0,0,1-2.656-.2,3.665,3.665,0,0,1-.375-.123,2.017,2.017,0,0,0-.694-.166,1.043,1.043,0,0,0-.156.012A14.335,14.335,0,0,1,3.614,17.31,13.7,13.7,0,0,1,.421,11.042L.4,10.957A7.109,7.109,0,0,1,.284,6.725l.709-.62.709-.62a13.05,13.05,0,0,1,6.842-2.15,12.352,12.352,0,0,1,7.544,2.831.872.872,0,0,0,.476.238c.147,0,.264-.111.4-.382.747-1.452,1.517-2.924,2.262-4.347l0,0L20.106,0a1.076,1.076,0,0,0,.214.793.649.649,0,0,0,.487.171A1.477,1.477,0,0,0,21,.95c.532,2.287,1.112,4.3,2.83,5.776a.849.849,0,0,0-.228.791.957.957,0,0,0,.741.515c1.246.3,1.443,1.087,1.357,2.179-.067.851-.057,1.722-.047,2.564,0,.366.009.744.007,1.117a15.587,15.587,0,0,1-5.145,5.718A12.952,12.952,0,0,1,13.464,21.551ZM5.6,5.5H5.554c-.534.027-.575.408-.572.865a3.105,3.105,0,0,0,.991,2.249,3.441,3.441,0,0,0,2.374.925,3.924,3.924,0,0,0,3.832-3l.009-.049c.086-.448.194-1.006-.391-1.172a.9.9,0,0,0-.241-.038c-.374,0-.447.353-.518.694-.015.075-.031.152-.05.224A2.723,2.723,0,0,1,8.333,8.335H8.321c-1.141,0-1.712-.583-2.105-2.135C6.133,5.872,6.039,5.5,5.6,5.5Z" transform="translate(229.48 39.468)" fill="#f37777"/>
      <path id="Fill_12" data-name="Fill 12" d="M12.151,20.651a2.361,2.361,0,0,0-1.117.193C4.9,20.573,1.073,16.8.692,10.715.569,8.738.276,6.771.07,4.8.025,4.364.005,3.925,0,3.488A1.845,1.845,0,0,1,1.118,1.672a1.873,1.873,0,0,1,2.117.3c.215.175.4.386.6.58C3.2,2.844,3.361,3.4,3.411,3.9q.315,3.14.652,6.277c.051.476-.105,1.2.695,1.1.67-.09.449-.724.406-1.176C4.963,8,4.748,5.91,4.547,3.815c-.046-.477-.037-.965-.5-1.273A1.686,1.686,0,0,1,5.722,1.105,1.544,1.544,0,0,1,7.507,2.178a2.559,2.559,0,0,0-.195.794c.208,2.375.441,4.749.681,7.121.04.393.1.876.637.843.559-.035.513-.522.476-.916C8.878,7.647,8.633,5.275,8.4,2.9a.815.815,0,0,0-.5-.743c1.012-1.793,2.411-1.939,3.63-.38-.1.211-.287.431-.27.632.221,2.533.47,5.065.721,7.6.036.36.239.618.632.536.465-.1.455-.475.42-.85-.136-1.464-.177-2.945-.43-4.388-.208-1.189.163-2.5-.67-3.566a1.761,1.761,0,0,1,1.7-1.407,1.584,1.584,0,0,1,1.763,1.1,1.57,1.57,0,0,0-.21,1.247c.221,2.127.424,4.256.642,6.383.047.452-.036,1.094.642,1.065.715-.031.532-.665.49-1.112C16.753,6.8,16.517,4.6,16.3,2.392c-.04-.411-.09-.792-.515-.992A1.83,1.83,0,0,1,18.1.044c1.072.175,1.472.96,1.56,1.965.247,2.845.7,5.674.75,8.534a9.661,9.661,0,0,1-8.261,10.108" transform="translate(25.218 149.935)" fill="#f37777"/>
      <path id="Fill_14" data-name="Fill 14" d="M25.572,12.237c-4.251-.493-6.844,1.172-8.829,5.669.016-2.229.048-4.457.04-6.685a1.926,1.926,0,0,0-2.027-2.165C10.168,9.005,5.585,8.665.994,8.775A1.565,1.565,0,0,1,0,8.218a13.3,13.3,0,0,1,24.38-.452,12.607,12.607,0,0,1,1.192,4.471" transform="translate(232.904 20.901)" fill="#f37777"/>
      <path id="Fill_16" data-name="Fill 16" d="M9.533,0l1.435.339a92.838,92.838,0,0,0,5.748,8.049l-.007,10.006q-7.45.357-14.9.712c-.358.017-.718-.008-1.075.017-.772.056-.9-.18-.536-.879,1.335-2.531,2.618-5.09,3.932-7.632C5.845,7.294,7.575,3.982,9.292.665A5.3,5.3,0,0,0,9.533,0" transform="translate(36.058 121.534)" fill="#f37777"/>
      <path id="Fill_18" data-name="Fill 18" d="M12.073,6.583h-.058c-.994-.02-2-.114-2.977-.2-.43-.04-.873-.081-1.31-.115A1.5,1.5,0,0,0,6.993,6.1c-.109,0-.221.006-.328.011-.091,0-.183.01-.274.011L5.272,5.977c-.836-.112-1.7-.228-2.553-.328A3.11,3.11,0,0,1,.566,4.542,2.836,2.836,0,0,1,2.953,0a3.616,3.616,0,0,1,.386.021C4.707.169,6.1.316,7.441.458l.016,0C8.8.6,10.182.747,11.543.895A6.91,6.91,0,0,1,12.72,1.1a2.753,2.753,0,0,1,2.008,3.111A2.674,2.674,0,0,1,12.073,6.583ZM10.8,4.219h0l.2.025c.13.016.263.033.394.053l.073.011a2.863,2.863,0,0,0,.437.047.5.5,0,0,0,.566-.453.57.57,0,0,0-.075-.463.963.963,0,0,0-.7-.219c-.07,0-.136-.009-.2-.016C8.759,2.9,6.092,2.6,3.424,2.319c-.055-.006-.113-.014-.173-.022a2.988,2.988,0,0,0-.4-.036.508.508,0,0,0-.582.513.545.545,0,0,0,.1.417,1.146,1.146,0,0,0,.78.247l.164.015c1.806.2,3.642.385,5.418.567l2.055.212a.065.065,0,0,0,0-.007V4.22Z" transform="translate(294.682 151.989)" fill="#f37777"/>
      <path id="Fill_20" data-name="Fill 20" d="M3.14,0a1.565,1.565,0,0,0,.994.557,13.6,13.6,0,0,0-.8,6.071c.057.594.083,1.063.91,1.038.617-.019.989.449,1.1,1.064a1.257,1.257,0,0,1-.562,1.341c-2.047,1.387-2.837,3.5-3.363,5.765L0,17.074A11.913,11.913,0,0,1,2.395,10.7,1.533,1.533,0,0,0,2.65,9.2,13.363,13.363,0,0,1,3.14,0" transform="translate(229.764 29.119)" fill="#001e35"/>
      <path id="Fill_22" data-name="Fill 22" d="M.675,0c.833,1.07.461,2.377.67,3.566.253,1.443.294,2.924.43,4.388.035.375.045.754-.42.85-.394.081-.6-.176-.632-.537C.472,5.737.223,3.206,0,.672-.016.471.176.252.271.041L.675,0" transform="translate(36.481 151.674)" fill="#001e35"/>
      <path id="Fill_24" data-name="Fill 24" d="M.594,0a.814.814,0,0,1,.5.743c.228,2.373.473,4.745.7,7.118.038.394.083.881-.476.916-.534.033-.6-.45-.637-.843C.444,5.562.211,3.189,0,.813A2.566,2.566,0,0,1,.2.019L.594,0" transform="translate(32.528 152.094)" fill="#001e35"/>
      <path id="Fill_26" data-name="Fill 26" d="M.69,0c.464.308.455.8.5,1.273.2,2.094.416,4.187.617,6.281.043.452.264,1.086-.406,1.176-.8.107-.643-.621-.695-1.1Q.369,4.495.055,1.355C0,.853-.154.3.48.009Q.585.009.69,0" transform="translate(28.574 152.478)" fill="#001e35"/>
      <path id="Fill_28" data-name="Fill 28" d="M.633,0c.424.2.475.581.515.993.213,2.207.449,4.413.659,6.621.042.447.225,1.081-.49,1.112C.64,8.755.722,8.113.676,7.66.457,5.533.255,3.4.034,1.277A1.571,1.571,0,0,1,.243.03L.633,0" transform="translate(40.374 151.335)" fill="#001e35"/>
      <path id="Fill_30" data-name="Fill 30" d="M0,.039,2.572,0,2.114.361C1.452,0,.7.22.011.018L0,.039" transform="translate(328.268 124.925)" fill="#f37777"/>
      <path id="Fill_32" data-name="Fill 32" d="M52.282,0c.134,1.784.332,3.566.389,5.352q.356,10.991.344,21.99c0,.906-.271,1.14-1.155,1.136-5.474-.029-10.948,0-16.422,0l-1.11,0q-11.651-.008-23.3-.014a1.013,1.013,0,0,0-.79.18c-3.151.008-6.3,0-9.453.038C.116,28.7,0,28.407,0,27.83A10.74,10.74,0,0,1,7.306,17.621c5.518-1.636,9.558-5.106,13-9.461a2.886,2.886,0,0,1,1.738-1.1Q36.934,3.567,51.808.027A2.656,2.656,0,0,1,52.282,0" transform="translate(188.546 157.651)" fill="#f37777"/>
      <path id="Fill_34" data-name="Fill 34" d="M.66.1A.227.227,0,0,1,.642.3C.412.315.174.368,0,.128A.545.545,0,0,1,.66.1" transform="translate(216.073 94.857)" fill="#f37777"/>
      <path id="Fill_36" data-name="Fill 36" d="M3.365,4.256A3.274,3.274,0,0,1,0,1.082C0,.666.02.245.572.217c.464-.024.568.331.661.7.394,1.556.967,2.13,2.105,2.135A2.709,2.709,0,0,0,6.006.918c.121-.46.112-1.078.809-.88.607.172.47.759.381,1.221a3.907,3.907,0,0,1-3.832,3" transform="translate(234.462 44.753)" fill="#001e35"/>
      <path id="Fill_38" data-name="Fill 38" d="M16.553,33.627a1.678,1.678,0,0,1-1.234-.733c-1.272-1.531-2.284-2.814-3.185-4.037a1.756,1.756,0,0,0-1.54-.844c-.048,0-.1,0-.148,0-.477.025-.874.037-1.247.037a10.529,10.529,0,0,1-2.8-.326A8.5,8.5,0,0,1,.034,19.576C-.013,15.415-.011,11.74.04,8.341A8.394,8.394,0,0,1,8.144.052C9.1.02,10.128.005,11.367.005c.883,0,1.777.008,2.641.015s1.762.015,2.642.015V.008h.422q.958,0,1.918,0h.023q1.159,0,2.318,0c1.052,0,1.925,0,2.748.012a9.109,9.109,0,0,1,6.562,2.531,9.154,9.154,0,0,1,2.474,6.594c.008,3.672.013,6.734,0,9.921a9.157,9.157,0,0,1-2.451,6.4A8.6,8.6,0,0,1,24.4,27.983c-.088,0-.174,0-.261,0l-.232,0a4.02,4.02,0,0,0-3.89,2.067,18.833,18.833,0,0,1-1.734,2.272c-.155.183-.314.371-.468.556A1.72,1.72,0,0,1,16.553,33.627ZM12.657,7.7A4.255,4.255,0,0,0,8.6,10.1a4.1,4.1,0,0,0,.522,4.7c1.8,2.088,3.675,4.132,5.6,6.217a2.571,2.571,0,0,0,1.843.978A2.574,2.574,0,0,0,18.422,21c1.288-1.4,2.581-2.848,3.832-4.245q.767-.857,1.531-1.708a4.325,4.325,0,0,0,1.185-2.677,4.431,4.431,0,0,0-2.382-4.226,4.733,4.733,0,0,0-2.115-.5A3.755,3.755,0,0,0,17.69,8.772c-.461.49-.815.708-1.149.708s-.678-.22-1.143-.734a3.322,3.322,0,0,0-2.473-1.052l-.144,0Z" transform="translate(63.768 33.651)" fill="#f37777"/>
      <path id="Fill_40" data-name="Fill 40" d="M16.5,33.582a1.819,1.819,0,0,1-1.372-.833c-.284-.358-.575-.719-.856-1.069l0-.006c-.7-.869-1.421-1.768-2.094-2.679A2.177,2.177,0,0,0,10.3,27.987c-.08,0-.165,0-.25.01-.37.029-.735.043-1.084.043A8.63,8.63,0,0,1,2.31,25.332,7.859,7.859,0,0,1,.018,19.856c0-1.057-.005-2.131-.009-3.17V16.68C0,13.922-.01,11.071.026,8.266a8.253,8.253,0,0,1,2.5-5.81A8.486,8.486,0,0,1,8.408.014C9.344,0,10.35,0,11.573,0q1.2,0,2.391,0c.965,0,1.812,0,2.588,0h7.067a9.686,9.686,0,0,1,6.795,2.353,9.194,9.194,0,0,1,2.647,6.617,99.836,99.836,0,0,1-.122,11.456,8.5,8.5,0,0,1-2.516,5.2,7.448,7.448,0,0,1-5.207,2.285c-.079,0-.159,0-.238,0-.145-.005-.289-.008-.427-.008a5.232,5.232,0,0,0-5.139,2.857,9.315,9.315,0,0,1-1.075,1.438c-.152.178-.309.362-.456.546A1.838,1.838,0,0,1,16.5,33.582ZM12.875,7.672a4.577,4.577,0,0,0-4.4,2.561,4.16,4.16,0,0,0,.665,4.684c2.009,2.308,4.056,4.529,5.616,6.207a2.4,2.4,0,0,0,1.742.89,2.483,2.483,0,0,0,1.78-.919c1.851-2,3.631-3.97,5.291-5.855,1.835-2.083,1.806-4.655-.071-6.4a4.221,4.221,0,0,0-2.907-1.18A4.841,4.841,0,0,0,17.1,9.275c-.261.274-.455.4-.631.4-.207,0-.4-.171-.631-.447a4.192,4.192,0,0,0-2.961-1.552Z" transform="translate(86.301 81.801)" fill="#f37777"/>
      <path id="Fill_42" data-name="Fill 42" d="M33.554,0a4.241,4.241,0,0,1,1.36,4.785,4.264,4.264,0,0,1-3.98,3.06c-4.3.027-8.608.011-12.913.012-4.743,0-9.485.009-14.228-.006A3.679,3.679,0,0,1,0,5.245a9.827,9.827,0,0,0,2.305.53c8.927-.011,17.854.01,26.781-.016a4.434,4.434,0,0,0,4.429-3.624A12.386,12.386,0,0,0,33.554,0" transform="translate(75.065 137.573)" fill="#f37777"/>
      <path id="Fill_44" data-name="Fill 44" d="M4.48,9.16H4.474A5.2,5.2,0,0,1,2.91,8.842c-.236-.074-.479-.151-.724-.209l-.125-.111-.126-.111a4.914,4.914,0,0,1-1.9-3.2A4.674,4.674,0,0,1,1.151,1.529,4.61,4.61,0,0,1,4.636.019C8.513.006,12.62,0,17.191,0c4.962,0,9.8.007,13.88.014a4.636,4.636,0,0,1,4.51,3.119c-.014.111-.007.228.148.256,0,.222.006.45.014.67a6.739,6.739,0,0,1-.053,1.462,4.436,4.436,0,0,1-4.429,3.623c-4.047.012-8.1.013-11.54.013H12.176C9.314,9.157,6.91,9.157,4.48,9.16ZM10.359.935c-2.085,0-3.792,0-5.372,0C2.591.942.952,2.377.908,4.51A3.6,3.6,0,0,0,1.9,7.13,4.183,4.183,0,0,0,4.931,8.3c4.477.012,8.847.018,12.988.018,4.441,0,8.811-.007,12.988-.021a4.085,4.085,0,0,0,2.93-1.129,3.626,3.626,0,0,0,1.021-2.6C34.847,2.4,33.234.944,30.844.94c-1.6,0-3.346,0-5.489,0h-15Z" transform="translate(72.891 134.189)" fill="#001e35"/>
      <path id="Fill_46" data-name="Fill 46" d="M.2.257C.045.235.026.128.043,0L.2.257" transform="translate(108.429 137.322)" fill="#f37777"/>
      <path id="Fill_48" data-name="Fill 48" d="M0,.008.253.229C.083.252.032.141,0,.008" transform="translate(74.825 142.591)" fill="#f37777"/>
      <path id="Fill_50" data-name="Fill 50" d="M1.3,5.582a8.372,8.372,0,0,0,2.31-.063c.5-.031,1.068-.073,1.12.561.049.594-.508.6-.953.625-.916.058-1.832.1-2.746.182-.772.068-1.15-.2-1-1.017Q.507,3.291.978.711c.079-.434.258-.813.766-.686S2.226.589,2.15,1c-.281,1.52-.563,3.039-.849,4.579" transform="translate(235.711 35.7)" fill="#001e35"/>
      <path id="Fill_52" data-name="Fill 52" d="M1.231,0A1.266,1.266,0,0,1,2.648,1.309,1.243,1.243,0,0,1,1.312,2.664,1.215,1.215,0,0,1,0,1.412,1.235,1.235,0,0,1,1.231,0" transform="translate(241.881 36.787)" fill="#001e35"/>
      <path id="Fill_54" data-name="Fill 54" d="M8.9,1.423q-3.893,0-7.786,0C.653,1.42.031,1.564,0,.868S.589.252,1.057.245Q8.783.126,16.51.018C17,.012,17.694-.15,17.681.629c-.012.674-.651.559-1.115.56q-3.833.009-7.666,0v.232" transform="translate(82.537 3.36)" fill="#001e35"/>
      <path id="Fill_56" data-name="Fill 56" d="M2.324,2.212c1.086.405,1.9.707,2.712,1.013.4.151.755.37.524.867-.183.394-.525.4-.914.255Q2.589,3.57.518,2.83A.656.656,0,0,1,0,2.253a.639.639,0,0,1,.476-.616C1.8,1.109,3.133.6,4.458.069a.553.553,0,0,1,.8.266c.2.418-.023.672-.4.829-.764.318-1.529.634-2.532,1.048" transform="translate(254.275 38.355)" fill="#001e35"/>
      <path id="Fill_58" data-name="Fill 58" d="M8.467,14.347a2.571,2.571,0,0,1-1.843-.978C4.617,11.2,2.81,9.231,1.022,7.152A4.1,4.1,0,0,1,.5,2.452,4.252,4.252,0,0,1,4.551.05h.127l.147,0A3.315,3.315,0,0,1,7.294,1.1c.465.515.807.735,1.143.735s.689-.218,1.149-.708A3.757,3.757,0,0,1,12.37,0a4.729,4.729,0,0,1,2.115.5,4.434,4.434,0,0,1,2.383,4.225,4.34,4.34,0,0,1-1.185,2.678q-.784.872-1.565,1.745c-1.239,1.383-2.521,2.814-3.8,4.206A2.576,2.576,0,0,1,8.467,14.347ZM4.506,1.183h-.1A3.072,3.072,0,0,0,1.536,2.968a3.01,3.01,0,0,0,.379,3.463c1.417,1.63,2.9,3.25,4.333,4.817l0,0q.673.736,1.345,1.473a1.224,1.224,0,0,0,.876.466,1.062,1.062,0,0,0,.782-.4l.959-1.05c1.64-1.794,3.337-3.65,4.918-5.547a2.847,2.847,0,0,0,.088-3.47,3.052,3.052,0,0,0-2.766-1.532c-.124,0-.252.005-.381.016A4.09,4.09,0,0,0,9.425,2.883c-.473.521-.734.808-.989.808s-.5-.275-1-.848A3.863,3.863,0,0,0,4.506,1.183Z" transform="translate(71.871 41.298)" fill="#001e35"/>
      <path id="Fill_60" data-name="Fill 60" d="M8.46,14.353a2.4,2.4,0,0,1-1.743-.89C5.042,11.661,3.065,9.514,1.1,7.257A4.162,4.162,0,0,1,.437,2.572a4.577,4.577,0,0,1,4.4-2.56h.006A4.187,4.187,0,0,1,7.807,1.563c.236.276.424.447.631.447.176,0,.37-.122.631-.4A4.84,4.84,0,0,1,12.553,0,4.222,4.222,0,0,1,15.46,1.179c1.877,1.745,1.906,4.317.071,6.4-1.656,1.881-3.437,3.851-5.291,5.856A2.486,2.486,0,0,1,8.46,14.353ZM4.53,1.178h-.1A3.1,3.1,0,0,0,1.545,2.956,2.936,2.936,0,0,0,1.91,6.413C3.313,8.034,4.782,9.645,6.2,11.2l.006.006q.687.753,1.372,1.507a1.252,1.252,0,0,0,.9.477,1.036,1.036,0,0,0,.765-.385l.42-.458c1.82-1.987,3.7-4.04,5.461-6.136A2.83,2.83,0,0,0,15.3,2.85a3.127,3.127,0,0,0-2.9-1.67h-.056A3.913,3.913,0,0,0,9.455,2.854c-.481.537-.745.817-1,.817s-.52-.281-1-.818A3.917,3.917,0,0,0,4.53,1.178Z" transform="translate(94.336 89.462)" fill="#001e35"/>
    </g>
  </g>
</svg>
