<svg xmlns="http://www.w3.org/2000/svg" width="748.599" height="378.022" viewBox="0 0 748.599 378.022">
  <g id="Grupo_13" data-name="Grupo 13" transform="translate(-81.095 -282.758)">
    <path id="Trazado_517" data-name="Trazado 517" d="M256.461,317.64c-5.338-11.009-14.674-16.442-26.845-16.678q-15.715-.3-31.441.015c-9.59.208-17.82,3.534-23.513,11.731-7.393,9.21-8.145,19.482-3.616,29.875,4.51,10.347,12.854,16.545,24.316,17.092,11.109.53,22.26.235,33.393.17,3.29-.019,6.238.562,8.707,2.841a32.311,32.311,0,0,0,6.055,7.1c1.035,1.764,2.187,3.627,4.588,2.946,2.562-.727,2.02-3.116,2.072-5.034.075-2.823.053-5.65.011-8.475-.054-3.678.177-7.056,2.689-10.277C260.374,339.339,261.794,328.637,256.461,317.64ZM247.838,365.4c.1,1.609.014,3.23.014,4.833-1.839.257-2.018-1.424-3.09-1.7a31.738,31.738,0,0,0-6.062-7.088c-2.131-3.027-5.2-3.778-8.695-3.755-9.474.06-19.005-.64-28.412.161-23.769,2.025-39.732-22.565-25.783-43.89,6.987-8.209,15.968-11.239,26.587-10.806,9.954.4,19.972-.294,29.89.451,20.109,1.511,31.778,23.4,21.039,40.338A33.931,33.931,0,0,0,247.838,365.4Z" fill="#383a47"/>
    <path id="Trazado_518" data-name="Trazado 518" d="M221.612,327.986c-2.962,1.535-4.707.91-7.036-.6-6.959-4.508-14-8.892-21.028-13.293-1.1-.688-2.268-1.564-3.626-.477-.672.539-1.43,1.458-.856,2.092,2.018,2.228.5,3.879-.629,5.648-.755,1.179-1.391,2.431.045,3.489,1.527,1.124,2.408-.054,3.2-1.168a25.885,25.885,0,0,0,1.646-2.486c.71-1.284,1.608-.826,2.461-.306s1.73,1.1.922,2.341c-.633.97-1.265,1.947-1.8,2.972-.585,1.124-.673,2.379.493,3.11a1.917,1.917,0,0,0,2.874-1.088c1.962-5,4.7-3.033,7.558-1.017,1.489,1.049,3.051,2,4.622,2.928,3.152,1.859,5.692,3.5,5.548,8.218-.156,5.143,5.28,8.753,10.506,8.283A10.058,10.058,0,0,0,235.551,337C235.709,329.877,228.061,324.645,221.612,327.986Zm4.251,14.751c-3.78-.356-5.969-2.264-6.076-5.7-.116-3.732,2.225-6,5.856-6.035a5.417,5.417,0,0,1,5.8,5.6C231.555,340.341,229.173,342.231,225.863,342.737Z" fill="#f37777"/>
    <g id="Grupo_12" data-name="Grupo 12">
      <path id="Trazado_519" data-name="Trazado 519" d="M288.721,441.5c8.646,5.224,17.345,10.365,25.909,15.721,2.737,1.711,4.938,2.616,8.033.48,4.611-3.182,8.8-1.666,12.3,2.3.827.629,1.918.945,2.389,2.006,2.261,6.4,7.267,11.479,8.767,18.242-.185,1.8-1.365,2.973-2.658,4.024-20.006,16.256-39.654,32.947-59.829,49a10.2,10.2,0,0,1-3.886,2.12c-10.9,4.9-21.007,11.259-31.478,16.943-7.859,4.266-15.831,8.345-23.449,13.059-13.141,6.324-26.347,3.167-33.239-8.186-4.675-7.7-4.468-15.891-.843-23.855,3.986-8.757,8.467-17.288,12.872-25.849a7.138,7.138,0,0,1,2.268-2.181l21.882-43.085c1.519-1.34,3.177-.507,4.754-.233,13.123,2.282,21.092-3.7,26.064-12.12,1.8-3.047,3.75-4.8,7.368-4.818a9.211,9.211,0,0,0,9.208-6.343c1.261-3.4,3.29-3.366,5.785-1.69,9.93,6.671,15.244,16.305,17.507,27.783.743,3.769-.434,6.492-4.212,8.525-7.448,4.008-14.926,7.989-22.186,12.35-1.542.926-3.353,2.14-5.081.792-1.981-1.544-.323-3.294.269-4.923a24.2,24.2,0,0,0,1.67-5.086c-2.153,11.878-10.154,18.236-18.313,21.073,16.317-9.331,35.319-19.257,53.8-30.117-4.887,2.242-4.883,2.2-5.893-2.935a43.226,43.226,0,0,0-7.526-17.678C289.8,445.222,288.427,443.713,288.721,441.5Z" fill="#f37777"/>
      <path id="Trazado_520" data-name="Trazado 520" d="M205.88,505.318q-.534,1.039-1.066,2.079c-1.884,1.381-4.08,1.235-6.233,1.244-7.477.034-14.956-.1-22.43.052-8.382.175-11.333,3.685-9.276,11.77,5.444,21.393,12.009,42.478,17.94,63.739,1.005,3.6,3.386,4.421,6.745,4.412,14.276-.035,28.553-.115,42.665.038-7.241-4.5-10.638-11.408-11.588-19.669-.206-1.789.236-3.876,3.077-3.163,1.825,1.936,1.873,4.55,2.6,6.9,2.777,8.928,9.938,15.437,19.209,15.606,16.084.293,32.209,1.253,48.27-.73a78.134,78.134,0,0,0,18.287-4.721c2.007-.764,3.941-1.808,6.174-1.822,1.143.136,2.2.406,2.516,1.732-3.6,5.309-9.55,5.3-15.893,6.9,6.944-1.556,13-1.058,19.022-.98,6.054.079,11.824-1.246,17.639-2.6,3.32-.774,4.68-2.655,4.57-6-.1-2.994-.895-5.9-.981-8.874-.057-1.966-1.378-2.426-2.946-2.685a1.928,1.928,0,0,1-1.14-1.982c3.675-5.506,9.313-8.838,14.336-12.837.81-.645,2.157-1.334,3.138-.175,1.037,1.225.4,2.486-.4,3.625a2.4,2.4,0,0,1-.655.746c-7.191,4.208-7.52,10.62-6.71,18.066.785,7.227.26,14.6.143,21.909-.064,4,1.5,6.014,5.578,5.59,12.906-1.341,25.913-.329,38.814-1.673,3.489-.364,6.976-.257,10.465-.306,2.741-.038,3.734-1.173,3.564-4.016-1.435-24.007-2.622-48.028-4.14-72.033-.512-8.1-1.2-16.215-1.274-24.352-.084-8.909-2.114-17.124-8.8-23.606a6.39,6.39,0,0,1-2.178-3.827c.135-.962.423-1.748,1.661-1.432,5.655,3.739,9.007,9.161,10.961,15.466.766,2.471,1.873,3.06,4.288,2.295,3.473-1.1,7.015-2,10.566-2.824,12.333-2.857,23.176.061,31.813,9.3,8.6,9.2,11.3,20.223,7.28,32.27-9.021,27.005-18.336,53.911-27.537,80.856-.586,1.716-1,3.653-3.536,3.293-7.418.131-14.182-2.742-21.376-4.1,1.424,11.716,5.865,21.543,18.921,25.228a17.852,17.852,0,0,1,4.588,1.858l.436.116c6.985,1.069,11.685,5.224,13.461,11.758,1.518,5.582,3.742,9.547,9.992,9.975h52.908c.272-1.359-1.065-1.444-1.722-1.955a25.429,25.429,0,0,1-10.336-21.1q0-163.066.026-326.133c.007-15.051,10.812-25.741,25.827-25.753q77.133-.063,154.266-.005c14.811.009,25.142,9.726,26.142,24.458.124,1.821.07,3.655.07,5.483q0,158.33.09,316.658c.016,11.387-2.093,21.338-13.425,28.332h57.23c-2.965-8.589-5.872-16.856-8.653-25.165-.719-2.148-1.682-1.442-2.844-.588-.827.427-1.273-.095-1.7-.671-.436-.676-.785-1.508-1.622-1.73-2.394-.635-4.814-.872-7.034.53a1.938,1.938,0,0,0-.625,2.6c1.359,2.83,4.018,1.232,6.083,1.685.69.328,1.244.728.839,1.62-2.563,2.832-5.534,2.759-8.378.741a5.693,5.693,0,0,1-2.187-7c1.26-3.433,3.95-4.622,7.447-4.419,7.566.438,7.567.426,5.1-6.7q-.966-2.794-1.941-5.587c1.43-2.435,2.05-.893,2.69.547,1.785,3.736,1.152,8.567,5.136,11.3.756-.4,1.3.016,1.852.455,1.855,1.776,4.238,1.528,6.478,1.526,1.922,0,3.751-.757,3.59-3.065-.145-2.067-1.914-2.378-3.664-2.331a9.32,9.32,0,0,1-2.435-.035c-.681-.334-1.23-.736-.815-1.62,2.648-2.821,5.629-2.669,8.414-.493a5.687,5.687,0,0,1,1.921,7.108c-1.33,3.245-3.889,4.317-7.168,4.2-2.443-.084-4.825-1.2-7.652-.436,3.006,8.693,5.969,17.276,8.944,25.856A2.7,2.7,0,0,0,751.77,658c9.795,1.542,11.824.275,12.774-9.107,1.922-18.974,3.661-37.966,5.475-56.95-.208-1.367-.111-2.99,1.515-2.893,1.293.077,1.958,1.517,1.326,3.012-1.3,11.545-2.641,23.086-3.89,34.637-.981,9.083-1.754,18.189-2.826,27.26-.333,2.816-.2,4.176,3.3,4.077,9.07-.256,18.151-.086,28.073-.086-1.983-3.6-3.574-6.443-5.117-9.313-.528-.982-1.42-2.213.066-2.964,1.1-.554,1.75.585,2.258,1.43.821,1.367,1.583,2.769,2.568,4.505,1.108-2.175.481-3.968.626-5.682.1-1.158-.081-2.7,1.373-2.8,1.583-.1,1.467,1.466,1.488,2.6.034,1.825.009,3.651.009,5.783,1.912-.843,2.038-2.668,2.954-3.871.736-.967,1.11-3.009,2.708-2.03,1.388.85.24,2.371-.371,3.536-1.438,2.741-2.86,5.49-4.584,8.8,8.77,0,16.874-.017,24.977.018,1.243.005,3.219-.445,3.221,1.329s-1.977,1.322-3.216,1.326c-10.817.033-21.633.014-32.45.02q-128.8.069-257.607.132-224.658-.018-449.315-.168c-2.006,0-4.322.82-6.011-1.145,1.272-2.321,3.33-1.468,5.019-1.477,12.98-.065,25.963-.17,38.94.05,3.657.061,3.984-1.121,3.394-4.28-2.1-11.256-3.938-22.562-5.874-33.848.232-1.433.932-1.691,2.078-.825,2.053,11.927,4.165,23.844,6.105,35.789.359,2.205,1.052,3.2,3.42,3.117,4.646-.168,10.112,1.407,13.734-.537,3.95-2.121,2.007-8.345,3.154-12.66.822-3.094.861-5.251-2.583-7.332-3.766-2.276-4.4-6.58-2.48-10.635,1.818-3.836,5.129-5.558,9.41-5.021,4.566.573,7.2,3.389,7.821,7.768.594,4.209-1.173,7.948-5.208,9.148-3.648,1.084-4.48,3.077-4.591,6.288-.069,1.977-.533,3.939-.786,5.913-.9,7.028-.894,7.029,5.982,7.029,7.979,0,15.959-.089,23.935.05,2.68.047,3.96-.353,4.478-3.517,3.217-19.628,6.707-39.213,10.238-58.789.419-2.321-.151-2.774-2.344-2.9-3.885-.216-8.8,1.841-11.385-1.141-2.36-2.724-2.523-7.363-3.6-11.172q-8.352-29.387-16.676-58.781c-3.019-10.649,1.278-16.5,12.2-16.507C185.6,505.2,195.742,505.276,205.88,505.318Z" fill="#232534"/>
      <path id="Trazado_521" data-name="Trazado 521" d="M396.587,472.237l-1.19,1.094a3.424,3.424,0,0,1-3.306-.45c-10.607-6.02-21.153-5.856-31.668.231a5.193,5.193,0,0,1-2.851.762,2.577,2.577,0,0,1-1.845-1.408c-2.585-5.418-2.152-6.145,3.742-6.527,7.06-.457,13.9-2.466,21.543-2.393-1.464-3.04-3.728-3.263-5.726-3.62-10.4-1.857-20.768-1.959-31.062.8-2.692.721-5.338,1.985-8.247,1.021q-.5-.876-1.008-1.748c9.763-.565,11.671-7.364,12.568-15.337.606-5.393,1.963-10.7,2.9-16.057.616-3.527,2.669-5.249,6.185-5.017,7.447.491,14.889,1.068,22.328,1.666,5.573.449,7.322,2.55,6.4,8.173-1.071,6.531-2.46,13.01-3.672,19.519-.48,2.578-1.326,5.326,2.139,6.671.142.055.344.223.344.34C384.2,468.194,393.007,467.581,396.587,472.237Z" fill="#252736"/>
      <path id="Trazado_522" data-name="Trazado 522" d="M775.886,562.152c2.419-1.376,4.789-3.033,7.772-2.52a8.17,8.17,0,0,1,7.034,6.712c.851,3.954-.737,7.14-4.07,9.32-3.1,2.027-6.235,1.774-9.177-.459-.912-.691-1.745-1.487-2.614-2.236-.921-1.852-1.944-.632-2.944-.1a19.682,19.682,0,0,1-3.517,1.8c-4,1.133-7.663.535-10.071-3.162a8.313,8.313,0,0,1,.663-10.551c2.816-3.406,6.371-3.553,10.33-2.174,1.3.453,2.436,3.479,4.245.6,2.41,1.273.464,3.415,1.1,5.546C774.309,563.278,774.777,562.528,775.886,562.152Z" fill="#bbcde5"/>
      <path id="Trazado_523" data-name="Trazado 523" d="M772.86,592.066c-.416-.809-.753-2.242-1.264-2.306-1.318-.166-.431,1.841-1.577,2.187a12.7,12.7,0,0,0-2.3.809c-5.145,2.986-9.444,1.971-11.956-2.878-2.459-4.745-.468-9.432,5.038-11.862a6.708,6.708,0,0,1,5.185-.02c1.865.208,2.967,3.725,5.45,1.253,1.02.173,1.049.975,1.22,1.769.158.731-.811,1.391-.067,2.107-.206-1.124.361-1.393,1.339-1.209,2.852-2.7,6.093-3.883,9.906-2.3a7.706,7.706,0,0,1,5,6.776c.377,3.973-.9,7.266-4.706,8.921C779.6,597.275,775.8,595.979,772.86,592.066Z" fill="#bbcde5"/>
      <path id="Trazado_524" data-name="Trazado 524" d="M124.652,619.087q-1.04.414-2.078.825c-6.631-.943-10.219-4.78-10.719-11.419-.268-3.557-2.912-5.725-4.934-8.608,3.5-1.866,7.444-1.2,10.809-2.66,1.171-1.411,2.491-1.375,3.907-.4l11.23-1.779c-2.279,4.832-2.1,9.186-1.381,13.819C132.256,613.83,129.306,617.254,124.652,619.087Z" fill="#bbcde5"/>
      <path id="Trazado_525" data-name="Trazado 525" d="M432.555,635.882c-14.731-.924-24.246-11.791-24.6-28.543,7.574,1.814,15.179,3,22.472,5.555-.674,1.836-1.342,3.674-2.024,5.508C425.012,627.5,425.552,629.774,432.555,635.882Z" fill="#bbcde5"/>
      <path id="Trazado_526" data-name="Trazado 526" d="M734.694,613.58c-.8-.649-1.6-1.318-2.69-.547-2.659.888-5.285,1.9-7.986,2.632-3.506.954-6.472-.15-7.708-3.6-1.228-3.432.221-6.323,3.657-7.62,6.031-2.276,12.108-4.48,18.29-6.289,3.216-.941,6.53-.25,7.564,3.628.991,3.718-.578,6.29-4.24,7.848C739.166,610.656,735.723,610.1,734.694,613.58Z" fill="#bbcde5"/>
      <path id="Trazado_527" data-name="Trazado 527" d="M773.835,557.166c-5.948-3.162-7.781-6.474-6.052-11.242,1.444-3.983,4.212-6.139,8.64-5.89a7.561,7.561,0,0,1,7.428,6.072c1.09,4.055-.016,7.5-3.69,9.845a7.416,7.416,0,0,1-4.2,1.279A1.7,1.7,0,0,1,773.835,557.166Z" fill="#bbcde5"/>
      <path id="Trazado_528" data-name="Trazado 528" d="M456.444,657.731c-.489.072-.977.157-1.467.215-4.751.565-8.119.365-8.608-6.2-.589-7.9-6.309-12.69-13.376-15.753,3.922.319,7.88.416,11.763,1.009,6.039.921,10.8,6.952,11.542,14.316C456.511,653.442,456.4,655.594,456.444,657.731Z" fill="#bbcde5"/>
      <path id="Trazado_529" data-name="Trazado 529" d="M111.86,545.169c-1.241-2.532-2.574-5.025-3.691-7.611-.759-1.758-.985-3.78,1.045-4.814a6.651,6.651,0,0,1,6.245.05c1.977,1.089,1.83,3.163.9,4.833-1.413,2.545-1.784,5.755-4.563,7.467Z" fill="#bbcde5"/>
      <path id="Trazado_530" data-name="Trazado 530" d="M111.8,545.094c-1.986,2.938-5.391,3.55-8.3,4.894-1.514.7-3.471.574-4.236-1.317a7.253,7.253,0,0,1,.146-6.215c.945-1.73,2.717-1.6,4.368-.877,2.7,1.178,5.392,2.391,8.087,3.59Z" fill="#bbcde5"/>
      <path id="Trazado_531" data-name="Trazado 531" d="M769.886,450.456l-.76,1.043c-.827.461-1.314.029-1.712-.644a5.941,5.941,0,0,1-.06-2.452c.128-1.357.218-2.775-1.487-3.218a3.782,3.782,0,0,0-3.636,1.168c-1.456,1.469,1.134,2.069.933,3.347-.226.782-.584,1.307-1.489.759-3.178-1.242-6.874-1.841-7.609-6.117a2.369,2.369,0,0,1,1.029-1.524c1.754-.833,2.021-3.345,4.189-3.715.715.254,1.213.6.643,1.429-.26,1.077-.52,2.154-.817,3.388,3.629.125,6.947-6.351,10.772-.6A12.186,12.186,0,0,1,769.886,450.456Z" fill="#343643"/>
      <path id="Trazado_532" data-name="Trazado 532" d="M121.637,596.824l-3.907.4c-1.557-1.759-4.228-2.433-5.2-4.952,2.358-1.521,3.184,1.462,4.917,1.248,1.034-1.345-.964-3.233.831-4.443,2.434.4.963,2.84,2.1,3.92,1.977-.1,1.673-3.388,4.291-2.918C125.447,593.1,121.788,594.24,121.637,596.824Z" fill="#2f313f"/>
      <path id="Trazado_533" data-name="Trazado 533" d="M773.925,581.916l-1.621,2.341c-1.32-1.567-.319-3.435-.871-5.011q.227-3.183.454-6.373c.453-.98.907-1.958,1.389-3,1.339.634.938,2.129,1.555,3.093A25.237,25.237,0,0,0,773.925,581.916Z" fill="#343747"/>
      <path id="Trazado_534" data-name="Trazado 534" d="M752.779,441.6c-1.734-2.262-3.55-4.781-1.45-7.472,2.381-3.052,5.589-1.446,8.517-.589.185.852-.328,1.275-.985,1.612-3.047.32-5.881.831-4.609,5.074A2.03,2.03,0,0,1,752.779,441.6Z" fill="#2e303e"/>
      <path id="Trazado_535" data-name="Trazado 535" d="M773.835,557.166q1.062.03,2.124.063-.036,2.461-.073,4.923l-1.571,2.971c-1.393-1.909-.352-3.926-.777-5.747Q773.687,558.275,773.835,557.166Z" fill="#303547"/>
      <path id="Trazado_536" data-name="Trazado 536" d="M744.836,619.815l1.209,1.179c-.3,3.065-2.059,4.7-5.039,5.142l-1.176-1.251A14.517,14.517,0,0,1,744.836,619.815Z" fill="#303240"/>
      <path id="Trazado_537" data-name="Trazado 537" d="M758.886,434.408l.96-.868c3.729,2.288,1.839,4.641.081,6.992l-.859-1.122A5.588,5.588,0,0,1,758.886,434.408Z" fill="#383a47"/>
      <path id="Trazado_538" data-name="Trazado 538" d="M767.83,450.3l1.3,1.2c-2.874,2.447-5.126.441-7.451-1.04l1.185-1.018A4.327,4.327,0,0,1,767.83,450.3Z" fill="#3a3c49"/>
      <path id="Trazado_539" data-name="Trazado 539" d="M731.962,636l-1.21-1.174c.09-2.623,1.483-3.958,4.072-4.113l1.2,1.249A10.3,10.3,0,0,1,731.962,636Z" fill="#313341"/>
      <path id="Trazado_540" data-name="Trazado 540" d="M769.886,450.456l0-7.138A6.886,6.886,0,0,1,769.886,450.456Z" fill="#3a3c49"/>
      <path id="Trazado_541" data-name="Trazado 541" d="M752.779,441.6l.854-1.183c1.532.412,2.092,1.287,1.335,2.791l-.9,1.133Z" fill="#222433"/>
      <path id="Trazado_542" data-name="Trazado 542" d="M765.983,578l-5.185.02A3.931,3.931,0,0,1,765.983,578Z" fill="#82b1fe"/>
      <path id="Trazado_543" data-name="Trazado 543" d="M357.646,473.4c12.568-8.52,25.152-8.3,37.751-.068,8.492,7.338,11.559,16.789,12.084,27.808,1.551,32.531,3.555,65.041,5.51,97.551.181,3.011-.028,4.334-3.646,4.419-17.464.412-34.927,1.005-52.373,1.887-4.3.217-5.277-1.119-5.3-5.139-.051-10.966-.469-21.932-.9-32.892a6.035,6.035,0,0,1,2.505-5.531c2.64-2.1,5.047-4.486,7.553-6.75l-1.2-1.391-16.177,13.719a47.472,47.472,0,0,1-22.9,15.033c-15.024,6.537-30.777,8.654-47.05,8.008-6.954-.275-13.927-.043-20.892-.046C235.975,590,227.492,582.439,225.667,566c-.609-.466-1.527-.765-1-1.845q26.781-14.914,53.575-29.807a3.921,3.921,0,0,1,1.439-.16c-.342,4.91-5.059,5.8-7.339,8.432,5.142-3.577,9.98-8.2,15.124-12.416,20.988-17.211,42.013-34.378,62.8-51.838C352.531,476.458,354.68,474.3,357.646,473.4Z" fill="#fefefe"/>
      <path id="Trazado_544" data-name="Trazado 544" d="M224.666,564.154l1,1.845c-3.3.17-1.883,2.6-1.665,4.013,1.309,8.466,5.7,14.973,13.023,20.058H221.857c-11.144,0-22.288-.031-33.432.026-2.144.011-3.559-.158-4.289-2.775-6.326-22.663-12.919-45.253-19.237-67.919-2.035-7.3,1.784-12.007,9.478-12.07,10.144-.083,20.29.034,30.436.065-3.741,7.753-7.081,15.732-11.315,23.206-7.073,12.484-3.886,23.4,1.873,29.581C202.7,568.053,212.162,569.36,224.666,564.154Z" fill="#fefefe"/>
      <path id="Trazado_545" data-name="Trazado 545" d="M335.977,461.744a72.011,72.011,0,0,1,38.658-3.462,9.431,9.431,0,0,1,1.954.34c2.611,1.117,7,1.2,6.564,4.79-.457,3.787-4.442,1.5-6.735,1.553-7.425.19-14.323,3.54-21.459,2.636-1.216,2.693,4.4,1.762,1.482,4.671-2.953,3.572-5.755,7.344-10.8,8.148C342.682,474.059,338.372,468.395,335.977,461.744Z" fill="#fdfdfe"/>
      <path id="Trazado_546" data-name="Trazado 546" d="M345.64,480.42l10.8-8.148,1.2,1.127q-23.271,19.379-46.547,38.749-17.975,14.911-36.05,29.7c-1.3,1.065-2.447,2.59-5.15,2.809,2.317-5.007,7.881-6.1,9.781-10.474,5.786-3.154,10.513-7.706,15.551-11.835q24.224-19.851,48.362-39.8A24.826,24.826,0,0,0,345.64,480.42Z" fill="#282a3b"/>
      <path id="Trazado_547" data-name="Trazado 547" d="M701.077,456.339c0,49.2-.06,98.4.107,147.6.014,4.234-1.135,5.088-5.205,5.079q-95.6-.208-191.2,0c-4.2.009-5.169-1.073-5.163-5.2q.185-146.355.1-292.71c0-17.2,8.923-26.056,26.147-26.058q74.634-.008,149.267,0c17.02,0,25.937,8.817,25.941,25.674Q701.091,383.535,701.077,456.339Z" fill="#fefefe"/>
      <path id="Trazado_548" data-name="Trazado 548" d="M600.537,611.287c31.946,0,63.892.055,95.837-.077,3.555-.014,5.039.606,4.8,4.564-.37,6.127-.06,12.293-.106,18.442-.112,14.653-9.311,23.823-24.109,23.845q-51.912.08-103.825.017c-16.3,0-32.611.036-48.917-.011-15.126-.043-24.251-9.01-24.49-24.054-.1-6.147.2-12.308-.1-18.443-.174-3.653,1.221-4.361,4.57-4.35C536.312,611.333,568.424,611.287,600.537,611.287Z" fill="#fefefe"/>
      <path id="Trazado_549" data-name="Trazado 549" d="M240.08,657.953c-15.787,0-31.574-.069-47.359.058-3.2.026-4.14-.408-3.461-4.05,3.553-19.06,6.832-38.173,9.953-57.309.525-3.224,1.772-3.855,4.746-3.849,23.926.048,47.853.021,71.777-.226,3.647-.037,4.666,1.113,5.268,4.562,3.307,18.933,6.881,37.821,10.474,56.7.6,3.177-.044,4.237-3.541,4.2C271.987,657.847,256.033,657.953,240.08,657.953Z" fill="#fefefe"/>
      <path id="Trazado_550" data-name="Trazado 550" d="M411.1,605.843c4.393.2,4.343-2.588,4.144-5.958-2.019-34.144-3.868-68.3-6.018-102.433-.245-3.891.963-5.187,4.471-5.934,7.75-1.652,15.239-4.481,23.475-2.495,17.231,4.154,27.946,21.307,22.5,38.179-8.7,26.944-18.2,53.63-27.3,80.443-.623,1.832-1.326,2.863-3.505,2.33C422.961,608.529,417.025,607.211,411.1,605.843Z" fill="#fefefe"/>
      <path id="Trazado_551" data-name="Trazado 551" d="M354.481,657.759c-19.126.065-38.253.082-57.378.25-2.519.022-3.047-1.222-3.408-3.208-3.561-19.585-7.107-39.172-10.808-58.731-.53-2.8.254-3.388,2.887-3.408,7.3-.056,14.6-.434,21.9-.566,13.9-.25,27.961,1.385,42.006-4.308,0,5.4.233,10.056-.072,14.676-.251,3.783,1.274,5.108,4.806,4.731,1.774,1.69,1.615,3.933,1.626,6.065q.1,19.192.007,38.385C356.041,653.795,356.118,656.008,354.481,657.759Z" fill="#fefefe"/>
      <path id="Trazado_552" data-name="Trazado 552" d="M354.481,657.759q-.033-25.281-.066-50.564c15.939-.6,31.879-1.163,47.813-1.866,2.387-.1,3.2.539,3.273,2.95a35.418,35.418,0,0,0,2.277,11.166c3.811,10.4,11.2,16.495,22.134,18.506,8.742,1.608,14.361,8.071,15.144,16.769.21,2.342-.395,3.294-2.892,3.275-17.611-.14-35.223-.179-52.835-.251-6.723-2.209-12.022-6.933-18.261-10.409-1.284,3.445.943,7.368-1.683,10.431Z" fill="#bbcde5"/>
      <path id="Trazado_553" data-name="Trazado 553" d="M344.673,568.163l4.637-2.837c0,6.8-.076,12.7.034,18.589.052,2.81-2.2,2.472-3.736,3.011-12.917,4.538-26.312,2.747-41.081,3.111,6.929-2.668,12.876-3.848,17.967-7.072C329.878,578.017,337.062,572.771,344.673,568.163Z" fill="#fdfdfd"/>
      <path id="Trazado_554" data-name="Trazado 554" d="M369.385,657.766V644.489l19.944,13.255Z" fill="#fdfefe"/>
      <path id="Trazado_555" data-name="Trazado 555" d="M155.057,637.1a9.438,9.438,0,0,1-.318-.938c-.468-2.032,1.6-5.578-.212-5.811-3.055-.392-1.319,3.226-1.97,5-.874,2.386-1.9,1.132-2.879.321a6.778,6.778,0,1,1,9.667-.53C158.217,636.391,156.924,637.4,155.057,637.1Z" fill="#fafafb"/>
      <path id="Trazado_556" data-name="Trazado 556" d="M741.006,626.136l5.039-5.142c2.185-1.149,4.379-1.77,6.3.414a3.913,3.913,0,0,1,.636,4.606c-1.3,2.628-3.724,2.743-5.989,2.157C744.975,627.651,742.144,629.222,741.006,626.136Z" fill="#f8f8f8"/>
      <path id="Trazado_557" data-name="Trazado 557" d="M734.824,630.712l-4.072,4.113c-2.129,1.126-4.31,1.918-6.283-.166a3.851,3.851,0,0,1-.9-4.506c1.187-2.679,3.45-2.7,5.809-2.5,1.635.133,3.276.287,4.889.579C736.25,628.585,735.335,629.725,734.824,630.712Z" fill="#f7f7f8"/>
      <path id="Trazado_558" data-name="Trazado 558" d="M344.673,568.163c-6.612,6.1-13.8,11.349-22.179,14.8l-1.946-.92c8.152-4.226,15.579-9.551,22.9-15.033Z" fill="#333442"/>
      <g id="Grupo_11" data-name="Grupo 11">
        <path id="Trazado_559" data-name="Trazado 559" d="M288.721,441.5c5.455,7.623,10.248,15.517,10.919,25.227.17,2.458,1.647,1.181,2.828.779,1.9-.647,3.328-2.911,6.953-1.356L245.886,501.33l-.938-1.593c5.571-3.3,12.2-5.625,16.418-10.179,4.264-4.607,6.137-11.421,9.521-17.073.777,3.859-1.991,6.553-2.973,9.8-.361,1.192-1.934,2.371-.9,3.56,1.145,1.316,2.466-.039,3.553-.636,8.154-4.48,16.241-9.082,24.434-13.488a4.191,4.191,0,0,0,2.518-4.78c-1.524-12.4-7.212-22.271-17.636-29.314-1.643-1.11-2.611-1.424-3.442,1.159-1.8,5.6-6.022,8.112-11.9,7.662-1.582-.121-2.694.007-3.7,1.626-9.158,14.795-16.576,17.92-33.079,14.155-13.089-8.061-18.017-18.8-14.2-30.99A24.1,24.1,0,0,1,226.391,416.2a5.761,5.761,0,0,0,3.539-4.187c2.483-9.439,9.43-14.693,19.232-14.706,2.423,0,3.473-.275,3.6-3.011a12.344,12.344,0,0,1,2.873-7.742c.917-.248,1.321.308,1.624,1.026.562,2.207-.982,4.11-.925,7.07,6.363-2.826,11.8-.944,16.731,3.1a2.716,2.716,0,0,1,1.047,1.856,7.191,7.191,0,0,1-.323,1.952c-.458,1.544-.416,3.633-2.453,3.915-2.127.294-2.592-1.7-3.142-3.219-1.028-2.836-2.941-4.332-5.99-4.252a4.939,4.939,0,0,0-4.808,3.628c-1.041,2.934.108,5.21,2.444,6.93,2.051,1.51,2,2.876,1.329,5.42-1.109,4.182-1.821,8.736.164,13.063a29.617,29.617,0,0,1,2.6,11.543c.143,4.356,2.437,5.469,6.063,3.14,2.631-1.69,3.563-4.317,3.686-7.225.118-2.8-2.466-2.664-4.174-3.425a6.642,6.642,0,0,1-2.463-1.629,2.2,2.2,0,0,1-.549-2.7,2.042,2.042,0,0,1,2.2-.759c.828.1,1.607.4,2.418.566,7.03,1.4,13.556.865,18.73-4.888a3.632,3.632,0,0,1,2.936-1.619c.779.312,1.332.743.9,1.694-2.726,4.992-7.2,7.5-12.528,8.792-1.4.339-3.193.227-3.4,2.215-.181,1.73,1.563,1.908,2.557,2.645C283.09,437.457,285.913,439.468,288.721,441.5Z" fill="#242536"/>
        <path id="Trazado_560" data-name="Trazado 560" d="M293.679,421.742l-1.1-1.283c-.829-1.38-.1-2.636.3-3.92.556-1.156,1.367-2.214,1.392-3.58a18.819,18.819,0,0,0-.039-3.246c-.233-2.809-2.156-4.851-3.3-7.248-.8-2.614.836-5.184.1-7.827-.647-2.314-1.53-4.535-3.942-5.324-2.474-.809-3.327,1.567-4.582,2.976-1.1,1.23-2.033,2.637-3.913,2.734a1.778,1.778,0,0,1-1.506-1.339c.917-4.551,4.045-7.35,7.694-9.716.391-.2,1.034-.057,1.17-.631.037-.154-.456-.409-.759-.589-10.54-5.948-17.06-5.073-25.584,3.448-.816.815-1.55,1.726-2.872,1.631l-1.106-1.276a20.782,20.782,0,0,1,23.072-10.4,19.974,19.974,0,0,1,15.79,19.189,27.129,27.129,0,0,0,1.658,8.122C298.449,409.864,298.03,416.129,293.679,421.742Z" fill="#292b3a"/>
        <path id="Trazado_561" data-name="Trazado 561" d="M237.462,461.652a22.963,22.963,0,0,1-9.667-43.8c2.491-1.147,4.127-1.826,4.489-5.447.8-7.96,9.958-14,17.97-13.011,1.461.18,2.977.509,2.841,2.057-.476,5.393,3.72,9.514,3.769,14.724.008.8.744,1.882.428,2.349-3.115,4.585.264,8.038,1.757,11.932A22.872,22.872,0,0,1,237.462,461.652Z" fill="#fefefe"/>
        <path id="Trazado_562" data-name="Trazado 562" d="M293.494,416.484c.52,1.514-.7,2.629-.913,3.975-6.942,9.007-15.858,10.241-26.755,5.708,1.838,3.826,4.556,4.033,7.027,4.4,2.342.344,2.941,1.321,2.575,3.652-1.029,6.554-4.324,10.184-9.485,10.257-2.466.035-3.688-.627-3.364-3.412a25.2,25.2,0,0,0-3.076-14.846c-2.165-4.141,1.312-8.714-.813-13.055-.485-.99,2.122.106,2.864-1.614-4.048-2.277-7.685-5.225-5.7-10.695,1.121-3.083,3.633-4.612,7.015-4.525,5.646.146,6.636,4.517,7.711,8.926,2.728-1.3.038-4.966,2.981-5.781a8.438,8.438,0,0,1,5.088-4.914c1.141-1.185,2.208-2.453,3.441-3.533,1.517-1.331,2.458-4.536,4.521-3.744a9,9,0,0,1,5.769,6.941c.544,2.924-.963,5.487-.784,8.277.929.9-2.617,1.028-.4,2.03,2.5,1.133-.317,4.883,2.9,5.544,1.279.726.847,1.965.931,3.048-1.224,2.911-3.708,3.081-6.323,3.053C290.189,417.194,291.966,415.521,293.494,416.484Z" fill="#fefefe"/>
        <path id="Trazado_563" data-name="Trazado 563" d="M256.742,387.828c8.889-11.3,19.787-13.232,29.817-5.275.54,1.152-.211,1.454-1.1,1.667l-7.983,9.1a6.985,6.985,0,0,1-5.212,5.039c-.61-.114-1.375-.031-1.808-.37-6.321-4.964-8.8-5.115-15.579-.692C254.127,393.786,256.038,390.914,256.742,387.828Z" fill="#fdfdfd"/>
        <path id="Trazado_564" data-name="Trazado 564" d="M272.266,398.355l5.212-5.039,1.175,1.241a12.133,12.133,0,0,1-5.088,4.914Z" fill="#333543"/>
      </g>
      <path id="Trazado_565" data-name="Trazado 565" d="M363.689,455.085c-8.507-.243-8.477-.237-6.832-8.546,1.155-5.834,2.39-11.663,3.229-17.545.306-2.141.9-2.727,2.967-2.563,5.449.435,10.912.682,16.366,1.035,3.174.206,4.39,2.018,3.843,5.032-1.3,7.153-2.733,14.283-3.943,21.45-.42,2.493-1.688,2.887-3.8,2.348A53.338,53.338,0,0,0,363.689,455.085Z" fill="#fefefe"/>
      <path id="Trazado_566" data-name="Trazado 566" d="M347.8,456.192c1.735-9.528,3.31-18.293,4.943-27.047.33-1.768,1.234-3.243,3.347-2.819,2.057.414,1.756,2.123,1.495,3.6q-2.08,11.74-4.236,23.467C352.753,456.631,350.1,455.087,347.8,456.192Z" fill="#fbfbfb"/>
      <path id="Trazado_567" data-name="Trazado 567" d="M721.31,610.258a49.251,49.251,0,0,1,19.224-6.771C734.708,607.383,728.091,609.068,721.31,610.258Z" fill="#f7fafe"/>
      <path id="Trazado_568" data-name="Trazado 568" d="M295.536,410.392c-1.316.42-1.982,2.285-4.324,1.569,2.917-2.954,2.926-5.77-.151-8.446-.733-.637-2.36-1.669-1.053-2.726,1.408-1.139,2.26.264,2.791,1.572.091.222.388.361.59.538l.287-.4c2.43,1.775,3.4,4.334,3.853,7.167C296.966,410.183,296.143,409.992,295.536,410.392Z" fill="#3a3c49"/>
      <path id="Trazado_569" data-name="Trazado 569" d="M293.494,416.484c-3.09,1.348-6.061,2.175-8.867-2.962,4.185,2.646,7.023,1.055,9.926-.048a.549.549,0,0,1,.9-.189A2.816,2.816,0,0,1,293.494,416.484Z" fill="#3a3c49"/>
      <path id="Trazado_570" data-name="Trazado 570" d="M754.968,443.209l-1.335-2.791c-2.435-5.95-2.246-6.166,5.253-6.01,1.716,1.608.753,3.312.182,5-.664,1.284-1.392,2.541-1.977,3.861C756.278,445.1,755.667,443.352,754.968,443.209Z" fill="#dbdbde"/>
      <path id="Trazado_571" data-name="Trazado 571" d="M767.83,450.3c-1.868.941-3.3-.643-4.97-.854l-4.191-2.616c3.345-1.166,5.654-4.87,9.071-2.774C769.861,445.351,769.058,448.163,767.83,450.3Z" fill="#ebebec"/>
      <path id="Trazado_572" data-name="Trazado 572" d="M637.365,384.825c.873,1.186.667,2.581.534,3.855-.5,4.818-.119,8.544,6.1,9.447,3.517.51,5.672,4.222,5.648,7.512-.122,17.208,2.444,34.615-1.9,51.568-5.645,22.052-28.844,37.953-51.344,35.913-23.548-2.135-42.769-20.5-45.339-43.176-1.6-14.08-.56-28.193-.662-42.288-.036-4.942,2.214-9.233,7.7-10.236,3.556-.65,4.615-2.348,4.278-5.752-.189-1.908-.587-3.975.456-5.85,2.036,1.238,1.41,3.326,1.651,5.14.2,1.473-.476,3.338,1.751,3.9,2.679.442,5.371.137,8.053.254.881-.013,1.758-.017,2.639-.06,14.849-.325,29.7.1,44.525-.252,2.464-.163,2.136-2.041,2.243-3.657.129-1.951-.262-4.012,1.2-5.68,2.721.171,2.244,2.413,2.462,4.028.776,5.764.724,5.771,6.761,5.3,2.3-.975,1.318-3.053,1.563-4.7C635.971,388.247,635.286,386.106,637.365,384.825Z" fill="#bbcde5"/>
      <path id="Trazado_573" data-name="Trazado 573" d="M600.093,529.331q30.685,0,61.369.006c3.847,0,7.666.385,11.115,2.224a18.1,18.1,0,0,1,9.241,20.67c-1.931,8.227-9.512,13.652-19.687,13.611-22.437-.092-44.872-.431-67.309-.56-18.626-.106-37.261-.367-55.878.056-9.011.205-19.228-5.98-19.269-18.4-.034-10.069,8.531-17.691,19.548-17.714,20.29-.044,40.58-.013,60.87-.013Z" fill="#bbcde5"/>
      <path id="Trazado_574" data-name="Trazado 574" d="M578.114,356.57a35.928,35.928,0,0,1,44-.059,1.769,1.769,0,0,1,.049,2.223,3.983,3.983,0,0,1-3.3-.705q-18.141-10.357-36.584-.573a5.768,5.768,0,0,1-2.876.717C578.547,357.978,577.89,357.625,578.114,356.57Z" fill="#333543"/>
      <path id="Trazado_575" data-name="Trazado 575" d="M595.647,296.072c-3.153,0-6.308.048-9.459-.021-1.26-.028-2.9.174-3.016-1.735-.112-1.839,1.373-2.112,2.72-2.123q9.957-.082,19.915-.024c1.4.006,2.873.394,2.8,2.1-.075,1.774-1.668,1.778-3,1.789C602.286,296.089,598.966,296.071,595.647,296.072Z" fill="#333543"/>
      <path id="Trazado_576" data-name="Trazado 576" d="M565.006,396.523c-2.052.306-1.926-1.113-1.953-2.439-.059-2.758-.138-5.516-.208-8.27.273-6.508,1.564-12.724,5.323-18.22,1.159-.151,1.475.642,1.714,1.524-2.288,7.952-3.935,15.991-3.459,24.345A3.824,3.824,0,0,1,565.006,396.523Z" fill="#363745"/>
      <path id="Trazado_577" data-name="Trazado 577" d="M637.365,384.825c-.054,3.085-.114,6.169-.16,9.253-.02,1.336.069,2.737-1.968,2.439a4.082,4.082,0,0,1-1.5-3.518,63.139,63.139,0,0,0-3.443-23.761c.207-.882.474-1.708,1.638-1.633C635.023,372.943,637.318,378.531,637.365,384.825Z" fill="#3a3b49"/>
      <path id="Trazado_578" data-name="Trazado 578" d="M631.936,367.605l-1.008,1.256A24.774,24.774,0,0,1,622,358.818q.056-1.153.112-2.307C626.129,359.553,629.965,362.755,631.936,367.605Z" fill="#3b3d4a"/>
      <path id="Trazado_579" data-name="Trazado 579" d="M578.114,356.57l1.215,1.124a10.66,10.66,0,0,1-7.393,7.357c-.747-.311-1.31-.723-.89-1.66A20.824,20.824,0,0,1,578.114,356.57Z" fill="#3a3c49"/>
      <path id="Trazado_580" data-name="Trazado 580" d="M615.815,292.367c1.043.1,1.912.507,1.983,1.675a1.672,1.672,0,0,1-1.739,1.867,1.616,1.616,0,0,1-1.943-1.614C614.026,293.1,614.741,292.581,615.815,292.367Z" fill="#3a3b49"/>
      <path id="Trazado_581" data-name="Trazado 581" d="M571.046,363.391l1.186,1.238c.4,2.354-.488,3.838-2.915,4.272l-1.149-1.307A8.651,8.651,0,0,1,571.046,363.391Z" fill="#434552"/>
      <path id="Trazado_582" data-name="Trazado 582" d="M596.913,639.982c-7.98,0-15.96-.037-23.939.018-3.391.024-6.744-.222-6.767-4.593-.024-4.439,3.4-5.273,6.956-5.287,13.965-.055,27.93-.024,41.895-.024,2.327,0,4.667-.135,6.979.051,3.2.257,6.082,1.319,6.04,5.2-.044,4.016-2.888,4.675-6.226,4.652C613.539,639.943,605.226,639.982,596.913,639.982Z" fill="#bbcde5"/>
      <path id="Trazado_583" data-name="Trazado 583" d="M257.691,404.312c1.505-1.755,2.975-.615,4.177-1.172.157-1.325-1.76-1.888-1.129-3.725,3.1.633,4.2,3.278,6.351,5.885C263.463,405.931,260.628,406,257.691,404.312Z" fill="#2e303e"/>
      <path id="Trazado_584" data-name="Trazado 584" d="M285.563,401.839a1.424,1.424,0,0,1-1.414,1.6,1.37,1.37,0,0,1-1.458-1.525,1.979,1.979,0,0,1,1.189-1.282C284.8,400.333,285.325,400.983,285.563,401.839Z" fill="#5e5f6a"/>
      <path id="Trazado_585" data-name="Trazado 585" d="M380.2,434.1c-.547,2.182-1.4,4.13-3.84,3.848-2.163-.251-2.855-2.2-2.584-4.086.287-1.99,1.16-3.984,3.74-3.662C379.791,430.486,380.079,432.377,380.2,434.1Z" fill="#4c4e5a"/>
      <path id="Trazado_586" data-name="Trazado 586" d="M623.238,396.519l-47.058.019c-3-7.593-1.441-14.792,1.883-21.84,6.788-12.078,21.066-15.381,32.621-10.239a22.4,22.4,0,0,1,3.928,2.512,39.4,39.4,0,0,1,7.8,9.424C625.511,382.989,624.274,389.758,623.238,396.519Z" fill="#fefefe"/>
      <path id="Trazado_587" data-name="Trazado 587" d="M569.317,368.9l2.915-4.272,7.1-6.935c14.467-8.837,28.71-9.162,42.672,1.124a74.222,74.222,0,0,1,8.927,10.043c4.553,8.734,4.624,18.165,4.309,27.656-9,.457-8.986.456-9.325-8.341a13.094,13.094,0,0,0-.526-2.358c-2.191-3.248-1.571-7.594-4.179-10.675a31.066,31.066,0,0,0-6.5-7.947,36.056,36.056,0,0,0-3.511-2.334c-13.161-5.6-26.376-1.36-32.732,9.538a28.588,28.588,0,0,0-3.4,14.556c.106,2.515.834,5.243-.939,7.579l-9.119-.012C564.766,387.055,564.6,377.6,569.317,368.9Z" fill="#fefefe"/>
      <path id="Trazado_588" data-name="Trazado 588" d="M599.5,462.537c-8.927,0-9.01-.02-6.99-8.693,1.042-4.476,2.13-8.226-2.085-12.4-4.435-4.4-2.758-11.915,2.149-15.874a11.74,11.74,0,0,1,15.753,1.419c4.1,4.409,4.4,11.566-.105,15.674-2.761,2.516-2.751,4.86-1.948,7.829.258.957.55,1.91.724,2.883C608.664,462.689,610.068,462.659,599.5,462.537Z" fill="#fefefe"/>
      <path id="Trazado_589" data-name="Trazado 589" d="M574.125,396.535c.21-7.849-1.182-15.98,4.033-22.952.943-.113,1.466.145,1.074,1.212-3.609,6.885-3.138,14.341-3.052,21.743Z" fill="#2d2f3d"/>
      <path id="Trazado_590" data-name="Trazado 590" d="M621.232,374.225c3.634,3.056,3.627,7.415,4.154,11.588-.064,2.76-.137,5.516-.188,8.272-.024,1.332.078,2.734-1.96,2.434-.058-6.939.705-13.971-2.321-20.576A1.19,1.19,0,0,1,621.232,374.225Z" fill="#373947"/>
      <path id="Trazado_591" data-name="Trazado 591" d="M597.5,545.664c-.2-2.022-3.575-3.068-1.99-4.759,1.979-2.111,2.759,2.257,4.913,1.752,1.628-1.265-.679-4.741,1.867-4.852,2.718-.119.868,3.366,2.214,4.7,1.948.065,3.016-3.989,4.919-1.6,1.271,1.6-1.964,2.629-2.563,4.468,1.1,1.994,5.024-.737,4.978,2.186-.042,2.736-3.472.562-4.83,1.953-.222,2.084,3.973,2.69,2.055,4.813-1.76,1.948-2.662-1.841-4.513-1.647-1.42,1.118.454,4.456-2.156,4.208-2.657-.252-.5-3.473-1.766-4.9-2.18.035-3.04,3.956-4.86,2.459-2.265-1.862,1.777-2.957,1.7-4.914-1.4-1.286-4.845.565-4.769-2.143C592.77,544.946,595.851,546.795,597.5,545.664Z" fill="#fbfcfe"/>
      <path id="Trazado_592" data-name="Trazado 592" d="M651.406,552.69c-1.284,1.114.194,4.439-2.428,4.005-2.108-.349-.376-3.223-1.43-4.664-2.234-.331-2.962,4.184-5.128,2.151-1.669-1.568,1.642-2.76,2-4.521-1.383-1.475-4.857.358-4.858-2.1,0-2.847,3.409-.507,4.791-1.948.162-1.936-3.821-2.938-1.789-4.872,1.746-1.661,2.518,2.107,4.8,1.864,1.865-.89-.974-4.87,2.023-4.8,2.26.055.918,3.135,1.846,4.614,1.982.5,2.951-3.845,4.846-1.45,1.444,1.826-1.966,2.588-2.306,4.49,1.129,1.868,5.016-.86,4.945,2.153-.062,2.655-3.487.5-4.83,1.907-.219,2.09,3.99,2.7,2.025,4.825C654.142,556.26,653.268,552.442,651.406,552.69Z" fill="#fafcfe"/>
      <path id="Trazado_593" data-name="Trazado 593" d="M552.317,545.74c-.143-2.264-4.048-3.072-2.424-4.964,1.842-2.146,2.925,1.9,4.9,1.771,1.126-1.4-.505-4.524,1.736-4.626,2.959-.134.757,3.314,2.142,4.646,1.96.164,2.943-3.833,4.883-1.82,1.685,1.75-2.055,2.543-1.871,4.887.883,1.655,4.845-.932,4.708,2.041-.106,2.317-3.2.7-4.629,1.762-.211,2,3.864,3.073,1.776,4.9-1.97,1.719-2.692-2.276-4.869-2.313-1.721,1.106,1.115,4.978-2.12,4.81-2.419-.126-.614-3.174-1.7-4.7-2.166-.775-2.7,4.173-4.948,1.917-1.317-1.323,1.382-2.612,1.764-4.256-.786-1.92-4.73.528-4.251-2.476C547.794,544.947,550.626,546.728,552.317,545.74Z" fill="#fbfcfe"/>
      <path id="Trazado_594" data-name="Trazado 594" d="M375.468,434.383c.584-.77.927-1.646,1.523-1.881.529-.208,1.206.59,1.042,1.251a8.855,8.855,0,0,1-1.1,2.028C376.506,435.371,376.076,434.962,375.468,434.383Z" fill="#e8e8ea"/>
      <path id="Trazado_595" data-name="Trazado 595" d="M579.232,374.8l-1.074-1.212a24.648,24.648,0,0,1,33.925-8.983c.12.98-.049,1.635-1.259,1.113C596.765,360.906,588.529,363.274,579.232,374.8Z" fill="#323341"/>
      <path id="Trazado_596" data-name="Trazado 596" d="M621.232,374.225l-.315,1.718-7.049-8.259a1.441,1.441,0,0,1,1.23-1.14C618.057,368.376,620.368,370.724,621.232,374.225Z" fill="#3c3e4b"/>
      <path id="Trazado_597" data-name="Trazado 597" d="M615.1,366.544l-1.23,1.14-3.044-1.971,1.259-1.113A4.915,4.915,0,0,1,615.1,366.544Z" fill="#383a47"/>
    </g>
  </g>
</svg>
