<svg xmlns="http://www.w3.org/2000/svg" width="644.206" height="378.022" viewBox="0 0 644.206 378.022">
  <g id="Grupo_14" data-name="Grupo 14" transform="translate(-330.454 -347.955)">
    <path id="Trazado_598" data-name="Trazado 598" d="M962.47,651.013c3.169-1.408,6.38-2.73,9.5-4.248,3.285-1.6,6.421-1.87,9.287.7a6.984,6.984,0,0,1,2.371,7.362c-.984,3.681-3.705,5.288-7.236,5.993-14.987,2.995-29.943,6.144-44.963,8.964-3.211.6-3.539,1.557-2.533,4.406,2.817,7.972,5.359,16.04,7.977,24.082a12.49,12.49,0,0,0,10.277,9.072c9.064,1.726,18.1,3.626,27.122,5.55,5.833,1.245,10.446,3.992,11.739,10.408-.386,2.449-1.574,1.057-2.585.547-3.006-5.147-7.769-7.214-13.446-8.185-7.771-1.329-15.424-3.3-23.176-4.761-6.753-1.274-11.052-5.2-13.186-11.718-3.256-9.936-6.628-19.833-9.983-29.736-1.1-3.246-2.787-4.623-6.223-4.6-16.08.089-32.16.031-48.24.048-1.514,0-3.064-.059-4.237,1.181-1.177,1.641-.794,3.519-.8,5.3-.03,15.756.018,31.511-.053,47.266-.009,2,.569,5.523-1.538,5.479-2.849-.058-1.839-3.567-1.851-5.613-.1-16.512-.047-33.024-.067-49.538a19.4,19.4,0,0,0-.381-5.858c-8.143-26.037-16.02-52.164-23.923-78.283a28.721,28.721,0,0,0-4.6-8.829c-7.148-9.618-14.023-19.431-21.007-29.166-.775-1.079-1.352-2.764-2.816-2.734-1.622.033-1.724,1.887-2.255,3.071-3.527,7.888-7.245,15.689-10.811,23.56a9.976,9.976,0,0,0-.085,8.71c10.763,24.751,21.112,49.68,31.9,74.419a34.036,34.036,0,0,1,2.919,14.884c-.367,16.519-.109,33.051-.161,49.578-.006,2.214.526,4.594-1.214,6.517a2,2,0,0,1-2.12-.307c-1.34-2.062-.963-4.393-.967-6.634-.037-15.607.008-31.214-.034-46.82-.016-5.727-.476-6.149-6.268-6.178-6.674-.034-13.349.033-20.023-.031-2.229-.021-3.868.132-3.532,3.134.314,2.812-1.189,5.279-2.286,7.76-6.249,14.134-12.7,28.18-18.922,42.327a17.675,17.675,0,0,1-3.469,5.827c-1.214.8-2.4,1.445-3.137-.536-.363-2.567.912-4.7,1.883-6.9,6.108-13.862,12.545-27.578,18.524-41.5,1.795-4.179,1.561-4.6-3.05-4.6q-74.163-.04-148.327-.051c-3.308,0-5.286,1.172-6.632,4.279-6.379,14.736-13.189,29.282-19.616,44-1.017,2.329-1.808,4.871-4.191,6.33a2.019,2.019,0,0,1-2.23-.486c7.773-17.55,15.486-35.126,23.387-52.618a7.253,7.253,0,0,0-.04-6.726c-7.627-16.788-15.035-33.676-22.656-50.467a7.7,7.7,0,0,1,.018-7.172c7.74-16.9,15.2-33.934,22.879-50.865a6.432,6.432,0,0,0-.051-5.915c-7.664-16.938-15.207-33.931-22.819-50.893a14.324,14.324,0,0,1-1.433-6.087c.073-17.278.152-34.557-.051-51.833-.042-3.589,1.153-4.223,4.4-4.17,11.529.186,23.064-.005,34.595.129,2.771.032,4.411-.288,4.931-3.558.671-4.219,3.8-5.764,7.9-6.894,7.116-1.962,14.377-.932,21.5-2.085,5.015-.812,8.81,2.366,9.736,7.384.8,4.363,3.292,5.61,7.4,3.558,2.3-1.147,4.481-2.527,6.712-3.809,2.086-1.2,4.159-2.931,6.686-1.336,2.551,1.61,1.943,4.091.917,6.792,6.216-.677,12.086.923,17.83-.953,1.684-5.639,5.722-9.929,8.628-14.863,2.918-4.955,6.4-9.573,9.506-14.424,2.773-4.332,1.783-7.344-3.192-8.405-6.992-1.491-10.885-6.728-15.259-11.491-6.157-.474-9.061-2.392-10.405-6.894-1.172-3.931.232-7.037,3.107-9.685,2.167-2,5.073-1.552,7.6-2.35.829-.678,1.51-1.887,2.841-.791,1.708,3.472,3.746,4.982,7.109,1.593,1.2-1.21,3.082-1.074,4.756-1.129,3.5-.085,6.479.909,8.457,4.011.866,1.37,1.092,2.991,1.756,4.44.6,4.6-1.63,7.7-5.2,10.287s-7.567.766-11.5,1.41c2.21,1.036,4.745,1.1,5.068,4.314.17,1.7,2.284,1.725,3.778,1.844a28.538,28.538,0,0,0,9.471-.731c1.208-.313,2.565-.358,3.109,1.068.558,1.463-.693,2.14-1.659,2.849-1.665,1.223-5.24.818-3.532,4.788,1.643,3.819,4.637,6.444,8.028,6.3a7.522,7.522,0,0,0,6.771-5.756,10.109,10.109,0,0,0-.741-5.784c-1.891-4.585-2.949-9.414-4.373-14.135-.765-2.534,1.268-2.681,2.569-3.467,2.114-1.28,3.441-3.027,3.129-5.565a4.811,4.811,0,0,0-3.377-3.951c-3.461-1.278-5.025,1.143-6.333,3.6-1.454,2.733-2.972,3.929-5.351.945a2.935,2.935,0,0,1,.08-1.412,14.75,14.75,0,0,1,3.294-5.387,9.435,9.435,0,0,1,12.789-1.063A9.617,9.617,0,0,1,769.386,380c-.818,1.453-2.034,2.646-2.746,4.167-1.3,2.765-.6,5.327.88,7.763,1.4,2.3,3.593,1.7,5.709,1.5,12.663-1.151,25.309-2.47,37.978-3.545a13.924,13.924,0,0,1,4.912.57c17.345-1.588,34.7-3.056,52.032-4.8,15.414-1.551,27.5,10.416,24.924,25.651-4.829,28.62-10.115,57.164-15.172,85.746-.291,1.642-1.617,3.619.608,4.876,2.281,1.289,4.789,1.4,6.789-.413,2.795-2.537,5.275-5.416,7.986-8.05,2.375-2.308,5.153-4.3,8.443-2.12,3.132,2.077,2.266,5.3,1.244,8.237-.74,2.127-1.685,4.183-2.543,6.281,1.751.932,3.11-.254,4.542-1.024,1.6-.86,3.116-1.888,4.767-2.624,2.75-1.226,5.712-4.2,8.552-.92,2.7,3.11.469,6.275-1.334,9.094-1.737,2.714-4.291,4.658-6.738,6.686.208,2.494,1.841,1.068,2.954,1.071,1.968-.059,3.937-.172,5.905-.165,2.526.008,5.015.349,5.736,3.316.7,2.859-1.172,4.545-3.314,5.86-4.19,2.575-8.889,3.78-13.664,4.631-4.017.716-8.079,1.193-12.121,1.776-3.8.711-7.635.1-11.445.351-.973.064-2.612-.682-2.45,1.438,13.621,13.073,16.225,31,21.035,47.913,7.4,26.026,14.619,52.1,21.936,78.153.526,1.875,1.224,3.7,1.946,5.864,11-10.961,21.731-21.652,32.464-32.34,1.181-1.177,2.307-2.423,3.583-3.489,3.52-2.939,8.191-2.512,10.876.912a7.351,7.351,0,0,1-1.386,10.487c-3.516,2.594-7.34,4.772-11.029,7.133C960.488,651.719,961.773,651.016,962.47,651.013Z" transform="translate(-23.87 -1.501)" fill="#222433"/>
    <path id="Trazado_599" data-name="Trazado 599" d="M530.606,612.614c1.653,1.715,2.579-.345,3.767-.788,2.4-.894,4.67-2.131,7.086-2.954,3.292-1.121,5.992.152,7.944,2.808a6.889,6.889,0,0,1-.052,8.822c-2,2.676-4.784,3.922-7.982,2.79-3.506-1.241-6.836-2.977-10.653-4.68,0,15.785.034,31.193-.036,46.6-.011,2.39,1.425,2.1,2.955,2.193,4.931.309,9.914-.756,14.8.556.615,1.618.31,3.3.312,4.954.024,20.767.1,41.535-.065,62.3-.028,3.565.9,4.673,4.538,4.556,8.49-.275,17,.174,25.491-.13,51.71-1.856,103.435-.384,155.15-.745,18.476-.129,36.957-.266,55.435-.05,12.529.146,25.055-.025,37.582-.018,42.145.02,84.29-.058,126.434.07,7.078.022,14.165.663,21.235,1.243.368,1.2-.241,1.672-1.337,1.7-1.366.038-2.732.036-4.1.036q-316.54,0-633.08-.057c-1.949,0-5.5,1.179-5.581-1.065-.1-2.652,3.4-1.423,5.186-1.321,3.509.2,3.02-1.956,3.02-4.056-.006-21.078.083-42.157-.087-63.233-.029-3.678.776-5.077,4.712-4.851,6.053.345,12.143-.018,18.211.143,2.415.065,3.1-.7,3.046-3.069-.182-7.879-.15-15.763-.2-23.645a3.315,3.315,0,0,1,.737-3.595,1.589,1.589,0,0,1,1.258.06c.763.85,1.369,1.743.786,2.951-.062,8.184-.049,16.369-.234,24.551-.051,2.287.8,2.76,2.889,2.735q12.295-.149,24.592,0c2.143.028,2.85-.559,2.845-2.779q-.1-42.762,0-85.523c.005-2.031-.539-2.766-2.573-3.318-12.155-3.3-17.613-10.541-17.642-23.017-.011-4.7-.081-9.4.023-14.1.113-5.117,3.055-7.333,7.7-5.264,2.422,1.078,3.788-1.766,5.416-.774,3.86,2.35,7.942-.05,11.97.535,2.946.427,7.187,1.288,10.846-.27,3.46-1.474,6.874.914,6.971,4.787a183.535,183.535,0,0,1-.214,20.453c-.721,8.285-7.373,15.4-15.9,17.243-3.609.779-4.3,2.273-4.285,5.7q.234,40.94.007,81.883c-.018,3.475.745,4.669,4.414,4.5,6.968-.318,13.964-.2,20.944-.038,2.611.059,3.853-.381,3.672-3.4-.273-4.533-.2-9.1-.017-13.641.089-2.248-.8-3.047-2.828-3.751-6.972-2.419-10.47-7.13-10.332-14.293.112-5.818-.8-11.121-4.766-15.638-1.792-2.039-.854-2.921,1.524-2.922H426.3c-.973-2.439-3.024-3.59-4.283-5.319-.482-.661-.775-1.448.028-1.941.326-.2,1.149.106,1.568.419,1.536,1.146,2.438,3.038,4.306,3.809,1.719-2.059-.974-6.429,1.938-6.454,2.141-.017.131,4.457,1.7,7.643,1.4-1.739,2.476-3.149,3.634-4.491.569-.662,1.332-1.634,2.243-.849,1.277,1.1-.129,1.839-.733,2.542-1.151,1.341-2.413,2.587-4.352,4.637,5.382,0,9.844,0,14.307,0,1.046,0,2.307-.264,2.85.885.442.933-.429,1.685-1.016,2.334-3.823,4.227-4.626,9.322-4.634,14.789-.013,8.053-3.11,12.345-10.65,14.988-1.6.56-2.521.994-2.453,2.981.17,5,.125,10.007.021,15.008-.04,1.892.412,2.687,2.5,2.652,7.132-.116,14.27-.131,21.4.006,2.3.045,2.741-.83,2.734-2.9q-.1-27.522.01-55.044c.01-2.308-.882-2.855-2.985-3.44A15.716,15.716,0,0,1,442.694,590.6a15.915,15.915,0,0,1,29.709-7.682c5.2,8.512.688,20.15-9.342,22.962-3.042.853-3.268,2.173-3.26,4.634.058,17.741.107,35.483-.042,53.224-.025,3.025.854,3.8,3.787,3.718,7.281-.205,14.571-.038,21.858-.1,1.017-.008,2.8.719,2.712-1.288-.063-1.433.9-3.038-1.3-4.265-8.91-4.964-9.05-12.136.21-18.04-2.67-2.442-5.315-4.652-7.72-7.1-7.886-8.021-7.892-18.238-.114-26.255.951-.98,1.929-1.933,2.894-2.9,5.688-5.685,5.657-5.673,2.612-13.151-.407-1-1.89-2.425-.493-3.19,1.894-1.037,1.869,1.256,2.544,2.243.312.455.546.964.88,1.568,1.35-1.633-.6-4.515,1.48-4.8,2.368-.322.693,2.734,1.885,3.848,1.2-.046.992-1.258,1.454-1.9.448-.622.774-1.5,1.645-1.151,1.178.472.828,1.674.339,2.286-5.806,7.259-1.048,11.5,4.029,16.325,9.228,8.768,9.07,18.812.188,27.783-2.13,2.152-4.289,4.275-6.7,6.671,3.847,1.964,6.55,4.562,6.482,9-.069,4.49-2.366,7.352-6.517,8.839-2.059.737-1.249,2.489-1.334,3.876-.116,1.908,1.365,1.62,2.527,1.621,10.93.013,21.861-.015,32.791.033,1.646.007,2.455-.323,2.448-2.224-.062-15.427-.035-30.855-.035-46.648-3.515,1.606-6.611,3.1-9.77,4.444-3.559,1.516-6.623.524-8.868-2.457a7.5,7.5,0,0,1,8.816-11.426c3.182,1.287,6.251,2.852,9.831,4.507v-16.96c2.556-1.318,2.187.644,2.212,2.021C530.615,603.315,530.453,607.966,530.606,612.614Z" transform="translate(0 -16.156)" fill="#232534"/>
    <path id="Trazado_600" data-name="Trazado 600" d="M827.881,388.954c-14.908,1.512-29.813,3.057-44.728,4.493-1.777.172-4.01,1.131-5.039-1.591-1.495-3.954-3.486-7.693.192-11.757,5.093-5.626,3.466-12.662-3.134-14.861a8.635,8.635,0,0,0-10.421,4.233c-.649,1.132-.609,2.746-2.265,3.156-1.141.772-1.672-.452-2.485-.755a9.723,9.723,0,0,0-8.048-4.135,4.276,4.276,0,0,1-2.294-1.294c-2.68-2.788-5.387-3.43-8.342-.393a2.419,2.419,0,0,1-1.7.417c-.742.289-1.485.579-2.224.862-.684-9,7.673-18.178,17.463-19.181,20.432-2.094,44.708,13.139,51.4,32.433.831,2.4,1.908,3.181,4.4,3.411C816.668,384.546,822.609,385.672,827.881,388.954Z" transform="translate(-35.633)" fill="#f37777"/>
    <path id="Trazado_601" data-name="Trazado 601" d="M995.452,753.149q-210.567.005-421.135.087c-3.851,0-5.253-.785-5.205-4.966.253-22.431.184-44.866.227-67.3,1.735,4.825.668,9.817.716,14.712q.26,26.348-.036,52.7c-.032,3.18.763,4.095,3.981,3.992,8.935-.285,17.882-.2,26.824-.258l2.475-.036c1.857-1.287,3.985-1.323,6.12-1.326,50.961-.071,101.923.1,152.884-.086a7.053,7.053,0,0,1,2.682.4c.506,1.129,1.24.469,1.919.244,6.345-.926,12.733-.465,19.086-.341,4.235.082,6.452-1.478,7.5-5.514a99.84,99.84,0,0,1,3.6-10.783c.77-2,1.109-5.1,4.141-4.444,2.736.588,2.451,3.493,2.541,5.732.128,3.181,0,6.368.056,9.551.085,4.985.413,5.3,5.555,5.36,3.036.038,6.073-.04,9.108.036,1.651.041,3.376-.082,4.705,1.235l2.181.038c1.744-1.62,3.943-1.369,6.038-1.391,5.914-.064,11.83-.014,17.744-.026,7.4-.016,7.418-.021,7.426-7.226.017-15.755-.025-31.509.035-47.263.009-2.36-.482-4.912,1.537-6.857,1.414,1.558.816,3.469.82,5.222.045,17.421.015,34.842.05,52.263,0,1.443-.425,2.963.824,5.129V728.625c0-10.907-.03-21.814.035-32.721.009-1.555-.738-3.392,1.045-4.587,1.678,2.095,1.263,4.6,1.269,6.975.046,15.413-.007,30.825.036,46.239.017,5.85.394,6.17,6.135,6.252,4.537.064,9.075-.131,13.609.108.823.03,1.649.037,2.472.032,5.847-.178,11.7.147,17.55-.191,1.619-.129,3.241-.057,4.864-.121,22.683.41,45.364.057,68.043.167a20.386,20.386,0,0,1,6.3.524c.693.322,1.413.785,1.838-.34,1.638,2.344,4.09.931,6.148,1.342C991.259,752.718,993.577,751.305,995.452,753.149Z" transform="translate(-20.9 -29.163)" fill="#323442"/>
    <path id="Trazado_602" data-name="Trazado 602" d="M737.064,389.878c1.919-1.411,2.254.453,2.925,1.46a21.29,21.29,0,0,0,13.971,9.328c3.568.743,5.576,4.828,3.687,7.733-6.676,10.272-13.5,20.45-20.266,30.663Q737.223,414.47,737.064,389.878Z" transform="translate(-35.608 -3.627)" fill="#f37777"/>
    <path id="Trazado_603" data-name="Trazado 603" d="M366.676,646.188q-.457,1.689-.914,3.375c-2.8,2.015-5.367,4.314-9.3,4a10.249,10.249,0,0,1-9.5-7.716,9.94,9.94,0,0,1,4.225-10.661c3.991-2.574,8.278-2.45,11.81.379.94.754,1.809,1.594,2.711,2.394,1.764.7,1.938,2.26,2.079,3.839A5.961,5.961,0,0,1,366.676,646.188Z" transform="translate(-1.418 -24.992)" fill="#bbcde5"/>
    <path id="Trazado_604" data-name="Trazado 604" d="M366.953,604.664c-6.985-2.157-9.839-6.119-8.656-12.019a9.684,9.684,0,0,1,10.73-8.151,10.4,10.4,0,0,1,9.362,9.454c.4,4.9-2.9,8.784-9.086,10.7A1.711,1.711,0,0,1,366.953,604.664Z" transform="translate(-2.416 -20.711)" fill="#bbcde5"/>
    <path id="Trazado_605" data-name="Trazado 605" d="M365.75,624.673c-5.494,4.461-10.667,5.258-14.758,2.275a10.089,10.089,0,1,1,12.338-15.938c.812.67,1.591,1.379,2.386,2.069,1.7.629,1.882,2.114,2.048,3.612.064,1.456.057,2.914.01,4.374C367.622,622.559,367.474,624.06,365.75,624.673Z" transform="translate(-1.423 -22.827)" fill="#bbcde5"/>
    <path id="Trazado_606" data-name="Trazado 606" d="M370.482,613.069c6.762-5.9,13.248-5.976,17.131-.192a9.847,9.847,0,0,1-1.394,13.161,10.535,10.535,0,0,1-13.336.637c-.838-.631-1.621-1.331-2.431-2-1.409-.876-1.37-2.3-1.407-3.7q0-2.086,0-4.173C369.1,615.4,369.05,613.949,370.482,613.069Z" transform="translate(-3.379 -22.824)" fill="#bbcde5"/>
    <path id="Trazado_607" data-name="Trazado 607" d="M370.5,648.984l-1.06-2.809c-.783-1.373-.236-2.87-.4-4.3.048-1.466-.019-2.975,1.443-3.924,6.081-5.427,11.439-5.991,15.923-1.675a10.037,10.037,0,0,1,1.124,13.2,10.19,10.19,0,0,1-12.952,2.983A14.359,14.359,0,0,1,370.5,648.984Z" transform="translate(-3.376 -24.998)" fill="#bbcde5"/>
    <path id="Trazado_608" data-name="Trazado 608" d="M370.355,636.96l-1.183,3.465q-.272.825-.545,0-.545-1.726-1.09-3.451.019-5.559.037-11.121.472-1.7.944-3.39c.25-.493.509-.473.776-.014q.512,1.705,1.025,3.409Q370.338,631.409,370.355,636.96Z" transform="translate(-3.247 -24.007)" fill="#232535"/>
    <path id="Trazado_609" data-name="Trazado 609" d="M370.35,612.893l-1.139,3.453c-.21.548-.416.522-.619,0q-.526-1.72-1.052-3.443.123-3.148.245-6.3l2.35-.019Q370.243,609.738,370.35,612.893Z" transform="translate(-3.248 -22.648)" fill="#232636"/>
    <path id="Trazado_610" data-name="Trazado 610" d="M908.478,551.517c-1.389-1.074-1.564-1.865.537-1.87,4.453-.011,8.905.049,13.357.08-3.158,1.4-6.521.611-9.779.939C911.207,550.807,909.554,549.844,908.478,551.517Z" transform="translate(-50.527 -17.662)" fill="#8b8c94"/>
    <path id="Trazado_611" data-name="Trazado 611" d="M942.461,532.735c-1.489.932-3.13.757-4.972.7.242-1.22,1.092-1.536,2.017-1.772C940.186,532.86,941.534,532.221,942.461,532.735Z" transform="translate(-53.159 -16.088)" fill="#c8c9cc"/>
    <path id="Trazado_612" data-name="Trazado 612" d="M996.6,678.357c-1.086.908-2.168,1.825-3.815,1.328.078-1.74,1.465-1.9,2.591-2.354Z" transform="translate(-58.002 -28.844)" fill="#e9eaeb"/>
    <path id="Trazado_613" data-name="Trazado 613" d="M933.959,656.1c1.14,4.08,2.1,8.22,3.485,12.216.879,2.543-.1,2.756-2.2,2.75q-26.649-.068-53.3.024c-2.222.011-3.228-.733-3.753-2.829-.955-3.81-2.13-7.566-3.212-11.344.173-2.122,2.054-2.886,3.338-4.085,4-3.731,5.869-8.23,4.091-13.5-1.834-5.436-5.6-8.911-11.716-9.133-1.506-.055-3.06.009-4.269-1.161q-5.286-17.155-10.572-34.308l.876-.578c1.95,1.59,3.834,3.273,5.876,4.736,1.189.853,2.434,3.369,3.913,1.626,1.162-1.369-1.311-2.323-2.353-3.173-6.2-5.059-12.527-9.977-16.224-17.364,1.187-1.5,3.03-1.2,4.59-1.642,6-1.724,9.383-5.848,9.56-11.76q.3-9.956-8.466-13.008c-5.517-1.931-11.234-.054-14.946,4.8-1.047,1.369-1.432,3.483-3.71,3.612-3.142-4.261-6.374-8.459-9.4-12.8-2.013-2.9-3.047-2.568-4.434.537-4.873,10.909-9.9,21.748-14.983,32.563a6.16,6.16,0,0,0,.063,5.539c3.921,9.164,7.715,18.382,11.554,27.58-1.021,1.157-2.443,1-3.772,1.16-5.9.72-11.164,5.257-12.189,10.495-.953,4.87,1.849,11.144,6.11,13.682,4.651,2.77,10.876,2.061,15.629-1.691,1.094-.864,1.788-2.617,3.711-1.962,4.421,10.272,8.764,20.579,13.312,30.794,1.219,2.736.6,3.273-2.191,3.24-9.255-.109-18.515-.129-27.767.073-2.595.057-3.7-.91-4.68-3.135q-9.656-22.009-19.589-43.9a6.85,6.85,0,0,1,.134-6.321c7.533-16.668,14.863-33.428,22.438-50.076a8.537,8.537,0,0,0,.093-8.006c-7.779-16.886-15.213-33.931-22.908-50.856-1.809-3.979-.875-8.032-1.158-12.056-.107-1.514,1.141-1.613,2.049-1.976q19.087-7.637,38.2-15.225c2.036.4,1.736,2.242,2.133,3.58,2.654,8.955,11.025,12.544,19.34,8.267,1.447-.745,2.687-2.048,4.535-1.8l17.422,22.722c.005,1.3-.81,2.256-1.381,3.313-2.513,4.651-2.619,9.343.194,13.841,2.906,4.645,7.424,5.855,12.649,5.462,1.942-.146,3.8-1.259,5.811-.538A321.611,321.611,0,0,1,905.762,559.8a21,21,0,0,1,4.018,10.925c-.994,1.314-2.626,1.379-3.969,2-6.222,2.885-9.579,9.1-8.075,15.019,1.669,6.577,7.042,10.351,14.17,10.059,1.916-.079,3.858-1.015,5.766.057l8.564,31.322c-.347,2.116-2.216,1.69-3.548,2.048-7.592,2.039-11.536,8.688-9.649,16.371,1.606,6.536,8.82,10.45,16.1,8.722C930.736,655.943,932.3,655.169,933.959,656.1Z" transform="translate(-39.8 -11.531)" fill="#fefefe"/>
    <path id="Trazado_614" data-name="Trazado 614" d="M886.666,501.428c-1.557-1.187-2.9-2.156-4.182-3.2-5.333-4.345-11.017-4.87-16.8-1.165-1.9,1.214-2.854,1.111-3.864-.76a13.156,13.156,0,0,0-1.383-1.8c-10.217-12.89-10.082-12.864-7.04-29.2,2.437-13.09,4.5-26.25,6.716-39.38a13.376,13.376,0,0,0,.2-2.264c0-.693.251-1.627-.849-1.757-1.047-.125-1.165.761-1.3,1.472-.316,1.634-.566,3.28-.886,5.179-1.742-.822-1.6-2.689-2.344-3.959-.518-.89-.674-2.318-2.1-1.66-1.151.533-.324,1.559-.023,2.359.9,2.394,1.813,4.785,2.91,7.677-9.839,1.164-19.441,2.314-29.046,3.43-3.616.421-7.241.765-10.862,1.138-2.429.25-3.313,1.089-1.623,3.421,2.231,3.08,4.447,6.089,7.721,8.228A35.258,35.258,0,0,1,832.97,461.07c.976,1.654.966,2.564-.975,3.345-16.78,6.747-33.539,13.551-50.983,20.615V470.691c0-8.494-.295-17,.118-25.475.224-4.593-1.339-5.489-5.586-5.353-10.011.321-20.04.1-30.061.1h-5.269c6.556-10.059,12.661-19.375,18.694-28.739.964-1.5,1.533-1.323,2.655-.138,3.794,4,8.428,4.9,13.247,2.372,4.6-2.411,6.735-6.5,5.608-11.762-.593-2.768,1.45-2.192,2.693-2.318,10.114-1.03,20.24-1.953,30.36-2.923,21.3-2.041,42.6-3.97,63.885-6.18,13.488-1.4,23.259,4.289,25.517,15.5,1.237,6.139-.737,12.055-1.776,17.986-4.465,25.5-9.1,50.979-13.688,76.462C887.362,500.481,887.123,500.7,886.666,501.428Z" transform="translate(-35.883 -3.688)" fill="#fefefe"/>
    <path id="Trazado_615" data-name="Trazado 615" d="M768.265,752.589c-.959,1.245-2.31,1.169-3.688,1.168q-78.546-.045-157.091-.067a8.962,8.962,0,0,1-.906-.09q11.706-26.316,23.4-52.639c.732-1.653,1.555-2.615,3.641-2.612,52.644.061,105.287.047,158.448.047C784.026,716.7,776.145,734.646,768.265,752.589Z" transform="translate(-24.181 -30.685)" fill="#fefefe"/>
    <path id="Trazado_616" data-name="Trazado 616" d="M606.412,635.452h4.705q75.786,0,151.571-.086c3.37-.008,5.021.911,6.378,4.04,6.856,15.807,13.916,31.526,21.059,47.205,1.495,3.282,1.285,4.212-2.7,4.2q-76.467-.187-152.937-.054c-2.26,0-3.826-.189-4.934-2.725-7.381-16.9-14.976-33.7-22.491-50.536C606.831,636.976,606.71,636.4,606.412,635.452Z" transform="translate(-24.166 -25.169)" fill="#fefefe"/>
    <path id="Trazado_617" data-name="Trazado 617" d="M792.254,572.618c-8.108,18.152-15.967,35.647-23.708,53.193-1.131,2.564-3.135,1.928-4.985,1.931q-33.921.045-67.841.019c-28.23,0-56.459-.07-84.688.081-3.93.022-4.244-.874-2.724-4.2q10.929-23.928,21.528-48.006c.874-1.973,1.725-3.081,4.2-3.078C686.55,572.638,739.06,572.618,792.254,572.618Z" transform="translate(-24.258 -19.669)" fill="#fefefe"/>
    <path id="Trazado_618" data-name="Trazado 618" d="M606.121,509.705h3.753q76.716,0,153.434-.057c2.741,0,4.223.574,5.417,3.321Q779.216,537.092,790.2,561c1.607,3.5.563,3.89-2.728,3.885q-76.489-.115-152.979-.051c-1.953,0-3.7.238-4.793-2.256C622.048,545.151,614.219,527.8,606.121,509.705Z" transform="translate(-24.141 -14.16)" fill="#fefefe"/>
    <path id="Trazado_619" data-name="Trazado 619" d="M665.921,456.9c.7,3.057,1.113,5.979,4.475,6.581,3.56.638,5.644-1.64,7.327-4.3a30.541,30.541,0,0,0,3.729-9.225c.532-2.211,1.521-2.879,3.732-2.873q39.168.1,78.336-.008c2.558-.007,3.422.721,3.406,3.331-.1,16.073-.168,32.149.03,48.221.051,4.178-2.53,3.246-4.772,3.247q-75.832.029-151.663.015c-.759,0-1.523-.057-2.276.007-1.943.166-2.693-.646-2.687-2.624q.07-24.793,0-49.586c-.005-1.991.809-2.6,2.723-2.589,11.234.058,22.469.094,33.7-.027,2.277-.025,2.863,1.052,3.128,2.893.272,1.886,1.11,4.261,2.926,4.1,4.074-.36,4.517,2.148,5.539,4.966,1.005,2.777,3.374,3.534,6.355,2.671C662.46,460.962,663.792,458.913,665.921,456.9Z" transform="translate(-24.091 -8.679)" fill="#fefefe"/>
    <path id="Trazado_620" data-name="Trazado 620" d="M879.273,678.57c.007,19.563-.068,39.126.1,58.687.029,3.329-.691,4.39-4.193,4.279-9.557-.3-19.126-.166-28.691-.2.2-20.454-.474-40.914.37-61.364.068-1.639-.723-2.891-1.3-4.252q-17.189-40.266-34.46-80.494a7.482,7.482,0,0,1,.062-6.808c4.855-10.228,9.529-20.542,14.5-31.336,9.568,13.375,19.441,25.892,27.76,39.367,4.006,6.491,5.15,14.766,7.468,22.271Q870.137,648.627,879.273,678.57Z" transform="translate(-42.022 -18.313)" fill="#fefefe"/>
    <path id="Trazado_621" data-name="Trazado 621" d="M1009.185,752.29c-.837,1.692-2.4.955-3.63.958q-33.927.073-67.853.037c-1.508,0-3.043.168-4.345-.858a122.784,122.784,0,0,1-15.226-13.293,68.537,68.537,0,0,0-5.875-5.571c-.9,5.095-.2,9.7-.494,14.255-.12,1.835.694,3.995-1.455,5.3-6.35.056-12.7.051-19.046.2-1.971.046-2.6-.575-2.584-2.565.127-19.482.167-38.964.232-58.447,18.5,0,37,.049,55.493-.053,2.639-.015,3.964.584,4.824,3.335,3.282,10.492,7.1,20.819,10.313,31.328,2.125,6.943,6.679,10.382,13.556,11.663,8.475,1.578,16.871,3.582,25.35,5.129C1003.7,744.667,1007.344,747.257,1009.185,752.29Z" transform="translate(-48.885 -30.151)" fill="#fefefe"/>
    <path id="Trazado_622" data-name="Trazado 622" d="M842.174,753.144c-6.046.05-12.1,0-18.136.2-2.468.084-3.055-.847-3-3.128.133-5.434.06-10.873.016-16.31-.008-.973.319-2.365-1.093-2.591-1.484-.238-1.493,1.294-1.8,2.176q-2.978,8.534-5.782,17.127c-.495,1.508-.881,2.742-2.936,2.713-7.406-.1-14.816-.054-22.224-.068a1.252,1.252,0,0,1-1.331-.952c8.014-17.766,15.966-35.561,24.116-53.264,1.122-2.438-.717-4-.754-6.636,10.237,0,20.444.016,30.651-.009,3.117-.008,2.216,2.3,2.221,3.9.05,16.673.03,33.346.032,50.02C842.154,748.6,842.166,750.87,842.174,753.144Z" transform="translate(-39.883 -30.164)" fill="#fefefe"/>
    <path id="Trazado_623" data-name="Trazado 623" d="M911.6,543.839c-6.116,1.54-10.393-1.376-14.2-6.828-5.8-8.3-12.267-16.155-18.681-24.011-2.028-2.485-1.21-3.469,1.126-4.569,4.157-1.959,8.175-2.085,11.985.763,2.667,1.994,5.171,4.218,7.922,6.083,5.007,3.4,8.695,2.978,12.967-1.295,2.247-2.248,4.3-4.694,6.591-6.892,1.268-1.216,2.795-2.76,4.759-1.711,2.3,1.228,1.38,3.525.953,5.3a23.073,23.073,0,0,1-5.716,10.168c-.684.747-2.051,1.465-1.345,2.562.822,1.277,2.178.358,3.269-.009,5.35-1.795,9.989-5,14.971-7.526,1.365-.693,3.032-2.158,4.476-.486,1.3,1.5.161,3.2-.645,4.607-3.512,6.139-9.235,9.363-15.637,11.688-1.022.371-2.93.229-2.59,1.846.319,1.516,1.979.879,3.14.768,5.429-.516,10.851-1.137,16.29-1.5,1.94-.13,4.875-1.071,5.374,1.7.432,2.4-2.318,3.261-4.213,4.074-8.04,3.449-16.61,4.472-25.216,5.24C915.523,543.965,913.845,543.839,911.6,543.839Z" transform="translate(-47.911 -13.755)" fill="#fefefe"/>
    <path id="Trazado_624" data-name="Trazado 624" d="M855.873,483.926c-4.57-6.275-9.446-11.037-12.43-17.216a36.762,36.762,0,0,0-13.2-15.243,19.679,19.679,0,0,1-6.456-7.205c6.665-.831,12.994-1.651,19.33-2.4,5.863-.694,11.73-1.36,17.607-1.92,1.035-.1,3.024-1.093,2.55,1.6C860.846,455.348,858.448,469.158,855.873,483.926Z" transform="translate(-43.202 -8.033)" fill="#fefefe"/>
    <path id="Trazado_625" data-name="Trazado 625" d="M763.187,375.336c1.69,1.218,3.009,2.2,3.594-1.123a6.221,6.221,0,0,1,12.289.287c.461,3.55-1.449,6.006-4.846,7.273-2.072.773-2.1.864-.441,2.344.3.271.835.405.71.848-1.39,4.9,2.044,8.606,3.277,12.827,1.726,5.907.11,10.555-4.861,12.316-4.887,1.731-9.125-.607-11.515-6-1.477-3.332-2.152-5.8,2.821-6.157,1-.072,3.348-.423,2.685-2.155s-2.377-.211-3.557.087a18.707,18.707,0,0,1-11.593-.326c-1.117-.434-4.682-.029-1.693-3.268,1.072-1.161-.985-1.259-1.916-1.358-1.849-.2-4.089.69-5.031-1.891,2.6-2.215,5.24-2.095,8.558-1.277,5.524,1.363,9.767-3.237,10.318-10.308C761.624,376.318,761.419,375.269,763.187,375.336Z" transform="translate(-36.137 -1.852)" fill="#fefefe"/>
    <path id="Trazado_626" data-name="Trazado 626" d="M839.77,568.886c2.934-5.34,6.435-9.972,13.248-10.331,8.264-.435,14.8,5.146,15.162,12.908.412,8.858-4.92,14.89-13.618,15.395-.6.036-1.214.015-1.82.023C848.093,581.116,843.823,575.079,839.77,568.886Z" transform="translate(-44.602 -18.441)" fill="#bbcde5"/>
    <path id="Trazado_627" data-name="Trazado 627" d="M687.506,443.859c-1.806-1.306.078-3.189-1.365-4.359-2.084.179-1.769,2.051-2.06,3.36-1.018,4.574-2.029,9.156-4.1,13.383-1,2.028-2.364,4.495-5,3.733-2.216-.641-1.706-3.282-1.657-5.16.091-3.48.453-6.952.63-10.431.042-.81.467-1.981-.783-2.253-1.185-.258-1.447.849-1.734,1.67-1,2.845-1.857,5.74-2.941,8.55a16.265,16.265,0,0,1-2.224,3.919c-1.144,1.5-2.792,2.626-4.717,2.112-2.256-.6-1.322-2.746-1.39-4.242-.144-3.2.682-6.3,1.431-9.4.23-.95,1.136-2.214-.443-2.62-1.391-.358-1.495,1.1-1.909,2.029-.913,2.054-1.328,4.424-3.3,5.842a3.827,3.827,0,0,1-2.443.922c-.918-.164-1.026-1.306-1.133-2.249-.9-7.958,2.255-11.113,9.626-13.274,6.479-1.9,12.93-.13,19.258-1.676a5.082,5.082,0,0,1,6.017,3.051C688.255,438.957,689.382,441.351,687.506,443.859Z" transform="translate(-28.177 -7.496)" fill="#fdfdfe"/>
    <path id="Trazado_628" data-name="Trazado 628" d="M828.746,650.1c-2.947,3.084-6.013,5.957-10.54,6.509-8.568,1.044-15.686-4.718-16.29-13.217-.578-8.136,6.093-15,14.614-15.03.909,0,1.818.035,2.727.053Z" transform="translate(-41.284 -24.556)" fill="#bbcde5"/>
    <path id="Trazado_629" data-name="Trazado 629" d="M946.089,670.45c-4.462,1.324-8.807,3.241-13.626,1.082-6.758-3.027-9.894-8.591-8.787-16.144.855-5.827,5.943-10.367,12.548-11.242a14.8,14.8,0,0,0,2.141-.613Q942.228,656.994,946.089,670.45Z" transform="translate(-51.93 -25.884)" fill="#bbcde5"/>
    <path id="Trazado_630" data-name="Trazado 630" d="M928.335,606.6c-3.953,1.054-7.916,2.03-11.969.51-6.451-2.419-10.465-8.892-9.521-15.3.986-6.7,6.392-11.61,13.6-12.348Z" transform="translate(-50.464 -20.274)" fill="#bbcde5"/>
    <path id="Trazado_631" data-name="Trazado 631" d="M855.063,489.2c-7.823,6.094-14.713,6.434-20.9,1.2-3.527-2.985-4-7.236-5.115-11.251.093-.121.16-.31.278-.35,4.509-1.543,9.081-5.549,13.289-4.518,4.047.991,5.97,6.725,8.98,10.25C852.854,486,853.914,487.641,855.063,489.2Z" transform="translate(-43.663 -11.048)" fill="#bbcde5"/>
    <path id="Trazado_632" data-name="Trazado 632" d="M874.244,643.356c5.319-.566,10.317.018,14.061,4.38,5.658,6.6,4.849,15.279-1.888,20.821-1.158.952-2.407,1.794-3.615,2.682Z" transform="translate(-47.621 -25.853)" fill="#bbcde5"/>
    <path id="Trazado_633" data-name="Trazado 633" d="M893.494,537.63c-7.435,3.627-15.332,1.995-19.393-4.009a13.981,13.981,0,0,1,2.12-18.066Q885.3,526.244,893.494,537.63Z" transform="translate(-47.399 -14.677)" fill="#bbcde5"/>
    <path id="Trazado_634" data-name="Trazado 634" d="M970.312,686.72c-.494-2.322.906-2.807,1.662-3.571,7.662-7.749,15.393-15.432,23.073-23.164,2.19-2.205,4.506-3.694,7.6-1.814,3.018,1.833,3.725,6.1.745,8.039C992.6,673.217,981.531,679.813,970.312,686.72Z" transform="translate(-56.024 -27.091)" fill="#fcfcfc"/>
    <path id="Trazado_635" data-name="Trazado 635" d="M971.761,691.862c11.287-5.332,22.551-10.716,33.875-15.967,3.673-1.7,6.844-.514,7.873,2.6,1.082,3.275-.545,6.088-4.5,6.91-12.094,2.516-24.227,4.846-36.344,7.247C971.721,693.125,971.632,692.619,971.761,691.862Z" transform="translate(-56.156 -28.65)" fill="#fdfdfd"/>
    <path id="Trazado_636" data-name="Trazado 636" d="M752.918,372.1a6.855,6.855,0,0,1,6.861,6.876,6.7,6.7,0,0,1-6.8,6.864,6.877,6.877,0,0,1-6.94-6.807A7,7,0,0,1,752.918,372.1Z" transform="translate(-36.393 -2.114)" fill="#fcfcfc"/>
    <path id="Trazado_637" data-name="Trazado 637" d="M734.519,385.824a6.852,6.852,0,1,1,.364-13.7c3.3.271,5.954,1.771,6.123,5.454C741.215,382.165,738.133,385.863,734.519,385.824Z" transform="translate(-34.797 -2.115)" fill="#fcfcfc"/>
    <path id="Trazado_638" data-name="Trazado 638" d="M739.831,367.831c6.678-5.919,6.678-5.919,12.333,1.271a13.373,13.373,0,0,0-5.041,1.6c-1.3.723-1.807,3.536-3.639,2.254C741.844,371.812,739.53,370.591,739.831,367.831Z" transform="translate(-35.847 -1.365)" fill="#f8f8fa"/>
    <path id="Trazado_639" data-name="Trazado 639" d="M704.7,444.255c2.885-1.735,4.725-2.926,6.648-3.967,1.229-.666,2.911-2.092,3.684.21a2.847,2.847,0,0,1-2.448,3.679C710.426,444.511,708.172,444.255,704.7,444.255Z" transform="translate(-32.774 -7.994)" fill="#e9e9ea"/>
    <path id="Trazado_640" data-name="Trazado 640" d="M743.408,382.946c1.126,1.486,2.738,2.427,2.112,4.246-.264.764-1.228.346-1.911,0C741.156,385.938,743.159,384.607,743.408,382.946Z" transform="translate(-36.075 -3.064)" fill="#f0f0f1"/>
    <path id="Trazado_641" data-name="Trazado 641" d="M764.857,375.78c-.973.383-.884,1.367-1.2,2.12q-.739-1.867-1.48-3.733l2.485.755A1.8,1.8,0,0,1,764.857,375.78Z" transform="translate(-37.806 -2.295)" fill="#cac7dd"/>
    <path id="Trazado_642" data-name="Trazado 642" d="M971.569,693.469l.907.789a3.042,3.042,0,0,1-2.946.689C969.7,693.736,970.762,693.773,971.569,693.469Z" transform="translate(-55.965 -30.257)" fill="#bfc0c4"/>
    <path id="Trazado_643" data-name="Trazado 643" d="M444.948,697.343c32.778,0,65.556.057,98.333-.083,3.56-.016,4.56.874,4.515,4.476-.2,16.064-.154,32.134-.026,48.2.023,2.857-.583,3.827-3.68,3.822q-99.244-.144-198.489-.014c-2.873,0-3.9-.588-3.87-3.7.161-16.217.2-32.438-.02-48.654-.049-3.66,1.265-4.125,4.446-4.115C379.088,697.384,412.018,697.343,444.948,697.343Z" transform="translate(-0.986 -30.589)" fill="#fefefe"/>
    <path id="Trazado_644" data-name="Trazado 644" d="M444.471,693.912q-48.933,0-97.865-.056c-1.586,0-4.2,1.179-4.617-1.314-.489-2.908-.917-6.125.294-8.914.607-1.4,2.786-.608,4.239-.609q61.218-.049,122.436-.026c24.732,0,49.465.052,74.2-.062,3.273-.015,4.84.413,4.643,4.3-.339,6.668-.064,6.682-6.826,6.682Z" transform="translate(-0.967 -29.323)" fill="#fdfdfd"/>
    <path id="Trazado_645" data-name="Trazado 645" d="M391.895,554.584c0-4.269-.107-8.543.04-12.808.089-2.556-.816-6.434,2.982-6.506,4.033-.075,2.863,3.874,2.957,6.375.162,4.307.045,8.624.045,13.025,2.669-.3,2.1-1.81,2.122-2.851.078-3.636-.047-7.277.06-10.911.068-2.325-.469-5.555,2.921-5.672,3.564-.122,2.965,3.194,3.031,5.466.133,4.623.04,9.253.04,13.861,2.416.009,2.121-1.3,2.135-2.255.051-3.637-.068-7.278.057-10.911.083-2.418-.831-6.052,2.835-6.11,4.114-.065,2.912,3.846,3.033,6.291.214,4.322.06,8.663.06,13.03,2.693-.15,2.144-1.687,2.162-2.739.077-4.393.03-8.789.075-13.185.018-1.849.745-3.417,2.776-3.509,2.235-.1,3.326,1.466,3.277,3.5-.161,6.8.835,13.665-.595,20.4-1.632,7.686-6.648,12.351-14.051,14.562-2.113.63-3.663.675-3.687-2.517-.018-2.6,1.735-6.96-1.329-7.379-1.9-.261-.883,4.707-.883,7.262,0,2.985-1.176,3.2-3.54,2.637a19.174,19.174,0,0,1-14.037-15.127c-1.01-6.623-.339-13.314-.421-19.975-.023-1.857.83-3.392,2.866-3.4,2.015,0,2.861,1.441,2.872,3.36.024,3.941-.021,7.883.072,11.821C389.8,551.75,389.219,553.343,391.895,554.584Z" transform="translate(-4.673 -16.393)" fill="#fdfdfd"/>
    <path id="Trazado_646" data-name="Trazado 646" d="M516.767,630.446c.186,5.7-3.083,9.564-6.854,13.266-6.666,6.543-6.616,6.593-13.276,0-9.368-9.28-9.433-17.3-.1-26.469,2.25-2.211,4.3-6.291,6.911-6.013,2.485.265,4.557,4.071,6.879,6.246C514.1,621.006,516.94,624.974,516.767,630.446Z" transform="translate(-13.934 -23.054)" fill="#fefefe"/>
    <path id="Trazado_647" data-name="Trazado 647" d="M453.743,624.458c-3.738,5.288-4.261,10.867-4.208,16.689.044,4.723-2.3,8.369-6.6,10.6-2.6,1.345-4.684,1.869-4.207-2.356.089-.792.387-2.088-.85-2.227-1.627-.183-1.454,1.307-1.377,2.237.358,4.295-1.844,3.65-4.35,2.293-4.051-2.194-6.371-5.584-6.4-10.24-.032-5.931-.3-11.769-4.486-16.992Z" transform="translate(-7.953 -24.214)" fill="#fefefe"/>
    <path id="Trazado_648" data-name="Trazado 648" d="M482.743,592.87c.961,6.778-.955,11.43-5.888,14.6a12.622,12.622,0,0,1-14.511-.015c-4.941-3.178-6.775-7.86-5.954-14.269,3.921,3.761,8.036,6.449,13.234,6.394C474.681,599.524,478.873,597.324,482.743,592.87Z" transform="translate(-11.012 -21.448)" fill="#fdfdfd"/>
    <path id="Trazado_649" data-name="Trazado 649" d="M510.879,664.069a7.077,7.077,0,0,1-7.063,6.847,6.805,6.805,0,0,1-6.648-7.133,6.629,6.629,0,0,1,6.7-6.541A6.91,6.91,0,0,1,510.879,664.069Z" transform="translate(-14.599 -27.085)" fill="#fcfcfc"/>
    <path id="Trazado_650" data-name="Trazado 650" d="M551.36,623.614a37.508,37.508,0,0,1,9.315-4.9,4.891,4.891,0,0,1,6.09,1.68,4.994,4.994,0,0,1,.06,6.314c-1.516,2.132-3.706,2.538-6.068,1.727A39.884,39.884,0,0,1,551.36,623.614Z" transform="translate(-19.345 -23.673)" fill="#fcfcfc"/>
    <path id="Trazado_651" data-name="Trazado 651" d="M544.227,623.557a36.281,36.281,0,0,1-9.241,4.84c-2.533.912-4.82.378-6.365-1.951a4.927,4.927,0,0,1,.122-5.923c1.631-2.279,3.935-2.708,6.437-1.728A39.717,39.717,0,0,1,544.227,623.557Z" transform="translate(-17.272 -23.675)" fill="#fcfcfc"/>
    <path id="Trazado_652" data-name="Trazado 652" d="M469.534,583.834c-.354-1.663.358-2.31,2.183-2.291,3.915.04,10.9,4.48,10.606,7.238a6.4,6.4,0,0,1-5.29,5.5C474.311,594.858,469.735,588.238,469.534,583.834Z" transform="translate(-12.172 -20.456)" fill="#fbfbfc"/>
    <path id="Trazado_653" data-name="Trazado 653" d="M472.877,595.916c-5.517.968-9.615-.4-13-3.92-1.286-1.339-2.6-2.769-1.088-4.714,1.693-2.174,3.684-4.06,6.482-4.653.972-.206,1.09.828,1.124,1.573C466.608,588.89,469.122,592.372,472.877,595.916Z" transform="translate(-11.179 -20.548)" fill="#fbfbfb"/>
    <path id="Trazado_654" data-name="Trazado 654" d="M368.72,642.185q.272.01.545,0,.07,2.38.141,4.759l-.405-.067-.4.086Q368.659,644.573,368.72,642.185Z" transform="translate(-3.34 -25.766)" fill="#5874a6"/>
    <path id="Trazado_655" data-name="Trazado 655" d="M561.539,581.53q-15.233-.183-30.469-.009c-6.18.063-10.341,4.171-10.248,9.778.09,5.454,4.108,9.279,10.08,9.453,4.694.137,9.392.13,14.087.185,2.5-.235,2.021,1.622,2.057,3.016.111,4.318.158,8.636.23,12.954.08-4.074.4-8.161.167-12.216-.188-3.319,1.086-4.181,4.165-3.962a95.941,95.941,0,0,0,10,.019c6.182-.209,9.58-3.686,9.559-9.626C571.148,585.221,567.677,581.6,561.539,581.53Zm-1.16,11.748q-7.054,0-14.108,0c-4.854,0-9.709.007-14.563-.008-1.42,0-2.942-.176-3.058-1.953-.122-1.868,1.494-2.167,2.845-2.176,9.708-.061,19.417-.047,29.125-.033,1.443,0,3.044.391,3.078,2.026C563.74,593.15,561.968,593.279,560.379,593.278Z" transform="translate(-16.671 -20.447)" fill="#f37777"/>
    <path id="Trazado_656" data-name="Trazado 656" d="M932.745,756.419c-3.6,2.1-7.515.532-11.267.905a60.352,60.352,0,0,1-6.783-.049c-2.05-5.558-.743-11.281-.717-16.927.007-1.624,1.682-1.88,2.656-.814C921.886,745.277,928.749,749.489,932.745,756.419Z" transform="translate(-51.062 -34.235)" fill="#fdfdfd"/>
    <path id="Trazado_657" data-name="Trazado 657" d="M932.637,756.079l-18.05-17.368v18.224l-2.21-.076c-.011-6.351-.039-12.7-.012-19.055,0-.979-.407-2.273.945-2.724,1.039-.346,1.613.625,2.224,1.232q9.965,9.912,19.893,19.86C934.452,757.468,933.564,756.183,932.637,756.079Z" transform="translate(-50.954 -33.895)" fill="#252736"/>
    <path id="Trazado_658" data-name="Trazado 658" d="M816.865,757.53c1.288-3.809,2.564-7.579,3.839-11.348l.717.043c0,2.717.016,5.434,0,8.151C821.386,758.218,821.374,758.218,816.865,757.53Z" transform="translate(-42.596 -34.873)" fill="#f8f8f9"/>
    <path id="Trazado_659" data-name="Trazado 659" d="M368.687,617.278a1.569,1.569,0,0,0,.619,0q.042,2.373.084,4.746l-.39-.062-.387.076Q368.65,619.661,368.687,617.278Z" transform="translate(-3.342 -23.585)" fill="#5974a8"/>
    <path id="Trazado_660" data-name="Trazado 660" d="M809.757,525.171a14.266,14.266,0,0,1,14.3-14.429,14.368,14.368,0,0,1-.327,28.733C816.19,539.538,809.769,532.963,809.757,525.171Z" transform="translate(-41.973 -14.256)" fill="#bbcde5"/>
    <path id="Trazado_661" data-name="Trazado 661" d="M775.424,375.533a14.407,14.407,0,0,1,2.232.028,3.125,3.125,0,0,1,1.484.708c.119.1-.152,1.036-.387,1.106-2.291.675-4.645,1.349-7.007.542-.892-.3-.554-1.241-.13-1.908a13.739,13.739,0,0,1,1.515-2.229c.949-.99,1.325-3.548,3.037-2.565C778.061,372.3,775.429,373.6,775.424,375.533Z" transform="translate(-38.595 -2.018)" fill="#2f303e"/>
    <path id="Trazado_662" data-name="Trazado 662" d="M753.242,385.586c-.682-.266-1.245-.739-1.056-1.6s.9-1.1,1.7-.951a1.079,1.079,0,0,1,.879,1.307C754.664,385.124,754.265,385.72,753.242,385.586Z" transform="translate(-36.928 -3.068)" fill="#444652"/>
    <path id="Trazado_663" data-name="Trazado 663" d="M736.551,384.05a1.457,1.457,0,0,1-1.335,1.568c-.877.068-1.3-.622-1.306-1.431a1.066,1.066,0,0,1,1.027-1.2A1.415,1.415,0,0,1,736.551,384.05Z" transform="translate(-35.331 -3.068)" fill="#454653"/>
  </g>
</svg>
