<?xml version="1.0" encoding="UTF-8"?><svg id="Capa_2" xmlns="http://www.w3.org/2000/svg" viewBox="0 0 107.98 107.98"><g id="Capa_1-2"><path d="M100.98,0H7C3.13,0,0,3.13,0,7v93.98c0,3.87,3.13,7,7,7h93.98c3.87,0,7-3.13,7-7V7c0-3.87-3.13-7-7-7ZM32.37,95.52c0,.27-.11.53-.3.72-.2.19-.47.29-.74.28H12.23c-.26,0-.52-.11-.7-.3-.19-.18-.3-.44-.3-.7v-25.83c0-.27.1-.54.28-.74.19-.19.45-.3.72-.3h18.77c.27,0,.54.1.73.3.2.19.31.46.3.74v3.94c.01.27-.1.53-.3.71-.2.19-.46.29-.73.28h-12.56v5.06h11.7c.28,0,.55.1.74.3.2.19.3.46.3.73v3.63c0,.27-.1.54-.3.73-.19.2-.46.31-.74.3h-11.7v5.18h12.89c.28,0,.54.1.74.29.2.19.31.46.3.74v3.94ZM54.85,96.73h-2.54c-.97,0-1.85-.58-2.24-1.47l-11.44-25.9c-.15-.33,0-.72.33-.87.09-.04.18-.06.28-.06h5.13c.83,0,1.58.5,1.9,1.27l6.78,16.3c.15.34.55.49.89.33.15-.07.27-.19.33-.33l23.93-53.36c.11-.24.34-.39.6-.39h5.84c.36,0,.66.3.66.66,0,.09-.02.18-.06.27l-28.12,62.08c-.4.89-1.29,1.47-2.27,1.47ZM96.83,95.87c-.01.23-.13.44-.31.58-.19.17-.43.26-.68.26h-4.67c-.66.05-1.29-.3-1.6-.88l-1.69-3.83h-12.32l-1.69,3.86c-.32.58-.94.92-1.6.88h-4.67c-.25,0-.5-.1-.69-.27-.18-.14-.29-.35-.3-.58-.03-.12-.03-.24,0-.36l11-25.53c.3-.76,1.06-1.24,1.88-1.16h4.45c.82-.08,1.59.4,1.89,1.16l11,25.51c.02.12.02.24,0,.36Z" style="fill:#7777db;"/><polygon points="77.53 86 85.9 86 81.72 75.87 77.53 86" style="fill:#7777db;"/></g></svg>