<?xml version="1.0" encoding="UTF-8"?>
<svg id="Capa_1" xmlns="http://www.w3.org/2000/svg" version="1.1" viewBox="0 0 329.2 108">
  <!-- Generator: Adobe Illustrator 29.0.0, SVG Export Plug-In . SVG Version: 2.1.0 Build 186)  -->
  <defs>
    <style>
      .st0 {
        fill: #7777db;
      }

      .st1 {
        fill: #252526;
      }
    </style>
  </defs>
  <g id="_x37_e769085-8411-457b-8e08-6512e065e785">
    <g id="a1926834-2493-4f13-a8fd-c7992d401a79">
      <g>
        <path class="st0" d="M101,0H7C3.1,0,0,3.1,0,7v94c0,3.9,3.1,7,7,7h94c3.9,0,7-3.1,7-7V7C108,3.1,104.8,0,101,0ZM32.4,95.5c0,.3-.1.5-.3.7-.2.2-.5.3-.7.3H12.2c-.3,0-.5-.1-.7-.3-.2-.2-.3-.4-.3-.7v-25.8c0-.3,0-.5.3-.7.2-.2.4-.3.7-.3h18.8c.3,0,.5.1.7.3.2.2.3.5.3.7v3.9c0,.3,0,.5-.3.7-.2.2-.5.3-.7.3h-12.6v5.1h11.7c.3,0,.5.1.7.3.2.2.3.5.3.7v3.6c0,.3-.1.5-.3.7-.2.2-.5.3-.7.3h-11.7v5.2h12.9c.3,0,.5,0,.7.3.2.2.3.5.3.7v3.9ZM54.8,96.7h-2.5c-1,0-1.9-.6-2.2-1.5l-11.4-25.9c-.1-.3,0-.7.3-.9,0,0,.2,0,.3,0h5.1c.8,0,1.6.5,1.9,1.3l6.8,16.3c.2.3.6.5.9.3.1,0,.3-.2.3-.3l23.9-53.4c.1-.2.3-.4.6-.4h5.8c.4,0,.7.3.7.7,0,0,0,.2,0,.3l-28.1,62.1c-.4.9-1.3,1.5-2.3,1.5ZM96.8,95.9c0,.2-.1.4-.3.6-.2.2-.4.3-.7.3h-4.7c-.7,0-1.3-.3-1.6-.9l-1.7-3.8h-12.3l-1.7,3.9c-.3.6-.9.9-1.6.9h-4.7c-.3,0-.5-.1-.7-.3-.2-.1-.3-.4-.3-.6,0-.1,0-.2,0-.4l11-25.5c.3-.8,1.1-1.2,1.9-1.2h4.5c.8,0,1.6.4,1.9,1.2l11,25.5c0,.1,0,.2,0,.4Z"/>
        <polygon class="st0" points="77.5 86 85.9 86 81.7 75.9 77.5 86"/>
      </g>
      <path class="st0" d="M248.7,44.1h68.2c6.8,0,12.2,5.5,12.2,12.2h0c0,6.8-5.5,12.2-12.2,12.2h-68.2c-6.8,0-12.2-5.5-12.2-12.2h0c0-6.8,5.5-12.2,12.2-12.2Z"/>
      <path class="st1" d="M127,26.4c-.2-.2-.3-.4-.3-.6V2.6c0-.2,0-.5.3-.7.2-.2.4-.3.6-.3h16.9c.5,0,.9.4.9.9,0,0,0,0,0,0v3.5c0,.2,0,.5-.3.6-.2.2-.4.3-.7.2h-11.3v4.5h10.5c.5,0,.9.4.9.9,0,0,0,0,0,0v3.2c0,.5-.4.9-.9.9,0,0,0,0,0,0h-10.5v4.6h11.6c.5,0,.9.4.9.9,0,0,0,0,0,0v3.5c0,.2,0,.5-.3.6-.2.2-.4.3-.7.2h-17.1c-.2,0-.4-.1-.6-.3Z"/>
      <path class="st1" d="M168.3,1.6v24.1c0,.4-.3.7-.7.6h-4.8c-.4,0-.7-.3-.7-.6v-1.7c-.5.9-1.3,1.5-2.2,2-2.3,1.1-5,.9-7.2-.5-1.2-.8-2.1-1.9-2.7-3.3-.7-1.5-1-3.2-1-4.8,0-1.6.3-3.3,1-4.8.6-1.3,1.5-2.4,2.8-3.2,1.2-.8,2.6-1.1,4-1.1,1,0,2.1.2,3,.7.9.4,1.7,1.1,2.2,1.9V1.6c0-.4.3-.7.6-.7h5c.4,0,.6.3.6.7ZM161.2,20.8c.7-1,1-2.2.9-3.3,0-1.2-.2-2.3-.9-3.3-.6-.8-1.6-1.2-2.5-1.2-1,0-2,.4-2.6,1.1-.7.9-1,2.1-.9,3.2,0,1.2.2,2.4.9,3.4,1.2,1.4,3.3,1.6,4.8.4.1-.1.3-.2.4-.4h0Z"/>
      <path class="st1" d="M189.7,9.5v16.2c0,.4-.3.6-.6.6h-4.8c-.4,0-.6-.3-.6-.6v-1.7c-1.1,1.7-3,2.7-5,2.6-1.9.1-3.7-.5-5-1.9-1.1-1.2-1.6-3.1-1.6-5.7v-9.6c0-.4.3-.7.7-.6h4.9c.4,0,.7.3.7.6v9.8c0,1.7.8,2.6,2.2,2.6.8,0,1.6-.3,2.1-.9.6-.7.9-1.6.8-2.5v-9c0-.4.3-.6.6-.6h5c.4,0,.7.3.7.6,0,0,0,0,0,0Z"/>
      <path class="st1" d="M195.1,24.2c-1.7-1.7-2.6-4.1-2.5-6.6,0-1.7.4-3.4,1.2-4.9.8-1.4,2-2.5,3.4-3.3,1.6-.8,3.3-1.2,5.1-1.1,1.3,0,2.6.2,3.8.6.9.3,1.8.7,2.6,1.2.2.2.3.5.2.8l-1.1,3c-.1.4-.5.5-.9.4,0,0,0,0-.1,0-.5-.3-1-.6-1.5-.7-.8-.3-1.5-.4-2.3-.4-1.1,0-2.2.3-3,1.1-.7.9-1.1,2.1-1,3.3-.1,1.2.3,2.4,1,3.3.8.8,1.9,1.2,3,1.1.8,0,1.6-.2,2.4-.5.5-.2,1-.4,1.5-.7.3-.2.7-.1.9.2,0,0,0,.1,0,.2l1.1,3c.1.3,0,.6-.2.8-.8.6-1.7,1-2.6,1.3-1.3.4-2.6.6-4,.5-2.6.2-5.1-.7-7-2.5Z"/>
      <path class="st1" d="M229.7,9.5v16.2c0,.4-.3.6-.6.6h-4.8c-.4,0-.7-.3-.7-.6v-1.7c-.5.9-1.3,1.5-2.2,2-1,.5-2.1.7-3.2.7-2.9,0-5.6-1.6-6.8-4.3-.7-1.5-1-3.1-1-4.8,0-1.7.3-3.3,1-4.8.6-1.3,1.6-2.5,2.8-3.3,1.2-.8,2.6-1.2,4-1.2,1.1,0,2.2.2,3.2.7.9.5,1.7,1.1,2.2,2v-2.3h5.5c.4,0,.7.3.7.6,0,0,0,0,0,0ZM222.7,20.8c.7-1,1-2.1.9-3.3,0-1.2-.2-2.3-.9-3.3-1.2-1.4-3.4-1.6-4.8-.4-.1.1-.2.2-.4.4-.7,1-1,2.2-.9,3.4,0,1.1.2,2.3.9,3.2.6.8,1.6,1.2,2.6,1.2,1,0,1.9-.4,2.6-1.2h0Z"/>
      <path class="st1" d="M245.4,21.4v4.3c0,.3-.2.5-.4.6-.9.3-1.9.4-2.8.4-2,.1-4-.6-5.4-2-1.3-1.6-2-3.5-1.8-5.6v-5c0-.4-.3-.7-.7-.6h-2c-.4,0-.7-.3-.7-.7h0v-3.3c0-.4.3-.7.6-.7,0,0,0,0,0,0h2c.4,0,.7-.3.7-.6v-2.9c0-.3.2-.5.4-.6l5-1.6c.3-.1.7,0,.8.4,0,0,0,.1,0,.2v4.4c0,.4.3.6.6.6h2.9c.4,0,.6.3.6.6v3.3c0,.4-.3.7-.6.7h-2.9c-.4,0-.6.3-.6.6v5c0,.7.2,1.4.7,1.9.5.4,1.2.7,1.9.6.5,0,1.1,0,1.6-.2Z"/>
      <path class="st1" d="M248.3.2h5.2c.4,0,.7.3.7.6v4.3c0,.4-.3.7-.7.7h-5.2c-.4,0-.6-.3-.6-.7V.9c0-.4.3-.6.6-.7ZM247.8,25.7V9.5c0-.4.3-.6.6-.6h4.9c.4,0,.6.3.6.6v16.2c0,.4-.3.6-.6.6h-4.9c-.4,0-.6-.3-.6-.6Z"/>
      <path class="st1" d="M261.5,25.5c-1.4-.7-2.6-1.8-3.4-3.2-.8-1.5-1.2-3.2-1.1-4.9,0-1.7.4-3.4,1.2-4.9.8-1.4,1.9-2.5,3.4-3.2,1.6-.8,3.3-1.1,5.1-1.1,1.8,0,3.5.3,5.1,1.1,1.4.7,2.5,1.8,3.3,3.2.8,1.5,1.2,3.2,1.2,4.8,0,1.7-.4,3.4-1.2,4.9-.8,1.4-1.9,2.5-3.3,3.2-1.6.8-3.3,1.2-5.1,1.1-1.8,0-3.5-.3-5.1-1.1ZM270,17.5c0-1.2-.2-2.4-.8-3.4-.6-.8-1.6-1.2-2.5-1.2-1,0-2,.3-2.6,1.1-.7,1-1,2.2-.9,3.4,0,1.2.2,2.4.9,3.4.6.8,1.6,1.2,2.6,1.1,2.3,0,3.4-1.5,3.4-4.5h0Z"/>
      <path class="st1" d="M295.5,10.2c1,1.3,1.5,3.2,1.5,5.7v9.8c0,.4-.3.6-.6.6h-5c-.4,0-.6-.3-.6-.6v-9.5c0-.8-.1-1.6-.6-2.3-.4-.5-1.1-.8-1.7-.7-.9,0-1.7.3-2.3.9-.6.7-.9,1.6-.9,2.5v9.1c0,.4-.3.6-.6.6h-5c-.4,0-.6-.3-.6-.6v-11.8c0-1.6,0-3-.2-4.3,0-.4.2-.7.6-.7,0,0,0,0,0,0h4.6c.3,0,.6.2.6.6l.2,2c1.3-2,3.5-3.1,5.8-3.1,1.8-.1,3.5.6,4.7,1.9Z"/>
      <path class="st1" d="M319.2,9.5v16.2c0,.4-.3.6-.6.6h-4.9c-.4,0-.6-.3-.6-.6v-1.7c-.5.9-1.3,1.5-2.2,2-1,.5-2.1.7-3.2.7-2.9,0-5.6-1.6-6.8-4.3-.7-1.5-1-3.1-1-4.8,0-1.7.3-3.3,1-4.8.6-1.3,1.6-2.5,2.8-3.3,1.2-.8,2.6-1.2,4-1.2,1.1,0,2.2.2,3.2.7.9.5,1.7,1.1,2.2,2v-2.3h5.5c.4,0,.6.3.6.6ZM312.1,20.8c.7-1,1-2.1.9-3.3,0-1.2-.2-2.4-.9-3.3-1.2-1.4-3.3-1.6-4.8-.4-.1.1-.2.2-.4.4-.7,1-1,2.2-.9,3.4,0,1.1.2,2.3.9,3.2.6.8,1.6,1.2,2.6,1.1,1,0,1.9-.4,2.5-1.1h0Z"/>
      <path class="st1" d="M322.9,25.7V1.6c0-.4.3-.7.7-.7h4.9c.4,0,.7.3.7.7v24.1c0,.4-.3.7-.7.6h-4.9c-.4,0-.7-.3-.7-.6Z"/>
      <path class="st1" d="M146.2,42.8h5.1c.3,0,.6.3.6.6,0,0,0,.2,0,.2l-10.3,22.8c-.4.8-1.1,1.3-2,1.3h-2.2c-.9,0-1.6-.5-2-1.3l-9.9-22.5c-.1-.3,0-.6.3-.8,0,0,.1,0,.2,0h4.5c.7,0,1.4.4,1.6,1.1l6,14.2c.1.3.5.4.7.3.1,0,.2-.2.3-.3l6.7-15.2c0-.2.3-.3.5-.3Z"/>
      <path class="st1" d="M171.2,50.5v16.2c0,.4-.3.7-.6.7h-4.8c-.4,0-.7-.3-.7-.6,0,0,0,0,0,0v-1.7c-.5.9-1.3,1.6-2.2,2-1,.5-2.1.7-3.2.7-2.9,0-5.6-1.6-6.8-4.3-.7-1.5-1-3.1-1-4.8,0-1.7.3-3.3,1-4.8.6-1.3,1.6-2.5,2.8-3.3,1.2-.8,2.6-1.2,4-1.2,1.1,0,2.2.2,3.2.7.9.5,1.7,1.1,2.2,2v-2.3h5.5c.4,0,.6.3.6.7ZM164.2,61.9c.7-1,1-2.1.9-3.3,0-1.2-.2-2.4-.9-3.3-.6-.8-1.6-1.2-2.6-1.2-1,0-2,.4-2.6,1.2-.7,1-1,2.2-.9,3.4,0,1.1.2,2.3.9,3.2.6.8,1.6,1.2,2.6,1.1,1,0,1.9-.4,2.6-1.1Z"/>
      <path class="st1" d="M174.9,66.7v-24.1c0-.4.3-.7.7-.7h5c.4,0,.7.3.6.7v24.1c0,.4-.3.7-.6.7h-5c-.4,0-.7-.3-.7-.7Z"/>
      <path class="st1" d="M202.6,50.5v16.2c0,.4-.3.7-.7.7h-4.8c-.4,0-.6-.3-.6-.7v-1.7c-1.1,1.7-3,2.7-5,2.6-1.9.2-3.7-.5-5-1.9-1.1-1.2-1.6-3.1-1.6-5.7v-9.6c0-.4.3-.6.6-.7h5c.4,0,.6.3.6.7v9.8c0,1.7.8,2.6,2.2,2.6.8,0,1.6-.3,2.1-.9.6-.7.9-1.6.8-2.5v-9c0-.4.3-.7.6-.7,0,0,0,0,0,0h5c.4,0,.6.3.6.7Z"/>
      <path class="st1" d="M222.5,59.2h-11c-.2,2,1.3,3.7,3.3,3.9.3,0,.5,0,.8,0,.9,0,1.8-.1,2.6-.4.6-.2,1.2-.4,1.7-.8.3-.2.7-.1.9.2,0,0,0,.1,0,.2l1,2.9c.1.3,0,.6-.2.8-.9.5-1.8,1-2.8,1.2-1.2.4-2.5.5-3.7.6-1.8,0-3.6-.3-5.2-1.1-1.4-.7-2.6-1.8-3.4-3.2-.8-1.5-1.2-3.2-1.2-4.8,0-1.7.4-3.3,1.1-4.8.7-1.4,1.8-2.5,3.1-3.3,1.4-.8,3-1.2,4.6-1.2,1.5,0,3,.3,4.4,1.1,1.3.7,2.3,1.8,2.9,3.2.7,1.5,1,3.1,1,4.8v.8ZM211.5,56.3h5.6c-.2-1.8-1.1-2.7-2.7-2.7s-2.4.9-2.9,2.7h0Z"/>
      <path class="st1" d="M125.3,107.6c-.2-.1-.3-.3-.3-.5,0-.1,0-.2,0-.3l10-23.1c.3-.7,1-1.1,1.7-1h4c.7,0,1.4.3,1.7,1l9.9,23.1c0,.1,0,.2,0,.3,0,.2-.1.4-.3.5-.2.2-.4.2-.6.2h-4.2c-.6,0-1.2-.3-1.4-.8l-1.5-3.5h-11.1l-1.5,3.5c-.3.5-.8.8-1.4.8h-4.2c-.2,0-.4,0-.6-.2ZM134.9,98.1h7.6l-3.8-9.2-3.8,9.2Z"/>
      <path class="st1" d="M154.1,105.3l1.1-3c.1-.3.5-.5.8-.4,0,0,0,0,0,0,.8.5,1.7.8,2.6,1.1,1.1.4,2.3.5,3.5.5.6,0,1.1,0,1.7-.3.3-.2.6-.5.6-.9,0-.3-.2-.6-.4-.8-.5-.3-1.1-.5-1.6-.5l-2.8-.7c-1.4-.2-2.8-.8-3.9-1.8-.8-.9-1.3-2.1-1.2-3.3,0-1.1.3-2.1,1-3,.7-.9,1.7-1.6,2.8-2.1,1.3-.5,2.7-.8,4.1-.7,1.3,0,2.5.2,3.7.6,1,.3,2,.7,2.9,1.2.3.2.4.5.3.8l-1.2,2.9c-.1.3-.5.5-.9.3,0,0,0,0,0,0-.7-.4-1.4-.7-2.2-1-.9-.3-1.8-.4-2.7-.4-.6,0-1.1,0-1.6.3-.4.2-.6.6-.6,1,0,.2.1.5.3.6.4.2.9.4,1.3.5l2.9.7c1.5.3,2.9.9,4,1.9,1.9,2.2,1.6,5.5-.7,7.4,0,0-.1,0-.2.1-1.7,1.1-3.7,1.6-5.7,1.5-2.7.1-5.4-.5-7.9-1.8-.3-.2-.4-.6-.2-.9h0Z"/>
      <path class="st1" d="M171.6,105.3l1.1-3c.1-.3.5-.5.8-.4,0,0,0,0,0,0,.8.5,1.7.8,2.6,1.1,1.1.4,2.3.5,3.5.5.6,0,1.1,0,1.7-.3.3-.2.6-.5.6-.9,0-.3-.2-.6-.4-.8-.5-.3-1.1-.5-1.6-.5l-2.8-.7c-1.4-.2-2.8-.8-3.9-1.8-.8-.9-1.3-2.1-1.2-3.3,0-1.1.3-2.1,1-3,.7-.9,1.7-1.6,2.8-2.1,1.3-.5,2.7-.8,4.1-.7,1.3,0,2.5.2,3.7.6,1,.3,2,.7,2.9,1.3.3.2.4.5.3.8l-1.2,2.9c-.1.3-.5.5-.8.4,0,0,0,0,0,0-.7-.4-1.4-.7-2.2-1-.9-.3-1.8-.5-2.7-.5-.6,0-1.1,0-1.6.3-.4.2-.6.6-.6,1,0,.2.1.5.3.6.4.2.9.4,1.3.5l2.9.7c1.5.3,2.9.9,4,1.9,1.9,2.2,1.6,5.5-.7,7.4,0,0-.1,0-.2.1-1.7,1.1-3.7,1.6-5.7,1.5-2.7.1-5.4-.5-7.8-1.8-.3-.2-.4-.5-.2-.8Z"/>
      <path class="st1" d="M206.4,99.4h-11c0,1.1.4,2.1,1.2,2.9.8.7,1.9,1,2.9.9.9,0,1.8-.1,2.6-.4.6-.2,1.2-.4,1.7-.8.3-.2.7-.1.9.2,0,0,0,.1,0,.2l1.1,2.9c.1.3,0,.6-.2.8-.9.5-1.8,1-2.8,1.2-1.2.4-2.5.5-3.7.6-1.8,0-3.6-.3-5.2-1.1-1.4-.7-2.6-1.8-3.4-3.2-.8-1.5-1.2-3.2-1.2-4.8,0-1.6.3-3.3,1.1-4.8.7-1.4,1.8-2.5,3.1-3.3,1.4-.8,2.9-1.2,4.5-1.2,1.5,0,3,.3,4.4,1.1,1.3.7,2.3,1.8,2.9,3.2.7,1.5,1,3.1,1,4.8v.8ZM195.4,96.5h5.6c-.2-1.8-1.1-2.7-2.7-2.7-1.5,0-2.5.9-2.9,2.7h0Z"/>
      <path class="st1" d="M208.2,105.3l1.1-3c.1-.3.5-.5.8-.4,0,0,0,0,0,0,.8.5,1.7.8,2.6,1.1,1.1.4,2.3.5,3.5.5.6,0,1.1,0,1.7-.3.3-.2.6-.5.6-.9,0-.3-.2-.6-.4-.8-.5-.3-1.1-.5-1.6-.5l-2.8-.7c-1.4-.2-2.8-.8-3.9-1.8-.8-.9-1.3-2.1-1.2-3.3,0-1.1.3-2.1,1-3,.7-.9,1.7-1.6,2.8-2.1,1.3-.5,2.7-.8,4.1-.7,1.3,0,2.5.2,3.7.6,1,.3,2,.7,2.9,1.3.3.2.4.5.3.8l-1.2,2.9c-.1.3-.5.5-.8.4,0,0,0,0,0,0-.7-.4-1.4-.7-2.2-1-.9-.3-1.8-.5-2.7-.5-.6,0-1.1,0-1.6.3-.4.2-.6.6-.6,1,0,.3.1.5.4.6.4.2.9.4,1.3.5l2.9.7c1.5.3,2.9.9,4,1.9,1.9,2.2,1.6,5.5-.6,7.3,0,0-.1.1-.2.2-1.7,1.1-3.7,1.6-5.7,1.5-2.7.1-5.4-.5-7.9-1.8-.3-.2-.4-.5-.2-.8Z"/>
      <path class="st1" d="M225.8,105.3l1.1-3c.1-.3.5-.5.8-.4,0,0,0,0,0,0,.8.5,1.7.8,2.6,1.1,1.1.4,2.3.5,3.5.5.6,0,1.1,0,1.7-.3.3-.2.6-.5.6-.9,0-.3-.2-.6-.4-.8-.5-.3-1.1-.5-1.6-.5l-2.8-.7c-1.4-.2-2.8-.8-3.9-1.8-.8-.9-1.3-2.1-1.2-3.3,0-1.1.3-2.1,1-3,.7-.9,1.7-1.6,2.8-2.1,1.3-.5,2.7-.8,4.1-.7,1.3,0,2.5.2,3.7.6,1,.3,2,.7,2.9,1.3.3.2.4.5.3.8l-1.2,2.9c-.1.3-.5.5-.8.4,0,0,0,0,0,0-.7-.4-1.4-.7-2.2-1-.9-.3-1.8-.4-2.7-.4-.6,0-1.1,0-1.6.3-.4.2-.6.6-.6,1,0,.2.1.5.3.6.4.2.9.4,1.3.5l2.9.7c1.5.3,2.9.9,4,1.9,1.9,2.2,1.6,5.5-.7,7.4,0,0-.1,0-.2.1-1.7,1.1-3.7,1.6-5.7,1.5-2.7.1-5.4-.5-7.9-1.8-.3-.2-.4-.6-.3-.9,0,0,0,0,0,0Z"/>
      <path class="st1" d="M271.1,91.4c1,1.3,1.5,3.2,1.5,5.7v9.8c0,.4-.3.7-.6.7h-5c-.4,0-.6-.3-.6-.7v-9.6c0-.8-.1-1.6-.5-2.2-.4-.5-1-.7-1.6-.7-.8,0-1.5.4-2,1-.5.8-.8,1.8-.7,2.7v8.9c0,.4-.3.7-.7.7h-4.9c-.4,0-.7-.3-.7-.6,0,0,0,0,0,0v-9.7c0-.8-.1-1.6-.5-2.2-.4-.5-1-.7-1.6-.7-.8,0-1.5.4-2,1-.5.8-.8,1.8-.7,2.7v8.9c0,.4-.3.7-.6.7h-4.9c-.4,0-.6-.3-.6-.7v-11.9c0-1.6,0-3-.2-4.3,0-.4.2-.7.6-.7,0,0,0,0,0,0h4.6c.3,0,.6.2.6.6l.2,1.9c.5-.9,1.3-1.7,2.2-2.2,1-.5,2.2-.8,3.3-.8,1.9-.1,3.7.8,4.7,2.3.2.3.6.4.9.2,0,0,.1,0,.1-.1.5-.6,1.2-1.1,1.9-1.6,1-.6,2.2-.9,3.3-.9,1.7-.1,3.3.6,4.4,1.9Z"/>
      <path class="st1" d="M292.5,99.4h-11c0,1.1.4,2.1,1.2,2.9.8.7,1.9,1,2.9.9.9,0,1.8-.1,2.6-.4.6-.2,1.1-.4,1.6-.7.4-.2.9,0,1.1.3,0,0,0,0,0,.1l1,2.6c.2.4,0,.8-.3,1-.8.5-1.7.9-2.6,1.2-1.2.4-2.5.5-3.7.6-1.8,0-3.6-.3-5.2-1.1-1.4-.7-2.6-1.8-3.4-3.2-.8-1.5-1.2-3.2-1.2-4.8,0-1.7.3-3.3,1.1-4.8.7-1.4,1.8-2.5,3.1-3.3,1.4-.8,2.9-1.2,4.5-1.2,1.5,0,3,.3,4.4,1.1,1.2.7,2.2,1.8,2.9,3.2.7,1.5,1,3.1,1,4.8v.8ZM281.5,96.5h5.6c-.2-1.8-1.1-2.7-2.7-2.7-1.5,0-2.5.9-2.9,2.7h0Z"/>
      <path class="st1" d="M311.8,91.4c1,1.3,1.5,3.2,1.5,5.7v9.8c0,.4-.3.7-.6.7h-5c-.4,0-.6-.3-.6-.7v-9.5c0-.8-.1-1.6-.6-2.3-.4-.5-1.1-.8-1.7-.7-.9,0-1.7.3-2.3,1-.6.7-.9,1.6-.9,2.5v9.1c0,.4-.3.7-.6.7h-5c-.4,0-.6-.3-.6-.7v-11.9c0-1.6,0-3-.2-4.3,0-.4.2-.7.6-.7,0,0,0,0,0,0h4.6c.3,0,.6.3.6.6l.2,2c.6-1,1.5-1.7,2.5-2.3,1-.5,2.2-.8,3.4-.8,1.8-.1,3.5.6,4.6,1.9Z"/>
      <path class="st1" d="M328.9,102.6v4.3c0,.3-.2.5-.4.6-.9.3-1.9.4-2.8.4-2,.1-4-.6-5.4-2-1.3-1.5-2-3.5-1.9-5.6v-5c0-.4-.3-.7-.6-.7,0,0,0,0,0,0h-2c-.4,0-.7-.3-.6-.7v-3.3c0-.4.3-.7.6-.7h2c.4,0,.7-.3.7-.6,0,0,0,0,0,0v-2.8c0-.3.2-.5.5-.6l5-1.6c.3-.1.7,0,.8.4,0,0,0,.1,0,.2v4.4c0,.4.3.7.6.7h2.9c.4,0,.7.3.7.7v3.3c0,.4-.3.7-.7.7h-2.9c-.4,0-.6.3-.6.7v5c0,.7.2,1.4.7,1.9.5.4,1.2.7,1.9.6.6,0,1.1,0,1.7-.2Z"/>
    </g>
  </g>
</svg>