<svg xmlns="http://www.w3.org/2000/svg" viewBox="0 0 706.27 359.76"><defs><style>.cls-1{fill:none;}.cls-2,.cls-3{fill:#e0e0e0;}.cls-11,.cls-12,.cls-14,.cls-3{fill-rule:evenodd;}.cls-4{fill:#fbfbfb;}.cls-5{fill:#ebebeb;}.cls-6{fill:#f5f4f5;}.cls-7{fill:#263239;}.cls-8{fill:#026a9d;}.cls-11,.cls-9{fill:#7bb732;}.cls-10{opacity:0.3;}.cls-13{opacity:0.2;}.cls-14,.cls-15{fill:#fff;}.cls-16{opacity:0.4;}.cls-17{fill:#f8bc9e;}.cls-18{fill:#ec9a6e;}</style></defs><title>private-area</title><g id="Capa_2" data-name="Capa 2"><g id="Background_Complete" data-name="Background Complete"><path class="cls-1" d="M588.66,199.87a30.82,30.82,0,0,1-5.61,5.9l1.46,7.4-11.4,5.05-4.51-6a30.68,30.68,0,0,1-8.13.2l-4.2,6.26-11.64-4.48,1.09-7.46a30.53,30.53,0,0,1-5.9-5.61l-7.4,1.46-5.06-11.41,6-4.51a30.68,30.68,0,0,1-.2-8.13L527,174.3l4.48-11.64,7.46,1.09a30.48,30.48,0,0,1,5.61-5.89l-1.46-7.4,11.41-5.06,4.51,6a30.26,30.26,0,0,1,8.13-.21l4.2-6.26,11.64,4.49-1.09,7.46a30.18,30.18,0,0,1,5.89,5.61l7.4-1.46,5.06,11.4L594.14,177a30.26,30.26,0,0,1,.21,8.13l6.26,4.2L596.12,201l-7.46-1.09Zm-12.6-12.72a13.38,13.38,0,1,0-17.3,7.68A13.38,13.38,0,0,0,576.06,187.15Z"/><path class="cls-2" d="M576.06,187.15a10.07,10.07,0,0,1-1.44,3,13.34,13.34,0,0,1-7.24,5.3,13.5,13.5,0,0,1-6.29.37,13.72,13.72,0,0,1-6.52-3.11,12.89,12.89,0,0,1-2.59-3,12.63,12.63,0,0,1-1.67-3.76,13.64,13.64,0,0,1,5.85-15.19,13,13,0,0,1,3.77-1.66,12.58,12.58,0,0,1,3.92-.48,13.6,13.6,0,0,1,6.93,2.07,13.46,13.46,0,0,1,4.41,4.49A13.32,13.32,0,0,1,577,184a10.19,10.19,0,0,1-.94,3.18,30.28,30.28,0,0,0,.64-3.21,13.34,13.34,0,0,0-2-8.47,13.08,13.08,0,0,0-4.29-4.24,13.25,13.25,0,0,0-6.61-1.91,12.17,12.17,0,0,0-3.71.48,12.34,12.34,0,0,0-3.56,1.6A13,13,0,0,0,551,185.75a12.6,12.6,0,0,0,1.57,3.57,12.37,12.37,0,0,0,2.43,2.84,13.1,13.1,0,0,0,12.2,2.76,13.43,13.43,0,0,0,7.15-4.95A30,30,0,0,0,576.06,187.15Z"/><path class="cls-2" d="M588.66,199.88a1.67,1.67,0,0,1,.47,0l1.42.17,5.59.75-.13.08,4.42-11.67.07.23-6.28-4.17-.11-.07v-.14a30.24,30.24,0,0,0-.23-8.07l0-.15.12-.09,6-4.53-.09.33-5.08-11.39.33.17-7.4,1.48-.18,0-.12-.15a30.08,30.08,0,0,0-5.84-5.54l-.17-.12,0-.2c.34-2.31.71-4.86,1.08-7.46l.22.37-11.65-4.48.42-.13-4.19,6.26-.12.19-.22,0a30.69,30.69,0,0,0-8,.21l-.23,0-.13-.18-4.51-6,.45.12-11.4,5.07.22-.43,1.46,7.4,0,.23-.19.15a29.77,29.77,0,0,0-5.53,5.81h0l-.37.16h-.23l-.23,0-.47-.07-.94-.13-1.87-.28-3.72-.54.41-.24q-2.28,5.89-4.49,11.64l-.14-.45,6.26,4.2.19.12,0,.23a30.35,30.35,0,0,0,.2,8l0,.23-.19.13-6,4.5.12-.44q2.58,5.85,5,11.41l-.39-.2,7.4-1.45.2,0,.13.16a30.25,30.25,0,0,0,5.82,5.56l.16.12,0,.19c-.37,2.56-.74,5-1.1,7.46l-.2-.34,11.63,4.51-.34.11,4.21-6.25.09-.14.17,0a30.72,30.72,0,0,0,8.06-.18l.15,0,.09.13,4.49,6.06L573,218l11.43-5-.1.19c-.56-3-1-5.39-1.41-7.41v-.07l.06-.05a32.09,32.09,0,0,0,4.4-4.24c.41-.51.73-.89,1-1.17a3,3,0,0,1,.32-.38,4.54,4.54,0,0,1-.27.42c-.19.27-.49.68-.92,1.21a29.25,29.25,0,0,1-4.34,4.35l0-.12c.42,2,.91,4.44,1.51,7.39l0,.14-.13,0-11.38,5.11-.17.08-.11-.15-4.52-6,.24.1a31.27,31.27,0,0,1-8.2.23l.26-.12c-1.33,2-2.72,4.06-4.19,6.27l-.13.19-.22-.08-11.65-4.47-.24-.09,0-.25,1.08-7.46.13.32a31,31,0,0,1-6-5.67l.33.12-7.4,1.47-.27.06-.12-.26L527,191.29l-.12-.27.24-.17c2-1.49,4-3,6-4.51l-.14.35a30.58,30.58,0,0,1-.22-8.23l.17.35-6.27-4.19-.25-.17.11-.28q2.22-5.74,4.49-11.65l.11-.29.3.05,3.72.54,1.87.28.94.13.47.07.23,0H539c-.73.31-.2.08-.37.15h0a30.43,30.43,0,0,1,5.67-6l-.13.37-1.46-7.4-.06-.3.28-.12,11.41-5.06.27-.12.18.24,4.5,6.05-.35-.14a31.33,31.33,0,0,1,8.23-.2l-.34.16,4.2-6.26.16-.24.27.11,11.63,4.5.26.1,0,.27c-.38,2.59-.76,5.14-1.1,7.45l-.13-.31a30.73,30.73,0,0,1,5.94,5.68l-.31-.11,7.4-1.45.24-.05.1.22,5,11.42.09.2-.17.13-6.07,4.49.1-.24a30.7,30.7,0,0,1,.18,8.2l-.1-.21,6.25,4.22.13.09-.06.14c-1.85,4.73-3.39,8.64-4.55,11.62l0,.09-.09,0-5.53-.87-1.43-.24Z"/><path class="cls-3" d="M506.32,99.52a43,43,0,0,1-7.93,8.33l2.07,10.46-16.13,7.16L478,116.91a42.92,42.92,0,0,1-11.5.3l-5.94,8.85-16.46-6.35,1.54-10.54a43,43,0,0,1-8.33-7.94l-10.46,2.07-7.16-16.13,8.55-6.37a42.91,42.91,0,0,1-.28-11.5l-8.86-5.94,6.35-16.46L436,48.44a43.61,43.61,0,0,1,7.94-8.33l-2.07-10.46L458,22.49l6.37,8.56a43.32,43.32,0,0,1,11.5-.29l5.94-8.86,16.46,6.35L496.68,38.8A43.26,43.26,0,0,1,505,46.73l10.46-2.07,7.16,16.13-8.56,6.37a43.33,43.33,0,0,1,.29,11.5l8.86,5.94-6.35,16.46-10.55-1.54Zm-17.81-18A18.93,18.93,0,1,0,464,92.39,18.92,18.92,0,0,0,488.51,81.53Z"/><path class="cls-3" d="M588.07,122.25a24,24,0,0,1-4.39,4.61l1.14,5.79-8.93,4-3.52-4.73A24.2,24.2,0,0,1,566,132l-3.29,4.9-9.11-3.51.85-5.84a24.33,24.33,0,0,1-4.61-4.39l-5.79,1.14-4-8.93,4.73-3.53a24.14,24.14,0,0,1-.16-6.36l-4.9-3.29,3.51-9.12,5.84.86a24,24,0,0,1,4.39-4.61l-1.14-5.8,8.93-4,3.53,4.74a23.72,23.72,0,0,1,6.36-.16l3.29-4.9,9.12,3.51-.86,5.84A23.73,23.73,0,0,1,587.34,93l5.8-1.14,4,8.92-4.74,3.53a23.38,23.38,0,0,1,.16,6.37l4.9,3.29-3.51,9.11-5.84-.85Zm-9.86-10a10.48,10.48,0,1,0-13.55,6A10.48,10.48,0,0,0,578.21,112.29Z"/><rect class="cls-2" x="121.61" width="97.85" height="64.33"/><rect class="cls-4" x="125.02" y="2.63" width="90.99" height="58.83"/><rect class="cls-2" x="155.67" y="24.07" width="29.68" height="16.19"/><rect class="cls-2" x="40.31" y="39.94" width="59.28" height="38.97"/><rect class="cls-4" x="42.37" y="41.54" width="55.12" height="35.64"/><rect class="cls-2" x="60.94" y="54.53" width="17.98" height="9.81"/><rect class="cls-2" x="621.25" y="118.68" width="1.82" height="16.29"/><rect class="cls-2" x="681.27" y="118.68" width="1.82" height="16.29"/><rect class="cls-5" x="614.53" y="112.13" width="76.31" height="6.55"/><rect class="cls-6" x="665.25" y="63.1" width="10.52" height="49.04"/><path class="cls-2" d="M672.8,100.37a2.08,2.08,0,1,1-2.08-2.08A2.08,2.08,0,0,1,672.8,100.37Z"/><rect class="cls-2" x="669.02" y="76.09" width="3.22" height="20.04"/><rect class="cls-5" x="654.56" y="63.1" width="10.52" height="49.04"/><path class="cls-4" d="M662.11,100.37A2.08,2.08,0,1,1,660,98.29,2.08,2.08,0,0,1,662.11,100.37Z"/><rect class="cls-4" x="658.33" y="76.09" width="3.22" height="20.04"/><rect class="cls-2" x="644.38" y="63.1" width="10.52" height="49.04"/><path class="cls-4" d="M651.94,100.37a2.09,2.09,0,1,1-2.09-2.08A2.09,2.09,0,0,1,651.94,100.37Z"/><rect class="cls-4" x="648.15" y="76.09" width="3.22" height="20.04"/><polygon class="cls-2" points="631.37 111.39 644.01 68.25 639.65 66.34 626.69 109.82 631.37 111.39"/><path class="cls-1" d="M384.14,27.75a20.2,20.2,0,0,1,3.87,3.8l4.95-.91,3.27,7.66-4.08,3a20.13,20.13,0,0,1,.06,5.43l4.14,2.86-3.1,7.72-5-.8a20.26,20.26,0,0,1-3.8,3.88l.91,5-7.66,3.27-3-4.08a20.47,20.47,0,0,1-5.42.06l-2.86,4.14-7.73-3.11.8-5a20.55,20.55,0,0,1-3.88-3.8l-4.95.9-3.26-7.65,4.07-3a21,21,0,0,1-.06-5.43l-4.13-2.86,3.1-7.72,5,.79A20.45,20.45,0,0,1,359.22,28l-.9-4.95L366,19.8l2.94,4.08a20.13,20.13,0,0,1,5.43-.06l2.86-4.14,7.72,3.1-.79,5ZM375.53,36a8.93,8.93,0,1,0,5,11.62A8.92,8.92,0,0,0,375.53,36Z"/><path class="cls-2" d="M375.53,36a6.9,6.9,0,0,1,2,1A8.89,8.89,0,0,1,381,41.9a9,9,0,0,1,.19,4.2A9.25,9.25,0,0,1,379,50.43a8.53,8.53,0,0,1-2,1.69,8.41,8.41,0,0,1-2.53,1.08,9.12,9.12,0,0,1-10.07-4,8.6,8.6,0,0,1-1.07-2.53,8.72,8.72,0,0,1-.29-2.62,9.09,9.09,0,0,1,4.49-7.51,8.93,8.93,0,0,1,5.88-1.12,6.64,6.64,0,0,1,2.11.65,20.86,20.86,0,0,0-2.14-.45,8.87,8.87,0,0,0-5.66,1.23A8.74,8.74,0,0,0,363.52,44a8.42,8.42,0,0,0,.29,2.48,8.13,8.13,0,0,0,1,2.39,8.65,8.65,0,0,0,9.52,3.83,8.64,8.64,0,0,0,4.32-2.61A8.81,8.81,0,0,0,380.75,46a8.71,8.71,0,0,0-.12-4,8.83,8.83,0,0,0-3.24-4.81A21.27,21.27,0,0,0,375.53,36Z"/><path class="cls-2" d="M384.14,27.75a1.22,1.22,0,0,1,0-.31c0-.23.07-.54.13-1,.13-.86.31-2.1.55-3.72l0,.09-7.74-3.06.16-.05-2.84,4.15-.06.08h-.09A20.72,20.72,0,0,0,369,24l-.1,0-.06-.08-3-4.07.22.06-7.65,3.28.12-.22c.28,1.53.59,3.22.91,4.95l0,.13-.11.07A20.51,20.51,0,0,0,355.6,32l-.08.1-.13,0-5-.79.25-.14-3.09,7.73-.09-.29,4.14,2.86.12.08v.15a20.11,20.11,0,0,0,.06,5.36l0,.15-.12.09-4.08,2.95.09-.3c1,2.42,2.14,5,3.27,7.65l-.28-.15,4.95-.9.15,0,.1.12a19.71,19.71,0,0,0,3.82,3.75h0c0,.11-.1-.25.1.25h0v.14l0,.15,0,.32-.1.62-.2,1.25c-.13.83-.26,1.65-.4,2.47l-.15-.28,7.72,3.11-.3.09,2.86-4.14.09-.12.15,0a20,20,0,0,0,5.36-.06l.15,0,.08.12,2.95,4.08-.29-.08,7.66-3.26-.14.26q-.46-2.52-.9-4.95l0-.14.11-.08a20.32,20.32,0,0,0,3.76-3.83l.09-.11.13,0,5,.81-.23.13,3.12-7.72.07.24-4.13-2.87-.09-.07v-.11a20.53,20.53,0,0,0,0-5.38l0-.1.09-.06,4.08-2.93-.05.18-3.23-7.67.12.07-5,.87h0l0,0a21.42,21.42,0,0,0-2.79-3l-.77-.65-.25-.22.28.19c.18.13.45.33.8.62a19.7,19.7,0,0,1,2.86,2.94l-.08,0,4.94-.94.09,0,0,.09,3.3,7.64.05.11-.1.07-4.07,3,.07-.17a20.79,20.79,0,0,1,.08,5.48l-.08-.18,4.14,2.85.13.09-.06.15-3.08,7.73-.07.16-.17,0-5-.79.21-.09a20.92,20.92,0,0,1-3.83,3.93l.08-.22c.3,1.62.6,3.27.91,5l0,.18-.17.08-7.65,3.27-.18.08-.12-.16-2.95-4.08.24.1a20.58,20.58,0,0,1-5.49.07l.23-.11-2.85,4.14-.12.17-.19-.08-7.72-3.1-.19-.08,0-.2c.13-.82.26-1.65.4-2.47l.2-1.25.1-.62,0-.32,0-.15,0-.08v-.06h0c.2.49.05.13.1.24h0A21,21,0,0,1,355.49,57l.25.09-4.95.9-.2,0-.08-.19-3.27-7.66-.07-.18.16-.12,4.08-2.94-.1.23a20.67,20.67,0,0,1-.06-5.49l.11.23L347.22,39l-.16-.11.08-.18L350.25,31l.07-.17.18,0,5,.81-.21.08a20.68,20.68,0,0,1,3.84-3.91l-.07.21c-.32-1.74-.62-3.42-.9-5l0-.16.15-.06,7.66-3.25.14-.05.08.11,2.94,4.09-.16-.07a20.5,20.5,0,0,1,5.47,0l-.14.06,2.87-4.12.06-.09.1,0L385,22.71l.06,0v.07c-.28,1.59-.49,2.82-.64,3.67-.07.41-.13.72-.17,1S384.14,27.75,384.14,27.75Z"/></g><g id="Floor"><path class="cls-7" d="M701.08,351.38c0,.15-157,.26-350.52.26S0,351.53,0,351.38s156.92-.26,350.56-.26S701.08,351.24,701.08,351.38Z"/></g><g id="Box"><rect class="cls-7" x="638.68" y="282.85" width="60.33" height="60.33"/><rect class="cls-8" x="633.3" y="280.59" width="61.62" height="63.82"/><rect class="cls-7" x="628.77" y="279.28" width="63.82" height="63.82"/><rect class="cls-9" x="623.98" y="278" width="62.96" height="63.59" transform="translate(1.14 -2.4) rotate(0.21)"/><g class="cls-10"><polygon points="628.77 336.05 646.3 303.39 660.47 324.36 669.17 313.28 681.96 336.24 628.77 336.05"/></g><g class="cls-10"><path d="M666.64,297.1a4.53,4.53,0,1,1-4.51-4.75A4.63,4.63,0,0,1,666.64,297.1Z"/></g><g class="cls-10"><path d="M682,336.42s0-.09,0-.26,0-.43,0-.74c0-.68,0-1.63,0-2.86,0-2.53,0-6.17,0-10.8,0-9.29,0-22.52,0-38.4l.25.27L629,283.48a3.84,3.84,0,0,1,.29-.31v3.61c0,1.2,0,2.4,0,3.59,0,2.38,0,4.74,0,7.08,0,4.67,0,9.25-.06,13.7,0,8.91-.08,17.33-.12,25.07l-.26-.27,38.46.28,10.84.11,2.88.05h.75l.26,0h-.23l-.72,0-2.83,0-10.79,0H628.5v-.28c0-7.74,0-16.16.06-25.07,0-4.45,0-9,0-13.7q0-3.51,0-7.08c0-1.19,0-2.39,0-3.59v-3.61l.31-.32,53.19.24h.25v.27c-.11,15.95-.21,29.24-.27,38.57,0,4.6-.08,8.23-.11,10.74,0,1.2,0,2.14,0,2.81,0,.29,0,.53,0,.71A1.85,1.85,0,0,1,682,336.42Z"/></g><path class="cls-8" d="M619.91,307.23v44.39h86.36V307.23Zm35.77,10.32H639a2.53,2.53,0,0,1,0-5.05h16.64a2.53,2.53,0,1,1,0,5.05Z"/><rect class="cls-7" x="678.16" y="307.23" width="28.11" height="44.39"/></g><g id="Device"><path class="cls-7" d="M137.11,88.66H517.68a6.74,6.74,0,0,1,6.74,6.74V335.34a14.57,14.57,0,0,1-14.57,14.57H143.92a14.57,14.57,0,0,1-14.57-14.57V96.41A7.75,7.75,0,0,1,137.11,88.66Z"/><path class="cls-7" d="M112.83,330.59h428a0,0,0,0,1,0,0v9.14a13.72,13.72,0,0,1-13.72,13.72H126.56a13.72,13.72,0,0,1-13.72-13.72v-9.14a0,0,0,0,1,0,0Z"/><rect class="cls-8" x="139.96" y="99.04" width="372.75" height="220.62"/><polygon class="cls-8" points="287.94 330.59 293.25 339.04 367.99 339.04 372.93 330.59 287.94 330.59"/><rect class="cls-8" x="129.42" y="330.51" width="395.07" height="1.26"/><rect class="cls-2" x="176.04" y="104.44" width="354.29" height="209.25"/><path class="cls-11" d="M191.86,204.28a39.86,39.86,0,0,1,7.53,7.37l9.6-1.75,6.34,14.86-7.91,5.72a39.88,39.88,0,0,1,.12,10.53l8,5.55-6,15L199.91,260a39.56,39.56,0,0,1-7.38,7.52l1.76,9.61-14.86,6.34-5.72-7.91a39.53,39.53,0,0,1-10.54.11l-5.55,8-15-6,1.55-9.64a39.51,39.51,0,0,1-7.52-7.37l-9.61,1.75-6.34-14.86,7.91-5.72a39.46,39.46,0,0,1-.11-10.53l-8-5.55,6-15,9.64,1.55a39.27,39.27,0,0,1,7.37-7.53l-1.76-9.61,14.86-6.34,5.73,7.92a39.46,39.46,0,0,1,10.53-.12l5.55-8,15,6-1.55,9.64Zm-16.7,16.08a17.33,17.33,0,1,0,9.62,22.54A17.33,17.33,0,0,0,175.16,220.36Z"/><g class="cls-10"><path class="cls-12" d="M191.86,204.28a39.86,39.86,0,0,1,7.53,7.37l9.6-1.75,6.34,14.86-7.91,5.72a39.88,39.88,0,0,1,.12,10.53l8,5.55-6,15L199.91,260a39.56,39.56,0,0,1-7.38,7.52l1.76,9.61-14.86,6.34-5.72-7.91a39.53,39.53,0,0,1-10.54.11l-5.55,8-15-6,1.55-9.64a39.51,39.51,0,0,1-7.52-7.37l-9.61,1.75-6.34-14.86,7.91-5.72a39.46,39.46,0,0,1-.11-10.53l-8-5.55,6-15,9.64,1.55a39.27,39.27,0,0,1,7.37-7.53l-1.76-9.61,14.86-6.34,5.73,7.92a39.46,39.46,0,0,1,10.53-.12l5.55-8,15,6-1.55,9.64Zm-16.7,16.08a17.33,17.33,0,1,0,9.62,22.54A17.33,17.33,0,0,0,175.16,220.36Z"/></g><path class="cls-11" d="M189.58,137.43a22.09,22.09,0,0,1,4.17,4.08l5.31-1,3.51,8.22-4.38,3.17a21.86,21.86,0,0,1,.07,5.83l4.44,3.08-3.33,8.29-5.34-.85a21.74,21.74,0,0,1-4.08,4.16l1,5.32-8.22,3.51-3.17-4.38a21.86,21.86,0,0,1-5.83.07l-3.08,4.44-8.3-3.33.86-5.34a21.74,21.74,0,0,1-4.16-4.08l-5.32,1-3.51-8.23,4.38-3.16a21.86,21.86,0,0,1-.07-5.83l-4.44-3.08,3.33-8.3,5.34.86a22.09,22.09,0,0,1,4.08-4.17l-1-5.31,8.22-3.52,3.17,4.39a21.86,21.86,0,0,1,5.83-.07l3.08-4.44,8.3,3.33-.86,5.34Zm-9.25,8.9a9.59,9.59,0,1,0,5.33,12.48A9.6,9.6,0,0,0,180.33,146.33Z"/><g class="cls-13"><path class="cls-14" d="M189.58,137.43a22.09,22.09,0,0,1,4.17,4.08l5.31-1,3.51,8.22-4.38,3.17a21.86,21.86,0,0,1,.07,5.83l4.44,3.08-3.33,8.29-5.34-.85a21.74,21.74,0,0,1-4.08,4.16l1,5.32-8.22,3.51-3.17-4.38a21.86,21.86,0,0,1-5.83.07l-3.08,4.44-8.3-3.33.86-5.34a21.74,21.74,0,0,1-4.16-4.08l-5.32,1-3.51-8.23,4.38-3.16a21.86,21.86,0,0,1-.07-5.83l-4.44-3.08,3.33-8.3,5.34.86a22.09,22.09,0,0,1,4.08-4.17l-1-5.31,8.22-3.52,3.17,4.39a21.86,21.86,0,0,1,5.83-.07l3.08-4.44,8.3,3.33-.86,5.34Zm-9.25,8.9a9.59,9.59,0,1,0,5.33,12.48A9.6,9.6,0,0,0,180.33,146.33Z"/></g><rect class="cls-15" x="186.78" y="107.37" width="361.6" height="209.25"/><path class="cls-7" d="M548.38,316.62c0-1.62-.08-80.84-.2-209.25l.2.2-361.57.06h0l.26-.26c0,74.06,0,144.82,0,209.25l-.24-.24,361.6.24-361.6.24h-.24v-.24c0-64.43,0-135.19,0-209.25v-.26h.29l361.57.06h.2v.2C548.46,235.78,548.38,315,548.38,316.62Z"/><path class="cls-7" d="M548.59,121.21c0,.14-81.05.26-181,.26s-181-.12-181-.26,81-.26,181-.26S548.59,121.06,548.59,121.21Z"/><rect class="cls-9" x="210.44" y="225.96" width="74.57" height="72.15"/><g class="cls-10"><polygon points="216.23 291.93 236.85 254.81 253.73 278.54 263.98 265.94 279.23 291.93 216.23 291.93"/></g><g class="cls-10"><path d="M260.91,247.59a5.37,5.37,0,1,1-5.36-5.37A5.36,5.36,0,0,1,260.91,247.59Z"/></g><g class="cls-10"><path d="M279.23,292.13s0-.1,0-.29,0-.49,0-.84c0-.77,0-1.85,0-3.25,0-2.86,0-7-.08-12.25,0-10.54-.09-25.55-.15-43.56l.3.3-63,0c-.08.08.67-.67.35-.34h0v16.18q0,8,0,15.55c0,10.1,0,19.65,0,28.44l-.31-.31,45.55.16,12.85.08,3.41,0,.88,0h.31a1.15,1.15,0,0,1-.27,0l-.85,0-3.35,0-12.78.09-45.75.15h-.31v-.31c0-8.79,0-18.34,0-28.44q0-7.59,0-15.55V232h0c-.32.31.43-.45.36-.37l63,0h.31v.31c-.07,18.09-.12,33.17-.16,43.75,0,5.23-.06,9.34-.08,12.18,0,1.38,0,2.44,0,3.19,0,.34,0,.6,0,.81A1.1,1.1,0,0,1,279.23,292.13Z"/></g><path class="cls-7" d="M450.62,299.67a6.31,6.31,0,0,1,2.5-.26l-.26.26h0v-.49c0-.15,0-.3,0-.47s0-.57.05-.79c.05-.46.11-.74.19-.74s.13.28.18.74c0,.22,0,.49.06.79v1h0l-.26.26A6.11,6.11,0,0,1,450.62,299.67Z"/><path class="cls-7" d="M439.91,299.67a13.94,13.94,0,0,1,5.36,0,13.94,13.94,0,0,1-5.36,0Z"/><path class="cls-7" d="M429.21,299.67a13.89,13.89,0,0,1,5.35,0,13.89,13.89,0,0,1-5.35,0Z"/><path class="cls-7" d="M418.51,299.67a13.89,13.89,0,0,1,5.35,0,13.89,13.89,0,0,1-5.35,0Z"/><path class="cls-7" d="M407.8,299.67a13.94,13.94,0,0,1,5.36,0,13.94,13.94,0,0,1-5.36,0Z"/><path class="cls-7" d="M397.1,299.67a13.89,13.89,0,0,1,5.35,0,13.89,13.89,0,0,1-5.35,0Z"/><path class="cls-7" d="M386.4,299.67a13.89,13.89,0,0,1,5.35,0,13.89,13.89,0,0,1-5.35,0Z"/><path class="cls-7" d="M378.55,297.17a6.31,6.31,0,0,1,.26,2.5l-.26-.26h1l.79.06c.46.05.74.11.74.18s-.28.14-.74.19l-.79.05-.47,0h-.5l-.26-.26A6.11,6.11,0,0,1,378.55,297.17Z"/><path class="cls-7" d="M378.55,286.84a13,13,0,0,1,0,5.17,13,13,0,0,1,0-5.17Z"/><path class="cls-7" d="M378.55,276.51a13,13,0,0,1,0,5.17,13,13,0,0,1,0-5.17Z"/><path class="cls-7" d="M378.55,266.18a13,13,0,0,1,0,5.17,13,13,0,0,1,0-5.17Z"/><path class="cls-7" d="M378.55,255.85a13,13,0,0,1,0,5.17,13,13,0,0,1,0-5.17Z"/><path class="cls-7" d="M378.55,245.52a13,13,0,0,1,0,5.17,13,13,0,0,1,0-5.17Z"/><path class="cls-7" d="M378.55,235.19a13,13,0,0,1,0,5.17,13,13,0,0,1,0-5.17Z"/><path class="cls-7" d="M381.05,227.53a6.31,6.31,0,0,1-2.5.26c.52-.52.14-.15.26-.26h0v1c0,.3,0,.57-.06.8-.05.45-.11.73-.18.73s-.14-.28-.19-.73c0-.23,0-.5-.05-.8l0-.47v-.49h0c.11-.12-.26.26.26-.26A6.11,6.11,0,0,1,381.05,227.53Z"/><path class="cls-7" d="M391.75,227.53a13.89,13.89,0,0,1-5.35,0,13.89,13.89,0,0,1,5.35,0Z"/><path class="cls-7" d="M402.45,227.53a13.89,13.89,0,0,1-5.35,0,13.89,13.89,0,0,1,5.35,0Z"/><path class="cls-7" d="M413.16,227.53a13.94,13.94,0,0,1-5.36,0,13.94,13.94,0,0,1,5.36,0Z"/><path class="cls-7" d="M423.86,227.53a13.89,13.89,0,0,1-5.35,0,13.89,13.89,0,0,1,5.35,0Z"/><path class="cls-7" d="M434.56,227.53a13.89,13.89,0,0,1-5.35,0,13.89,13.89,0,0,1,5.35,0Z"/><path class="cls-7" d="M445.27,227.53a13.94,13.94,0,0,1-5.36,0,13.94,13.94,0,0,1,5.36,0Z"/><path class="cls-7" d="M453.12,230a6.11,6.11,0,0,1-.26-2.5l.26.26h-1c-.3,0-.56,0-.79-.06-.45,0-.73-.11-.73-.18s.28-.14.73-.19l.79-.05.47,0h.51l.26.26A6.31,6.31,0,0,1,453.12,230Z"/><path class="cls-7" d="M453.12,240.36a13,13,0,0,1,0-5.17,13,13,0,0,1,0,5.17Z"/><path class="cls-7" d="M453.12,250.69a13,13,0,0,1,0-5.17,13,13,0,0,1,0,5.17Z"/><path class="cls-7" d="M453.12,261a13,13,0,0,1,0-5.17,13,13,0,0,1,0,5.17Z"/><path class="cls-7" d="M453.12,271.35a13,13,0,0,1,0-5.17,13,13,0,0,1,0,5.17Z"/><path class="cls-7" d="M453.12,281.68a13,13,0,0,1,0-5.17,13,13,0,0,1,0,5.17Z"/><path class="cls-7" d="M453.12,292a13,13,0,0,1,0-5.17,13,13,0,0,1,0,5.17Z"/><rect class="cls-7" x="295.35" y="239.68" width="50.48" height="2.54"/><path class="cls-7" d="M363.37,250.58c0,.14-15.15.26-33.85.26s-33.86-.12-33.86-.26,15.16-.26,33.86-.26S363.37,250.43,363.37,250.58Z"/><path class="cls-7" d="M363.37,257.66c0,.14-15.15.26-33.85.26s-33.86-.12-33.86-.26,15.16-.26,33.86-.26S363.37,257.51,363.37,257.66Z"/><path class="cls-7" d="M363.37,264.74c0,.14-15.15.26-33.85.26s-33.86-.12-33.86-.26,15.16-.27,33.86-.27S363.37,264.59,363.37,264.74Z"/><path class="cls-7" d="M363.37,271.81c0,.15-15.15.26-33.85.26s-33.86-.11-33.86-.26,15.16-.26,33.86-.26S363.37,271.67,363.37,271.81Z"/><path class="cls-7" d="M363.37,278.89c0,.15-15.15.26-33.85.26s-33.86-.11-33.86-.26,15.16-.26,33.86-.26S363.37,278.75,363.37,278.89Z"/><path class="cls-7" d="M330.43,285.4c0,.14-7.78.26-17.38.26s-17.39-.12-17.39-.26,7.78-.26,17.39-.26S330.43,285.25,330.43,285.4Z"/><rect class="cls-7" x="461.59" y="239.68" width="50.48" height="2.54"/><path class="cls-7" d="M529.61,250.58c0,.14-15.16.26-33.85.26s-33.86-.12-33.86-.26,15.15-.26,33.86-.26S529.61,250.43,529.61,250.58Z"/><path class="cls-7" d="M529.61,257.66c0,.14-15.16.26-33.85.26s-33.86-.12-33.86-.26,15.15-.26,33.86-.26S529.61,257.51,529.61,257.66Z"/><path class="cls-7" d="M529.61,264.74c0,.14-15.16.26-33.85.26s-33.86-.12-33.86-.26,15.15-.27,33.86-.27S529.61,264.59,529.61,264.74Z"/><path class="cls-7" d="M529.61,271.81c0,.15-15.16.26-33.85.26s-33.86-.11-33.86-.26,15.15-.26,33.86-.26S529.61,271.67,529.61,271.81Z"/><path class="cls-7" d="M529.61,278.89c0,.15-15.16.26-33.85.26s-33.86-.11-33.86-.26,15.15-.26,33.86-.26S529.61,278.75,529.61,278.89Z"/><path class="cls-7" d="M496.67,285.4c0,.14-7.79.26-17.39.26s-17.38-.12-17.38-.26,7.78-.26,17.38-.26S496.67,285.25,496.67,285.4Z"/><path class="cls-2" d="M512.61,212.45a12.15,12.15,0,0,1,5,0,12.15,12.15,0,0,1-5,0Z"/><path class="cls-2" d="M502.61,212.45a12.15,12.15,0,0,1,5,0,12.15,12.15,0,0,1-5,0Z"/><path class="cls-2" d="M492.61,212.45a12.15,12.15,0,0,1,5,0,12.15,12.15,0,0,1-5,0Z"/><path class="cls-2" d="M482.61,212.45a12.15,12.15,0,0,1,5,0,12.15,12.15,0,0,1-5,0Z"/><path class="cls-2" d="M472.61,212.45a12.15,12.15,0,0,1,5,0,12.15,12.15,0,0,1-5,0Z"/><path class="cls-2" d="M462.61,212.45a12.15,12.15,0,0,1,5,0,12.15,12.15,0,0,1-5,0Z"/><path class="cls-2" d="M452.61,212.45a12.15,12.15,0,0,1,5,0,12.15,12.15,0,0,1-5,0Z"/><path class="cls-2" d="M442.61,212.45a12.15,12.15,0,0,1,5,0,12.15,12.15,0,0,1-5,0Z"/><path class="cls-2" d="M432.61,212.45a12.15,12.15,0,0,1,5,0,12.15,12.15,0,0,1-5,0Z"/><path class="cls-2" d="M422.61,212.45a12.15,12.15,0,0,1,5,0,12.15,12.15,0,0,1-5,0Z"/><path class="cls-2" d="M412.61,212.45a12.15,12.15,0,0,1,5,0,12.15,12.15,0,0,1-5,0Z"/><path class="cls-2" d="M402.61,212.45a12.15,12.15,0,0,1,5,0,12.15,12.15,0,0,1-5,0Z"/><path class="cls-2" d="M392.61,212.45a12.15,12.15,0,0,1,5,0,12.15,12.15,0,0,1-5,0Z"/><path class="cls-2" d="M382.61,212.45a12.15,12.15,0,0,1,5,0,12.15,12.15,0,0,1-5,0Z"/><path class="cls-2" d="M372.61,212.45a12.15,12.15,0,0,1,5,0,12.15,12.15,0,0,1-5,0Z"/><path class="cls-2" d="M362.61,212.45a12.15,12.15,0,0,1,5,0,12.15,12.15,0,0,1-5,0Z"/><path class="cls-2" d="M352.61,212.45a12.15,12.15,0,0,1,5,0,12.15,12.15,0,0,1-5,0Z"/><path class="cls-2" d="M342.61,212.45a12.15,12.15,0,0,1,5,0,12.15,12.15,0,0,1-5,0Z"/><path class="cls-2" d="M332.61,212.45a12.15,12.15,0,0,1,5,0,12.15,12.15,0,0,1-5,0Z"/><path class="cls-2" d="M322.61,212.45a12.15,12.15,0,0,1,5,0,12.15,12.15,0,0,1-5,0Z"/><path class="cls-2" d="M312.61,212.45a12.15,12.15,0,0,1,5,0,12.15,12.15,0,0,1-5,0Z"/><path class="cls-2" d="M302.61,212.45a12.15,12.15,0,0,1,5,0,12.15,12.15,0,0,1-5,0Z"/><path class="cls-2" d="M292.61,212.45a12.15,12.15,0,0,1,5,0,12.15,12.15,0,0,1-5,0Z"/><path class="cls-2" d="M282.61,212.45a12.15,12.15,0,0,1,5,0,12.15,12.15,0,0,1-5,0Z"/><path class="cls-2" d="M272.61,212.45a12.15,12.15,0,0,1,5,0,12.15,12.15,0,0,1-5,0Z"/><path class="cls-2" d="M262.61,212.45a12.15,12.15,0,0,1,5,0,12.15,12.15,0,0,1-5,0Z"/><path class="cls-2" d="M252.61,212.45a12.15,12.15,0,0,1,5,0,12.15,12.15,0,0,1-5,0Z"/><path class="cls-2" d="M242.61,212.45a12.15,12.15,0,0,1,5,0,12.15,12.15,0,0,1-5,0Z"/><path class="cls-2" d="M232.61,212.45a12.15,12.15,0,0,1,5,0,12.15,12.15,0,0,1-5,0Z"/><path class="cls-2" d="M222.61,212.45a12.15,12.15,0,0,1,5,0,12.15,12.15,0,0,1-5,0Z"/><path class="cls-2" d="M212.61,212.45a12.15,12.15,0,0,1,5,0,12.15,12.15,0,0,1-5,0Z"/><path class="cls-2" d="M206.32,208.74a6.31,6.31,0,0,1,.26,2.5c0,.44,0,.86,0,1.21l-.22-.23c.77,0,1.29.13,1.29.23s-.52.18-1.29.23h-.22v-.24c0-.35,0-.77,0-1.21A6.11,6.11,0,0,1,206.32,208.74Z"/><path class="cls-2" d="M206.32,198.74a12.15,12.15,0,0,1,0,5,12.15,12.15,0,0,1,0-5Z"/><path class="cls-2" d="M206.32,188.74a12.15,12.15,0,0,1,0,5,12.15,12.15,0,0,1,0-5Z"/><path class="cls-2" d="M206.32,178.74a12.15,12.15,0,0,1,0,5,12.15,12.15,0,0,1,0-5Z"/><path class="cls-2" d="M206.32,168.74a12.15,12.15,0,0,1,0,5,12.15,12.15,0,0,1,0-5Z"/><path class="cls-2" d="M206.32,158.74a12.15,12.15,0,0,1,0,5,12.15,12.15,0,0,1,0-5Z"/><path class="cls-2" d="M206.32,148.74a12.15,12.15,0,0,1,0,5,12.15,12.15,0,0,1,0-5Z"/><path class="cls-2" d="M212.66,145.08a12.15,12.15,0,0,1-5,0,12.15,12.15,0,0,1,5,0Z"/><path class="cls-2" d="M222.66,145.08a12.15,12.15,0,0,1-5,0,12.15,12.15,0,0,1,5,0Z"/><path class="cls-2" d="M232.66,145.08a12.15,12.15,0,0,1-5,0,12.15,12.15,0,0,1,5,0Z"/><path class="cls-2" d="M242.66,145.08a12.15,12.15,0,0,1-5,0,12.15,12.15,0,0,1,5,0Z"/><path class="cls-2" d="M252.66,145.08a12.15,12.15,0,0,1-5,0,12.15,12.15,0,0,1,5,0Z"/><path class="cls-2" d="M262.66,145.08a12.15,12.15,0,0,1-5,0,12.15,12.15,0,0,1,5,0Z"/><path class="cls-2" d="M272.66,145.08a12.15,12.15,0,0,1-5,0,12.15,12.15,0,0,1,5,0Z"/><path class="cls-2" d="M282.66,145.08a12.15,12.15,0,0,1-5,0,12.15,12.15,0,0,1,5,0Z"/><path class="cls-2" d="M292.66,145.08a12.15,12.15,0,0,1-5,0,12.15,12.15,0,0,1,5,0Z"/><path class="cls-2" d="M302.66,145.08a12.15,12.15,0,0,1-5,0,12.15,12.15,0,0,1,5,0Z"/><path class="cls-2" d="M312.66,145.08a12.15,12.15,0,0,1-5,0,12.15,12.15,0,0,1,5,0Z"/><path class="cls-2" d="M322.66,145.08a12.15,12.15,0,0,1-5,0,12.15,12.15,0,0,1,5,0Z"/><path class="cls-2" d="M332.66,145.08a12.15,12.15,0,0,1-5,0,12.15,12.15,0,0,1,5,0Z"/><path class="cls-2" d="M342.66,145.08a12.15,12.15,0,0,1-5,0,12.15,12.15,0,0,1,5,0Z"/><path class="cls-2" d="M352.66,145.08a12.15,12.15,0,0,1-5,0,12.15,12.15,0,0,1,5,0Z"/><path class="cls-2" d="M362.66,145.08a12.15,12.15,0,0,1-5,0,12.15,12.15,0,0,1,5,0Z"/><path class="cls-2" d="M372.66,145.08a12.15,12.15,0,0,1-5,0,12.15,12.15,0,0,1,5,0Z"/><path class="cls-2" d="M382.66,145.08a12.15,12.15,0,0,1-5,0,12.15,12.15,0,0,1,5,0Z"/><path class="cls-2" d="M392.66,145.08a12.15,12.15,0,0,1-5,0,12.15,12.15,0,0,1,5,0Z"/><path class="cls-2" d="M402.66,145.08a12.15,12.15,0,0,1-5,0,12.15,12.15,0,0,1,5,0Z"/><path class="cls-2" d="M412.66,145.08a12.15,12.15,0,0,1-5,0,12.15,12.15,0,0,1,5,0Z"/><path class="cls-2" d="M422.66,145.08a12.15,12.15,0,0,1-5,0,12.15,12.15,0,0,1,5,0Z"/><path class="cls-2" d="M432.66,145.08a12.15,12.15,0,0,1-5,0,12.15,12.15,0,0,1,5,0Z"/><path class="cls-2" d="M442.66,145.08a12.15,12.15,0,0,1-5,0,12.15,12.15,0,0,1,5,0Z"/><path class="cls-2" d="M452.66,145.08a12.15,12.15,0,0,1-5,0,12.15,12.15,0,0,1,5,0Z"/><path class="cls-2" d="M462.66,145.08a12.15,12.15,0,0,1-5,0,12.15,12.15,0,0,1,5,0Z"/><path class="cls-2" d="M472.66,145.08a12.15,12.15,0,0,1-5,0,12.15,12.15,0,0,1,5,0Z"/><path class="cls-2" d="M482.66,145.08a12.15,12.15,0,0,1-5,0,12.15,12.15,0,0,1,5,0Z"/><path class="cls-2" d="M492.66,145.08a12.15,12.15,0,0,1-5,0,12.15,12.15,0,0,1,5,0Z"/><path class="cls-2" d="M502.66,145.08a12.15,12.15,0,0,1-5,0,12.15,12.15,0,0,1,5,0Z"/><path class="cls-2" d="M512.66,145.08a12.15,12.15,0,0,1-5,0,12.15,12.15,0,0,1,5,0Z"/><path class="cls-2" d="M517.61,150.13a12.15,12.15,0,0,1,0-5,12.15,12.15,0,0,1,0,5Z"/><path class="cls-2" d="M517.61,160.13a12.15,12.15,0,0,1,0-5,12.15,12.15,0,0,1,0,5Z"/><path class="cls-2" d="M517.61,170.13a12.15,12.15,0,0,1,0-5,12.15,12.15,0,0,1,0,5Z"/><path class="cls-2" d="M517.61,180.13a12.15,12.15,0,0,1,0-5,12.15,12.15,0,0,1,0,5Z"/><path class="cls-2" d="M517.61,190.13a12.15,12.15,0,0,1,0-5,12.15,12.15,0,0,1,0,5Z"/><path class="cls-2" d="M517.61,200.13a12.15,12.15,0,0,1,0-5,12.15,12.15,0,0,1,0,5Z"/><path class="cls-2" d="M517.61,210.13a12.15,12.15,0,0,1,0-5,12.15,12.15,0,0,1,0,5Z"/><rect class="cls-9" x="210.84" y="142.02" width="314.33" height="66.06"/><rect class="cls-15" x="320.74" y="169.02" width="94.54" height="9.75"/><path class="cls-7" d="M415.31,178.79h-94.6V169h94.6Zm-94.55,0h94.49V169H320.76Z"/><path class="cls-4" d="M446.76,187.42c0,.15-35.26.26-78.75.26s-78.75-.11-78.75-.26,35.25-.26,78.75-.26S446.76,187.28,446.76,187.42Z"/><path class="cls-15" d="M265.4,207.59a3.69,3.69,0,0,0,1.18-.57,8.47,8.47,0,0,0,1.24-1,6.38,6.38,0,0,0,1.3-1.75,2.63,2.63,0,0,0,.27-1.27,4.84,4.84,0,0,0-.39-1.39,14.34,14.34,0,0,1-.54-1.44,4.2,4.2,0,0,1-.11-1.63,11.76,11.76,0,0,0,.27-3.71,10.88,10.88,0,0,0-1.86-3.73A8.82,8.82,0,0,1,265,187c-.15-1.57.23-3.22,0-5s-1.21-3.31-1.86-5a7.1,7.1,0,0,1-.54-2.66c0-.93.15-1.87.16-2.85a18.78,18.78,0,0,0-1.32-5.79c-.32-.95-.64-1.92-1-2.9a14.72,14.72,0,0,1-.79-3,27.18,27.18,0,0,1-.2-3.15,9.21,9.21,0,0,0-.14-1.63,15.55,15.55,0,0,0-.54-1.54,19.32,19.32,0,0,0-1.49-2.94c-.58-.94-1.21-1.85-1.78-2.8l-.1-.16-.11-.19-.14.17a7.41,7.41,0,0,0-1.42,3,11.77,11.77,0,0,0-.22,3.29,36.26,36.26,0,0,0,1.26,6.27,16.93,16.93,0,0,1,.63,6c-.12,1-.37,1.95-.53,2.93a6.87,6.87,0,0,0,.06,3c.59,1.94,2.33,3.08,2.87,4.8a6.21,6.21,0,0,1,.24,2.6c-.07.87-.24,1.72-.38,2.57a13.52,13.52,0,0,0-.24,2.52,6.71,6.71,0,0,0,.46,2.41c.57,1.51,1.41,2.79,1.9,4.15a10.58,10.58,0,0,1,.57,4c0,1.3-.17,2.53-.23,3.68a15.81,15.81,0,0,0,0,1.68,7.62,7.62,0,0,0,.24,1.54,9.3,9.3,0,0,0,1.11,2.48,6.79,6.79,0,0,0,2.68,2.57,3.09,3.09,0,0,0,.52.22,2.17,2.17,0,0,0,.39.11l.33.06a6.31,6.31,0,0,1-1.22-.44,6.87,6.87,0,0,1-2.6-2.58,9.6,9.6,0,0,1-1.07-2.46,8,8,0,0,1-.23-1.51,15.64,15.64,0,0,1,0-1.66c.06-1.15.21-2.37.25-3.69a10.68,10.68,0,0,0-.56-4.12c-.5-1.38-1.33-2.68-1.88-4.15a6.74,6.74,0,0,1-.44-2.33,13.29,13.29,0,0,1,.25-2.48c.14-.84.31-1.7.39-2.59a6.44,6.44,0,0,0-.25-2.71c-.58-1.82-2.32-3-2.85-4.79a6.42,6.42,0,0,1,0-2.83c.15-1,.4-1.93.53-2.94a17.19,17.19,0,0,0-.63-6.15,35,35,0,0,1-1.24-6.22,11.12,11.12,0,0,1,.21-3.2,7.08,7.08,0,0,1,1.36-2.91l-.25,0,.1.17c.57,1,1.21,1.87,1.78,2.8a19.16,19.16,0,0,1,1.47,2.89c.19.49.39,1,.53,1.5a10.08,10.08,0,0,1,.13,1.57,28.13,28.13,0,0,0,.2,3.18,15.89,15.89,0,0,0,.81,3c.32,1,.64,2,1,2.9a18.11,18.11,0,0,1,1.31,5.7c0,.95-.15,1.89-.15,2.85a7.27,7.27,0,0,0,.57,2.75c.67,1.71,1.64,3.24,1.86,4.92s-.15,3.34,0,5a9.09,9.09,0,0,0,1.82,4.2,10.77,10.77,0,0,1,1.85,3.65,11.59,11.59,0,0,1-.25,3.65,4.33,4.33,0,0,0,.13,1.69,13.06,13.06,0,0,0,.56,1.46,5,5,0,0,1,.39,1.34,2.46,2.46,0,0,1-.25,1.21,6.72,6.72,0,0,1-1.25,1.74,8.07,8.07,0,0,1-1.22,1,7.7,7.7,0,0,1-.83.49Z"/><path class="cls-15" d="M255.65,150.44s0,.05,0,.15l.09.43c.07.38.2.94.34,1.66s.06,1.62.14,2.67a34.54,34.54,0,0,0,.38,3.53c.2,1.31.5,2.72.82,4.23A17.26,17.26,0,0,1,258,168c0,.87-.1,1.76-.06,2.68a11.08,11.08,0,0,0,.51,2.77,54.82,54.82,0,0,1,1.48,5.65c.76,3.94,1.48,7.69,2.14,11.1s1.22,6.49,1.7,9.08l1.17,6.12.33,1.66.1.43a1,1,0,0,0,0,.14s0-.05,0-.15l-.06-.44c-.07-.4-.16-1-.28-1.67-.26-1.47-.63-3.56-1.08-6.13s-1-5.67-1.63-9.09S261,182.94,260.21,179a52.94,52.94,0,0,0-1.48-5.68,10.64,10.64,0,0,1-.51-2.69c-.05-.9,0-1.79,0-2.66a17.87,17.87,0,0,0-.59-4.91c-.34-1.51-.64-2.92-.86-4.21a34.85,34.85,0,0,1-.42-3.51c-.09-1,0-1.94-.2-2.68s-.3-1.27-.39-1.65l-.12-.42A1,1,0,0,0,255.65,150.44Z"/><path class="cls-4" d="M266.11,207.13a4.5,4.5,0,0,1-1.52.58,9.1,9.1,0,0,1-4.66-.05,3.36,3.36,0,0,1-1.41-.85,6.55,6.55,0,0,1-.92-1.54,16,16,0,0,0-.84-1.72,5.22,5.22,0,0,0-1.37-1.49c-1.1-.87-2.62-1.51-3.59-2.93a13.56,13.56,0,0,1-1.78-4.89,10.88,10.88,0,0,0-2.2-5.08c-1.27-1.47-3.1-2.54-4.48-4.25s-2-3.95-2.91-6a8.62,8.62,0,0,0-1.93-2.74c-.84-.79-1.82-1.46-2.71-2.29-1.81-1.7-2.92-4-4.11-6.17-.59-1.11-1.19-2.22-1.8-3.35a17.5,17.5,0,0,0-2-3.25,34.13,34.13,0,0,0-2.67-2.87,10.63,10.63,0,0,1-1.35-1.54,19.67,19.67,0,0,1-.93-1.83,23.71,23.71,0,0,1-1.37-3.87c-.36-1.33-.63-2.68-1-4l0-.16-.1-.36.37,0a11.27,11.27,0,0,1,7.16,4,44.12,44.12,0,0,1,4.59,6.53,20.93,20.93,0,0,0,4.91,5.71c1,.74,2.08,1.34,3.1,2a8.43,8.43,0,0,1,2.63,2.62c1.24,2.24.77,4.79,1.88,6.71a7.63,7.63,0,0,0,2.15,2.41c.85.68,1.76,1.25,2.64,1.85a16.6,16.6,0,0,1,2.49,2,8.62,8.62,0,0,1,1.77,2.51c.87,1.82,1.31,3.68,2.11,5.27a13.1,13.1,0,0,0,3.18,3.94c1.21,1.08,2.44,2,3.53,3a11.24,11.24,0,0,1,2.69,3,12.25,12.25,0,0,1,1.27,3.14,8.56,8.56,0,0,1,0,4.64,4.25,4.25,0,0,1-.49,1.11,1.59,1.59,0,0,1-.23.34,8,8,0,0,0,.62-1.48,8.66,8.66,0,0,0-.12-4.56,12,12,0,0,0-1.3-3.07,11.05,11.05,0,0,0-2.66-2.9c-1.09-.93-2.33-1.85-3.56-2.93a13.56,13.56,0,0,1-3.29-4c-.84-1.64-1.29-3.51-2.14-5.26a10.54,10.54,0,0,0-4.14-4.3c-.88-.59-1.8-1.17-2.68-1.86a8.1,8.1,0,0,1-2.27-2.55c-1.18-2.1-.73-4.67-1.9-6.68a7.87,7.87,0,0,0-2.48-2.46c-1-.68-2.09-1.28-3.12-2a21.17,21.17,0,0,1-5-5.84,44.87,44.87,0,0,0-4.55-6.44,10.74,10.74,0,0,0-6.82-3.8l.27-.33,0,.17c.38,1.34.66,2.7,1,4a23.44,23.44,0,0,0,1.34,3.8c.28.6.57,1.22.89,1.76a10.88,10.88,0,0,0,1.28,1.46,33.82,33.82,0,0,1,2.71,2.91,17.83,17.83,0,0,1,2.06,3.33c.61,1.13,1.21,2.24,1.8,3.35,1.19,2.21,2.28,4.44,4,6.06.85.8,1.83,1.48,2.7,2.3a9.06,9.06,0,0,1,2,2.88c1,2.08,1.53,4.25,2.84,5.89s3.12,2.72,4.44,4.25a11.33,11.33,0,0,1,2.26,5.26,13.41,13.41,0,0,0,1.69,4.79c.9,1.34,2.36,2,3.5,2.89a5.59,5.59,0,0,1,1.42,1.58,16.28,16.28,0,0,1,.84,1.75,5.72,5.72,0,0,0,.86,1.5,3.2,3.2,0,0,0,1.3.81,9.24,9.24,0,0,0,4.58.14A8.54,8.54,0,0,0,266.11,207.13Z"/><path class="cls-15" d="M222.88,149.43a1.43,1.43,0,0,0,.1.16l.29.47c.26.4.63,1,1.15,1.76s1.4,1.49,2.25,2.46,1.83,2.08,2.82,3.39,2,2.77,3.06,4.37a22.2,22.2,0,0,0,3.93,4.73c.81.72,1.67,1.42,2.45,2.23a13.39,13.39,0,0,1,2,2.77,70.45,70.45,0,0,0,3.85,6.19c2.92,4,5.69,7.91,8.21,11.43l6.8,9.25,4.61,6.23,1.26,1.68.34.44.12.14s0-.06-.1-.16-.18-.27-.31-.45l-1.21-1.72c-1.09-1.5-2.63-3.64-4.53-6.28l-6.75-9.3c-2.52-3.51-5.28-7.38-8.18-11.43a68.74,68.74,0,0,1-3.85-6.17,14.17,14.17,0,0,0-2-2.83c-.8-.82-1.66-1.52-2.47-2.23a22.26,22.26,0,0,1-3.91-4.67c-1.08-1.58-2.1-3.06-3.1-4.35s-2-2.43-2.86-3.38-1.74-1.68-2.28-2.41-.92-1.34-1.2-1.73l-.32-.44A.63.63,0,0,0,222.88,149.43Z"/><path class="cls-7" d="M256.83,208.09a4.92,4.92,0,0,1-.18-.69,5.69,5.69,0,0,0-.81-1.84,6.83,6.83,0,0,0-2.46-2,26.43,26.43,0,0,1-3.78-2.06,16.23,16.23,0,0,1-1.9-1.67c-.3-.32-.62-.61-.93-1a6.51,6.51,0,0,1-.78-1.2c-.86-1.73-1-3.82-2.09-5.55A11.82,11.82,0,0,0,239,188c-2-1.06-4.23-1.95-6.33-3.24a14.08,14.08,0,0,1-2.83-2.31,12.44,12.44,0,0,1-2-3,46.21,46.21,0,0,1-2.17-6.26,22.15,22.15,0,0,0-2.31-5.43,15.19,15.19,0,0,0-3.46-3.76,15.67,15.67,0,0,0-6.75-3c-1.74-.32-2.74-.25-2.74-.32a5.07,5.07,0,0,1,.72,0,6.87,6.87,0,0,1,.87,0,9.41,9.41,0,0,1,1.18.13,15.45,15.45,0,0,1,6.94,2.94,15.22,15.22,0,0,1,3.6,3.82,21.88,21.88,0,0,1,2.41,5.51,47.61,47.61,0,0,0,2.17,6.19,11.83,11.83,0,0,0,1.88,2.85,13.39,13.39,0,0,0,2.72,2.22c2,1.26,4.25,2.15,6.29,3.22a12.36,12.36,0,0,1,5.07,4.3c1.15,1.88,1.26,4,2.07,5.61a7.3,7.3,0,0,0,1.61,2.08,16.45,16.45,0,0,0,1.83,1.66,27.6,27.6,0,0,0,3.71,2.1,6.83,6.83,0,0,1,2.48,2.13,5.31,5.31,0,0,1,.74,1.92c.05.24.06.41.08.53S256.84,208.09,256.83,208.09Z"/><path class="cls-7" d="M250.63,208.09a2.18,2.18,0,0,1-.44-.21l-1.2-.69c-1-.6-2.51-1.52-4.3-2.7a136.82,136.82,0,0,1-13.42-10.07,146.76,146.76,0,0,1-12.1-11.62c-1.45-1.58-2.6-2.88-3.37-3.81l-.88-1.06c-.2-.25-.3-.38-.28-.4a2.23,2.23,0,0,1,.36.33l.95,1c.81.88,2,2.14,3.49,3.68,3,3.09,7.2,7.24,12.17,11.48a165.87,165.87,0,0,0,13.28,10.16c1.77,1.22,3.21,2.18,4.21,2.84l1.15.77C250.51,208,250.64,208.07,250.63,208.09Z"/><path class="cls-4" d="M276,169.29s.21-.13.66-.12a2.61,2.61,0,0,1,1.7.72,2.76,2.76,0,0,1,.73,1.1,2.43,2.43,0,0,1,0,1.53,2.82,2.82,0,0,1-2.72,1.93,2.78,2.78,0,0,1-2.45-2.25,2.33,2.33,0,0,1,.21-1.53,2.63,2.63,0,0,1,.89-1,2.55,2.55,0,0,1,1.8-.41c.44.08.64.23.63.26s-.24-.05-.65-.06a2.55,2.55,0,0,0-1.57.52,2,2,0,0,0-.84,2.09,2.18,2.18,0,0,0,4.24.26,2.09,2.09,0,0,0-.52-2.21,2.63,2.63,0,0,0-1.46-.78C276.22,169.3,276,169.34,276,169.29Z"/><path class="cls-4" d="M274.71,190.8c0-.06.25-.23.61,0a.82.82,0,0,1,.33.68.81.81,0,0,1-.63.71.77.77,0,0,1-.94-1.06c.18-.4.52-.4.52-.33s-.15.19-.17.44.12.54.46.45.34-.4.18-.62S274.72,190.88,274.71,190.8Z"/><path class="cls-4" d="M246.11,157.43c0,.08-.19.18-.26.47a.47.47,0,1,0,.86-.06c-.12-.28-.34-.35-.33-.43s.33-.15.64.23a.9.9,0,0,1,.17.8,1,1,0,0,1-1.73.12.89.89,0,0,1,0-.81C245.76,157.34,246.12,157.37,246.11,157.43Z"/><path class="cls-4" d="M455.6,151.06a2,2,0,0,0-.81.74,4.3,4.3,0,0,0-.25,3.17,25.39,25.39,0,0,0,1.92,4.9,70.79,70.79,0,0,0,3.27,6.33v0h0a2.11,2.11,0,0,1,.08.75,1,1,0,0,1-.38.73,2.8,2.8,0,0,1-1.51.21,10.43,10.43,0,0,0-1.48,0,1.84,1.84,0,0,0-1.27.52,1.74,1.74,0,0,0-.27,1.36,3,3,0,0,0,.75,1.33,15.27,15.27,0,0,0,2.68,2l3,2,1.53,1,.78.54a1.3,1.3,0,0,1,.68.86.62.62,0,0,1-.3.62,1.56,1.56,0,0,1-.54.18l-1,.14a15.7,15.7,0,0,0-1.91.37,6.15,6.15,0,0,0-1.79.74,1.54,1.54,0,0,0-.81,1.49,3.21,3.21,0,0,0,1,1.64,11.46,11.46,0,0,0,1.6,1.32,26.49,26.49,0,0,0,3.74,2.09,6,6,0,0,1,1,.54.92.92,0,0,1,.37.63.61.61,0,0,1,0,.19.49.49,0,0,1-.06.23.64.64,0,0,1-.38.25,14.14,14.14,0,0,1-2.29.17,11.51,11.51,0,0,0-2.21.24c-.69.15-1.45.47-1.56,1.08a2.3,2.3,0,0,0,.88,1.8,8.86,8.86,0,0,0,1.8,1.4,19.28,19.28,0,0,0,4.28,1.94,34.15,34.15,0,0,0,4.66,1.17c.79.17,1.61.21,2.42.31l2.46.25h0l-.23.1c.49-.66,1-1.32,1.48-2a24.16,24.16,0,0,0,1.41-2,33.94,33.94,0,0,0,2.29-4.23,19.7,19.7,0,0,0,1.45-4.46,9.29,9.29,0,0,0,.19-2.28,2.29,2.29,0,0,0-.74-1.86c-.52-.33-1.27,0-1.85.42a11.5,11.5,0,0,0-1.67,1.47,14,14,0,0,1-1.67,1.57.61.61,0,0,1-.45.11.54.54,0,0,1-.21-.11.75.75,0,0,1-.14-.12,1,1,0,0,1-.21-.7,5.52,5.52,0,0,1,.3-1.12,27.48,27.48,0,0,0,1-4.18,12,12,0,0,0,.1-2.06,3.13,3.13,0,0,0-.57-1.82,1.53,1.53,0,0,0-1.65-.4,5.89,5.89,0,0,0-1.74.82,16.31,16.31,0,0,0-1.57,1.16l-.76.62a1.54,1.54,0,0,1-.49.28.63.63,0,0,1-.66-.2,1.37,1.37,0,0,1-.18-1.09l.13-.93c.09-.62.17-1.24.26-1.85.17-1.21.34-2.4.5-3.56a15.75,15.75,0,0,0,.29-3.36,3.07,3.07,0,0,0-.47-1.45,1.72,1.72,0,0,0-1.19-.72,1.91,1.91,0,0,0-1.25.58c-.36.33-.68.71-1,1.08s-.59.81-1.18,1a1,1,0,0,1-.78-.21,1.94,1.94,0,0,1-.5-.57h0v0a69.21,69.21,0,0,0-2.46-6.67,26.65,26.65,0,0,0-2.31-4.72,4.4,4.4,0,0,0-2.47-2,1.9,1.9,0,0,0-1.1.07,1,1,0,0,1,.26-.12,1.9,1.9,0,0,1,.86,0,4.46,4.46,0,0,1,2.59,2,27,27,0,0,1,2.4,4.72,69.09,69.09,0,0,1,2.53,6.68v0c.21.34.59.69.95.61s.67-.53,1-.88a13.25,13.25,0,0,1,1-1.12,2.24,2.24,0,0,1,1.5-.68,2.09,2.09,0,0,1,1.47.86,3.45,3.45,0,0,1,.55,1.63,14.93,14.93,0,0,1-.28,3.46c-.15,1.16-.31,2.34-.48,3.56-.08.61-.16,1.22-.25,1.84l-.12.94a1.27,1.27,0,0,0,0,.42.62.62,0,0,0,.11.33c.08.13.31.06.55-.15l.75-.62a18,18,0,0,1,1.6-1.19,6.38,6.38,0,0,1,1.88-.89,2,2,0,0,1,2.11.55,3.51,3.51,0,0,1,.69,2.08,11.94,11.94,0,0,1-.1,2.16,26.55,26.55,0,0,1-1,4.26,5.89,5.89,0,0,0-.27,1,.49.49,0,0,0,.09.34l.07.06,0,0h0c0,.05.07-.1-.06.12l0,0s0,0,0,0,0-.08,0-.06h0l.08,0a14.6,14.6,0,0,0,1.58-1.5,12.19,12.19,0,0,1,1.73-1.54,4,4,0,0,1,1.09-.55,1.58,1.58,0,0,1,1.32.12,1.84,1.84,0,0,1,.77,1.05,5.12,5.12,0,0,1,.21,1.21,10.15,10.15,0,0,1-.19,2.4,20.78,20.78,0,0,1-1.49,4.58,34.6,34.6,0,0,1-2.33,4.31,23.48,23.48,0,0,1-1.42,2l-1.49,2-.09.12-.14,0h0l-2.47-.26a22.29,22.29,0,0,1-2.44-.31,34,34,0,0,1-4.75-1.19,20.88,20.88,0,0,1-4.38-2,9.71,9.71,0,0,1-1.9-1.48,5.12,5.12,0,0,1-.75-1,1.88,1.88,0,0,1-.26-1.28,1.62,1.62,0,0,1,.81-1.05,3.77,3.77,0,0,1,1.14-.43,12.08,12.08,0,0,1,2.3-.25,13.53,13.53,0,0,0,2.17-.15.24.24,0,0,0,.09,0s0,0,0,0l.05,0,0,0,0,0s-.24-.06-.13,0h0v0a.28.28,0,0,0,0-.09.44.44,0,0,0-.2-.29,4.93,4.93,0,0,0-.92-.48,28.32,28.32,0,0,1-3.81-2.15,12.16,12.16,0,0,1-1.66-1.38,3.58,3.58,0,0,1-1.08-1.92,2,2,0,0,1,1-1.92,6.53,6.53,0,0,1,1.92-.8,17.46,17.46,0,0,1,2-.37l1-.14c.32,0,.52-.15.48-.3a.71.71,0,0,0-.16-.31,2.13,2.13,0,0,0-.34-.26l-.77-.54-1.53-1.06-2.95-2.05a15.78,15.78,0,0,1-2.74-2.12,3.35,3.35,0,0,1-.83-1.51,2.08,2.08,0,0,1,.35-1.67,2.2,2.2,0,0,1,1.51-.64,11.2,11.2,0,0,1,1.53,0,2.58,2.58,0,0,0,1.31-.14c.31-.21.3-.73.19-1.11l0,0a69.93,69.93,0,0,1-3.23-6.38,25.12,25.12,0,0,1-1.86-5,4.31,4.31,0,0,1,.35-3.24,1.81,1.81,0,0,1,.61-.59C455.5,151.07,455.6,151.05,455.6,151.06Z"/><path class="cls-4" d="M457.87,156.2l.05.1a2.2,2.2,0,0,1,.14.3c.13.28.3.68.53,1.18.45,1,1.1,2.52,1.91,4.35,1.62,3.67,3.87,8.72,6.35,14.3s4.72,10.66,6.3,14.34c.79,1.83,1.42,3.32,1.87,4.36.21.51.37.91.49,1.19l.13.31c0,.07,0,.11,0,.11a.69.69,0,0,1-.05-.1l-.14-.31-.52-1.17-1.91-4.35c-1.61-3.67-3.86-8.73-6.35-14.31s-4.72-10.65-6.31-14.33l-1.86-4.36c-.21-.51-.38-.91-.5-1.19l-.12-.32Z"/><path class="cls-4" d="M467.4,165.46a6.35,6.35,0,0,1-.29,1.09c-.2.7-.46,1.6-.75,2.59s-.56,1.93-.78,2.59c-.1.33-.2.59-.27.77a1.54,1.54,0,0,1-.12.28,7.5,7.5,0,0,1,.29-1.08c.19-.71.45-1.61.73-2.61s.57-1.92.79-2.58c.11-.33.21-.59.28-.77A1.54,1.54,0,0,1,467.4,165.46Z"/><path class="cls-4" d="M464.8,172.83s-1.89-.55-4.2-1.34-4.16-1.45-4.15-1.49,1.9.56,4.2,1.34S464.81,172.79,464.8,172.83Z"/><path class="cls-4" d="M469.66,182.48a1.09,1.09,0,0,1-.31,0c-.2,0-.48,0-.84,0-.7,0-1.68,0-2.75-.13s-2.05-.22-2.75-.33l-.82-.15a1.27,1.27,0,0,1-.3-.08,8,8,0,0,1,1.14.11c.7.09,1.67.2,2.74.29s2,.15,2.75.18A7,7,0,0,1,469.66,182.48Z"/><path class="cls-4" d="M473.48,176.33a6.83,6.83,0,0,1-.52.92c-.34.56-.82,1.32-1.35,2.16s-1,1.59-1.4,2.13a6.49,6.49,0,0,1-.61.86,6.83,6.83,0,0,1,.52-.92c.34-.55.81-1.32,1.35-2.16s1-1.59,1.39-2.13A7.84,7.84,0,0,1,473.48,176.33Z"/><path class="cls-4" d="M478.85,184.3a1.59,1.59,0,0,1-.17.32l-.52.84c-.45.71-1.07,1.68-1.77,2.75s-1.33,2-1.8,2.72c-.23.33-.41.6-.57.82a1.81,1.81,0,0,1-.22.29,1.48,1.48,0,0,1,.17-.33l.52-.84c.45-.71,1.07-1.68,1.77-2.75s1.33-2,1.8-2.72l.57-.81C478.76,184.39,478.84,184.29,478.85,184.3Z"/><path class="cls-4" d="M473.87,191.82a2.39,2.39,0,0,1-.39,0l-1.06,0c-.9,0-2.14-.14-3.49-.29s-2.59-.34-3.47-.49l-1-.2a1.4,1.4,0,0,1-.37-.1,1.53,1.53,0,0,1,.38,0l1.05.14c.89.13,2.12.3,3.47.45s2.59.26,3.48.33l1.06.09Z"/><path class="cls-7" d="M515.09,193.91l1.63-1.45,3.21-2.84,5.29-4.68v-.54l-5.57,4.91-3.21,2.84c-.55.47-1.09.95-1.64,1.44a2.83,2.83,0,0,0-1.21,2,1.14,1.14,0,0,0,.69,1.07,2.92,2.92,0,0,0,1.17.22l2.25,0a38,38,0,0,1,4.51.32,17.2,17.2,0,0,1,3,.66v-.47a18,18,0,0,0-2.94-.64,41.76,41.76,0,0,0-4.57-.31l-2.24,0c-.7,0-1.49-.21-1.44-.85a1.77,1.77,0,0,1,.33-.9A3.92,3.92,0,0,1,515.09,193.91Z"/><path class="cls-7" d="M473,207.92a7.9,7.9,0,0,1,.12-1.09,3.38,3.38,0,0,1,1.17-2.13,2.86,2.86,0,0,1,2.32-.47,8.43,8.43,0,0,1,2.39.89,27.66,27.66,0,0,1,4.09,2.8h.8l-.32-.26a29.52,29.52,0,0,0-4.34-3,8.82,8.82,0,0,0-2.53-.93,3.33,3.33,0,0,0-2.72.56,3.88,3.88,0,0,0-1.36,2.43,11.71,11.71,0,0,0-.14,1.19Z"/><path class="cls-7" d="M520.76,168.13h0a4.58,4.58,0,0,0,0,1.65,2.06,2.06,0,0,0,1,1.41,3,3,0,0,0,1.71.25c.56,0,1.12-.13,1.68-.22h.09v-.34l-.14,0c-.56.08-1.11.17-1.66.22a2.75,2.75,0,0,1-1.52-.2c-.89-.51-1-1.75-.83-2.71,1.67-3.86,3-7.52,4.15-10.91v-.83c-1.22,3.6-2.64,7.51-4.45,11.63Z"/><path class="cls-7" d="M514,148.87a163.35,163.35,0,0,0-3.9,15.95c-.41.87-1.18,1.86-2.2,1.78a2.65,2.65,0,0,1-1.37-.68c-.43-.35-.84-.72-1.26-1.11a29.39,29.39,0,0,0-2.66-2.24,7.33,7.33,0,0,0-1.58-.87,3.41,3.41,0,0,0-1.85-.23,4.51,4.51,0,0,0-2.95,2.27,7.36,7.36,0,0,0-.77,3.76c0,2.62,1,5.14,1.59,7.75s1.38,5.27,2.09,8l1.09,4.15c.18.69.36,1.39.55,2.1a4.32,4.32,0,0,1,.19,1,1.69,1.69,0,0,1-.23.93c-.32.55-1.09.3-1.67-.11l-1.89-1.21a40.46,40.46,0,0,0-4-2.27,14.77,14.77,0,0,0-4.45-1.48,5.44,5.44,0,0,0-2.43.19,3.76,3.76,0,0,0-1.94,1.53,8,8,0,0,0-.95,4.77,25.11,25.11,0,0,0,.83,4.85,61.62,61.62,0,0,0,3.41,9.4c.11.27.24.53.36.79h.54c-.15-.33-.31-.66-.45-1a61.45,61.45,0,0,1-3.4-9.32,24.59,24.59,0,0,1-.82-4.76,7.54,7.54,0,0,1,.86-4.49,3.84,3.84,0,0,1,3.93-1.52,14.58,14.58,0,0,1,4.31,1.43,38.84,38.84,0,0,1,3.93,2.25l1.9,1.21a3.08,3.08,0,0,0,1.09.47,1.17,1.17,0,0,0,1.18-.5,2.81,2.81,0,0,0,.09-2.3c-.19-.71-.38-1.41-.56-2.11l-1.09-4.14q-1.08-4.11-2.12-8c-.64-2.62-1.56-5.11-1.59-7.65a7.07,7.07,0,0,1,.71-3.57,4.24,4.24,0,0,1,2.69-2.1,4.47,4.47,0,0,1,3.17,1,26.64,26.64,0,0,1,2.63,2.2c.42.39.84.76,1.28,1.12a3,3,0,0,0,1.55.75,2.07,2.07,0,0,0,1.59-.64,4.87,4.87,0,0,0,.94-1.36h0v0a163.22,163.22,0,0,1,3.83-15.95c.75-2.6,1.44-5,2.19-7.08h-.22C515.45,144,514.75,146.31,514,148.87Z"/><path class="cls-7" d="M503.32,207.92c1.39-4.56,2.84-9.41,4.35-14.45.91-3,1.81-6,2.68-8.89l.54-.27c.39-.21.95-.53,1.64-.94,1.36-.83,3.21-2,5.24-3.35l5.2-3.41a18.25,18.25,0,0,0,2.13-1.45,2.85,2.85,0,0,0-.63.3c-.39.21-1,.53-1.64.93-1.37.81-3.24,2-5.27,3.31l-5.17,3.45c-1,.68-1.76,1.15-2,1.34,3-9.86,5.63-18.68,7.68-25.51,1.34-4.4,2.43-8,3.19-10.45.37-1.21.65-2.17.85-2.84.09-.31.16-.56.22-.74l.06-.26a1.1,1.1,0,0,0-.1.25c-.06.18-.14.42-.25.73-.22.66-.52,1.61-.92,2.82-.79,2.48-1.91,6-3.3,10.41-2.76,8.8-6.46,21-10.49,34.47L503,207.71l-1.38-1.32c-1.18-1.12-2.8-2.66-4.54-4.43s-3.25-3.42-4.34-4.62a23.7,23.7,0,0,0-1.81-1.91,2.3,2.3,0,0,0,.4.59c.27.36.69.87,1.21,1.5,1,1.24,2.54,2.93,4.28,4.7s3.39,3.3,4.62,4.37c.61.53,1.12.95,1.48,1.23l0,0,0,.07Z"/><path class="cls-7" d="M509.5,184.12c.09-.05-2.15-4-5-8.83s-5.23-8.69-5.32-8.63,2.15,4,5,8.82S509.41,184.17,509.5,184.12Z"/><path class="cls-7" d="M517,203.82c-1.45.39-3.44,1-5.63,1.63s-4.18,1.28-5.61,1.74c-1.05.34-1.8.6-2.12.73h.37c.4-.09,1-.26,1.83-.48,1.45-.4,3.44-1,5.63-1.63s4.18-1.28,5.6-1.74a15.67,15.67,0,0,0,2.29-.83A16.57,16.57,0,0,0,517,203.82Z"/><circle class="cls-8" cx="231.08" cy="126.98" r="1.63"/><path class="cls-9" d="M215.6,129.17a5,5,0,0,0-5,4.94v0a5,5,0,0,0,5,4.94h4.58a.31.31,0,0,0,.31-.31v-4.58a5,5,0,0,0-5-5Zm0,6.66a1.7,1.7,0,1,1,1.7-1.7A1.7,1.7,0,0,1,215.58,135.83Z"/><path class="cls-8" d="M249.51,135.85a1.74,1.74,0,1,1,1.65-2.26.3.3,0,0,0,.29.21h2.67a.3.3,0,0,0,.3-.3v0a5,5,0,1,0,0,1.33.31.31,0,0,0-.26-.35h-2.71a.31.31,0,0,0-.29.22A1.75,1.75,0,0,1,249.51,135.85Z"/><path class="cls-8" d="M260.45,129.15a5,5,0,0,0-.15,9.93,5.06,5.06,0,0,0,2.78-.8v.49a.31.31,0,0,0,.31.31h1.66a.31.31,0,0,0,.3-.31v-4.59a5,5,0,0,0-4.9-5Zm.11,6.69a1.74,1.74,0,1,1,1.56-1.91,2.16,2.16,0,0,1,0,.36A1.75,1.75,0,0,1,260.56,135.84Z"/><path class="cls-8" d="M238.72,129.15a4.82,4.82,0,0,0-2.78.8v-.53a.28.28,0,0,0-.27-.27H234a.3.3,0,0,0-.3.31v9.35a.27.27,0,0,0,.26.27h2.65a.31.31,0,0,0,.31-.31v-4.62a1.76,1.76,0,0,1,1.68-1.78,1.74,1.74,0,0,1,1.8,1.68v4.73a.3.3,0,0,0,.31.3h2.61a.3.3,0,0,0,.31-.3v-4.59a5,5,0,0,0-4.89-5Z"/><path class="cls-8" d="M229.76,129.16h2.65a.31.31,0,0,1,.3.31v9.3a.31.31,0,0,1-.3.31h-2.65a.31.31,0,0,1-.31-.31v-9.3A.31.31,0,0,1,229.76,129.16Z"/><circle class="cls-9" cx="268.05" cy="137.45" r="1.63"/><path class="cls-8" d="M224.93,134.31h3.31a.25.25,0,0,0,.26-.26v-2.73a.26.26,0,0,0-.26-.26h-3.3a.26.26,0,0,1-.26-.25v-.5h0s0-.07,0-.11a1.6,1.6,0,0,1,1.58-1.62h2a.25.25,0,0,0,.25-.26v-2.71a.25.25,0,0,0-.25-.26H226.3a5,5,0,0,0-4.86,5v8.51a.26.26,0,0,0,.26.26h2.71a.26.26,0,0,0,.26-.26v-4.26A.26.26,0,0,1,224.93,134.31Z"/></g><g id="Character_2" data-name="Character 2"><path class="cls-9" d="M663,349l-8.68.58-1.19-16.26,12.7-1,.14,1c.57,4.47,2.61,22.76,1.92,25.83C667.14,362.59,663,349,663,349Z"/><g class="cls-16"><path class="cls-15" d="M665.27,355.62s1.75,4.74,2.5,4.08-.6-19.22-1.92-27.36l-.36.05L667.26,354S665.24,354.67,665.27,355.62Z"/></g><path class="cls-7" d="M665.46,332.14a1.45,1.45,0,0,1,0,.27c0,.24.07.51.11.8.09.8.21,1.79.34,3,.27,2.49.61,5.93.89,9.74s.46,7.27.56,9.77c0,1.17.07,2.16.09,3,0,.3,0,.56,0,.8a1.29,1.29,0,0,1,0,.29l0-.28c0-.25,0-.51-.05-.81,0-.8-.09-1.79-.15-3-.13-2.5-.34-5.95-.62-9.76s-.59-7.25-.83-9.75c-.11-1.16-.2-2.15-.28-2.95,0-.3,0-.56-.07-.8A1.48,1.48,0,0,1,665.46,332.14Z"/><path class="cls-7" d="M667.51,354a7.28,7.28,0,0,0-1.37.65,6.39,6.39,0,0,0-1,1.09,2.21,2.21,0,0,1,.94-1.25A2.17,2.17,0,0,1,667.51,354Z"/><path class="cls-7" d="M664.73,349.39s-.23.29-.59.56-.67.44-.7.4.23-.3.58-.56S664.69,349.35,664.73,349.39Z"/><path class="cls-7" d="M663.93,348.12c.05,0-.1.31-.34.61s-.45.51-.49.48.11-.31.34-.61S663.89,348.09,663.93,348.12Z"/><path class="cls-7" d="M662.34,347.4a2.07,2.07,0,0,1,.17.84c0,.47,0,.86,0,.86a2,2,0,0,1-.17-.84A1.82,1.82,0,0,1,662.34,347.4Z"/><path class="cls-7" d="M661.24,347.2a1.74,1.74,0,0,1,.34.92,1.7,1.7,0,0,1-.06,1,6.56,6.56,0,0,1-.13-1A4.3,4.3,0,0,1,661.24,347.2Z"/><path class="cls-7" d="M663.35,350.05a3,3,0,0,1,.07,1,6.64,6.64,0,0,1-.16,1.13,3.19,3.19,0,0,1-.22.66.58.58,0,0,1-.31.28.41.41,0,0,1-.42-.13,1.91,1.91,0,0,1,.38-2.41,2,2,0,0,1,.67-.39.55.55,0,0,1,.28-.05,3.16,3.16,0,0,0-.85.54,1.94,1.94,0,0,0-.52.94,1.64,1.64,0,0,0,.18,1.24c.13.15.33.07.42-.12a3.29,3.29,0,0,0,.21-.6,6.64,6.64,0,0,0,.2-1.1C663.35,350.45,663.32,350.05,663.35,350.05Z"/><path class="cls-7" d="M663.42,350.31a1,1,0,0,1-.72.18,1.81,1.81,0,0,1-.78-.23,1.08,1.08,0,0,1-.6-.83.42.42,0,0,1,.46-.36,1,1,0,0,1,.48.14,3.11,3.11,0,0,1,.67.45c.35.3.49.55.47.57s-.2-.2-.56-.46a3.28,3.28,0,0,0-.66-.39c-.23-.13-.63-.2-.66.06s.27.52.49.66a1.79,1.79,0,0,0,.71.25A3.87,3.87,0,0,0,663.42,350.31Z"/><path class="cls-7" d="M661,332.8s0,.46.13,1.19a5.11,5.11,0,0,0,1.27,2.54,5.2,5.2,0,0,0,2.43,1.47c.72.2,1.19.19,1.19.23a1.25,1.25,0,0,1-.33,0,4.41,4.41,0,0,1-.89-.11A4.94,4.94,0,0,1,661,334a3.67,3.67,0,0,1,0-.9C661,332.91,661,332.79,661,332.8Z"/><path class="cls-7" d="M654.39,335a27.17,27.17,0,0,1,3.33-.39,29.53,29.53,0,0,1,3.35-.19,27.17,27.17,0,0,1-3.33.39A29.44,29.44,0,0,1,654.39,335Z"/><path class="cls-7" d="M664.72,340.41a13.2,13.2,0,0,1,.39,4.74c-.06,0-.07-1.06-.18-2.37S664.66,340.42,664.72,340.41Z"/><path class="cls-7" d="M664.48,337.22s.23.07.48.16.47.14.47.19-.25.1-.54,0S664.44,337.26,664.48,337.22Z"/><path class="cls-7" d="M662.89,336.13s.22.05.4.21.3.31.27.35-.22-.05-.4-.2S662.86,336.17,662.89,336.13Z"/><path class="cls-7" d="M662.09,334.46s.07.22.17.46.24.39.21.44-.27-.08-.39-.37S662,334.45,662.09,334.46Z"/><path class="cls-7" d="M661.67,333.26c.05,0,.14.06.21.2s.07.25,0,.28-.14-.07-.2-.2S661.63,333.28,661.67,333.26Z"/><g class="cls-10"><polygon points="660.6 332.85 661.52 349.11 659.56 349.23 659.56 332.8 660.6 332.85"/></g><path class="cls-7" d="M591,289.83s-9.7,59.88,3.62,61.75,66-.56,66-.56L659.89,331,614,327.62l3.71-37.14Z"/><path class="cls-9" d="M623.85,347.44l-8.68.58L614,331.76l12.7-1,.14,1c.57,4.47,2.61,22.76,1.92,25.82C628,361,623.85,347.44,623.85,347.44Z"/><g class="cls-16"><path class="cls-15" d="M626.1,354.07s1.75,4.74,2.5,4.08-.6-19.23-1.92-27.37l-.36.06,1.77,21.64S626.07,353.12,626.1,354.07Z"/></g><path class="cls-7" d="M626.29,330.58a1.75,1.75,0,0,1,.05.28c0,.24.07.5.11.8.09.8.21,1.78.34,2.94.27,2.49.61,5.94.89,9.75s.46,7.27.56,9.77c0,1.17.07,2.16.09,3,0,.3,0,.57,0,.81a1.23,1.23,0,0,1,0,.28l0-.28c0-.24,0-.51,0-.8,0-.81-.09-1.8-.15-3-.13-2.5-.34-6-.62-9.77s-.59-7.25-.83-9.74c-.11-1.16-.2-2.15-.28-2.95,0-.3,0-.56-.07-.81A1.48,1.48,0,0,1,626.29,330.58Z"/><path class="cls-7" d="M628.34,352.45a7,7,0,0,0-1.37.66,6,6,0,0,0-1.05,1.09,2.15,2.15,0,0,1,.94-1.25A2.21,2.21,0,0,1,628.34,352.45Z"/><path class="cls-7" d="M625.56,347.83c0,.05-.23.3-.59.56s-.67.45-.7.4.23-.29.58-.56S625.53,347.79,625.56,347.83Z"/><path class="cls-7" d="M624.77,346.57s-.11.3-.35.6-.45.51-.49.48.11-.3.34-.6S624.72,346.54,624.77,346.57Z"/><path class="cls-7" d="M623.17,345.85a2,2,0,0,1,.17.84,1.82,1.82,0,0,1,0,.86,2,2,0,0,1-.17-.84A2,2,0,0,1,623.17,345.85Z"/><path class="cls-7" d="M622.07,345.64a1.75,1.75,0,0,1,.34.93,1.72,1.72,0,0,1-.06,1,6.83,6.83,0,0,1-.13-1A4.35,4.35,0,0,1,622.07,345.64Z"/><path class="cls-7" d="M624.18,348.49a3.1,3.1,0,0,1,.07,1.05,6.64,6.64,0,0,1-.16,1.13,3.32,3.32,0,0,1-.22.65.54.54,0,0,1-.31.28.39.39,0,0,1-.42-.12,2,2,0,0,1,1.05-2.81c.18-.05.28-.06.28,0a2.86,2.86,0,0,0-.85.54,1.86,1.86,0,0,0-.52.93,1.63,1.63,0,0,0,.18,1.24c.14.16.33.08.42-.11a3.14,3.14,0,0,0,.21-.61,6.46,6.46,0,0,0,.2-1.1C624.18,348.89,624.15,348.49,624.18,348.49Z"/><path class="cls-7" d="M624.25,348.76a1.1,1.1,0,0,1-.72.17,1.68,1.68,0,0,1-.78-.23,1.08,1.08,0,0,1-.6-.83.43.43,0,0,1,.46-.36,1.13,1.13,0,0,1,.48.15,2.78,2.78,0,0,1,.67.44,1.52,1.52,0,0,1,.47.57s-.2-.19-.56-.46a3.28,3.28,0,0,0-.66-.39c-.23-.13-.63-.2-.66.07s.27.51.5.66a1.67,1.67,0,0,0,.7.24A4.68,4.68,0,0,0,624.25,348.76Z"/><path class="cls-7" d="M621.87,331.24s0,.47.13,1.2a5.18,5.18,0,0,0,1.27,2.54,5.25,5.25,0,0,0,2.43,1.47c.72.19,1.19.18,1.19.22a1,1,0,0,1-.33,0,4.56,4.56,0,0,1-.89-.12,4.94,4.94,0,0,1-3.81-4.12,3.58,3.58,0,0,1,0-.89C621.83,331.35,621.85,331.24,621.87,331.24Z"/><path class="cls-7" d="M615.22,333.42a28.49,28.49,0,0,1,3.33-.38,27,27,0,0,1,3.35-.19,31.33,31.33,0,0,1-3.33.38A26.91,26.91,0,0,1,615.22,333.42Z"/><path class="cls-7" d="M625.55,338.85a9.45,9.45,0,0,1,.41,2.36,9.27,9.27,0,0,1,0,2.39c-.06,0-.07-1.07-.18-2.38S625.49,338.86,625.55,338.85Z"/><path class="cls-7" d="M625.31,335.67c0-.05.23.07.48.16s.47.13.47.19-.25.1-.54,0S625.27,335.7,625.31,335.67Z"/><path class="cls-7" d="M623.73,334.57s.21.05.39.21.3.32.27.36-.22-.05-.4-.21S623.69,334.62,623.73,334.57Z"/><path class="cls-7" d="M622.92,332.91c.05,0,.07.22.17.45s.24.4.21.44-.27-.07-.39-.36S622.86,332.89,622.92,332.91Z"/><path class="cls-7" d="M622.5,331.71s.14.06.21.19.07.26,0,.28-.14-.06-.2-.19S622.46,331.73,622.5,331.71Z"/><g class="cls-10"><polygon points="621.43 331.29 622.35 347.56 620.39 347.67 620.39 331.24 621.43 331.29"/></g><path class="cls-7" d="M543.77,340.37c1,10.47,18.6,11.63,33.44,11.66,20.29,0,43.06.14,43.06.14l.05-21.8-49.73,1h0s43.89-24,48.86-31.76A16.8,16.8,0,0,0,620.93,284L584,289l-27.74,25.25c-6.7,6.2-8.72,7.39-11.25,12.5C543,330.79,543.26,335.1,543.77,340.37Z"/><path class="cls-8" d="M560.17,335.93a40.2,40.2,0,0,0,5.4-2.12,38.77,38.77,0,0,0,5.24-2.52,41.58,41.58,0,0,0-5.41,2.13A38.29,38.29,0,0,0,560.17,335.93Z"/><path class="cls-8" d="M563.62,330.58a34.52,34.52,0,0,0,7.69.25,34.52,34.52,0,0,0-7.69-.25Z"/><path class="cls-8" d="M617.55,301.79s-.14.15-.44.37l-1.33,1c-1.16.82-2.86,2-5,3.41-4.24,2.83-10.16,6.64-16.75,10.76s-12.6,7.8-17,10.42c-2.19,1.31-4,2.36-5.2,3.06-.62.35-1.11.62-1.45.79l-.12.05a.06.06,0,0,1,0,0l0,0s0-.06,0-.06h0l0,0,.16-.09c.08-.05.13-.07.13-.06l23.19-14.5c6.58-4.12,12.53-7.88,16.82-10.63l5.07-3.27,1.38-.89A3.27,3.27,0,0,1,617.55,301.79Z"/><path class="cls-8" d="M620.27,352.17a1.37,1.37,0,0,1,0-.42c0-.32,0-.71-.05-1.2,0-1.12-.08-2.64-.13-4.55-.08-3.95-.18-9.44-.31-15.88l.25.24-13.89.34-25.42.52-7.71.1h-2.09a4.55,4.55,0,0,1-.73,0,3,3,0,0,1,.72-.07l2.1-.1,7.7-.26,25.41-.68,13.89-.3h.25v.25c0,6.43.09,11.93.12,15.88,0,1.9,0,3.43,0,4.54,0,.49,0,.89,0,1.21A2.24,2.24,0,0,1,620.27,352.17Z"/><path class="cls-17" d="M499.15,253.26l-2.92.34c-2.69.07-4.19.21-5-.4-1.11-.82.14-1.92.14-1.92s-2-.42-2-1.62c0-.81.92-1,.92-1s-1.78-.45-2.2-1.12c-.58-.91.56-1.57.56-1.57-2.49-1.14-2.46-2.57-1.94-2.78a6.82,6.82,0,0,1,2.42.4c1.58.24,5.89,1,4.07-1.11s-2.44-4.4-2.18-5.14a.88.88,0,0,1,1.64.19,10,10,0,0,0,1.41,2.43,6.49,6.49,0,0,0,1.6,1.58c.73.5,1.36.9,1.91,1.22l2.91,2.18Z"/><rect class="cls-9" x="492.97" y="234.8" width="74.57" height="72.15" transform="translate(-9.76 20.02) rotate(-2.14)"/><g class="cls-10"><polygon points="499.89 301.93 519.11 264.06 536.86 287.14 546.63 274.17 562.85 299.58 499.89 301.93"/></g><g class="cls-10"><path d="M542.89,256a5.37,5.37,0,1,1-5.57-5.17A5.37,5.37,0,0,1,542.89,256Z"/></g><g class="cls-10"><path d="M562.86,299.78a1.36,1.36,0,0,1,0-.3c0-.21,0-.49-.05-.84,0-.76-.09-1.85-.16-3.24-.12-2.86-.3-7-.53-12.24-.43-10.53-1.05-25.52-1.79-43.53l.32.3-63,2.4c-.08.08.64-.69.34-.35h0v.48l0,.52,0,1,.07,2c.05,1.37.1,2.72.15,4.07q.15,4.05.3,8c.2,5.3.39,10.49.57,15.54.37,10.09.72,19.64,1,28.42l-.32-.3,45.53-1.54,12.85-.4,3.4-.09.89,0h.31l-.28,0-.85.05-3.34.17-12.77.55-45.71,1.87-.31,0v-.32c-.34-8.78-.71-18.32-1.1-28.42-.19-5.05-.39-10.24-.59-15.53q-.15-4-.3-8c-.06-1.35-.11-2.71-.16-4.07l-.07-2.05,0-1,0-.51V242c-.31.33.41-.46.35-.38l63-2.3h.3v.3c.61,18.09,1.12,33.15,1.48,43.73.16,5.22.29,9.34.38,12.18,0,1.37.06,2.43.08,3.19,0,.33,0,.6,0,.8S562.86,299.78,562.86,299.78Z"/></g><path class="cls-17" d="M487.17,245a.49.49,0,0,1-.13-.68,1,1,0,0,1,.64-.4,4.73,4.73,0,0,1,3.1.64,10.39,10.39,0,0,1,2.73,1.61c.22.2.45.49.36.78a.74.74,0,0,1-.57.42,2.24,2.24,0,0,1-1.66-.24,4.56,4.56,0,0,1,2.08,1.18,1,1,0,0,1,.36.75.74.74,0,0,1-.76.57,2.18,2.18,0,0,1-1-.32,3.43,3.43,0,0,1,1.9.94.83.83,0,0,1,.29.51c0,.41-.44.67-.84.68a7.08,7.08,0,0,0-1.21,0,2.56,2.56,0,0,1,2.11,1.07c.18.26.3.64.08.86a.81.81,0,0,1-.57.15h-.88a4.34,4.34,0,0,1-1.39-.16,1.48,1.48,0,0,1-1-.94.9.9,0,0,1,.61-1.1,2.71,2.71,0,0,1-1.52-1,1.09,1.09,0,0,1,.46-1.57c-.5-.64-1.67-.56-2-1.32-.21-.5.12-1.05.44-1.49a2.49,2.49,0,0,1-1.8-1"/><path class="cls-18" d="M488.65,245.9a6.18,6.18,0,0,0,1.41.72,12.28,12.28,0,0,0,1.62.59c.32.08.65.16,1,.22a1.75,1.75,0,0,0,.6,0,.78.78,0,0,0,.54-.42,1,1,0,0,0-.34-1.18,5.9,5.9,0,0,0-.91-.53l-1.53-.76a6.08,6.08,0,0,0-1.46-.62,7.71,7.71,0,0,0,1.34.85c.47.25,1,.53,1.5.83a5.12,5.12,0,0,1,.82.5.7.7,0,0,1,.26.76c-.11.23-.45.28-.77.24a9.23,9.23,0,0,1-1-.2,16.82,16.82,0,0,1-1.62-.5A8.08,8.08,0,0,0,488.65,245.9Z"/><path class="cls-18" d="M489.92,248.49A4.24,4.24,0,0,0,491,249l1.21.41.72.23a1.36,1.36,0,0,0,.9,0,.7.7,0,0,0,.39-.37.72.72,0,0,0,0-.52,1.55,1.55,0,0,0-.54-.63,6,6,0,0,0-1.09-.69,2.49,2.49,0,0,0-1.13-.37,10,10,0,0,0,1,.59,8.58,8.58,0,0,1,1,.73,1.27,1.27,0,0,1,.42.49.31.31,0,0,1-.19.43c-.38.14-1-.14-1.39-.24l-1.22-.33A3.75,3.75,0,0,0,489.92,248.49Z"/><path class="cls-18" d="M491.07,250.86a2.61,2.61,0,0,0,1.19.57,5.21,5.21,0,0,0,1.43.21,1.16,1.16,0,0,0,.88-.33.72.72,0,0,0,.24-.5.75.75,0,0,0-.19-.54,2.5,2.5,0,0,0-.81-.53l-.76-.34c-.5-.21-.95-.38-1.33-.51a4.29,4.29,0,0,0-1.27-.32,5.49,5.49,0,0,0,1.18.56c.36.15.8.35,1.28.57l.74.36a2.15,2.15,0,0,1,.69.44.4.4,0,0,1,0,.57,1,1,0,0,1-.64.24,6.16,6.16,0,0,1-1.36-.13C491.55,251,491.09,250.81,491.07,250.86Z"/><path class="cls-18" d="M494.35,253.56s.09.05.22,0a.67.67,0,0,0,.37-.47,1,1,0,0,0-.27-.83,2,2,0,0,0-.84-.54,6.65,6.65,0,0,0-2.36-.7,11.72,11.72,0,0,0,2.2,1,2.12,2.12,0,0,1,.76.44.78.78,0,0,1,.25.57C494.65,253.43,494.34,253.52,494.35,253.56Z"/><path class="cls-8" d="M560.07,238.49s14.62-14.41,27.7,3.54c8.22,11.28,25.17,28.46,31.18,36.06,1.35,1.71,3.45,4.3,2,5.89-4.51,4.88-16.79,15.79-39.52,7.65L560.47,262.1c-3.69-5.13-1.36-11.42-.16-18.6Z"/><g class="cls-13"><polygon points="583.97 255.94 576.75 285.17 570.44 276.38 583.97 255.94"/></g><path class="cls-7" d="M601.53,294.14a9.82,9.82,0,0,1-1-1.06c-.64-.71-1.55-1.74-2.66-3-2.22-2.59-5.21-6.23-8.39-10.34s-5.94-7.94-7.88-10.74c-1-1.4-1.74-2.55-2.26-3.35a8,8,0,0,1-.77-1.27,8.56,8.56,0,0,1,.93,1.16c.63.84,1.43,1.93,2.4,3.24,2,2.75,4.82,6.52,8,10.64s6.12,7.78,8.26,10.43l2.53,3.14A7.16,7.16,0,0,1,601.53,294.14Z"/><path class="cls-7" d="M604.21,286.43a13.68,13.68,0,0,1-11.49,3.41,21.29,21.29,0,0,0,11.49-3.41Z"/><path class="cls-7" d="M604.58,282.66a6.27,6.27,0,0,1-1.53,1.46,19.13,19.13,0,0,1-9.34,3.9,6.42,6.42,0,0,1-2.11.06,27.63,27.63,0,0,0,13-5.42Z"/><path class="cls-7" d="M584.33,252.87c-.05,0,0-.57-.22-1.57a10.94,10.94,0,0,0-1.55-3.94,10.37,10.37,0,0,0-4.7-4,10.76,10.76,0,0,0-7.51-.26,11.59,11.59,0,0,0-3.46,1.93,17.85,17.85,0,0,0-2.66,2.62,45.4,45.4,0,0,0-3.61,5.25c-1,1.56-1.73,2.82-2.31,3.66-.28.43-.52.75-.67,1s-.25.32-.27.31a11.57,11.57,0,0,1,.78-1.38c.56-1,1.29-2.21,2.17-3.74a40.52,40.52,0,0,1,3.56-5.36,14.55,14.55,0,0,1,6.31-4.73,11.08,11.08,0,0,1,7.85.31,10.71,10.71,0,0,1,6.26,8.36,8.23,8.23,0,0,1,.07,1.19A1.2,1.2,0,0,1,584.33,252.87Z"/><path class="cls-7" d="M571.76,235a12.45,12.45,0,0,1-1.55,1.93l-4,4.45c-1.55,1.74-2.93,3.32-3.91,4.49a15.56,15.56,0,0,1-1.63,1.85,9.29,9.29,0,0,1,1.35-2.08c.91-1.23,2.25-2.86,3.8-4.61s3-3.26,4.07-4.35A10.62,10.62,0,0,1,571.76,235Z"/><path class="cls-7" d="M539.48,217.44a8,8,0,0,1-5.25-3.35,6.59,6.59,0,0,1-.68-6.11,5.62,5.62,0,0,1,5-3.45c1.88,0,3.81,1,5.55.27s2.67-2.66,4.42-2.61c1,0,1.82.76,2.8.94,1.25.23,2.46-.46,3.72-.68a5.12,5.12,0,0,1,4.78,1.84c1.19,1.5,1.41,3.52,1.72,5.41s.85,3.93,2.4,5.05"/><path class="cls-17" d="M572.25,234.7l-12.58-27.88-1.16-.19c-7.81-1.27-11.7-2.31-16.62,3.89h0a10.69,10.69,0,0,0-1,10.42c1.79,4,4.2,9.29,5.92,12.38,3,5.49,9,3.37,9,3.37l6.06,9.43Z"/><path class="cls-7" d="M544.5,223.3a.91.91,0,1,0-1.72-.6.92.92,0,0,0,.56,1.16A.9.9,0,0,0,544.5,223.3Z"/><path class="cls-7" d="M542.28,222.74c.14,0,.46-.66,1.22-1.08s1.52-.32,1.55-.46-.16-.19-.5-.25a2.12,2.12,0,0,0-2.21,1.23C542.21,222.5,542.22,222.72,542.28,222.74Z"/><path class="cls-7" d="M551.18,218.8a.91.91,0,1,0,1.57.91.91.91,0,0,0-1.57-.91Z"/><path class="cls-7" d="M550.6,219c.14.05.46-.66,1.22-1.08s1.52-.32,1.55-.46-.16-.19-.5-.25a2.16,2.16,0,0,0-2.21,1.23C550.53,218.73,550.54,219,550.6,219Z"/><path class="cls-7" d="M551.25,227a4.39,4.39,0,0,0-1.37.4c-.21.09-.39.13-.47,0a1.29,1.29,0,0,1-.16-.65c-.08-.61-.15-1.22-.23-1.87a23.47,23.47,0,0,0-.9-4.77,24.66,24.66,0,0,0,.41,4.84q.13,1,.27,1.86a1.44,1.44,0,0,0,.34.89.58.58,0,0,0,.51.13,1.3,1.3,0,0,0,.37-.14A4.35,4.35,0,0,0,551.25,227Z"/><path class="cls-18" d="M555.84,236.61a14.57,14.57,0,0,0,6.1-5.94s.44,4.9-5.34,7.38Z"/><path class="cls-7" d="M544.12,219.83c0,.44-.41.8-.91,1a1.25,1.25,0,0,1-1.36-.11c-.29-.31,0-1,.78-1.35S544.12,219.4,544.12,219.83Z"/><path class="cls-7" d="M552.08,216c-.08.44-.61.71-1.15,1s-1.1.45-1.48.22a.6.6,0,0,1-.11-.73,1.82,1.82,0,0,1,.95-.92,1.77,1.77,0,0,1,1.32-.09C552,215.58,552.11,215.8,552.08,216Z"/><path class="cls-7" d="M554.39,225.27c.13-.05.47,1,0,2.11s-1.48,1.6-1.53,1.46.63-.68,1-1.67S554.24,225.3,554.39,225.27Z"/><path class="cls-7" d="M539.48,217.08a7.84,7.84,0,0,0,6.45-3.42c.91-1.4,1.41-3.27,3-3.94s3,.11,4.49.6,3.45.52,4.17-.85A13.76,13.76,0,0,0,562,217a3,3,0,0,0,1.36.76,1.19,1.19,0,0,0,1.32-.62,1.81,1.81,0,0,0-.3-1.46c-1.44-2.68-2.63-5.76-4.07-8.44A6.17,6.17,0,0,0,558,205a6.63,6.63,0,0,0-3.75-.65,31.51,31.51,0,0,0-7.57.79,10.56,10.56,0,0,0-6.21,4.14c-1.39,2.13-2.65,5.34-1.14,7.39"/><path class="cls-17" d="M561.58,214.65c.06-.1,3.42-3,5.28.91,1.61,3.38-2.3,4.71-2.37,4.61S561.58,214.65,561.58,214.65Z"/><path class="cls-18" d="M564.84,218s.08,0,.2,0a.62.62,0,0,0,.41-.23,1.57,1.57,0,0,0-.08-1.6,2.36,2.36,0,0,0-.62-.7.76.76,0,0,0-.67-.18.33.33,0,0,0-.24.34c0,.12.07.17.06.18s-.1,0-.15-.16a.36.36,0,0,1,0-.27.48.48,0,0,1,.25-.26.91.91,0,0,1,.87.16,2.12,2.12,0,0,1,.71.77,1.67,1.67,0,0,1,0,1.84.69.69,0,0,1-.56.21C564.89,218,564.83,218,564.84,218Z"/><path class="cls-17" d="M564.79,250.34s-15,20.72-18.52,21.53-40.7,7.55-40.7,7.55l-5.05.13a7.38,7.38,0,0,1-2-1.46,11.25,11.25,0,0,1-2-2.43,1,1,0,0,0-1.84.07c-.17.86.91,3.3,3.3,5.29s-4.54,2.52-6.32,2.53c-.4,1.58,2.65,1.71,2.61,2.65a1.58,1.58,0,0,0-1.77,1.77c0,.63,1.34.85,2.24.93a1,1,0,0,1,.94.93c0,.17,0,.36,0,.56.1,1.76,3.19,1.46,3.19,1.46s2.72-.17,3.46-.35a33.78,33.78,0,0,1,3.64-.17v.08l3.85-.13h0c11.49-.42,45-1.95,48.9-5.46,4.66-4.25,18.73-25.86,18.73-25.86Z"/><path class="cls-18" d="M554.21,285.45s.1.17.4.35a2.47,2.47,0,0,0,3.27-.81,2.54,2.54,0,0,0,.13-2.64,2,2,0,0,0-1.11-.93,1.79,1.79,0,0,0-1.35.11,1.45,1.45,0,0,0-.57,2,1.19,1.19,0,0,0,1.4.41c.34-.14.41-.35.4-.35s-.15.13-.45.2a1,1,0,0,1-1.09-.42,1.12,1.12,0,0,1,.49-1.53,1.43,1.43,0,0,1,1-.06,1.65,1.65,0,0,1,.87.74A2.24,2.24,0,0,1,556,285.8,3.16,3.16,0,0,1,554.21,285.45Z"/><path class="cls-7" d="M533.26,290.13s-.25-.08-.57-.42a4,4,0,0,1-.87-1.72,5.37,5.37,0,0,1,0-2.87,11.9,11.9,0,0,1,1.54-3.12,18.86,18.86,0,0,0,1.66-2.93,7.61,7.61,0,0,0,.55-2.64c0-1.56-.18-2.54-.09-2.55s.12.22.22.66a9.44,9.44,0,0,1,.24,1.89,7.6,7.6,0,0,1-.47,2.82,17.19,17.19,0,0,1-1.67,3,12.93,12.93,0,0,0-1.52,3,5.28,5.28,0,0,0-.12,2.65A4.81,4.81,0,0,0,533.26,290.13Z"/><path class="cls-7" d="M536.13,289.87a1.71,1.71,0,0,0,0-.66,2.9,2.9,0,0,0-.72-1.63,2.7,2.7,0,0,1-.4-.54,2.79,2.79,0,0,1-.22-.71,3.89,3.89,0,0,1,.1-1.58,8.6,8.6,0,0,1,1.76-3.05,9.55,9.55,0,0,0,1.73-2.86,8.22,8.22,0,0,0,.48-2.68,18.45,18.45,0,0,0-.3-2.54s.16.2.31.63a7.18,7.18,0,0,1,.36,1.9,8,8,0,0,1-.39,2.85,9.6,9.6,0,0,1-1.78,3,8.82,8.82,0,0,0-1.71,2.86,2.56,2.56,0,0,0,.34,2.47,2.67,2.67,0,0,1,.53,1,3.45,3.45,0,0,1,.11.83C536.37,289.67,536.16,289.92,536.13,289.87Z"/><path class="cls-7" d="M527.32,275.16s.26.08.58.44a4,4,0,0,1,.84,1.82c.2.83.21,1.84.43,2.87a3.71,3.71,0,0,0,.62,1.46c.32.42.85.72,1.27.47a4.81,4.81,0,0,0,1.1-1.31,5,5,0,0,0,.74-1.46,2.6,2.6,0,0,0,.07-1.4,7.34,7.34,0,0,0-.46-1.23c-.35-.74-.69-1.33-.85-1.77a1.61,1.61,0,0,1-.2-.7s.15.21.38.61.59,1,1,1.69a7.24,7.24,0,0,1,.55,1.28,3,3,0,0,1,0,1.66,5.4,5.4,0,0,1-.78,1.6l-.52.76a2.47,2.47,0,0,1-.75.72,1.26,1.26,0,0,1-1.12.05,2.07,2.07,0,0,1-.8-.65,4.09,4.09,0,0,1-.69-1.68c-.21-1.12-.17-2.1-.32-2.9A4.48,4.48,0,0,0,527.32,275.16Z"/><path class="cls-7" d="M530.37,279.87c-.11.09-.42-.14-.53-.57s.06-.78.2-.76.22.31.3.64S530.49,279.79,530.37,279.87Z"/><path class="cls-7" d="M535,289.35c-.15,0-.25-1.14-1.44-1.92a.9.9,0,0,1-.32-.62.6.6,0,0,1,.45-.6,1.71,1.71,0,0,1,.92.16c.46.21.64.47.6.52s-.3-.08-.72-.18a1.74,1.74,0,0,0-.68,0c-.08,0-.11.17.1.37a3.36,3.36,0,0,1,.74.72,2.65,2.65,0,0,1,.37.79C535.16,289,535.09,289.35,535,289.35Z"/><path class="cls-7" d="M532.56,284.23c0-.07.3-.17.76-.38a5.31,5.31,0,0,0,1.59-1c.48-.49.34-1.23,0-1.33s-.64.1-.69.06,0-.11.09-.24a.77.77,0,0,1,.7-.18,1,1,0,0,1,.72.81,1.47,1.47,0,0,1-.39,1.23,3.9,3.9,0,0,1-1.87,1C532.91,284.33,532.58,284.3,532.56,284.23Z"/><path class="cls-7" d="M537.42,280.85c0,.07-.35.16-.73-.21a1.36,1.36,0,0,1-.36-.81,1.59,1.59,0,0,1,.33-1,2.51,2.51,0,0,1,1.55-.91c.43-.08.7-.07.72,0s-.23.19-.62.36a3,3,0,0,0-1.23.85,1.08,1.08,0,0,0-.1,1.28C537.17,280.71,537.43,280.78,537.42,280.85Z"/><path class="cls-7" d="M536.73,273.24c.08,0,.19.19.48.45a3.11,3.11,0,0,1,.5.58,1.11,1.11,0,0,1,.07,1.09.79.79,0,0,1-.54.36.9.9,0,0,1-.55-.07,1.15,1.15,0,0,1-.59-.61c-.17-.42-.15-.68-.1-.7s.2.21.42.52a.83.83,0,0,0,.44.34.37.37,0,0,0,.47-.11.69.69,0,0,0-.05-.6,5.35,5.35,0,0,0-.36-.56C536.67,273.57,536.66,273.25,536.73,273.24Z"/><path class="cls-7" d="M530.13,279.57c0,.05,0,.17-.1.23a.4.4,0,0,1-.5-.24.39.39,0,0,1,.23-.51c.15,0,.23,0,.22.11a.6.6,0,0,0,0,.19.08.08,0,0,0,0,0s0,0,0,0,0,0,0,0a.08.08,0,0,0,0,.06C530,279.48,530.09,279.52,530.13,279.57Z"/><path class="cls-7" d="M528.75,277.74s-.1-.08-.07-.26a.83.83,0,0,1,.41-.56,1.92,1.92,0,0,1,1-.22,1.93,1.93,0,0,0,.38-.05s0,0,0,0a.56.56,0,0,0-.1-.1,5.5,5.5,0,0,0-2.46-1c0-.06.3-.2.85-.19a3.07,3.07,0,0,1,2,.78.73.73,0,0,1,.25.35.48.48,0,0,1-.2.52,1.4,1.4,0,0,1-.66.12,2.11,2.11,0,0,0-.8.06C528.84,277.4,528.81,277.73,528.75,277.74Z"/><path class="cls-7" d="M532.66,280.36c-.06,0,0-.25-.27-.5a2.66,2.66,0,0,0-.48-.39,1.59,1.59,0,0,1-.65-.7.88.88,0,0,1,.24-1,1.21,1.21,0,0,1,.75-.3c.43,0,.66.1.66.16s-.26.11-.6.2-.75.42-.57.77.75.66,1,1.1S532.72,280.41,532.66,280.36Z"/><path class="cls-7" d="M532,275.66c0,.06-.11.19-.39.25a1.69,1.69,0,0,1-1.07-.2c-.73-.43-1-1-1-1.09s.61.29,1.2.63S532,275.53,532,275.66Z"/><path class="cls-7" d="M553.27,288.28s-.09-.34-.56-.66a1.93,1.93,0,0,0-.93-.32,9.42,9.42,0,0,0-1.39,0,6.72,6.72,0,0,1-3.63-.89c-1.26-.71-2.24-1.95-3.53-2.79a3.33,3.33,0,0,0-3.93,0,4.57,4.57,0,0,0-1.85,2.88,7.79,7.79,0,0,0-.08,2.41,4.86,4.86,0,0,1,.09.9,2.37,2.37,0,0,1-.29-.87,6.81,6.81,0,0,1-.08-2.51,4.86,4.86,0,0,1,1.94-3.2,3.77,3.77,0,0,1,4.48-.09c1.39.92,2.34,2.15,3.49,2.82a6.52,6.52,0,0,0,3.39.93,8.2,8.2,0,0,1,1.43.06,2.14,2.14,0,0,1,1,.45C553.32,287.88,553.29,288.3,553.27,288.28Z"/><path class="cls-7" d="M547.3,289a2.35,2.35,0,0,1-1.36.13,2.24,2.24,0,0,1-1.39-.7,5.91,5.91,0,0,0-1.22-1.18,1.35,1.35,0,0,0-1.42-.06.93.93,0,0,0-.44,1,2.21,2.21,0,0,1,0,1c-.08.26-.22.34-.24.31s0-.13,0-.34a3.35,3.35,0,0,0-.2-.91,1.3,1.3,0,0,1,.54-1.5,1.79,1.79,0,0,1,1.94,0,5.38,5.38,0,0,1,1.31,1.3,2,2,0,0,0,1.1.67C546.77,288.93,547.31,288.91,547.3,289Z"/><path class="cls-7" d="M538.52,284.5c.05.06-.29.35-.12.94a2,2,0,0,0,.57.87,3.52,3.52,0,0,1,.9,1.22,1.43,1.43,0,0,1,.06.87,1.07,1.07,0,0,1-.56.68,1.36,1.36,0,0,1-1.31-.13c-.6-.42-.77-.8-.74-.84s.37.25.91.52a1.12,1.12,0,0,0,.93,0,.73.73,0,0,0,.22-.95,3.67,3.67,0,0,0-.77-1.07,2.11,2.11,0,0,1-.57-1.12,1.12,1.12,0,0,1,.2-.85C538.38,284.5,538.51,284.48,538.52,284.5Z"/><path class="cls-7" d="M543.55,286.83c-.08,0-.08-.35-.12-.84s-.26-1.2-.87-1.32-.89.59-.83,1,.14.81.07.83-.27-.23-.43-.77a1.46,1.46,0,0,1,.09-1,1.08,1.08,0,0,1,1.2-.57,1.4,1.4,0,0,1,1,.84,2.17,2.17,0,0,1,.14,1C543.74,286.53,543.62,286.83,543.55,286.83Z"/><path class="cls-7" d="M549.9,287.62c0,.08-.29.09-.71.23a6.58,6.58,0,0,1-1.79.5,1.55,1.55,0,0,1-1.09-.38,1,1,0,0,1-.32-.92.79.79,0,0,1,.36-.54c.14-.08.23-.06.23,0s-.23.22-.22.6.41.77,1,.75,1.23-.3,1.72-.34S549.92,287.56,549.9,287.62Z"/><path class="cls-8" d="M581.94,256.65l-14.27,24.48-16.44-13.62s4.81-7.87,9.65-15A10,10,0,0,1,576.14,251Z"/><path class="cls-7" d="M568.43,279.83a22.86,22.86,0,0,1-2.45-1.95c-1.49-1.23-3.57-2.89-5.89-4.69s-4.44-3.43-6-4.65a18.94,18.94,0,0,1-2.35-2.06,19.81,19.81,0,0,1,2.58,1.77c1.56,1.14,3.7,2.72,6,4.53s4.38,3.52,5.81,4.83A16.16,16.16,0,0,1,568.43,279.83Z"/></g><g id="Character_1" data-name="Character 1"><path class="cls-9" d="M73.6,346.92l.05-7.85-14.71-.18-.19,11.49.91.07c4.06.27,20.65,1.11,23.37.32C86.07,349.89,73.6,346.92,73.6,346.92Z"/><g class="cls-16"><path d="M64.08,350.33a5,5,0,0,0-1.84-3.16,4.9,4.9,0,0,0-3.42-1.11l0,4.11Z"/></g><g class="cls-16"><path d="M79.69,348.59s4.37,1.31,3.81,2-17.35.5-24.75-.24l0-.33,19.59.41S78.83,348.61,79.69,348.59Z"/></g><path class="cls-7" d="M58.55,350l.25,0,.72.05,2.68.15c2.25.11,5.37.22,8.82.27s6.57,0,8.83,0l2.68-.08.73,0,.25,0h-1l-2.68,0c-2.26,0-5.38,0-8.83,0s-6.56-.14-8.82-.22l-2.67-.09-.73,0A.93.93,0,0,0,58.55,350Z"/><path class="cls-7" d="M78.36,350.69a5.71,5.71,0,0,1,.51-1.27,6.38,6.38,0,0,1,.93-1,2.06,2.06,0,0,0-1.08.92A1.91,1.91,0,0,0,78.36,350.69Z"/><path class="cls-7" d="M74.05,348.44s.25-.23.47-.56.36-.63.32-.66-.25.22-.47.56S74,348.41,74.05,348.44Z"/><path class="cls-7" d="M72.86,347.79s.27-.11.53-.34.43-.43.4-.47-.27.11-.52.34S72.83,347.75,72.86,347.79Z"/><path class="cls-7" d="M72.13,346.39a1.68,1.68,0,0,0,.76.11,1.71,1.71,0,0,0,.77-.07c0-.05-.34-.1-.76-.11A1.71,1.71,0,0,0,72.13,346.39Z"/><path class="cls-7" d="M71.88,345.41a1.52,1.52,0,0,0,.86.26,1.4,1.4,0,0,0,.88-.11,5.82,5.82,0,0,0-.87-.07A4.46,4.46,0,0,0,71.88,345.41Z"/><path class="cls-7" d="M74.56,347.16a2.64,2.64,0,0,0,1,0,5.77,5.77,0,0,0,1-.2,3.66,3.66,0,0,0,.58-.23.57.57,0,0,0,.23-.29.36.36,0,0,0-.14-.38,1.73,1.73,0,0,0-2.15.48,1.69,1.69,0,0,0-.31.62.58.58,0,0,0,0,.26,2.6,2.6,0,0,1,.44-.8,1.69,1.69,0,0,1,.82-.52,1.5,1.5,0,0,1,1.12.09c.15.12.09.29-.08.39a2.7,2.7,0,0,1-.53.22,6.91,6.91,0,0,1-1,.24C74.92,347.13,74.56,347.13,74.56,347.16Z"/><path class="cls-7" d="M74.81,347.21a1,1,0,0,0,.11-.66,1.53,1.53,0,0,0-.25-.69.94.94,0,0,0-.78-.49.36.36,0,0,0-.29.43,1,1,0,0,0,.15.43,3.14,3.14,0,0,0,.44.57,1.24,1.24,0,0,0,.54.39s-.19-.17-.45-.47a3.51,3.51,0,0,1-.38-.57c-.13-.21-.22-.57,0-.61s.48.22.62.41a1.79,1.79,0,0,1,.26.62A4.56,4.56,0,0,1,74.81,347.21Z"/><path class="cls-7" d="M58.9,346a10.46,10.46,0,0,1,1.08.05,4.59,4.59,0,0,1,3.82,3.12c.21.63.23,1.06.26,1.05a.86.86,0,0,0,0-.3,5,5,0,0,0-.15-.79A4.51,4.51,0,0,0,60,345.94a4.13,4.13,0,0,0-.81,0C59,346,58.9,346,58.9,346Z"/><path class="cls-7" d="M60.5,339.91a27,27,0,0,0-.17,3,25.15,25.15,0,0,0,0,3,25.73,25.73,0,0,0,.16-3A26.59,26.59,0,0,0,60.5,339.91Z"/><path class="cls-7" d="M66,348.92a9.08,9.08,0,0,0,2.15.24,8.4,8.4,0,0,0,2.15-.15c0-.05-1,0-2.15,0S66,348.86,66,348.92Z"/><path class="cls-7" d="M63.07,348.87s.08.21.17.43.15.42.2.42.08-.24,0-.49S63.1,348.84,63.07,348.87Z"/><path class="cls-7" d="M62,347.51s.06.19.21.34.3.26.34.22-.06-.18-.21-.34S62,347.47,62,347.51Z"/><path class="cls-7" d="M60.45,346.87c0,.05.21.05.42.13s.37.2.41.16-.08-.23-.35-.33S60.44,346.83,60.45,346.87Z"/><path class="cls-7" d="M59.35,346.57s.07.12.19.17.23.05.25,0-.06-.12-.19-.17S59.37,346.52,59.35,346.57Z"/><path class="cls-9" d="M29.29,347.79,30.47,340l-14.53-2.31-1.85,11.34.89.2c4,.86,20.27,4.09,23.08,3.7C41.19,352.53,29.29,347.79,29.29,347.79Z"/><g class="cls-16"><path d="M19.37,349.78A5.1,5.1,0,0,0,18,346.39a4.91,4.91,0,0,0-3.23-1.59l-.64,4.06Z"/></g><g class="cls-16"><path d="M35.07,350.32s4.13,1.94,3.47,2.56-17.24-2-24.45-3.82l.07-.32L33.49,352S34.22,350.22,35.07,350.32Z"/></g><path class="cls-7" d="M13.94,348.69s.08,0,.24.07l.71.16,2.62.53c2.22.44,5.29,1,8.7,1.55s6.5,1,8.74,1.25l2.66.31.72.07h.26l-.25-.05-.72-.1L35,352.12c-2.24-.31-5.33-.76-8.73-1.3s-6.48-1.09-8.7-1.49l-2.63-.48-.72-.12Z"/><path class="cls-7" d="M33.45,352.21a5.77,5.77,0,0,1,.69-1.18,6.14,6.14,0,0,1,1.06-.87,2,2,0,0,0-1.2.76A1.92,1.92,0,0,0,33.45,352.21Z"/><path class="cls-7" d="M29.51,349.36s.28-.19.54-.49.45-.57.42-.6-.29.18-.55.48S29.47,349.32,29.51,349.36Z"/><path class="cls-7" d="M28.43,348.55s.28-.08.56-.26.5-.37.47-.41-.28.07-.56.26S28.4,348.5,28.43,348.55Z"/><path class="cls-7" d="M27.9,347.06a2,2,0,0,0,.75.21,1.81,1.81,0,0,0,.77.05,1.69,1.69,0,0,0-.74-.22A1.75,1.75,0,0,0,27.9,347.06Z"/><path class="cls-7" d="M27.8,346.05a1.49,1.49,0,0,0,.81.38,1.43,1.43,0,0,0,.89,0,5.1,5.1,0,0,0-.85-.19A4.33,4.33,0,0,0,27.8,346.05Z"/><path class="cls-7" d="M30.2,348.17a2.73,2.73,0,0,0,.93.14,5.43,5.43,0,0,0,1-.06,3,3,0,0,0,.61-.15.48.48,0,0,0,.28-.25.37.37,0,0,0-.08-.39,1.73,1.73,0,0,0-2.2.16,1.87,1.87,0,0,0-.41.57c-.06.16-.07.25-.06.25a2.63,2.63,0,0,1,.55-.73,1.75,1.75,0,0,1,.88-.39,1.48,1.48,0,0,1,1.1.26c.13.13.05.29-.13.37a3.53,3.53,0,0,1-.56.14,6.58,6.58,0,0,1-1,.09C30.56,348.19,30.2,348.14,30.2,348.17Z"/><path class="cls-7" d="M30.43,348.25s.19-.2.22-.63a1.53,1.53,0,0,0-.15-.72.92.92,0,0,0-.7-.6.37.37,0,0,0-.36.38,1.06,1.06,0,0,0,.09.45,3.63,3.63,0,0,0,.35.63c.25.33.47.48.48.46s-.16-.19-.37-.53a3.26,3.26,0,0,1-.3-.62c-.1-.22-.13-.59.11-.59s.44.28.55.49a1.57,1.57,0,0,1,.17.65A3.19,3.19,0,0,1,30.43,348.25Z"/><path class="cls-7" d="M14.87,344.77a10,10,0,0,1,1.06.21,4.7,4.7,0,0,1,2.19,1.33,4.78,4.78,0,0,1,1.14,2.31c.12.65.07,1.08.11,1.08a1,1,0,0,0,0-.3,3.35,3.35,0,0,0,0-.81A4.48,4.48,0,0,0,16,344.85a4.09,4.09,0,0,0-.8-.1A.66.66,0,0,0,14.87,344.77Z"/><path class="cls-7" d="M17.34,339a25.8,25.8,0,0,0-.61,3,25.53,25.53,0,0,0-.42,3,24.58,24.58,0,0,0,.6-3A29.84,29.84,0,0,0,17.34,339Z"/><path class="cls-7" d="M21.43,348.66a8.58,8.58,0,0,0,2.09.55,8.79,8.79,0,0,0,2.15.17c0-.06-1-.15-2.12-.35S21.44,348.61,21.43,348.66Z"/><path class="cls-7" d="M18.58,348.2s.05.21.11.45.08.43.13.44.12-.22,0-.49S18.62,348.17,18.58,348.2Z"/><path class="cls-7" d="M17.72,346.69s0,.2.16.37.26.3.3.27,0-.19-.16-.37S17.76,346.66,17.72,346.69Z"/><path class="cls-7" d="M16.28,345.84c0,.05.2.08.4.19s.34.24.38.22,0-.25-.3-.38S16.28,345.79,16.28,345.84Z"/><path class="cls-7" d="M15.24,345.38s0,.13.16.19.22.09.25.05-.05-.14-.16-.2S15.26,345.33,15.24,345.38Z"/><polyline class="cls-7" points="81.92 207.83 74.98 344.75 56.95 344.75 59.18 222.6 32.45 346.53 13.62 344.24 37.49 205.31"/><path class="cls-17" d="M134.12,175.26s7-3.59,8.22-5.22,1.74-7.38,1.74-7.38l-11.93,4.45Z"/><path class="cls-17" d="M82,160.25c.41.13,8.12,17.33,14.31,17.42s37.77-2.41,37.77-2.41l-2-8.15-30.28-1L92,152.71Z"/><path class="cls-17" d="M51.1,107.65l2.51,29.17,14.61-1.17c.09-1.7,0-8.3,0-8.3s6.08-.95,6.16-7c0-3-.39-9.06-.83-14.55A11.26,11.26,0,0,0,61.65,95.45h0A11.25,11.25,0,0,0,51.1,107.65Z"/><path class="cls-18" d="M68.2,127.26A14.15,14.15,0,0,1,60.28,125s1.87,4.37,7.94,3.82Z"/><path class="cls-7" d="M72,109.82a.86.86,0,0,1-.84.87.82.82,0,0,1-.89-.78.86.86,0,0,1,.83-.88A.84.84,0,0,1,72,109.82Z"/><path class="cls-7" d="M72.22,108.84c-.11.11-.77-.37-1.7-.37s-1.62.47-1.72.36.06-.26.36-.48a2.42,2.42,0,0,1,1.37-.42,2.29,2.29,0,0,1,1.36.44C72.17,108.59,72.27,108.79,72.22,108.84Z"/><path class="cls-7" d="M62.88,110a.86.86,0,0,1-.84.87.83.83,0,0,1-.89-.78.87.87,0,0,1,.84-.88A.84.84,0,0,1,62.88,110Z"/><path class="cls-7" d="M63,109c-.11.11-.77-.38-1.7-.38s-1.62.47-1.72.36.06-.25.36-.47a2.34,2.34,0,0,1,1.37-.43,2.38,2.38,0,0,1,1.36.44C63,108.76,63.09,109,63,109Z"/><path class="cls-7" d="M66.43,115.94a6.29,6.29,0,0,1,1.51-.27c.24,0,.47-.07.51-.24a1.29,1.29,0,0,0-.16-.7c-.23-.58-.46-1.19-.71-1.82A29.86,29.86,0,0,1,66,108.16a32.3,32.3,0,0,1,2,4.61c.24.64.46,1.25.68,1.83a1.4,1.4,0,0,1,.12.94.6.6,0,0,1-.39.34,1.62,1.62,0,0,1-.41.06A5.62,5.62,0,0,1,66.43,115.94Z"/><path class="cls-7" d="M63.68,116.59c.15,0,.15,1,1,1.72s2,.61,2,.75-.24.2-.69.21a2.49,2.49,0,0,1-1.63-.57,2.23,2.23,0,0,1-.8-1.44C63.5,116.83,63.61,116.58,63.68,116.59Z"/><path class="cls-7" d="M63.28,105.36c-.09.25-1,.13-2.12.26s-2,.43-2.13.2.09-.34.45-.59a3.57,3.57,0,0,1,1.57-.55,3.62,3.62,0,0,1,1.66.19C63.12,105,63.32,105.24,63.28,105.36Z"/><path class="cls-7" d="M71.87,106.14c-.16.21-.8,0-1.58,0s-1.43.14-1.58-.08,0-.32.33-.52a2.26,2.26,0,0,1,2.54.08C71.86,105.82,72,106,71.87,106.14Z"/><path class="cls-17" d="M53.15,112.21c-.11,0-4.18-1.23-4,2.92s4.28,3.17,4.28,3.05S53.15,112.21,53.15,112.21Z"/><path class="cls-18" d="M52.07,116.64s-.08.06-.2.12a.74.74,0,0,1-.54,0,1.8,1.8,0,0,1-.88-1.58,2.5,2.5,0,0,1,.17-1,.82.82,0,0,1,.53-.57.36.36,0,0,1,.43.18c.06.12,0,.2.06.21s.09-.08,0-.25a.47.47,0,0,0-.17-.25.52.52,0,0,0-.41-.09,1,1,0,0,0-.73.66,2.5,2.5,0,0,0-.22,1.17A1.88,1.88,0,0,0,51.28,117a.79.79,0,0,0,.66-.13C52.06,116.74,52.08,116.65,52.07,116.64Z"/><path class="cls-7" d="M50.84,112.07a2.18,2.18,0,0,1,2,1c.27.59.33,1.26.6,1.85a1.46,1.46,0,0,0,1.51,1,1.28,1.28,0,0,0,.86-1,3.55,3.55,0,0,0,0-1.34c-.25-1.94-.66-3.87-.73-5.82a10,10,0,0,1,1.22-5.65,5.45,5.45,0,0,1,4.86-2.73c1.29.1,2.48.77,3.76,1A5.07,5.07,0,0,0,69.16,99c.14-.14.79-.57.79-.57a2.44,2.44,0,0,0-.44-1.29C67,94.79,62.38,94.13,59,95a12.1,12.1,0,0,0-8,6.37c-1.45,3.15-1,7.53-.22,10.72"/><path class="cls-8" d="M50.75,118c.06,0-.11.27,0,.59a.53.53,0,0,0,.32.39.67.67,0,0,0,.6,0,.86.86,0,0,0,.28-1.11c-.15-.32-.37-.47-.33-.54s.34,0,.64.35a1.19,1.19,0,0,1-.32,1.74,1.11,1.11,0,0,1-1.1,0,.93.93,0,0,1-.46-.78C50.37,118.12,50.73,118,50.75,118Z"/><path class="cls-9" d="M36.46,208.38H82.63c.12-4.88-.07-44.25-.07-44.25L85,168.72l12.72-11.34-11.11-15a22,22,0,0,0-14.72-8.7c-1.72-.24-3-.35-3.88-.46a25,25,0,0,1-15.09,0h0a20.47,20.47,0,0,0-6.24,1.2,25.59,25.59,0,0,0-10,6.45h0L23.41,163.2l16.14,10.14,2.32-7Z"/><path class="cls-7" d="M43.64,152.92a9,9,0,0,1,0,2.24c-.07,1.37-.22,3.27-.47,5.35s-.52,4-.78,5.32a8.46,8.46,0,0,1-.54,2.17,10.89,10.89,0,0,1,.18-2.22c.18-1.57.39-3.36.63-5.33s.43-3.76.61-5.32A11.06,11.06,0,0,1,43.64,152.92Z"/><path class="cls-7" d="M82.63,171.26a23.48,23.48,0,0,1-.29-3.24c-.14-2-.32-4.76-.57-7.8s-.52-5.8-.72-7.79a20,20,0,0,1-.23-3.24,18.28,18.28,0,0,1,.6,3.19c.29,2,.62,4.74.87,7.8s.37,5.82.41,7.83A18.25,18.25,0,0,1,82.63,171.26Z"/><path class="cls-4" d="M52.59,134.73a39.66,39.66,0,0,0-5.15,2.16,24.85,24.85,0,0,0-9.6,9.16,69.1,69.1,0,0,0-3.46,6.57c-1,2.07-1.9,3.94-2.75,5.46a35.24,35.24,0,0,1-2.22,3.47,8,8,0,0,1-1,1.16,8.82,8.82,0,0,1,.81-1.27c.52-.82,1.27-2,2.06-3.54S33,154.5,34,152.42a60.68,60.68,0,0,1,3.45-6.64A25.22,25.22,0,0,1,42.19,140a24.36,24.36,0,0,1,5.08-3.44,22.88,22.88,0,0,1,3.85-1.51,10.49,10.49,0,0,1,1.09-.27C52.46,134.73,52.59,134.71,52.59,134.73Z"/><path class="cls-4" d="M51.76,133.78a19.89,19.89,0,0,0-5.4,1.76,21.68,21.68,0,0,0-5,3.58A32.44,32.44,0,0,0,36.61,145c-2.9,4.54-4.93,9-6.75,12.08-.89,1.54-1.68,2.75-2.26,3.56a7.58,7.58,0,0,1-1,1.21,8.88,8.88,0,0,1,.79-1.32c.52-.84,1.25-2.08,2.1-3.63s1.79-3.43,2.87-5.52a75.53,75.53,0,0,1,3.77-6.66A31.39,31.39,0,0,1,41,138.77a20.58,20.58,0,0,1,5.16-3.56,15.77,15.77,0,0,1,4-1.31c.49-.07.88-.12,1.14-.13S51.76,133.76,51.76,133.78Z"/><path class="cls-4" d="M96.13,157.21a8.89,8.89,0,0,1-1.15-1,31.42,31.42,0,0,1-2.71-3.13c-1.06-1.39-2.23-3.11-3.51-5a59.74,59.74,0,0,0-4.4-6,21.56,21.56,0,0,0-5.61-4.78,27.37,27.37,0,0,0-5.58-2.36c-1.66-.5-3-.8-4-1a10.12,10.12,0,0,1-1.48-.36,6.71,6.71,0,0,1,1.51.16,34.31,34.31,0,0,1,4,.86,25.05,25.05,0,0,1,5.71,2.3,21,21,0,0,1,5.77,4.85,54.48,54.48,0,0,1,4.41,6.1c1.26,1.93,2.39,3.66,3.41,5.07s1.93,2.47,2.56,3.21A7.93,7.93,0,0,1,96.13,157.21Z"/><path class="cls-4" d="M72.11,156.35c-.13.05-.43-.4-.52-1s.07-1.15.21-1.14.22.49.31,1.06S72.24,156.3,72.11,156.35Z"/><path class="cls-4" d="M73.56,156.15c-.15,0-.35-.42-.47-1s-.09-1.06,0-1.09.35.42.46,1S73.7,156.12,73.56,156.15Z"/><path class="cls-4" d="M75.2,156.56c-.14,0-.33-.6-.42-1.37s0-1.41.11-1.42.33.59.41,1.36S75.34,156.54,75.2,156.56Z"/><path class="cls-4" d="M76.64,157.52a6.24,6.24,0,0,1-2.49.26,6.24,6.24,0,0,1-2.49-.26,6,6,0,0,1,2.49-.26A6,6,0,0,1,76.64,157.52Z"/><path class="cls-8" d="M133.64,162.68l18-6.07.7,2.32s-7,11.1-15.25,13.39Z"/><path class="cls-8" d="M80.06,195s27.83-19.53,29.5-20.12,13.61-.62,16.6-.3,11.56-.56,11.56-.56l-8.83-24.49,18.76-4.81-1-3.35s-15.1-9.06-23.82-6.48-12.81,14-14.63,16.87-5.74,13-24.37,24.89l-11,7.35Z"/><path class="cls-7" d="M110.08,155.52a1.92,1.92,0,0,0,.11.28c.08.2.19.45.33.76.3.7.71,1.67,1.24,2.89,1.1,2.5,2.65,6.06,4.55,10.43l.18-.25a24.23,24.23,0,0,0-3.2,0,9.08,9.08,0,0,0-3.39.71c-2.07,1.17-4.11,2.59-6.28,4-4.32,2.94-9,6.21-13.85,9.65a4.14,4.14,0,0,1-2,1,3.38,3.38,0,0,1-3.75-4.1A3.41,3.41,0,0,1,85,179.09c.55-.43,1.19-.86,1.77-1.28l3.49-2.49c4.52-3.24,8.59-6.16,12-8.61a10.19,10.19,0,0,0,2.15-2.15c.59-.75,1.1-1.49,1.56-2.18.94-1.4,1.68-2.63,2.28-3.65s1-1.82,1.33-2.36l.33-.63c.07-.14.09-.21.1-.22s-.06.06-.14.2l-.37.6-1.41,2.31c-.62,1-1.39,2.22-2.33,3.6-.48.68-1,1.41-1.59,2.15a9.58,9.58,0,0,1-2.11,2.05L90,175l-3.49,2.47c-.6.43-1.19.82-1.81,1.3a3.93,3.93,0,0,0-1.21,2,3.85,3.85,0,0,0,4.28,4.67,4.76,4.76,0,0,0,2.24-1.06c4.86-3.44,9.51-6.72,13.82-9.67,2.15-1.46,4.21-2.9,6.22-4.05a8.59,8.59,0,0,1,3.23-.69,27.34,27.34,0,0,1,3.14,0l.3,0-.13-.27-4.8-10.46c-.56-1.2-1-2.13-1.3-2.81l-.34-.71C110.11,155.59,110.08,155.51,110.08,155.52Z"/><path class="cls-8" d="M37.84,217.28h0a8.21,8.21,0,0,0,11.69,2.07l37.13-29-6.59-11.22L40,206A8.21,8.21,0,0,0,37.84,217.28Z"/><polygon class="cls-7" points="119.37 153.95 122.72 164.38 128.84 164.42 125.04 153.98 119.37 153.95"/><path class="cls-7" d="M129.23,162.09c0-.26-2-.48-4.5-.49s-4.51.18-4.51.45,2,.48,4.5.49S129.23,162.35,129.23,162.09Z"/><path class="cls-7" d="M128.07,158.76c0-.26-2-.48-4.51-.5s-4.51.19-4.51.45,2,.49,4.51.5S128.07,159,128.07,158.76Z"/><path class="cls-7" d="M127.34,155.58c0-.26-2-.48-4.5-.5s-4.51.19-4.51.45,2,.49,4.5.5S127.34,155.84,127.34,155.58Z"/><path class="cls-7" d="M133.54,161.51A23.73,23.73,0,0,0,135,167a28.5,28.5,0,0,0,2.23,5.17,39.27,39.27,0,0,0-1.78-5.33C134.42,163.88,133.67,161.48,133.54,161.51Z"/><path class="cls-17" d="M72.7,194.51c3-.58,5.17-2.18,5.45-3a1,1,0,0,0-1.57-1,11.54,11.54,0,0,1-2.91,1.16,7.54,7.54,0,0,1-2.5.28c-1-.06-1.81-.15-2.51-.24l-4-.09L35.93,179.13l2.47-6.5-13.16-8.28S20.5,172.41,18.8,180c-2.08,9.24,29.56,17.77,41.24,19.9h0l2.34,2.31c2.31,1.92,3.52,3.07,4.67,3.11,1.55,0,1.21-1.79,1.21-1.79s2,1,2.84-.05a1.33,1.33,0,0,0-.11-1.54s1.87.84,2.7.54c1.14-.39.6-1.76.6-1.76,3,.72,3.93-.56,3.62-1.1s-2.4-1.33-2.4-1.33C74,197.41,69.65,195.1,72.7,194.51Z"/><path class="cls-7" d="M133.64,135.59a4,4,0,0,1,1.07.18,27.72,27.72,0,0,1,2.85.94,80,80,0,0,1,9.22,4.41l.09,0,0,.1c.32,1.08.66,2.2,1,3.34l.08.26-.27.07-.78.2c-5,1.27-9.47,2.4-12.73,3.19l-3.88.9a8.09,8.09,0,0,1-1.43.27,6.88,6.88,0,0,1,1.38-.46l3.84-1.07c3.24-.88,7.73-2.06,12.69-3.34l.78-.2-.18.33-1-3.34.12.14a99,99,0,0,0-9.1-4.55c-1.16-.5-2.11-.84-2.77-1.07A6.32,6.32,0,0,1,133.64,135.59Z"/><path class="cls-7" d="M137.74,172.13a8.73,8.73,0,0,1,1.37-.78c.45-.22,1-.53,1.6-.9s1.31-.79,2.06-1.3a31.42,31.42,0,0,0,4.87-4,22.69,22.69,0,0,0,4.49-6.27V159c-.06-.2-.12-.42-.19-.64-.18-.57-.35-1.15-.51-1.68l.33.17c-5.06,1.7-9.57,3.19-12.83,4.23l-3.85,1.22a7.5,7.5,0,0,1-1.43.37,8.41,8.41,0,0,1,1.37-.56l3.8-1.36c3.22-1.14,7.72-2.68,12.77-4.39l.26-.09.07.26c.17.53.34,1.1.52,1.68.06.22.13.43.19.64l0,.09,0,.08a22.46,22.46,0,0,1-4.64,6.41,30.47,30.47,0,0,1-5,4c-.77.49-1.47.91-2.12,1.24a15.94,15.94,0,0,1-1.66.83A9.28,9.28,0,0,1,137.74,172.13Z"/><path class="cls-8" d="M55.07,147.56a5,5,0,0,0-5,4.94v0a5,5,0,0,0,5,4.94h4.58a.31.31,0,0,0,.31-.31v-4.58a5,5,0,0,0-5-5Zm0,6.66a1.7,1.7,0,1,1,1.7-1.7A1.7,1.7,0,0,1,55.05,154.22Z"/></g></g></svg>