<svg xmlns="http://www.w3.org/2000/svg" viewBox="0 0 692.01 405.43"><defs><style>.cls-1{fill:#e1e0e0;}.cls-2{fill:#ececec;}.cls-3{fill:#fbfbfb;}.cls-4{fill:#f5f5f5;}.cls-5{fill:#7bb732;}.cls-6{fill:#192e35;}.cls-7{fill:#385a65;}.cls-8{fill:#026a9d;}.cls-9{opacity:0.4;}.cls-10{fill:#fff;}.cls-11{fill:#f8b9a0;}.cls-12{fill:#f3976f;}.cls-13{opacity:0.3;}</style></defs><title>discounts</title><g id="Capa_2" data-name="Capa 2"><g id="Background_Complete" data-name="Background Complete"><path class="cls-1" d="M550.73,68.63l1,3.54-3.19,22.47-5.93,1.65,3.14-21.48L537.92,77,539,80.82l-4.85,1.35-2.3-8.29Z"/><path class="cls-1" d="M574.9,79.33c1.16,4.17-.9,8.66-7.63,10.54a16.91,16.91,0,0,1-9.7,0l1-4.77a11.73,11.73,0,0,0,7.29.25c2.73-.75,4.09-2.37,3.56-4.29s-2.07-2.73-6.34-1.54l-6,1.68-2.48-13.61,14.38-4,1.22,4.38-9.83,2.74.87,4.58,1.92-.53C570.1,72.79,573.73,75.15,574.9,79.33Z"/><path class="cls-1" d="M574.46,68.75c-1.07-3.84.37-7,3.54-7.88s6,1,7.1,4.92-.41,7-3.54,7.88S575.52,72.59,574.46,68.75Zm9-2.5c-.86-3.06-2.81-4.48-5-3.87s-3.12,2.87-2.28,5.9,2.77,4.49,5,3.87S584.27,69.32,583.42,66.25Zm8.91-9.18,2-.56-9.54,28.06-2,.55ZM592,75.84c-1.07-3.84.4-7,3.54-7.88s6,1.08,7.1,4.92-.38,7-3.54,7.88S593.06,79.68,592,75.84Zm9-2.49c-.84-3-2.77-4.49-5-3.87s-3.13,2.83-2.28,5.9,2.81,4.48,5,3.87S601.8,76.38,601,73.35Z"/><rect class="cls-2" x="602.43" y="308.33" width="70.41" height="88.88" transform="translate(1272.5 710.5) rotate(-179.55)"/><polygon class="cls-3" points="645.66 311.2 644.4 397.26 633.28 397.17 635.66 311.13 645.66 311.2"/><polygon class="cls-1" points="562.36 310.55 602.76 310.87 673.16 311.42 602.68 320.69 602.09 396.93 561.71 396.61 562.36 310.55"/><polygon class="cls-3" points="584.35 310.73 582.75 396.78 570.76 396.68 572.72 310.63 584.35 310.73"/><path class="cls-1" d="M616.32,284.54c0,.17-1.19.39-3.35.6a88.14,88.14,0,0,1-9.24.41,52.05,52.05,0,0,1-13.78-1.8,10.45,10.45,0,0,1-2-.9,5.71,5.71,0,0,1-1.84-1.74,4.9,4.9,0,0,1-.74-2.58,10.15,10.15,0,0,1,.3-2.36,53.68,53.68,0,0,1,2.61-8.46,21.49,21.49,0,0,1,2.28-4,12.9,12.9,0,0,1,3.35-3.32,7.3,7.3,0,0,1,2.33-1,5.92,5.92,0,0,1,2.55.05,10.15,10.15,0,0,1,3.89,2.13A40.37,40.37,0,0,1,611.84,272a33.48,33.48,0,0,1,3.71,8.57c.55,2.14.62,3.37.46,3.4-.44.14-1.43-4.67-5.72-11a42.36,42.36,0,0,0-9.1-9.56,8.14,8.14,0,0,0-3-1.6,3.8,3.8,0,0,0-3,.64,10.63,10.63,0,0,0-2.62,2.68,20,20,0,0,0-2,3.58,53.84,53.84,0,0,0-2.52,8,4,4,0,0,0,.07,3,4.84,4.84,0,0,0,2.53,1.69,31,31,0,0,0,3.47.92c1.16.27,2.29.46,3.4.64,2.21.34,4.3.54,6.21.67,3.83.27,7,.32,9.13.42S616.31,284.35,616.32,284.54Z"/><path class="cls-3" d="M614.86,285.18c0-.18,1.28-.56,3.66-1.1s5.82-1.24,10-2.26a94.25,94.25,0,0,0,14.38-4.54,15.7,15.7,0,0,0,3.61-1.92,4,4,0,0,0,1.16-1.28,2.14,2.14,0,0,0,.2-1.45,7.77,7.77,0,0,0-.69-1.9c-.33-.72-.67-1.43-1-2.16a36.42,36.42,0,0,0-2.31-4.14,17.92,17.92,0,0,0-3-3.49,11.3,11.3,0,0,0-3.58-2.3,5.59,5.59,0,0,0-3.71-.16,9.61,9.61,0,0,0-3.32,2,50.76,50.76,0,0,0-9.64,11.35,42.93,42.93,0,0,0-4.27,9.15c-.75,2.28-1,3.6-1.26,3.57s-.19-1.4.28-3.83a34.82,34.82,0,0,1,3.66-9.81,47.71,47.71,0,0,1,9.64-12.23,12,12,0,0,1,4.15-2.58,8.12,8.12,0,0,1,5.33.13,11.59,11.59,0,0,1,2.39,1.19,18.17,18.17,0,0,1,2.06,1.58,20.29,20.29,0,0,1,3.4,4,36.23,36.23,0,0,1,2.46,4.45c.34.74.69,1.47,1,2.2a10.39,10.39,0,0,1,.87,2.56,4.75,4.75,0,0,1-.5,3.06,6.32,6.32,0,0,1-1.88,2.07,17.67,17.67,0,0,1-4.2,2.16,81.07,81.07,0,0,1-14.9,4.12c-4.31.8-7.82,1.22-10.25,1.46S614.89,285.36,614.86,285.18Z"/><rect class="cls-1" x="549.66" y="281.44" width="103.5" height="29.42" transform="translate(1200.48 596.99) rotate(-179.55)"/><rect class="cls-2" x="587.71" y="281.7" width="93.55" height="29.42" transform="translate(1266.64 597.76) rotate(-179.55)"/><polygon class="cls-3" points="652.68 281.84 652.02 311.39 641.11 311.17 641.87 281.76 652.68 281.84"/><polygon class="cls-3" points="575.16 281.38 574.1 310.67 562.11 310.57 562.75 281.14 575.16 281.38"/><rect class="cls-2" x="655.94" y="357.5" width="32.16" height="40.6" transform="translate(1341.08 760.83) rotate(-179.55)"/><polygon class="cls-3" points="675.69 358.81 675.12 398.12 670.04 398.08 671.13 358.77 675.69 358.81"/><polygon class="cls-1" points="637.64 358.51 656.09 358.66 688.25 358.91 656.06 363.14 655.79 397.97 637.34 397.82 637.64 358.51"/><polygon class="cls-3" points="647.69 358.59 646.95 397.9 641.48 397.86 642.37 358.55 647.69 358.59"/><path class="cls-1" d="M662.29,346.63c0,.33-2.15.83-5.77,1a22.42,22.42,0,0,1-6.49-.7,3.86,3.86,0,0,1-2.12-1.47,2.84,2.84,0,0,1-.45-1.52,5,5,0,0,1,.15-1.25,23.61,23.61,0,0,1,1.21-4,10.48,10.48,0,0,1,1.12-2,6.64,6.64,0,0,1,1.73-1.69,3.6,3.6,0,0,1,2.76-.49,5.27,5.27,0,0,1,2,1.12,17.62,17.62,0,0,1,4.21,5c1.81,3.3,1.79,5.7,1.49,5.74s-1-2-3-4.74a20,20,0,0,0-4.15-4.13,2.87,2.87,0,0,0-1.1-.58,1,1,0,0,0-.83.22,4.23,4.23,0,0,0-1,1.05,9,9,0,0,0-.83,1.5,25.61,25.61,0,0,0-1.12,3.54c-.15.55-.12.8-.07.86a1.52,1.52,0,0,0,.79.52,21.18,21.18,0,0,0,3,.74c1,.18,1.92.3,2.78.39C660.05,346.09,662.28,346.24,662.29,346.63Z"/><path class="cls-3" d="M661.62,346.92c-.06-.37,2.35-1,6.15-2a48.58,48.58,0,0,0,6.43-2.19,6.38,6.38,0,0,0,1.48-.81,1.1,1.1,0,0,0,.33-.37.32.32,0,0,0,0-.23,12.66,12.66,0,0,0-.73-1.66,16.42,16.42,0,0,0-1-1.8,7.79,7.79,0,0,0-1.23-1.47,4.62,4.62,0,0,0-1.4-.92,1.91,1.91,0,0,0-1.26-.08,3.66,3.66,0,0,0-1.29.77,24.07,24.07,0,0,0-4.4,4.94c-2.11,3.18-2.55,5.63-3,5.56-.17,0-.28-.67-.15-1.82a14.56,14.56,0,0,1,1.51-4.66,21.43,21.43,0,0,1,4.41-5.83,6,6,0,0,1,2.12-1.33,4.41,4.41,0,0,1,2.87.05,6.22,6.22,0,0,1,1.24.61,7.82,7.82,0,0,1,1,.79,10,10,0,0,1,1.67,1.95,16.61,16.61,0,0,1,1.17,2.12l.47,1a5,5,0,0,1,.44,1.35,2.83,2.83,0,0,1-.3,1.83,3.55,3.55,0,0,1-1.06,1.16,8.29,8.29,0,0,1-2.08,1.05,34.27,34.27,0,0,1-7,1.77C664.15,347.28,661.68,347.26,661.62,346.92Z"/><rect class="cls-1" x="631.84" y="345.22" width="47.27" height="13.44" transform="translate(1308.18 708.98) rotate(-179.55)"/><rect class="cls-2" x="649.22" y="345.33" width="42.73" height="13.44" transform="translate(1338.41 709.33) rotate(-179.55)"/><polygon class="cls-3" points="678.9 345.4 678.6 358.9 673.61 358.79 673.96 345.36 678.9 345.4"/><polygon class="cls-3" points="643.49 345.19 643 358.57 637.53 358.52 637.82 345.08 643.49 345.19"/><rect class="cls-2" x="44.16" y="325.22" width="57.68" height="72.81" transform="translate(143.16 723.81) rotate(-179.55)"/><polygon class="cls-3" points="79.56 327.58 78.54 398.07 69.43 398 71.38 327.51 79.56 327.58"/><polygon class="cls-1" points="11.33 327.04 44.42 327.3 102.1 327.75 44.36 335.35 43.87 397.8 10.79 397.54 11.33 327.04"/><polygon class="cls-3" points="29.34 327.19 28.03 397.68 18.21 397.6 19.82 327.11 29.34 327.19"/><path class="cls-1" d="M55.53,305.73c0,.36-1,.74-2.73,1.1a48.27,48.27,0,0,1-7.62.82,45.61,45.61,0,0,1-5.39-.13c-1-.09-2-.2-3-.37a25,25,0,0,1-3.3-.73,8.89,8.89,0,0,1-1.95-.85,5.81,5.81,0,0,1-2-1.87,5.44,5.44,0,0,1-.85-2.87,9.47,9.47,0,0,1,.26-2.3,42.92,42.92,0,0,1,2.19-7.2,19.79,19.79,0,0,1,2-3.6,17.28,17.28,0,0,1,1.37-1.62,10.64,10.64,0,0,1,1.81-1.47,7.21,7.21,0,0,1,2.41-1,6.43,6.43,0,0,1,2.73.06,9.53,9.53,0,0,1,3.73,2.06,32.14,32.14,0,0,1,7.56,9.09,23.93,23.93,0,0,1,2.69,7.42c.29,1.85.14,2.9-.19,3-.77.19-2-3.59-5.6-8.4a36.29,36.29,0,0,0-7.42-7.31,5.13,5.13,0,0,0-1.89-1,1.68,1.68,0,0,0-1.28.36,5.5,5.5,0,0,0-.84.74,12.64,12.64,0,0,0-.88,1.09,15.43,15.43,0,0,0-1.46,2.64,46.31,46.31,0,0,0-2,6.3,5.62,5.62,0,0,0-.19,1.05,1.11,1.11,0,0,0,0,.3,2.56,2.56,0,0,0,1.29.83,26.25,26.25,0,0,0,2.65.77c.91.23,1.81.41,2.68.58,1.76.33,3.43.55,5,.73,3.08.35,5.64.56,7.42.83S55.52,305.37,55.53,305.73Z"/><path class="cls-3" d="M54.34,306.26c-.13-.75,4.2-1.95,11-3.82a87.79,87.79,0,0,0,11.47-4,11.53,11.53,0,0,0,2.6-1.42,1.93,1.93,0,0,0,.53-.58c0-.1,0,0,0-.25a6,6,0,0,0-.46-1.17l-.83-1.73a28.1,28.1,0,0,0-1.79-3.21,12.78,12.78,0,0,0-2.16-2.57,11.34,11.34,0,0,0-1.24-1,5.65,5.65,0,0,0-1.18-.63,3.23,3.23,0,0,0-2.08-.15,6.31,6.31,0,0,0-2.24,1.32,43.73,43.73,0,0,0-7.88,8.77c-3.82,5.64-4.68,10-5.47,9.88-.34-.05-.57-1.21-.36-3.29A25.56,25.56,0,0,1,56.86,294a37.89,37.89,0,0,1,7.91-10.54A10.88,10.88,0,0,1,68.66,281a8.15,8.15,0,0,1,5.32.09,11.16,11.16,0,0,1,2.27,1.12,16.33,16.33,0,0,1,1.88,1.43,17.66,17.66,0,0,1,3,3.56,30,30,0,0,1,2.12,3.83l.84,1.84a9.73,9.73,0,0,1,.81,2.48,5.34,5.34,0,0,1-.57,3.45,6.8,6.8,0,0,1-2,2.17,15.7,15.7,0,0,1-3.8,1.91,61.78,61.78,0,0,1-12.51,3.13,65.59,65.59,0,0,1-8.53.72C55.54,306.78,54.4,306.61,54.34,306.26Z"/><rect class="cls-1" x="0.92" y="303.2" width="84.78" height="24.1" transform="translate(84.17 630.82) rotate(-179.55)"/><rect class="cls-2" x="32.1" y="303.41" width="76.64" height="24.1" transform="translate(138.37 631.45) rotate(-179.55)"/><polygon class="cls-3" points="85.32 303.52 84.78 327.73 75.84 327.55 76.46 303.45 85.32 303.52"/><polygon class="cls-3" points="21.81 303.15 20.95 327.14 11.12 327.06 11.65 302.95 21.81 303.15"/><path class="cls-1" d="M110,26.66l1,3.8L95.69,34.38l-.77-3L100.81,22c1.35-2.16,1.41-3.28,1.15-4.26-.4-1.59-1.74-2.23-3.87-1.68a5.07,5.07,0,0,0-3.66,3.09l-4-1.32c1-2.67,3.42-4.87,7.05-5.8,4.5-1.16,8.09.38,9,4,.5,2,.41,3.89-1.74,7.24l-3.52,5.57Z"/><path class="cls-1" d="M110.23,19.89c-1.71-6.66,1-11.39,6-12.66s9.62,1.56,11.33,8.22-1,11.37-6,12.66S111.94,26.55,110.23,19.89Zm12.6-3.24c-1.17-4.58-3.28-6.07-5.61-5.47s-3.44,2.91-2.26,7.49,3.28,6.08,5.59,5.49S124,21.24,122.83,16.65Z"/><path class="cls-1" d="M128.68,10.08c-.84-3.29.44-5.95,3.15-6.65s5.11,1,6,4.31-.47,6-3.15,6.65S129.52,13.37,128.68,10.08Zm7.67-2c-.67-2.62-2.31-3.86-4.19-3.38s-2.7,2.38-2,5,2.29,3.87,4.19,3.38S137,10.73,136.35,8.11ZM144.09.44l1.7-.44-8.6,23.72-1.7.44Zm-.6,16c-.84-3.29.47-6,3.15-6.65s5.12,1,6,4.31-.43,6-3.14,6.65S144.34,19.71,143.49,16.42Zm7.67-2c-.66-2.6-2.28-3.87-4.18-3.38s-2.72,2.35-2,5,2.32,3.86,4.19,3.38S151.83,17,151.16,14.45Z"/><path class="cls-1" d="M299.41,89.89c.07,4.12-3.05,8-10,8.07A16.8,16.8,0,0,1,280,95.5l2.13-4.37a11.79,11.79,0,0,0,7,2.08c2.83,0,4.55-1.23,4.52-3.22s-1.41-3-4.63-2.93l-2.59,0-.06-3.74,4.93-5.78L281,77.76l-.08-4.54,17.13-.3.06,3.67L292.65,83C297.06,83.6,299.35,86.29,299.41,89.89Z"/><path class="cls-1" d="M302,85.09c-.14-8.07,4.25-12.73,10.26-12.83s10.57,4.39,10.71,12.47-4.22,12.73-10.27,12.83S302.08,93.16,302,85.09Zm15.27-.26c-.1-5.56-2.09-7.83-4.92-7.79s-4.72,2.39-4.62,7.95,2.09,7.83,4.89,7.78S317.32,90.38,317.22,84.83Z"/><path class="cls-1" d="M325.68,78.91c-.07-4,2.13-6.68,5.41-6.74s5.57,2.53,5.64,6.55-2.16,6.68-5.41,6.74S325.75,82.9,325.68,78.91Zm9.3-.16c-.05-3.18-1.59-5-3.86-5s-3.74,2-3.69,5.13,1.56,5,3.86,5S335,81.93,335,78.75Zm10.93-6.66,2.07,0L331.69,96.81l-2.06,0Zm-5,18.1c-.07-4,2.15-6.68,5.4-6.74S351.85,86,351.92,90s-2.12,6.68-5.41,6.73S340.94,94.17,340.88,90.19Zm9.29-.16c-.05-3.15-1.55-5-3.86-5s-3.74,2-3.69,5.14,1.59,5,3.87,5S350.23,93.17,350.17,90Z"/><path class="cls-4" d="M417.75,14.3c-.48,3.13-3.19,5.5-8.23,4.73a12.42,12.42,0,0,1-6.44-2.92l2.09-2.88A8.64,8.64,0,0,0,410,15.58c2,.32,3.43-.35,3.65-1.79s-.56-2.43-3.76-2.92l-4.51-.69L407.75.39,418.52,2,418,5.31l-7.36-1.12-.79,3.31,1.43.22C416.52,8.51,418.23,11.17,417.75,14.3Z"/><path class="cls-4" d="M419.92,11.28c.89-5.82,4.62-8.63,8.95-8s7.06,4.46,6.17,10.28-4.6,8.63-9,8S419,17.1,419.92,11.28Zm11,1.68c.61-4-.54-5.89-2.59-6.2s-3.68,1.14-4.29,5.15.55,5.89,2.56,6.19S430.32,17,430.93,13Z"/><path class="cls-4" d="M437.74,9.75c.44-2.88,2.35-4.55,4.72-4.18s3.69,2.49,3.25,5.39-2.37,4.54-4.72,4.18S437.3,12.62,437.74,9.75Zm15.39-2.43,1.48.23-14.74,15.8-1.49-.22Zm-8.68,3.45c.35-2.29-.53-3.82-2.17-4.07s-2.93,1-3.28,3.24.5,3.81,2.17,4.07S444.1,13.06,444.45,10.77Zm2.84,9c.43-2.88,2.37-4.54,4.71-4.18s3.69,2.52,3.25,5.39-2.34,4.54-4.71,4.18S446.85,22.59,447.29,19.72Zm6.7,1c.35-2.27-.5-3.82-2.16-4.07s-2.93.94-3.28,3.24.52,3.82,2.16,4.07S453.64,23,454,20.74Z"/><path class="cls-4" d="M16.42,99.17,12.76,114.8,9.14,114l3-12.73L9,100.49l.68-2.9Z"/><path class="cls-4" d="M17.31,107.62c1.21-5.16,4.75-7.41,8.59-6.52s6,4.5,4.81,9.66-4.73,7.42-8.6,6.51S16.1,112.78,17.31,107.62Zm9.76,2.28c.83-3.55-.08-5.31-1.89-5.74s-3.38.77-4.21,4.32.07,5.31,1.86,5.73S26.24,113.46,27.07,109.9Z"/><path class="cls-4" d="M47.36,106.41l1.32.31L34.34,119.85,33,119.54Zm-14,1.09c.59-2.55,2.42-3.91,4.52-3.42s3.13,2.5,2.53,5.07-2.44,3.91-4.52,3.42S32.8,110.05,33.4,107.5Zm5.94,1.39c.47-2-.21-3.46-1.66-3.8s-2.7.66-3.17,2.67.18,3.46,1.66,3.8S38.86,110.92,39.34,108.89Zm1.91,8.22c.6-2.54,2.45-3.9,4.52-3.41s3.13,2.52,2.54,5.06-2.42,3.91-4.52,3.42S40.66,119.66,41.25,117.11Zm5.94,1.39c.47-2-.18-3.45-1.65-3.8s-2.7.64-3.17,2.67.2,3.47,1.65,3.81S46.72,120.51,47.19,118.5Z"/></g><g id="Plant"><path class="cls-5" d="M111.07,260.85C93.66,243,66.39,235.55,42.33,242a125.25,125.25,0,0,0,69.55,21.73"/><path class="cls-5" d="M87.75,178.28c2.87-20.25-5-43-20.17-57.77-.5,20.08,8,42.67,20.17,57.77"/><path class="cls-5" d="M99.88,216.55a108.21,108.21,0,0,0-49.67-47.48c6.33,23.33,26.28,42.41,49.86,47.69"/><path class="cls-5" d="M102.39,223.93c-12.23.34-24.61-.09-36.45-3.22s-23.16-9.15-31-18.52a121.83,121.83,0,0,1,67.3,20.55"/><path class="cls-5" d="M96.18,199.61c6.21-23.27,16.46-39.37,34.75-52.42a48.4,48.4,0,0,1-34.75,52.42"/><path class="cls-5" d="M142.36,239.75a34.44,34.44,0,0,0-20.93-31.91c1,12,10.46,25.92,20.93,31.91"/><path class="cls-5" d="M148.21,220.13c1.39-19.45,15.21-37.43,33.63-43.79-4.22,19.45-15.47,35.64-33.63,43.79"/><path class="cls-5" d="M139.4,255c4.32-6.17,11.36-10,18.64-11.91s14.9-2.08,22.43-2.24A52.43,52.43,0,0,1,140,257.67"/><path class="cls-5" d="M130.66,304.56a57.46,57.46,0,0,1,70.15,33.24c-25.49-4.84-50.63-16.16-70.15-33.24"/><path class="cls-5" d="M102.69,287.32c4.23,12.52,3.42,27.64-6,38.42a45.89,45.89,0,0,1,6-38.42"/><path class="cls-5" d="M86.16,280.37a47.08,47.08,0,0,1-26,38.2,2.93,2.93,0,0,1-2.3.38c-1.14-.47-1.25-2-1.11-3.27,1.85-16,13.72-31.53,29.41-35.31"/><path class="cls-5" d="M75.36,278.75A38.59,38.59,0,0,1,19,279c17.93-2,38.61-3.27,56.39-.28"/><path class="cls-6" d="M72.68,135.44a2.72,2.72,0,0,0,.16.53c.14.37.32.87.55,1.52l2.16,5.8c1,2.51,2.08,5.61,3.37,9.2L81,158.25c.7,2.05,1.45,4.21,2.23,6.48,3.18,9.08,6.71,20,10.51,32.1s7.67,25.57,11.53,39.73,7.19,27.74,10.06,40.12,5.2,23.6,6.94,33.06c.44,2.36.87,4.61,1.27,6.74s.7,4.15,1,6c.65,3.77,1.21,7,1.58,9.67s.72,4.69.94,6.12c.11.68.2,1.2.26,1.59a3.36,3.36,0,0,0,.11.54,2.21,2.21,0,0,0,0-.54c0-.4-.11-.93-.19-1.6-.19-1.44-.47-3.51-.82-6.15s-.85-5.92-1.46-9.69c-.3-1.89-.63-3.9-1-6l-1.23-6.76c-1.67-9.47-4-20.69-6.79-33.11s-6.21-26-10-40.16-7.81-27.58-11.58-39.73-7.42-23-10.66-32.08q-1.2-3.39-2.28-6.47c-.76-2-1.47-3.95-2.13-5.74-1.32-3.58-2.47-6.67-3.48-9.17s-1.75-4.4-2.28-5.76l-.61-1.49A3.92,3.92,0,0,0,72.68,135.44Z"/><path class="cls-6" d="M171.14,186.72a1.92,1.92,0,0,0-.31.29l-.85.9c-.75.8-1.84,2-3.19,3.57a123.93,123.93,0,0,0-10.56,14.07,94.28,94.28,0,0,0-11,23.61c-3,9.4-4.79,20.08-6.62,31.25-3.65,22.35-8.12,42.37-11.36,56.85-1.63,7.2-3,13.05-3.88,17.14-.44,2-.78,3.55-1,4.66-.11.51-.19.91-.25,1.22a2,2,0,0,0-.07.42s.06-.13.14-.4l.31-1.2c.28-1.11.67-2.66,1.16-4.64,1-4.08,2.38-9.91,4.1-17.09,3.36-14.46,7.91-34.48,11.56-56.85,1.82-11.17,3.63-21.82,6.54-31.17a95.85,95.85,0,0,1,10.84-23.54A135,135,0,0,1,167,191.65c1.32-1.6,2.37-2.82,3.09-3.65l.8-.94A2,2,0,0,0,171.14,186.72Z"/><path class="cls-6" d="M70,278a1.9,1.9,0,0,0,.64.12l1.86.21,1.34.13,1.59.24c1.13.17,2.43.33,3.84.65l2.23.44,2.38.6c1.66.38,3.38,1,5.2,1.54a75.77,75.77,0,0,1,11.35,5A63.7,63.7,0,0,1,110.62,294a52.42,52.42,0,0,1,3.91,3.75,41.2,41.2,0,0,1,3.09,3.56,37.8,37.8,0,0,1,2.28,3.15,25.12,25.12,0,0,1,1.57,2.49c.38.65.69,1.18,1,1.61a2.51,2.51,0,0,0,.37.54s-.06-.22-.25-.6-.5-1-.84-1.68a20.06,20.06,0,0,0-1.48-2.57A33.87,33.87,0,0,0,118,301a40.59,40.59,0,0,0-3.06-3.65,49.1,49.1,0,0,0-3.9-3.84,62.55,62.55,0,0,0-10.26-7.19,72.59,72.59,0,0,0-11.49-5c-1.84-.54-3.58-1.13-5.26-1.49l-2.41-.57-2.25-.4c-1.43-.28-2.74-.42-3.89-.55l-1.6-.19L72.53,278,70.66,278A2.3,2.3,0,0,0,70,278Z"/><path class="cls-6" d="M64.9,187.15a9.09,9.09,0,0,0,1.29,1.24l3.69,3.2c3.14,2.68,7.5,6.35,12.34,10.36s9.26,7.63,12.47,10.21l3.83,3a8.92,8.92,0,0,0,1.46,1A9.09,9.09,0,0,0,98.69,215L95,211.79c-3.14-2.68-7.5-6.35-12.34-10.36s-9.25-7.62-12.46-10.21l-3.83-3A8.46,8.46,0,0,0,64.9,187.15Z"/><path class="cls-6" d="M60.5,210.86c-.06.18,9.35,3.12,21,6.57s21.16,6.09,21.21,5.91-9.35-3.12-21-6.57S60.55,210.68,60.5,210.86Z"/><path class="cls-6" d="M95.25,201.42a7.74,7.74,0,0,0,1-1.35l2.48-3.78c2.11-3.19,5.1-7.53,8.63-12.15s6.94-8.65,9.45-11.53l3-3.4a8.62,8.62,0,0,0,1-1.3,8,8,0,0,0-1.24,1.12c-.76.74-1.84,1.86-3.14,3.26-2.61,2.8-6.09,6.79-9.64,11.43s-6.48,9.05-8.49,12.31c-1,1.63-1.78,3-2.3,3.9A8.52,8.52,0,0,0,95.25,201.42Z"/><path class="cls-6" d="M127.94,214.58a30.71,30.71,0,0,0,2.21,3.63c1.4,2.21,3.31,5.29,5.29,8.76s3.64,6.68,4.82,9a31,31,0,0,0,2,3.75,22.93,22.93,0,0,0-1.55-4c-1.08-2.4-2.68-5.66-4.67-9.15s-4-6.54-5.48-8.69A23.24,23.24,0,0,0,127.94,214.58Z"/><path class="cls-6" d="M139.12,255.6c0,.09,1.84-.78,4.78-2.11s7-3.05,11.68-4.67,8.93-2.83,12-3.63a51.81,51.81,0,0,0,5.05-1.34,6.06,6.06,0,0,0-1.4.15c-.89.13-2.18.38-3.76.72a104.58,104.58,0,0,0-12.16,3.45,101.05,101.05,0,0,0-11.66,4.89c-1.45.71-2.61,1.33-3.39,1.78A5.68,5.68,0,0,0,139.12,255.6Z"/><path class="cls-6" d="M130.32,304.64a2.1,2.1,0,0,0,.58.2l1.69.43,6.26,1.44a206.68,206.68,0,0,1,20.45,5.4,90.39,90.39,0,0,1,19.07,9c2.28,1.45,4.06,2.73,5.26,3.66a18.9,18.9,0,0,0,1.89,1.4s-.13-.17-.42-.45-.72-.68-1.31-1.16a56.06,56.06,0,0,0-5.15-3.86,83.93,83.93,0,0,0-19.12-9.2A170.9,170.9,0,0,0,139,306.24l-6.3-1.23A15.23,15.23,0,0,0,130.32,304.64Z"/><path class="cls-6" d="M98.48,316.73c.19,0,1.31-6.58,2.5-14.75s2-14.82,1.83-14.84-1.31,6.57-2.51,14.74S98.29,316.7,98.48,316.73Z"/><path class="cls-6" d="M65.33,304.69a33.84,33.84,0,0,0,3-3.55c1.79-2.23,4.27-5.3,7.08-8.64s5.41-6.31,7.29-8.46a32.25,32.25,0,0,0,3-3.56,4.66,4.66,0,0,0-1,.82c-.58.55-1.39,1.38-2.38,2.41-2,2.07-4.65,5-7.47,8.35s-5.24,6.48-6.93,8.79c-.85,1.15-1.52,2.1-2,2.77A4.15,4.15,0,0,0,65.33,304.69Z"/><polygon class="cls-7" points="153.05 335.43 153.05 351.81 148.96 351.81 134.4 397.76 102.11 397.76 88.01 352.27 82.55 351.81 82.55 335.43 153.05 335.43"/><path class="cls-6" d="M85.28,352.27c0,.19,14.26.34,31.84.34s31.84-.15,31.84-.34-14.26-.35-31.84-.35S85.28,352.08,85.28,352.27Z"/><path class="cls-6" d="M62.06,246.91a11.65,11.65,0,0,0,2.07.56l5.67,1.37c4.77,1.18,11.33,3,18.44,5.37s13.43,4.93,18,6.87l5.34,2.34a13.94,13.94,0,0,0,2,.8,13.51,13.51,0,0,0-1.87-1c-1.23-.64-3-1.51-5.26-2.54a186.69,186.69,0,0,0-36.48-12.27c-2.41-.54-4.37-.93-5.73-1.16A15,15,0,0,0,62.06,246.91Z"/><path class="cls-3" d="M96,377.78c0,.19,10,.35,22.34.35s22.33-.16,22.33-.35-10-.34-22.33-.34S96,377.59,96,377.78Z"/><path class="cls-3" d="M94.74,374c0,.19,10.6.35,23.67.35s23.68-.16,23.68-.35-10.6-.34-23.68-.34S94.74,373.8,94.74,374Z"/></g><g id="Label"><path class="cls-8" d="M608.32,271.74l-66.67-74.89a28.21,28.21,0,0,0-20.88-9.46l-219.48-1.6a28.24,28.24,0,0,0-28.44,28.29l.37,155.43a28.24,28.24,0,0,0,28.35,28.16l218.72-.92a28.26,28.26,0,0,0,21.29-9.83l67.06-78A28.23,28.23,0,0,0,608.32,271.74Zm-37.09,27a23.28,23.28,0,1,1-12.81-30.33A23.29,23.29,0,0,1,571.23,298.7Z"/><g class="cls-9"><path d="M608.32,271.74l-66.67-74.89a28.21,28.21,0,0,0-20.88-9.46l-219.48-1.6a28.24,28.24,0,0,0-28.44,28.29l.37,155.43a28.24,28.24,0,0,0,28.35,28.16l218.72-.92a28.26,28.26,0,0,0,21.29-9.83l67.06-78A28.23,28.23,0,0,0,608.32,271.74Zm-37.09,27a23.28,23.28,0,1,1-12.81-30.33A23.29,23.29,0,0,1,571.23,298.7Z"/></g><path class="cls-8" d="M619.87,271.74l-66.66-74.89a28.22,28.22,0,0,0-20.88-9.46l-219.49-1.6a28.22,28.22,0,0,0-28.43,28.29l.37,155.43a28.22,28.22,0,0,0,28.34,28.16l218.72-.92a28.23,28.23,0,0,0,21.29-9.83l67.06-78A28.23,28.23,0,0,0,619.87,271.74Zm-37.09,27A23.28,23.28,0,1,1,570,268.37,23.28,23.28,0,0,1,582.78,298.7Z"/><path class="cls-10" d="M357.41,266.53c.18-18.84,11.78-30.7,28.07-30.55s27.5,12.07,27.33,31.07-11.62,30.7-27.91,30.55S357.24,285.37,357.41,266.53Zm39.43.37c.12-12-4.46-17.76-11.49-17.83-6.86-.06-11.7,5.8-11.81,17.61s4.62,17.77,11.48,17.83C392.05,284.58,396.73,278.87,396.84,266.9Zm55.2-29,19,.17-77.35,111-19-.17Zm-19.13,82c.18-18.84,11.78-30.7,27.91-30.55,16.28.15,27.67,12.23,27.49,31.07s-11.78,30.7-28.07,30.55C444.12,350.84,432.74,338.76,432.91,319.92Zm39.28.37c.11-11.82-4.47-17.77-11.49-17.83-6.87-.06-11.71,5.64-11.82,17.61s4.62,17.77,11.49,17.83S472.08,332.1,472.19,320.29Z"/><path class="cls-6" d="M612.58,318a10.51,10.51,0,0,1,2.18,1.57c1.37,1.09,3.37,2.74,5.9,4.9s5.61,4.85,9.08,8.09,7.33,7,11.34,11.47A115.92,115.92,0,0,1,653,359.57l1.42,2.27c.44.79.89,1.57,1.34,2.37a49.78,49.78,0,0,1,2.54,5,31.14,31.14,0,0,1,2.89,11.53,18,18,0,0,1-.92,6.3A16.3,16.3,0,0,1,657,392.7a21.36,21.36,0,0,1-11.45,6.55,31.13,31.13,0,0,1-13.51-.32,59.38,59.38,0,0,1-12.88-4.74,80.2,80.2,0,0,1-21.51-16,103.48,103.48,0,0,1-8.32-9.67q-3.77-4.94-7.16-9.8c-9-13-16-25.51-20.4-36.69-1.09-2.78-2-5.47-2.87-8.05-.4-1.29-.78-2.55-1.09-3.79a22.8,22.8,0,0,1-.72-3.7,9.12,9.12,0,0,1,1.64-6.71,9.76,9.76,0,0,1,4.74-3.3,13.19,13.19,0,0,1,2.39-.55,13,13,0,0,1,2.14-.05,10,10,0,0,1,3.25.72,6.13,6.13,0,0,1,1.74,1.07c.34.31.5.48.46.51s-.24-.07-.62-.3a8.16,8.16,0,0,0-1.76-.79,10.28,10.28,0,0,0-3.1-.43,11.63,11.63,0,0,0-2,.16,12.45,12.45,0,0,0-2.17.61,8.92,8.92,0,0,0-4.09,3.08,7.89,7.89,0,0,0-1.2,5.8,21.89,21.89,0,0,0,.78,3.47c.34,1.2.74,2.43,1.16,3.69.87,2.51,1.87,5.14,3,7.87,4.54,10.9,11.61,23.21,20.65,36,2.27,3.19,4.66,6.42,7.17,9.66a102.14,102.14,0,0,0,8.17,9.4,78.58,78.58,0,0,0,20.85,15.48,57.18,57.18,0,0,0,12.29,4.54,28.62,28.62,0,0,0,12.4.35,18.88,18.88,0,0,0,10.12-5.69,14.69,14.69,0,0,0,3.68-10.27,28.88,28.88,0,0,0-2.59-10.66,47.45,47.45,0,0,0-2.39-4.85L652.54,363l-1.36-2.23a118.81,118.81,0,0,0-11.48-15.5c-3.87-4.47-7.62-8.32-11-11.63s-6.32-6.11-8.75-8.38l-5.57-5.27A10.21,10.21,0,0,1,612.58,318Z"/><path class="cls-6" d="M508.41,162.76c-.15,0-3-19.55-6.27-43.7s-5.89-43.77-5.74-43.78,2.94,19.54,6.26,43.7S508.55,162.74,508.41,162.76Z"/><path class="cls-6" d="M590.86,55.73a2.78,2.78,0,0,1-.1.3l-.32.88c-.31.79-.74,1.9-1.28,3.32l-4.77,12.22c-4,10.32-9.48,24.61-15.29,40.47s-10.87,30.3-14.48,40.78c-1.79,5.21-3.24,9.44-4.25,12.4l-1.17,3.37c-.13.36-.23.65-.32.87a1.18,1.18,0,0,1-.12.29,1.77,1.77,0,0,1,.07-.31l.27-.88,1.08-3.4c.94-2.95,2.34-7.21,4.09-12.46,3.52-10.51,8.52-25,14.34-40.84s11.33-30.14,15.44-40.43c2.05-5.14,3.73-9.29,4.92-12.15.58-1.41,1-2.51,1.37-3.29l.37-.85A1.3,1.3,0,0,1,590.86,55.73Z"/><path class="cls-6" d="M649.94,132.69c.08.12-14.23,11.33-32,25s-32.21,24.74-32.29,24.63,14.22-11.33,32-25S649.85,132.58,649.94,132.69Z"/><path class="cls-6" d="M473.69,166.41c-.12.09-5.65-7-12.36-15.75s-12.06-16-11.95-16.07,5.65,7,12.36,15.75S473.8,166.32,473.69,166.41Z"/><path class="cls-6" d="M643.18,221.53c0,.14-8.81-2.29-19.59-5.43s-19.48-5.81-19.44-5.94,8.81,2.29,19.59,5.44S643.22,221.4,643.18,221.53Z"/><polygon class="cls-10" points="517.16 221.22 523.66 217.47 527.12 210.81 530.86 217.31 537.52 220.77 531.02 224.51 527.56 231.17 523.82 224.67 517.16 221.22"/><polygon class="cls-10" points="482.02 210.89 484.3 209.58 485.51 207.25 486.82 209.53 489.15 210.74 486.88 212.05 485.67 214.38 484.36 212.1 482.02 210.89"/><polygon class="cls-10" points="504.46 256.82 508.86 254.29 511.2 249.78 513.73 254.18 518.24 256.52 513.84 259.05 511.5 263.56 508.97 259.16 504.46 256.82"/></g><g id="Floor"><path class="cls-6" d="M689,397.76c0,.15-154.25.26-344.47.26S0,397.91,0,397.76s154.21-.26,344.51-.26S689,397.62,689,397.76Z"/></g><g id="Character"><path class="cls-7" d="M200.88,380s-41.76,11.56-43.43,12.15c-2.52.89-2.1,10.1,1.82,10,1.85-.07,32.07,1.13,35.89.89s14.1-4.3,14.1-4.3Z"/><path class="cls-6" d="M183.49,396c-.21,0-.5-2.18-1.84-4.49s-3.09-3.67-3-3.84,2.15,1,3.56,3.5S183.66,396,183.49,396Z"/><path class="cls-6" d="M187.84,394c-.2,0-.63-1.93-1.74-4.12s-2.42-3.7-2.27-3.85,1.74,1.23,2.89,3.54S188,394,187.84,394Z"/><path class="cls-6" d="M191.92,392.9c-.21,0,0-2.1-1-4.41s-2.42-3.75-2.28-3.91,2,1.14,2.93,3.65S192.09,393,191.92,392.9Z"/><path class="cls-6" d="M191.18,387.51a7.58,7.58,0,0,1-.44-3.11,14.37,14.37,0,0,1,.42-3.41,13.9,13.9,0,0,1,.62-1.93,2.26,2.26,0,0,1,.67-1,1.1,1.1,0,0,1,1.43.07,1.83,1.83,0,0,1,.56,1.18,8.4,8.4,0,0,1,.05,1.11,9.49,9.49,0,0,1-.25,2,12.23,12.23,0,0,1-1.29,3.19,8.42,8.42,0,0,1-1.88,2.52c-.09-.07.61-1,1.44-2.75a13.77,13.77,0,0,0,1.1-3.1,9,9,0,0,0,.2-1.91c0-.64,0-1.44-.39-1.75a.41.41,0,0,0-.55-.05,1.84,1.84,0,0,0-.46.73,16.86,16.86,0,0,0-.63,1.85,16.19,16.19,0,0,0-.55,3.26C191.11,386.31,191.3,387.49,191.18,387.51Z"/><path class="cls-6" d="M191.24,387.08a5.75,5.75,0,0,1,2.69-.43,11.9,11.9,0,0,1,3,.36,6.89,6.89,0,0,1,1.71.63,1.76,1.76,0,0,1,.94,1.91A2.09,2.09,0,0,1,198,391a3.85,3.85,0,0,1-1.88,0,7.15,7.15,0,0,1-2.71-1.33,7.44,7.44,0,0,1-1.94-1.91,17.85,17.85,0,0,1,2.22,1.5,7.48,7.48,0,0,0,2.57,1.11,3.21,3.21,0,0,0,1.54,0,1.4,1.4,0,0,0,1-1,1.08,1.08,0,0,0-.62-1.17,7.07,7.07,0,0,0-1.51-.59,14.42,14.42,0,0,0-2.82-.49C192.28,387,191.25,387.19,191.24,387.08Z"/><path class="cls-6" d="M177.07,396.42c-.21,0,0-1.81-.82-3.77s-2.18-3.11-2.05-3.27,1.82.82,2.69,3S177.24,396.49,177.07,396.42Z"/><path class="cls-6" d="M206.21,398.34a7.82,7.82,0,0,1-1.62.76,33.9,33.9,0,0,1-4.64,1.44A66,66,0,0,1,184,402.05c-6.26-.06-11.89-.35-16-.51l-4.84-.26a8.94,8.94,0,0,1-1.78-.19,9.07,9.07,0,0,1,1.78-.08l4.85,0,16,.32a75.17,75.17,0,0,0,15.83-1.3C203.83,399.24,206.16,398.21,206.21,398.34Z"/><path class="cls-6" d="M207.44,399.29c-.05.1-1.2-.57-3.13-1.41a14.54,14.54,0,0,0-7.9-1.32c-3.15.49-5.38,2.6-6.83,4.07a25.4,25.4,0,0,1-2.4,2.46,12,12,0,0,1,2-2.8A16.4,16.4,0,0,1,192,397.7a9.92,9.92,0,0,1,4.31-1.83,13.82,13.82,0,0,1,8.22,1.56A11.14,11.14,0,0,1,207.44,399.29Z"/><path class="cls-6" d="M165.55,401.1a16.06,16.06,0,0,1,.61-1.58,7.94,7.94,0,0,0,.31-3.92,8,8,0,0,0-1.69-3.56c-.66-.79-1.19-1.18-1.13-1.26a3.26,3.26,0,0,1,1.43,1,7.15,7.15,0,0,1,1.45,7.9C166.09,400.66,165.6,401.14,165.55,401.1Z"/><path class="cls-7" d="M244.46,381.27s42.83,6.51,44.57,6.9c2.6.58,3.28,9.78-.63,10.1-1.85.16-31.71,4.93-35.53,5.15s-15.8-2.92-15.8-2.92Z"/><path class="cls-6" d="M263.62,395c.21,0,.23-2.22,1.3-4.67s2.62-4,2.47-4.16-2,1.26-3.12,3.89S263.45,395.06,263.62,395Z"/><path class="cls-6" d="M259.06,393.58c.21,0,.4-2,1.24-4.3s2-4,1.8-4.09-1.59,1.43-2.46,3.86S258.89,393.59,259.06,393.58Z"/><path class="cls-6" d="M254.88,393c.21,0-.2-2.09.44-4.5s2-4,1.8-4.14-1.81,1.35-2.47,4S254.72,393.06,254.88,393Z"/><path class="cls-6" d="M255,387.54a7.26,7.26,0,0,0,.08-3.14,14.42,14.42,0,0,0-.83-3.33,13.1,13.1,0,0,0-.84-1.85,2.37,2.37,0,0,0-.79-.94,1.11,1.11,0,0,0-1.41.24,1.88,1.88,0,0,0-.42,1.24,9.64,9.64,0,0,0,.08,1.1,9.44,9.44,0,0,0,.5,2,12.48,12.48,0,0,0,1.66,3,8.33,8.33,0,0,0,2.16,2.27c.08-.08-.73-1-1.76-2.55a13.51,13.51,0,0,1-1.45-3,9.28,9.28,0,0,1-.43-1.87c-.06-.64-.16-1.44.17-1.79a.41.41,0,0,1,.55-.11,1.8,1.8,0,0,1,.54.67,17.48,17.48,0,0,1,.85,1.75,17.88,17.88,0,0,1,.93,3.18C254.91,386.34,254.86,387.53,255,387.54Z"/><path class="cls-6" d="M254.87,387.12a5.82,5.82,0,0,0-2.72-.11,12.18,12.18,0,0,0-2.9.71,6.56,6.56,0,0,0-1.62.83,1.75,1.75,0,0,0-.71,2,2.08,2.08,0,0,0,1.67,1.3,3.91,3.91,0,0,0,1.86-.23A7.16,7.16,0,0,0,253,390a7,7,0,0,0,1.7-2.13,21.27,21.27,0,0,0-2,1.77,7.43,7.43,0,0,1-2.41,1.4,3.23,3.23,0,0,1-1.54.16,1.43,1.43,0,0,1-1.13-.86,1.08,1.08,0,0,1,.48-1.23,6.4,6.4,0,0,1,1.44-.77,14.63,14.63,0,0,1,2.73-.82C253.83,387.19,254.87,387.24,254.87,387.12Z"/><path class="cls-6" d="M270.05,394.71c.2,0-.22-1.8.37-3.84s1.79-3.35,1.64-3.49-1.71,1-2.32,3.3S269.89,394.8,270.05,394.71Z"/><path class="cls-6" d="M241.34,400.08a8.27,8.27,0,0,0,1.7.57,35.8,35.8,0,0,0,4.78.87,65.94,65.94,0,0,0,16-.39c6.21-.81,11.77-1.77,15.82-2.42l4.77-.83a10.4,10.4,0,0,0,1.74-.39,8.44,8.44,0,0,0-1.78.13l-4.81.61-15.82,2.21a74.56,74.56,0,0,1-15.88.59C243.81,400.69,241.38,400,241.34,400.08Z"/><path class="cls-6" d="M240.23,401.18c.07.08,1.12-.71,2.94-1.78a14.51,14.51,0,0,1,7.69-2.25c3.18.11,5.65,1.94,7.26,3.23a24.57,24.57,0,0,0,2.69,2.15,13.26,13.26,0,0,0-2.37-2.53,16.19,16.19,0,0,0-3.05-2.24,10,10,0,0,0-4.5-1.31,13.77,13.77,0,0,0-8,2.53A10.8,10.8,0,0,0,240.23,401.18Z"/><path class="cls-11" d="M377.69,205.26a2.73,2.73,0,0,0-1.26-1.23l1-2a5.85,5.85,0,0,0-.59-2.06c-.49-.86-2.25-.79-2.25-.79l.27-.57a2.53,2.53,0,0,0-.22-2.52l-.25-.33a4.18,4.18,0,0,0-2.22-1.13s1-1.92.55-2.72a4.14,4.14,0,0,0-4.26-1.69,62.47,62.47,0,0,0-7.75,3.7,1.82,1.82,0,0,1-2.6-.95,26.25,26.25,0,0,0-3.78-7.12c-1.88-2.27-3.65-2.09-4.68-1.69a.85.85,0,0,0-.42,1.23,45,45,0,0,1,2.72,5c.49,1.3,1,11.16,1,11.16l-2.7,5.14L323,249.68s-41.15-27.74-41-28.43l-1.94,31.8,31,20.6a21.84,21.84,0,0,0,32.08-9.44l20.87-45.29,2.53-3.71,9.83-6.29S378,206.09,377.69,205.26Z"/><path class="cls-12" d="M373.16,194.65a1,1,0,0,1-.19.18l-.59.47-2.2,1.71-3.28,2.51c-.63.46-1.25,1-2,1.44a2.91,2.91,0,0,1-2.61.34,2,2,0,0,1-1-1,2.77,2.77,0,0,1-.22-1.32,3.67,3.67,0,0,1,1-2.24,14,14,0,0,1,1.64-1.5l1.48-1.23c.88-.73,1.61-1.33,2.15-1.76l.59-.48.22-.15s-.06.08-.18.19l-.57.51-2.1,1.83-1.46,1.25a14.66,14.66,0,0,0-1.6,1.49,3.57,3.57,0,0,0-1,2.1,1.87,1.87,0,0,0,2.28,2.19,3.42,3.42,0,0,0,1.16-.45c.71-.42,1.34-1,2-1.41l3.31-2.46,2.25-1.65.62-.43A1,1,0,0,1,373.16,194.65Z"/><path class="cls-12" d="M375.35,199.28a3,3,0,0,1-.46.37c-.3.23-.75.56-1.3.95-1.12.78-2.69,1.81-4.48,2.87a13.51,13.51,0,0,1-1.34.73,2.88,2.88,0,0,1-1.43.27,2.25,2.25,0,0,1-1.85-1.49,2.2,2.2,0,0,1,.13-1.62,2,2,0,0,1,.24-.37c.07-.07.11-.11.12-.1s-.13.17-.27.51a2.12,2.12,0,0,0,0,1.52,2.05,2.05,0,0,0,1.7,1.32,2.58,2.58,0,0,0,1.31-.27,12.15,12.15,0,0,0,1.31-.72c1.79-1.05,3.37-2.06,4.51-2.8l1.35-.88A2.32,2.32,0,0,1,375.35,199.28Z"/><path class="cls-12" d="M376.62,203.79a2.2,2.2,0,0,1-.47.28l-1.33.67c-1.13.55-2.7,1.31-4.43,2.12-.44.2-.86.42-1.3.57a2.5,2.5,0,0,1-1.35.11,1.51,1.51,0,0,1-1-.72,1.62,1.62,0,0,1-.15-1.06,2.2,2.2,0,0,1,.78-1.29,1.5,1.5,0,0,1,.46-.31s-.15.13-.39.38a2.21,2.21,0,0,0-.68,1.24,1.5,1.5,0,0,0,.16.94,1.28,1.28,0,0,0,.87.59,2.34,2.34,0,0,0,1.22-.11c.42-.15.84-.36,1.27-.56,1.74-.82,3.32-1.55,4.46-2.06l1.37-.6A2,2,0,0,1,376.62,203.79Z"/><path class="cls-12" d="M377.33,208a9.11,9.11,0,0,1-1.56.41c-1,.22-2.32.51-3.81.81l-1.09.22a4.71,4.71,0,0,1-1.05.13,1.55,1.55,0,0,1-.93-.34,1,1,0,0,1-.36-.79,1.45,1.45,0,0,1,.6-1,.88.88,0,0,1,.4-.18s-.13.08-.34.26a1.38,1.38,0,0,0-.48,1,.79.79,0,0,0,.31.63,1.36,1.36,0,0,0,.81.27,5.24,5.24,0,0,0,1-.14l1.09-.22c1.49-.31,2.84-.57,3.82-.74A11.22,11.22,0,0,1,377.33,208Z"/><path class="cls-12" d="M366.66,206a12.71,12.71,0,0,0-2.79-.28,13.28,13.28,0,0,0-2.76.54,5.24,5.24,0,0,1,2.75-.79A5.14,5.14,0,0,1,366.66,206Z"/><path class="cls-6" d="M219.73,196.56s-13.84-11.68-10.63-19.72,12.08-12,16.45-26.64c3.49-11.69,24.28-34.19,48.92-17.27,0,0,8.34-1.32,13.08,2.48s5.89,11.38,7.9,20.14c3.11,13.49,4.81,23.86-1.2,30.45s-8.2,8.38-7.88,15.88c.42,9.79,4.74,8.48,1,15.62l-20.66-6.75-.22-5.69-2.09,5.36-12-4.33Z"/><path class="cls-6" d="M288.54,147.33c-1.34,3.08-.24,6.65,1,9.76s2.76,6.41,2.11,9.71c-1.14,5.85-8.4,9.11-9.21,15-.43,3.17,1.16,6.39.54,9.52s-3.13,5.32-5.81,6.85-5.67,2.54-8.2,4.32c0,0-5.56,4.56-15.13-3"/><path class="cls-11" d="M249.29,139.69a5.1,5.1,0,0,0-6,3.38h0L223.44,209c-2.57,7.71,7.13,15.94,15.4,18.62h0c8.36,2.71,10-1.26,12.71-8.52,4.43-12.12,6-16.7,6-16.63s11.09,1.91,18-11c3.45-6.43,7-17.69,9.57-27,2.34-8.38.4-20.33-8.07-22.31Z"/><path class="cls-6" d="M278.11,171.32a1.85,1.85,0,0,1-2.31,1.18,1.76,1.76,0,0,1-1.25-2.2,1.85,1.85,0,0,1,2.3-1.19A1.78,1.78,0,0,1,278.11,171.32Z"/><path class="cls-6" d="M280.86,168.93c-.3.16-1.29-1.29-3.18-1.94s-3.6-.19-3.72-.49c-.07-.14.3-.47,1.06-.7a5,5,0,0,1,3.07.11,4.83,4.83,0,0,1,2.43,1.83C281,168.39,281,168.87,280.86,168.93Z"/><path class="cls-6" d="M259.4,165.35a1.86,1.86,0,0,1-2.31,1.18,1.78,1.78,0,0,1-1.26-2.21,1.85,1.85,0,0,1,2.31-1.18A1.78,1.78,0,0,1,259.4,165.35Z"/><path class="cls-6" d="M262,163.29c-.3.15-1.29-1.3-3.18-1.95s-3.6-.19-3.72-.49c-.06-.13.3-.47,1.06-.7a5.13,5.13,0,0,1,3.08.11,4.84,4.84,0,0,1,2.42,1.83C262.12,162.74,262.17,163.22,262,163.29Z"/><path class="cls-6" d="M264,179.66a13.66,13.66,0,0,1,3.26.51c.5.12,1,.18,1.18-.12a2.54,2.54,0,0,0,.18-1.54c-.05-1.32-.1-2.71-.15-4.16-.17-5.91-.1-10.71.13-10.71s.57,4.78.73,10.69c0,1.46.06,2.84.08,4.17a3,3,0,0,1-.41,2,1.3,1.3,0,0,1-1,.43,3.73,3.73,0,0,1-.86-.17A13.3,13.3,0,0,1,264,179.66Z"/><path class="cls-12" d="M257.55,202.44a36.79,36.79,0,0,1-16.61-11.25s1.35,11,15.48,14.49Z"/><path class="cls-12" d="M261.63,183.93a3.58,3.58,0,0,0-2.61-2.32,3.28,3.28,0,0,0-2.54.4,2.09,2.09,0,0,0-.93,2.2,2.42,2.42,0,0,0,2.25,1.49,7.82,7.82,0,0,0,2.92-.6,2.42,2.42,0,0,0,.73-.38.68.68,0,0,0,.24-.7"/><path class="cls-6" d="M263.44,157.88c-.3.5-2.21-.13-4.57-.29s-4.33.11-4.55-.42c-.09-.26.33-.7,1.18-1.07a8,8,0,0,1,6.94.54C263.22,157.15,263.57,157.65,263.44,157.88Z"/><path class="cls-6" d="M283.58,162.67c-.53.32-2-.58-3.9-1.14s-3.61-.7-3.85-1.26c-.1-.27.27-.63,1.1-.85a6.54,6.54,0,0,1,3.37.18,6.25,6.25,0,0,1,2.87,1.76C283.72,162,283.82,162.51,283.58,162.67Z"/><path class="cls-6" d="M226.18,182.93q5.59-18.7,11.17-37.41c.76-2.56,1.65-5.29,3.78-6.9s4.7-1.7,7.22-1.75a137.27,137.27,0,0,1,32.4,3.2c.51,2.54-1.69,5-4.14,5.77s-5.12.54-7.71.56-5.41.5-7.16,2.4-2.05,5.16-3.81,7.28c-3,3.64-9.36,2.87-12.37,6.53-2.28,2.77-1.66,6.82-2.41,10.32-.85,4-.85,4-4,9.82-1.91,3.58,2.89,10.42-1.89,19.3L228,199.41l4.08-13.71-5.52,12.86Z"/><path class="cls-6" d="M258.41,179.43c.19.11.09.61.08,1.33a4.83,4.83,0,0,0,2.35,4.48c.6.4,1.06.6,1,.83s-.56.4-1.46.19a4.38,4.38,0,0,1-3-5.74C257.75,179.67,258.24,179.32,258.41,179.43Z"/><path class="cls-6" d="M255.65,149.37a2.08,2.08,0,0,1-.51.29c-.35.17-.85.44-1.48.82a17.73,17.73,0,0,0-8.18,12.35,20.22,20.22,0,0,0,0,5.38,33.07,33.07,0,0,1,.36,5.88,10.94,10.94,0,0,1-.64,3,17.75,17.75,0,0,1-1.33,2.61,13.06,13.06,0,0,0-2.1,4.89,17,17,0,0,0,.13,4.85c.21,1.52.48,2.94.59,4.27a11.34,11.34,0,0,1-.92,6.15,6.46,6.46,0,0,1-1,1.39,2.4,2.4,0,0,1-.46.39,9.26,9.26,0,0,0,1.27-1.87,11.48,11.48,0,0,0,.73-6c-.13-1.3-.42-2.71-.65-4.24a16.7,16.7,0,0,1-.17-5c.39-3.68,3.94-6.38,4-10.43a33.56,33.56,0,0,0-.34-5.79,20.26,20.26,0,0,1,0-5.5,17.62,17.62,0,0,1,3.8-8.42,16.71,16.71,0,0,1,4.76-4,12.69,12.69,0,0,1,1.53-.73A2.75,2.75,0,0,1,255.65,149.37Z"/><path class="cls-6" d="M300.47,205.6a.57.57,0,0,1-.17.14,5.69,5.69,0,0,1-.53.36,8.52,8.52,0,0,1-2.27.93,9.62,9.62,0,0,1-3.89.14,8.75,8.75,0,0,1-4.6-2.29,9.42,9.42,0,0,1-2.75-5.58,8.77,8.77,0,0,1,.23-3.51,10.74,10.74,0,0,1,1.65-3.34,44.37,44.37,0,0,1,5.52-5.64,20.45,20.45,0,0,0,2.72-3.07,14.68,14.68,0,0,0,1.87-3.76,24.42,24.42,0,0,0,1.05-8.25,57.64,57.64,0,0,0-.81-7.78,72.94,72.94,0,0,0-3.34-12.84,75.41,75.41,0,0,0-3.5-8.25c-.47-1-.85-1.68-1.11-2.17a5.94,5.94,0,0,1-.37-.77,4.17,4.17,0,0,1,.46.72c.29.48.7,1.19,1.2,2.13A68.12,68.12,0,0,1,295.5,151,70.83,70.83,0,0,1,299,163.87a58.23,58.23,0,0,1,.85,7.85,24.63,24.63,0,0,1-1.07,8.43,15.19,15.19,0,0,1-1.93,3.89,21.64,21.64,0,0,1-2.79,3.14,44.78,44.78,0,0,0-5.49,5.55,10.28,10.28,0,0,0-1.6,3.19,8.4,8.4,0,0,0-.24,3.33,9,9,0,0,0,2.58,5.36,8.47,8.47,0,0,0,4.4,2.27,9.45,9.45,0,0,0,3.78,0A10.72,10.72,0,0,0,300.47,205.6Z"/><path class="cls-7" d="M215.4,192a8.76,8.76,0,0,0,3.22-1.59,12.93,12.93,0,0,0,4.26-8.6,48.61,48.61,0,0,0,.17-6.83,30.08,30.08,0,0,1,.61-7.89,14.81,14.81,0,0,1,1.62-4,9.65,9.65,0,0,1,3.15-3.24c2.71-1.66,6-1.58,9-2.61a9.51,9.51,0,0,0,3.83-2.51,22.86,22.86,0,0,0,2.71-3.65c1.59-2.52,3.13-5.17,5.57-6.73A9.41,9.41,0,0,1,253.4,143a21.1,21.1,0,0,1,3.86-.17,40.47,40.47,0,0,0,6.82-.05,20.42,20.42,0,0,0,9.08-3.63,21.63,21.63,0,0,0,2.08-1.7l.51-.48c.12-.11.18-.16.19-.15a14.15,14.15,0,0,1-2.66,2.49,20.08,20.08,0,0,1-9.15,3.83,38,38,0,0,1-6.88.12c-2.43,0-5.18,0-7.46,1.55s-3.8,4.06-5.4,6.6a23.32,23.32,0,0,1-2.77,3.74,10,10,0,0,1-4,2.64c-3.08,1.06-6.35,1-8.89,2.56a10.94,10.94,0,0,0-4.57,6.93,29.87,29.87,0,0,0-.65,7.77,47.53,47.53,0,0,1-.24,6.88,12.92,12.92,0,0,1-4.5,8.71,7.6,7.6,0,0,1-2.41,1.25,4.42,4.42,0,0,1-.69.15A.74.74,0,0,1,215.4,192Z"/><path class="cls-7" d="M225.42,150.62a11.77,11.77,0,0,0,2,.53,9.74,9.74,0,0,0,5.4-.89,22.71,22.71,0,0,0,6.47-5.08c1.09-1.12,2.24-2.32,3.54-3.45a16.13,16.13,0,0,1,4.51-2.89,14.64,14.64,0,0,1,5.27-1,45.91,45.91,0,0,1,4.95.27c1.56.15,3,.31,4.43.32a19.17,19.17,0,0,0,3.83-.31,10.65,10.65,0,0,0,5-2.21,18,18,0,0,0,1.41-1.48s-.07.17-.27.46a3,3,0,0,1-.39.52,5.23,5.23,0,0,1-.62.65,10.36,10.36,0,0,1-5.08,2.42,18.9,18.9,0,0,1-3.9.38c-1.42,0-2.91-.13-4.48-.27a45.37,45.37,0,0,0-4.89-.24,14.27,14.27,0,0,0-5.08.94c-3.32,1.37-5.7,4-7.91,6.19a22.42,22.42,0,0,1-6.66,5.09,9.64,9.64,0,0,1-5.58.75,7,7,0,0,1-1.47-.46A2.15,2.15,0,0,1,225.42,150.62Z"/><path class="cls-7" d="M297.78,178.66a8.8,8.8,0,0,0,.49-1.9,8.31,8.31,0,0,0-1.43-5.06c-1.16-2-3.31-3.67-5.49-5.81a14.78,14.78,0,0,1-2.91-3.84,13.44,13.44,0,0,1-1.23-5c-.24-3.55.37-6.87.29-9.87s-.74-5.72-2.2-7.46a7.4,7.4,0,0,0-4.39-2.82,8.39,8.39,0,0,0-2-.05,1.67,1.67,0,0,1,.5-.13,5,5,0,0,1,1.49,0,7.42,7.42,0,0,1,4.65,2.79c1.56,1.78,2.35,4.63,2.39,7.68s-.48,6.39-.26,9.85a13.1,13.1,0,0,0,1.18,4.84,14.28,14.28,0,0,0,2.79,3.72c2.13,2.12,4.31,3.9,5.46,6a8.25,8.25,0,0,1,1.32,5.27,4.9,4.9,0,0,1-.43,1.43A2.22,2.22,0,0,1,297.78,178.66Z"/><path class="cls-6" d="M209.28,184.65a3,3,0,0,1-.64-.35,7.16,7.16,0,0,1-1.56-1.4,9.06,9.06,0,0,1-1.92-7.3,8.66,8.66,0,0,1,.85-2.44,9.57,9.57,0,0,1,1.77-2.18,22,22,0,0,1,5.2-3.21,20.41,20.41,0,0,0,5.55-3.54,13.07,13.07,0,0,0,3.15-6.22c.61-2.37,1-4.77,1.8-7a29.78,29.78,0,0,1,2.9-6.09,31.39,31.39,0,0,1,7.61-8.44,29.08,29.08,0,0,1,6.61-3.89c.83-.37,1.5-.57,2-.73l.7-.2c0,.06-.94.36-2.57,1.12a31.31,31.31,0,0,0-6.47,4,31.71,31.71,0,0,0-7.42,8.4,30.25,30.25,0,0,0-2.83,6c-.76,2.17-1.16,4.54-1.78,6.95a13.47,13.47,0,0,1-3.28,6.45,20.57,20.57,0,0,1-5.71,3.61,21.86,21.86,0,0,0-5.12,3.1,9.1,9.1,0,0,0-1.71,2,8.55,8.55,0,0,0-.84,2.32,9.18,9.18,0,0,0,.24,4.23,8.28,8.28,0,0,0,1.48,2.87A9.64,9.64,0,0,0,209.28,184.65Z"/><path class="cls-6" d="M300.59,179.59s.43-.48,1.06-1.42a12.07,12.07,0,0,0,1.78-4.43,16.62,16.62,0,0,0-.25-7.06,28,28,0,0,0-3.58-8c-1.65-2.65-3.42-5-4.92-7.33a41.41,41.41,0,0,1-3.54-6.32,21.49,21.49,0,0,1-1.45-4.66,12.26,12.26,0,0,1-.16-1.32,1.43,1.43,0,0,1,0-.47c.05,0,.11.63.36,1.75a23.62,23.62,0,0,0,1.59,4.55,44.57,44.57,0,0,0,3.6,6.21c1.51,2.24,3.3,4.64,5,7.31a28.06,28.06,0,0,1,3.61,8.11,16.7,16.7,0,0,1,.14,7.25,11.52,11.52,0,0,1-2,4.47,8.83,8.83,0,0,1-.88,1A1.78,1.78,0,0,1,300.59,179.59Z"/><path class="cls-6" d="M196.73,319l-8.22,14.28s-40.81-14.93-64.7-10.58c-9.09,1.66-18.81,22.27-5.57,35.5,12.91,12.91,36,31.17,79.33,37.08,1.08.15,18.83,4,17.74,3.83s24.88,4,24.88,4L246.28,380l48.39,7.6c28.52-1.95,42.48-32.45,25.31-42.26-16-9.16-46.15-9.89-46.15-9.89l-10.92-17.13Z"/><path class="cls-7" d="M241.15,403.92c.13-.78.47-2.88,1.18-7.18.38-2.3.85-5.11,1.47-8.33.3-1.61.65-3.33,1-5.14.21-.9.43-1.83.7-2.77.13-.47.27-.95.45-1.43a4.37,4.37,0,0,1,.73-1.42l.07.35c-10.3-3.66-23.17-8.49-36.9-14.27-8.44-3.59-16.4-7.22-23.4-11a75.27,75.27,0,0,1-9.6-6c-2.85-2.1-5.39-4.2-7.76-6-4.71-3.71-9-6.11-12.18-7.13a17.88,17.88,0,0,0-2.13-.63,12.76,12.76,0,0,0-1.59-.35l-1-.18a1.15,1.15,0,0,1-.33-.08l.34,0,1,.13a10.67,10.67,0,0,1,1.61.3,18.23,18.23,0,0,1,2.16.58,28.46,28.46,0,0,1,5.6,2.5,59.08,59.08,0,0,1,6.73,4.54c2.4,1.81,4.95,3.9,7.79,6a76.5,76.5,0,0,0,9.57,5.88c7,3.74,15,7.35,23.38,10.94,13.72,5.78,26.57,10.64,36.84,14.36l.29.1L247,378a4.07,4.07,0,0,0-.63,1.25c-.17.46-.31.93-.45,1.4-.27.93-.49,1.85-.71,2.75-.42,1.79-.77,3.51-1.09,5.11-.64,3.22-1.15,6-1.57,8.31s-.75,4.05-1,5.3c-.12.61-.21,1.07-.29,1.38A3.39,3.39,0,0,1,241.15,403.92Z"/><path class="cls-7" d="M310.59,348.15a.86.86,0,0,1-.26,0l-.76-.12c-.66-.08-1.62-.33-2.89-.45a55.45,55.45,0,0,0-10.73-.38,79.08,79.08,0,0,0-15.71,2.59c-2.91.78-5.93,1.69-9,2.76s-6.24,2.31-9.47,3.59a87.05,87.05,0,0,1-9.65,3.19c-3.17.87-6.26,1.56-9.22,2.13-5.92,1.15-11.31,1.86-15.83,2.41s-8.19.93-10.72,1.19l-2.92.28-.76.06a.74.74,0,0,1-.26,0l.25-.06.76-.11,2.91-.38,10.7-1.35c4.51-.6,9.88-1.35,15.78-2.52,2.94-.59,6-1.28,9.17-2.15a89.81,89.81,0,0,0,9.6-3.18c3.23-1.29,6.4-2.52,9.5-3.59s6.14-2,9.05-2.74a77.29,77.29,0,0,1,15.82-2.5,52,52,0,0,1,10.78.55c1.27.15,2.23.43,2.88.55l.75.17A.76.76,0,0,1,310.59,348.15Z"/><path class="cls-6" d="M236,339.85c0,.34-2.17.89-5.79,1.23A72.93,72.93,0,0,1,216,340.9a74.1,74.1,0,0,1-13.92-2.83c-3.47-1.1-5.5-2.1-5.39-2.43.23-.73,8.8,1.55,19.59,2.67S236,339.09,236,339.85Z"/><path class="cls-7" d="M274.29,335.8a9.22,9.22,0,0,1-1.6.43c-.52.11-1.15.27-1.87.49s-1.55.42-2.44.74a61.06,61.06,0,0,0-6.18,2.46c-2.26,1.07-4.7,2.35-7.18,3.83a113.78,113.78,0,0,0-12.12,8.52c-1.48,1.19-2.67,2.17-3.48,2.85a9.9,9.9,0,0,1-1.3,1,9.46,9.46,0,0,1,1.17-1.16c.77-.73,1.92-1.76,3.38-3a96.32,96.32,0,0,1,12.08-8.68,79.39,79.39,0,0,1,7.25-3.83,55.27,55.27,0,0,1,6.27-2.37c.9-.3,1.74-.5,2.48-.68a18.79,18.79,0,0,1,1.9-.4A11.1,11.1,0,0,1,274.29,335.8Z"/><path class="cls-7" d="M228.92,356.13a12,12,0,0,1-2.87-.81,61,61,0,0,1-6.54-3L213.16,349a21.43,21.43,0,0,1-2.61-1.42,14.11,14.11,0,0,1,2.77,1.08c1.67.77,3.93,1.92,6.42,3.2s4.77,2.37,6.45,3.08S228.94,356.06,228.92,356.13Z"/><path class="cls-7" d="M233.34,320.69c.07,0-.06,1.5-.22,3.91s-.28,5.75-.22,9.43.34,7,.59,9.41.44,3.89.36,3.9a4.16,4.16,0,0,1-.26-1c-.14-.67-.3-1.64-.47-2.84a82.06,82.06,0,0,1-.74-9.44,79.85,79.85,0,0,1,.38-9.47c.12-1.2.24-2.18.36-2.85A3.55,3.55,0,0,1,233.34,320.69Z"/><path class="cls-7" d="M237.88,322.18s-.17.15-.43.45a2.84,2.84,0,0,0-.63,1.47,2.72,2.72,0,0,0,.62,2.19,2.57,2.57,0,0,0,4.27-1.58,2.78,2.78,0,0,0-1-2.07,2.85,2.85,0,0,0-1.45-.7c-.38-.06-.61,0-.62-.07a1.07,1.07,0,0,1,.64-.13,2.75,2.75,0,0,1,1.66.62,3.06,3.06,0,0,1,1.2,2.36,2.85,2.85,0,0,1-2,2.55,2.81,2.81,0,0,1-3.14-.66,3,3,0,0,1-.64-2.57,2.76,2.76,0,0,1,.86-1.55C237.63,322.21,237.87,322.16,237.88,322.18Z"/><path class="cls-6" d="M250.3,305.7a5.31,5.31,0,0,1-.78,1,26.12,26.12,0,0,1-2.4,2.54,38.67,38.67,0,0,1-4,3.32,39.84,39.84,0,0,1-11.35,5.65,37.92,37.92,0,0,1-5.05,1.2,27,27,0,0,1-3.48.39,5.73,5.73,0,0,1-1.28,0c0-.1,1.82-.2,4.69-.76a43.87,43.87,0,0,0,5-1.29,48.33,48.33,0,0,0,5.82-2.38,45.86,45.86,0,0,0,5.4-3.22,40.57,40.57,0,0,0,4-3.19C249.05,307,250.23,305.64,250.3,305.7Z"/><path class="cls-6" d="M268.56,316.8c0,.16-1.81.16-3.93.69s-3.72,1.35-3.79,1.21a7.85,7.85,0,0,1,3.67-1.72A8,8,0,0,1,268.56,316.8Z"/><g class="cls-13"><path d="M226.59,319.3a38.23,38.23,0,0,0,22.28-12.87,9,9,0,0,1-2.18,9.17c2.54,1.21,5.51.41,8.29,0s6.19,0,7.52,2.47a292.33,292.33,0,0,1-37.43,1.07"/></g><path class="cls-6" d="M201.75,299.71a13.63,13.63,0,0,0-4.31-2.8A13.83,13.83,0,0,0,192,296a14.83,14.83,0,0,0-6.53,1.75c-4.36,2.26-6.94,6.12-8.92,8.6a25.92,25.92,0,0,0-2,3.25,6.49,6.49,0,0,1-.7,1.22,7.68,7.68,0,0,1,.51-1.31,22.16,22.16,0,0,1,1.85-3.37c.92-1.35,2.12-2.84,3.51-4.49a19.31,19.31,0,0,1,5.47-4.36,15,15,0,0,1,6.76-1.77,13.64,13.64,0,0,1,5.62,1.06,11.11,11.11,0,0,1,3.25,2.07,6.92,6.92,0,0,1,.71.77C201.7,299.59,201.77,299.7,201.75,299.71Z"/><polygon class="cls-11" points="227.94 203.79 213.97 206.76 220.96 232.89 245.67 238.2 262.63 226.16 264.96 211.76 250.42 206.26 227.94 203.79"/><path class="cls-7" d="M218.11,205.68s9.44,27.44,26.9,24.91,16-20.32,16-20.32,18.22,5.55,23.85,11.46,2.34,18.76,2.34,18.76l-4.73,23.22L272.2,308.2s3.93,12.13-6.11,15.13l-3.18-5-60.27,1.71s-12.89,14.86-16.9,9.73-7.89-15.12-7.89-15.12L205.51,209Z"/><path class="cls-7" d="M280.1,218.23c.49.28,42.79,31,42.79,31s-3.32,25.29,17,21.26c0,0-8.2,21.15-19.3,16.71-3.16-1.27-42.15-25.94-42.15-25.94l-8.28-17.65Z"/><path class="cls-7" d="M218.11,207s-1,0-2.57.18c-8.29.79-38.85,7.12-41.68,28.69-1.48,11.28-1.9,44.27-3.5,58.1,0,0,2.55,19.22,3.5,22.79,1.69,6.33,32.35-3.81,32.35-3.81l.07-61.05,10.87-44.88"/><path class="cls-6" d="M198.77,262.45a2.42,2.42,0,0,1,0,.5,13.19,13.19,0,0,0,.1,1.41,20.84,20.84,0,0,0,1.29,5c.78,2.06,2,4.4,3.17,7.09A33.29,33.29,0,0,1,205,280.8a25.72,25.72,0,0,1,.83,4.9,59.35,59.35,0,0,1-.24,9.54c-.25,2.91-.5,5.54-.86,7.73a33.41,33.41,0,0,1-1.21,5.12c-.2.58-.36,1-.5,1.33s-.2.46-.22.45.2-.66.53-1.84a41,41,0,0,0,1-5.11c.31-2.18.51-4.81.74-7.72a62.33,62.33,0,0,0,.2-9.46,25.56,25.56,0,0,0-.8-4.81,32.49,32.49,0,0,0-1.54-4.27c-1.16-2.67-2.33-5.05-3.07-7.15a18.71,18.71,0,0,1-1.15-5.13,8.33,8.33,0,0,1,0-1.43A1.65,1.65,0,0,1,198.77,262.45Z"/><path class="cls-6" d="M200.15,254.76c.08,0,.16,1.55.5,4a53.83,53.83,0,0,0,2.24,9.5c.31.9.62,1.78,1,2.61a3.11,3.11,0,0,0,.25.57l.35.55c.24.38.46.75.65,1.13a9.48,9.48,0,0,1,1.12,4.33,7.69,7.69,0,0,1-.59,2.95,3.86,3.86,0,0,1-.55.95,10.5,10.5,0,0,0,.78-3.9,9.61,9.61,0,0,0-1.19-4.11,12.22,12.22,0,0,0-.64-1.08l-.36-.55a3.35,3.35,0,0,1-.3-.65c-.34-.84-.66-1.73-1-2.64a44.92,44.92,0,0,1-2.1-9.62c-.14-1.25-.17-2.27-.19-3A3.75,3.75,0,0,1,200.15,254.76Z"/><path class="cls-6" d="M201.39,245.59c-.08,0-.53-1.24-1.44-3.22a45.24,45.24,0,0,0-4.23-7.33,46.14,46.14,0,0,0-5.55-6.4c-1.57-1.5-2.62-2.35-2.57-2.41a3.26,3.26,0,0,1,.8.51,25.33,25.33,0,0,1,2,1.63,37.87,37.87,0,0,1,9.87,13.85c.41,1,.71,1.85.88,2.44A2.92,2.92,0,0,1,201.39,245.59Z"/><path class="cls-6" d="M288.07,227.67a12.84,12.84,0,0,1-.21,2.43c-.18,1.48-.43,3.54-.67,5.81s-.42,4.33-.55,5.82a12.94,12.94,0,0,1-.29,2.41,10.17,10.17,0,0,1-.07-2.43c0-1.5.15-3.58.39-5.86s.55-4.33.82-5.81A10.46,10.46,0,0,1,288.07,227.67Z"/><path class="cls-6" d="M296.76,253.35c0,.1-1.32.22-3.37.81a15.75,15.75,0,0,0-7,4.13,18.73,18.73,0,0,0-2.69,3.66,26.05,26.05,0,0,0-1.55,3.39c-.17.49-.34.94-.49,1.36s-.22.72-.32,1a3,3,0,0,1-.33.88,3.7,3.7,0,0,1,.14-.93c.07-.33.15-.68.23-1.07l.42-1.4a22.8,22.8,0,0,1,1.48-3.5,17.86,17.86,0,0,1,2.73-3.79,15.23,15.23,0,0,1,7.33-4.13,14,14,0,0,1,1.43-.29c.42-.07.79-.12,1.09-.14A3,3,0,0,1,296.76,253.35Z"/><path class="cls-6" d="M324.78,281.19a6.58,6.58,0,0,1-.68-1.12c-.21-.37-.45-.83-.69-1.37s-.56-1.16-.82-1.87a37.36,37.36,0,0,1-1.61-5.05,41.42,41.42,0,0,1-1-6.42,40.8,40.8,0,0,1,.11-6.5,37.66,37.66,0,0,1,.92-5.22c.16-.74.39-1.38.56-2s.35-1.06.5-1.45a7.69,7.69,0,0,1,.52-1.2c.1,0-.57,1.78-1.22,4.7a41.89,41.89,0,0,0-.8,5.18,45.17,45.17,0,0,0-.07,6.41,44.58,44.58,0,0,0,.93,6.35,40.73,40.73,0,0,0,1.49,5C324,279.5,324.87,281.14,324.78,281.19Z"/><path class="cls-6" d="M313.78,273.67a4.52,4.52,0,0,1-.39-1.07,19.61,19.61,0,0,1-.63-3,23.83,23.83,0,0,1,.94-10.16,23,23,0,0,1,5.11-8.84,4.51,4.51,0,0,1,2.75-1.48,1.91,1.91,0,0,1,.85.17c.18.1.26.16.25.17a3.09,3.09,0,0,0-1.08-.13,4.38,4.38,0,0,0-2.5,1.53,24.25,24.25,0,0,0-4.88,8.74,25.47,25.47,0,0,0-1.08,10C313.38,272.1,313.88,273.64,313.78,273.67Z"/><path class="cls-6" d="M245,268.69a4.91,4.91,0,0,1-.24,1.19,12.08,12.08,0,0,1-.41,1.36,18.52,18.52,0,0,1-.67,1.76,28.42,28.42,0,0,1-2.28,4.35,32.83,32.83,0,0,1-3.75,4.7,31.83,31.83,0,0,1-4.62,3.86,27.62,27.62,0,0,1-4.29,2.38c-.63.31-1.23.51-1.75.71a12.19,12.19,0,0,1-1.35.44,4.79,4.79,0,0,1-1.18.27c0-.1,1.64-.55,4.13-1.75a31.38,31.38,0,0,0,4.17-2.45,34.11,34.11,0,0,0,4.52-3.82,35.58,35.58,0,0,0,3.72-4.6,33,33,0,0,0,2.35-4.23C244.5,270.34,244.91,268.66,245,268.69Z"/><g class="cls-13"><path d="M210.38,278.6l-5.76-21.05c-.28-1-.75-2.23-1.8-2.42a2,2,0,0,0-2,1.72,11.34,11.34,0,0,0-.06,3.08c.46,4.56.82,7.67,2.94,11.21,4.15,6.9,1.42,10.24,1.42,10.24.33,8.4-.38,19.87-3,28.49l2.46,10.41c2.35-7.73,7.69-14.19,8.6-22.22C213.88,291.5,212.12,285,210.38,278.6Z"/></g><g class="cls-13"><path d="M282.47,263.85c6.85,3.57,12.94,8.48,19.62,12.29-2.62-5.45-7-10.83-12.29-13.73a7.69,7.69,0,0,0-4.64-1.22c-1.61.23-2.78,1.14-2.53,2.75"/></g><g class="cls-13"><path d="M321.73,248.78c-2.34-.05-4.11,2.07-5.26,4.11A31.69,31.69,0,0,0,312.69,272c.15,1.18.58,2.6,1.75,2.83a2,2,0,0,0,2.07-1.22,5.75,5.75,0,0,0,.39-2.54c0-4-.27-8,.3-12s2.07-8,5-10.67"/></g><path class="cls-10" d="M216,256.29a.75.75,0,0,1,.24,0l.69,0,2.71-.15,10.25-.47,36.26-1.54h.24v.24c.29,12.2.64,26.23,1,41.09,0,.5,0,1,0,1.49v.26h-.26a356.91,356.91,0,0,0-44.65,3.33l-.2,0-.05-.19a160.59,160.59,0,0,1-5.33-32.17c-.23-3.93-.28-7-.28-9.14,0-1.05,0-1.86,0-2.4l0-.62a1.66,1.66,0,0,1,0-.21s0,.07,0,.21l0,.62q0,.86,0,2.4c0,2.11.13,5.2.41,9.12a163.13,163.13,0,0,0,5.49,32.07l-.25-.16a347.5,347.5,0,0,1,44.71-3.41l-.25.26c0-.49,0-1,0-1.49-.34-14.86-.67-28.89-.95-41.09l.24.22-36.27,1.35-10.25.35-2.71.07H216Z"/><path class="cls-10" d="M229.13,286.61c-.14,0-1.39-6.74-2.79-15.1s-2.42-15.15-2.28-15.17,1.39,6.73,2.79,15.09S229.27,286.58,229.13,286.61Z"/><path class="cls-10" d="M230.64,299.5a58.83,58.83,0,0,1-1.72-11,58.83,58.83,0,0,1,1.72,11Z"/><path class="cls-10" d="M239.25,279.91A3.31,3.31,0,0,1,239,279c-.15-.6-.34-1.48-.55-2.58-.42-2.18-.89-5.22-1.23-8.61s-.47-6.46-.49-8.68c0-1.11,0-2,0-2.64a4.14,4.14,0,0,1,.09-1,28.23,28.23,0,0,1,.26,3.59c.11,2.21.3,5.27.64,8.64s.75,6.41,1.08,8.6A31.76,31.76,0,0,1,239.25,279.91Z"/><path class="cls-10" d="M238.12,298.16A46.84,46.84,0,0,1,237,291.1a47.41,47.41,0,0,1-.62-7.13,49.29,49.29,0,0,1,1.13,7.06A49.91,49.91,0,0,1,238.12,298.16Z"/><path class="cls-10" d="M249.42,297.35a9.15,9.15,0,0,1-.21-1.64c-.1-1.16-.23-2.67-.39-4.5-.33-3.8-.81-9-1.48-14.82s-1.38-11-1.92-14.77c-.26-1.82-.48-3.32-.64-4.47a10.76,10.76,0,0,1-.18-1.65,9.61,9.61,0,0,1,.38,1.62c.21,1.05.49,2.57.8,4.45.64,3.76,1.41,9,2.08,14.76s1.1,11,1.33,14.85c.12,1.9.19,3.45.23,4.51A11.75,11.75,0,0,1,249.42,297.35Z"/><path class="cls-10" d="M259,297.89a9.69,9.69,0,0,1-.07-1.68c0-1.17,0-2.71,0-4.58,0-3.86-.14-9.19-.42-15.08s-.68-11.2-1-15.05c-.17-1.86-.3-3.4-.4-4.56a11.63,11.63,0,0,1-.09-1.68,9.67,9.67,0,0,1,.29,1.66c.16,1.07.35,2.62.56,4.54.43,3.85.89,9.17,1.17,15.07s.32,11.24.27,15.1c0,1.94-.08,3.5-.13,4.58A11.51,11.51,0,0,1,259,297.89Z"/><g class="cls-13"><path d="M225.27,289.79a8.43,8.43,0,0,0,5.26,1.28,16.75,16.75,0,0,0,5.32-1.4,16,16,0,0,0,6.05-4,14,14,0,0,0,3-7.09,41.49,41.49,0,0,0,.26-7.8.6.6,0,0,0-.07-.33.42.42,0,0,0-.57,0,1.22,1.22,0,0,0-.3.56A29,29,0,0,1,225,289.24"/></g><path class="cls-11" d="M219.07,373.54,213,362.08l-13.74-64.31s-12.64-7.25-23,8.66c-.42.64,14.23,46.69,18.32,59.51l.57,12.25s-.72,14.51,0,15.78a5.81,5.81,0,0,0,2.54,2s-.54,3.63,3.63,4c0,0,.36,4,3.45,3.45a5.89,5.89,0,0,0,4.17-2.54s0,5.08,2.72,4.53,3.16-2.72,3.67-3.44,1.07-8.16,1.07-8.16l0-12.29,7.09,5.74c2,1,5,2.28,6.74.76Z"/><path class="cls-12" d="M216.33,380.89a22.33,22.33,0,0,1,.41,6.62c-.09,1.7-.16,3.25-.23,4.67a7.85,7.85,0,0,1-.18,1.94,30.48,30.48,0,0,1-.11-6.63C216.39,383.85,216.2,380.91,216.33,380.89Z"/><path class="cls-12" d="M208.53,389.45a35,35,0,0,1,.35,6.07,36.68,36.68,0,0,1-.18,6.08,34.29,34.29,0,0,1-.34-6.07A36.09,36.09,0,0,1,208.53,389.45Z"/><path class="cls-12" d="M202,391.68a16.59,16.59,0,0,1-.81,8.41c-.14,0,.22-1.9.43-4.21A39.08,39.08,0,0,1,202,391.68Z"/><path class="cls-12" d="M197.78,390.26a14.59,14.59,0,0,1-.54,5.47,7.51,7.51,0,0,1,0-2.76A7.61,7.61,0,0,1,197.78,390.26Z"/></g><g id="Speech_Bubble" data-name="Speech Bubble"><path class="cls-10" d="M211.51,139.7l-9.2-16.21a43.47,43.47,0,1,0-10.41,11.57v0Z"/><path class="cls-6" d="M211.51,139.7l-19.65-4.49a.14.14,0,0,1-.1-.16l0-.05v0l.18.18a43.25,43.25,0,0,1-20.81,8.78,39.78,39.78,0,0,1-6.87.35c-1.18-.07-2.39-.1-3.6-.2l-3.67-.56a43.78,43.78,0,0,1-27.1-17.4,43.33,43.33,0,0,1-7.34-16.76,44.24,44.24,0,0,1,.52-19.3,42.82,42.82,0,0,1,9.29-17.84l1.78-2c.58-.65,1.27-1.19,1.9-1.8s1.26-1.21,2-1.71l2.08-1.56a19.14,19.14,0,0,1,2.16-1.42l2.2-1.34,2.3-1.12a20.9,20.9,0,0,1,2.33-1,44.23,44.23,0,0,1,19.45-3,42.85,42.85,0,0,1,17.84,5.27A44,44,0,0,1,207,87.92,47,47,0,0,1,208.89,102a43.33,43.33,0,0,1-2.12,12.19,44,44,0,0,1-4.35,9.33v-.13l9.09,16.28-9.31-16.15a.15.15,0,0,1,0-.13,43.69,43.69,0,0,0,4.28-9.3,43.22,43.22,0,0,0,2.05-12.1,46.84,46.84,0,0,0-1.91-14,43.67,43.67,0,0,0-20.44-25,42.31,42.31,0,0,0-17.65-5.19,43.81,43.81,0,0,0-19.22,3,20.39,20.39,0,0,0-2.3,1l-2.27,1.11c-.73.43-1.45.88-2.18,1.32a17.45,17.45,0,0,0-2.13,1.41l-2.05,1.53c-.71.5-1.29,1.14-1.95,1.7s-1.31,1.13-1.88,1.78l-1.75,1.92a42.25,42.25,0,0,0-9.19,17.63,43.65,43.65,0,0,0-.52,19.07,42.77,42.77,0,0,0,7.22,16.58,43.41,43.41,0,0,0,26.8,17.28l3.63.56c1.2.1,2.4.14,3.57.21a39.13,39.13,0,0,0,6.81-.32,43.48,43.48,0,0,0,11.81-3.33,44.34,44.34,0,0,0,8.9-5.29.14.14,0,0,1,.18,0,.15.15,0,0,1,0,.16l0,0-.07-.21Z"/><path class="cls-5" d="M152.62,92.51a7.22,7.22,0,0,0-8.11,1.65c4.69,2.72,11.08,6.33,15.65,8.93l5.77-3.3C161.78,97.5,156.56,94.62,152.62,92.51Z"/><g class="cls-13"><path d="M152.62,92.51a7.22,7.22,0,0,0-8.11,1.65c4.69,2.72,11.08,6.33,15.65,8.93l5.77-3.3C161.78,97.5,156.56,94.62,152.62,92.51Z"/></g><path class="cls-5" d="M170.29,109.17l-.21-.17c-1.44-.83-3-2.42-4.41-2.39-.56,0-1.16.49-2.59,1.3-2.38,1.34-6.39,3.69-8.78,5-2.05,1.13-4.54,2-6.87,1.24a9.61,9.61,0,0,1-3.23-2l26.09-15.12c-.14-.39-.28-.76-.4-1.14a7.46,7.46,0,1,1,6.24,5,3.62,3.62,0,0,0-1.74.35c-1,.48-1.92,1.09-3.11,1.78,2,.9,3.38,2.33,5.72,2.11a7,7,0,0,1,7.1,5.18,7.44,7.44,0,0,1-2.78,8.27,7.46,7.46,0,0,1-11.43-8.44C170,109.89,170.14,109.55,170.29,109.17Zm6.66-12a3.57,3.57,0,0,0,3.61-3.64A3.63,3.63,0,0,0,177,90a3.61,3.61,0,1,0,0,7.21Zm0,19.08a3.63,3.63,0,0,0,3.65-3.5A3.57,3.57,0,0,0,177,109a3.64,3.64,0,0,0-3.67,3.48A3.69,3.69,0,0,0,176.91,116.24Z"/><path class="cls-6" d="M167.25,103c-.09,0-.05-.68-.78-1.21a1.54,1.54,0,0,0-1.42-.16,1.47,1.47,0,0,0,0,2.74,1.54,1.54,0,0,0,1.42-.17c.73-.52.69-1.23.78-1.2s.08.15.05.44a1.71,1.71,0,0,1-.61,1.06,1.89,1.89,0,0,1-1.8.32,1.92,1.92,0,0,1,0-3.64,1.84,1.84,0,0,1,1.8.32,1.71,1.71,0,0,1,.61,1.06C167.33,102.82,167.28,103,167.25,103Z"/><path class="cls-6" d="M173.63,101.7a2.87,2.87,0,0,1-.53.36l-1.48.9-4.94,2.89-5,2.85-1.52.84a5.54,5.54,0,0,1-.56.28,3.28,3.28,0,0,1,.53-.35l1.48-.9,4.93-2.9,5-2.84,1.52-.84A3.71,3.71,0,0,1,173.63,101.7Z"/><path class="cls-6" d="M169.29,97.7s-.08.07-.24.17l-.72.45-2.66,1.61c-2.24,1.35-5.35,3.21-8.84,5.18l-8.91,5.06-2.71,1.51-.75.41a1,1,0,0,1-.26.12l.24-.16.73-.44,2.68-1.57,8.88-5.11c3.48-2,6.6-3.81,8.87-5.13l2.69-1.55.74-.41Z"/></g><g id="Stars"><polygon class="cls-5" points="334.49 152.16 336.39 155.63 339.86 157.52 336.39 159.42 334.49 162.89 332.6 159.42 329.13 157.52 332.6 155.63 334.49 152.16"/><polygon class="cls-5" points="347.17 104.63 349.14 104.5 350.74 103.33 350.87 105.3 352.04 106.89 350.07 107.02 348.48 108.2 348.35 106.22 347.17 104.63"/><polygon class="cls-5" points="667.03 262.43 669.01 262.3 670.6 261.13 670.73 263.1 671.9 264.69 669.93 264.82 668.34 265.99 668.21 264.02 667.03 262.43"/><polygon class="cls-5" points="441.72 163.7 443.7 163.57 445.29 162.4 445.42 164.37 446.59 165.96 444.62 166.09 443.03 167.27 442.9 165.29 441.72 163.7"/><polygon class="cls-5" points="453.74 79.21 455.71 79.08 457.3 77.9 457.43 79.88 458.61 81.47 456.63 81.6 455.04 82.77 454.91 80.8 453.74 79.21"/><polygon class="cls-5" points="393.19 131.65 396.19 129.92 397.79 126.84 399.51 129.85 402.59 131.44 399.59 133.17 397.99 136.24 396.26 133.24 393.19 131.65"/><polygon class="cls-5" points="645.24 302.15 648.24 300.43 649.83 297.35 651.56 300.35 654.63 301.95 651.63 303.68 650.04 306.75 648.31 303.75 645.24 302.15"/><polygon class="cls-5" points="630.17 247.3 633.18 245.57 634.77 242.5 636.5 245.5 639.57 247.1 636.57 248.82 634.98 251.9 633.25 248.9 630.17 247.3"/></g></g></svg>