<svg xmlns="http://www.w3.org/2000/svg" viewBox="0 0 387.78 338.86"><defs><style>.cls-1{fill:#026a9d;}.cls-13,.cls-16,.cls-2,.cls-4,.cls-6{fill:#fff;}.cls-2{opacity:0.9;}.cls-13,.cls-14,.cls-15,.cls-16,.cls-2,.cls-4{isolation:isolate;}.cls-3{fill:#e9ecf3;}.cls-4{opacity:0.5;}.cls-5{fill:#fafafa;}.cls-7{fill:#ebebeb;}.cls-8{fill:#7bb732;}.cls-9{fill:#ffb573;}.cls-10{fill:#263238;}.cls-11{fill:#ff5652;}.cls-12,.cls-15{opacity:0.2;}.cls-13{opacity:0.1;}.cls-14,.cls-16{opacity:0.3;}</style></defs><title>invalid-link</title><g id="Capa_2" data-name="Capa 2"><g id="Capa_1-2" data-name="Capa 1"><g id="background-simple--inject-277"><path class="cls-1" d="M184.36,38.4c48.1,5.38,69.21-36.32,116.88-30.86,42.54,4.87,71.88,35.18,61.95,76-8.82,36.24-50.81,47.61-65.74,81.56-15.83,36-28.1,74.79-75.9,87.32C127.7,277,82.11,161.54,75.72,95.21,73.27,69.75,69,8.88,102.23,1,135.68-6.94,154.89,35.1,184.36,38.4Z"/><path class="cls-2" d="M184.36,38.4c48.1,5.38,69.21-36.32,116.88-30.86,42.54,4.87,71.88,35.18,61.95,76-8.82,36.24-50.81,47.61-65.74,81.56-15.83,36-28.1,74.79-75.9,87.32C127.7,277,82.11,161.54,75.72,95.21,73.27,69.75,69,8.88,102.23,1,135.68-6.94,154.89,35.1,184.36,38.4Z"/></g><g id="Shadow--inject-277"><ellipse id="path--inject-277" class="cls-3" cx="193.89" cy="327.54" rx="193.89" ry="11.32"/></g><rect class="cls-1" x="47.67" y="113.67" width="1" height="18.49" transform="translate(-8.71 3.78) rotate(-4.12)"/><rect class="cls-1" x="49.27" y="141.64" width="1" height="6.96" transform="translate(-10.3 3.95) rotate(-4.12)"/><path class="cls-1" d="M281.6,226.46H67.44A9.65,9.65,0,0,1,58,217.65L47.48,71.52a8.09,8.09,0,0,1,7.37-8.77,5.35,5.35,0,0,1,.8,0H269.81a9.64,9.64,0,0,1,9.44,8.8l10.52,146.13a8.11,8.11,0,0,1-7.38,8.78C282.13,226.45,281.86,226.46,281.6,226.46Z"/><path class="cls-1" d="M282.42,226.46H68.26a9.65,9.65,0,0,1-9.44-8.81L48.3,71.52a8.09,8.09,0,0,1,7.37-8.77,5.35,5.35,0,0,1,.8,0H270.63a9.64,9.64,0,0,1,9.44,8.8l10.52,146.13a8.11,8.11,0,0,1-7.36,8.78Z"/><path class="cls-4" d="M282.42,226.46H68.26a9.65,9.65,0,0,1-9.44-8.81L48.3,71.52a8.09,8.09,0,0,1,7.37-8.77,5.35,5.35,0,0,1,.8,0H270.63a9.64,9.64,0,0,1,9.44,8.8l10.52,146.13a8.11,8.11,0,0,1-7.36,8.78Z"/><path class="cls-1" d="M271,67.12H56.07c-5.47.45-4.35,8.78,1.17,8.78H271.76c5.53,0,5.45-8.33-.09-8.78Z"/><path class="cls-5" d="M62.37,71.52a1.85,1.85,0,0,1-1.69,2h-.19a2.2,2.2,0,0,1-2.16-2,1.86,1.86,0,0,1,1.69-2h.18A2.19,2.19,0,0,1,62.37,71.52Z"/><path class="cls-5" d="M69.24,71.52a1.85,1.85,0,0,1-1.69,2h-.19a2.2,2.2,0,0,1-2.16-2,1.86,1.86,0,0,1,1.69-2h.18A2.19,2.19,0,0,1,69.24,71.52Z"/><path class="cls-5" d="M76.1,71.52a1.85,1.85,0,0,1-1.69,2h-.18a2.2,2.2,0,0,1-2.16-2,1.84,1.84,0,0,1,1.67-2h.2A2.18,2.18,0,0,1,76.1,71.52Z"/><path class="cls-6" d="M276.74,211.88H71.89a3.5,3.5,0,0,1-3.42-3.2L59.82,88.51a2.92,2.92,0,0,1,2.64-3.18,2.17,2.17,0,0,1,.36,0h204.9a3.47,3.47,0,0,1,3.42,3.19l8.66,120.17a2.94,2.94,0,0,1-2.67,3.19Z"/><polygon class="cls-6" points="190.42 166.1 187.08 119.78 176.98 113.7 149.17 113.7 152.95 166.1 190.42 166.1"/><polygon class="cls-7" points="187.08 108.66 176.98 102.58 180.69 110.64 187.08 108.66"/><path class="cls-8" d="M190.42,155.47H153a.49.49,0,0,1-.49-.45l-3.77-52.4a.46.46,0,0,1,.13-.36.48.48,0,0,1,.35-.16H177a.45.45,0,0,1,.25.07l10.1,6.08a.47.47,0,0,1,.24.38L190.89,155a.47.47,0,0,1-.13.37A.53.53,0,0,1,190.42,155.47Zm-37-1h36.47l-3.28-45.55-9.72-5.85h-27.2Z"/><path class="cls-8" d="M180.69,111.13a.49.49,0,0,1-.44-.28l-3.71-8.06a.48.48,0,0,1,.69-.62l10.1,6.08a.49.49,0,0,1,.24.48.51.51,0,0,1-.34.4l-6.4,2Zm-2.61-7.32,2.87,6.25,5-1.53Z"/><path class="cls-8" d="M164.89,126.19a2,2,0,0,1-1.89,2.1h-.11a2.32,2.32,0,0,1-2.26-2.11,1.94,1.94,0,0,1,1.75-2.12h.25A2.32,2.32,0,0,1,164.89,126.19Z"/><path class="cls-8" d="M178.59,126.19a1.94,1.94,0,0,1-1.76,2.1h-.24a2.32,2.32,0,0,1-2.27-2.11,2,2,0,0,1,1.88-2.12h.12A2.3,2.3,0,0,1,178.59,126.19Z"/><path class="cls-8" d="M182.47,139.93a.5.5,0,0,1-.48-.45c-.25-3.41-5.59-6.18-11.9-6.18-4.19,0-8,1.25-9.81,3.25a3.73,3.73,0,0,0-1.14,2.86.5.5,0,0,1-1,.07,4.76,4.76,0,0,1,1.4-3.59c2-2.19,6.07-3.56,10.52-3.56,6.93,0,12.58,3.11,12.86,7.08a.48.48,0,0,1-.45.51h0Z"/><path class="cls-8" d="M157.06,121.91a.57.57,0,0,1-.33-.13.49.49,0,0,1,0-.69l2.13-2.29a.48.48,0,0,1,.68,0,.47.47,0,0,1,0,.67h0l-2.13,2.29A.5.5,0,0,1,157.06,121.91Z"/><path class="cls-8" d="M181.47,121.91a.64.64,0,0,1-.33-.13l-2.45-2.29a.48.48,0,0,1,0-.68h0a.48.48,0,0,1,.68,0l2.45,2.29a.47.47,0,0,1,0,.67h0A.64.64,0,0,1,181.47,121.91Z"/><path class="cls-9" d="M297.58,84.38c.89-.45,2-1,2.94-1.57s2-1.12,3-1.72c2-1.21,3.93-2.4,5.8-3.72a76.64,76.64,0,0,0,10.52-8.66c.41-.38.77-.8,1.16-1.21l.57-.61.28-.3.14-.16h0c-.14.27,0,.19,0-.07a5.11,5.11,0,0,0,.15-1.09,30.47,30.47,0,0,0-.73-6.32c-.89-4.48-2.24-9.1-3.57-13.62l3.88-1.7a81.34,81.34,0,0,1,6.11,13.6,31.25,31.25,0,0,1,1.72,7.89,12.43,12.43,0,0,1-.08,2.51,7.82,7.82,0,0,1-1.22,3.29l-.17.23-.13.16-.15.19-.31.38-.62.75c-.41.49-.81,1-1.25,1.47a72.09,72.09,0,0,1-11.38,10.2A75.49,75.49,0,0,1,308,88.49c-1.07.65-2.16,1.27-3.27,1.88s-2.19,1.17-3.47,1.77Z"/><path class="cls-1" d="M288.68,319.48a10.41,10.41,0,0,0,2.22-.3.26.26,0,0,0,.15-.16.2.2,0,0,0-.09-.2c-.29-.19-2.83-1.83-3.81-1.39a.67.67,0,0,0-.39.56,1.14,1.14,0,0,0,.33,1.05A2.37,2.37,0,0,0,288.68,319.48Zm1.65-.58c-1.45.29-2.55.24-3-.15a.78.78,0,0,1-.2-.71.29.29,0,0,1,.17-.25C287.83,317.56,289.3,318.3,290.33,318.9Z"/><path class="cls-1" d="M290.89,319.18h.1a.21.21,0,0,0,.1-.17c0-.11,0-2.52-.92-3.32a1,1,0,0,0-.84-.27.69.69,0,0,0-.67.55c-.19,1,1.33,2.75,2.13,3.21Zm-1.43-3.39a.66.66,0,0,1,.44.17,4.5,4.5,0,0,1,.78,2.64c-.8-.64-1.75-2-1.63-2.57,0-.09.07-.21.32-.24Z"/><path class="cls-9" d="M290.11,59.37c-1,5-3,15,.45,18.35,0,0-1.36,5-10.59,5-10.16,0-4.85-5-4.85-5,5.54-1.32,5.39-5.43,4.43-9.3Z"/><path class="cls-10" d="M273.17,79.72c-1.59.22-.23-3.91.41-4.34,1.5-1,20.86-2.39,20.73,0-.08,1-.56,3-1.4,3.66S287.09,77.64,273.17,79.72Z"/><path class="cls-10" d="M276.33,78.3c-1.27.43-1.15-3.73-.72-4.23,1-1.16,16.67-5.18,17.13-2.91.18,1,.27,3-.27,3.71S287.33,74.41,276.33,78.3Z"/><path class="cls-10" d="M270.5,50.41a.41.41,0,0,1-.33-.15A3.16,3.16,0,0,0,267.58,49a.41.41,0,0,1-.44-.34h0a.39.39,0,0,1,.35-.43,3.87,3.87,0,0,1,3.29,1.51.4.4,0,0,1,0,.56A.65.65,0,0,1,270.5,50.41Z"/><path class="cls-11" d="M268.56,55.3a18,18,0,0,1-2,4.53A2.94,2.94,0,0,0,269,60Z"/><path class="cls-10" d="M269.05,54.09c.07.67-.24,1.25-.68,1.29s-.85-.46-.91-1.14.24-1.25.67-1.29S269,53.41,269.05,54.09Z"/><path class="cls-10" d="M268.33,53l-1.66-.31S267.62,53.84,268.33,53Z"/><polygon class="cls-9" points="300.59 318.99 292.21 318.99 292.87 299.59 301.25 299.59 300.59 318.99"/><path class="cls-10" d="M291.55,318H301a.65.65,0,0,1,.67.57L302.7,326a1.35,1.35,0,0,1-1.18,1.48h-.16c-3.28,0-4.86-.25-9-.25-2.55,0-6.27.27-9.78.27s-3.71-3.48-2.24-3.79c6.56-1.42,7.6-3.36,9.81-5.22A2.17,2.17,0,0,1,291.55,318Z"/><g class="cls-12"><polygon points="301.25 299.59 292.87 299.59 292.53 309.59 300.91 309.59 301.25 299.59"/></g><path class="cls-9" d="M267.26,89.3a164.89,164.89,0,0,1-15-6.75,92,92,0,0,1-14.4-8.77,35.65,35.65,0,0,1-3.42-3.07c-.28-.3-.56-.58-.83-.93a11.82,11.82,0,0,1-.88-1.13A7.9,7.9,0,0,1,231.34,65a8.25,8.25,0,0,1,.49-3.62,10.55,10.55,0,0,1,1.41-2.6,18.24,18.24,0,0,1,3.39-3.52,41.69,41.69,0,0,1,7.3-4.67c1.24-.66,2.5-1.25,3.78-1.8s2.54-1.07,3.91-1.54l1.77,3.85c-4.36,2.75-8.88,5.78-12.2,9.16a13.48,13.48,0,0,0-1.95,2.49c-.48.79-.47,1.38-.39,1.33s0,0,.14.1l.4.43c.15.18.36.36.55.55a26.49,26.49,0,0,0,2.69,2.16,63.48,63.48,0,0,0,6.44,4c2.25,1.26,4.57,2.45,6.93,3.59,4.72,2.26,9.6,4.43,14.39,6.41Z"/><path class="cls-9" d="M255.89,48.45l1.38-3L251,43.3s-2,5.91.37,8.63h0A6.07,6.07,0,0,0,255.89,48.45Z"/><polygon class="cls-9" points="257.24 38.96 252.21 37.5 250.95 43.26 257.24 45.45 257.24 38.96"/><path class="cls-9" d="M322.24,45.74l.73-7-6.48,1.56s-.1,6.58,3.33,7.62Z"/><polygon class="cls-9" points="319.85 33.81 315.62 35.78 316.49 40.25 322.97 38.72 319.85 33.81"/><path class="cls-9" d="M291.43,49.55c.31,8.31.61,11.82-3.14,16.47-5.65,7-15.92,5.55-18.7-2.5-2.5-7.24-2.58-19.61,5.18-23.69a11.34,11.34,0,0,1,15.34,4.68A11.52,11.52,0,0,1,291.43,49.55Z"/><path class="cls-10" d="M287.81,66c8.16-3.53,13.52-11,11.26-22.58-2.17-11.11-9.67-12.21-12.77-9.91s-10.83-1.13-15.47,2.77c-8,6.77-.44,14,3.52,18.37C276.71,59.52,279.81,69.46,287.81,66Z"/><path class="cls-8" d="M284.42,41.44a8.29,8.29,0,1,0,1.83-11.92A8.53,8.53,0,0,0,284.42,41.44Z"/><path class="cls-10" d="M286.54,34.3c-1.17-6.7,5.16-11.86,13.64-9.37s4,10,2.25,16,2.83,11.72,4.73,7.15-1.3-6-1.3-6,9,2.33.64,12.48-15.93-1.06-13.88-7.67C294.28,41.58,287.65,40.63,286.54,34.3Z"/><path class="cls-10" d="M278.07,36.83c-3.87-2-10.42-3.65-14.15,2.63-1.76,3-1.08,7-1.08,7l11.39.75Z"/><path class="cls-10" d="M261.5,44.48h0a.26.26,0,0,1-.24-.27c0-.17.29-4.19,2.72-6.71,5.87-6.1,12.75-1,14.71.65a.25.25,0,0,1,0,.35.26.26,0,0,1-.31,0c-1.89-1.62-8.47-6.47-14-.69-2.3,2.39-2.58,6.36-2.58,6.4a.25.25,0,0,1-.26.24Z"/><path class="cls-9" d="M275.74,54.3a7,7,0,0,1-1.65,4.28c-1.38,1.62-3,.82-3.33-1-.33-1.61,0-4.4,1.74-5.37S275.76,52.48,275.74,54.3Z"/><path class="cls-10" d="M273.94,130.42s.54,58.15,5.58,90.55c4.08,26.17,11.61,86.69,11.61,86.69h11.43s1.11-58.43-1-84.31c-5.23-65.5,8.28-77.75-2.62-92.93Z"/><path class="cls-13" d="M273.94,130.42s.54,58.15,5.58,90.55c4.08,26.17,11.61,86.69,11.61,86.69h11.43s1.11-58.43-1-84.31c-5.23-65.5,8.28-77.75-2.62-92.93Z"/><path class="cls-14" d="M280,156.8c4,17.55.81,45.19-1.38,57.36-2.32-18.48-3.49-42.43-4.07-60C276.57,150.82,278.53,150.6,280,156.8Z"/><polygon class="cls-8" points="289.57 307.88 304.12 307.88 304.88 302.78 289.49 302.26 289.57 307.88"/><path class="cls-8" d="M293.72,81.3c1.37-2.72,8.73-4.43,12.75-4.42l3,13.36s-8,11.89-11.34,10.63C294.2,99.42,290.79,87.17,293.72,81.3Z"/><path class="cls-1" d="M285.24,304.61a.21.21,0,0,0,0-.19.19.19,0,0,0-.21-.11c-.42.07-4.12.65-4.62,1.71a.64.64,0,0,0,0,.63,1.11,1.11,0,0,0,.86.57c1.21.12,3-1.56,3.9-2.58Zm-4.44,1.54c.34-.56,2.26-1.08,3.72-1.35-1.32,1.34-2.48,2.09-3.16,2a.73.73,0,0,1-.56-.38.28.28,0,0,1,0-.25A0,0,0,0,1,280.8,306.15Z"/><path class="cls-1" d="M285.24,304.61h0a.21.21,0,0,0,0-.19c-.06-.07-1.54-1.78-2.91-1.87a1.42,1.42,0,0,0-1.09.37c-.41.37-.37.69-.27.89.43.86,3.09,1.16,4.16.93A.18.18,0,0,0,285.24,304.61Zm-3.91-1.26a.69.69,0,0,1,.16-.18,1,1,0,0,1,.79-.27,4.57,4.57,0,0,1,2.39,1.47c-1.19.1-3.11-.26-3.37-.78A.25.25,0,0,1,281.33,303.35Z"/><polygon class="cls-9" points="293.97 301.06 286.31 304.47 282.9 297.36 278.44 288.06 277.91 286.98 285.57 283.57 286.16 284.79 290.48 293.8 293.97 301.06"/><polygon class="cls-15" points="290.48 293.8 282.9 297.36 278.44 288.06 286.16 284.79 290.48 293.8"/><path class="cls-10" d="M265,130.42s-24.47,60.88-17.84,89.48c6,25.89,32.5,74.92,32.5,74.92l10.27-5.14s-16.39-59.19-18.16-72.05c-3.46-25,18.77-60.33,18.77-87.21Z"/><path class="cls-13" d="M265,130.42s-24.47,60.88-17.84,89.48c6,25.89,32.5,74.92,32.5,74.92l10.27-5.14s-16.39-59.19-18.16-72.05c-3.46-25,18.77-60.33,18.77-87.21Z"/><path class="cls-10" d="M285,303.4l7.6-5.53a.65.65,0,0,1,.88.06l5.25,5.39a1.34,1.34,0,0,1-.09,1.9l-.12.1c-2.69,1.88-4.08,2.66-7.42,5.09-2.06,1.5-6.16,4.81-9,6.88s-5-.63-4-1.74c4.48-5,5.42-8.1,6.12-10.91A2.13,2.13,0,0,1,285,303.4Z"/><polygon class="cls-8" points="278.96 296.99 292.19 290.94 290.5 285.55 276.33 292.01 278.96 296.99"/><path class="cls-8" d="M271.45,80.66c-1.09-2.84-10.65-6-15.45-7l-2.11,15.72s7.84,11.26,11.27,10.33C269.22,98.61,273.81,86.75,271.45,80.66Z"/><path class="cls-8" d="M261,79.87s-4,1.4,4,50.55h34c-.57-13.84-.59-22.38,6-50.8a98.89,98.89,0,0,0-14.45-1.9,107.52,107.52,0,0,0-15.44,0A142.55,142.55,0,0,0,261,79.87Z"/><path class="cls-1" d="M299.49,128.43l1.53,3c.12.24-.16.48-.55.48H264.79c-.31,0-.56-.15-.58-.35l-.31-3c0-.21.25-.39.58-.39h34.41A.6.6,0,0,1,299.49,128.43Z"/><path class="cls-16" d="M299.49,128.43l1.53,3c.12.24-.16.48-.55.48H264.79c-.31,0-.56-.15-.58-.35l-.31-3c0-.21.25-.39.58-.39h34.41A.6.6,0,0,1,299.49,128.43Z"/><path class="cls-10" d="M294.89,132.3h.92c.19,0,.33-.1.31-.21l-.43-4c0-.12-.17-.21-.35-.21h-.93c-.18,0-.32.09-.31.21l.43,4C294.52,132.18,294.68,132.3,294.89,132.3Z"/><path class="cls-10" d="M272.5,132.3h.92c.18,0,.32-.1.31-.21l-.43-4c0-.12-.17-.21-.36-.21H272c-.19,0-.32.09-.31.21l.43,4C272.15,132.18,272.31,132.3,272.5,132.3Z"/><path class="cls-1" d="M188.29,167.48a5.44,5.44,0,0,0-7.39-2.08l-10.2,5.73,1.18,2.09,10.2-5.73a3,3,0,0,1,4.12,1.16,3,3,0,0,1,.27,2.3,3,3,0,0,1-1.43,1.83L175.8,178a5.43,5.43,0,0,0-1.53-3,5.56,5.56,0,0,0-5.68-1.27l-.83.3.81,2.25.84-.29a3.09,3.09,0,0,1,3.17.7,3,3,0,0,1,.85,1.7l-.11,0a3,3,0,0,1-1.83-1.44l-.43-.77-2.1,1.18.44.77a5.37,5.37,0,0,0,3.27,2.57l.14,0a2.85,2.85,0,0,1-.23.26l-7.65,7.65a3,3,0,0,1-4.28-4.28l6.64-6.64-1.7-1.7L159,182.62a5.42,5.42,0,1,0,7.67,7.67l7.64-7.64a5.4,5.4,0,0,0,1.26-2,5,5,0,0,0,1.26-.5l9.43-5.29a5.44,5.44,0,0,0,2.07-7.39Z"/><path class="cls-1" d="M168.94,171.77a.56.56,0,0,0,.45-.65l-1.14-6.34a.56.56,0,0,0-1.1.19l1.15,6.35A.56.56,0,0,0,168.94,171.77Z"/><path class="cls-1" d="M160.28,175.11l6.35-1.14a.56.56,0,0,0-.2-1.1L160.08,174a.55.55,0,1,0,.2,1.09Z"/></g></g></svg>