<svg xmlns="http://www.w3.org/2000/svg" viewBox="0 0 471.22 456.98"><defs><style>.cls-1{fill:#f2f3f8;}.cls-2{fill:#e9ecf3;}.cls-3{fill:#026a9d;}.cls-4{opacity:0.6;}.cls-5{opacity:0.3;}.cls-14,.cls-17,.cls-18,.cls-19,.cls-22,.cls-23,.cls-5,.cls-6,.cls-8{isolation:isolate;}.cls-23,.cls-6{opacity:0.5;}.cls-7{fill:#2c3e50;}.cls-8{opacity:0.7;}.cls-9{fill:#fafafa;}.cls-10{fill:#e0e0e0;}.cls-11{fill:#f0f0f0;}.cls-12,.cls-17,.cls-22{opacity:0.4;}.cls-13,.cls-17,.cls-23{fill:#fff;}.cls-14{opacity:0.15;}.cls-15{fill:#7bb732;}.cls-16{fill:#455a64;}.cls-18{opacity:0.2;}.cls-19{opacity:0.1;}.cls-20{fill:#ffa8a7;}.cls-21{fill:#f28f8f;}</style></defs><title>password-changed</title><g id="Capa_2" data-name="Capa 2"><g id="Capa_1-2" data-name="Capa 1"><g id="Floor--inject-425"><ellipse id="floor--inject-425-2" data-name="floor--inject-425" class="cls-1" cx="235.61" cy="320.95" rx="235.61" ry="136.03"/></g><g id="Shadow--inject-425"><path id="shadow--inject-425-2" data-name="shadow--inject-425" class="cls-2" d="M370.92,368.15c-15.45-8.92-15.45-23.38,0-32.3s40.5-8.92,55.95,0,15.45,23.38,0,32.3S386.37,377.07,370.92,368.15Z"/><path id="shadow--inject-425-3" data-name="shadow--inject-425" class="cls-2" d="M56.68,369.39,16,345.93c-2.29-1.32-2.29-3.47,0-4.79L252.43,204.66a9.17,9.17,0,0,1,8.29,0l40.65,23.46c2.29,1.32,2.29,3.47,0,4.79L65,369.39A9.19,9.19,0,0,1,56.68,369.39Z"/></g><g id="Device--inject-425"><g id="device--inject-425-2" data-name="device--inject-425"><path class="cls-3" d="M202.76,327.57l34.94-20.2c3.6-2.08,5.4-4.8,5.4-7.53V295l-36.24-20.44a7.65,7.65,0,0,1-3.48-6V225.45l-61,35.26v43.07a7.69,7.69,0,0,0,3.48,6l30.84,17.76C183.88,331.73,195.56,331.73,202.76,327.57Z"/><g class="cls-4"><path d="M202.76,327.57l34.94-20.2c3.6-2.08,5.4-4.8,5.4-7.53V295l-36.24-20.44a7.65,7.65,0,0,1-3.48-6V225.45l-61,35.26v43.07a7.69,7.69,0,0,0,3.48,6l30.84,17.76C183.88,331.73,195.56,331.73,202.76,327.57Z"/></g><path class="cls-5" d="M157,311.41v4.84l-11.18-6.45a7.66,7.66,0,0,1-3.47-6V260.71L154,254c.24,2.95.5,6,.75,9l-8.17,4.7v33.65a7.65,7.65,0,0,0,3.48,6Z"/><path class="cls-3" d="M146.56,301.36a7.67,7.67,0,0,0,3.48,6l26.62,15.34c7.2,4.15,18.88,4.16,26.09,0l35-20.2c7.21-4.16,7.21-10.9,0-15.06L211.11,272.1a7.71,7.71,0,0,1-3.47-6V232.44l-61,35.26Z"/><path class="cls-5" d="M146.56,301.36a7.67,7.67,0,0,0,3.48,6l26.62,15.34c7.2,4.15,18.88,4.16,26.09,0l35-20.2c7.21-4.16,7.21-10.9,0-15.06L211.11,272.1a7.71,7.71,0,0,1-3.47-6V232.44l-61,35.26Z"/><path class="cls-6" d="M218.16,276.21h0l-7.09-4.09a7.71,7.71,0,0,1-3.47-6V232.44l-61,35.26v33.66a7.67,7.67,0,0,0,3.48,6l7,4Z"/><path class="cls-3" d="M243.11,295v4.86c0,2.73-1.81,5.44-5.4,7.53l-35,20.19a26.24,26.24,0,0,1-12.45,3.09v-4.84a26.24,26.24,0,0,0,12.45-3.09l35-20.21C241.3,300.45,243.11,297.72,243.11,295Z"/><path class="cls-6" d="M243.11,295v4.86c0,2.73-1.81,5.44-5.4,7.53l-35,20.19a26.24,26.24,0,0,1-12.45,3.09v-4.84a26.24,26.24,0,0,0,12.45-3.09l35-20.21C241.3,300.45,243.11,297.72,243.11,295Z"/><path class="cls-3" d="M48.56,343.19A9.34,9.34,0,0,0,57,343L293,206.79a9.61,9.61,0,0,0,4.35-7.53V8.34A9.31,9.31,0,0,0,293.28.93a9.32,9.32,0,0,0-8.42.16l-236,136.29a9.56,9.56,0,0,0-4.3,7.55V335.82A9.3,9.3,0,0,0,48.56,343.19Z"/><path class="cls-3" d="M57,343,293,206.78a9.58,9.58,0,0,0,4.35-7.53V8.34c0-2.77-1.95-3.9-4.35-2.51L57,142.08a9.61,9.61,0,0,0-4.35,7.53V340.52C52.67,343.29,54.62,344.42,57,343Z"/><path class="cls-6" d="M57,343,293,206.78a9.58,9.58,0,0,0,4.35-7.53V8.34c0-2.77-1.95-3.9-4.35-2.51L57,142.08a9.61,9.61,0,0,0-4.35,7.53V340.52C52.67,343.29,54.62,344.42,57,343Z"/><path class="cls-3" d="M56.38,348a9.37,9.37,0,0,1-7.82-.16,9.31,9.31,0,0,1-4-7.39V323.06l8.15,4.72v17.38C52.66,347.69,54.27,348.84,56.38,348Z"/><path class="cls-6" d="M56.38,348a9.37,9.37,0,0,1-7.82-.16,9.31,9.31,0,0,1-4-7.39V323.06l8.15,4.72v17.38C52.66,347.69,54.27,348.84,56.38,348Z"/><path class="cls-3" d="M52.66,327.78v17.38c0,2.77,2,3.89,4.35,2.51L293,211.42a9.62,9.62,0,0,0,4.35-7.49V186.47Z"/><path class="cls-5" d="M52.67,327.74v17.42c0,2.77,2,3.89,4.35,2.51L293,211.42a9.64,9.64,0,0,0,4.34-7.49V186.47Z"/><path class="cls-3" d="M60.82,305.93V152.32a5.72,5.72,0,0,1,2.6-4.52L286.56,18.93c1.44-.83,2.61-.16,2.61,1.5V174.12a5.76,5.76,0,0,1-2.61,4.52L63.43,307.48C62,308.31,60.82,307.63,60.82,305.93Z"/><path class="cls-7" d="M60.82,305.93V152.32a5.72,5.72,0,0,1,2.6-4.52L286.56,18.93c1.44-.83,2.61-.16,2.61,1.5V174.12a5.76,5.76,0,0,1-2.61,4.52L63.43,307.48C62,308.31,60.82,307.63,60.82,305.93Z"/><path class="cls-3" d="M175,262.66a9,9,0,0,0-4.08,7.06c0,2.6,1.83,3.66,4.08,2.36a9,9,0,0,0,4.08-7.07C179.09,262.41,177.26,261.36,175,262.66Z"/><path class="cls-8" d="M54,145.31a9.17,9.17,0,0,0-1.29,4.29V327.78l-8.1-4.72V144.93a8.84,8.84,0,0,1,1.28-4.3Z"/><path class="cls-5" d="M297.32,7.62c-.31-2.24-2.12-3-4.31-1.79L57,142.08a8.89,8.89,0,0,0-3.07,3.23l-8.16-4.71a9,9,0,0,1,3.08-3.23l236-136.24A9.34,9.34,0,0,1,293.29,1,9.39,9.39,0,0,1,297.32,7.62Z"/></g></g><g id="window--inject-425"><g id="window--inject-425-2" data-name="window--inject-425"><path class="cls-3" d="M310.05,31.12a2.16,2.16,0,0,0-2.22.17L85.15,159.93a6.71,6.71,0,0,0-3,5.27V317.87a3,3,0,0,0,1.29,2.65c.49.27,3.11,1.79,3.89,2.21a1.74,1.74,0,0,0,1.76-.1L311.72,194a6.71,6.71,0,0,0,3-5.27V35.26a2.09,2.09,0,0,0-.94-2C313.28,32.93,310.61,31.45,310.05,31.12Z"/><path class="cls-9" d="M89,162.09,311.73,33.5c1.68-1,3-.18,3,1.76V188.72a6.71,6.71,0,0,1-3,5.27L89,322.63c-1.68,1-3-.61-3-2.55V167.36A6.74,6.74,0,0,1,89,162.09Z"/><path class="cls-10" d="M313.09,34.08h0c.59,0,.68.74.68,1.18V188.72a5.66,5.66,0,0,1-2.55,4.4L88.56,321.76a1,1,0,0,1-.5.16c-.56,0-1-.86-1-1.84V167.36a5.74,5.74,0,0,1,2.5-4.43L312.23,34.36a1.75,1.75,0,0,1,.86-.28m0-1a2.75,2.75,0,0,0-1.36.42L89,162.09a6.74,6.74,0,0,0-3,5.27V320.08c0,1.54.86,2.84,2,2.84a2.07,2.07,0,0,0,1-.29L311.72,194a6.71,6.71,0,0,0,3-5.27V35.26c0-1.38-.68-2.18-1.68-2.18Z"/><path class="cls-11" d="M83.38,320.52c.33.17,2.7,1.52,3.74,2.12A3.12,3.12,0,0,1,86,320.08V177.33l-3.9-2.28V317.87A3,3,0,0,0,83.38,320.52Z"/><path class="cls-3" d="M314.77,35.23c0-1.92-1.37-2.7-3-1.73L89,162.09a6.74,6.74,0,0,0-3,5.27v10L314.77,45.23Z"/><g class="cls-12"><path class="cls-13" d="M311.73,33.5,89,162.08a6.22,6.22,0,0,0-2.14,2.27L83,162.1a6,6,0,0,1,2.12-2.17L307.83,31.29a2.14,2.14,0,0,1,2.22-.18c.54.34,3.07,1.77,3.72,2.12A2.21,2.21,0,0,0,311.73,33.5Z"/></g><path class="cls-14" d="M82.1,175.06v-9.91A6.23,6.23,0,0,1,83,162.1l3.88,2.24a6.12,6.12,0,0,0-.91,3v10Z"/></g></g><path class="cls-15" d="M267.81,150.35l-133.37,77a4.9,4.9,0,0,0-2.23,3.85v38.24a4.9,4.9,0,0,0,2.23,3.85l3.89,2.24a4.94,4.94,0,0,0,4.46,0l133.35-77a4.93,4.93,0,0,0,2.23-3.86V156.42a4.9,4.9,0,0,0-2.23-3.85l-3.9-2.24A4.9,4.9,0,0,0,267.81,150.35Z"/><path class="cls-7" d="M142.41,275.72a5,5,0,0,1-4.07-.18l-3.9-2.24a5,5,0,0,1-2.23-3.85V231.21a4.67,4.67,0,0,1,.66-2.21l8.35,4.82a4.45,4.45,0,0,0-.66,2.19v38.25C140.56,275.53,141.36,276.12,142.41,275.72Z"/><path class="cls-15" d="M142.79,232.16l133.37-77c1.23-.71,2.23-.14,2.23,1.28v38.25a4.93,4.93,0,0,1-2.23,3.86l-133.35,77c-1.23.71-2.23.13-2.23-1.29V236A4.91,4.91,0,0,1,142.79,232.16Z"/><path class="cls-16" d="M232.45,170.77l-98,56.59a4.54,4.54,0,0,0-1.56,1.64l8.35,4.82a4.47,4.47,0,0,1,1.57-1.66l98-56.58Z"/><path class="cls-7" d="M240.79,175.58l-98,56.58a4.93,4.93,0,0,0-2.23,3.86v38.23c0,1.42,1,2,2.23,1.29l98-56.58Z"/><path class="cls-15" d="M165.39,238,216,208.83c2.09-1.21,3.79-.35,3.79,1.92a8.11,8.11,0,0,1-3.8,6.3l-50.56,29.2c-2.09,1.21-3.8.35-3.8-1.92A8.15,8.15,0,0,1,165.39,238Z"/><path class="cls-16" d="M264.43,195.33l-9.71,5.6,1.51-13.62c-1.17-.62-1.91-2.13-1.91-4.3,0-3.87,2.36-8.36,5.26-10s5.25.1,5.25,4a13.24,13.24,0,0,1-1.9,6.5Z"/><polygon class="cls-7" points="264.44 195.33 255.89 190.4 254.72 200.94 264.44 195.33"/><path class="cls-7" d="M259.56,173a11.48,11.48,0,0,0-4.48,6l7.83,4.52h0a13.24,13.24,0,0,0,1.9-6.5C264.83,173.08,262.48,171.31,259.56,173Z"/><path class="cls-3" d="M212.36,127.63c-3.33-1.92-7.92-1.65-13,1.28C189.22,134.77,181,149,181,160.71c0,5.88,2.08,10,5.42,11.9l6.47,3.76c3.32,1.92,7.91,1.64,13-1.29,10.14-5.85,18.36-20.09,18.36-31.8,0-5.85-2.06-10-5.38-11.87"/><path class="cls-3" d="M205.88,132.68c-10.14,5.86-18.36,20.1-18.36,31.8s8.22,16.46,18.36,10.6,18.37-20.09,18.36-31.8S216,126.83,205.88,132.68Z"/><path class="cls-3" d="M216,158.66V160a29.47,29.47,0,0,1-10.13,10.62c-3.95,2.27-7.52,2.52-10.14,1.07v-2.76A18,18,0,0,1,204,154.62l2.67-1.54c2.36-1.36,4.66-1.54,6.46-.49S216,155.85,216,158.66Z"/><path class="cls-17" d="M212.36,127.63l6.5,3.78c-3.32-1.93-7.91-1.66-13,1.27-6.64,3.84-12.46,11.27-15.68,19.23l-6.51-3.77c3.23-8,9-15.39,15.68-19.23C204.45,126,209,125.71,212.36,127.63Z"/><path class="cls-18" d="M192.66,176.22l-6.23-3.61c-3.34-1.9-5.42-6-5.42-11.9l6.51,3.78C187.56,170.19,189.48,174.25,192.66,176.22Z"/><path class="cls-19" d="M183.69,148.14l6.51,3.77a34.13,34.13,0,0,0-2.64,12.57h0l-6.51-3.78A34.28,34.28,0,0,1,183.69,148.14Z"/><path class="cls-13" d="M203.56,152.45a3.44,3.44,0,0,1-1.77-.46,4.33,4.33,0,0,1-1.91-4,11.42,11.42,0,0,1,5.24-9.08h0a3.92,3.92,0,0,1,6.32,3.66,11.45,11.45,0,0,1-5.24,9.08A5.33,5.33,0,0,1,203.56,152.45Z"/><path class="cls-13" d="M213.13,152.58c-1.8-1.05-4.1-.87-6.46.49L204,154.61a18,18,0,0,0-8.26,14.32v2.77c2.62,1.45,6.19,1.2,10.14-1.07A29.47,29.47,0,0,0,216,160v-1.34C216,155.85,215,153.64,213.13,152.58Z"/><g id="Plants--inject-425"><g id="plants--inject-425-2" data-name="plants--inject-425"><path class="cls-15" d="M418.71,325.58s1.33-11.68,7.14-20.75,13.79-14.72,21.24-15.31,13.47,6.27,5.5,11-22.13,9.51-28.65,27.11Z"/><path class="cls-19" d="M418.71,325.58s1.33-11.68,7.14-20.75,13.79-14.72,21.24-15.31,13.47,6.27,5.5,11-22.13,9.51-28.65,27.11Z"/><path class="cls-13" d="M420.9,322.54h-.08a.41.41,0,0,1-.22-.52c7.86-19.35,22.82-27.44,29.64-29a.39.39,0,0,1,.48.3.4.4,0,0,1-.3.48h0c-6.68,1.54-21.35,9.48-29.08,28.53A.4.4,0,0,1,420.9,322.54Z"/><path class="cls-15" d="M460.68,322.77c-.67,1.52-2.33,2.32-3.87,2.94s-3.22,1.29-4.06,2.73c-1.68,2.9,1.08,7-.72,9.81a5.24,5.24,0,0,1-3.56,2.06c-1.15.21-2.32.21-3.48.31a13.11,13.11,0,0,1-1.66-.13,7.58,7.58,0,0,0-4.81.51c-2.31,1.3-3,4.21-4.42,6.46a11,11,0,0,1-7.77,4.88c-1,.13-3,.32-4-.27a1.64,1.64,0,0,1-.22-.14h0c-.15-.16-.33-.37-.41-.48a.09.09,0,0,1,0-.07c-.41-1.51.26-3.07.29-4.63v-.28c-.07-1.81-.12-3.61-.16-5.41-.09-3.33-.12-6.67-.1-10,0-2.16-.24-4.52.68-6.55,1-2.24,3.52-2.29,4.47-4.48.38-.88.58-1.81.95-2.7a7.72,7.72,0,0,1,6.58-4.59c4.39-.22,8.32,3.33,12.71,3,1.13-.09,2.24-.44,3.36-.64,3.55-.67,7.66.34,9.66,3.35A4.63,4.63,0,0,1,460.68,322.77Z"/><path class="cls-13" d="M421.26,344.45h0A.38.38,0,0,1,421,344c6.06-22.74,30-26,35.63-25.62a.37.37,0,0,1,.35.39h0a.38.38,0,0,1-.4.34c-5.49-.39-28.93,2.82-34.86,25.08A.38.38,0,0,1,421.26,344.45Z"/><path class="cls-13" d="M447.89,332.93a.35.35,0,0,1-.2-.1,19.9,19.9,0,0,0-16.31-4.59.39.39,0,0,1-.42-.32.39.39,0,0,1,.31-.43,20.7,20.7,0,0,1,17,4.81.37.37,0,0,1,0,.52h0A.34.34,0,0,1,447.89,332.93Z"/></g></g><g id="Clouds--inject-425"><g id="clouds--inject-425-2" data-name="clouds--inject-425"><path class="cls-1" d="M363.68,50.93l3.18,1.22v-7c0-5.56,4.43-6.89,9.24-4.11h0c4.82,2.78,8.72,9.53,8.72,15.09v1a4.62,4.62,0,0,1,4,.62h0a13.87,13.87,0,0,1,6.27,10.87v.46l4.44,2.56a9.12,9.12,0,0,1,4.13,7.15c0,2.64-1.85,3.71-4.13,2.39L363.68,60.47a9.1,9.1,0,0,1-4.12-7.15C359.56,50.69,361.39,49.62,363.68,50.93Z"/><path class="cls-1" d="M406.27,45.39,412,48.72A6.47,6.47,0,0,1,412,48V46.29c0-3,2.08-4.18,4.66-2.69a9,9,0,0,1,2.78,2.67c.42-3.74,3.36-5.13,6.92-3.08a15.41,15.41,0,0,1,7,12.09v2.5a6.58,6.58,0,0,1-.59,2.9l4.8,2.76a5.73,5.73,0,0,1,2.56,4.49c0,1.65-1.16,2.32-2.59,1.5l-31.26-18a5.72,5.72,0,0,1-2.59-4.5C403.68,45.24,404.84,44.57,406.27,45.39Z"/></g></g><g id="Character--inject-425"><g id="character--inject-425-2" data-name="character--inject-425"><path class="cls-20" d="M383.93,197.16c-4.2,7.1-8.24,13.27-11.08,16.23-5.39,2.5-18.05,6.36-23,7a3.68,3.68,0,0,1-2.48-.58c-1.95-1.28-3.46-1.49-5.51-2.2-1.61-.55-2.29-1.32-2.59-1a1.83,1.83,0,0,0,.17,2.55,13.46,13.46,0,0,0,2.54,1.9,15,15,0,0,1-6.7.12c-4.29-1.13-6.31.93-3.41,5.59,1,1.66,5.12,4.33,13.4,3.61a74.45,74.45,0,0,0,8.81-1c7.94-1.7,16.77-3.34,22.2-5a14,14,0,0,0,5.28-3.66c9.13-10.41,12.16-17.83,16.16-24.57l-.34-11C390.9,184.93,387.44,191.22,383.93,197.16Z"/><path class="cls-16" d="M398.49,184.93a10.41,10.41,0,0,0-9.9,4.23c-4.44,5.69-12.3,19.35-12.3,19.35s2.57,6.85,9.51,8L397,201.45S402.23,191,398.49,184.93Z"/><rect class="cls-20" x="415.33" y="338.47" width="7.27" height="12.96"/><polygon class="cls-20" points="397.4 337.78 390.14 338.04 389.77 324.32 397.4 324.06 397.4 337.78"/><path class="cls-7" d="M423.62,226.28c0,7.22-1.06,65.39-1.06,65.39.16,2.08,2,5.92,1.63,13.91-.55,10.85-1.28,39.37-1.28,39.37a9.26,9.26,0,0,1-8.09.16s-5.9-40-7.2-50.71c-1.14-9.39-4.06-40.47-4.06-40.47l-3.93,36.74a45.19,45.19,0,0,1,.9,12c-.34,5-2.68,30.88-2.68,30.88a9.61,9.61,0,0,1-8.39.67s-4.14-39-4.22-43.58c-.1-5.2,2.42-64.42,2.42-64.42Z"/><path class="cls-7" d="M415.33,347.69v-1.08c-.7.31-2.31,6.73-5.2,9.47-2.29,2.18-5.41,4.69-6.21,7.12s4.35,3.92,6.5,3.53c2.48-.46,6.8-2.29,7.88-4s1.59-4.19,2.47-5.43,2.91-2.62,3.38-4.06a9.51,9.51,0,0,0-.41-4c-.34-1.34-.7-2.81-1.14-2.68v.82a5.67,5.67,0,0,1-3.64,1.28C417.9,348.75,415.32,348.53,415.33,347.69Z"/><path class="cls-7" d="M390.06,335.7c-.38,0-.69.57-1.52,1.51a15.93,15.93,0,0,1-4.27,3.2c-2.72,1.42-8,3.6-10.41,4.73-1.5.7-1.43,2.58.12,3.65s5.28,1.84,9.76.8c2.44-.57,5.62-2.92,7.64-2.79s5.77.09,7.26-1,.89-3.35.47-5.3c-.46-2.14-1-5.47-1.71-5.32v.75c-.87,1.38-5.38,1.94-7.3.93Z"/><path class="cls-7" d="M403.56,253.93a26.82,26.82,0,0,1-10.12-6.05s2,3.81,7.76,7.36L400,288.05Z"/><path class="cls-3" d="M419.56,186s6,1.38,5.57,12.22l-1.25,17.25v25.9c-5.34,6.06-29,5.62-37.15-.48,0,0,.92-30.65,1.47-42.45.39-8.38,2.32-12.6,10.56-13.52l10.13.44Z"/><path class="cls-7" d="M411.92,163.47a11,11,0,0,1-10.74,11.26h-.08c-6,0-9.52-5.18-10.82-11.26-2.4-11.13,4.84-11.27,10.82-11.27A11.05,11.05,0,0,1,411.92,163.47Z"/><path class="cls-7" d="M417.44,168s-1.66,8.12-2.33,9.46a3.52,3.52,0,0,1-2,1.71l.12-5.71Z"/><path class="cls-7" d="M415.35,156.39s1.19-.3,2.46,1.68c1.08,1.69,1.33,5.49-.37,10l-3.13.38Z"/><path class="cls-7" d="M416.5,158l3.84.07a1.81,1.81,0,0,0-1.61-2h-.14A2.12,2.12,0,0,0,416.5,158Z"/><path class="cls-7" d="M417,157.13l2.84-2.73a1.83,1.83,0,0,0-2.58-.21l-.11.1A2.1,2.1,0,0,0,417,157.13Z"/><path class="cls-20" d="M413.37,168.4c.63.39,1.52-.86,2.3-1.71s3.2-1.63,4.46,1.13-.89,5.49-2.69,6.39c-3.23,1.6-4.25-.73-4.25-.73l-.27,12.86c-4.54,7-14.84,6.78-11.13-.34v-3.91a21,21,0,0,1-4.62.24c-2.52-.4-4.1-2.47-4.87-5.31-1.22-4.56-1.69-8.24-.65-17.21,1.14-9.82,12.12-9.93,18-6S413.37,168.4,413.37,168.4Z"/><path class="cls-7" d="M399.69,158.28c2.62-.26,5.21-.8,7.84-1a5.11,5.11,0,0,1,1.7.08c2,.55,1.76,2.89,2.08,4.52.55,2.82,1,7.59,2.06,7.61.32,0,1.52-2.07,2.3-2.81a4.13,4.13,0,0,0,.7-2.15c.2-1.16.3-2.35.39-3.53.08-1,.18-2,.18-3a13.63,13.63,0,0,0-.27-3.37,5.87,5.87,0,0,0-1.4-2.52l-.2-.22a13.23,13.23,0,0,0-4.69-3.16,28.06,28.06,0,0,0-7.94-1.73,78.72,78.72,0,0,1-8.09-1,.62.62,0,0,0-.85.6,3.35,3.35,0,0,0,1.35,3.3c-1.81.14-3.89-.8-5.63-1.28a1.15,1.15,0,0,0-.89,0,.88.88,0,0,0-.35.51,3.18,3.18,0,0,0-.05,1.44,8.29,8.29,0,0,0,1.56,4,9.78,9.78,0,0,0,5.4,3.53A16.1,16.1,0,0,0,399.69,158.28Z"/><path class="cls-21" d="M401.8,182.09s5.62-1.18,7.58-2.27a6.62,6.62,0,0,0,2.72-2.8,9.43,9.43,0,0,1-1.55,3.3c-1.43,1.92-8.75,3.32-8.75,3.32Z"/><path class="cls-7" d="M403.15,166.93a1.18,1.18,0,0,0,1.12,1.21,1.24,1.24,0,0,0,1.32-1.12,1.22,1.22,0,0,0-2.44-.2Z"/><path class="cls-7" d="M405,162.08l2.41,1.39a1.53,1.53,0,0,0-.56-2,1.32,1.32,0,0,0-1.8.5Z"/><path class="cls-21" d="M402.3,175l-2.57,1a1.34,1.34,0,0,0,1.66.91l.09,0A1.5,1.5,0,0,0,402.3,175Z"/><path class="cls-7" d="M392.81,163.11l2.2-1.76a1.31,1.31,0,0,0-1.8-.39l-.11.08A1.57,1.57,0,0,0,392.81,163.11Z"/><path class="cls-7" d="M393.78,166.6a1.13,1.13,0,1,0,2.25-.18,1.12,1.12,0,0,0-1.12-1,1.17,1.17,0,0,0-1.13,1.21Z"/><polygon class="cls-21" points="399.81 165.66 399.68 172.77 395.64 171.85 399.81 165.66"/><polyline class="cls-3" points="303.87 225.21 310.14 221.59 312.62 218.58 306.36 222.2 303.87 225.21"/><polyline class="cls-22" points="303.87 225.21 310.14 221.59 312.62 218.58 306.36 222.2 303.87 225.21"/><polyline class="cls-3" points="320.92 235.05 327.19 231.43 332.42 226.8 326.16 230.41 320.92 235.05"/><polyline class="cls-22" points="320.92 235.05 327.19 231.43 332.42 226.8 326.16 230.41 320.92 235.05"/><path class="cls-3" d="M374.18,247.54a13.32,13.32,0,0,1,2.59,6.82A13.41,13.41,0,0,1,374.18,247.54Zm14.57.19c-2.11-14.35-9.82-28.54-19-33.85-4.41-2.55-8.49-2.64-11.76-.73l-5.9,3.4-.33.2a6.06,6.06,0,0,0-.76.48,10.38,10.38,0,0,0-1.36,1.12l-.2.19c-.18.18-.37.39-.54.59s-.43.51-.63.78a15.64,15.64,0,0,0-1.15,1.76,10.36,10.36,0,0,0-.51,1l-51.53-29.74-6.26,3.61v4l.53.3.5.29v.8l-1,.59v2.32l7.57,16,7.48,4.33,2.49-3,6.6,4,3.79,6.49L321,235l5.23-4.64,6.42,3.71,2.16,8.91,10.79,6.24a57.77,57.77,0,0,0,2,6.69c.07.22.16.45.25.7,3.58,9.4,9.27,17.45,15.69,21.16a15.75,15.75,0,0,0,2.41,1.17,12.57,12.57,0,0,0,1.35.45q.6.16,1.2.27a10.66,10.66,0,0,0,3.82,0l.52-.13a4.68,4.68,0,0,0,.73-.21l.56-.22a3,3,0,0,0,.57-.27,5.44,5.44,0,0,0,.54-.27l.26-.16.13-.07c1.43-.82,5-2.86,5.91-3.4,4.76-2.76,7.84-9.74,7.84-19.61A52.38,52.38,0,0,0,388.75,247.73Z"/><path class="cls-3" d="M372.35,259.65c-2.48-1.43-4.48-5.67-4.48-9.47s2-5.73,4.48-4.31,4.47,5.67,4.47,9.48S374.82,261.08,372.35,259.65Zm10.13-8.31c-2.1-14.34-9.81-28.54-19-33.84-4.26-2.46-8.2-2.64-11.4-.95l-.33.2a6.06,6.06,0,0,0-.76.48,10.38,10.38,0,0,0-1.36,1.12l-.2.19c-.18.18-.37.39-.54.59s-.43.51-.63.78a15.64,15.64,0,0,0-1.15,1.76,10.36,10.36,0,0,0-.51,1,24.58,24.58,0,0,0-2,6.09l-55.79-32.22v4l.53.3.5.29v.8l-1,.59v2.32l7.57,16,7.48,4.33,2.49-3,6.6,4,3.79,6.49L321,235l5.23-4.64,6.42,3.71,2.16,8.91,10.8,6.24a57.77,57.77,0,0,0,2,6.69c.07.22.16.45.25.7,3.58,9.4,9.27,17.45,15.69,21.16a15.75,15.75,0,0,0,2.41,1.17,12.57,12.57,0,0,0,1.35.45q.6.16,1.2.27a10.66,10.66,0,0,0,3.82,0l.52-.13a4.68,4.68,0,0,0,.73-.21l.56-.22a3,3,0,0,0,.57-.27,5.44,5.44,0,0,0,.54-.27l.26-.16.13-.07c4.56-2.88,7.49-9.76,7.49-19.39A54,54,0,0,0,382.48,251.34Z"/><path class="cls-22" d="M376.82,255.34c0,3.81-2,5.74-4.47,4.31s-4.48-5.66-4.48-9.47,2-5.74,4.48-4.31a6.24,6.24,0,0,1,1.83,1.68,13.32,13.32,0,0,0,2.59,6.82A7.88,7.88,0,0,1,376.82,255.34Z"/><path class="cls-17" d="M389.32,255.33c0,9.87-3.08,16.85-7.84,19.61-1,.54-4.48,2.58-5.91,3.4,4.56-2.88,7.49-9.76,7.49-19.39a52.37,52.37,0,0,0-.58-7.61c-2.1-14.34-9.81-28.54-19-33.84-4.26-2.46-8.2-2.64-11.4-.95l5.9-3.4c3.27-1.91,7.35-1.82,11.76.73,9.19,5.31,16.9,19.5,19,33.85A52.24,52.24,0,0,1,389.32,255.33Z"/><path class="cls-3" d="M383.06,258.93c0,9.63-2.93,16.51-7.49,19.39,1.43-.82,4.95-2.86,5.91-3.4,4.76-2.76,7.84-9.74,7.84-19.61v-1.1l-6.26,3.62C383.05,258.22,383.06,258.58,383.06,258.93Z"/><path class="cls-19" d="M383.06,258.93c0,9.63-2.93,16.51-7.49,19.39,1.43-.82,4.95-2.86,5.91-3.4,4.76-2.76,7.84-9.74,7.84-19.61v-1.1l-6.26,3.62C383.05,258.22,383.06,258.58,383.06,258.93Z"/><polygon class="cls-14" points="344.84 232.85 344.84 234.88 288.82 202.54 289.85 201.94 289.85 201.1 344.84 232.85"/><polygon class="cls-14" points="344.84 233.69 344.84 234.88 288.82 202.54 289.85 201.94 289.85 201.93 344.84 233.69"/><path class="cls-14" d="M369.2,274.93a12,12,0,0,1-6-1.79c-9.13-5.27-16.56-20.95-16.56-34.95,0-8.17,2.47-14.27,6.78-16.76,3-1.74,6.55-1.52,10.28.63,9.12,5.27,16.55,21,16.55,35,0,8.16-2.47,14.27-6.78,16.75A8.51,8.51,0,0,1,369.2,274.93Zm-11.45-53.65a7.58,7.58,0,0,0-3.8,1c-3.93,2.27-6.28,8.22-6.28,15.9,0,13.68,7.2,29,16.06,34.08,3.39,2,6.6,2.18,9.27.64,3.93-2.27,6.28-8.21,6.28-15.89,0-13.69-7.2-29-16-34.09a10.92,10.92,0,0,0-5.48-1.6Z"/><path class="cls-17" d="M346.56,222.65a24.58,24.58,0,0,0-2,6.09l-55.79-32.22,6.26-3.61Z"/><path class="cls-20" d="M419.07,225.78c2.92-5.53,6.26-17.95,7.92-24.22,2.36-8.9-1.46-14.5-5.8-14.73-2.71.42-11.64,32.89-11.64,32.89-1,.79-14.57,7.68-18.93,9.41a3.47,3.47,0,0,1-2.42,0c-2.09-.76-3.52-.62-5.57-.82-1.61-.16-2.42-.73-2.63-.39a1.84,1.84,0,0,0,.79,2.37,13.42,13.42,0,0,0,2.8,1.22,17.08,17.08,0,0,1-5.41.73c-4.2-.09-5.71,1.73-2.45,6,2,2.66,5.31,3.5,12.7.95,2.12-.74,5-2.17,7.69-3.14,5.54-2,7-2.24,11.22-3.67C413.49,230.3,417.77,228.24,419.07,225.78Z"/><path class="cls-16" d="M419.56,186c2.55.35,5,.92,6.51,3s2.72,5,1.24,12.95a123.68,123.68,0,0,1-4.54,16.48s-5.94,2.54-12.25-3.9l4.34-16.78S415.56,186.83,419.56,186Z"/></g></g><path class="cls-23" d="M278.37,156.08c-.16-1.15-1.09-1.57-2.21-.92l-133.37,77a4.47,4.47,0,0,0-1.57,1.66L132.87,229a4.54,4.54,0,0,1,1.56-1.64l133.38-77a4.91,4.91,0,0,1,4.45,0l3.9,2.24A5,5,0,0,1,278.37,156.08Z"/></g></g></svg>