<svg xmlns="http://www.w3.org/2000/svg" viewBox="0 0 675.51 451.96"><defs><style>.cls-1{fill:#e0e0e0;}.cls-2{fill:#ebebeb;}.cls-3{fill:#263238;}.cls-4{fill:#455a64;}.cls-5{fill:#fff;}.cls-6{fill:#026a9d;}.cls-7{opacity:0.4;}.cls-14,.cls-8{opacity:0.3;}.cls-9{fill:#fafafa;}.cls-10{opacity:0.2;}.cls-11{fill:#ffbe9d;}.cls-12{fill:#eb996e;}.cls-13{fill:#7bb732;}</style></defs><title>404</title><g id="Capa_2" data-name="Capa 2"><g id="Background_Complete" data-name="Background Complete"><path class="cls-1" d="M554.13,98.17a12.4,12.4,0,0,1-13.8-16.43l24.28-67.19a12.28,12.28,0,0,1,9.48-8h0a12.27,12.27,0,0,1,11.62,4.22l46,54.63a12.39,12.39,0,0,1-7.29,20.19L554.17,98.16Zm20.64-88h0a8.6,8.6,0,0,0-6.65,5.6L543.81,83a8.7,8.7,0,0,0,9.68,11.52h0L623.85,82A8.7,8.7,0,0,0,629,67.78L582.92,13.15A8.63,8.63,0,0,0,574.77,10.19Z"/><path class="cls-1" d="M580.79,73.12a4.58,4.58,0,0,1,3.9-5.34,4.51,4.51,0,0,1,5.41,3.64,4.56,4.56,0,0,1-3.76,5.38A4.63,4.63,0,0,1,580.79,73.12Zm-6.28-36.69,8.61-1.57,3.52,27.51-5.76,1.05Z"/><path class="cls-2" d="M554,349.25c-13.93-19.8-9.38-45.52-.76-67,1.44-3.58,2.43-7.56,5.31-10.11s7.71-3.28,10.4-.57c2.24,2.25,2.27,5.81,2.84,8.95a22.58,22.58,0,0,0,5.56,11.22c1.88,2,4.47,3.81,7.21,3.38,3.76-.59,5.7-4.79,7-8.4l7.2-20.23c1.29-3.62,2.61-7.31,5-10.33s6-5.3,9.78-5,7.32,3.8,6.76,7.6c-.23,1.58-1.08,3-1.53,4.53s-.34,3.45.93,4.38,3.1.45,4.56-.21c5-2.3,9.28-6.08,13.34-9.89s8.09-7.76,12.91-10.51,10.64-4.2,15.92-2.62,9.62,6.77,9.09,12.32-5.38,9.65-10.1,12.6a85.93,85.93,0,0,1-22.58,9.91c-1.44.39-3,.82-3.91,2-1.65,2.12-.24,5.34,1.85,7,2.37,1.87,5.39,2.65,8.08,4s5.3,3.7,5.39,6.74c.15,4.23-4.34,7-8.3,8.41a73.47,73.47,0,0,1-24.71,4.38c-3,0-6.11-.15-8.93.94s-5.29,3.86-4.92,6.87,3.4,5,6.37,5.53,6-.11,9-.15c5.64-.08,11.92,2.59,13.55,8,1.06,3.58-.18,7.57-2.45,10.55a28.14,28.14,0,0,1-8.71,6.93c-11.34,6.45-24.24,10.26-37.2,10.08s-24-3-33.93-11.31"/><path class="cls-1" d="M564.55,337.66A343.58,343.58,0,0,1,590,307.49l7.09-7.57c2.33-2.47,4.64-4.93,7-7.19a172.14,172.14,0,0,1,14.59-12.22c4.82-3.66,9.54-7,14-10s8.63-5.8,12.56-8.15a136,136,0,0,1,19.34-9.7c2.36-1,4.22-1.65,5.49-2.1l1.44-.5a3.38,3.38,0,0,1,.5-.15,3.18,3.18,0,0,1-.47.21l-1.42.57c-1.25.49-3.09,1.22-5.44,2.22a144.84,144.84,0,0,0-19.19,9.88c-3.9,2.37-8.06,5.15-12.48,8.21s-9.11,6.38-13.92,10.05a174.61,174.61,0,0,0-14.5,12.19c-2.39,2.26-4.68,4.7-7,7.18L590.54,308a352.52,352.52,0,0,0-25.47,30.07"/><path class="cls-1" d="M604.36,292.77a7.87,7.87,0,0,1,.2-1.67c.18-1.06.48-2.6.87-4.49.8-3.78,2.07-9,3.5-14.67s2.62-10.89,3.36-14.68c.37-1.89.65-3.42.84-4.48a8.74,8.74,0,0,1,.36-1.64,7.11,7.11,0,0,1-.09,1.68c-.1,1.07-.31,2.62-.62,4.53-.61,3.82-1.74,9-3.17,14.76l-3.69,14.61c-.43,1.76-.79,3.25-1.09,4.44A7.84,7.84,0,0,1,604.36,292.77Z"/><path class="cls-1" d="M653.92,300.93a9.47,9.47,0,0,1-1.93-.45c-1.23-.32-3-.8-5.22-1.33-4.42-1.08-10.57-2.36-17.43-3.48s-13.1-1.85-17.63-2.25c-2.27-.22-4.11-.34-5.38-.44a10.65,10.65,0,0,1-2-.21,10.65,10.65,0,0,1,2-.07c1.28,0,3.13.07,5.41.22,4.56.27,10.83.93,17.71,2a173.82,173.82,0,0,1,17.43,3.7c2.21.59,4,1.15,5.18,1.56A10.41,10.41,0,0,1,653.92,300.93Z"/><path class="cls-1" d="M565.43,337a2.33,2.33,0,0,1-.11-.68c-.05-.53-.11-1.18-.19-2-.15-1.71-.31-4.18-.46-7.25-.31-6.13-.47-14.61-.53-24s-.13-17.83-.31-24c-.1-3-.18-5.43-.24-7.26,0-.79,0-1.44-.05-2a3,3,0,0,1,0-.7,2.21,2.21,0,0,1,.12.69c.05.53.11,1.18.18,2,.16,1.71.31,4.19.46,7.26.32,6.13.48,14.61.53,24s.14,17.83.32,24c.1,3,.18,5.43.24,7.25,0,.79,0,1.45.05,2A3.08,3.08,0,0,1,565.43,337Z"/><path class="cls-1" d="M634.32,339.51a3.28,3.28,0,0,1-.71,0l-2-.05-7.38-.26c-6.23-.21-14.84-.41-24.36-.61s-18.13-.48-24.36-.83c-3.12-.17-5.64-.33-7.38-.48l-2-.18a2.21,2.21,0,0,1-.69-.12,3.14,3.14,0,0,1,.7,0l2,0,7.38.26c6.23.21,14.85.41,24.37.61s18.13.49,24.36.83c3.11.17,5.63.33,7.37.48l2,.19A2.5,2.5,0,0,1,634.32,339.51Z"/><path class="cls-2" d="M17.41,59.18S8,63,18.85,83,37.1,112.74,37.1,112.74s1.95,4.65-2,5.48-12.67-.33-14.31,4.55c-1.7,5.07,2.07,9.7,9.57,13.66S54,149.67,55.43,150.52s2.89,3,.3,4S33.62,158,35.38,167.23,59.84,184,62.31,184.9s3.07,1.9,2.91,3.25-6.81,1.58-12.33,2.53-11.76,3-10.3,8.25,15.06,15.9,47.49,18.24l15.09.09L113,204.31c15.17-28.75,13.29-45.95,9.64-49.95s-8.71.2-12.44,4.38-7.45,9.7-8.68,9.12-1.77-1.62-1.21-4.18,6.11-25.84-.76-32.2S80.23,140.34,78,142s-3.27-.71-3.22-2.36.7-20.26,1.3-28.71S74.76,96.84,69.57,95.6c-5-1.19-8.65,6.84-11.44,9.74s-5.7-1.22-5.7-1.22S48,92.64,36.81,72.88,17.22,59.27,17.22,59.27"/><path class="cls-1" d="M106,220.79c-8.17-14.54-22.26-40.64-34.47-63s-23.29-42.54-31.38-57.12L30.58,83.42c-1.13-2-2-3.6-2.61-4.69L27.3,77.5c-.15-.28-.21-.42-.21-.42s.09.13.25.4l.71,1.2,2.69,4.65c2.32,4,5.65,9.92,9.74,17.19,8.17,14.55,19.29,34.73,31.5,57.07s26.25,48.45,34.35,63"/><path class="cls-1" d="M33,124.89a5.15,5.15,0,0,1,1.06.27c.67.19,1.64.51,2.83.91,2.37.8,5.63,2,9.19,3.37L55.17,133l2.77,1.06a4.85,4.85,0,0,1,1,.43,4.78,4.78,0,0,1-1.06-.26c-.67-.19-1.64-.51-2.82-.92-2.37-.83-5.61-2.06-9.17-3.44l-9.14-3.5-2.78-1A4.8,4.8,0,0,1,33,124.89Z"/><path class="cls-1" d="M60,133.51c-.12,0,2-6.86,4.83-15.22s5.15-15.12,5.27-15.08-2,6.86-4.83,15.23S60.07,133.55,60,133.51Z"/><path class="cls-1" d="M77.15,168.66a5.79,5.79,0,0,1,.59-.95l1.73-2.49c1.45-2.1,3.44-5,5.52-8.32s3.88-6.34,5.15-8.55l1.52-2.62a4.83,4.83,0,0,1,.6-.94,5.06,5.06,0,0,1-.44,1c-.32.65-.78,1.57-1.39,2.7-1.2,2.26-3,5.34-5,8.64s-4.13,6.2-5.65,8.26c-.77,1-1.4,1.85-1.85,2.41A4.75,4.75,0,0,1,77.15,168.66Z"/><path class="cls-1" d="M51,166.23a4.84,4.84,0,0,1,1,0l2.79.15c2.36.15,5.62.38,9.22.67s6.85.57,9.2.81l2.79.29a3.67,3.67,0,0,1,1,.18,4.84,4.84,0,0,1-1,0l-2.8-.15c-2.36-.15-5.61-.38-9.21-.67s-6.85-.58-9.2-.81l-2.79-.3A4.47,4.47,0,0,1,51,166.23Z"/><path class="cls-1" d="M62.28,199.19a7.54,7.54,0,0,1,1.32,0l3.59.18c3,.17,7.2.44,11.81.76s8.79.65,11.81.9l3.57.33a8,8,0,0,1,1.31.18,7.44,7.44,0,0,1-1.32,0l-3.58-.18c-3-.17-7.21-.44-11.82-.76s-8.79-.65-11.8-.9l-3.58-.33A7,7,0,0,1,62.28,199.19Z"/><path class="cls-1" d="M94.91,201.26a8.06,8.06,0,0,1,.71-1.22c.54-.83,1.23-1.92,2.07-3.23,1.75-2.74,4.14-6.53,6.67-10.78s4.73-8.16,6.3-11l1.86-3.36a8.62,8.62,0,0,1,.72-1.21,8.05,8.05,0,0,1-.56,1.29c-.4.82-1,2-1.73,3.44-1.5,2.88-3.65,6.82-6.19,11.08s-5,8-6.79,10.72c-.91,1.34-1.66,2.42-2.2,3.15A8.73,8.73,0,0,1,94.91,201.26Z"/></g><g id="Device"><path class="cls-3" d="M545.37,76H120.46A13.26,13.26,0,0,0,107.2,89.25V389.37a13.26,13.26,0,0,0,13.26,13.27H283.54s10.37,32.08-21.79,48.67H414.24s-36.31-12.44-27-48.67h158.1a13.27,13.27,0,0,0,13.26-13.27V89.25A13.26,13.26,0,0,0,545.37,76Z"/><path class="cls-4" d="M338.59,370.32c5.78,8.26-3.27,17.31-11.53,11.53a2.82,2.82,0,0,1-.71-.71c-5.77-8.26,3.27-17.3,11.52-11.53A3,3,0,0,1,338.59,370.32Z"/><path class="cls-5" d="M124.21,80.73H541.62a9.7,9.7,0,0,1,9.7,9.7V347a0,0,0,0,1,0,0H114.51a0,0,0,0,1,0,0V90.43A9.7,9.7,0,0,1,124.21,80.73Z"/><path class="cls-2" d="M123.67,80.73H543.8a7.52,7.52,0,0,1,7.52,7.52v14.61a0,0,0,0,1,0,0H114.51a0,0,0,0,1,0,0v-13A9.15,9.15,0,0,1,123.67,80.73Z"/><circle class="cls-4" cx="128.42" cy="92.26" r="3.07"/><circle class="cls-4" cx="137.57" cy="92.26" r="3.07"/><path class="cls-4" d="M149.34,92.26a3.07,3.07,0,1,1-3.07-3.07A3.07,3.07,0,0,1,149.34,92.26Z"/><path class="cls-4" d="M469.4,401.93c0,.14-60.47.25-135,.25s-135-.11-135-.25,60.45-.26,135-.26S469.4,401.79,469.4,401.93Z"/></g><g id="_400_Error" data-name="400 Error"><path class="cls-1" d="M538.93,257.73q-5.45,34.22-23.71,49.7T470.45,318.7q-26.61-4.23-39.3-24.65t-7.24-54.61l6.38-40.11q5.43-34.08,23.71-49.69t44.91-11.38q26.49,4.22,39.16,24.75t7.24,54.62Zm-22.17-49.25q3.42-21.54-2.16-33t-19.43-13.7q-13.85-2.2-22.66,7t-12.24,30.74l-7.75,48.73q-3.45,21.66,2.19,33.23t19.48,13.77q13.85,2.2,22.6-7t12.21-31Z"/><path class="cls-6" d="M551.1,250.13q-5.45,34.2-23.71,49.69T482.63,311.1q-26.62-4.25-39.3-24.65t-7.24-54.62l6.38-40.11q5.41-34.08,23.71-49.69t44.9-11.38q26.51,4.22,39.16,24.75T557.48,210Zm-22.17-49.26q3.44-21.54-2.15-33t-19.43-13.7q-13.85-2.2-22.66,7t-12.24,30.75l-7.75,48.73q-3.45,21.66,2.18,33.22t19.48,13.77q13.84,2.2,22.6-7t12.22-31Z"/><g class="cls-7"><path d="M551.1,250.13q-5.45,34.2-23.71,49.69T482.63,311.1q-26.62-4.25-39.3-24.65t-7.24-54.62l6.38-40.11q5.41-34.08,23.71-49.69t44.9-11.38q26.51,4.22,39.16,24.75T557.48,210Zm-22.17-49.26q3.44-21.54-2.15-33t-19.43-13.7q-13.85-2.2-22.66,7t-12.24,30.75l-7.75,48.73q-3.45,21.66,2.18,33.22t19.48,13.77q13.84,2.2,22.6-7t12.22-31Z"/></g><path class="cls-6" d="M568,252.81q-5.44,34.2-23.71,49.69t-44.76,11.28q-26.62-4.23-39.3-24.65T453,234.51l6.38-40.1q5.42-34.08,23.71-49.7t44.9-11.38q26.5,4.21,39.16,24.75t7.24,54.62Zm-22.17-49.26q3.44-21.53-2.15-33t-19.43-13.7q-13.85-2.2-22.66,7t-12.24,30.75l-7.75,48.73q-3.45,21.66,2.18,33.22t19.48,13.78q13.85,2.19,22.6-7t12.22-31Z"/><path class="cls-6" d="M459.05,196.81c0,.12-4.15,1-9.31,2s-9.37,1.72-9.39,1.59,4.14-1,9.31-2S459,196.68,459.05,196.81Z"/><path class="cls-6" d="M457.35,212.79c0,.12-4.15,1-9.31,2s-9.37,1.72-9.39,1.6,4.14-1,9.3-2S457.32,212.67,457.35,212.79Z"/><path class="cls-6" d="M455.64,228.78c0,.12-4.14,1-9.3,2s-9.37,1.72-9.39,1.59,4.14-1,9.3-2S455.62,228.66,455.64,228.78Z"/><path class="cls-6" d="M453.94,244.76c0,.13-4.14,1-9.3,2s-9.37,1.72-9.4,1.6,4.15-1,9.31-2S453.92,244.64,453.94,244.76Z"/><path class="cls-6" d="M452.24,260.75a14.57,14.57,0,0,1-2.46.64c-1.53.34-3.66.78-6,1.24s-4.48.84-6,1.1a14.34,14.34,0,0,1-2.52.33,14.57,14.57,0,0,1,2.46-.64c1.54-.34,3.66-.78,6-1.24s4.48-.84,6-1.1A14.45,14.45,0,0,1,452.24,260.75Z"/><path class="cls-6" d="M454.32,276a11.84,11.84,0,0,1-2.15.58c-1.33.3-3.18.68-5.23,1.08s-3.91.74-5.26,1a10.81,10.81,0,0,1-2.21.26,11.86,11.86,0,0,1,2.14-.58c1.34-.3,3.19-.68,5.24-1.08s3.91-.74,5.26-1A10.69,10.69,0,0,1,454.32,276Z"/><path class="cls-6" d="M461.74,290.9a8.77,8.77,0,0,1-1.9.53c-1.19.27-2.84.62-4.67,1s-3.48.65-4.69.84a8.87,8.87,0,0,1-2,.22,8.77,8.77,0,0,1,1.9-.53c1.19-.28,2.84-.62,4.67-1s3.48-.65,4.68-.84A9,9,0,0,1,461.74,290.9Z"/><path class="cls-6" d="M476.34,302.32a8.32,8.32,0,0,1-1.9.53c-1.19.27-2.84.62-4.66,1s-3.49.65-4.69.84a9,9,0,0,1-2,.22,8.76,8.76,0,0,1,1.91-.53c1.19-.28,2.83-.62,4.66-1s3.48-.65,4.69-.84A8.87,8.87,0,0,1,476.34,302.32Z"/><path class="cls-6" d="M530.53,276.75c0,.12-5.38,1.63-12.08,3.38s-12.16,3.07-12.19,2.95,5.37-1.64,12.08-3.39S530.5,276.63,530.53,276.75Z"/><path class="cls-6" d="M536.11,263.75c0,.12-4.44,1.39-10,2.83s-10.06,2.52-10.09,2.4,4.43-1.39,10-2.83S536.08,263.63,536.11,263.75Z"/><path class="cls-6" d="M540.2,248.77c0,.13-4.44,1.39-10,2.84s-10.06,2.52-10.09,2.4,4.44-1.39,10-2.84S540.17,248.65,540.2,248.77Z"/><path class="cls-6" d="M544.29,233.8c0,.12-4.44,1.39-10,2.84s-10.06,2.52-10.09,2.4,4.44-1.39,10-2.84S544.25,233.68,544.29,233.8Z"/><path class="cls-6" d="M548.37,218.83c0,.12-4.43,1.39-10,2.83s-10.06,2.52-10.09,2.4,4.43-1.39,10-2.83S548.34,218.71,548.37,218.83Z"/><path class="cls-6" d="M547.63,204.76c0,.12-4.43,1.39-10,2.83s-10.06,2.52-10.09,2.4,4.43-1.39,10-2.83S547.6,204.64,547.63,204.76Z"/><path class="cls-6" d="M550.1,190.16c0,.12-4.43,1.39-10,2.83s-10.06,2.52-10.09,2.4,4.43-1.39,10-2.83S550.07,190,550.1,190.16Z"/><path class="cls-6" d="M550.91,176.15c0,.13-4.44,1.39-10,2.84s-10,2.52-10.09,2.4,4.44-1.39,10-2.84S550.88,176,550.91,176.15Z"/><path class="cls-6" d="M539.46,164.37a43.82,43.82,0,0,1-6,1.81,42.26,42.26,0,0,1-6.16,1.37,44,44,0,0,1,6-1.8A45,45,0,0,1,539.46,164.37Z"/><path class="cls-6" d="M533.47,157.33a43.59,43.59,0,0,1-6,1.8,44.9,44.9,0,0,1-6.16,1.38,44.38,44.38,0,0,1,6-1.81A43.91,43.91,0,0,1,533.47,157.33Z"/><path class="cls-6" d="M463,177.76c0,.12-4.15,1-9.31,2s-9.37,1.72-9.39,1.6,4.14-1,9.31-2S463,177.63,463,177.76Z"/><path class="cls-6" d="M471.24,158.85c0,.12-4.5,1.1-10.09,2.19S451,162.91,451,162.79s4.5-1.11,10.09-2.19S471.21,158.72,471.24,158.85Z"/><path class="cls-6" d="M487.25,141.46c0,.13-5.71,1.34-12.79,2.72s-12.85,2.4-12.88,2.28,5.7-1.34,12.79-2.72S487.22,141.34,487.25,141.46Z"/><path class="cls-1" d="M230.11,250.24l22.37-1.74,1.84,23.71L232,274,235,313.34l-29.42,2.29-3.06-39.39L140.89,281l.05-26,49.92-116.31,30.39-2.36Zm-77,6,47.54-3.69-5.59-71.85-.75-.19-2,5.42Z"/><path class="cls-6" d="M216.4,238.77,238.77,237l1.85,23.71-22.38,1.74,3.07,39.39-29.43,2.28-3.06-39.39-76,5.91-2.13-18,66.45-125.49,30.4-2.36Zm-77,6,47.54-3.7-5.59-71.85-.74-.19-2,5.42Z"/><g class="cls-7"><path d="M216.4,238.77,238.77,237l1.85,23.71-22.38,1.74,3.07,39.39-29.43,2.28-3.06-39.39-76,5.91-2.13-18,66.45-125.49,30.4-2.36Zm-77,6,47.54-3.7-5.59-71.85-.74-.19-2,5.42Z"/></g><path class="cls-6" d="M196.92,240.2l22.38-1.74,1.84,23.7-22.37,1.74,3.06,39.4-29.42,2.28-3.07-39.39-76,5.91-2.13-18,66.44-125.49,30.4-2.36Zm-77,6,47.54-3.7-5.58-71.85-.75-.19-2,5.42Z"/><path class="cls-6" d="M148.67,229.25a7.33,7.33,0,0,1-.95.54c-.62.32-1.51.78-2.63,1.33-2.24,1.09-5.34,2.56-8.79,4.14s-6.6,3-8.89,3.92c-1.14.48-2.07.86-2.72,1.11a6.92,6.92,0,0,1-1,.36,7.19,7.19,0,0,1,1-.48l2.68-1.22,8.84-4,8.82-4.05,2.68-1.23A7.11,7.11,0,0,1,148.67,229.25Z"/><path class="cls-6" d="M159.25,210.09a7.42,7.42,0,0,1-1,.52c-.63.31-1.54.75-2.68,1.28-2.26,1.06-5.41,2.48-8.91,4s-6.68,2.84-9,3.77c-1.16.46-2.1.82-2.76,1.06a6.7,6.7,0,0,1-1,.34,6.49,6.49,0,0,1,1-.47l2.72-1.17,9-3.85,8.94-3.9,2.71-1.18A6.92,6.92,0,0,1,159.25,210.09Z"/><path class="cls-6" d="M214.86,227a3.79,3.79,0,0,1-.69.46c-.45.28-1.12.67-1.94,1.15-1.65.94-3.95,2.22-6.52,3.56s-4.92,2.51-6.64,3.33c-.86.41-1.56.73-2,.94a3.34,3.34,0,0,1-.77.3,4.27,4.27,0,0,1,.71-.42l2-1,6.59-3.42,6.56-3.47,2-1A3.69,3.69,0,0,1,214.86,227Z"/><path class="cls-6" d="M238.73,240.29a3.61,3.61,0,0,1-.69.47c-.45.27-1.11.67-1.94,1.14-1.65.95-3.94,2.22-6.51,3.56s-4.93,2.51-6.65,3.33c-.86.41-1.56.73-2,.94a4.07,4.07,0,0,1-.77.31s.24-.18.71-.43l2-1,6.59-3.42,6.56-3.47,2-1A4.3,4.3,0,0,1,238.73,240.29Z"/><path class="cls-6" d="M239.76,252.22a3.37,3.37,0,0,1-.69.46c-.45.28-1.11.67-1.94,1.15-1.65.94-3.94,2.22-6.51,3.56s-4.93,2.51-6.65,3.33c-.86.41-1.56.73-2,.94a3,3,0,0,1-.77.3,3.36,3.36,0,0,1,.71-.42l2-1,6.59-3.42,6.56-3.47,2-1A3.51,3.51,0,0,1,239.76,252.22Z"/><path class="cls-6" d="M218.19,262.88a3.63,3.63,0,0,1-.66.46c-.44.28-1.08.67-1.88,1.14-1.6.94-3.82,2.2-6.31,3.54s-4.77,2.5-6.43,3.31c-.84.41-1.51.73-2,.94a4.28,4.28,0,0,1-.75.3,3.57,3.57,0,0,1,.68-.42l1.93-1,6.39-3.39,6.35-3.46,1.93-1A4.23,4.23,0,0,1,218.19,262.88Z"/><path class="cls-6" d="M219.14,275.76a3.53,3.53,0,0,1-.67.46c-.43.28-1.07.67-1.87,1.14-1.6.94-3.82,2.2-6.31,3.54s-4.77,2.5-6.43,3.31c-.84.41-1.51.73-2,.94a3.68,3.68,0,0,1-.75.3,4,4,0,0,1,.69-.42l1.93-1,6.39-3.39,6.35-3.46,1.93-1A3.85,3.85,0,0,1,219.14,275.76Z"/><path class="cls-6" d="M220.09,288.64a3.53,3.53,0,0,1-.67.46c-.44.28-1.08.67-1.87,1.14-1.6.94-3.82,2.2-6.31,3.54s-4.77,2.5-6.44,3.31c-.83.41-1.51.73-2,.94a4,4,0,0,1-.75.3,4,4,0,0,1,.69-.42l1.93-1,6.38-3.39,6.35-3.46,1.94-1A3.55,3.55,0,0,1,220.09,288.64Z"/><path class="cls-6" d="M213.88,213.34a3.79,3.79,0,0,1-.69.46c-.45.28-1.12.67-1.94,1.15-1.65.94-3.95,2.22-6.52,3.56s-4.93,2.51-6.64,3.33c-.86.41-1.56.73-2.05.94a2.83,2.83,0,0,1-.77.3,3.76,3.76,0,0,1,.71-.42l2-1,6.59-3.42,6.56-3.47,2-1A3.43,3.43,0,0,1,213.88,213.34Z"/><path class="cls-6" d="M212.89,199.73a3.28,3.28,0,0,1-.68.47l-1.94,1.14c-1.65.94-4,2.22-6.52,3.56s-4.93,2.51-6.64,3.33c-.86.41-1.56.73-2.05.94a3,3,0,0,1-.77.3,3.76,3.76,0,0,1,.71-.42l2-1,6.59-3.42,6.56-3.47,2-1A4.75,4.75,0,0,1,212.89,199.73Z"/><path class="cls-6" d="M211.4,183.86a4,4,0,0,1-.65.44c-.43.27-1.06.64-1.85,1.09-1.57.91-3.75,2.12-6.2,3.41s-4.7,2.38-6.34,3.16c-.82.38-1.48.69-2,.89a3.34,3.34,0,0,1-.73.29,2.89,2.89,0,0,1,.67-.41l1.9-1,6.28-3.25,6.25-3.31,1.9-1A2.71,2.71,0,0,1,211.4,183.86Z"/><path class="cls-6" d="M210.53,167.28a3.06,3.06,0,0,1-.65.45L208,168.82c-1.57.91-3.76,2.12-6.21,3.4s-4.69,2.39-6.33,3.17l-2,.89a3.28,3.28,0,0,1-.74.29,2.84,2.84,0,0,1,.68-.41l1.9-1,6.28-3.25,6.25-3.32,1.9-1A3.69,3.69,0,0,1,210.53,167.28Z"/><path class="cls-6" d="M209.42,150.3a3.51,3.51,0,0,1-.68.48c-.45.29-1.11.7-1.94,1.2-1.65,1-3.94,2.34-6.52,3.77s-4.95,2.66-6.67,3.53c-.87.43-1.57.78-2.06,1a3.73,3.73,0,0,1-.78.32,3.68,3.68,0,0,1,.71-.44l2-1.11,6.61-3.61,6.58-3.68,2-1.1A3.78,3.78,0,0,1,209.42,150.3Z"/><path class="cls-6" d="M208.78,134.14a3.37,3.37,0,0,1-.71.45c-.47.27-1.16.65-2,1.11-1.71.92-4.1,2.16-6.76,3.46s-5.12,2.43-6.9,3.22l-2.12.91a4,4,0,0,1-.8.29,3.38,3.38,0,0,1,.73-.41l2.07-1,6.84-3.31,6.81-3.36,2.07-1A4,4,0,0,1,208.78,134.14Z"/><path class="cls-6" d="M164.1,192.47c.06.11-4.41,2.44-10,5.2S144,202.57,144,202.46s4.41-2.44,10-5.2S164.05,192.36,164.1,192.47Z"/><path class="cls-6" d="M162.38,178.62a12.71,12.71,0,0,1-3.34,2.13,12.46,12.46,0,0,1-3.7,1.4,26.36,26.36,0,0,1,3.5-1.8A28.88,28.88,0,0,1,162.38,178.62Z"/><path class="cls-1" d="M257.86,226c6.65,14.67,13.82,24.27,29.48,37.4,19,15.91,46.31,21.09,69.94,13.69S402.87,249.8,409.57,226"/><circle class="cls-6" cx="333.68" cy="183.32" r="87.03"/><path class="cls-8" d="M306.72,100.84c-2.84,2.28,1.26,6.94,4,9.28s6.11,5.13,5.74,8.75c-8.9,1.54-18.12,3.2-25.51,8.37-10.95,7.66-15.64,21.24-21.42,33.29-3.53,7.34-7.67,14.4-10.86,21.9s-5.44,15.58-4.9,23.72,4.18,16.32,10.85,21,16.51,5,22.71-.24c.21,2.29.41,4.58.62,6.87L286,256.11l50.56,3.65L342.29,108V96.71S312.49,96.22,306.72,100.84Z"/><path class="cls-3" d="M409.9,183.61c-3.6-2-7.8-2.47-11.94-2.38a45.51,45.51,0,0,0-12.17,2.22,38.33,38.33,0,0,0-9.61,4.15l.42,1.17a46.89,46.89,0,0,0,33.18-3.65c.29-.15,1.14-.51,1.07-.83S410.08,183.71,409.9,183.61Z"/><path class="cls-3" d="M265,186.24c-.84,1.39-.39,3.3.33,4.75a11.68,11.68,0,0,0,3.17,3.62c3.82,3.16,8.42,5.63,13.37,5.88s10.21-2.14,12.38-6.59c.53-1.09,1.51-2.76,1.51-2.76a24,24,0,0,0-3.8-1.88c-4.44-1.72-8.63-3.68-13.32-4.52a23.78,23.78,0,0,0-13.64,1.5"/><path class="cls-4" d="M393,133c-2.74-3-36.17-15.9-36.17-15.9l-31.73,2.23s-15.47,4-27.08,8.23a26.42,26.42,0,0,0-15.56,15L265,186.24s2.58-1.46,10-1.35c7.65.11,20.72,6.25,20.72,6.25l-8.32,65.73c25.57,17.23,56.33,18.78,86.13,3.84l.17-9.37,3.2-62.84c3.32-4.51,21.37-10.38,33.94-4.21C410.85,184.29,398.7,139.24,393,133Z"/><path class="cls-3" d="M374,148.37a2.76,2.76,0,0,1,.13-.78,15.09,15.09,0,0,1,.65-2.07,20.69,20.69,0,0,1,3.72-6.07,20.34,20.34,0,0,1,5.58-4.43,13.64,13.64,0,0,1,2-.9,2.83,2.83,0,0,1,.76-.23c0,.08-1,.49-2.58,1.4a22.5,22.5,0,0,0-9.15,10.36C374.37,147.3,374.09,148.39,374,148.37Z"/><path class="cls-3" d="M374.1,187.79c-.13,0-.26-8.15-.3-18.21s0-18.21.16-18.21.26,8.15.29,18.21S374.22,187.79,374.1,187.79Z"/><path class="cls-3" d="M299.8,152.45c.12,0-.7,8.55-1.84,19.08s-2.16,19.05-2.29,19,.7-8.55,1.84-19.08S299.67,152.43,299.8,152.45Z"/><path class="cls-3" d="M361.16,118.86a5,5,0,0,1,0,.63,16.28,16.28,0,0,1-.07,1.81,20.62,20.62,0,0,1-7.91,14.18,20.56,20.56,0,0,1-23,1.11,21,21,0,0,1-6.87-7.1,20.35,20.35,0,0,1-2.37-6.24,15.81,15.81,0,0,1-.25-1.8,5.07,5.07,0,0,1,0-.64c.06,0,.11.87.45,2.4a21,21,0,0,0,9.28,13A20.34,20.34,0,0,0,353,135.15a20.85,20.85,0,0,0,8-13.87C361.14,119.73,361.1,118.85,361.16,118.86Z"/><path class="cls-9" d="M296.2,176.51a5.47,5.47,0,0,1-.94-.34c-.6-.24-1.46-.58-2.54-1a73.86,73.86,0,0,0-8.54-2.68,76.1,76.1,0,0,0-8.81-1.62l-2.7-.31a3.92,3.92,0,0,1-1-.15,4.11,4.11,0,0,1,1,0c.65,0,1.58.06,2.73.16a59.19,59.19,0,0,1,8.88,1.5,60.15,60.15,0,0,1,8.55,2.82c1.06.45,1.91.84,2.49,1.13A4.12,4.12,0,0,1,296.2,176.51Z"/><path class="cls-9" d="M373.57,173c0,.12-17-.31-37.89-1s-37.89-1.29-37.89-1.42,17,.31,37.9,1S373.58,172.88,373.57,173Z"/><path class="cls-9" d="M403.61,161.33a6.8,6.8,0,0,1-1.19,0c-.76,0-1.86-.07-3.23-.06a51,51,0,0,0-20.62,4.48c-1.24.56-2.23,1-2.91,1.4a7.43,7.43,0,0,1-1.08.5,6.15,6.15,0,0,1,1-.66c.65-.4,1.62-.93,2.86-1.53a45.95,45.95,0,0,1,20.76-4.51c1.37,0,2.47.11,3.23.2A5.18,5.18,0,0,1,403.61,161.33Z"/><path class="cls-9" d="M299.62,149.06c-.05.06-.89-.6-2.34-1.5a29.16,29.16,0,0,0-6-2.83,28.77,28.77,0,0,0-6.53-1.34c-1.7-.15-2.77-.13-2.77-.2a2.31,2.31,0,0,1,.74-.11,16.83,16.83,0,0,1,2.05,0,24.71,24.71,0,0,1,6.65,1.23,25,25,0,0,1,6.07,3,17.91,17.91,0,0,1,1.63,1.24C299.45,148.85,299.64,149,299.62,149.06Z"/><path class="cls-9" d="M368.3,147.58a4,4,0,0,1-.65,0l-1.85-.12L359,147c-5.75-.41-13.69-.9-22.47-1.25s-16.74-.47-22.5-.52l-6.82-.05-1.85,0a3,3,0,0,1-.65,0,4.66,4.66,0,0,1,.65,0l1.85-.06c1.61-.05,3.94-.08,6.82-.1,5.77,0,13.73,0,22.52.39s16.73.89,22.47,1.38c2.87.25,5.2.46,6.8.64l1.84.2A3.39,3.39,0,0,1,368.3,147.58Z"/><path class="cls-9" d="M320,126.8a62.16,62.16,0,0,1-7.51-.27,60.51,60.51,0,0,1-7.49-.72,64.92,64.92,0,0,1,7.52.27A65.51,65.51,0,0,1,320,126.8Z"/><path class="cls-9" d="M379.69,125.89c0,.13-4.35.23-9.72.23s-9.72-.1-9.72-.23,4.35-.22,9.72-.22S379.69,125.77,379.69,125.89Z"/><path class="cls-9" d="M374.69,205l-.21,0h-.6l-2.33,0c-2,0-4.94,0-8.55-.07-7.22-.12-17.19-.46-28.19-1.15s-20.93-1.64-28.11-2.44c-3.59-.4-6.49-.74-8.49-1l-2.31-.32-.59-.09c-.14,0-.21,0-.2,0h.2l.61,0,2.31.23,8.5.87c7.18.72,17.12,1.6,28.11,2.31s21,1.08,28.17,1.28l8.54.22,2.33.06.6,0Z"/><path class="cls-9" d="M375.28,233a.66.66,0,0,1-.22.06l-.62.14-2.43.48c-1.05.22-2.34.46-3.85.69s-3.22.54-5.13.76-4,.51-6.25.71-4.65.39-7.19.56c-5.07.26-10.67.36-16.53.17s-11.43-.73-16.48-1.36c-2.51-.35-4.91-.66-7.13-1.07s-4.3-.77-6.18-1.15-3.57-.79-5.06-1.13-2.76-.67-3.79-1L292,230.2l-.62-.19-.2-.07.22,0,.62.14,2.41.57c1,.26,2.31.57,3.81.88s3.18.73,5.06,1.06,3.95.77,6.18,1.11,4.61.68,7.13,1c5,.6,10.59,1.09,16.44,1.32s11.42.1,16.49-.14c2.53-.16,4.93-.28,7.18-.51s4.33-.43,6.24-.66,3.62-.48,5.13-.69,2.8-.42,3.86-.61l2.44-.4.64-.09A.72.72,0,0,1,375.28,233Z"/><path class="cls-9" d="M373.61,256.8l-.21.08-.63.19-2.44.71c-.54.14-1.12.33-1.77.49l-2.14.47-2.45.54c-.87.18-1.8.31-2.77.48s-2,.35-3.06.5l-3.33.4-1.76.21-1.82.14-3.81.28a163.73,163.73,0,0,1-17-.1c-6-.4-11.71-1.13-16.86-2l-3.74-.73-1.8-.35-1.72-.41-3.27-.77-3-.82A94.14,94.14,0,0,1,288,251.93l.22.06.63.21,2.39.85,1.73.62,2.08.65,2.39.75c.84.25,1.76.48,2.7.74l3,.8,3.26.74,1.72.39,1.79.35,3.74.7c5.14.84,10.82,1.56,16.81,1.95a169.15,169.15,0,0,0,16.92.13l3.8-.26,1.81-.13,1.76-.19,3.32-.37c1.07-.15,2.08-.32,3.06-.47s1.9-.28,2.77-.45l2.45-.5,2.14-.44c.65-.15,1.24-.32,1.77-.45l2.46-.62.64-.15C373.53,256.8,373.61,256.79,373.61,256.8Z"/><path class="cls-10" d="M291.46,223.37a86.13,86.13,0,0,0,39-18.76c2-1.67,4.1-3.53,6.68-3.62,2.92-.09,5.34,2.08,7.55,4a66.67,66.67,0,0,0,30.8,14.79c1.64-2.55.93-6.08-.89-8.52s-4.51-4-7.14-5.56l-24.54-14.29c-1.86-1.09-3.92-2.21-6.05-1.87a9.51,9.51,0,0,0-3.8,1.89l-38.35,27c-1.69,1.18-3.58,3.24-2.48,5"/><path class="cls-11" d="M267.39,185.75s-5.74,17.1-6.56,20.06c-1.58,5.72-.1,20.66,13.84,20.66,16.9,0,78.56-39.8,78.56-39.8l-12.6-7.59-50,16.32,1.92-5.65S278.69,182.59,267.39,185.75Z"/><path class="cls-11" d="M340.9,179.67s16.49-21.45,16.49-21.73,9.78-8.66,9.78-8.66,2.16.1,2,1.51-3.66,6.4-3.66,6.4a13.79,13.79,0,0,1-1.7,3.12c-1,1.44-5.83,9.95-5.83,9.95s4.61-4.42,5.46-3.95a1.78,1.78,0,0,1,1,2.45c-.47,1.41-4.8,5.73-4.8,5.73s-2.53,8.94-5.36,11.48l-7,4.7Z"/><path class="cls-12" d="M356.24,174a3.58,3.58,0,0,1-.72,2.66A25.31,25.31,0,0,1,353.7,179a9.84,9.84,0,0,0-1.67,3.15c-.42,1.21-.72,2.41-1.15,3.47a8.66,8.66,0,0,1-1.58,2.59,4.81,4.81,0,0,1-1.66,1.19,1.79,1.79,0,0,1-.74.17,6,6,0,0,0,2.16-1.57,8.62,8.62,0,0,0,1.43-2.53c.4-1,.69-2.23,1.11-3.47a9.73,9.73,0,0,1,1.77-3.26,29.23,29.23,0,0,0,1.89-2.29A5.68,5.68,0,0,0,356.24,174Z"/><path class="cls-12" d="M365.49,157.72s-.16-.2-.52-.44a2.51,2.51,0,0,0-1.74-.34,3.81,3.81,0,0,0-2.28,1.31c-.71.75-1.38,1.72-2.14,2.68-1.49,1.94-2.86,3.69-3.87,4.93a14.26,14.26,0,0,1-1.71,2,15.53,15.53,0,0,1,1.46-2.15c.94-1.3,2.27-3.07,3.77-5a31.25,31.25,0,0,1,2.19-2.7,4.11,4.11,0,0,1,2.55-1.34,2.57,2.57,0,0,1,1.87.52C365.43,157.45,365.51,157.71,365.49,157.72Z"/><path class="cls-12" d="M356.37,179c-.12-.05.52-2,1-4.38s.6-4.43.74-4.42a13.07,13.07,0,0,1-.3,4.51A12.63,12.63,0,0,1,356.37,179Z"/><path class="cls-11" d="M404.32,182.17s6.05,17.34,6.88,20.29c1.27,4.56.1,20.66-13.84,20.66-16.9,0-78.57-39.79-78.57-39.79l11.65-7.9,50.95,16.62-2-5.81A40.21,40.21,0,0,1,404.32,182.17Z"/><path class="cls-11" d="M331.13,176.32s-16.49-21.44-16.49-21.73-9.78-8.65-9.78-8.65-2.17.09-2,1.51,3.67,6.39,3.67,6.39a13.84,13.84,0,0,0,1.69,3.13c1,1.43,5.83,9.95,5.83,9.95s-4.6-4.42-5.45-3.95a1.77,1.77,0,0,0-1,2.44c.47,1.41,4.8,5.74,4.8,5.74s2.54,8.93,5.36,11.47l7.06,4.71Z"/><path class="cls-12" d="M315.78,170.65a6,6,0,0,0,1,2.48c.46.69,1.16,1.41,1.88,2.29a9.58,9.58,0,0,1,1.77,3.25c.43,1.24.72,2.44,1.12,3.47a8.84,8.84,0,0,0,1.42,2.53,5.83,5.83,0,0,0,2.16,1.57s-.27,0-.73-.16a4.56,4.56,0,0,1-1.66-1.2,8.29,8.29,0,0,1-1.58-2.58c-.43-1.06-.74-2.27-1.15-3.48a9.68,9.68,0,0,0-1.67-3.14,25.58,25.58,0,0,1-1.83-2.38A3.62,3.62,0,0,1,315.78,170.65Z"/><path class="cls-12" d="M306.53,154.37s.06-.27.42-.58a2.64,2.64,0,0,1,1.88-.52,4.15,4.15,0,0,1,2.55,1.35c.76.78,1.43,1.73,2.19,2.69,1.49,1.95,2.82,3.72,3.77,5a14.88,14.88,0,0,1,1.45,2.16,15.66,15.66,0,0,1-1.7-2c-1-1.25-2.39-3-3.88-4.93-.76-1-1.42-1.93-2.13-2.68a3.91,3.91,0,0,0-2.28-1.32,2.55,2.55,0,0,0-1.74.35C306.7,154.17,306.57,154.4,306.53,154.37Z"/><path class="cls-12" d="M315.66,175.68a13,13,0,0,1-1.43-4.3,13.21,13.21,0,0,1-.29-4.51c.13,0,.26,2,.73,4.43S315.78,175.63,315.66,175.68Z"/><path class="cls-12" d="M345.52,199.65c-.06.1-6.33-3.62-14-8.32s-13.84-8.6-13.77-8.71,6.34,3.62,14,8.32S345.59,199.54,345.52,199.65Z"/><path class="cls-12" d="M382.43,192.55a2.9,2.9,0,0,1-.54-.13l-1.54-.45-5.6-1.73c-4.72-1.48-11.24-3.57-18.42-5.92s-13.68-4.52-18.36-6.14c-2.34-.8-4.23-1.48-5.53-2l-1.49-.57a2.73,2.73,0,0,1-.51-.22,2.06,2.06,0,0,1,.54.14l1.52.49,5.57,1.82,18.4,6,18.38,6.05,5.56,1.87,1.5.53A2.75,2.75,0,0,1,382.43,192.55Z"/><path class="cls-11" d="M335.16,43.58h0a24,24,0,0,0-24,23.2c-.38,11.57-.66,24.33-.29,30.5.77,12.81,13.68,14.19,13.68,14.19v7.84a16.55,16.55,0,0,0,16.55,16.57h0a16.55,16.55,0,0,0,16.54-16.23l1-51.41A23.75,23.75,0,0,0,335.16,43.58Z"/><path class="cls-12" d="M324.53,111.51A29.92,29.92,0,0,0,341,106s-3.64,9.55-16.49,9Z"/><path class="cls-3" d="M315.07,74.18c.23.24,1.61-.8,3.58-.8s3.43,1,3.64.72-.13-.54-.76-1a5.11,5.11,0,0,0-2.92-.88,5,5,0,0,0-2.85.94C315.16,73.64,315,74.08,315.07,74.18Z"/><path class="cls-3" d="M334.58,73.81c.24.24,1.6-.83,3.57-.87s3.44.9,3.65.65-.14-.53-.78-1a5,5,0,0,0-2.93-.82,4.75,4.75,0,0,0-2.83,1C334.66,73.27,334.47,73.71,334.58,73.81Z"/><path class="cls-3" d="M327.15,87.47a12.54,12.54,0,0,0-3.23-.43c-.5,0-1-.11-1.08-.45a2.56,2.56,0,0,1,.26-1.5c.42-1.24.85-2.54,1.31-3.9,1.81-5.55,3.09-10.1,2.86-10.17s-1.87,4.37-3.67,9.91c-.44,1.37-.85,2.68-1.25,3.92a2.9,2.9,0,0,0-.16,2,1.27,1.27,0,0,0,.86.7,3.38,3.38,0,0,0,.86.07A12.83,12.83,0,0,0,327.15,87.47Z"/><path class="cls-3" d="M333.32,69.27c.31.48,2.17-.2,4.49-.44s4.28,0,4.47-.57c.09-.25-.34-.67-1.19-1a7.78,7.78,0,0,0-6.83.77C333.51,68.54,333.18,69,333.32,69.27Z"/><path class="cls-3" d="M314.42,69.2c.25.53,1.79.45,3.51.87s3.08,1.11,3.53.74c.2-.18.08-.68-.44-1.25a5.36,5.36,0,0,0-2.66-1.45,5.23,5.23,0,0,0-3,.16C314.63,68.55,314.32,69,314.42,69.2Z"/><path class="cls-3" d="M334.74,91.69c-.08.11-.54-.15-1.31-.36a5.28,5.28,0,0,0-5.51,1.61c-.53.59-.78,1.06-.91,1s-.07-.6.4-1.38a4.85,4.85,0,0,1,6.25-1.83C334.47,91.15,334.81,91.61,334.74,91.69Z"/><path class="cls-3" d="M316.87,75.94a1.81,1.81,0,0,0,1.83,1.74A1.73,1.73,0,0,0,320.48,76a1.8,1.8,0,0,0-1.82-1.74A1.73,1.73,0,0,0,316.87,75.94Z"/><path class="cls-3" d="M336.38,75.38a1.8,1.8,0,0,0,1.83,1.74A1.73,1.73,0,0,0,340,75.41a1.81,1.81,0,0,0-1.82-1.75A1.74,1.74,0,0,0,336.38,75.38Z"/><path class="cls-3" d="M366.89,67.65a3.17,3.17,0,0,0,.81-2.55c-.27-1-1.39-1.64-1.78-2.64s0-2.1,0-3.17a5.78,5.78,0,0,0-2.07-3.79l-.36-.31a29.12,29.12,0,0,0-3.39-5.69l3.31,3.08c1.16-3.24-3.55-8.95-7.45-10.63a12,12,0,0,0-8.32,0s-9.81-7.38-19.4-5c-5.89,1.47-11.8,4-15.77,9.88A6.7,6.7,0,0,0,309.09,51c-.73,2.19-.88,4.59-2,6.64-.78,1.47-2.09,3-1.68,4.58.33,1.33,1.74,2.16,2.19,3.46s-.15,2.72-.14,4.11a4.71,4.71,0,0,0,3.79,4.42c.59-3.48,1-7,1.26-10.51,1.68,1.1,5.24,2.17,12.14-.16l8.89-5s-4.39,3.8-2.24,4.45c1.81.54,11.35-4.64,14.2-6.22a4.64,4.64,0,0,1,2.79-.62c1.3.13,2.81.85,3.13,3.39.27,2.18-1,22.55.88,22.57,1.06,0,5.14-1.78,5.83-2.24v9.88a2.47,2.47,0,0,0,.88-.88l4.25-6.07a23.8,23.8,0,0,0,2.6-4.36,7.75,7.75,0,0,0,.47-5c-.32-1.14-1-2.25-.81-3.42A6,6,0,0,1,366.89,67.65Z"/><path class="cls-3" d="M342.89,35.83c.14-.27.79-.28,1.69.13a7.53,7.53,0,0,1,4.12,6.11c0,1-.21,1.6-.51,1.62-.64,0-1.24-2-2.62-3.95S342.62,36.41,342.89,35.83Z"/><path class="cls-4" d="M310.7,50.19a4.08,4.08,0,0,0,1,1.26A4.62,4.62,0,0,0,316,52a11.3,11.3,0,0,0,2.77-1.37c1-.61,1.94-1.33,3.09-1.92a6.85,6.85,0,0,1,4-.88,12.87,12.87,0,0,1,4.1,1.44,11.76,11.76,0,0,0,4,1.34,5.78,5.78,0,0,0,3.65-1c2.1-1.36,3.53-3.24,5.11-4.38a7.61,7.61,0,0,1,4.22-1.76,3.84,3.84,0,0,1,1.24.15,2.11,2.11,0,0,1,.41.16,6.56,6.56,0,0,0-1.65-.14,7.71,7.71,0,0,0-4,1.84c-1.52,1.14-2.91,3-5.09,4.48a6.19,6.19,0,0,1-3.9,1.1,11.67,11.67,0,0,1-4.12-1.38,12.63,12.63,0,0,0-4-1.4,6.42,6.42,0,0,0-3.72.81c-1.12.56-2.11,1.27-3.08,1.86a11.58,11.58,0,0,1-2.88,1.37,4.8,4.8,0,0,1-4.43-.76,3,3,0,0,1-.78-1A1.22,1.22,0,0,1,310.7,50.19Z"/><path class="cls-4" d="M365.53,59.71s0,.08-.1.23a2.63,2.63,0,0,1-.46.55,3.74,3.74,0,0,1-2.45.91A5.67,5.67,0,0,1,358.9,60a23.19,23.19,0,0,1-3.27-3.41,35.87,35.87,0,0,1-4.57-7.22c-.48-1-.8-1.81-1-2.38a4,4,0,0,1-.27-.91c.06,0,.57,1.22,1.57,3.15A42.24,42.24,0,0,0,356,56.33a23.56,23.56,0,0,0,3.18,3.37,5.48,5.48,0,0,0,3.36,1.38,3.8,3.8,0,0,0,2.34-.72C365.33,60,365.49,59.68,365.53,59.71Z"/><path class="cls-4" d="M365.65,71.41a1.78,1.78,0,0,1-.6.26,6.19,6.19,0,0,1-1.79.28,10.07,10.07,0,0,1-5.65-1.76,19.79,19.79,0,0,1-4.29-4.09,10.94,10.94,0,0,1-1.43-2,15.56,15.56,0,0,1,1.67,1.78,23.63,23.63,0,0,0,4.3,3.91,10.55,10.55,0,0,0,5.4,1.82A18.13,18.13,0,0,0,365.65,71.41Z"/><path class="cls-11" d="M354.6,74.45c.21-.1,8.68-3,8.81,5.76s-8.7,7.1-8.72,6.85S354.6,74.45,354.6,74.45Z"/><path class="cls-12" d="M357.32,83.69s.15.1.41.22a1.59,1.59,0,0,0,1.15,0c.92-.36,1.68-1.84,1.7-3.42a5,5,0,0,0-.47-2.19A1.75,1.75,0,0,0,359,77.16a.78.78,0,0,0-.9.43c-.11.25-.05.42-.1.44s-.19-.15-.13-.51a1.1,1.1,0,0,1,.34-.56,1.18,1.18,0,0,1,.84-.23,2.14,2.14,0,0,1,1.62,1.33,5.2,5.2,0,0,1,.57,2.44c0,1.77-.91,3.44-2.17,3.82a1.6,1.6,0,0,1-1.41-.21C357.34,83.9,357.29,83.71,357.32,83.69Z"/></g><g id="Speech_Bubble" data-name="Speech Bubble"><path class="cls-9" d="M294.14,87.34,284.4,70.17a46,46,0,1,0-11,12.26v0Z"/><path class="cls-3" d="M294.14,87.34l-20.8-4.77a.13.13,0,0,1-.1-.15l0,0v0l.18.18A47.1,47.1,0,0,1,264,88.22a46.06,46.06,0,0,1-12.6,3.59,41.28,41.28,0,0,1-7.27.37c-1.25-.07-2.52-.1-3.8-.21l-3.88-.59A46.35,46.35,0,0,1,207.77,73,45.76,45.76,0,0,1,200,55.22a46.58,46.58,0,0,1,.54-20.42,45.35,45.35,0,0,1,9.84-18.89l1.87-2.06c.62-.69,1.36-1.26,2-1.9s1.33-1.28,2.09-1.82l2.2-1.64A18,18,0,0,1,220.86,7l2.33-1.42,2.44-1.18a20.76,20.76,0,0,1,2.46-1.1A47,47,0,0,1,248.67.12,45.32,45.32,0,0,1,267.56,5.7a46.6,46.6,0,0,1,21.8,26.82,50,50,0,0,1,2,14.94,45.88,45.88,0,0,1-2.25,12.89,46.41,46.41,0,0,1-4.6,9.89v-.13l9.63,17.23c-.43-.76-3.54-6.15-9.84-17.11a.11.11,0,0,1,0-.12,47.23,47.23,0,0,0,4.52-9.85A45.48,45.48,0,0,0,291,47.45a49.51,49.51,0,0,0-2-14.81A46.22,46.22,0,0,0,267.34,6.11a45,45,0,0,0-18.7-5.5,46.43,46.43,0,0,0-20.36,3.14,20.41,20.41,0,0,0-2.44,1.09L223.43,6l-2.3,1.4a19.59,19.59,0,0,0-2.26,1.49l-2.17,1.63a27.08,27.08,0,0,0-2.06,1.8c-.66.63-1.39,1.19-2,1.88l-1.85,2a44.81,44.81,0,0,0-9.74,18.67,46.39,46.39,0,0,0-.55,20.21,45.32,45.32,0,0,0,7.66,17.56A46,46,0,0,0,236.54,91l3.85.59c1.27.11,2.53.14,3.77.22a41.78,41.78,0,0,0,7.22-.34,45.85,45.85,0,0,0,12.51-3.52,47.38,47.38,0,0,0,9.42-5.61.12.12,0,0,1,.18,0,.15.15,0,0,1,0,.16l0,0-.07-.21Z"/><rect class="cls-13" x="240.7" y="28.71" width="7.9" height="35.42" transform="translate(107.13 -161.17) rotate(45.73)"/><rect class="cls-13" x="240.7" y="28.71" width="7.9" height="35.42" transform="translate(37.05 183.95) rotate(-44.27)"/></g><g id="Floor"><path class="cls-3" d="M674.3,451.7c0,.14-151,.26-337.14.26S0,451.84,0,451.7s150.93-.26,337.16-.26S674.3,451.56,674.3,451.7Z"/></g><g id="Plants"><path class="cls-13" d="M47.77,392.32v-11.2c-14,0-11.65-8.65-11.65-37.41,0-19.76.62-30.24-7.28-30.24-7.29,0-9,5.12-9,27.6C19.8,382.69,25.36,392.32,47.77,392.32Z"/><path class="cls-13" d="M62.35,427V415.8c14,0,11.65-8.64,11.65-37.41,0-19.75-.62-30.24,7.28-30.24,7.29,0,9,5.12,9,27.6C90.32,417.38,84.76,427,62.35,427Z"/><g class="cls-14"><polygon points="67.25 415.28 69.43 426.59 65.62 426.93 65.06 415.67 67.25 415.28"/></g><path class="cls-6" d="M55.44,278c-11.07,0-10.25,14.49-10.25,32.22V451.27h20.5V310.2C65.69,292.47,66.51,278,55.44,278Z"/><path class="cls-13" d="M55.44,278c-11.07,0-10.25,14.49-10.25,32.22V451.27h20.5V310.2C65.69,292.47,66.51,278,55.44,278Z"/><path class="cls-3" d="M49.48,451.71s0-.15,0-.45,0-.76,0-1.32c0-1.19,0-2.9,0-5.09,0-4.44.06-10.83.11-18.71.15-15.82.36-37.64.58-61.73s.55-45.93.74-61.75c0-4,.1-7.52.33-10.66a51.78,51.78,0,0,1,1.14-8,32.88,32.88,0,0,1,1.51-4.86c.21-.55.41-1,.53-1.22l.2-.4a4,4,0,0,1-.15.42c-.1.28-.29.69-.48,1.23a35.33,35.33,0,0,0-1.41,4.87,52.81,52.81,0,0,0-1.05,8c-.21,3.13-.23,6.7-.25,10.65-.15,15.82-.36,37.64-.59,61.74s-.54,45.91-.73,61.73c-.12,7.88-.21,14.27-.28,18.71,0,2.19-.08,3.9-.1,5.09,0,.56,0,1,0,1.32S49.48,451.71,49.48,451.71Z"/><path class="cls-3" d="M58.74,451.51a3.82,3.82,0,0,1,0-.45c0-.32,0-.76,0-1.32v-5.06c0-4.43,0-10.79.08-18.64.12-15.75.29-37.47.48-61.47s.46-45.72.62-61.48c0-3.93.09-7.49-.05-10.6a69.12,69.12,0,0,0-.74-8,50.47,50.47,0,0,0-1-4.95c-.15-.53-.27-.95-.35-1.26s-.11-.44-.11-.44a34.26,34.26,0,0,1,1.69,6.62,63.26,63.26,0,0,1,.83,8c.16,3.13.16,6.69.13,10.62-.12,15.76-.29,37.48-.47,61.49s-.47,45.71-.63,61.47c-.1,7.84-.19,14.2-.25,18.63,0,2.18-.07,3.88-.09,5.06,0,.56,0,1,0,1.32S58.74,451.51,58.74,451.51Z"/><path class="cls-3" d="M65.91,426.82a30.89,30.89,0,0,1-.46-5.71,32.19,32.19,0,0,1,.06-5.73,31,31,0,0,1,.46,5.71A32.14,32.14,0,0,1,65.91,426.82Z"/><path class="cls-3" d="M81.83,348.28a5.13,5.13,0,0,1,0,.81l.06,2.32c0,2.06.06,5,.1,8.52,0,7.24.1,17.16.16,28.11,0,5.49,0,10.77-1,15.47A25.4,25.4,0,0,1,76,415a17.34,17.34,0,0,1-6.77,5.14,11.33,11.33,0,0,1-3,.83,29.89,29.89,0,0,0,2.94-1,17.65,17.65,0,0,0,6.57-5.19,25.17,25.17,0,0,0,5-11.34c.94-4.65,1-9.89.94-15.38V359.93c0-3.56,0-6.46,0-8.52,0-1,0-1.74,0-2.32A3.93,3.93,0,0,1,81.83,348.28Z"/><path class="cls-3" d="M45.18,380.69a40.58,40.58,0,0,1,.26,6.44,40.5,40.5,0,0,1-.26,6.43,79.76,79.76,0,0,1,0-12.87Z"/><path class="cls-3" d="M28.3,313.48a4,4,0,0,1,0,.82l0,2.36c-.06,2.1-.15,5-.25,8.66-.22,7.31-.64,17.42-.49,28.57.13,5.58.08,10.93,1.24,15.61a26.28,26.28,0,0,0,5.4,11.41,16.1,16.1,0,0,0,7,4.81,22.54,22.54,0,0,0,3.08.67,9.52,9.52,0,0,1-3.14-.48,15.93,15.93,0,0,1-7.21-4.76,26.36,26.36,0,0,1-5.59-11.54c-1.2-4.75-1.16-10.14-1.29-15.71-.15-11.18.33-21.28.64-28.59.17-3.62.31-6.56.41-8.66l.14-2.35A5.29,5.29,0,0,1,28.3,313.48Z"/><g class="cls-14"><path d="M42.4,392.09l.42-11.51,2.38.41,0,11.28S42.82,392.13,42.4,392.09Z"/></g><path class="cls-3" d="M22,351.55a6.39,6.39,0,0,1-2.44.63,6.33,6.33,0,0,1-2.51.11,6.31,6.31,0,0,1,2.43-.63A6.38,6.38,0,0,1,22,351.55Z"/><path class="cls-3" d="M21.78,340.4a6,6,0,0,1-2.53-.24,6.11,6.11,0,0,1-2.42-.75,6.46,6.46,0,0,1,2.53.24A6.51,6.51,0,0,1,21.78,340.4Z"/><path class="cls-3" d="M17.32,322.57a5.22,5.22,0,0,1,2.5,1.08c1.27.84,2.06,1.8,2,1.9a13.59,13.59,0,0,1-2.24-1.46A13,13,0,0,1,17.32,322.57Z"/><path class="cls-3" d="M24.5,311.18a7.06,7.06,0,0,1,1.24,2.38,7.33,7.33,0,0,1,.75,2.58,7.06,7.06,0,0,1-1.24-2.38A7.33,7.33,0,0,1,24.5,311.18Z"/><path class="cls-3" d="M34.69,311.94a11,11,0,0,1-1.38,3.1,11.36,11.36,0,0,1-1.84,2.85,11,11,0,0,1,1.38-3.1A11.13,11.13,0,0,1,34.69,311.94Z"/><path class="cls-3" d="M38.13,325.3a5.39,5.39,0,0,1-2.16.87,5.41,5.41,0,0,1-2.3.37,5.31,5.31,0,0,1,2.16-.87A5.39,5.39,0,0,1,38.13,325.3Z"/><path class="cls-3" d="M32.43,339.66c-.11.1-.75-.43-1.43-1.18S29.85,337,30,336.94s.75.43,1.43,1.18S32.54,339.57,32.43,339.66Z"/><path class="cls-3" d="M37.11,354.05c-.1.11-1-.58-2-1.54s-1.78-1.83-1.68-1.93,1,.59,2,1.55S37.21,354,37.11,354.05Z"/><path class="cls-3" d="M23.27,360.22c.1.1-.71,1-1.81,2S19.4,364,19.3,363.93a7.59,7.59,0,0,1,1.81-2.05C22.2,360.86,23.17,360.11,23.27,360.22Z"/><path class="cls-3" d="M25,372.85c-.14-.05,0-.92.37-1.94s.73-1.82.87-1.78,0,.91-.37,1.94S25.14,372.89,25,372.85Z"/><path class="cls-3" d="M26.27,387.47a10.46,10.46,0,0,1,1.12-3.08A10.2,10.2,0,0,1,29,381.52a10.46,10.46,0,0,1-1.12,3.08A10.49,10.49,0,0,1,26.27,387.47Z"/><path class="cls-3" d="M34.71,394.15a16.25,16.25,0,0,1,1-5.69,8.28,8.28,0,0,1-.25,2.89A8.3,8.3,0,0,1,34.71,394.15Z"/><path class="cls-3" d="M39.13,372a5.84,5.84,0,0,1-2.4-.26,5.85,5.85,0,0,1-2.3-.78,5.8,5.8,0,0,1,2.41.27A5.92,5.92,0,0,1,39.13,372Z"/><path class="cls-3" d="M38.13,363.44a4.26,4.26,0,0,1-2-.12c-1.1-.21-2-.49-1.94-.63a4.12,4.12,0,0,1,2,.12C37.29,363,38.15,363.29,38.13,363.44Z"/><g class="cls-14"><path d="M28.28,314.09c.35,0,.56,4.45.28,11.6-.14,3.57-.38,7.82-.67,12.52s-.59,9.86-.71,15.26a59.91,59.91,0,0,0,1.27,14.93,42.11,42.11,0,0,0,1.85,6.23A23,23,0,0,0,33,379.52,16.21,16.21,0,0,0,39,384.7c1.75.83,2.83,1.1,2.79,1.31s-1.17.22-3.16-.37a15.29,15.29,0,0,1-7.16-5,22.9,22.9,0,0,1-3.19-5.17,39.71,39.71,0,0,1-2.2-6.53,56.11,56.11,0,0,1-1.54-15.54c.11-5.49.52-10.68.92-15.39s.85-8.93,1.22-12.47C27.47,318.47,27.91,314.08,28.28,314.09Z"/></g><path class="cls-3" d="M76.13,399.58a5.19,5.19,0,0,1-2.26.26,5.16,5.16,0,0,1-2.25-.26,5.16,5.16,0,0,1,2.25-.26A5.19,5.19,0,0,1,76.13,399.58Z"/><path class="cls-3" d="M76,388.7a4.88,4.88,0,0,1-2.18-.21,4.79,4.79,0,0,1-2.07-.72,4.72,4.72,0,0,1,2.18.21C75.1,388.23,76,388.55,76,388.7Z"/><path class="cls-3" d="M76.52,376.52a6.76,6.76,0,0,1-2.6,0,6.67,6.67,0,0,1-2.57-.47,6.8,6.8,0,0,1,2.61,0A6.32,6.32,0,0,1,76.52,376.52Z"/><path class="cls-3" d="M74.8,365.74a4.49,4.49,0,0,1-2-.63c-1.06-.47-1.88-1-1.82-1.1a4.49,4.49,0,0,1,2,.63C74.05,365.12,74.86,365.61,74.8,365.74Z"/><path class="cls-3" d="M75.86,356.58a4.67,4.67,0,0,1-2.12-1.28c-1-.89-1.7-1.81-1.59-1.9s.91.64,1.93,1.5S75.94,356.46,75.86,356.58Z"/><path class="cls-3" d="M79,349.82c-.13.06-.65-.75-1.17-1.81a4.83,4.83,0,0,1-.7-2c.13-.06.66.75,1.17,1.81S79.17,349.76,79,349.82Z"/><path class="cls-3" d="M88.08,347.44c.12.09-.38.87-1,1.84s-1.06,1.77-1.2,1.71.14-1,.76-2S88,347.35,88.08,347.44Z"/><path class="cls-3" d="M92.32,359.37a4.88,4.88,0,0,1-2.42.59,5,5,0,0,1-2.49-.19,7.78,7.78,0,0,1,2.44-.33A8.09,8.09,0,0,1,92.32,359.37Z"/><path class="cls-3" d="M92.19,368a6.25,6.25,0,0,1-2.07,1.41,6.32,6.32,0,0,1-2.32,1c-.07-.13.86-.76,2.07-1.42A6.12,6.12,0,0,1,92.19,368Z"/><path class="cls-3" d="M92.44,382.1c-.07.13-.92-.15-1.91-.63s-1.74-1-1.68-1.09.91.15,1.9.62S92.5,382,92.44,382.1Z"/><path class="cls-3" d="M91.65,389.87c.06.13-.63.6-1.55,1s-1.71.69-1.77.56.63-.59,1.55-1S91.58,389.75,91.65,389.87Z"/><path class="cls-3" d="M89.55,406.33c-.11.1-.79-.48-1.52-1.28s-1.24-1.54-1.13-1.64.78.48,1.51,1.29S89.65,406.24,89.55,406.33Z"/><path class="cls-3" d="M84.22,420.68a12.36,12.36,0,0,1-.72-2.57,11,11,0,0,1-.6-2.61A5.49,5.49,0,0,1,84,418,5.23,5.23,0,0,1,84.22,420.68Z"/><path class="cls-3" d="M74.57,428.11a12.37,12.37,0,0,1,.36-5,6.21,6.21,0,0,1,.08,2.54A6.44,6.44,0,0,1,74.57,428.11Z"/><path class="cls-3" d="M74,411.4a5.36,5.36,0,0,1-2.07-1c-1.06-.7-1.86-1.36-1.78-1.48s1,.35,2.07,1S74.08,411.28,74,411.4Z"/><path class="cls-3" d="M86.34,385.52c-.09.11-.79-.33-1.56-1s-1.32-1.28-1.23-1.39.79.33,1.56,1S86.43,385.41,86.34,385.52Z"/><path class="cls-3" d="M79.47,367.89c.1.1-.53.89-1.42,1.77s-1.68,1.5-1.78,1.4.53-.9,1.42-1.77S79.37,367.79,79.47,367.89Z"/><path class="cls-3" d="M87,354c.07.12-.54.61-1.37,1.08s-1.55.75-1.62.63.54-.61,1.36-1.08S86.93,353.91,87,354Z"/><path class="cls-3" d="M79.14,418.24c-.14.06-.53-.56-.89-1.39s-.53-1.55-.4-1.6.53.57.88,1.39S79.27,418.19,79.14,418.24Z"/><path class="cls-3" d="M47.6,324.93a7.85,7.85,0,0,1-2.8.11,7.81,7.81,0,0,1-2.77-.4,7.45,7.45,0,0,1,2.8-.12A7.68,7.68,0,0,1,47.6,324.93Z"/><path class="cls-3" d="M46.72,308.84a7.11,7.11,0,0,1-2.59-.78,7.41,7.41,0,0,1-2.4-1.27,7.29,7.29,0,0,1,2.59.78A7.41,7.41,0,0,1,46.72,308.84Z"/><path class="cls-3" d="M48.19,288.89a4.84,4.84,0,0,1-2.8-.75,4.82,4.82,0,0,1-2.19-1.89c.1-.11,1.07.71,2.44,1.43S48.22,288.74,48.19,288.89Z"/><path class="cls-3" d="M51.88,279.56a7,7,0,0,1-1.52-2.24,7,7,0,0,1-1-2.49,7.41,7.41,0,0,1,1.51,2.24A7.4,7.4,0,0,1,51.88,279.56Z"/><path class="cls-3" d="M64.6,276.83a8,8,0,0,1-1.6,2.34c-1,1.2-1.89,2.09-2,2a7.81,7.81,0,0,1,1.6-2.33C63.59,277.64,64.49,276.74,64.6,276.83Z"/><path class="cls-3" d="M67.83,290.61c.08.12-.77.87-1.91,1.68a6.72,6.72,0,0,1-2.21,1.25c-.08-.12.77-.87,1.91-1.68A6.52,6.52,0,0,1,67.83,290.61Z"/><path class="cls-3" d="M69.32,309.72a5.19,5.19,0,0,1-2.14.84,5.1,5.1,0,0,1-2.26.34,5,5,0,0,1,2.13-.84A5.14,5.14,0,0,1,69.32,309.72Z"/><path class="cls-3" d="M68.43,325.91a6.78,6.78,0,0,1-2.65.13,7.09,7.09,0,0,1-2.63-.4,6.77,6.77,0,0,1,2.66-.12A6.89,6.89,0,0,1,68.43,325.91Z"/><path class="cls-3" d="M68.73,342.3A9.27,9.27,0,0,1,66.22,344a8.9,8.9,0,0,1-2.77,1.24A9.07,9.07,0,0,1,66,343.54,8.9,8.9,0,0,1,68.73,342.3Z"/><path class="cls-3" d="M46.12,350.27a8,8,0,0,1-2.84-.34,8,8,0,0,1-2.73-.85,8,8,0,0,1,2.84.34A8,8,0,0,1,46.12,350.27Z"/><path class="cls-3" d="M46.67,364.54a9.19,9.19,0,0,1-2.17,2.13,8.93,8.93,0,0,1-2.5,1.72,9.05,9.05,0,0,1,2.17-2.12A9,9,0,0,1,46.67,364.54Z"/><path class="cls-3" d="M47,407.17a11.48,11.48,0,0,1-2.81-2,11.32,11.32,0,0,1-2.48-2.4,11.61,11.61,0,0,1,2.81,2A11.86,11.86,0,0,1,47,407.17Z"/><path class="cls-3" d="M46.43,419.19c.09.11-.69.92-1.74,1.81a6.4,6.4,0,0,1-2.08,1.42c-.09-.11.69-.92,1.74-1.82S46.33,419.08,46.43,419.19Z"/><path class="cls-3" d="M67.53,392.44a8.53,8.53,0,0,1-2.2,2A8.63,8.63,0,0,1,62.82,396a8.53,8.53,0,0,1,2.2-2A8.63,8.63,0,0,1,67.53,392.44Z"/><path class="cls-3" d="M67.85,371.94a4.88,4.88,0,0,1-2.42,1.61,4.83,4.83,0,0,1-2.86.44,27.52,27.52,0,0,1,2.68-.93A27.68,27.68,0,0,1,67.85,371.94Z"/><path class="cls-3" d="M68.15,357a5.86,5.86,0,0,1-2.3-.64,5.7,5.7,0,0,1-2.1-1.12,5.48,5.48,0,0,1,2.3.64C67.26,356.32,68.2,356.82,68.15,357Z"/><path class="cls-3" d="M69.29,432.92a9.26,9.26,0,0,1-2.68,1.55,9.26,9.26,0,0,1-2.9,1.08A9.53,9.53,0,0,1,66.39,434,9.57,9.57,0,0,1,69.29,432.92Z"/><path class="cls-3" d="M46.44,337.88a12.24,12.24,0,0,1-2.81-2.15,12.34,12.34,0,0,1-2.47-2.55A12.06,12.06,0,0,1,44,335.34,12,12,0,0,1,46.44,337.88Z"/><path class="cls-3" d="M69.9,330.27a8.58,8.58,0,0,1-2.35,1.83,8.53,8.53,0,0,1-2.63,1.39,8.58,8.58,0,0,1,2.35-1.83A8.8,8.8,0,0,1,69.9,330.27Z"/><path class="cls-3" d="M45.84,298.28a4.46,4.46,0,0,1-2.09,0c-1.14-.16-2-.41-2-.55a4.31,4.31,0,0,1,2.09,0C45,297.89,45.86,298.14,45.84,298.28Z"/><path class="cls-3" d="M68.14,299.45c0,.14-.83.58-2,1a4.84,4.84,0,0,1-2.14.49c-.05-.14.83-.57,2-1A4.84,4.84,0,0,1,68.14,299.45Z"/><path class="cls-3" d="M56.43,334.39a7.86,7.86,0,0,1-1.57,2.36c-1,1.22-1.85,2.13-2,2a7.49,7.49,0,0,1,1.56-2.36C55.43,335.21,56.31,334.3,56.43,334.39Z"/><path class="cls-3" d="M56.4,319.11c-.07.12-1-.46-1.8-1.57a3.53,3.53,0,0,1-.84-2.24c.15-.05.55.91,1.27,1.94S56.5,319,56.4,319.11Z"/><path class="cls-3" d="M56.11,297.4c.1.11-.72.9-1.51,2a18.38,18.38,0,0,1-1.42,2.09,4.06,4.06,0,0,1,1-2.39C55,297.93,56,297.29,56.11,297.4Z"/><path class="cls-3" d="M54.35,356.39a4.85,4.85,0,0,1,.49-2.15c.4-1.13.84-2,1-2a5,5,0,0,1-.49,2.14C54.92,355.55,54.49,356.43,54.35,356.39Z"/><path class="cls-3" d="M51.05,387.82a13.69,13.69,0,0,1-1.86-3.25,13.81,13.81,0,0,1-1.4-3.48,13.52,13.52,0,0,1,1.87,3.25A13.54,13.54,0,0,1,51.05,387.82Z"/><path class="cls-3" d="M56.93,392.74a16.6,16.6,0,0,1-1.69,3.79,16.78,16.78,0,0,1-2.15,3.54,16.6,16.6,0,0,1,1.69-3.79A16.78,16.78,0,0,1,56.93,392.74Z"/><path class="cls-3" d="M56.65,426.26a13,13,0,0,1-1.86-3.1,12.82,12.82,0,0,1-1.4-3.34,12.49,12.49,0,0,1,1.86,3.1A12.68,12.68,0,0,1,56.65,426.26Z"/><path class="cls-3" d="M54.64,436.5a7,7,0,0,1-1.25,2.35c-.81,1.22-1.56,2.14-1.68,2.06A7,7,0,0,1,53,438.56C53.77,437.35,54.52,436.42,54.64,436.5Z"/><g class="cls-14"><path d="M59.31,281.07c.72,0,1.31,38,1.31,84.85s-.59,84.86-1.31,84.86-1.3-38-1.3-84.86S58.6,281.07,59.31,281.07Z"/></g><g class="cls-14"><path d="M82.86,349.57c.36,0,.78,4.33,1,11.36s.17,16.7.36,27.4a66.19,66.19,0,0,1-1.31,15.28,30.77,30.77,0,0,1-2.21,6.45,47.84,47.84,0,0,1-2.84,5.13,12.44,12.44,0,0,1-3.47,3.62A11.79,11.79,0,0,1,71,420.32c-2,.51-3.06.51-3.1.36s1-.54,2.75-1.32a12.63,12.63,0,0,0,2.92-1.73,11.38,11.38,0,0,0,2.76-3.42,53.23,53.23,0,0,0,2.45-5,31.7,31.7,0,0,0,1.83-6.06,72.89,72.89,0,0,0,1-14.75c-.19-10.71.15-20.43.39-27.43S82.5,349.58,82.86,349.57Z"/></g><path class="cls-13" d="M619.43,371a13.54,13.54,0,0,1-7-7c-.56-1.28-.57-3.28.8-3.56.84-.18,1.61.47,2.22,1.08l6.11,6.06a12.82,12.82,0,0,1,.42-9.93c.53-1.1,1.61-2.28,2.75-1.86.91.33,1.19,1.44,1.35,2.39l1.47,8.76a21.1,21.1,0,0,1,4.8-9.18c.85-.94,2.21-1.87,3.29-1.19s.9,2,.7,3.07a43,43,0,0,1-2.29,8,15.16,15.16,0,0,1,9.5-3.77,3.39,3.39,0,0,1,2.82.91c.94,1.2.11,3-.9,4.11-3,3.39-10,4.26-14.53,4"/><path class="cls-13" d="M646.48,378.19c-11-8.62-30.19-9.84-42.86-4-14.3,6.55-23.67,21.78-25.07,36.38-1.33,13.87,5.36,27.93,11,40.66l55.29.25c6.64-11,13.54-23.22,14-36S656.55,386.12,646.48,378.19Z"/><path class="cls-3" d="M621.68,370.58a.75.75,0,0,1-.24.08l-.73.17-1.17.25a10.53,10.53,0,0,0-1.59.42,31.22,31.22,0,0,0-9.36,4.49,42.31,42.31,0,0,0-10.67,11.07,64.29,64.29,0,0,0-4.47,8,70.26,70.26,0,0,0-3.44,9.18,42.14,42.14,0,0,0-.93,18.75,81.36,81.36,0,0,0,4.17,14.91c1.53,4.14,2.9,7.46,3.8,9.76.44,1.12.78,2,1,2.66.11.28.19.51.26.69s.08.24.07.25a1.09,1.09,0,0,1-.12-.23l-.3-.67c-.28-.64-.65-1.52-1.12-2.62-1-2.28-2.38-5.58-4-9.71a79.24,79.24,0,0,1-4.29-15,42.19,42.19,0,0,1,.9-19,69.55,69.55,0,0,1,3.48-9.26,63.93,63.93,0,0,1,4.53-8,42.19,42.19,0,0,1,10.86-11.11,30.7,30.7,0,0,1,9.52-4.38,9.83,9.83,0,0,1,1.61-.37l1.19-.21.73-.11A.79.79,0,0,1,621.68,370.58Z"/><path class="cls-3" d="M637.79,451a5,5,0,0,1,.25-.82c.21-.58.48-1.36.83-2.34.72-2,1.79-4.95,3-8.58s2.63-8,3.84-12.92a85.71,85.71,0,0,0,2.46-16.28,57.06,57.06,0,0,0-1.69-16.32,44.48,44.48,0,0,0-5.2-12.34,36.31,36.31,0,0,0-5.65-7.06c-.74-.78-1.42-1.27-1.82-1.66a4.5,4.5,0,0,1-.63-.6,6.63,6.63,0,0,1,.69.52,22.91,22.91,0,0,1,1.9,1.59,34.62,34.62,0,0,1,5.83,7A44.36,44.36,0,0,1,647,393.62a56.55,56.55,0,0,1,1.75,16.46,83,83,0,0,1-2.52,16.37c-1.24,4.94-2.68,9.3-4,12.93s-2.4,6.53-3.18,8.53c-.38,1-.69,1.74-.92,2.3A4.19,4.19,0,0,1,637.79,451Z"/><path class="cls-3" d="M627.11,370.91a7,7,0,0,1-.22.81c-.18.56-.42,1.33-.72,2.29s-.71,2.2-1.12,3.62-.93,3-1.41,4.82c-1,3.58-2.12,7.88-3.22,12.68s-2.09,10.12-2.93,15.73-1.36,11-1.7,15.92c-.12,2.46-.29,4.79-.31,7,0,1.09,0,2.15-.07,3.17s0,2,0,2.92c0,1.86.07,3.54.12,5s.11,2.75.19,3.79.11,1.8.14,2.39a4.85,4.85,0,0,1,0,.84,4.56,4.56,0,0,1-.12-.83l-.24-2.39c-.11-1-.21-2.31-.28-3.79s-.19-3.16-.2-5c0-.93,0-1.91,0-2.92s0-2.08,0-3.18c0-2.19.15-4.53.26-7,.32-4.92.85-10.33,1.66-16s1.9-11,3-15.77,2.25-9.1,3.33-12.67c.51-1.79,1-3.39,1.49-4.81s.86-2.62,1.21-3.6l.81-2.26A4.15,4.15,0,0,1,627.11,370.91Z"/><path class="cls-3" d="M580.31,414.94a17.75,17.75,0,0,1-3.78,2,18,18,0,0,1-4,1.53,17.75,17.75,0,0,1,3.78-2A17.43,17.43,0,0,1,580.31,414.94Z"/><path class="cls-3" d="M582.07,399.05a20,20,0,0,1-4.15-2.1A20.5,20.5,0,0,1,574,394.4a41.63,41.63,0,0,1,8,4.65Z"/><path class="cls-3" d="M592.15,385.93a27.23,27.23,0,0,1-3.18-6.72,13.44,13.44,0,0,1,1.83,3.25A13.23,13.23,0,0,1,592.15,385.93Z"/><path class="cls-3" d="M606,373.54a17.76,17.76,0,0,1-3.6-4.84,17.36,17.36,0,0,1,3.6,4.84Z"/><path class="cls-3" d="M586.58,434.34a19.79,19.79,0,0,1-3.87,2.39,19.38,19.38,0,0,1-4.12,1.93,39.53,39.53,0,0,1,8-4.32Z"/><path class="cls-3" d="M603.09,424.68a14.76,14.76,0,0,1-3.54-1.68,15.34,15.34,0,0,1-3.28-2.14,14.57,14.57,0,0,1,3.54,1.68A14.91,14.91,0,0,1,603.09,424.68Z"/><path class="cls-3" d="M607.69,402.6a16.28,16.28,0,0,1-7.14,2.79,21.92,21.92,0,0,1,3.55-1.46A22.93,22.93,0,0,1,607.69,402.6Z"/><path class="cls-3" d="M612.94,386a6.53,6.53,0,0,1-1.44-2.7,6.42,6.42,0,0,1-.54-3,15.29,15.29,0,0,1,1,2.84A15.63,15.63,0,0,1,612.94,386Z"/><path class="cls-3" d="M601.22,446.35a15.39,15.39,0,0,1,1.48-3.72,15.66,15.66,0,0,1,1.95-3.49,15.22,15.22,0,0,1-1.48,3.72A15.66,15.66,0,0,1,601.22,446.35Z"/><path class="cls-3" d="M629.09,440.42a16.37,16.37,0,0,1-5.59-6.53c.13-.08,1.22,1.51,2.76,3.3S629.18,440.3,629.09,440.42Z"/><path class="cls-3" d="M638.74,416.11a19.65,19.65,0,0,1-3.85,2.51,21,21,0,0,1-4.11,2.06,20.19,20.19,0,0,1,3.85-2.51A21,21,0,0,1,638.74,416.11Z"/><path class="cls-3" d="M632.25,401.16a35.88,35.88,0,0,1,6.33-6,18.11,18.11,0,0,1-3,3.18A18.8,18.8,0,0,1,632.25,401.16Z"/><path class="cls-3" d="M632.54,385.29a12.86,12.86,0,0,1-3-2.14,13.59,13.59,0,0,1-2.72-2.54,26.74,26.74,0,0,1,5.77,4.68Z"/><path class="cls-3" d="M651,374.8a14,14,0,0,1-3,2.28,14.28,14.28,0,0,1-3.31,1.85,13.82,13.82,0,0,1,3-2.28A14.22,14.22,0,0,1,651,374.8Z"/><path class="cls-3" d="M658.06,389.34a19.22,19.22,0,0,1-6.35.45,20,20,0,0,1,6.35-.45Z"/><path class="cls-3" d="M662.7,406.53a15.39,15.39,0,0,1-4-.12,16.25,16.25,0,0,1-4-.65,15.68,15.68,0,0,1,4,.13A16,16,0,0,1,662.7,406.53Z"/><path class="cls-3" d="M660.4,428.7a48.62,48.62,0,0,1-7-7.11,24.27,24.27,0,0,1,3.71,3.37A24.84,24.84,0,0,1,660.4,428.7Z"/><path class="cls-3" d="M654.36,445.78a16.52,16.52,0,0,1-3.74-3.62,16.76,16.76,0,0,1-2.9-4.33c.13-.08,1.47,1.81,3.29,4S654.46,445.67,654.36,445.78Z"/><g class="cls-14"><path d="M633.21,372.08c.09-.13,1.18.4,3,1.63a31.55,31.55,0,0,1,6.67,6.54,37.23,37.23,0,0,1,6.1,12.49,58.89,58.89,0,0,1,2.06,16.83,71.7,71.7,0,0,1-2.25,16.76,88.41,88.41,0,0,1-4.42,13c-3.08,7.18-5.68,11.26-6,11.12s1.65-4.55,4.25-11.78,5.65-17.51,5.78-29.14a62.21,62.21,0,0,0-1.77-16.16,38.72,38.72,0,0,0-5.29-12.06,40.51,40.51,0,0,0-5.81-6.82C634,373.06,633.1,372.24,633.21,372.08Z"/></g><g class="cls-14"><path d="M626.71,370.09c.35.08-.36,4.64-1.73,12s-3.35,17.38-5.07,28.55c-.84,5.59-1.5,10.93-2,15.8-.21,2.43-.45,4.75-.57,6.92s-.27,4.19-.35,6c-.33,7.4-.26,12-.66,12s-1-4.56-1.18-12.05c0-1.88,0-3.93,0-6.13s.19-4.54.34-7c.37-4.94,1-10.35,1.82-16,1.73-11.28,4-21.33,5.85-28.55S626.36,370,626.71,370.09Z"/></g><g class="cls-14"><path d="M620.22,369.51c.06.19-1.22.68-3.44,1.69a51.77,51.77,0,0,0-8.9,5.11,45.27,45.27,0,0,0-18.07,27.36,46.93,46.93,0,0,0-1,9.47,60.53,60.53,0,0,0,.67,8.9,93.83,93.83,0,0,0,3.64,14.83c1.35,4.17,2.61,7.5,3.43,9.82s1.22,3.64,1,3.72-.88-1.11-2-3.32-2.63-5.46-4.22-9.6a81.21,81.21,0,0,1-4.28-15.06,58.54,58.54,0,0,1-.85-9.3,47,47,0,0,1,1-10,46,46,0,0,1,8-17.6,44.07,44.07,0,0,1,11.56-10.73,39.84,39.84,0,0,1,9.56-4.52C618.8,369.52,620.18,369.35,620.22,369.51Z"/></g></g></g></svg>