<svg xmlns="http://www.w3.org/2000/svg" viewBox="0 0 453.19 403.4"><defs><style>.cls-1{fill:#f2f3f8;}.cls-2{fill:#afb2b9;}.cls-3{fill:#7bb732;}.cls-4{opacity:0.1;}.cls-5{fill:none;stroke:#f2f3f8;stroke-linecap:round;stroke-miterlimit:10;}.cls-6{fill:#026a9d;}.cls-10,.cls-11,.cls-16,.cls-7{fill:#fff;}.cls-8{fill:#e9ecf3;}.cls-11,.cls-9{opacity:0.3;}.cls-10,.cls-19{opacity:0.2;}.cls-12{fill:#37474f;}.cls-13{fill:#455a64;}.cls-14{fill:#2c3e50;}.cls-15{opacity:0.5;}.cls-16{opacity:0.6;}.cls-17{fill:#f28f8f;}.cls-18{fill:#f4a6a7;}</style></defs><title>map-modal</title><g id="Capa_2" data-name="Capa 2"><g id="Floor"><path class="cls-1" d="M386.82,368.73c-88.49,46.23-232,46.23-320.45,0s-88.49-121.18,0-167.4,232-46.23,320.45,0S475.31,322.5,386.82,368.73Z"/></g><g id="Shadow"><path class="cls-2" d="M267.22,370.31l122-71c2.19-1.28,2.19-3.34,0-4.61L170.71,167.62a8.63,8.63,0,0,0-7.91,0l-122,71c-2.18,1.27-2.18,3.33,0,4.6L259.3,370.31A8.71,8.71,0,0,0,267.22,370.31Z"/><ellipse class="cls-2" cx="375.66" cy="327.57" rx="36.36" ry="17.33"/></g><g id="Plants"><path class="cls-3" d="M90.3,203.24c-1.88-6.25-5.49-25.12-2-38.65,2.7-10.41,9.37-19,17-21.4s11.9,7.26,7,13.76C100,173.54,94.68,187.44,97.47,199.16Z"/><path class="cls-4" d="M90.3,203.24c-1.88-6.25-5.49-25.12-2-38.65,2.7-10.41,9.37-19,17-21.4s11.9,7.26,7,13.76C100,173.54,94.68,187.44,97.47,199.16Z"/><path class="cls-5" d="M105.35,148.47c-4.13,3.63-19.12,23.83-12.54,53.34"/><path class="cls-3" d="M63.1,216.16c-4-.47-9-1.73-11.4-6.57s4.71-9,4.58-13-4.22-5.88-8.57-7.53-8.61-7.5-5-11.65,7.37-9.4,3.6-14.55S35.92,152.68,42,149.59c7.66-3.88,15.47,5.14,21.08,8.37s12.57-1.7,17.68,3.66-4.55,12.24,1.52,17.83,14.4,6.73,10.8,19Z"/><path class="cls-5" d="M45.87,152.17c5.36,2.57,29,28.64,32.83,54.55"/><path class="cls-5" d="M73.81,164.65s-5.93,6.38-7.32,11.53"/><path class="cls-5" d="M49.21,181.27c5-.68,16.94-1,21.85,3"/></g><g id="Map"><polygon class="cls-6" points="219.14 330.95 265.76 343.52 375.94 279.91 329.31 267.35 219.14 330.95"/><polygon class="cls-6" points="211.54 335.34 268.53 350.7 393.9 278.32 336.92 262.96 329.31 267.35 375.94 279.91 265.76 343.52 219.14 330.95 211.54 335.34"/><polygon class="cls-6" points="165.95 282.7 219.14 330.95 329.31 267.35 276.13 219.09 165.95 282.7"/><polygon class="cls-6" points="158.35 287.09 211.54 335.34 219.14 330.95 165.95 282.7 158.35 287.09"/><polygon class="cls-6" points="276.13 219.09 329.31 267.35 336.92 262.96 283.73 214.71 276.13 219.09"/><polygon class="cls-6" points="57.98 222.21 108.96 267.35 219.14 203.74 168.16 158.6 57.98 222.21"/><polygon class="cls-6" points="44.38 221.28 101.37 271.73 108.96 267.35 57.98 222.21 168.16 158.6 219.14 203.74 226.74 199.35 169.76 148.9 44.38 221.28"/><polygon class="cls-6" points="108.96 267.35 165.95 282.7 276.13 219.09 219.14 203.74 108.96 267.35"/><polygon class="cls-6" points="219.14 203.74 276.13 219.09 283.73 214.71 226.74 199.35 219.14 203.74"/><polygon class="cls-6" points="101.37 271.73 158.35 287.09 165.95 282.7 108.96 267.35 101.37 271.73"/><polygon class="cls-7" points="168.15 158.6 177.35 166.74 173.55 190.58 127.85 181.87 168.15 158.6"/><path class="cls-7" d="M92,202.55c4.55,7.71,11.43,13.39,18.55,17.4l20.1-31.75-10.32-2Z"/><path class="cls-7" d="M117.11,223.16c7.37,3.16,14.32,4.6,18.45,4.71a52.3,52.3,0,0,0,7-.27l7.32-35.66-11.7-2.28Z"/><path class="cls-7" d="M150,226.22c9.57-2.52,15.78-7.34,19.34-9.68l3.26-20.15-16.17-3.16Z"/><path class="cls-7" d="M87.06,205.42c11.19,18.69,36.52,28,48.5,27.42,0,0,2.2.34,0,1.61l-22.8,13.16L79,240.8,58,222.21Z"/><polygon class="cls-7" points="86.17 247.17 106.5 251.22 96.97 256.73 86.17 247.17"/><polygon class="cls-7" points="177.35 214.71 188.75 221.28 219.14 203.74 183.15 171.87 177.35 214.71"/><path class="cls-7" d="M103,262l6,5.32,53.19-30.71c.68-4.78-1.12-8.13-3.8-6.58Z"/><path class="cls-7" d="M169.76,232.25,182.37,225l-7.8-4.28c-2.62,1.52-8.37,5-8.37,5S170.32,228.77,169.76,232.25Z"/><polygon class="cls-8" points="223.83 230.74 245.74 236.64 276.13 219.09 252.01 212.59 223.83 230.74"/><polygon class="cls-8" points="231.87 207.17 236.42 215.36 244.04 210.45 231.87 207.17"/><polygon class="cls-8" points="188.75 221.28 215.87 228.59 230.56 219.14 230.56 219.13 222.54 204.65 219.14 203.74 188.75 221.28"/><path class="cls-8" d="M109,267.35l14.25,3.84h0c.5-.07,14.36-1.81,18.23-2.64S147.9,266.8,150,263s12.19-26.32,12.19-26.32Z"/><polygon class="cls-8" points="154.56 268.07 210.19 232.25 182.37 224.97 169.76 232.25 154.56 268.07"/><polygon class="cls-8" points="170.37 265.16 188.75 269.54 239.86 240.04 239.84 240.02 218.21 234.35 170.37 265.16"/><polygon class="cls-8" points="149.85 278.36 165.95 282.7 181.15 273.93 163.34 269.68 149.85 278.36"/><polygon class="cls-8" points="135.56 274.51 148.7 272.74 142.75 276.45 135.56 274.51"/><polygon class="cls-7" points="165.95 282.7 187.71 302.44 210.19 300.25 205.52 282.27 181.15 273.93 165.95 282.7"/><polygon class="cls-7" points="268.18 255.89 300.76 283.83 329.31 267.35 325.85 264.2 312.28 264.56 289.2 251.56 268.18 255.89"/><polygon class="cls-7" points="188.75 269.54 207.75 276.12 251.91 250.61 239.86 240.04 188.75 269.54"/><polygon class="cls-7" points="245.74 236.64 262.52 251.03 277.44 247.6 276.13 219.09 245.74 236.64"/><polygon class="cls-7" points="283.38 225.68 284.32 246.4 291.31 245.41 294.23 247.09 297.25 238.26 283.38 225.68"/><polygon class="cls-7" points="301.11 251.06 312.86 257.84 319.07 258.06 303.55 243.97 301.11 251.06"/><polygon class="cls-7" points="215.81 280.24 253.33 293.67 282.06 277.08 257.94 255.91 215.81 280.24"/><polygon class="cls-7" points="213.97 285.7 225.9 327.06 250.25 313 250.25 312.99 253.33 299.81 213.97 285.7"/><polygon class="cls-7" points="194.29 308.4 209.44 322.15 217.9 329.82 211.91 306.83 194.29 308.4"/><polygon class="cls-7" points="256.5 309.02 256.62 309.31 269.98 301.61 259.07 300.25 256.5 309.02"/><polygon class="cls-7" points="261.88 295.38 276.78 297.68 276.79 297.68 294.11 287.68 287.11 281.52 261.88 295.38"/><polygon class="cls-8" points="330.88 287.39 357.54 290.53 357.55 290.53 375.94 279.91 337.96 269.68 330.88 287.39"/><polygon class="cls-8" points="300.76 283.83 325.65 286.77 333.11 268.37 329.31 267.35 300.76 283.83"/><polygon class="cls-8" points="276.79 297.68 311.19 317.29 311.2 317.29 350.2 294.77 294.11 287.68 276.79 297.68"/><polygon class="cls-8" points="225.9 327.06 233.54 334.84 261.88 342.47 250.25 313 225.9 327.06"/><polygon class="cls-8" points="256.62 309.31 269.65 341.27 304.5 321.15 269.98 301.61 256.62 309.31"/></g><g id="Location"><path class="cls-3" d="M186.32,134.07l.92-.53a25.72,25.72,0,0,0-.92,7.12V144c0,11.9,14.3,42.34,19.55,53.12.55,1.13-4.27,6.62-4.27,6.62l8-4.54s19.61-15.85,19.61-30.43v-3.32c0-14.58-9.61-32-21.46-38.79-6-3.45-11.37-3.56-15.26-1h0l-8.15,4.68Zm10.73,11.15c0-6.85,4.8-9.62,10.72-6.2-.48,4.39,7.54,18.08,10.73,18.58,0,6.84-4.8,9.61-10.73,6.19S197.05,152.06,197.05,145.22Z"/><path class="cls-9" d="M186.32,134.07l.92-.53a25.72,25.72,0,0,0-.92,7.12V144c0,11.9,14.3,42.34,19.55,53.12.55,1.13-4.27,6.62-4.27,6.62l8-4.54s19.61-15.85,19.61-30.43v-3.32c0-14.58-9.61-32-21.46-38.79-6-3.45-11.37-3.56-15.26-1h0l-8.15,4.68Zm10.73,11.15c0-6.85,4.8-9.62,10.72-6.2-.48,4.39,7.54,18.08,10.73,18.58,0,6.84-4.8,9.61-10.73,6.19S197.05,152.06,197.05,145.22Z"/><path class="cls-3" d="M177.74,148.93c0,12.08,14.72,43.24,19.77,53.58a2.88,2.88,0,0,0,4.56.85c5.85-5.39,18.58-18.43,18.58-29.66v-3.32c0-14.58-9.61-31.95-21.46-38.79s-21.45-.56-21.45,14Zm10.72,1.24c0-6.84,4.81-9.61,10.73-6.19s10.73,11.74,10.73,18.58-4.81,9.61-10.73,6.19S188.46,157,188.46,150.17Z"/><path class="cls-10" d="M177.74,148.93c0,12.08,14.72,43.24,19.77,53.58a2.88,2.88,0,0,0,4.56.85c5.85-5.39,18.58-18.43,18.58-29.66v-3.32c0-14.58-9.61-31.95-21.46-38.79s-21.45-.56-21.45,14Zm10.72,1.24c0-6.84,4.81-9.61,10.73-6.19s10.73,11.74,10.73,18.58-4.81,9.61-10.73,6.19S188.46,157,188.46,150.17Z"/></g><g id="Arrow"><path class="cls-3" d="M44.57,323h0v-9l67.05-15.42v9h0a1.38,1.38,0,0,1-.3.73L85.19,345c-.64.9-1.33.75-1.54-.33l-3.3-17.18A2.73,2.73,0,0,0,78,325.35l-32.56-2.09C44.85,323.22,44.57,323.14,44.57,323Z"/><path class="cls-4" d="M44.57,323h0v-9l67.05-15.42v9h0a1.38,1.38,0,0,1-.3.73L85.19,345c-.64.9-1.33.75-1.54-.33l-3.3-17.18A2.73,2.73,0,0,0,78,325.35l-32.56-2.09C44.85,323.22,44.57,323.14,44.57,323Z"/><path class="cls-3" d="M83.65,335.64l-3.3-17.18a2.74,2.74,0,0,0-2.38-2.1l-32.56-2.08c-1.1-.08-1.13-.34,0-.6l65.16-15.49c1.08-.25,1.43.27.79,1.17L85.19,336C84.55,336.87,83.86,336.72,83.65,335.64Z"/><path class="cls-11" d="M83.65,335.64l-3.3-17.18a2.74,2.74,0,0,0-2.38-2.1l-32.56-2.08c-1.1-.08-1.13-.34,0-.6l65.16-15.49c1.08-.25,1.43.27.79,1.17L85.19,336C84.55,336.87,83.86,336.72,83.65,335.64Z"/></g><g id="Compass"><path class="cls-12" d="M253.81,39.82l17-9.83.06,0,.13-.07h0c8.4-4.76,20-4,32.72,3.34,25.68,14.83,46.5,50.89,46.5,80.54,0,14.73-5.15,25.11-13.47,30h0l-.12.07-.06,0-17,9.83-2.95-7.78a49.13,49.13,0,0,1-12.86-5.33c-25.68-14.82-46.5-50.88-46.5-80.53A49.39,49.39,0,0,1,259,46.37Z"/><path class="cls-13" d="M294.81,39.3A19.48,19.48,0,0,0,302,37.94a.77.77,0,1,0-.56-1.43,18.11,18.11,0,1,1-6.61-35,.77.77,0,0,0,0-1.54,19.65,19.65,0,1,0,0,39.3Z"/><path class="cls-13" d="M286.53,150.55C260.85,135.72,240,99.66,240,70s20.82-41.67,46.5-26.84S333,94.05,333,123.7,312.21,165.37,286.53,150.55Z"/><path class="cls-14" d="M252.75,70c0,25.12,18.38,57,40.14,69.53,5.26,3,10.24,4.64,14.41,4.64a10.64,10.64,0,0,0,9.37-5c3.15-4.74,3.63-11.67,3.63-15.47,0-25.13-18.37-57-40.13-69.53-5.27-3-10.25-4.65-14.41-4.65-.26,0-.51,0-.76,0C254,50.16,252.75,64,252.75,70Z"/><path class="cls-8" d="M261.36,65c0,25.12,18.38,57,40.14,69.52,5.26,3,10.25,4.65,14.4,4.65.26,0,.52,0,.77,0,3.15-4.74,3.63-11.67,3.63-15.47,0-25.13-18.37-57-40.13-69.53-5.27-3-10.25-4.65-14.41-4.65-.26,0-.51,0-.76,0C261.84,54.3,261.36,61.23,261.36,65Z"/><path class="cls-3" d="M292.54,88.75l8.4-4.49c.66-.36,1.57,1.32,1.16,2.13l-5.29,10.23Z"/><path class="cls-3" d="M293.92,100l-8.4,4.5c-.66.35-1.57-1.33-1.15-2.13l5.28-10.23Z"/><path class="cls-3" d="M289.06,88.93l1.65-21c.12-1.66,1.82-.8,2.15,1.09L297,93Z"/><path class="cls-3" d="M297.4,99.8l-1.64,21c-.13,1.65-1.83.8-2.16-1.09l-4.16-24Z"/><path class="cls-3" d="M295.2,89.59l15.32,12c1.21.94,1.35,3.47.18,3.21l-14.84-3.29Z"/><path class="cls-3" d="M291.27,99.14,276,87.2c-1.21-.94-1.35-3.48-.18-3.22l14.83,3.29Z"/><path class="cls-9" d="M276,87.2l11.58,9-3.16,6.12c-.42.8.49,2.48,1.15,2.13l5-2.66,3.11,17.92c.33,1.89,2,2.74,2.16,1.09l1.49-19.06,13.45,3c1.17.26,1-2.27-.18-3.21l-11.58-9,3.16-6.12c.41-.81-.5-2.49-1.16-2.13l-5,2.66L292.86,69c-.33-1.89-2-2.75-2.15-1.09l-1.49,19-13.45-3C274.6,83.72,274.74,86.26,276,87.2Zm16.52,10.11L291,94.63l-.27-4.85L294,91.42l1.46,2.69.27,4.85Z"/><path class="cls-3" d="M289.44,93.31l-7.44-18c-.59-1.42.26-2.33,1.07-1.16L293.42,89Z"/><path class="cls-3" d="M297,95.42l7.45,18c.58,1.41-.27,2.33-1.08,1.16L293.06,99.69Z"/><path class="cls-8" d="M299,97.26c-.26-4.72-3-9.83-6.19-11.42s-5.51.93-5.25,5.64,3,9.82,6.2,11.42S299.22,102,299,97.26Z"/><path class="cls-3" d="M299,97.26c-.26-4.72-3-9.83-6.19-11.42s-5.51.93-5.25,5.64,3,9.82,6.2,11.42S299.22,102,299,97.26Z"/><path class="cls-15" d="M299,97.26c-.26-4.72-3-9.83-6.19-11.42s-5.51.93-5.25,5.64,3,9.82,6.2,11.42S299.22,102,299,97.26Z"/><path class="cls-3" d="M296.92,96.23c-.17-3-2-6.34-4-7.37s-3.55.6-3.38,3.64,2,6.34,4,7.37S297.09,99.27,296.92,96.23Z"/><path class="cls-8" d="M285.4,30.11h5a16.25,16.25,0,0,1,9.42,0h5v6.71h0c.16,1.55-.77,3.13-2.82,4.31a15.21,15.21,0,0,1-13.78,0c-2.05-1.18-3-2.76-2.83-4.32h0Z"/><path class="cls-14" d="M285.4,30.11h5a16.25,16.25,0,0,1,9.42,0h5v6.71h0c.16,1.55-.77,3.13-2.82,4.31a15.21,15.21,0,0,1-13.78,0c-2.05-1.18-3-2.76-2.83-4.32h0Z"/><path class="cls-8" d="M302,26.14c3.8,2.19,3.8,5.75,0,8a15.21,15.21,0,0,1-13.78,0c-3.8-2.2-3.8-5.76,0-8A15.21,15.21,0,0,1,302,26.14Z"/><path class="cls-12" d="M281.17,23.17h7.05a22.59,22.59,0,0,1,13.18,0h7.05v4.21h0c.22,2.18-1.08,4.39-4,6.05-5.33,3.08-14,3.08-19.29,0-2.87-1.66-4.18-3.87-4-6.05h0Z"/><path class="cls-13" d="M304.45,17.6c5.33,3.07,5.33,8.06,0,11.13s-14,3.08-19.29,0-5.33-8.07,0-11.14S299.13,14.52,304.45,17.6Z"/><path class="cls-13" d="M301.7,38a.71.71,0,0,0,.28-.06A19.65,19.65,0,0,0,294.81,0a.78.78,0,0,0-.78.77.77.77,0,0,0,.78.77,18.11,18.11,0,0,1,6.61,35A.77.77,0,0,0,301.7,38Z"/></g><g id="Character"><path class="cls-3" d="M395.4,189c2.39,0,4.53,2.15,4.53,8.34s.49,11.14-3.31,11.14Z"/><path class="cls-16" d="M395.4,189c2.39,0,4.53,2.15,4.53,8.34s.49,11.14-3.31,11.14Z"/><path class="cls-3" d="M373.38,183.42h15.71a7.53,7.53,0,0,1,7.53,7.53v36.13a7.53,7.53,0,0,1-7.53,7.53H373.38a7.53,7.53,0,0,1-7.53-7.53V191a7.54,7.54,0,0,1,7.54-7.54Z" transform="translate(762.46 418.03) rotate(-180)"/><path class="cls-4" d="M373.38,183.42h15.71a7.53,7.53,0,0,1,7.53,7.53v36.13a7.53,7.53,0,0,1-7.53,7.53H373.38a7.53,7.53,0,0,1-7.53-7.53V191a7.54,7.54,0,0,1,7.54-7.54Z" transform="translate(762.46 418.03) rotate(-180)"/><path class="cls-17" d="M362.88,205.32h-13.2l3.86-14.16a6.65,6.65,0,0,1,6.42-4.9h2.92Z"/><path class="cls-18" d="M391.87,215.5c-2.29-5.32-5.8-13.43-5.8-13.43l-1.51,3.4s-4.22-3.69-4.49-8.33c-.5-8.73,5.7-9.77,5.7-9.77,2.83.31,5.65.66,8,7,1.79,4.82,5.22,16.36,6.74,21.55a3.91,3.91,0,0,1-1.48,4.28"/><path class="cls-14" d="M368.41,179.93h3.73a13.56,13.56,0,0,0,13.56-13.56h0A15.42,15.42,0,0,0,370.27,151h0a15.42,15.42,0,0,0-15.42,15.42h0A13.56,13.56,0,0,0,368.41,179.93Z"/><path class="cls-14" d="M404.47,301.31c1.18-.61,1.93.89,3,2.09a9,9,0,0,1,2.1,3.15c.25,1.42-1,3.66-2.45,4.9s-3.07,2.12-3.59,4.82a6.56,6.56,0,0,1-4.37,5.53c-3.08,1.33-7.2.91-8.6,0-1.65-1.06-.14-2.24,2.18-5.56,3-4.33,5.39-7.43,5.39-11.47Z"/><path class="cls-18" d="M402.05,297.76l2.48,3.64a3.49,3.49,0,0,1-.84,4.86l-.07.05a3.76,3.76,0,0,1-4.76-.74L395,301.34Z"/><path class="cls-3" d="M354.56,231.72c-.16,4.64,1.81,18.45,5.2,27.34a83.17,83.17,0,0,0,7.05,14.49c1,1.73,30.1,30.05,30.1,30.05s4.94-.36,5.73-5.15c0,0-11.92-20.26-14.5-24.41s-11.73-10.53-11.73-10.53l.83-36.35Z"/><path class="cls-9" d="M354.56,231.72c-.16,4.64,1.81,18.45,5.2,27.34a83.17,83.17,0,0,0,7.05,14.49c1,1.73,30.1,30.05,30.1,30.05s4.94-.36,5.73-5.15c0,0-11.92-20.26-14.5-24.41s-11.73-10.53-11.73-10.53l.83-36.35Z"/><rect class="cls-18" x="357.58" y="315.83" width="6.31" height="9.19" transform="translate(80.02 -72) rotate(12.81)"/><path class="cls-3" d="M359.93,226.64l26.17,1a25.3,25.3,0,0,1,2.2,12.4c-.88,12.76-13,35.59-13,35.59.15,1.74.88,9-.77,15.48-2.61,10.19-9.72,27.43-9.72,27.43s-4.45.63-6.66-1.94c0,0,3.93-35,5-44,1.15-9.7,4.1-27.42,4.1-27.42A44.46,44.46,0,0,1,362,238.9c-4.7-6.49-4-12.26-4-12.26"/><path class="cls-9" d="M359.93,226.64l26.17,1a25.3,25.3,0,0,1,2.2,12.4c-.88,12.76-13,35.59-13,35.59.15,1.74.88,9-.77,15.48-2.61,10.19-9.72,27.43-9.72,27.43s-4.45.63-6.66-1.94c0,0,3.93-35,5-44,1.15-9.7,4.1-27.42,4.1-27.42A44.46,44.46,0,0,1,362,238.9c-4.7-6.49-4-12.26-4-12.26"/><path class="cls-14" d="M357.33,321.16l.2-.87c-.64.12-3.4,4.7-6.14,6.69-3,2.19-5.6,3.48-6.94,4.46-1.8,1.31.8,4,5.21,4.25,2.19.12,6.18-.55,7.41-1.72s2.12-3.09,3.09-3.93,2.94-1.57,3.61-2.65a7.45,7.45,0,0,0,.38-3.31c0-1.15-.07-2.41-.46-2.4,0,.14-.16.67-.16.67a7.52,7.52,0,0,1-3.74.83C358.75,323.13,356.82,322.89,357.33,321.16Z"/><path class="cls-3" d="M363.94,266.71s2.62-18.6,3.32-21.48c0,0-4.22-2.35-5.83-4.17a47.61,47.61,0,0,0,4,5Z"/><path class="cls-15" d="M363.94,266.71s2.62-18.6,3.32-21.48c0,0-4.22-2.35-5.83-4.17a47.61,47.61,0,0,0,4,5Z"/><path class="cls-3" d="M379.73,266.09s-3.14,7.84-4.41,9.57c0,0,.32,6,.27,7.18l1.65,1.44a37.24,37.24,0,0,0-.74-8A48.64,48.64,0,0,0,379.73,266.09Z"/><path class="cls-15" d="M379.73,266.09s-3.14,7.84-4.41,9.57c0,0,.32,6,.27,7.18l1.65,1.44a37.24,37.24,0,0,0-.74-8A48.64,48.64,0,0,0,379.73,266.09Z"/><path class="cls-6" d="M376.55,185.86s8.14,1,9.22,1.51c-5.41,5.48-1.21,18.1-1.21,18.1L380,218.05c3.19,5.07,6,8.27,7.35,13.08-2.37,2.75-16.58,11-32.81.59,0,0,.95-9.13,2.31-16-2.34-11.21-3-15.15-2.31-17.77,1.9-7.38,6.27-12.1,11.28-12.37Z"/><path class="cls-18" d="M359.92,158.07c-1.63,1-3.64,5.06-3.44,13.65.16,7.28,2.52,9.08,3.71,9.6s3.47.2,5.69-.17v4.37s-3.07,3.56-2.88,5.57,4.44,2.47,7.31.52a23.26,23.26,0,0,0,5.29-5.78l-.05-10s1.31,1.27,3.53-.67c1.83-1.6,2.44-4.3,1-5.74a3.19,3.19,0,0,0-5.08,1,17.51,17.51,0,0,1-8.26-2.47A13.26,13.26,0,0,1,359.92,158.07Z"/><path class="cls-14" d="M364.6,169.89a.92.92,0,1,0,1-.91A1,1,0,0,0,364.6,169.89Z"/><path class="cls-17" d="M364.36,176.06l-2.13.68a1.1,1.1,0,0,0,1.39.76A1.16,1.16,0,0,0,364.36,176.06Z"/><path class="cls-14" d="M357.1,167.08,359,165.8a1.09,1.09,0,0,0-1.54-.32A1.18,1.18,0,0,0,357.1,167.08Z"/><path class="cls-14" d="M357.52,169.23a.94.94,0,0,0,.87,1,.92.92,0,0,0,1-.9.93.93,0,0,0-.86-1A.94.94,0,0,0,357.52,169.23Z"/><polygon class="cls-17" points="361.84 168.71 361.7 174.22 358.8 173.32 361.84 168.71"/><path class="cls-17" d="M365.88,181.15c2.34-.31,7.16-1.69,7.91-3.6A4.91,4.91,0,0,1,372.1,180c-1.44,1.24-6.22,2.63-6.22,2.63Z"/><polygon class="cls-3" points="382.46 211.34 376.05 220.03 380.02 218.05 382.46 211.34"/><polygon class="cls-19" points="382.46 211.34 376.05 220.03 380.02 218.05 382.46 211.34"/><path class="cls-18" d="M373.71,225.17a.5.5,0,0,0-.15-.31c-.73-.86-3.21-2.65-3.37-3.09s1.18-.85,3.41-.5,6.61,1.59,9.44,1.41c1.85-.12,6.09-4.29,8.83-7.18l7.17,4.69c-4.64,3.33-11.13,7.21-14.3,8.27s-5.52,2.76-9.08,3.4"/><polygon class="cls-13" points="370.59 201.06 358.15 203.96 350.16 196.98 339.88 199.56 332.22 192.27 345.68 226.51 350.16 230.41 358.34 230.06 366.07 236.36 374.86 234.42 370.59 201.06"/><polygon class="cls-12" points="350.16 196.98 358.34 230.06 366.07 236.36 358.15 203.96 350.16 196.98"/><polygon class="cls-12" points="339.88 199.56 332.22 192.27 345.68 226.51 350.16 230.41 339.88 199.56"/><path class="cls-14" d="M382.45,158.88h2.46a6.17,6.17,0,0,1,6.17,6.17v18.82a0,0,0,0,1,0,0h-2.46a6.17,6.17,0,0,1-6.17-6.17V158.88A0,0,0,0,1,382.45,158.88Z" transform="translate(773.54 342.74) rotate(-180)"/><path class="cls-3" d="M383.9,186.93s-2.87,2.12-3,11.32a31,31,0,0,0,4.82,16.41V220s-7.79-6.8-9.65-16.9c-2.1-11.44,1-17.2,1-17.2C377.15,185.14,384,186.15,383.9,186.93Z"/><path class="cls-16" d="M383.9,186.93s-2.87,2.12-3,11.32a31,31,0,0,0,4.82,16.41V220s-7.79-6.8-9.65-16.9c-2.1-11.44,1-17.2,1-17.2C377.15,185.14,384,186.15,383.9,186.93Z"/><path class="cls-3" d="M356.46,192.83s4.31-6.09,9.42-7.31a7.67,7.67,0,0,0-5.56.57A12.67,12.67,0,0,0,356.46,192.83Z"/><path class="cls-16" d="M356.46,192.83s4.31-6.09,9.42-7.31a7.67,7.67,0,0,0-5.56.57A12.67,12.67,0,0,0,356.46,192.83Z"/><path class="cls-18" d="M364.4,227.33c.35-1.18,2,0,4.94-.43,2.55-.36,4.43-1,4.37-1.73l2,6.69a15.5,15.5,0,0,1-2.64.24C367.93,232.14,364.05,228.51,364.4,227.33Z"/></g><g id="Cloud"><path class="cls-8" d="M134.27,57.6l8.57,4.95a8.68,8.68,0,0,1-.07-1.13V58.93c0-4.41,3.1-6.21,6.92-4a13.52,13.52,0,0,1,4.13,4c.63-5.55,5-7.62,10.28-4.56,5.73,3.3,10.37,11.34,10.37,18V76a9.8,9.8,0,0,1-.88,4.31l7.12,4.11a8.48,8.48,0,0,1,3.84,6.65c0,2.45-1.72,3.45-3.84,2.22L134.27,66.48a8.5,8.5,0,0,1-3.85-6.66C130.42,57.37,132.14,56.38,134.27,57.6Z"/></g></g></svg>