<svg xmlns="http://www.w3.org/2000/svg" viewBox="0 0 468.41 410.07"><defs><style>.cls-1{fill:#ebebeb;}.cls-2{fill:#fafafa;}.cls-3{fill:#e0e0e0;}.cls-4{fill:#263238;}.cls-5{fill:#7bb732;}.cls-6{fill:#026a9d;}.cls-7{fill:#2c3f51;}.cls-8{fill:#ffbe9d;}.cls-9{fill:#eb996e;}.cls-10{fill:#455a64;}.cls-11{opacity:0.3;}.cls-12{fill:#529127;}</style></defs><title>upload-estate-success</title><g id="Capa_2" data-name="Capa 2"><g id="Background_Complete" data-name="Background Complete"><rect class="cls-1" x="325.85" y="8.9" width="105.35" height="99.92" rx="6.79" transform="translate(-3.77 83.25) rotate(-12.49)"/><path class="cls-2" d="M392.91,54.25a13.16,13.16,0,1,1-15.72-10A13.16,13.16,0,0,1,392.91,54.25Z"/><path class="cls-3" d="M386,50.77a12.28,12.28,0,0,1-1.2,2.44c-.81,1.47-2,3.48-3.28,5.68l-1.41,2.34-.14.24-.25-.13A42.77,42.77,0,0,1,374.08,58,44.51,44.51,0,0,1,380,60.81l-.39.11L381,58.57c1.31-2.2,2.52-4.17,3.43-5.58A11.5,11.5,0,0,1,386,50.77Z"/><path class="cls-3" d="M56.36,149.9C54.51,143.37,46,144,46,144l.23,4.55c4.91-.85,8,4.9,8,4.9Z"/><path class="cls-3" d="M181.05,74.47c9.85,3,16-8.38,16-8.38l-6-3.41c-2.93,7-12.76,6.15-12.76,6.15Z"/><path class="cls-3" d="M262.81,135.45c-1.9-5.43-9.05-4.45-9.05-4.45l.43,3.84c4.11-1,7,3.73,7,3.73Z"/><path class="cls-3" d="M149.84,8.21c-1.91-5.43-9.06-4.45-9.06-4.45l.43,3.83c4.11-1,7,3.74,7,3.74Z"/><path class="cls-1" d="M64.49,77.72c-1.9-5.44-9-4.45-9-4.45l.43,3.83c4.11-1,7,3.73,7,3.73Z"/><path class="cls-1" d="M46.56,26.93c-5.68.94-6,8.15-6,8.15l3.85.24c-.25-4.22,4.89-6.24,4.89-6.24Z"/><path class="cls-1" d="M5.66,195.92c9.85,3,16-8.38,16-8.38l-6-3.41c-2.93,7-12.77,6.15-12.77,6.15Z"/><path class="cls-3" d="M286.27,75.1c.67-4.56-4.77-6.52-4.77-6.52l-1.11,2.88c3.27.83,3.57,5.24,3.57,5.24Z"/><path class="cls-1" d="M253.53,25c-3.84,2.55-1.67,7.91-1.67,7.91l2.89-1.1c-1.57-3,1.52-6.16,1.52-6.16Z"/></g><g id="Desk"><path class="cls-4" d="M458.15,409.69c0,.15-102.57.26-229.07.26S0,409.84,0,409.69s102.55-.26,229.08-.26S458.15,409.55,458.15,409.69Z"/></g><g id="Screen"><rect class="cls-2" x="16.83" y="101.36" width="243.85" height="190.9"/><path class="cls-4" d="M260.68,292.26c0-1.8-.08-75.74-.21-190.9l.21.22-243.83,0h0l.26-.26c0,68.84,0,133.94,0,190.9l-.23-.24,243.85.24-243.85.23H16.6v-.23c0-57,0-122.06,0-190.9v-.26h.28l243.83.05h.22v.21C260.77,216.52,260.69,290.47,260.68,292.26Z"/><path class="cls-5" d="M139.06,220.56a19.38,19.38,0,1,1,19.39-19.38A19.4,19.4,0,0,1,139.06,220.56Zm0-36.76a17.38,17.38,0,1,0,17.39,17.38A17.4,17.4,0,0,0,139.06,183.8Z"/><path class="cls-5" d="M137.66,207.15a1,1,0,0,1-.66-.25,65.92,65.92,0,0,1-5-4.63,1,1,0,0,1,1.65-1.13c.27.34,2.11,2,3.95,3.66l9.82-9.32a1,1,0,0,1,1.37,1.45l-10.47,9.95A1,1,0,0,1,137.66,207.15Z"/><path class="cls-4" d="M260.68,120c0,.14-54.45.26-121.61.26S17.44,120.15,17.44,120s54.45-.26,121.63-.26S260.68,119.87,260.68,120Z"/><circle class="cls-4" cx="25.46" cy="110.42" r="1.42"/><circle class="cls-4" cx="30.74" cy="110.42" r="1.42"/><path class="cls-4" d="M37.36,110.42A1.42,1.42,0,1,1,35.94,109,1.43,1.43,0,0,1,37.36,110.42Z"/><circle class="cls-6" cx="128.75" cy="153.67" r="1.85"/><path class="cls-5" d="M111.15,156.16a5.63,5.63,0,0,0-5.65,5.61v0a5.7,5.7,0,0,0,5.72,5.61h5.21a.35.35,0,0,0,.35-.34v-5.21a5.69,5.69,0,0,0-5.63-5.71Zm0,7.57a1.93,1.93,0,1,1,1.93-1.93A1.93,1.93,0,0,1,111.13,163.73Z"/><path class="cls-6" d="M149.69,163.75a2,2,0,1,1,1.88-2.56.35.35,0,0,0,.33.24h3a.35.35,0,0,0,.35-.35v0a5.64,5.64,0,1,0,0,1.5.36.36,0,0,0-.3-.39H151.9a.34.34,0,0,0-.32.25A2,2,0,0,1,149.69,163.75Z"/><path class="cls-6" d="M162.13,156.13a5.65,5.65,0,1,0,3,10.38v.57a.35.35,0,0,0,.35.34h1.88a.35.35,0,0,0,.35-.34v-5.23a5.7,5.7,0,0,0-5.57-5.72Zm.12,7.62a2,2,0,1,1,1.77-2.18,1.41,1.41,0,0,1,0,.41A2,2,0,0,1,162.25,163.75Z"/><path class="cls-6" d="M137.43,156.13a5.7,5.7,0,0,0-3.16.91v-.59a.31.31,0,0,0-.31-.31H132a.35.35,0,0,0-.34.35v10.63a.31.31,0,0,0,.3.3h3a.35.35,0,0,0,.35-.34v-5.25a2,2,0,0,1,1.91-2,2,2,0,0,1,2,1.91v5.38a.34.34,0,0,0,.34.34h3a.35.35,0,0,0,.35-.34v-5.22a5.71,5.71,0,0,0-5.56-5.74Z"/><path class="cls-6" d="M127.24,156.15h3a.35.35,0,0,1,.35.35v10.58a.35.35,0,0,1-.35.34h-3a.34.34,0,0,1-.34-.34V156.5A.35.35,0,0,1,127.24,156.15Z"/><circle class="cls-5" cx="170.77" cy="165.57" r="1.85"/><path class="cls-6" d="M121.76,162h3.76a.29.29,0,0,0,.3-.3v-3.1a.29.29,0,0,0-.3-.3h-3.75a.29.29,0,0,1-.3-.29v-.56h0c0-.05,0-.08,0-.12a1.83,1.83,0,0,1,1.79-1.85h2.25a.29.29,0,0,0,.3-.29v-3.09a.29.29,0,0,0-.3-.29h-2.19a5.64,5.64,0,0,0-5.53,5.64v9.67a.29.29,0,0,0,.29.29h3.08a.29.29,0,0,0,.3-.29v-4.84A.29.29,0,0,1,121.76,162Z"/><path class="cls-7" d="M65.29,240.54h1.47l.75,7.15-3,0Zm-.58-1.1v-2.58h2.63v2.58Z"/><path class="cls-7" d="M71.74,244.8v-9.36H68.17v-2h9.66v2H74.26v9.36Z"/><path class="cls-7" d="M80.7,244.92a2.92,2.92,0,0,1-2.28-.84,3.78,3.78,0,0,1-.75-2.56v-4.84h2.42v4.88a1.67,1.67,0,0,0,.31,1.12,1.22,1.22,0,0,0,1,.36,1.53,1.53,0,0,0,1.2-.52,1.93,1.93,0,0,0,.46-1.36v-4.48h2.43v8.12H83.11v-1.62l.21,0a2.7,2.7,0,0,1-1,1.28A2.84,2.84,0,0,1,80.7,244.92Z"/><path class="cls-7" d="M95.1,244.92a3.49,3.49,0,0,1-1.88-.51A3.38,3.38,0,0,1,92,243a5.64,5.64,0,0,1,0-4.44A3.55,3.55,0,0,1,93.23,237a3.36,3.36,0,0,1,1.87-.53,3.11,3.11,0,0,1,1.72.48,2.42,2.42,0,0,1,1,1.29l-.19.13v-1.7H100v8.12H97.66v-1.67l.19,0a2.33,2.33,0,0,1-1,1.3A3.19,3.19,0,0,1,95.1,244.92Zm.7-1.84a1.67,1.67,0,0,0,1.37-.6,3.42,3.42,0,0,0,0-3.53,1.82,1.82,0,0,0-2.75,0,2.79,2.79,0,0,0-.51,1.78,2.64,2.64,0,0,0,.49,1.73A1.69,1.69,0,0,0,95.8,243.08Z"/><path class="cls-7" d="M102,244.8V239c0-.38,0-.77,0-1.16a11.37,11.37,0,0,0-.11-1.16h2.28l.17,1.59-.17,0a3.05,3.05,0,0,1,1.16-1.32,3.22,3.22,0,0,1,1.72-.45c1.9,0,2.86,1.13,2.86,3.4v4.92h-2.42V240a2,2,0,0,0-.31-1.25,1.18,1.18,0,0,0-1-.39,1.67,1.67,0,0,0-1.28.52,1.92,1.92,0,0,0-.48,1.37v4.55Z"/><path class="cls-7" d="M114.76,244.92a2.89,2.89,0,0,1-2.27-.84,3.78,3.78,0,0,1-.75-2.56v-4.84h2.41v4.88a1.72,1.72,0,0,0,.31,1.12,1.22,1.22,0,0,0,1,.36,1.53,1.53,0,0,0,1.2-.52,1.94,1.94,0,0,0,.47-1.36v-4.48h2.43v8.12h-2.35v-1.62l.2,0a2.7,2.7,0,0,1-1,1.28A2.79,2.79,0,0,1,114.76,244.92Z"/><path class="cls-7" d="M121.48,244.8V239c0-.38,0-.77,0-1.16s-.06-.77-.11-1.16h2.27l.18,1.59-.18,0a3.19,3.19,0,0,1,1.16-1.32,3.27,3.27,0,0,1,1.72-.45q2.87,0,2.87,3.4v4.92H127V240a2,2,0,0,0-.31-1.25,1.2,1.2,0,0,0-1-.39,1.65,1.65,0,0,0-1.27.52,1.88,1.88,0,0,0-.48,1.37v4.55Z"/><path class="cls-7" d="M135.11,244.92a4.78,4.78,0,0,1-2.27-.51,3.41,3.41,0,0,1-1.46-1.45,4.54,4.54,0,0,1-.51-2.21,4.4,4.4,0,0,1,.55-2.24,3.78,3.78,0,0,1,1.52-1.5,4.74,4.74,0,0,1,2.28-.53,5.49,5.49,0,0,1,1.7.27,3.79,3.79,0,0,1,1.34.73l-.64,1.68a4.2,4.2,0,0,0-1.05-.6,3.3,3.3,0,0,0-1.12-.21,2,2,0,0,0-1.54.59,2.48,2.48,0,0,0-.56,1.76,2.58,2.58,0,0,0,.55,1.78,2,2,0,0,0,1.55.59,3.3,3.3,0,0,0,1.12-.21,3.47,3.47,0,0,0,1.05-.61l.64,1.68a3.79,3.79,0,0,1-1.37.73A5.85,5.85,0,0,1,135.11,244.92Z"/><path class="cls-7" d="M139.32,232.88h2.61v2.27h-2.61Zm.1,11.92v-8.12h2.41v8.12Z"/><path class="cls-7" d="M147.67,244.92a4.78,4.78,0,0,1-2.27-.51,3.59,3.59,0,0,1-1.48-1.46,4.62,4.62,0,0,1-.52-2.25,4.55,4.55,0,0,1,.52-2.24A3.59,3.59,0,0,1,145.4,237a4.67,4.67,0,0,1,2.27-.52,4.6,4.6,0,0,1,2.24.52,3.59,3.59,0,0,1,1.48,1.46,4.55,4.55,0,0,1,.52,2.24,4.62,4.62,0,0,1-.52,2.25,3.59,3.59,0,0,1-1.48,1.46A4.72,4.72,0,0,1,147.67,244.92Zm0-1.84a1.65,1.65,0,0,0,1.36-.58,2.81,2.81,0,0,0,.48-1.8,2.76,2.76,0,0,0-.48-1.78,1.66,1.66,0,0,0-1.36-.59,1.69,1.69,0,0,0-1.38.59,2.7,2.7,0,0,0-.49,1.78,2.81,2.81,0,0,0,.48,1.8A1.69,1.69,0,0,0,147.67,243.08Z"/><path class="cls-7" d="M158,244.8V233h2.42v5.31l-.28-.08a3.19,3.19,0,0,1,1.16-1.32,3.27,3.27,0,0,1,1.72-.45q2.86,0,2.87,3.4v4.92h-2.42V240a2,2,0,0,0-.31-1.25,1.19,1.19,0,0,0-1-.39,1.67,1.67,0,0,0-1.28.52,1.92,1.92,0,0,0-.48,1.37v4.55Z"/><path class="cls-7" d="M170.94,244.92a3.49,3.49,0,0,1-1.88-.51A3.38,3.38,0,0,1,167.8,243a5.64,5.64,0,0,1,0-4.44,3.55,3.55,0,0,1,1.26-1.51,3.36,3.36,0,0,1,1.87-.53,3.11,3.11,0,0,1,1.72.48,2.42,2.42,0,0,1,1,1.29l-.19.13v-1.7h2.38v8.12H173.5v-1.67l.19,0a2.33,2.33,0,0,1-1,1.3A3.19,3.19,0,0,1,170.94,244.92Zm.7-1.84a1.67,1.67,0,0,0,1.37-.6,3.42,3.42,0,0,0,0-3.53,1.82,1.82,0,0,0-2.75,0,2.79,2.79,0,0,0-.51,1.78,2.64,2.64,0,0,0,.49,1.73A1.69,1.69,0,0,0,171.64,243.08Z"/><path class="cls-7" d="M185.45,244.92a6.08,6.08,0,0,1-3.67-1l.66-1.68a4.78,4.78,0,0,0,1.43.71,5.17,5.17,0,0,0,1.59.25,1.81,1.81,0,0,0,1-.2.6.6,0,0,0,.34-.55.54.54,0,0,0-.24-.47,2.54,2.54,0,0,0-.85-.31l-1.33-.32a3.33,3.33,0,0,1-1.73-.8,2,2,0,0,1-.55-1.49,2.14,2.14,0,0,1,.44-1.34,3,3,0,0,1,1.22-.92,4.65,4.65,0,0,1,1.82-.33,5.35,5.35,0,0,1,1.7.26,5.61,5.61,0,0,1,1.49.74l-.67,1.62a5.2,5.2,0,0,0-1.28-.66,3.79,3.79,0,0,0-1.25-.22,1.73,1.73,0,0,0-.93.21.66.66,0,0,0-.34.57.54.54,0,0,0,.2.44,2,2,0,0,0,.72.28l1.36.31a3.6,3.6,0,0,1,1.8.86,2.32,2.32,0,0,1-.36,3.36A4.2,4.2,0,0,1,185.45,244.92Z"/><path class="cls-7" d="M190.3,232.88h2.6v2.27h-2.6Zm.09,11.92v-8.12h2.42v8.12Z"/><path class="cls-7" d="M202.9,244.8h-2.38v-2l.19.35a2.32,2.32,0,0,1-1,1.3,3.22,3.22,0,0,1-1.73.46,3.28,3.28,0,0,1-1.87-.53,3.63,3.63,0,0,1-1.26-1.49,5.16,5.16,0,0,1-.45-2.23,5.1,5.1,0,0,1,.44-2.21,3.37,3.37,0,0,1,3.14-2,3.15,3.15,0,0,1,1.73.48,2.47,2.47,0,0,1,1,1.29l-.22.29V233h2.41Zm-4.24-1.72a1.66,1.66,0,0,0,1.37-.6,2.78,2.78,0,0,0,.49-1.78A2.71,2.71,0,0,0,200,239a1.62,1.62,0,0,0-1.37-.63,1.71,1.71,0,0,0-1.4.61,3.35,3.35,0,0,0,0,3.52A1.66,1.66,0,0,0,198.66,243.08Z"/><path class="cls-7" d="M208.73,244.92a4.73,4.73,0,0,1-2.27-.51A3.53,3.53,0,0,1,205,243a4.62,4.62,0,0,1-.52-2.25,4.55,4.55,0,0,1,.52-2.24,3.53,3.53,0,0,1,1.48-1.46,5.15,5.15,0,0,1,4.51,0,3.59,3.59,0,0,1,1.48,1.46,4.66,4.66,0,0,1,.52,2.24,4.73,4.73,0,0,1-.52,2.25,3.59,3.59,0,0,1-1.48,1.46A4.72,4.72,0,0,1,208.73,244.92Zm0-1.84a1.67,1.67,0,0,0,1.36-.58,2.81,2.81,0,0,0,.48-1.8,2.76,2.76,0,0,0-.48-1.78,1.67,1.67,0,0,0-1.36-.59,1.72,1.72,0,0,0-1.39.59,2.76,2.76,0,0,0-.48,1.78,2.81,2.81,0,0,0,.48,1.8A1.67,1.67,0,0,0,208.73,243.08Z"/><path class="cls-7" d="M61.94,266.25V257c0-.38,0-.77,0-1.16s-.05-.77-.1-1.15h2.27l.17,1.56h-.09a2.32,2.32,0,0,1,1-1.29,3.1,3.1,0,0,1,1.73-.48,3.36,3.36,0,0,1,1.87.53A3.64,3.64,0,0,1,70,256.52a5.08,5.08,0,0,1,.46,2.23A5,5,0,0,1,70,261a3.47,3.47,0,0,1-1.27,1.45,3.43,3.43,0,0,1-1.87.51,3.17,3.17,0,0,1-1.73-.46,2.24,2.24,0,0,1-1-1.3l.19-.3v5.39Zm4.28-5.17a1.68,1.68,0,0,0,1.37-.59,2.75,2.75,0,0,0,.48-1.74,2.85,2.85,0,0,0-.49-1.78,1.63,1.63,0,0,0-1.36-.64,1.68,1.68,0,0,0-1.4.62,2.83,2.83,0,0,0-.48,1.77,2.79,2.79,0,0,0,.48,1.76A1.69,1.69,0,0,0,66.22,261.08Z"/><path class="cls-7" d="M75,262.92a2.89,2.89,0,0,1-2.27-.84,3.78,3.78,0,0,1-.75-2.56v-4.83h2.41v4.88a1.65,1.65,0,0,0,.32,1.11,1.19,1.19,0,0,0,1,.36,1.55,1.55,0,0,0,1.2-.51,2,2,0,0,0,.47-1.37v-4.47H79.8v8.11H77.45v-1.62l.21,0a2.8,2.8,0,0,1-1,1.29A2.87,2.87,0,0,1,75,262.92Z"/><path class="cls-7" d="M81.75,262.8V251h2.42v5.52l-.19-.29A2.39,2.39,0,0,1,85,255a3.1,3.1,0,0,1,1.73-.48,3.35,3.35,0,0,1,1.87.52,3.57,3.57,0,0,1,1.27,1.46,5,5,0,0,1,.46,2.21,5,5,0,0,1-.46,2.23,3.72,3.72,0,0,1-1.27,1.49,3.28,3.28,0,0,1-1.87.53,3.17,3.17,0,0,1-1.73-.46,2.24,2.24,0,0,1-1-1.3l.17-.35v2ZM86,261.08a1.62,1.62,0,0,0,1.37-.62,2.83,2.83,0,0,0,.49-1.79,2.74,2.74,0,0,0-.48-1.73,1.67,1.67,0,0,0-1.38-.61,1.65,1.65,0,0,0-1.39.63,2.77,2.77,0,0,0-.48,1.74,2.84,2.84,0,0,0,.48,1.78A1.68,1.68,0,0,0,86,261.08Z"/><path class="cls-7" d="M91.86,262.8V251h2.42V262.8Z"/><path class="cls-7" d="M96.15,250.88h2.61v2.27H96.15Zm.1,11.92v-8.11h2.41v8.11Z"/><path class="cls-7" d="M104.47,262.92a4.78,4.78,0,0,1-2.27-.51,3.41,3.41,0,0,1-1.46-1.45,4.54,4.54,0,0,1-.51-2.21,4.4,4.4,0,0,1,.55-2.24,3.78,3.78,0,0,1,1.52-1.5,4.74,4.74,0,0,1,2.28-.53,5.49,5.49,0,0,1,1.7.27,3.66,3.66,0,0,1,1.34.74l-.64,1.67a3.88,3.88,0,0,0-1-.59,3.09,3.09,0,0,0-1.12-.22,2,2,0,0,0-1.54.59,2.5,2.5,0,0,0-.56,1.76,2.58,2.58,0,0,0,.55,1.78,2,2,0,0,0,1.55.59,3.3,3.3,0,0,0,1.12-.21,3.47,3.47,0,0,0,1-.61l.64,1.68a3.64,3.64,0,0,1-1.37.73A5.85,5.85,0,0,1,104.47,262.92Z"/><path class="cls-7" d="M112,262.92a3.43,3.43,0,0,1-1.87-.51,3.34,3.34,0,0,1-1.27-1.45,5.1,5.1,0,0,1-.44-2.21,5.22,5.22,0,0,1,.45-2.23,3.62,3.62,0,0,1,1.26-1.51,3.36,3.36,0,0,1,1.87-.53,3.15,3.15,0,0,1,1.73.48,2.4,2.4,0,0,1,1,1.29l-.19.13v-1.69h2.38v8.11h-2.38v-1.67l.19,0a2.32,2.32,0,0,1-1,1.3A3.22,3.22,0,0,1,112,262.92Zm.7-1.84a1.66,1.66,0,0,0,1.37-.6,2.73,2.73,0,0,0,.49-1.76A2.76,2.76,0,0,0,114,257a1.64,1.64,0,0,0-1.37-.62,1.68,1.68,0,0,0-1.38.64,2.79,2.79,0,0,0-.51,1.78,2.75,2.75,0,0,0,.49,1.74A1.73,1.73,0,0,0,112.66,261.08Z"/><path class="cls-7" d="M127,262.8H124.6v-2l.19.35a2.32,2.32,0,0,1-1,1.3,3.22,3.22,0,0,1-1.73.46,3.3,3.3,0,0,1-1.87-.53,3.63,3.63,0,0,1-1.26-1.49,5.16,5.16,0,0,1-.45-2.23,5.1,5.1,0,0,1,.44-2.21,3.37,3.37,0,0,1,3.14-2,3.15,3.15,0,0,1,1.73.48,2.47,2.47,0,0,1,1,1.29l-.22.29V251H127Zm-4.24-1.72a1.66,1.66,0,0,0,1.37-.6,2.78,2.78,0,0,0,.49-1.78,2.71,2.71,0,0,0-.49-1.74,1.62,1.62,0,0,0-1.37-.63,1.71,1.71,0,0,0-1.4.61,3.41,3.41,0,0,0,0,3.52A1.66,1.66,0,0,0,122.74,261.08Z"/><path class="cls-7" d="M132.81,262.92a4.73,4.73,0,0,1-2.27-.51,3.53,3.53,0,0,1-1.48-1.46,5.11,5.11,0,0,1,0-4.49,3.53,3.53,0,0,1,1.48-1.46,5.15,5.15,0,0,1,4.51,0,3.59,3.59,0,0,1,1.48,1.46,5.11,5.11,0,0,1,0,4.49,3.59,3.59,0,0,1-1.48,1.46A4.72,4.72,0,0,1,132.81,262.92Zm0-1.84a1.67,1.67,0,0,0,1.36-.58,2.81,2.81,0,0,0,.48-1.8,2.76,2.76,0,0,0-.48-1.78,1.67,1.67,0,0,0-1.36-.59,1.72,1.72,0,0,0-1.39.59,2.76,2.76,0,0,0-.48,1.78,2.81,2.81,0,0,0,.48,1.8A1.67,1.67,0,0,0,132.81,261.08Z"/><path class="cls-7" d="M146.94,262.92a4.8,4.8,0,0,1-2.28-.51A3.46,3.46,0,0,1,143.2,261a5,5,0,0,1,0-4.45,3.85,3.85,0,0,1,1.52-1.5,4.75,4.75,0,0,1,2.29-.53,5.43,5.43,0,0,1,1.69.27,3.62,3.62,0,0,1,1.35.74l-.64,1.67a3.94,3.94,0,0,0-1.06-.59,3.05,3.05,0,0,0-1.12-.22,2,2,0,0,0-1.53.59,2.45,2.45,0,0,0-.56,1.76,2.53,2.53,0,0,0,.55,1.78,2,2,0,0,0,1.54.59,3.25,3.25,0,0,0,1.12-.21,3.52,3.52,0,0,0,1.06-.61l.64,1.68a3.61,3.61,0,0,1-1.38.73A5.79,5.79,0,0,1,146.94,262.92Z"/><path class="cls-7" d="M155.11,262.92a4.78,4.78,0,0,1-2.27-.51,3.59,3.59,0,0,1-1.48-1.46,5.11,5.11,0,0,1,0-4.49,3.59,3.59,0,0,1,1.48-1.46,4.67,4.67,0,0,1,2.27-.52,4.6,4.6,0,0,1,2.24.52,3.59,3.59,0,0,1,1.48,1.46,5.11,5.11,0,0,1,0,4.49,3.59,3.59,0,0,1-1.48,1.46A4.72,4.72,0,0,1,155.11,262.92Zm0-1.84a1.65,1.65,0,0,0,1.36-.58,2.81,2.81,0,0,0,.48-1.8,2.76,2.76,0,0,0-.48-1.78,1.66,1.66,0,0,0-1.36-.59,1.69,1.69,0,0,0-1.38.59,2.7,2.7,0,0,0-.49,1.78,2.81,2.81,0,0,0,.48,1.8A1.69,1.69,0,0,0,155.11,261.08Z"/><path class="cls-7" d="M160.9,262.8V257c0-.38,0-.77,0-1.16a11.18,11.18,0,0,0-.11-1.15h2.28l.17,1.58-.17,0a3.05,3.05,0,0,1,1.16-1.32,3.24,3.24,0,0,1,1.72-.45q2.87,0,2.86,3.4v4.92h-2.41V258a2,2,0,0,0-.32-1.25,1.16,1.16,0,0,0-1-.38,1.68,1.68,0,0,0-1.28.51,1.92,1.92,0,0,0-.48,1.37v4.55Z"/><path class="cls-7" d="M182.33,261.93a4.44,4.44,0,0,1-1.44.73,5.65,5.65,0,0,1-1.72.26,5,5,0,0,1-2.34-.51,3.53,3.53,0,0,1-1.51-1.45,4.55,4.55,0,0,1-.53-2.24,4.62,4.62,0,0,1,.51-2.21,3.82,3.82,0,0,1,1.4-1.5,4,4,0,0,1,2.07-.53,3.77,3.77,0,0,1,2,.5,3.3,3.3,0,0,1,1.28,1.43,4.9,4.9,0,0,1,.45,2.18v.35h-5.55l0-1.2H181l-.62.5a2.37,2.37,0,0,0-.4-1.55,1.41,1.41,0,0,0-1.17-.52,1.53,1.53,0,0,0-1.29.6,3.72,3.72,0,0,0,.08,3.72,2.06,2.06,0,0,0,1.64.61,3.87,3.87,0,0,0,1.26-.21,4.1,4.1,0,0,0,1.16-.59Zm-2.82-8.28H178l1.57-3.3H182Z"/><path class="cls-7" d="M185.5,262.84h-2.85l3.44-4.17,1.36-1.68,1.74-2.26h2.88l-3.23,3.94-1.39,1.69Zm3.92,0-2-2.48-1.36-1.7-3.23-3.93h2.84l1.75,2.25,1.39,1.68,3.42,4.18Z"/><path class="cls-7" d="M192.79,250.88h2.61v2.27h-2.61Zm.1,11.92v-8.11h2.41v8.11Z"/><path class="cls-7" d="M196.36,256.49v-1.8h6v1.8Zm6,4.35v1.86a3.42,3.42,0,0,1-.68.18,5.39,5.39,0,0,1-.72,0,3,3,0,0,1-2.29-.85,3.35,3.35,0,0,1-.79-2.38v-6.91l2.41-.78v7.65a1.43,1.43,0,0,0,.18.76.91.91,0,0,0,.46.41,1.59,1.59,0,0,0,.62.12l.38,0Z"/><path class="cls-7" d="M207.48,262.92a4.75,4.75,0,0,1-2.27-.51,3.53,3.53,0,0,1-1.48-1.46,5.11,5.11,0,0,1,0-4.49,3.53,3.53,0,0,1,1.48-1.46,5.15,5.15,0,0,1,4.51,0,3.59,3.59,0,0,1,1.48,1.46,5.11,5.11,0,0,1,0,4.49,3.59,3.59,0,0,1-1.48,1.46A4.72,4.72,0,0,1,207.48,262.92Zm0-1.84a1.65,1.65,0,0,0,1.36-.58,2.81,2.81,0,0,0,.48-1.8,2.76,2.76,0,0,0-.48-1.78,1.66,1.66,0,0,0-1.36-.59,1.72,1.72,0,0,0-1.39.59,2.76,2.76,0,0,0-.48,1.78,2.81,2.81,0,0,0,.48,1.8A1.69,1.69,0,0,0,207.48,261.08Z"/><path class="cls-7" d="M213.65,259.13l-.75-7.74,3,0-.75,7.72Zm-.57,1.09h2.62v2.58h-2.62Z"/></g><g id="Character"><path class="cls-8" d="M421,229.61s12.14-7.38,14.87-5.21c3.95,3.13,5.26,8.41,5.26,8.41s6.41-24.45,12.53-23.52c3.51.53,1.79,3.27.22,6.7-1.46,3.19-3.95,14.88-3.95,14.88s11.59-13.76,15-13.51c2.64.19,3,2.51-.77,6.23S454.05,239,454.05,239s8.13-7.57,11.48-7.62c2.68,0,4.41,1.83,1,4.84S457.77,241.51,455,247c-3.45,6.71-10.8,23.43-10.8,23.43l-25.72-9.11s-4.19-17.06-4.35-21.21c0,0,.35-8.76.3-10.32s4.09-2,5.34,1,.69,6.14,1.2,8.13,1.41,3.84,2.87,4.73,5.16,1,6.11-.15a15.66,15.66,0,0,0,2.34-6.28,28.49,28.49,0,0,0-.07-5.08S421.51,236.46,421,229.61Z"/><path class="cls-8" d="M132,309.23l-17.88-6.69s-18.2-10.66-21.57-6.87a3.73,3.73,0,0,0-5.2,2.12c-.92,2.23,2.14,5.46,2.14,5.46s-1,1,.55,4.23S108.77,321,108.77,321s22.46,12.25,31.54,18.11L156,317.84l-2.17-.82s-1.3-10.62-5.64-13.45c-4.74-3.08-10.44-11.42-11.7-14.69s-7.29-1.75-6.28,5,6.28,8.54,5.78,13.06S132,309.23,132,309.23Z"/><path class="cls-9" d="M104.55,311.71a71.9,71.9,0,0,1-7.78-4.06,75.35,75.35,0,0,1-7.52-4.51A72.34,72.34,0,0,1,97,307.2,76.29,76.29,0,0,1,104.55,311.71Z"/><path class="cls-9" d="M113.27,306.69a24,24,0,0,1-3.21-1.28c-2-.85-4.64-2.07-7.53-3.55s-5.46-3-7.25-4.14c-.89-.59-1.6-1.08-2.07-1.45a3.5,3.5,0,0,1-.71-.6,30,30,0,0,1,3,1.74c1.83,1.08,4.39,2.51,7.28,4s5.54,2.75,7.46,3.69A21.58,21.58,0,0,1,113.27,306.69Z"/><path class="cls-9" d="M117,316.54a12.35,12.35,0,0,1-1.58-.86l-4.22-2.52,0,0,0-.06a59.54,59.54,0,0,0-3-5.81,13.86,13.86,0,0,0-2.27-3,2.87,2.87,0,0,0-3.52-.26,1.68,1.68,0,0,0-.56.51.55.55,0,0,1,0,.12l.07.22c.05.15.1.3.16.45.21.59.45,1.18.68,1.76l1.37,3.34c.89,2.11,1.7,4.06,2.42,5.76l0-.05,3.6,4.21,1,1.17c.21.27.32.42.3.44a2.05,2.05,0,0,1-.39-.36l-1-1.1-3.72-4.1,0,0,0,0c-.74-1.67-1.59-3.61-2.5-5.74-.45-1.07-.91-2.18-1.4-3.33-.23-.58-.47-1.17-.69-1.78-.06-.15-.11-.3-.16-.46l-.08-.24a1.3,1.3,0,0,1,0-.36,1.12,1.12,0,0,1,.36-.53,3.19,3.19,0,0,1,.43-.32,3.5,3.5,0,0,1,2.15-.56,3.42,3.42,0,0,1,2,.87,14.16,14.16,0,0,1,2.36,3.15,54.33,54.33,0,0,1,3,5.9l-.08-.08,4.13,2.66A11,11,0,0,1,117,316.54Z"/><path class="cls-9" d="M135,316.71a10.9,10.9,0,0,1-2.19-.54,22,22,0,0,0-5.29-.93,9.63,9.63,0,0,0-5.09,1.24,19.65,19.65,0,0,0-1.77,1.36,4.1,4.1,0,0,1,1.57-1.67,9,9,0,0,1,5.3-1.45,17.5,17.5,0,0,1,5.39,1.1A8.48,8.48,0,0,1,135,316.71Z"/><path class="cls-9" d="M133.61,312c.12.08-.33.86-.76,1.85s-.71,1.84-.85,1.82-.09-1,.37-2S133.5,311.9,133.61,312Z"/><path class="cls-4" d="M236.64,227c1.23-8.42,11-20.5,19.72-20.51a22.43,22.43,0,0,1-.18-24.65c3.35-5,8.75-8.7,11-14.26,2.59-6.28.6-13.39.85-20.16.36-9.92,5.52-19,10.55-27.6,4.6-7.89,10.21-16.54,19.27-18.48,5.73-1.22,11.68.59,17.06,2.88,25.74,11,45.76,34.07,52.64,60.76,1.64,6.38,2.74,13.29,7.19,18.23,4.72,5.23,13,8.07,14.39,14.9,1,4.91-2.13,9.84-1.66,14.82.39,4.17,8.21,16.34,10,20.14,3.11,6.55,2,13.62-1.18,20.15s-11.2,12.87-18.34,14.65l-79.81-26.59c-7.5,4.27-15,20.81-23.6,21.82s-19.14,4.77-27.43-4.31C238.47,249.28,235.4,235.43,236.64,227Z"/><path class="cls-4" d="M369,147.63c-.89,6.68.94,17.72,4.59,23.42,2.45,3.83,6.54,6.33,10.57,8.52s8.26,4.29,11.31,7.67,4.7,8.46,2.66,12.51c7.19,2.68,10.41,11.84,7.77,18.92s-9.87,11.85-17.42,13.26L355.52,222l-7.22-42,19-32.4"/><path class="cls-10" d="M373,190.45a3.9,3.9,0,0,1,.64.28,18.94,18.94,0,0,1,1.8.93,23.91,23.91,0,0,1,5.77,4.81,26,26,0,0,1,5.47,9.87,24.26,24.26,0,0,1,.09,14l-.12-.3a24.13,24.13,0,0,1,5.35,4.07,24.87,24.87,0,0,1,7.18,14.65A24,24,0,0,1,396.83,252a24.81,24.81,0,0,1-5.41,7.28,20.43,20.43,0,0,1-1.91,1.55,4.56,4.56,0,0,1-.72.48,5.16,5.16,0,0,1,.65-.56,24.1,24.1,0,0,0,1.84-1.62,25.39,25.39,0,0,0,5.21-7.29,23.87,23.87,0,0,0,2.22-12.95,24.66,24.66,0,0,0-7.07-14.34,23.7,23.7,0,0,0-5.24-4l-.18-.1.06-.2a23.93,23.93,0,0,0,0-13.74,26.94,26.94,0,0,0-2.32-5.53,26.56,26.56,0,0,0-3-4.24,24.88,24.88,0,0,0-5.6-4.88c-.73-.49-1.36-.76-1.75-1A3.47,3.47,0,0,1,373,190.45Z"/><path class="cls-6" d="M275.63,234s-14.7,4.47-19.86,12c-3.65,5.3-41,86.17-41,86.17L158.1,315l-20.27,26.77,63.07,35a38.41,38.41,0,0,0,37.55-.17h0a38.44,38.44,0,0,0,15.14-15.66l16-30.72Z"/><path class="cls-6" d="M260.58,410.07l8.85-38.15-6.7-27.7c-4.32-14.26-8-37.49-3.33-56.21l15.68-53.81,17.24-7.92,39.44-6.79c1.51.51,41.24,11.73,41.24,11.73a60.68,60.68,0,0,1,7.71,2.15l4.55,29.46-13.69,48.55-6,48.38,13.1,50.31Z"/><path class="cls-8" d="M283.38,230.39l11.43-5.12,51.55.71,12.2,7.08s-42.59,47-53.28,48.56C278.4,285.53,283.38,230.39,283.38,230.39Z"/><path class="cls-6" d="M379.59,233s7.72,1.74,14.34,15.86,17.32,53.42,17.32,53.42l4.57-41.65,37.27,4.1-7.21,99.53s-13.19,19.13-35.25,17.37-50.08-71.51-50.08-71.51Z"/><path class="cls-4" d="M405.43,353.09a.87.87,0,0,1,0-.24c0-.19,0-.42,0-.7,0-.67.1-1.57.17-2.71.14-2.35.42-5.75.81-9.95.77-8.39,2.2-19.95,3.94-32.68s3.22-24.28,4.09-32.65c.43-4.19.77-7.58,1-9.93.11-1.14.2-2,.26-2.7,0-.28.06-.51.09-.7a.92.92,0,0,1,0-.24.93.93,0,0,1,0,.24l0,.71c0,.66-.1,1.57-.16,2.71-.15,2.35-.43,5.75-.82,9.94-.77,8.39-2.19,19.95-3.94,32.69s-3.22,24.27-4.09,32.65c-.43,4.19-.77,7.58-1,9.92-.11,1.14-.2,2-.26,2.7,0,.29-.06.52-.08.7A1.17,1.17,0,0,1,405.43,353.09Z"/><path class="cls-4" d="M215.43,353.57a2.78,2.78,0,0,1-.42-.75,19.67,19.67,0,0,1-.86-2.15,32.17,32.17,0,0,1-1.46-15.08,20.82,20.82,0,0,1,.43-2.27,2.49,2.49,0,0,1,.27-.81c.08,0-.15,1.2-.34,3.12a37.94,37.94,0,0,0,1.45,14.93C215.06,352.41,215.51,353.53,215.43,353.57Z"/><path class="cls-4" d="M221.7,354.49a3.63,3.63,0,0,1-.66-.74c-.4-.5-.94-1.25-1.56-2.21a38.46,38.46,0,0,1-5.81-16.71,26,26,0,0,1-.15-2.7,4.06,4.06,0,0,1,0-1c.09,0,.15,1.4.46,3.64a44.53,44.53,0,0,0,5.77,16.57C220.94,353.29,221.77,354.44,221.7,354.49Z"/><path class="cls-4" d="M265.82,265.56a4.53,4.53,0,0,1-.19.81l-.64,2.29c-.57,2-1.38,4.88-2.37,8.39a184.46,184.46,0,0,0-5.93,28.09,65.33,65.33,0,0,0,2.41,28.36c1,3.52,2,6.33,2.74,8.27.32.93.59,1.68.78,2.23a6.13,6.13,0,0,1,.25.8,4.93,4.93,0,0,1-.35-.76c-.21-.55-.51-1.28-.87-2.2-.75-1.92-1.8-4.72-2.9-8.24A66.93,66.93,0,0,1,256,320.94a68.23,68.23,0,0,1,.18-15.86A171.31,171.31,0,0,1,262.26,277c1-3.54,1.92-6.39,2.54-8.35l.73-2.26A4.81,4.81,0,0,1,265.82,265.56Z"/><path class="cls-4" d="M370,331.14s-.05-.08-.13-.24l-.35-.74c-.32-.69-.75-1.65-1.3-2.87s-1.26-2.76-2-4.55-1.54-3.86-2.45-6.12-1.72-4.82-2.69-7.52l-1.32-4.26c-.22-.73-.45-1.47-.68-2.22s-.4-1.54-.61-2.32A101.59,101.59,0,0,1,355,279.59a59.63,59.63,0,0,1,2.15-20.86,37,37,0,0,1,8.26-15,29,29,0,0,1,9.3-6.83,21.92,21.92,0,0,1,2.95-1.09l.79-.22.27-.06s-.08.05-.25.11l-.78.27a26.06,26.06,0,0,0-2.9,1.18,29.34,29.34,0,0,0-9.11,6.89,37,37,0,0,0-8.07,14.84,59.69,59.69,0,0,0-2.09,20.7A103.37,103.37,0,0,0,359,300.18c.21.78.4,1.55.6,2.31l.67,2.22c.44,1.46.87,2.88,1.29,4.25,1,2.71,1.77,5.25,2.63,7.53l2.37,6.14c.73,1.8,1.4,3.32,1.92,4.58s.92,2.21,1.21,2.91l.3.76A.94.94,0,0,1,370,331.14Z"/><g class="cls-11"><path d="M355.84,286.06c-4.88,23.05-4.94,46.76,3.45,68.77.48,1.28,2.41,5.82,3.78,5.89,1.73.08,2.55-2.07,2.85-3.78.61-3.51,1-9.28,1.6-12.79.78-4.39,1.82-14.56,1.82-14.56s-4-9.22-5.8-14.17c-3.29-9.18-6.07-17.94-7.6-28.63"/></g><path class="cls-4" d="M351.86,375.35a4.27,4.27,0,0,1-.39.61l-1.2,1.67c-.26.36-.56.76-.87,1.2s-.74.86-1.15,1.34a38.13,38.13,0,0,1-2.92,3.17l-1.79,1.75c-.63.61-1.35,1.16-2.06,1.78a59.55,59.55,0,0,1-4.78,3.62,61.54,61.54,0,0,1-25.42,9.91,57.48,57.48,0,0,1-6,.56c-.94,0-1.85.11-2.72.09l-2.5-.07a41.65,41.65,0,0,1-4.3-.37c-.63-.07-1.21-.12-1.75-.21l-1.46-.29-2-.42a3.34,3.34,0,0,1-.69-.18,3.42,3.42,0,0,1,.71.08l2,.32,1.46.24c.53.08,1.12.11,1.75.17a42.65,42.65,0,0,0,4.27.29l2.49,0c.87,0,1.76-.08,2.7-.12,1.86,0,3.84-.35,5.92-.61a67.77,67.77,0,0,0,13.15-3.53,68.64,68.64,0,0,0,12.07-6.3,58.25,58.25,0,0,0,4.78-3.56c.71-.6,1.43-1.14,2.06-1.73l1.81-1.72c1.18-1.06,2.09-2.18,2.95-3.1.42-.47.83-.9,1.17-1.31s.64-.81.91-1.17l1.27-1.6A3.51,3.51,0,0,1,351.86,375.35Z"/><path class="cls-4" d="M343.72,360.1a4,4,0,0,1-.13,1.09,24.19,24.19,0,0,1-.7,2.92,34.71,34.71,0,0,1-4.14,9,34.36,34.36,0,0,1-6.5,7.45,25.68,25.68,0,0,1-2.37,1.83,4.44,4.44,0,0,1-.95.57c-.05-.08,1.23-1,3.08-2.67A38.41,38.41,0,0,0,342.54,364C343.33,361.62,343.63,360.08,343.72,360.1Z"/><path class="cls-5" d="M325.57,95a40.51,40.51,0,0,1,35.23,60c-2.3,4.17-5.59,8.12-10.12,9.57a83.5,83.5,0,0,0-25.34-64.86"/><path class="cls-5" d="M341.9,98.58c-2.07-4.31.15-9.7,3.84-12.73s8.51-4.26,13.16-5.37,9.47-2.26,13.24-5.19c-.54,7.49-2.4,15.19-7.25,20.93s-13.25,8.93-20.17,6"/><path class="cls-5" d="M346.7,103.52c-3.18,1.34-7,.5-9.82-1.45a22.49,22.49,0,0,1-6.56-7.9,34.06,34.06,0,0,1-4.21-11.92,20,20,0,0,1,2.11-12.33c5.47,5.83,11.5,10.73,14.63,18.09,1.84,4.33,1.62,11.26-.35,15.53"/><path class="cls-4" d="M362.21,127.77a7.56,7.56,0,0,1,.27,1.39c.08.45.16,1,.21,1.65s.14,1.38.16,2.19a45.46,45.46,0,0,1-.1,5.74,49.74,49.74,0,0,1-1.11,6.94,48.29,48.29,0,0,1-2.14,6.69,43.46,43.46,0,0,1-2.49,5.17c-.38.72-.79,1.34-1.13,1.89s-.66,1-.93,1.38a7.26,7.26,0,0,1-.87,1.12,7.14,7.14,0,0,1,.7-1.23c.24-.39.54-.86.85-1.42s.7-1.19,1.06-1.92a54.22,54.22,0,0,0,2.37-5.16,49.61,49.61,0,0,0,3.21-13.5,51.09,51.09,0,0,0,.21-5.69c0-.81-.06-1.54-.08-2.18s-.08-1.2-.12-1.65A6.81,6.81,0,0,1,362.21,127.77Z"/><path class="cls-4" d="M359.09,101a9,9,0,0,1-1.11.88,12.08,12.08,0,0,1-3.61,1.4,28.16,28.16,0,0,1-12.77-.73l-.15,0,0-.15c-.07-.3-.14-.62-.21-.94a22.27,22.27,0,0,1-.33-7.44,12.69,12.69,0,0,1,2.1-5.71,10.65,10.65,0,0,1,3-2.83,9.48,9.48,0,0,1,1.35-.67,8.66,8.66,0,0,1-1.23.84,11.22,11.22,0,0,0-2.78,2.87A12.73,12.73,0,0,0,341.35,94a22.68,22.68,0,0,0,.37,7.27c.07.32.14.63.2.93l-.18-.19a29.31,29.31,0,0,0,12.55.87,13.22,13.22,0,0,0,3.59-1.21A6.79,6.79,0,0,1,359.09,101Z"/><path class="cls-4" d="M363.18,88c0,.09-1.46.3-3.75,1a32.19,32.19,0,0,0-3.93,1.45,35.59,35.59,0,0,0-4.5,2.46A36.48,36.48,0,0,0,347,96a34.14,34.14,0,0,0-2.9,3c-1.54,1.83-2.31,3.1-2.4,3a4.31,4.31,0,0,1,.49-.93,21.18,21.18,0,0,1,1.63-2.36,27.63,27.63,0,0,1,2.86-3.14,32,32,0,0,1,4.09-3.23A33.41,33.41,0,0,1,355.31,90a28.63,28.63,0,0,1,4-1.37,22,22,0,0,1,2.81-.55A3.72,3.72,0,0,1,363.18,88Z"/><path class="cls-4" d="M346.49,103.4s0,.1,0,.3a3.79,3.79,0,0,1-.27.82,6.47,6.47,0,0,1-2,2.5,6.86,6.86,0,0,1-4.5,1.46,6.78,6.78,0,0,1-5.88-8.59,6.91,6.91,0,0,1,3-3.67,6.54,6.54,0,0,1,3-.94,4.93,4.93,0,0,1,.87,0,.92.92,0,0,1,.29.07,10.78,10.78,0,0,1-1.14.08A6.84,6.84,0,0,0,337,96.54a6.57,6.57,0,0,0-2.71,3.5,6.36,6.36,0,0,0,5.45,8,6.72,6.72,0,0,0,4.25-1.27,6.86,6.86,0,0,0,2-2.29C346.34,103.79,346.44,103.38,346.49,103.4Z"/><path class="cls-4" d="M334.37,103.65c-.05,0-.35-.55.12-1.33a2.32,2.32,0,0,1,1.19-.92,4.25,4.25,0,0,1,1.79-.19,8.29,8.29,0,0,1,4.24,1.26c-.06.15-1.9-.58-4.28-.74a2.87,2.87,0,0,0-2.63.8A2.56,2.56,0,0,0,334.37,103.65Z"/><path class="cls-4" d="M328.22,69.92a12.66,12.66,0,0,0-1.53,4.28,29,29,0,0,0-.23,5,31.8,31.8,0,0,0,.53,6.06,30.1,30.1,0,0,0,4.27,10.12c.81,1.16,1.53,2.07,2,2.68a11.89,11.89,0,0,1,.79.94A14.07,14.07,0,0,1,331,95.55a28,28,0,0,1-4.48-10.23,29.88,29.88,0,0,1-.5-6.16,27,27,0,0,1,.35-5,10.22,10.22,0,0,1,1.14-3.22A3.54,3.54,0,0,1,328.22,69.92Z"/><path class="cls-4" d="M333.4,81.78a8.44,8.44,0,0,1,1.41,1.71,29.75,29.75,0,0,1,2.65,4.64,27.65,27.65,0,0,1,1.76,5,7.13,7.13,0,0,1,.34,2.19c-.16,0-.84-3.27-2.57-7S333.26,81.88,333.4,81.78Z"/><path class="cls-4" d="M331.71,88c.11-.08,1.79,1.62,4,3.6a31,31,0,0,1,3.85,3.75A26.14,26.14,0,0,1,335.35,92,17.93,17.93,0,0,1,331.71,88Z"/><path class="cls-2" d="M357.88,111.48l-.14.14-.44.37a19,19,0,0,1-1.71,1.27,25.66,25.66,0,0,1-6.3,3.07,25.37,25.37,0,0,1-6.89,1.26,18,18,0,0,1-2.12,0l-.58,0-.2,0h.78c.5,0,1.22,0,2.11-.06a27.81,27.81,0,0,0,6.84-1.3,28.19,28.19,0,0,0,6.28-3c.75-.49,1.34-.91,1.74-1.21.16-.12.31-.24.46-.34S357.88,111.47,357.88,111.48Z"/><path class="cls-2" d="M363.77,123.58s0,0-.14.14l-.45.37c-.38.32-1,.76-1.71,1.26a29.39,29.39,0,0,1-6.26,3.17,28.93,28.93,0,0,1-6.85,1.55c-.89.09-1.62.13-2.12.13h-.58l-.2,0a.55.55,0,0,1,.2,0l.58,0c.5,0,1.22-.09,2.11-.19a31.36,31.36,0,0,0,6.79-1.61,31.82,31.82,0,0,0,6.25-3.09c.75-.49,1.34-.9,1.74-1.21l.47-.33C363.71,123.61,363.77,123.57,363.77,123.58Z"/><path class="cls-2" d="M362.14,141.23a4.12,4.12,0,0,1-.43.31,13,13,0,0,1-1.23.74,19.69,19.69,0,0,1-9.08,2.38c-.61,0-1.1,0-1.44,0a2.11,2.11,0,0,1-.52-.07,3.17,3.17,0,0,1,.53,0c.33,0,.82,0,1.42,0a22.16,22.16,0,0,0,4.64-.7,21.62,21.62,0,0,0,4.38-1.66c.54-.27,1-.51,1.26-.68A3,3,0,0,1,362.14,141.23Z"/><path class="cls-2" d="M365.53,138.53a4.68,4.68,0,0,1-1.35.37,5.29,5.29,0,0,1-1.39.16,4.68,4.68,0,0,1,1.35-.37A4.83,4.83,0,0,1,365.53,138.53Z"/><path class="cls-2" d="M355.61,159.29a7,7,0,0,1-2.29.11,6.61,6.61,0,0,1-2.24-.45c0-.06,1,.15,2.26.24S355.6,159.22,355.61,159.29Z"/><path class="cls-2" d="M336.63,107a5.92,5.92,0,0,1-1.33.86,6.17,6.17,0,0,1-1.44.67,6.35,6.35,0,0,1,1.33-.86A6.17,6.17,0,0,1,336.63,107Z"/><path class="cls-2" d="M331.66,96.5a18.06,18.06,0,0,0-3,1.58,19,19,0,0,0-2.46,2.26,3.27,3.27,0,0,1,.57-.81,10.36,10.36,0,0,1,1.77-1.62,10,10,0,0,1,2.12-1.14A3,3,0,0,1,331.66,96.5Z"/><path class="cls-2" d="M340.67,108.12a13.64,13.64,0,0,0,.05-3,13.29,13.29,0,0,0-.82-2.92,2.93,2.93,0,0,1,.45.79,7.63,7.63,0,0,1,.58,2.1,7.79,7.79,0,0,1,0,2.19A2.82,2.82,0,0,1,340.67,108.12Z"/><path class="cls-2" d="M371.61,75.51a12.22,12.22,0,0,1-1.09,1.16,22.77,22.77,0,0,1-3.46,2.67,44,44,0,0,1-5.75,3c-2.23,1-4.73,2-7.25,3.17a28.63,28.63,0,0,0-6.64,4.23,16.8,16.8,0,0,0-3.89,5.07,12.36,12.36,0,0,0-1.19,4.15c-.09,1,0,1.6,0,1.6s0-.14,0-.41a7.71,7.71,0,0,1,0-1.19,11.73,11.73,0,0,1,1.14-4.21,16.5,16.5,0,0,1,3.9-5.15A27.77,27.77,0,0,1,354,85.3c2.53-1.22,5-2.19,7.26-3.17A45.53,45.53,0,0,0,367,79.21a24.36,24.36,0,0,0,3.48-2.59c.38-.35.67-.63.85-.83S371.61,75.51,371.61,75.51Z"/><path class="cls-2" d="M368.91,87.38a1.86,1.86,0,0,1-.14.22l-.41.63c-.36.55-.92,1.31-1.66,2.22a39.5,39.5,0,0,1-14.32,11.12c-1.07.48-1.95.84-2.56,1.05l-.71.25a1.15,1.15,0,0,1-.26.07l.24-.11.7-.28c.61-.24,1.47-.61,2.53-1.11a41.83,41.83,0,0,0,14.27-11.08c.74-.9,1.32-1.65,1.7-2.18l.45-.6C368.84,87.44,368.9,87.37,368.91,87.38Z"/><path class="cls-2" d="M327.17,73.32a19,19,0,0,1,3,1.61,25.61,25.61,0,0,1,6.13,5.54,25.11,25.11,0,0,1,4,7.24,18.48,18.48,0,0,1,.87,3.31,1.22,1.22,0,0,1-.07-.22c-.06-.21-.12-.42-.18-.66a22.34,22.34,0,0,0-.76-2.38,26.08,26.08,0,0,0-10.06-12.71A23.46,23.46,0,0,0,328,73.77l-.6-.32C327.23,73.37,327.16,73.33,327.17,73.32Z"/><path class="cls-4" d="M277,110.93c.39,5.3-3.11,10-6.64,14s-7.45,8.12-8.21,13.38c-1.35,9.32,7.77,18,5.89,27.2-1,4.95-5.06,8.92-5.78,13.92-.7,4.83,1.89,9.56,5.1,13.24s6.93,3.14,9.77,7.11a39.77,39.77,0,0,0,12.32,11c10.22,5.6,22.5-2.5,27.43-4"/><path class="cls-4" d="M354.36,132.65c4.72-2.05,5.09-19-6.74-20.9-4.75-.78-8.7-3.1-12.69-5.78-3.53-2.38-4.58-8.41-7.57-11.44a29.6,29.6,0,0,0-49.78,13.58c-1.72,6.84-.54,14.94,4.85,19.49,6.26,5.28,15.55,4.1,23.57,2.46s17.11-3.26,23.81,1.45c4,2.84,6.36,7.47,8.83,11.74s5.57,8.65,10.24,10.26c0,0,3.56,8.36.65,14.17s3.42-4.1,3.42-4.1,11.51-20.48,1.41-30.93"/><path class="cls-8" d="M294.45,251.23c-.07-11,0-42,0-41.95s-17.52-2.95-21.11-25.82c-1.78-11.38-1.16-30-.17-45.27.9-13.72,10-30.53,23.69-29L339.52,120a8,8,0,0,1,7.18,8.18h0l-2.59,106Z"/><path class="cls-4" d="M280.43,151.26a2.94,2.94,0,0,0,2.82,3,2.8,2.8,0,0,0,3-2.64,2.93,2.93,0,0,0-2.82-3A2.81,2.81,0,0,0,280.43,151.26Z"/><path class="cls-4" d="M277.19,147.9c.37.38,2.59-1.26,5.75-1.24s5.46,1.6,5.81,1.21c.17-.17-.2-.86-1.21-1.59a8,8,0,0,0-4.65-1.45,7.74,7.74,0,0,0-4.57,1.47C277.35,147,277,147.73,277.19,147.9Z"/><path class="cls-4" d="M308.22,152.93c.36.38,2.59-1.26,5.74-1.24s5.47,1.6,5.81,1.21c.17-.17-.2-.86-1.21-1.6a8.09,8.09,0,0,0-4.65-1.44,7.74,7.74,0,0,0-4.57,1.47C308.37,152.07,308,152.76,308.22,152.93Z"/><path class="cls-4" d="M296.71,171.94c0-.18-1.95-.52-5.12-.94-.81-.08-1.57-.24-1.71-.79a4.13,4.13,0,0,1,.55-2.39q1.14-2.92,2.39-6.13c3.33-8.73,5.74-15.91,5.39-16s-3.34,6.84-6.66,15.57c-.81,2.15-1.57,4.2-2.3,6.16a4.67,4.67,0,0,0-.43,3.17,2,2,0,0,0,1.33,1.18,5.14,5.14,0,0,0,1.36.19C294.71,172.1,296.7,172.12,296.71,171.94Z"/><path class="cls-9" d="M294.45,209.28a58.13,58.13,0,0,0,30.64-8.1c-.25,0-8.43,15.9-30.35,13.5Z"/><path class="cls-9" d="M297.62,181.05c-.38-1.94,1.91-2.57,3.59-3.62s2.64-2.43,4.22-1.23a6.1,6.1,0,0,1,1.94,2.72,4.22,4.22,0,0,1,.32,2.24,4.36,4.36,0,0,1-1.41,2.33,6.6,6.6,0,0,1-3.42,1.79,4.75,4.75,0,0,1-3.71-.87,3.73,3.73,0,0,1-1.42-3.46"/><path class="cls-4" d="M306,174.14c-.51,0-.52,3.4-3.46,5.82s-6.58,2-6.61,2.52c-.05.22.81.67,2.35.71a8.52,8.52,0,0,0,5.52-1.9,7.44,7.44,0,0,0,2.68-4.88C306.61,175,306.23,174.12,306,174.14Z"/><path class="cls-4" d="M307.75,145.88c.31.86,3.46.46,7.16.91s6.7,1.47,7.19.71c.22-.37-.3-1.18-1.51-2a11.85,11.85,0,0,0-5.32-1.88,12.07,12.07,0,0,0-5.61.64C308.3,144.8,307.61,145.47,307.75,145.88Z"/><path class="cls-4" d="M277.63,137c.56.72,2.73,0,5.35,0s4.82.5,5.34-.25c.22-.37-.13-1.08-1.09-1.77a7.46,7.46,0,0,0-4.34-1.18,7.39,7.39,0,0,0-4.27,1.43C277.69,135.9,277.39,136.63,277.63,137Z"/><path class="cls-4" d="M349.2,196.53c-6.29,1.27-6.85-1.93-11.55-6.3a20.68,20.68,0,0,1-6.32-17.43c.71-5.61,3.74-11.33,1.8-16.64-2.58-7-12.43-9.19-15.05-16.21-1.52-4.07-.15-8.84-1.87-12.84-1.62-3.75-5.58-5.92-9.42-7.31s-8-2.35-11.21-4.86-5.24-7.25-3.16-10.77a216.53,216.53,0,0,1,50,12.14c3.73,1.4,7.65,3.07,9.86,6.39,2.33,3.51,2.22,8,2,12.25q-1.42,30.81-2.87,61.61"/><path class="cls-10" d="M363.78,188.85s.09-.08.25-.28a9.67,9.67,0,0,0,.63-.92,12.24,12.24,0,0,0,1.5-4,14.12,14.12,0,0,0-.36-6.76,13,13,0,0,0-5.33-7.16c-2.71-1.91-6.24-3.24-8.49-6.29a6.86,6.86,0,0,1-1.24-5.37,30.64,30.64,0,0,1,2-5.93,17,17,0,0,0-.29-13.65,15,15,0,0,0-4.64-5.77,18.1,18.1,0,0,0-7-2.91c-2.48-.56-4.95-.89-7.24-1.58a14.13,14.13,0,0,1-6.06-3.32,10.06,10.06,0,0,1-2.63-6,50.92,50.92,0,0,0-1.08-6.65,23,23,0,0,0-6.17-10.82,18.2,18.2,0,0,0-9.72-4.82A14.44,14.44,0,0,0,299,98a13.89,13.89,0,0,0-5.11,4.43,11.83,11.83,0,0,0-1.79,3.88,5.8,5.8,0,0,0-.22,1.47,14.33,14.33,0,0,1,2.33-5.12,13.74,13.74,0,0,1,5-4.16,14,14,0,0,1,8.48-1.14,17.43,17.43,0,0,1,9.25,4.72,22.14,22.14,0,0,1,5.85,10.45,52.32,52.32,0,0,1,1,6.56,11,11,0,0,0,2.88,6.55,15,15,0,0,0,6.47,3.59c2.41.72,4.88,1.05,7.31,1.6a17.12,17.12,0,0,1,6.64,2.74,13.86,13.86,0,0,1,4.34,5.37,16.14,16.14,0,0,1,.33,12.91,30.51,30.51,0,0,0-2,6.13,7.72,7.72,0,0,0,1.44,6c2.49,3.29,6.13,4.56,8.76,6.39a12.38,12.38,0,0,1,5.19,6.74,13.89,13.89,0,0,1,.52,6.52A15.3,15.3,0,0,1,363.78,188.85Z"/><path class="cls-4" d="M334,166.13a57.82,57.82,0,0,0-2.67,38.14c1,3.74,2.46,7.62,1.58,11.4-1,4.09-4.38,7.05-6.88,10.43a25.76,25.76,0,0,0,7.9,37.63c.66-3.76,4.16-6.32,7.61-8s7.26-2.85,9.89-5.61,3.38-7.84.32-10.13c8.8-2.3,13.79-12.76,11.94-21.66s-9.1-16-17.34-19.81"/><path class="cls-4" d="M343.41,254.93c-1.58.87-3.1,1.64-3.3,3.42-.23,2.1,1.78,5.78,2.5,7.75a10.77,10.77,0,0,1-14.07,13.71c2.82.21,5.21-2.54,5.46-5.35s-1.12-5.53-2.8-7.81-3.71-4.29-5.13-6.73c-2.9-5-7.21-18.48-3.89-26.05"/><path class="cls-10" d="M351.41,240.38a3.75,3.75,0,0,1,.54-.46c.37-.28.9-.7,1.57-1.27a34.75,34.75,0,0,0,5.14-5.31,26.53,26.53,0,0,0,4.87-9.72,21.86,21.86,0,0,0-.64-13.13,19.52,19.52,0,0,0-3.62-5.85c-1.47-1.69-3.07-3.16-4.58-4.6a45.1,45.1,0,0,1-4.1-4.27,18.2,18.2,0,0,1-2.69-4.42A11.68,11.68,0,0,1,347,184a7.71,7.71,0,0,1,.74-1.9,3,3,0,0,1,.39-.59,13.28,13.28,0,0,0-.94,2.53,11.77,11.77,0,0,0,1,7.16,18.19,18.19,0,0,0,2.68,4.3,48.53,48.53,0,0,0,4.1,4.19c1.51,1.42,3.13,2.9,4.64,4.62a19.76,19.76,0,0,1,3.71,6,22.18,22.18,0,0,1,.63,13.44,26.53,26.53,0,0,1-5.05,9.82,31.89,31.89,0,0,1-5.3,5.25c-.69.54-1.25.94-1.64,1.2A3.56,3.56,0,0,1,351.41,240.38Z"/></g><g id="Plant"><path class="cls-6" d="M64,359.81c2.52,3.17,7,1.79,8.93-.36s2.66-5.14,3.29-8c1.43-6.5,2.86-13.32,1.09-19.73a10.85,10.85,0,0,0-2.84-5.17A5.68,5.68,0,0,0,69,325.1c-2.23.75-3.51,3.06-4.39,5.24a46.83,46.83,0,0,0-3.36,20.33c.19,3.23.79,6.59,2.78,9.14"/><path class="cls-12" d="M64,359.81c2.52,3.17,7,1.79,8.93-.36s2.66-5.14,3.29-8c1.43-6.5,2.86-13.32,1.09-19.73a10.85,10.85,0,0,0-2.84-5.17A5.68,5.68,0,0,0,69,325.1c-2.23.75-3.51,3.06-4.39,5.24a46.83,46.83,0,0,0-3.36,20.33c.19,3.23.79,6.59,2.78,9.14"/><path class="cls-5" d="M73.76,376.05a20.07,20.07,0,0,1,12.38-2.3c2.29.23,4.69.76,6.34,2.36s2.12,4.57.45,6.15a6,6,0,0,1-3.83,1.23c-3.3.16-7-.19-9.5,2-1.43,1.23-2.31,3.17-4.08,3.84a4.24,4.24,0,0,1-4.8-1.78,7.31,7.31,0,0,1-.87-5.33A8.21,8.21,0,0,1,73.76,376.05Z"/><path class="cls-5" d="M57.94,365c2.34-3.15,2.54-7.54,1.18-11.21A21.38,21.38,0,0,0,52,344.64a35.15,35.15,0,0,0-12.2-6.2,12.68,12.68,0,0,0-5.35-.57,5.58,5.58,0,0,0-4.27,3c-1.09,2.44.28,5.23,1.71,7.48a89.39,89.39,0,0,0,8.47,11.29c2.5,2.84,5.34,5.62,8.95,6.74s7.28.74,9-1.83"/><path class="cls-4" d="M67,409.8a6.82,6.82,0,0,0,.12-1.51c0-1.11.08-2.49.14-4.14a58.59,58.59,0,0,1,.55-6.08,45.14,45.14,0,0,1,1.74-7.25,26.18,26.18,0,0,1,3.23-6.67A13.58,13.58,0,0,1,77.13,380a12.73,12.73,0,0,1,3.79-1.44,7.43,7.43,0,0,0,1.48-.31,6.25,6.25,0,0,0-1.52.07,11.71,11.71,0,0,0-4,1.3,13.43,13.43,0,0,0-4.6,4.16,25.23,25.23,0,0,0-3.35,6.8A43.21,43.21,0,0,0,67.24,398a50.1,50.1,0,0,0-.42,6.15c0,1.75,0,3.17.06,4.15A7.69,7.69,0,0,0,67,409.8Z"/><path class="cls-4" d="M67.09,406.62a2.86,2.86,0,0,0,0-.7c0-.52-.07-1.18-.13-2-.11-1.74-.27-4.25-.37-7.35-.24-6.21-.24-14.79.2-24.26s1.29-18,2.16-24.16c.2-1.54.41-2.93.62-4.15s.35-2.26.52-3.12.26-1.45.35-2a3.25,3.25,0,0,0,.08-.69,2.41,2.41,0,0,0-.21.67l-.46,2c-.2.84-.4,1.89-.62,3.1s-.49,2.6-.72,4.14a227.22,227.22,0,0,0-2.34,24.2c-.44,9.49-.37,18.09,0,24.31.16,3.11.38,5.62.57,7.35.1.81.18,1.46.25,2A2.57,2.57,0,0,0,67.09,406.62Z"/><path class="cls-4" d="M66.09,390.08a13.39,13.39,0,0,0-.15-2.09,56.71,56.71,0,0,0-1-5.61,74.68,74.68,0,0,0-2.36-8.12,72.88,72.88,0,0,0-4.06-9.53,52,52,0,0,0-11.1-15.12,26.75,26.75,0,0,0-2.52-2.06c-.39-.29-.73-.57-1.07-.8l-1-.58a12,12,0,0,0-1.83-1,60.69,60.69,0,0,1,6.09,4.78A54.9,54.9,0,0,1,58,365a77,77,0,0,1,4.07,9.44c1.09,3,1.87,5.71,2.47,8s1,4.23,1.18,5.55A14.09,14.09,0,0,0,66.09,390.08Z"/></g><g id="Confetti"><path class="cls-6" d="M218.66,161.28c-1.84-6.53-10.34-5.9-10.34-5.9l.24,4.55c4.91-.85,8,4.9,8,4.9Z"/><path class="cls-6" d="M135.11,85.27c-4.58.49-5.13,6.24-5.13,6.24l3.07.37c0-3.39,4.19-4.77,4.19-4.77Z"/><path class="cls-6" d="M177.79,24.29c2.8,7.13,12.26,5.47,12.26,5.47l-.77-5.07c-5.41,1.5-9.48-4.62-9.48-4.62Z"/><path class="cls-6" d="M71.16,144.66c-4.59.48-5.13,6.24-5.13,6.24l3.06.36c0-3.38,4.2-4.76,4.2-4.76Z"/><path class="cls-6" d="M90.05,47.06c.66-4.56-4.78-6.52-4.78-6.52l-1.11,2.88c3.28.84,3.57,5.25,3.57,5.25Z"/><path class="cls-6" d="M11.68,117.07c-.83,7.15,8.65,8.88,8.65,8.88L22,121.27c-5.69-.51-6.51-7.21-6.51-7.21Z"/><path class="cls-6" d="M236.85,82.56c4.6.26,6.08-5.33,6.08-5.33l-3-.86c-.54,3.34-4.91,4-4.91,4Z"/></g></g></svg>