<svg xmlns="http://www.w3.org/2000/svg" viewBox="0 0 500 427.01"><defs><style>.cls-1{fill:#fbfbfb;}.cls-2{fill:#f2f3f8;}.cls-3{fill:#e9ecf4;}.cls-4{fill:#263239;}.cls-5{fill:#7bb732;}.cls-6{opacity:0.4;}.cls-7{fill:#036b9e;}.cls-8,.cls-9{fill:#fff;}.cls-8{opacity:0.6;}.cls-10{opacity:0.3;}.cls-11{opacity:0.5;}.cls-12{fill:#455a64;}.cls-13{fill:#f8bc9e;}.cls-14{opacity:0.2;}</style></defs><title>frontiers-2</title><g id="Capa_2" data-name="Capa 2"><g id="Background_Complete" data-name="Background Complete"><path class="cls-1" d="M378.09,9.83h42.69S417,3,406,4c-10.5,1-11-3.38-16.37-3.91S379.87,3.6,378.09,9.83Z"/><path class="cls-1" d="M110.43,58H195.8s-7.55-13.74-29.52-11.74c-21,1.91-22.06-6.76-32.73-7.83S114,45.58,110.43,58Z"/><path class="cls-2" d="M60.27,19.85h64.88s-5.74-10.44-22.44-8.92C86.76,12.38,86,5.8,77.84,5S63,10.39,60.27,19.85Z"/><path class="cls-2" d="M.21,69.69a84.49,84.49,0,0,1,76,3.31A84.93,84.93,0,0,1,118,136.77c20.64-11,48.34-6.66,64.62,10.15s19.73,44.64,8.06,64.92a89.17,89.17,0,0,1,81.24,14.64c13.69-30.56,51-48.35,83.37-39.74a52.93,52.93,0,0,1,60.5-67.91c-4.5-21.7,4.05-45.58,21.28-59.5s67.27-30,62.65-8.3c-1.71,8.06,0,184,0,184L0,233Z"/><polygon class="cls-3" points="338.4 233.63 369.06 205.25 414.09 187.75 436.6 147.19 500 102.62 500 233.63 338.4 233.63"/><path class="cls-3" d="M0,111.32c0,.83,33.77,9.16,33.77,9.16l54.15,49.16h38.32L164.57,233H0Z"/><polygon class="cls-2" points="500 187.34 456.98 202.62 444.81 214.79 424.33 214.79 372.48 250.61 499.88 250.61 500 187.34"/></g><g id="Floor"><path class="cls-4" d="M477.12,416.69l-.6-.09-1.77-.3-6.89-1.2-26.22-4.63h-.05l0,0-27.15-32.31.15.07-35.16,0,.17-.09-17,22.53-.05.06-.08,0-17.72,4.18.1-.05L321,426.48l-.07.06H270.2l-171.58-.08-52-.08-14.13-.05-3.68,0-1.25,0,1.25,0,3.68,0,14.13,0,52-.09L270.2,426h50.65l-.17.07,23.86-21.61,0,0h.06l17.73-4.17-.13.09,17-22.51.07-.08h.11l35.16,0h.09l.05.07,27.07,32.39-.08-.05,26.2,4.76,6.88,1.27,1.75.33Z"/></g><g id="Plant"><path class="cls-5" d="M109.57,424.53c19.38-12.93,24.11-37.4,23.69-59.46-.07-3.68.4-7.56-1.32-10.81s-5.83-5.53-9.19-4c-2.79,1.24-4,4.4-5.64,7a21.64,21.64,0,0,1-8.88,8.11c-2.39,1.19-5.34,1.88-7.66.57-3.19-1.8-3.51-6.19-3.43-9.85l.45-20.47c.08-3.66.15-7.39-1-10.89S93,318,89.53,316.94s-7.91.91-8.71,4.48a32.94,32.94,0,0,0-.17,4.56c-.13,1.52-.88,3.19-2.34,3.59s-3-.65-4-1.74c-3.77-3.75-6.3-8.55-8.65-13.33s-4.64-9.65-8-13.73-8.17-7.35-13.47-7.73-11,2.78-12.44,7.9,1.54,10.43,4.8,14.65a82.14,82.14,0,0,0,17,16.48c1.16.84,2.41,1.74,2.84,3.1.77,2.45-1.62,4.84-4.07,5.61-2.78.87-5.77.54-8.67.83s-6.05,1.51-7.19,4.19c-1.58,3.72,1.53,7.69,4.61,10.3a71.22,71.22,0,0,0,20.81,12.28c2.71,1,5.57,1.93,7.74,3.85s3.45,5.24,2.08,7.8-4.79,3.33-7.64,2.77-5.39-2.14-8.1-3.19c-5.06-2-11.65-1.73-15,2.57-2.19,2.83-2.44,6.8-1.4,10.23a26.54,26.54,0,0,0,5.48,9.13,71.34,71.34,0,0,0,30.12,21.58c11.77,4.22,22.71,5.48,34.52,1.41"/><path class="cls-4" d="M108.05,425c-3.11-11.18-11.65-37.46-16.73-49.83q-1.93-4.62-3.8-9.14c-1.25-3-2.5-6-3.89-8.8a160.93,160.93,0,0,0-9-15.82c-3.1-4.9-6.22-9.43-9.17-13.66s-5.8-8.09-8.53-11.52A132,132,0,0,0,42.83,301c-1.8-1.67-3.24-2.91-4.22-3.74l-1.13-.94-.4-.31s.12.13.36.35l1.09,1c1,.86,2.38,2.13,4.16,3.81a137.75,137.75,0,0,1,14,15.3c2.71,3.43,5.52,7.31,8.46,11.54s6,8.77,9.12,13.66a162.53,162.53,0,0,1,8.92,15.79c1.39,2.82,2.62,5.77,3.87,8.77s2.51,6.06,3.8,9.14c5.08,12.36,13.62,38.62,16.75,49.76"/><path class="cls-4" d="M83.49,357.13a9,9,0,0,0,.36-1.56c.2-1,.45-2.48.74-4.3.57-3.63,1.19-8.68,1.86-14.25s1.38-10.61,2-14.22c.31-1.81.59-3.27.79-4.28a8.85,8.85,0,0,0,.26-1.58,8.16,8.16,0,0,0-.46,1.53c-.28,1-.61,2.45-1,4.25-.75,3.61-1.52,8.65-2.19,14.23s-1.25,10.52-1.7,14.27c-.23,1.75-.42,3.2-.56,4.32A8.88,8.88,0,0,0,83.49,357.13Z"/><path class="cls-4" d="M35.93,347.63a2.87,2.87,0,0,0,.49.08l1.41.14c1.23.12,3,.29,5.18.56,4.36.52,10.36,1.46,16.93,2.78s12.47,2.8,16.7,4c2.12.58,3.82,1.1,5,1.45L83,357a1.37,1.37,0,0,0,.49.1,2.33,2.33,0,0,0-.45-.21l-1.33-.49c-1.16-.42-2.85-1-5-1.62-4.21-1.29-10.11-2.82-16.7-4.16s-12.61-2.2-17-2.62c-2.19-.23-4-.34-5.2-.39l-1.42,0A1.72,1.72,0,0,0,35.93,347.63Z"/><path class="cls-4" d="M103.45,409.75a2.86,2.86,0,0,0,.32-.58l.83-1.69c.72-1.48,1.71-3.64,2.89-6.32,2.38-5.36,5.43-12.86,8.69-21.19s6.25-15.84,8.53-21.24c1.13-2.64,2.05-4.81,2.73-6.38l.73-1.74a3.37,3.37,0,0,0,.23-.62,2.74,2.74,0,0,0-.33.58c-.21.44-.49,1-.83,1.69-.72,1.48-1.7,3.63-2.89,6.32-2.37,5.36-5.42,12.86-8.69,21.19s-6.25,15.84-8.53,21.24c-1.13,2.64-2,4.81-2.72,6.38-.3.71-.55,1.28-.74,1.74A2.63,2.63,0,0,0,103.45,409.75Z"/><path class="cls-4" d="M40.39,388.64a2.69,2.69,0,0,0,.63.26l1.83.62,6.76,2.25c5.71,1.91,13.55,4.64,22.22,7.69S88.36,405.17,94.1,407c2.87.91,5.2,1.62,6.82,2.08l1.87.53a3.47,3.47,0,0,0,.66.15,3,3,0,0,0-.63-.26l-1.84-.62-6.75-2.25C88.52,404.71,80.67,402,72,398.93s-16.54-5.71-22.28-7.53c-2.87-.91-5.2-1.62-6.81-2.08l-1.87-.53A3.67,3.67,0,0,0,40.39,388.64Z"/><path class="cls-5" d="M307.19,392.23c1.61,2.25,4.68,1.47,6.1.07s2-3.4,2.53-5.32c1.22-4.38,2.44-9,1.46-13.41a7.46,7.46,0,0,0-1.74-3.63,3.89,3.89,0,0,0-3.7-1.19c-1.55.42-2.5,2-3.19,3.41a32,32,0,0,0-3,13.74,11,11,0,0,0,1.56,6.33"/><path class="cls-5" d="M313.24,403.65a13.77,13.77,0,0,1,8.52-1.12,7.13,7.13,0,0,1,4.24,1.84c1.06,1.15,1.28,3.2.08,4.21a4.05,4.05,0,0,1-2.65.7c-2.26,0-4.76-.38-6.55,1-1,.79-1.69,2.08-2.92,2.47a2.9,2.9,0,0,1-3.21-1.39,5,5,0,0,1-.4-3.66A5.59,5.59,0,0,1,313.24,403.65Z"/><path class="cls-5" d="M302.86,395.52a8.25,8.25,0,0,0,1.21-7.6,14.57,14.57,0,0,0-4.56-6.47,24,24,0,0,0-8.09-4.67,8.55,8.55,0,0,0-3.63-.58,3.84,3.84,0,0,0-3,1.86c-.83,1.63,0,3.58.9,5.17a61.33,61.33,0,0,0,5.36,8c1.61,2,3.44,4,5.86,4.92s4.93.77,6.2-.92"/><path class="cls-4" d="M307.41,426.42a5.27,5.27,0,0,0,.13-1c.07-.76.15-1.7.25-2.82s.28-2.59.59-4.13a31.91,31.91,0,0,1,1.45-4.88,18.43,18.43,0,0,1,2.44-4.42,9.34,9.34,0,0,1,3.12-2.64,8.83,8.83,0,0,1,2.64-.85,5.39,5.39,0,0,0,1-.16,4.92,4.92,0,0,0-1,0,7.87,7.87,0,0,0-2.75.75,9.23,9.23,0,0,0-3.29,2.66,17.23,17.23,0,0,0-2.53,4.52,29.28,29.28,0,0,0-1.44,5,33.69,33.69,0,0,0-.51,4.18c-.08,1.19-.1,2.16-.11,2.83A4.82,4.82,0,0,0,307.41,426.42Z"/><path class="cls-4" d="M307.58,424.25a2,2,0,0,0,0-.48c0-.36,0-.81,0-1.36,0-1.19,0-2.9,0-5,.06-4.24.37-10.1,1-16.53s1.53-12.24,2.35-16.4c.19-1,.38-2,.57-2.8s.32-1.53.47-2.11.23-1,.31-1.33a1.65,1.65,0,0,0,.07-.47,3.68,3.68,0,0,0-.16.45c-.1.34-.22.78-.38,1.31s-.34,1.28-.54,2.1-.43,1.75-.64,2.79a156.94,156.94,0,0,0-2.48,16.41c-.64,6.45-.9,12.32-.89,16.57,0,2.13.06,3.85.12,5,0,.56.07,1,.1,1.37A2.93,2.93,0,0,0,307.58,424.25Z"/><path class="cls-4" d="M307.5,412.94a9.21,9.21,0,0,0,0-1.43,37.51,37.51,0,0,0-.48-3.86,51.62,51.62,0,0,0-1.31-5.63,49.62,49.62,0,0,0-2.42-6.64,35.62,35.62,0,0,0-7-10.71,19,19,0,0,0-1.64-1.49c-.26-.21-.48-.42-.71-.59l-.63-.43a8.1,8.1,0,0,0-1.21-.75,43.42,43.42,0,0,1,4,3.47,37.31,37.31,0,0,1,6.85,10.67,54.34,54.34,0,0,1,2.44,6.58c.63,2.07,1.06,4,1.39,5.57s.49,2.92.6,3.82A10.32,10.32,0,0,0,307.5,412.94Z"/><path class="cls-5" d="M108.91,406.68c-8-6.54-9-17.62-7.91-27.42.18-1.63.14-3.38,1-4.75s2.79-2.22,4.2-1.41c1.18.66,1.6,2.12,2.18,3.35a9.69,9.69,0,0,0,3.56,4,3.64,3.64,0,0,0,3.34.57c1.48-.67,1.8-2.61,1.92-4.24l.66-9.12a15.32,15.32,0,0,1,.87-4.81,5.1,5.1,0,0,1,3.45-3.17,3.08,3.08,0,0,1,3.63,2.36,13.89,13.89,0,0,1-.11,2,1.73,1.73,0,0,0,.88,1.7,2,2,0,0,0,1.85-.61,21.91,21.91,0,0,0,4.35-5.57,30.1,30.1,0,0,1,4.11-5.78,8.83,8.83,0,0,1,6.24-2.88,5.3,5.3,0,0,1,5.13,4c.41,2.34-1.11,4.57-2.72,6.31a36.33,36.33,0,0,1-8.15,6.63,3,3,0,0,0-1.37,1.27c-.44,1.05.5,2.22,1.55,2.66a18.91,18.91,0,0,0,3.77.73,3.66,3.66,0,0,1,3,2.15c.54,1.72-1,3.36-2.46,4.4a31.26,31.26,0,0,1-9.64,4.6,10.5,10.5,0,0,0-3.56,1.39,3,3,0,0,0-1.24,3.39,3.07,3.07,0,0,0,3.24,1.54,22.09,22.09,0,0,0,3.68-1.08c2.31-.67,5.19-.29,6.48,1.76a5.22,5.22,0,0,1,.19,4.61,12,12,0,0,1-2.79,3.83,31.57,31.57,0,0,1-14.13,8.36c-5.34,1.39-10.2,1.5-15.21-.8"/><path class="cls-4" d="M146.11,352.5l-.17.15-.52.39c-.46.34-1.13.85-2,1.53a62.14,62.14,0,0,0-6.76,6.23c-1.33,1.42-2.72,3-4.19,4.79s-3,3.65-4.57,5.7a75.19,75.19,0,0,0-4.58,6.65c-.72,1.2-1.39,2.46-2.06,3.74l-2,3.91a150.62,150.62,0,0,0-7,15.24A73.71,73.71,0,0,0,108.41,414a53.79,53.79,0,0,0-.87,9.2c0,1.09,0,1.94,0,2.52,0,.27,0,.49,0,.65v.23a.72.72,0,0,1,0-.23c0-.16,0-.37-.06-.65,0-.57-.08-1.42-.1-2.52a51.38,51.38,0,0,1,.78-9.23,72,72,0,0,1,3.73-13.23,144.6,144.6,0,0,1,7-15.28c.7-1.32,1.38-2.62,2.05-3.91s1.35-2.55,2.08-3.75a72.86,72.86,0,0,1,4.61-6.67c1.56-2.05,3.13-3.94,4.6-5.7s2.88-3.36,4.23-4.77a58.43,58.43,0,0,1,6.84-6.18c.86-.66,1.55-1.15,2-1.48l.53-.37Z"/><path class="cls-4" d="M123.18,377.78a3.26,3.26,0,0,1-.11-.71c0-.45-.1-1.12-.15-1.94-.1-1.64-.16-3.91-.23-6.42s-.16-4.77-.28-6.4c-.06-.82-.12-1.48-.17-1.94a3.28,3.28,0,0,1,0-.72,3.73,3.73,0,0,1,.15.7c.08.46.17,1.12.26,1.94.18,1.63.31,3.9.37,6.41s.11,4.71.15,6.42c0,.77,0,1.42,0,1.95A3.53,3.53,0,0,1,123.18,377.78Z"/><path class="cls-4" d="M144.45,375.51a5.09,5.09,0,0,1-.84,0c-.54,0-1.33,0-2.3,0-1.93.06-4.6.23-7.54.55s-5.59.73-7.5,1.08c-1,.16-1.72.32-2.26.43a4.94,4.94,0,0,1-.83.13,4.11,4.11,0,0,1,.81-.25c.52-.14,1.29-.33,2.24-.53,1.9-.4,4.56-.84,7.5-1.17s5.64-.45,7.58-.45c1,0,1.76,0,2.3.05A4.45,4.45,0,0,1,144.45,375.51Z"/><path class="cls-4" d="M112.21,400.36a1.23,1.23,0,0,1-.12-.27l-.3-.78c-.25-.69-.6-1.69-1-2.93-.82-2.48-1.85-5.94-2.93-9.78s-2.08-7.31-2.85-9.8l-.92-2.95-.25-.81a1.29,1.29,0,0,1-.07-.29,1,1,0,0,1,.13.27l.3.79c.25.68.6,1.68,1,2.92.82,2.48,1.85,5.95,2.93,9.79s2.08,7.3,2.85,9.8l.92,2.95c.1.32.18.59.25.8A1.09,1.09,0,0,1,112.21,400.36Z"/><path class="cls-4" d="M140.78,393.57a1,1,0,0,1-.29.1l-.83.2-3.06.74c-2.58.61-6.14,1.51-10.07,2.5s-7.5,1.86-10.09,2.43c-1.3.28-2.36.5-3.09.64l-.84.15a1.1,1.1,0,0,1-.3,0l.29-.09.83-.21,3.06-.73c2.58-.62,6.14-1.52,10.07-2.51s7.5-1.86,10.1-2.42c1.3-.29,2.35-.51,3.08-.64l.84-.15A1,1,0,0,1,140.78,393.57Z"/><g class="cls-6"><path d="M108.91,406.68c-8-6.54-9-17.62-7.91-27.42.18-1.63.14-3.38,1-4.75s2.79-2.22,4.2-1.41c1.18.66,1.6,2.12,2.18,3.35a9.69,9.69,0,0,0,3.56,4,3.64,3.64,0,0,0,3.34.57c1.48-.67,1.8-2.61,1.92-4.24l.66-9.12a15.32,15.32,0,0,1,.87-4.81,5.1,5.1,0,0,1,3.45-3.17,3.08,3.08,0,0,1,3.63,2.36,13.89,13.89,0,0,1-.11,2,1.73,1.73,0,0,0,.88,1.7,2,2,0,0,0,1.85-.61,21.91,21.91,0,0,0,4.35-5.57,30.1,30.1,0,0,1,4.11-5.78,8.83,8.83,0,0,1,6.24-2.88,5.3,5.3,0,0,1,5.13,4c.41,2.34-1.11,4.57-2.72,6.31a36.33,36.33,0,0,1-8.15,6.63,3,3,0,0,0-1.37,1.27c-.44,1.05.5,2.22,1.55,2.66a18.91,18.91,0,0,0,3.77.73,3.66,3.66,0,0,1,3,2.15c.54,1.72-1,3.36-2.46,4.4a31.26,31.26,0,0,1-9.64,4.6,10.5,10.5,0,0,0-3.56,1.39,3,3,0,0,0-1.24,3.39,3.07,3.07,0,0,0,3.24,1.54,22.09,22.09,0,0,0,3.68-1.08c2.31-.67,5.19-.29,6.48,1.76a5.22,5.22,0,0,1,.19,4.61,12,12,0,0,1-2.79,3.83,31.57,31.57,0,0,1-14.13,8.36c-5.34,1.39-10.2,1.5-15.21-.8"/></g></g><g id="Houses"><path class="cls-4" d="M357.4,249.73l.36,0,1.07,0,4.1-.05,15.09-.08,49.78-.08,49.78.08,15.09.08,4.1.05,1.07,0,.36,0a1.65,1.65,0,0,1-.36,0l-1.07,0-4.1.05-15.09.08L427.8,250,378,249.92l-15.09-.08-4.1-.05-1.07,0A1.65,1.65,0,0,1,357.4,249.73Z"/><polygon class="cls-5" points="400.18 249.59 400.18 233.53 410.18 225.05 426.85 225.05 435.03 232.62 435.03 249.38 400.18 249.59"/><rect class="cls-4" x="403.28" y="235.02" width="1.18" height="3.04"/><rect class="cls-4" x="425.66" y="234.55" width="1.18" height="3.04"/><rect class="cls-4" x="431.95" y="237.75" width="1.18" height="3.04"/><polygon class="cls-4" points="400.18 233.53 421.26 233.53 426.85 225.05 410.18 225.05 400.18 233.53"/><polygon class="cls-5" points="445.56 249.65 445.56 239.93 451.61 234.8 461.7 234.8 466.65 239.38 466.65 249.52 445.56 249.65"/><rect class="cls-4" x="447.44" y="240.83" width="0.71" height="1.84"/><rect class="cls-4" x="460.98" y="240.55" width="0.71" height="1.84"/><rect class="cls-4" x="464.78" y="242.48" width="0.71" height="1.84"/><polygon class="cls-4" points="445.56 239.93 458.32 239.93 461.7 234.8 451.61 234.8 445.56 239.93"/><path class="cls-7" d="M432.79,253.81c0,.14-7.54.26-16.85.26s-16.85-.12-16.85-.26,7.54-.26,16.85-.26S432.79,253.67,432.79,253.81Z"/><path class="cls-7" d="M425,257.48a127.4,127.4,0,0,1-16.27-.24,61.73,61.73,0,0,1,8.14-.14A61.23,61.23,0,0,1,425,257.48Z"/><path class="cls-7" d="M469.69,254.1c0,.14-5.85.26-13.07.26s-13.08-.12-13.08-.26,5.86-.26,13.08-.26S469.69,254,469.69,254.1Z"/></g><g id="Birds"><path class="cls-4" d="M363.59,24.9c0,.05-.95.06-2.65.25a25.58,25.58,0,0,0-7,1.9,26.54,26.54,0,0,0-8.82,6.08,25.42,25.42,0,0,0-6.48,11.39l-.18.71-.31-.67-.76-1.64A27,27,0,0,0,333.36,37a29,29,0,0,0-5-4.4A29.31,29.31,0,0,0,318,28.09a27.66,27.66,0,0,0-7.63-.63c-.9,0-1.6.17-2.08.2a3.65,3.65,0,0,1-.73.05,3.27,3.27,0,0,1,.71-.15,18,18,0,0,1,2.09-.3,26.09,26.09,0,0,1,7.72.47,29,29,0,0,1,10.55,4.49,28.38,28.38,0,0,1,5.15,4.45,26.88,26.88,0,0,1,4.14,6l.78,1.67-.49,0a25.51,25.51,0,0,1,6.64-11.6,28.63,28.63,0,0,1,4.52-3.72,28,28,0,0,1,4.5-2.36A24.1,24.1,0,0,1,360.92,25c.85-.11,1.53-.05,2-.08A3.08,3.08,0,0,1,363.59,24.9Z"/><path class="cls-4" d="M370.23,53.11a38,38,0,0,0-2.67,4.25,21.94,21.94,0,0,0-2.27,11.69c0,.37.08.75.12,1.09l.11.89-.56-.68c-2.87-3.49-5.4-6.62-7.22-8.9l-2.11-2.7a5.33,5.33,0,0,1-.72-1,6.81,6.81,0,0,1,.87.91l2.24,2.6c1.88,2.21,4.47,5.31,7.34,8.79l-.46.2c0-.36-.09-.74-.13-1.12a21.41,21.41,0,0,1,2.46-11.91,18.65,18.65,0,0,1,2.07-3.09A6,6,0,0,1,370.23,53.11Z"/></g><g id="Character"><polygon class="cls-7" points="175.17 415.64 170.56 426.38 191.21 426.13 191.65 415.18 175.17 415.64"/><path class="cls-4" d="M191.36,424.27a17.78,17.78,0,0,1-2.89.15c-1.79,0-4.26,0-7,0l-7-.15a20.51,20.51,0,0,1-2.88-.14,17.24,17.24,0,0,1,2.89-.14c1.79,0,4.26,0,7,0l7,.14A25.23,25.23,0,0,1,191.36,424.27Z"/><path class="cls-4" d="M182.75,415.4c.18,0,.22,2,.09,4.36s-.39,4.33-.57,4.32-.22-2-.08-4.36S182.57,415.39,182.75,415.4Z"/><polyline class="cls-8" points="170.59 426.6 191.23 425.91 191.37 423.95 171.63 424.12 170.58 426.37"/><path class="cls-7" d="M263.91,420.82l0-10.41-19.51-.07-.12,15.24,1.21.08c5.38.32,27.39,1.24,31,.16C280.47,424.62,263.91,420.82,263.91,420.82Z"/><g class="cls-6"><path class="cls-9" d="M272,423s5.8,1.69,5.08,2.65-23,.86-32.83,0l0-.44,26,.33S270.86,423,272,423Z"/></g><path class="cls-4" d="M244,425.13l.34,0,1,.07,3.55.16c3,.13,7.13.24,11.71.26s8.71,0,11.71-.14l3.54-.13,1-.05.33,0h-1.3l-3.55.06c-3,0-7.13.09-11.7.06s-8.71-.1-11.71-.18l-3.54-.09-1,0Z"/><path class="cls-4" d="M270.26,425.78a5.23,5.23,0,0,1,1.88-3,2.64,2.64,0,0,0-1.41,1.23A2.6,2.6,0,0,0,270.26,425.78Z"/><path class="cls-4" d="M264.51,422.83c.06,0,.33-.3.62-.75s.48-.83.42-.87-.33.3-.62.75A2.23,2.23,0,0,0,264.51,422.83Z"/><path class="cls-4" d="M262.94,422c0,.05.35-.16.69-.46s.57-.58.53-.63-.35.15-.69.46S262.89,421.94,262.94,422Z"/><path class="cls-4" d="M262,420.14c0,.07.45.13,1,.14s1,0,1-.11a4.54,4.54,0,0,0-2,0Z"/><path class="cls-4" d="M261.61,418.84a1.93,1.93,0,0,0,1.13.34,2.08,2.08,0,0,0,1.18-.15,5.61,5.61,0,0,0-1.16-.09A6.58,6.58,0,0,0,261.61,418.84Z"/><path class="cls-4" d="M265.18,421.13a3.49,3.49,0,0,0,1.26,0,8.29,8.29,0,0,0,1.33-.29,4,4,0,0,0,.77-.31.69.69,0,0,0,.31-.39.49.49,0,0,0-.19-.5,2.34,2.34,0,0,0-3.26,1.49c0,.22,0,.34,0,.34a3.58,3.58,0,0,1,.57-1.06,2.29,2.29,0,0,1,1.08-.7,1.93,1.93,0,0,1,1.49.11c.2.15.12.38-.1.51a3,3,0,0,1-.71.3,7.91,7.91,0,0,1-1.29.33C265.66,421.09,265.18,421.09,265.18,421.13Z"/><path class="cls-4" d="M265.51,421.19a1.26,1.26,0,0,0,.14-.87,1.91,1.91,0,0,0-.33-.91,1.27,1.27,0,0,0-1-.65.49.49,0,0,0-.39.58,1.34,1.34,0,0,0,.21.56,3.23,3.23,0,0,0,.59.76c.39.39.7.54.71.51s-.25-.22-.59-.62a4,4,0,0,1-.52-.76c-.17-.26-.29-.74,0-.79s.64.28.83.53a2.21,2.21,0,0,1,.35.82A6.7,6.7,0,0,1,265.51,421.19Z"/><path class="cls-4" d="M244.4,419.79s.55-.05,1.44.06a6.11,6.11,0,0,1,5.09,4.09c.29.84.32,1.4.36,1.4s0-.14,0-.4a5.31,5.31,0,0,0-.21-1.05,5.94,5.94,0,0,0-5.24-4.21,5.89,5.89,0,0,0-1.07,0A1.25,1.25,0,0,0,244.4,419.79Z"/><path class="cls-4" d="M246.45,411.68a34.39,34.39,0,0,0-.18,4,32.36,32.36,0,0,0,0,4,37.46,37.46,0,0,0,.18-4A32.36,32.36,0,0,0,246.45,411.68Z"/><path class="cls-4" d="M253.79,423.56a11.23,11.23,0,0,0,2.84.29,11.08,11.08,0,0,0,2.86-.21c0-.07-1.28,0-2.85,0S253.79,423.49,253.79,423.56Z"/><path class="cls-4" d="M250,423.54c-.05,0,.1.27.23.56s.2.55.27.55.1-.31-.05-.65S250,423.49,250,423.54Z"/><path class="cls-4" d="M248.53,421.74c-.05,0,.08.24.28.45s.4.34.45.29-.08-.25-.28-.46S248.58,421.69,248.53,421.74Z"/><path class="cls-4" d="M246.47,420.91c0,.06.27.06.56.16s.49.26.54.22-.11-.32-.46-.44S246.45,420.85,246.47,420.91Z"/><path class="cls-4" d="M245,420.51c0,.07.09.17.25.23s.31.06.34,0-.09-.16-.25-.22S245,420.45,245,420.51Z"/><g class="cls-10"><polygon points="244.25 419.01 263.92 419.03 263.9 416.68 244.32 416.55 244.25 419.01"/></g><polygon class="cls-7" points="201.54 217.49 167.53 415.4 195.11 416.55 230.56 244.85 239.71 416.69 270.05 416.22 259.03 214.5 201.54 217.49"/><polygon class="cls-11" points="201.54 217.49 167.53 415.4 195.11 416.55 230.56 244.85 239.71 416.69 270.05 416.22 259.03 214.5 201.54 217.49"/><path class="cls-4" d="M239.05,244.69a5.25,5.25,0,0,1-1.09.14l-3,.22c-2.52.17-6,.34-9.83.72s-7.28.89-9.78,1.22l-3,.37a4.78,4.78,0,0,1-1.1.07,4.42,4.42,0,0,1,1.07-.27c.69-.14,1.7-.32,2.94-.54,2.5-.42,5.94-1,9.79-1.37s7.34-.49,9.87-.57c1.26,0,2.28-.05,3-.05A4,4,0,0,1,239.05,244.69Z"/><path class="cls-4" d="M261.14,232.42a2,2,0,0,1-.74.19,10.21,10.21,0,0,1-2.08.1A12.09,12.09,0,0,1,247.65,225a10.32,10.32,0,0,1-.58-2,1.93,1.93,0,0,1,0-.76c.09,0,.26,1.06,1,2.63a12.56,12.56,0,0,0,10.35,7.44C260.06,232.51,261.13,232.33,261.14,232.42Z"/><path class="cls-4" d="M262.76,282.83c7.29,21.86,2.1,38.43,2.1,38.43H250.12L247,284Z"/><path class="cls-4" d="M174.12,376.65a41.76,41.76,0,0,1,7-40.46h7.44l-5.89,40.46Z"/><path class="cls-12" d="M265.45,292a3.23,3.23,0,0,1-.86.32c-.57.18-1.39.42-2.41.67a20.46,20.46,0,0,1-8.25.51,7.38,7.38,0,0,1-2.28-.81,6.15,6.15,0,0,1-1.71-1.47,9.51,9.51,0,0,1-1.7-3.36,18.31,18.31,0,0,1-.53-2.45,2.79,2.79,0,0,1-.08-.92c.09,0,.32,1.28,1,3.26a9.63,9.63,0,0,0,1.72,3.16A6,6,0,0,0,254,293a22.25,22.25,0,0,0,8.07-.36A26.69,26.69,0,0,1,265.45,292Z"/><path class="cls-12" d="M250.14,322.68c-.08,0,.51-1.65,1.23-4.33a59.81,59.81,0,0,0,1.82-10.64,60.67,60.67,0,0,0-.19-10.8c-.31-2.75-.65-4.44-.56-4.46a5.87,5.87,0,0,1,.33,1.17c.18.75.39,1.86.59,3.24a50.51,50.51,0,0,1-1.64,21.59c-.4,1.34-.78,2.4-1.07,3.12A5.29,5.29,0,0,1,250.14,322.68Z"/><path class="cls-12" d="M188.23,336.76a3.3,3.3,0,0,1,0,.93c-.07.59-.2,1.43-.41,2.47a42.08,42.08,0,0,1-2.49,7.91l-.58,1.31-.08.17-.19,0c-2.86-.41-5.41-.61-7.24-.72a22.69,22.69,0,0,1-2.95-.21,14.25,14.25,0,0,1,3-.13,56.73,56.73,0,0,1,7.3.55l-.27.15.57-1.29a52.85,52.85,0,0,0,2.61-7.79C187.92,338,188.15,336.75,188.23,336.76Z"/><path class="cls-12" d="M176.57,377.9a5.11,5.11,0,0,0,1.22-.07,4.2,4.2,0,0,0,2.57-1.93,11.44,11.44,0,0,0,1.21-4.78c.21-1.91.45-4,.7-6.16.51-4.37,1-8.33,1.39-11.18.19-1.35.35-2.48.48-3.38a5.93,5.93,0,0,1,.25-1.24,6,6,0,0,1,0,1.26c-.08.91-.19,2.05-.31,3.4-.29,2.87-.73,6.83-1.24,11.2-.27,2.17-.52,4.25-.75,6.15a11.17,11.17,0,0,1-1.37,4.92,4.26,4.26,0,0,1-2.84,1.94,2.84,2.84,0,0,1-1,0C176.67,378,176.57,377.92,176.57,377.9Z"/><polygon class="cls-12" points="250.52 95.12 276.48 111.34 305.36 91.08 328.83 106.71 328.83 192.95 305.36 180.52 279.38 195.39 250.6 183.01 227.29 192.82 229.75 117.17 250.52 95.12"/><polygon class="cls-2" points="234.41 119.34 231.93 184.62 249.29 177.39 278.02 191.29 303.84 173.65 324.92 186.61 324.92 109.82 306.32 95.76 278.43 117.25 251.35 100.59 234.41 119.34"/><path class="cls-3" d="M324.92,186.61V144.32c-3.37-3.78-9.81-4.53-13.82-1.34-5,4-5.6,12.13-11.16,15.26-2.32,1.3-5.1,1.46-7.62,2.32a14.1,14.1,0,0,0-4.56,24.08l16.08-11Z"/><path class="cls-3" d="M305.48,96.41l-27.05,20.84-5.61-3.45c-1.1,3.28-.79,7.18,1.49,9.76a15.14,15.14,0,0,0,.21,5.77,12.29,12.29,0,0,0,8.32,9c4.12,1.12,9-.73,10.94-4.54,1.18-2.34,1.42-5.39,3.6-6.83,2.49-1.65,5.75-.14,8.7.32,6.3,1,12.72-3.8,14.32-10a16.1,16.1,0,0,0-2.3-12.61l-10-7.56A22.75,22.75,0,0,0,305.48,96.41Z"/><path class="cls-3" d="M269.74,182.79c-2.08-3.34-2.13-7.55-1.67-11.47s1.36-7.83.93-11.75-2.56-8-6.28-9.27c-2.09-.73-4.42-.51-6.54-1.16-3.94-1.21-6.42-5.27-7.15-9.33s-.08-8.21.23-12.32.22-8.46-1.8-12a9.35,9.35,0,0,0-5.62-4.32l-7.43,8.22-2.48,65.28,17.36-7.23L278,191.29l1.64-1.12C275.9,188.17,271.94,186.3,269.74,182.79Z"/><path class="cls-5" d="M235.19,153.13a23.29,23.29,0,0,1-1.19,2.16c-.59,1.19-.76,2.29-.91,2.28a3.43,3.43,0,0,1,.44-2.51C234.16,153.76,235.11,153,235.19,153.13Z"/><path class="cls-5" d="M244.34,150.2c0,.07-.3.1-.75.11s-1.06-.06-1.73,0a15.76,15.76,0,0,1-2.47.21,3.92,3.92,0,0,1,2.44-.73,6.32,6.32,0,0,1,1.8.15C244.08,150,244.35,150.12,244.34,150.2Z"/><path class="cls-5" d="M252.93,155c-.11.1-1-.62-2-1.46s-2-1.49-1.9-1.62a4.75,4.75,0,0,1,2.22,1.21C252.33,154,253,154.92,252.93,155Z"/><path class="cls-5" d="M258.72,163.13c-.12.07-.81-.82-1.53-2a6.14,6.14,0,0,1-1.1-2.27c.11-.08.8.81,1.54,2A6,6,0,0,1,258.72,163.13Z"/><path class="cls-5" d="M263.94,171.66c-.12.08-.82-.79-1.58-1.95a6.14,6.14,0,0,1-1.15-2.24c.12-.07.83.8,1.58,1.95A6.4,6.4,0,0,1,263.94,171.66Z"/><path class="cls-5" d="M271.35,178.23c0,.06-.31,0-.73-.2a7.66,7.66,0,0,1-1.57-.86c-1.16-.8-1.9-1.67-1.8-1.77s1,.57,2.09,1.35c.56.4,1.09.7,1.45,1S271.38,178.16,271.35,178.23Z"/><path class="cls-5" d="M281.09,179.88a4.89,4.89,0,0,1-2.51.34,4.8,4.8,0,0,1-2.48-.5,9.24,9.24,0,0,1,2.5,0A8.52,8.52,0,0,1,281.09,179.88Z"/><path class="cls-5" d="M290.51,176.77a5,5,0,0,1-2.1,1.4,4.89,4.89,0,0,1-2.44.68,8.51,8.51,0,0,1,2.22-1.15A8.07,8.07,0,0,1,290.51,176.77Z"/><path class="cls-5" d="M297.81,170a5.3,5.3,0,0,1-1.39,2.11c-.93,1-1.85,1.72-1.94,1.61s.64-.94,1.55-2S297.69,169.93,297.81,170Z"/><path class="cls-5" d="M302.56,161.25a9.18,9.18,0,0,1-2.07,4.55,7.45,7.45,0,0,1,.87-2.35A7.64,7.64,0,0,1,302.56,161.25Z"/><path class="cls-5" d="M305,151.57a5.26,5.26,0,0,1-.09,2.52,5.36,5.36,0,0,1-.8,2.4,7.63,7.63,0,0,1,.28-2.49A7.55,7.55,0,0,1,305,151.57Z"/><path class="cls-5" d="M303.39,141.83a4.42,4.42,0,0,1,1.21,2.23,4.52,4.52,0,0,1,.29,2.52,9.76,9.76,0,0,1-.79-2.36A11.79,11.79,0,0,1,303.39,141.83Z"/><path class="cls-5" d="M295.89,135.55a4.68,4.68,0,0,1,2.39.83c1.24.68,2,1.52,1.94,1.62a10.18,10.18,0,0,1-2.19-1.17A9.47,9.47,0,0,1,295.89,135.55Z"/><path class="cls-5" d="M286.05,134.18a5.29,5.29,0,0,1,2.51-.29,5.06,5.06,0,0,1,2.48.47,8.1,8.1,0,0,1-2.5,0A7.55,7.55,0,0,1,286.05,134.18Z"/><path class="cls-5" d="M277.09,131.66c.15-.06.57,1,1.73,1.64s2.26.8,2.23,1a3.26,3.26,0,0,1-2.5-.51,3.31,3.31,0,0,1-1.29-1.34C277.05,132,277,131.68,277.09,131.66Z"/><path class="cls-5" d="M282.33,124.17c0,.07-.2.25-.57.5s-.93.53-1.47.92c-1.11.77-1.88,1.56-2,1.46s.52-1.07,1.7-1.88a6.65,6.65,0,0,1,1.6-.83C282,124.17,282.3,124.11,282.33,124.17Z"/><path class="cls-5" d="M292.08,122.52a8.93,8.93,0,0,1-2.49.2,8.48,8.48,0,0,1-2.49,0,4.89,4.89,0,0,1,2.47-.51A4.77,4.77,0,0,1,292.08,122.52Z"/><path class="cls-5" d="M301.57,125.53a6.68,6.68,0,0,1-2.39-.78,7.51,7.51,0,0,1-2.23-1.14,5.22,5.22,0,0,1,2.43.66A6,6,0,0,1,301.57,125.53Z"/><path class="cls-5" d="M310.89,129.06a5.18,5.18,0,0,1-2.49-.38,6.05,6.05,0,0,1-2.28-1.1,6.32,6.32,0,0,1,2.44.61A7.68,7.68,0,0,1,310.89,129.06Z"/><path class="cls-5" d="M320.54,127.49a4,4,0,0,1-2.15,1.36,4.22,4.22,0,0,1-2.51.33,11.32,11.32,0,0,1,2.34-.82A16.22,16.22,0,0,1,320.54,127.49Z"/><path class="cls-4" d="M195.62,143.23a2.07,2.07,0,0,1,.1.45c.06.35.12.78.21,1.29.17,1.2.4,2.81.68,4.76.57,4.09,1.35,9.61,2.21,15.7s1.6,11.69,2.08,15.73c.23,2,.41,3.65.52,4.78,0,.51.08.94.11,1.3a1.35,1.35,0,0,1,0,.46,2.07,2.07,0,0,1-.1-.45l-.21-1.29c-.17-1.2-.4-2.81-.68-4.76-.58-4.09-1.35-9.6-2.22-15.7s-1.6-11.69-2.07-15.73c-.24-2-.41-3.65-.52-4.78,0-.51-.08-.94-.11-1.3A1.35,1.35,0,0,1,195.62,143.23Z"/><path class="cls-13" d="M223.35,67.75l-2.26,45.8,19.61,1.85,1.09-11.12s6.91,1.71,9-4.69c1.35-4.09,2.54-36.11,2.54-36.11Z"/><path class="cls-4" d="M255,68.83c.55,4.29-5.45,6.77-5.45,6.77l-1,10.14a20.33,20.33,0,0,0-2.82,0c.5-4.76-5.62-3.83-6.25-.59s3,5.2,3,5.2C240,94.1,239,96.08,235.5,99.61c-3.77,3.81-5.79,4.12-9.68,4l-4.29-.2s-1.52-3.66-2.64-12.31c-.54-4.16-3.78-9.6-2.86-16.37,2.63-19.21,21-17.18,21-17.18C246.62,57.83,253.77,58.89,255,68.83Z"/><path class="cls-4" d="M249.85,75.28a14.52,14.52,0,0,0,9.29-9.9,7.13,7.13,0,0,0-.35-5.32c-.9-1.58-3.05-2.53-4.64-1.65a5.32,5.32,0,0,0-10.34-1.76,4.78,4.78,0,0,0-5.29-1.48,6.75,6.75,0,0,0-4,4.08,11.83,11.83,0,0,0-.48,5.79"/><path class="cls-5" d="M218.09,83.64c-3.5-3.45-4.57-7-4.18-11.92a18.93,18.93,0,0,1,14.45-28.33,8.05,8.05,0,0,1,4.9.74,3.86,3.86,0,0,1,2,4.24c-.51,1.61-2.85,2.43-4,1.21,3.83,2.28,7.73,4.63,10.6,8s4.56,8.14,3.24,12.4c-1.09,3.48-4,6.08-6.91,8.23-5.8,4.23-13.17,7.46-20,5.4"/><path class="cls-4" d="M239.78,55a5.32,5.32,0,0,1-.14,1.36,17.58,17.58,0,0,1-1,3.61,19.95,19.95,0,0,1-19.54,12.73,17.71,17.71,0,0,1-3.72-.53,5.39,5.39,0,0,1-1.3-.43,33.19,33.19,0,0,0,5,.59,20.23,20.23,0,0,0,19.19-12.5A34.76,34.76,0,0,0,239.78,55Z"/><path class="cls-4" d="M226.74,83.91a4.81,4.81,0,0,1-2-.65,9.34,9.34,0,0,1-5.11-8.44,4.51,4.51,0,0,1,.37-2.09c.08,0-.07.81,0,2.08a10,10,0,0,0,4.92,8.13C226,83.59,226.77,83.83,226.74,83.91Z"/><path class="cls-4" d="M233.89,80.91a4.29,4.29,0,0,1-1.71-.72,10.32,10.32,0,0,1-4.76-7.36,4.45,4.45,0,0,1,0-1.85,14.67,14.67,0,0,1,.33,1.79,12.11,12.11,0,0,0,1.63,4,12,12,0,0,0,3,3.12A15.6,15.6,0,0,1,233.89,80.91Z"/><path class="cls-4" d="M241.22,76.06a39.08,39.08,0,0,0-3.29-4.89,40.41,40.41,0,0,0-4.36-4,14.56,14.56,0,0,1,7.65,8.85Z"/><path class="cls-4" d="M245.48,68.46c-.18.09-.92-2.36-3-4.49s-4.67-2.6-4.59-2.78a3.74,3.74,0,0,1,1.6.3,8.7,8.7,0,0,1,3.35,2.11A10.69,10.69,0,0,1,245,66.89,4.18,4.18,0,0,1,245.48,68.46Z"/><g class="cls-14"><path d="M213.09,70.28c2.36.72,4.95,0,7.08-1.28s4-2.94,6-4.31a6.64,6.64,0,0,1,2.32-1.08,2.79,2.79,0,0,1,2.42.59,2.67,2.67,0,0,1,.56,2.63,5,5,0,0,1-1.62,2.28c-3.05,2.67-7.41,3.13-11.47,3.23a8.4,8.4,0,0,1-2.74-.25,3,3,0,0,1-2-1.77"/></g><path class="cls-4" d="M232.21,58.05a3.28,3.28,0,0,1-.4.86c-.29.54-.74,1.3-1.32,2.22A27,27,0,0,1,225,67.62,14.85,14.85,0,0,1,217.14,71a10,10,0,0,1-2.61-.07,3,3,0,0,1-.92-.25,22,22,0,0,0,3.48,0,15.46,15.46,0,0,0,7.53-3.41,30.1,30.1,0,0,0,5.56-6.28C231.42,59.15,232.14,58,232.21,58.05Z"/><path class="cls-4" d="M227.64,63.81a8.68,8.68,0,0,0,.18,3.47,8.68,8.68,0,0,0,1.92,2.89c0,.06-.43-.08-1-.52a5,5,0,0,1-1.6-4.85C227.34,64.14,227.59,63.79,227.64,63.81Z"/><path class="cls-4" d="M234.73,46.91s-.36-.25-1.06-.57a6.54,6.54,0,0,0-3.17-.53,7.66,7.66,0,0,0-4.35,1.79A11.06,11.06,0,0,0,223,52.48a15.44,15.44,0,0,0-.9,5.82,7.13,7.13,0,0,0,1.67,4.38,5.59,5.59,0,0,0,2.67,1.73c.75.19,1.19.15,1.19.2s-.11,0-.32,0a3.51,3.51,0,0,1-.91-.06,5.47,5.47,0,0,1-2.91-1.67,7.4,7.4,0,0,1-1.87-4.6,15.31,15.31,0,0,1,.89-6,11.35,11.35,0,0,1,3.36-5.07,7.85,7.85,0,0,1,4.64-1.78,6.17,6.17,0,0,1,3.28.71,3.73,3.73,0,0,1,.75.52C234.67,46.81,234.75,46.89,234.73,46.91Z"/><path class="cls-4" d="M221.5,69.47a1.12,1.12,0,0,1-.42,0,5.94,5.94,0,0,1-1.18-.3,8.36,8.36,0,0,1-3.61-2.64,10.54,10.54,0,0,1-2.19-6.23,14.92,14.92,0,0,1,2-7.86A15.26,15.26,0,0,1,228,44.56a14.89,14.89,0,0,1,4.46.21,10,10,0,0,1,1.18.32,1.4,1.4,0,0,1,.39.15,19.51,19.51,0,0,0-6-.32,15.56,15.56,0,0,0-6.1,2.09,15.24,15.24,0,0,0-5.43,5.65,14.77,14.77,0,0,0-1.93,7.59,10.41,10.41,0,0,0,2,6A8.58,8.58,0,0,0,220,69C220.92,69.36,221.51,69.42,221.5,69.47Z"/><path class="cls-4" d="M238.36,60.83a6.54,6.54,0,0,0-.81-3.28A7.45,7.45,0,0,0,235,55a17.45,17.45,0,0,0-4.18-1.82,5.58,5.58,0,0,1-2.18-1.21,2.59,2.59,0,0,1-.86-2.21A2.67,2.67,0,0,1,229,47.94a3.39,3.39,0,0,1,1.76-.57,6.59,6.59,0,0,1,2.55.46,2.74,2.74,0,0,1,.86.39,4.2,4.2,0,0,1-.92-.2,7.54,7.54,0,0,0-2.47-.28,3,3,0,0,0-1.53.56,2.24,2.24,0,0,0-1,1.49,2.09,2.09,0,0,0,.73,1.78,5.5,5.5,0,0,0,2,1.08,17.34,17.34,0,0,1,4.27,1.9,7.63,7.63,0,0,1,2.62,2.83,5.39,5.39,0,0,1,.63,2.51A2.14,2.14,0,0,1,238.36,60.83Z"/><path class="cls-13" d="M321.42,148.94l4.24-1.83c3.72-2,5.86-3,6.51-4.45.87-2-1.69-2.51-1.69-2.51s2.4-2.13,1.42-3.73a1.84,1.84,0,0,0-2-.66s2.07-2,2.13-3.24c.08-1.68-2-1.7-2-1.7,2.5-3.49,1.33-5.42.47-5.3s-3,2.43-3,2.43c-2,1.57-7.24,6-6.39,1.67s-.12-7.89-1.06-8.68-2.39.22-2.07,1.54a16.21,16.21,0,0,1,0,4.4,10.58,10.58,0,0,1-.95,3.4c-.6,1.24-1.15,2.27-1.65,3.14l-2.26,5.25Z"/><path class="cls-7" d="M240.36,137.81l30.43,41.62a13.2,13.2,0,0,0,19.55,2l33.79-30.78-12.26-14.77L283.54,157.7l-20.79-34.46a13.35,13.35,0,0,0-18.58-3.36h0A13.37,13.37,0,0,0,240.36,137.81Z"/><path class="cls-12" d="M245.2,144.49a4.09,4.09,0,0,1,.64.87l1.62,2.45c1.37,2.08,3.27,4.93,5.47,8s4.26,5.82,5.77,7.79l1.79,2.34a4.76,4.76,0,0,1,.61.89s-.3-.25-.77-.76-1.12-1.28-1.92-2.24c-1.59-1.91-3.7-4.62-5.91-7.72s-4.06-6-5.35-8.11c-.64-1.06-1.15-1.93-1.48-2.54A4.41,4.41,0,0,1,245.2,144.49Z"/><path class="cls-7" d="M186.05,153.14s-5.35,23.3-5.42,26.39c-.09,4.06,5.07,11.06,9.81,12,7.57,1.52,14.92-5.11,14.92-5.11l.92-31.24Z"/><path class="cls-7" d="M185.49,155.6s4.44-35.36,21.1-39.78,14.5-2.27,14.5-2.27l14,1.65a30.2,30.2,0,0,1,26.47,26.87l-.38,31.41s3.55,22.54,3.55,24c0,9.14-3.55,19-3.55,19l-59.88,2.68s-3.84-1.39-5.66-7.07,5.93-24.86,5.93-24.86Z"/><g class="cls-14"><path d="M247,146.93a148.35,148.35,0,0,0,7.67,37.86,30.92,30.92,0,0,0,3.09,6.92c.68,1,1.74,2.14,3,1.94a2.46,2.46,0,0,0,1.81-1.83,7.25,7.25,0,0,0,.07-2.71c-.8-7.94-.68-14.32-1.47-22.27"/></g><path class="cls-4" d="M227.79,143.9c-.14-1.64,5.89-28.37,5.89-28.37l11.64,2.38-7.11,27.81Z"/><path class="cls-4" d="M238.1,198.68c8.71-.79,19.86-21.29,23.28-33,2.47,18-8.77,36-21.8,46"/><path class="cls-7" d="M173.61,161,168,161c-.3,2.56.92,5.23.12,7.69a10.82,10.82,0,0,1-1.54,3c-1.15,1.6-1.13,13.34-.14,17.38h6.76Z"/><path class="cls-12" d="M253.1,138.61H160.27c-3.59-10.13-5-19.87,0-28.47H253.1C260.22,119.29,258.39,128.87,253.1,138.61Z"/><path class="cls-4" d="M195.18,233.05c-13.38,1.28-16.68-2.61-20-8.62s-3.2-13.28-3-20.15q.6-17.91,1.21-35.82c.26-7.93-.44-16.5,3.64-23.31s10.32-9.06,19.87-8.49l22.95.6c11.93.31,21.44,4.76,21.1,18.21l.34,61.46a15.48,15.48,0,0,1-15.16,15.47Z"/><rect class="cls-4" x="188.42" y="109.39" width="3.98" height="29.98"/><rect class="cls-4" x="220.83" y="109.31" width="3.98" height="29.98"/><path class="cls-12" d="M236.51,143.9v.26c0,.2,0,.45,0,.75-.05.66-.09,1.64-.29,2.88a45.32,45.32,0,0,1-2.61,10.29,40.34,40.34,0,0,1-3.28,6.59,29.82,29.82,0,0,1-5.37,6.51l-1.73,1.47c-.62.45-1.28.85-1.93,1.28a10.52,10.52,0,0,1-1,.62l-1.07.52a15.7,15.7,0,0,1-2.22,1l-2.34.76c-.81.18-1.63.31-2.46.47-.41.06-.83.17-1.25.2l-1.27.07c-.85,0-1.71.11-2.56.09a47.37,47.37,0,0,1-9.95-1.23,31.94,31.94,0,0,1-8.65-3.49,24,24,0,0,1-6.42-5.48l-1.2-1.55c-.37-.52-.66-1.09-1-1.61a21.11,21.11,0,0,1-1.56-3.17,33,33,0,0,1-2.2-10.38c0-1.26,0-2.23,0-2.89,0-.3,0-.55,0-.75a.13.13,0,1,1,.06,0l0,.75q0,1,.09,2.88A34.12,34.12,0,0,0,178.64,161a21.61,21.61,0,0,0,1.57,3.11c.32.51.61,1.06,1,1.57l1.19,1.51a24,24,0,0,0,6.33,5.35,31.57,31.57,0,0,0,8.54,3.4,47.38,47.38,0,0,0,9.82,1.21c.85,0,1.69-.07,2.53-.09l1.25-.07c.41,0,.81-.13,1.22-.2.81-.15,1.62-.27,2.41-.45l2.29-.74a15.08,15.08,0,0,0,2.18-.94l1.05-.51a8.85,8.85,0,0,0,1-.6c.64-.43,1.3-.81,1.9-1.26l1.71-1.42a29.57,29.57,0,0,0,5.32-6.39,40.17,40.17,0,0,0,3.3-6.49A48,48,0,0,0,236,147.76c.23-1.23.3-2.2.39-2.86,0-.3.07-.54.09-.74A1,1,0,0,1,236.51,143.9Z"/><rect class="cls-5" x="196.18" y="166.46" width="14.37" height="4.01"/><rect class="cls-12" x="218.02" y="155.19" width="2.53" height="58.02"/><rect class="cls-12" x="216.31" y="203.13" width="6.5" height="1.53"/><rect class="cls-12" x="185.83" y="155.19" width="2.53" height="57.46"/><rect class="cls-12" x="184.13" y="202.57" width="6.5" height="1.53"/><path class="cls-12" d="M235.14,152.22s0,.11,0,.33,0,.57-.07,1c-.07.88-.17,2.13-.3,3.73-.26,3.24-.61,7.93-.89,13.74s-.47,12.72-.44,20.41c0,3.84.1,7.87.26,12.05.07,2.09.19,4.22.06,6.4a17.71,17.71,0,0,1-1.44,6.47,10.51,10.51,0,0,1-4.39,5,16,16,0,0,1-6.23,1.64c-4.18.33-8.22.48-12.07.56-7.69.15-14.62-.09-20.43-.42-2.91-.19-5.53-.3-7.84-.64a14,14,0,0,1-5.6-2,8.59,8.59,0,0,1-2.67-2.63,5.31,5.31,0,0,1-.56-1.19s.18.42.65,1.13a8.72,8.72,0,0,0,2.69,2.52,14,14,0,0,0,5.54,1.83c2.27.31,4.91.4,7.81.56,5.8.29,12.72.48,20.4.31,3.84-.09,7.88-.25,12-.59a15.3,15.3,0,0,0,6-1.59,9.9,9.9,0,0,0,4.16-4.72,17.13,17.13,0,0,0,1.41-6.28c.12-2.14,0-4.26-.06-6.35q-.23-6.28-.23-12.07c0-7.7.23-14.62.55-20.43s.73-10.5,1.05-13.74c.16-1.62.3-2.87.41-3.73l.12-1A1.45,1.45,0,0,1,235.14,152.22Z"/><path class="cls-12" d="M238.1,227.58a18.37,18.37,0,0,0-6.82-10.27,4.93,4.93,0,0,1,1.63.94,13.47,13.47,0,0,1,3.11,3.32,13.61,13.61,0,0,1,1.84,4.15A4.81,4.81,0,0,1,238.1,227.58Z"/><path class="cls-12" d="M214.62,190.2a5.13,5.13,0,0,1,0,.63q0,.73.06,1.92a25.28,25.28,0,0,1-.05,3.08,10.81,10.81,0,0,1-1.17,3.88,11.19,11.19,0,0,1-3.16,3.76,11,11,0,0,1-5.18,2.21,11.3,11.3,0,0,1-6.18-.77,11.44,11.44,0,0,1-5.1-4.31,11.35,11.35,0,0,1-1.76-5.25c-.09-1.81,0-3.5,0-5.15V190h.25l16.1.12,4.59.07,1.2,0a1.87,1.87,0,0,1,.4,0l-.46,0-1.25,0-4.65.06-15.93.12.25-.24c0,1.63,0,3.38,0,5.11a10.73,10.73,0,0,0,1.69,5,11.1,11.1,0,0,0,2.16,2.46,11.7,11.7,0,0,0,2.7,1.68,11.09,11.09,0,0,0,5.91.76,11,11,0,0,0,9.29-9.42,28.35,28.35,0,0,0,.14-3c0-.79,0-1.42.06-1.91A5.09,5.09,0,0,1,214.62,190.2Z"/><path class="cls-12" d="M173,180.38h-9s.9,23.58,8.25,23.9Z"/><path class="cls-4" d="M173.61,163.48a15,15,0,0,1-5.56,0,15,15,0,0,1,5.56,0Z"/><path class="cls-12" d="M188.36,233.22l.24,0,.71-.05L192,233l10-.34,14.81-.44,8.75-.24c1.51-.07,3.08,0,4.6-.18a13.15,13.15,0,0,0,4.46-1.31,12.37,12.37,0,0,0,3.69-2.82,8.78,8.78,0,0,0,2.14-3.91,36,36,0,0,0,.66-8.64c0-5.57,0-10.59,0-14.82s.06-7.58.08-10c0-1.14,0-2.05.05-2.72,0-.28,0-.51,0-.7a.64.64,0,0,1,0-.24.75.75,0,0,1,0,.24c0,.19,0,.42,0,.7,0,.67,0,1.58,0,2.72,0,2.41.05,5.81.09,10s0,9.25.06,14.82a36.35,36.35,0,0,1-.64,8.77A9.26,9.26,0,0,1,238.7,228a12.64,12.64,0,0,1-3.84,2.94,13.41,13.41,0,0,1-4.63,1.36c-1.61.16-3.12.11-4.65.18l-8.74.21-14.82.32-10,.18-2.72,0h-.7A.77.77,0,0,1,188.36,233.22Z"/></g></g></svg>