<svg xmlns="http://www.w3.org/2000/svg" viewBox="0 0 675.18 384.82"><defs><style>.cls-1{fill:#e0e0e0;}.cls-2{fill:#fafafa;}.cls-3{fill:#ebebeb;}.cls-4{fill:#263238;}.cls-5{fill:#026a9d;}.cls-6{fill:#fff;}.cls-7{fill:#f5f5f5;}.cls-8{fill:#3c6a99;}.cls-9{fill:#8db541;}.cls-10{fill:#7bb732;}.cls-11{opacity:0.2;}.cls-12{opacity:0.5;}.cls-13{opacity:0.4;}.cls-14{fill:#ffbe9d;}.cls-15{fill:#eb996e;}.cls-16{fill:#2c3f51;}</style></defs><title>upload-images</title><g id="Capa_2" data-name="Capa 2"><g id="Background_Complete" data-name="Background Complete"><rect class="cls-1" x="574.84" width="100.34" height="137.13"/><rect class="cls-2" x="578.33" y="3.75" width="93.31" height="129.78"/><rect class="cls-1" x="609.76" y="34.13" width="30.44" height="74.34"/><path class="cls-3" d="M72.73,383.48c23.56-11.44,32.74-38.16,35.84-63,.51-4.15,1.66-8.42.27-12.36s-5.57-7.13-9.54-6c-3.29,1-5.19,4.31-7.38,7a24.39,24.39,0,0,1-11.14,7.7c-2.85.95-6.23,1.26-8.59-.58-3.25-2.53-2.89-7.51-2.21-11.61q1.9-11.46,3.8-22.92c.67-4.1,1.35-8.28.7-12.38s-2.9-8.16-6.63-9.88-8.92-.23-10.38,3.65c-.61,1.62-.54,3.41-.93,5.09s-1.48,3.45-3.17,3.66-3.17-1.2-4.21-2.6c-3.57-4.81-5.6-10.61-7.44-16.34s-3.58-11.58-6.7-16.71-7.87-9.56-13.69-10.83-12.66,1.37-15.07,6.9,0,12,3,17.22A92.7,92.7,0,0,0,25.4,270.69c1.14,1.12,2.39,2.34,2.64,3.93.46,2.88-2.57,5.19-5.41,5.66-3.22.53-6.49-.32-9.75-.45s-7,.73-8.64,3.56c-2.35,3.92.46,8.88,3.45,12.3a79.38,79.38,0,0,0,21.09,17.1c2.84,1.59,5.86,3.06,8,5.57s3,6.43,1,9.08-5.86,3-8.92,1.9-5.63-3.26-8.46-4.87c-5.3-3-12.64-3.8-17,.5C.5,327.79-.42,332.22.17,336.23s2.5,7.68,4.61,11.13c7.35,12,17.56,22.42,29.91,29s24.29,9.78,38,7.09"/><path class="cls-1" d="M69.39,384.8c.66-9.93,1.1-4.78-.57-17.83a372.62,372.62,0,0,0-8.3-41.9q-1.38-5.51-2.74-10.87c-.9-3.57-1.8-7.11-2.89-10.51a186.81,186.81,0,0,0-7.41-19.2c-2.65-6-5.38-11.59-8-16.8s-5.12-10-7.61-14.3a147.73,147.73,0,0,0-13.21-19.32c-1.73-2.15-3.13-3.78-4.1-4.86-.46-.52-.82-.93-1.1-1.23a4.27,4.27,0,0,0-.39-.41,2,2,0,0,0,.33.46l1.05,1.28c.92,1.12,2.28,2.77,4,4.95a156.81,156.81,0,0,1,13,19.41c2.44,4.29,4.93,9.1,7.51,14.31s5.27,10.81,7.9,16.8a186,186,0,0,1,7.33,19.14c1.08,3.39,2,6.9,2.88,10.47l2.73,10.87a382.38,382.38,0,0,1,8.34,41.81c1.71,13,1.32,7.79.73,17.7"/><path class="cls-1" d="M54.67,303.63a8.68,8.68,0,0,0,.68-1.69c.4-1.1.92-2.71,1.53-4.71,1.23-4,2.74-9.56,4.39-15.71s3.22-11.69,4.51-15.65c.64-2,1.17-3.58,1.56-4.68a8.72,8.72,0,0,0,.51-1.75,8.25,8.25,0,0,0-.79,1.64c-.47,1.07-1.08,2.65-1.79,4.62-1.42,3.93-3.1,9.46-4.74,15.62s-3.06,11.57-4.17,15.76q-.77,2.85-1.29,4.77A8.77,8.77,0,0,0,54.67,303.63Z"/><path class="cls-1" d="M3.49,285.37a10.82,10.82,0,0,0,2.07.59c1.33.34,3.27.81,5.63,1.48,4.75,1.29,11.25,3.3,18.32,5.83s13.37,5.13,17.87,7.12c2.26,1,4.06,1.83,5.32,2.4a13.39,13.39,0,0,0,2,.84,10.81,10.81,0,0,0-1.84-1.11c-1.22-.66-3-1.58-5.23-2.63-4.45-2.13-10.74-4.79-17.83-7.35a185.75,185.75,0,0,0-18.44-5.63c-2.39-.6-4.35-1-5.71-1.24A11.91,11.91,0,0,0,3.49,285.37Z"/><path class="cls-1" d="M68.32,365.9a3.28,3.28,0,0,0,.47-.59l1.2-1.76c1-1.54,2.49-3.8,4.24-6.62,3.51-5.64,8.11-13.58,13.06-22.41s9.48-16.81,12.86-22.51l4-6.74,1.09-1.84a3,3,0,0,0,.33-.67s-.18.18-.46.58l-1.21,1.77c-1,1.53-2.48,3.8-4.24,6.62-3.5,5.63-8.1,13.58-13.06,22.41s-9.48,16.8-12.86,22.5l-4,6.75-1.08,1.84A2.89,2.89,0,0,0,68.32,365.9Z"/><path class="cls-1" d="M1.82,332.15a2.92,2.92,0,0,0,.65.4l1.93,1,7.12,3.62c6,3.07,14.26,7.39,23.38,12.19s17.41,9.05,23.49,12c3,1.47,5.5,2.64,7.23,3.41l2,.87a2.65,2.65,0,0,0,.71.26,3.06,3.06,0,0,0-.65-.4l-1.92-1-7.12-3.63c-6-3.06-14.27-7.39-23.38-12.19s-17.41-9.05-23.49-12c-3-1.47-5.51-2.63-7.23-3.4l-2-.88A3.16,3.16,0,0,0,1.82,332.15Z"/><rect class="cls-1" x="16.04" y="84.69" width="79.24" height="77.85"/><rect class="cls-2" x="18.8" y="86.82" width="73.68" height="73.68"/><rect class="cls-1" x="43.62" y="111.64" width="24.04" height="24.04"/></g><g id="Floor"><path class="cls-4" d="M651.58,384.56c0,.14-139.55.26-311.65.26s-311.67-.12-311.67-.26,139.51-.26,311.67-.26S651.58,384.42,651.58,384.56Z"/></g><g id="Device"><path class="cls-5" d="M542.22,27.4H137.61A12.63,12.63,0,0,0,125,40V325.82a12.64,12.64,0,0,0,12.63,12.63H292.9s9.88,30.54-20.74,46.35h145.2s-34.57-11.86-25.68-46.35H542.22a12.63,12.63,0,0,0,12.63-12.63V40A12.62,12.62,0,0,0,542.22,27.4Z"/><path class="cls-4" d="M345.32,308.39c5.5,7.87-3.11,16.48-11,11a2.71,2.71,0,0,1-.67-.68c-5.49-7.86,3.11-16.47,11-11A2.75,2.75,0,0,1,345.32,308.39Z"/><rect class="cls-2" x="134.11" y="44.53" width="410.77" height="243.65" rx="3.27"/><path class="cls-6" d="M541.61,288.68H137.38a3.77,3.77,0,0,1-3.77-3.77V47.8A3.77,3.77,0,0,1,137.38,44H541.61a3.77,3.77,0,0,1,3.77,3.77V284.91A3.77,3.77,0,0,1,541.61,288.68ZM137.38,45a2.78,2.78,0,0,0-2.77,2.77V284.91a2.78,2.78,0,0,0,2.77,2.77H541.61a2.77,2.77,0,0,0,2.77-2.77V47.8A2.77,2.77,0,0,0,541.61,45Z"/><path class="cls-4" d="M545.18,63.79c0,.14-92.1.26-205.67.26s-205.69-.12-205.69-.26,92.07-.26,205.69-.26S545.18,63.65,545.18,63.79Z"/><rect class="cls-7" x="448.48" y="85.75" width="74.21" height="59.33" transform="translate(-0.21 0.89) rotate(-0.11)"/><rect class="cls-3" x="451.04" y="89.48" width="69" height="51.86" transform="translate(-0.21 0.89) rotate(-0.11)"/><polygon class="cls-1" points="451.09 141.41 475.13 109.13 490.09 129.27 500.2 118.47 520.09 141.28 451.09 141.41"/><path class="cls-1" d="M496.39,105.14a5.44,5.44,0,1,1-5.45-5.42A5.44,5.44,0,0,1,496.39,105.14Z"/><rect class="cls-7" x="448.48" y="212.77" width="74.21" height="59.33" transform="translate(-0.44 0.89) rotate(-0.11)"/><rect class="cls-3" x="451.04" y="216.51" width="69" height="51.86" transform="translate(-0.44 0.89) rotate(-0.11)"/><polygon class="cls-1" points="451.09 268.43 475.13 236.15 490.09 256.29 500.2 245.49 520.09 268.31 451.09 268.43"/><path class="cls-1" d="M496.39,232.17a5.44,5.44,0,1,1-5.45-5.43A5.44,5.44,0,0,1,496.39,232.17Z"/><rect class="cls-7" x="150.96" y="85.75" width="74.21" height="59.33" transform="translate(-0.21 0.35) rotate(-0.11)"/><rect class="cls-3" x="153.51" y="89.48" width="69" height="51.86" transform="translate(-0.21 0.35) rotate(-0.11)"/><polygon class="cls-1" points="153.56 141.41 177.6 109.13 192.57 129.27 202.67 118.47 222.56 141.28 153.56 141.41"/><path class="cls-1" d="M198.86,105.14a5.44,5.44,0,1,1-5.44-5.42A5.42,5.42,0,0,1,198.86,105.14Z"/><rect class="cls-7" x="150.96" y="149.69" width="74.21" height="59.33" transform="translate(-0.33 0.35) rotate(-0.11)"/><rect class="cls-3" x="153.51" y="153.42" width="69" height="51.86" transform="translate(-0.33 0.35) rotate(-0.11)"/><polygon class="cls-1" points="153.56 205.35 177.6 173.07 192.57 193.21 202.67 182.41 222.56 205.22 153.56 205.35"/><path class="cls-1" d="M198.86,169.08a5.44,5.44,0,1,1-5.44-5.42A5.42,5.42,0,0,1,198.86,169.08Z"/><rect class="cls-7" x="150.96" y="214.21" width="74.21" height="59.33" transform="translate(-0.45 0.35) rotate(-0.11)"/><rect class="cls-3" x="153.51" y="217.94" width="69" height="51.86" transform="translate(-0.45 0.35) rotate(-0.11)"/><polygon class="cls-1" points="153.56 269.87 177.6 237.58 192.57 257.73 202.67 246.93 222.56 269.74 153.56 269.87"/><path class="cls-1" d="M198.86,233.6a5.44,5.44,0,1,1-5.44-5.43A5.43,5.43,0,0,1,198.86,233.6Z"/><circle class="cls-8" cx="166.68" cy="48.95" r="1.26"/><path class="cls-9" d="M154.72,50.64a3.82,3.82,0,0,0-3.83,3.82v0a3.86,3.86,0,0,0,3.88,3.82h3.54a.24.24,0,0,0,.24-.24V54.52a3.88,3.88,0,0,0-3.83-3.88Zm0,5.15A1.31,1.31,0,1,1,156,54.48,1.31,1.31,0,0,1,154.71,55.79Z"/><path class="cls-8" d="M180.91,55.81a1.35,1.35,0,1,1,1.28-1.75.22.22,0,0,0,.22.16h2.06a.23.23,0,0,0,.24-.23v0a3.83,3.83,0,1,0,0,1,.23.23,0,0,0-.2-.26h-2.1a.22.22,0,0,0-.22.16A1.35,1.35,0,0,1,180.91,55.81Z"/><path class="cls-8" d="M189.36,50.63a3.84,3.84,0,1,0-.11,7.67,3.9,3.9,0,0,0,2.15-.62v.38a.23.23,0,0,0,.23.24h1.28a.24.24,0,0,0,.24-.24V54.51a3.87,3.87,0,0,0-3.79-3.88Zm.08,5.17a1.35,1.35,0,1,1,1.21-1.48,1.31,1.31,0,0,1,0,.28A1.36,1.36,0,0,1,189.44,55.8Z"/><path class="cls-8" d="M172.58,50.63a3.89,3.89,0,0,0-2.15.61v-.4a.21.21,0,0,0-.21-.21h-1.3a.24.24,0,0,0-.24.24v7.22a.22.22,0,0,0,.21.21h2.05a.24.24,0,0,0,.23-.24V54.49a1.37,1.37,0,0,1,1.3-1.37,1.34,1.34,0,0,1,1.39,1.3v3.65a.23.23,0,0,0,.24.23h2a.23.23,0,0,0,.23-.23V54.52a3.86,3.86,0,0,0-3.77-3.89Z"/><path class="cls-8" d="M165.66,50.64h2a.23.23,0,0,1,.24.23v7.19a.24.24,0,0,1-.24.24h-2a.24.24,0,0,1-.24-.24V50.87A.23.23,0,0,1,165.66,50.64Z"/><circle class="cls-9" cx="195.23" cy="57.04" r="1.26"/><path class="cls-8" d="M161.93,54.62h2.56a.2.2,0,0,0,.2-.2V52.31a.2.2,0,0,0-.2-.2h-2.55a.2.2,0,0,1-.2-.2v-.38h0v-.09A1.23,1.23,0,0,1,163,50.19h1.53a.2.2,0,0,0,.2-.2v-2.1a.2.2,0,0,0-.2-.2H163a3.85,3.85,0,0,0-3.76,3.84V58.1a.2.2,0,0,0,.2.2h2.1a.2.2,0,0,0,.2-.2V54.81A.2.2,0,0,1,161.93,54.62Z"/></g><g id="Character"><path class="cls-10" d="M533.77,144a14.68,14.68,0,0,0-12.9,4.45c-5.23,5.25-27,24.42-27,24.42l-31.58-6.32-4.36,14.1s37.3,11.6,40,10.61,22.94-14.7,22.94-14.7Z"/><rect class="cls-3" x="357.53" y="105.11" width="153.43" height="122.66" transform="translate(-18.45 59.96) rotate(-7.73)"/><path class="cls-4" d="M502,95.34l-.73.12-2.13.3-8.24,1.15-31.1,4.3L350,116.26l.23-.3c4.92,36.17,10.56,77.64,16.54,121.52v0l-.34-.26,152-20.6-.21.28-11.85-88.21c-1.42-10.62-2.53-18.94-3.28-24.63-.38-2.84-.66-5-.86-6.49s-.27-2.25-.27-2.25.11.74.32,2.19.51,3.62.9,6.44c.79,5.67,1.94,14,3.4,24.56,2.92,21.24,7.09,51.64,12.13,88.32l0,.25-.24,0-152,20.7-.29,0,0-.29v0c-5.95-43.88-11.58-85.36-16.48-121.53l0-.27.27,0,110-14.81L491,96.77l8.2-1.08,2.09-.27Z"/><rect class="cls-10" x="362.82" y="112.84" width="142.65" height="107.22" transform="matrix(0.99, -0.13, 0.13, 0.99, -18.45, 59.94)"/><polygon class="cls-10" points="370.69 229.17 411.08 156.43 447.28 193.59 465.02 168.69 512.03 209.97 370.69 229.17"/><path class="cls-10" d="M453.55,142.42a11.23,11.23,0,1,1-12.64-9.62A11.22,11.22,0,0,1,453.55,142.42Z"/><g class="cls-11"><polygon points="370.69 229.17 411.08 156.43 447.28 193.59 465.02 168.69 512.03 209.97 370.69 229.17"/></g><g class="cls-11"><path d="M453.55,142.42a11.23,11.23,0,1,1-12.64-9.62A11.22,11.22,0,0,1,453.55,142.42Z"/></g><path class="cls-10" d="M569.66,159.77c1.44-9.88-3.15-13-10.36-15.94-9-3.73-26.16-1.88-32,3.35l-6.64,19.51c-2.77,3.23-2.33,8.17-.73,12.11s4.18,7.49,5.37,11.58c2.31,7.9.69,14.89.14,23.11-.13,1.89-1.59,5.39-.18,6.68s3.22,1.22,5,1.15A99.84,99.84,0,0,0,570,211.26c-4.7-9.5-9.89-20.49-6.86-27.77A101,101,0,0,0,569.66,159.77Z"/><path class="cls-10" d="M507.37,180l-4.44,15.19s23.28,8.47,35.9,8.31c11.81-.14,15.2-1.48,19.36-11s8.88-20.5,9.87-26.82a34.45,34.45,0,0,0,1.49-6.43c1.73-13-14-16.37-16.32-3.5l-1.88,6.89s-4.29,9.7-4.5,10.24c-1.9,5-5.18,13.08-7.56,14S507.37,180,507.37,180Z"/><path class="cls-4" d="M564.25,180.66a3.77,3.77,0,0,1-.12.36c-.11.26-.24.6-.41,1-.37.9-.92,2.24-1.73,3.92a56.06,56.06,0,0,1-3.28,6,35.82,35.82,0,0,1-5.68,7,25.08,25.08,0,0,1-2,1.65c-.71.51-1.5,1-2.29,1.44l-1.27.57c-.22.09-.43.2-.65.28l-.69.2-1.4.39-1.47.17a49,49,0,0,1-12.54-.89,205.68,205.68,0,0,1-27.9-7.3l-.24-.07.08-.25.56-1.92c1.33-4.54,2.63-9,3.89-13.26l.07-.24.24.07C516,182,524,184,531.35,185.36c1.84.32,3.63.61,5.37.74a12.07,12.07,0,0,0,2.55,0,2.63,2.63,0,0,0,.57-.13.89.89,0,0,0,.4-.33,7.08,7.08,0,0,0,.67-1c1.64-2.83,2.89-5.62,4.09-8.12,2.34-5,4.13-9.08,5.38-11.87.61-1.38,1.09-2.45,1.42-3.21.16-.34.29-.62.38-.83l.14-.27a1.14,1.14,0,0,1-.09.29c-.09.22-.2.49-.34.85l-1.35,3.24c-1.19,2.81-2.94,6.9-5.24,11.95-1.18,2.51-2.4,5.3-4,8.18a7.45,7.45,0,0,1-.7,1.06,1.13,1.13,0,0,1-.56.44,2.67,2.67,0,0,1-.66.17,13.7,13.7,0,0,1-2.64,0c-1.77-.13-3.57-.41-5.42-.73-7.37-1.31-15.43-3.28-24-5.55l.31-.17-3.88,13.26c-.2.66-.39,1.31-.56,1.92l-.17-.32a210.13,210.13,0,0,0,27.81,7.32,49.25,49.25,0,0,0,12.41.94l1.44-.17,1.36-.37.67-.18c.22-.08.42-.18.63-.28l1.25-.55c.77-.45,1.54-.89,2.24-1.39a21,21,0,0,0,2-1.61,35.32,35.32,0,0,0,5.69-6.88,56.61,56.61,0,0,0,3.34-5.88c.83-1.66,1.42-3,1.81-3.87l.46-1A1.65,1.65,0,0,1,564.25,180.66Z"/><path class="cls-4" d="M524.2,163a27.28,27.28,0,0,1-1.62,2.75,20.22,20.22,0,0,0-2.87,7,13.18,13.18,0,0,0,1.24,7.36,28.84,28.84,0,0,1,1.26,2.94,3,3,0,0,1-.49-.71c-.28-.48-.67-1.18-1.11-2.07A17.88,17.88,0,0,1,519.4,177a10.61,10.61,0,0,1-.2-4.31,18.25,18.25,0,0,1,3.07-7.12A15.08,15.08,0,0,1,524.2,163Z"/><g class="cls-11"><path d="M526.26,201.72a6,6,0,0,0,2,4.61,11.1,11.1,0,0,0,4.54,2.42,19.85,19.85,0,0,0,15.7-2.14c4.64-2.83,7.8-8,9.08-13.25,0,0-2.93,3.69-4.86,5.61a14.77,14.77,0,0,1-9,4.29c-5.86.83-11.8-.36-17.61-1.54"/></g><path class="cls-2" d="M524.45,148.79a14.73,14.73,0,0,1,1.62.78l4.09,2.15.36.19-.35.23L527.34,154l-2.63,1.68-.38.24v-.44c0-1.94,0-3.61,0-4.8a8.06,8.06,0,0,1,.12-1.88,9.1,9.1,0,0,1,.18,1.88c.07,1.18.13,2.85.19,4.79l-.39-.2,2.63-1.71,2.86-1.83v.43C526.65,150.32,524.36,148.93,524.45,148.79Z"/><path class="cls-2" d="M513.32,158.7a12.36,12.36,0,0,1,1.63.78l4.09,2.14.36.19-.35.24-2.83,1.84-2.63,1.68-.39.25v-.45c0-1.94,0-3.61,0-4.79a9.74,9.74,0,0,1,.12-1.88,7.74,7.74,0,0,1,.19,1.87c.07,1.18.13,2.85.18,4.79l-.38-.19,2.63-1.72,2.85-1.82v.42C515.53,160.22,513.24,158.83,513.32,158.7Z"/><path class="cls-2" d="M543.08,162.08a11.87,11.87,0,0,1,.11-1.8c.14-1.3.3-2.85.48-4.59l0-.41.35.24,2.76,1.94,2.54,1.82.37.26-.41.17c-1.8.74-3.35,1.36-4.46,1.78a8.63,8.63,0,0,1-1.78.59,8.08,8.08,0,0,1,1.67-.87c1.07-.5,2.59-1.18,4.38-2l0,.43-2.57-1.8-2.76-2,.39-.17C543.67,159.47,543.23,162.1,543.08,162.08Z"/><path class="cls-2" d="M523.44,173.77a11.63,11.63,0,0,1,1.14-1.4l3-3.46.27-.31.15.4c.35,1,.72,2.07,1.12,3.18s.69,2,1,3l.14.43-.43-.1c-1.89-.45-3.51-.84-4.66-1.14a8.48,8.48,0,0,1-1.79-.56,7.79,7.79,0,0,1,1.86.26c1.16.21,2.8.55,4.7,1l-.28.32c-.33-.92-.68-1.92-1.05-3l-1.09-3.2.41.09C525.44,172,523.55,173.88,523.44,173.77Z"/><path class="cls-2" d="M538.79,175.33a11.28,11.28,0,0,1,.12-1.8c.13-1.3.29-2.84.47-4.59l0-.41.35.24,2.76,1.94,2.54,1.82.37.26L545,173c-1.8.74-3.35,1.36-4.45,1.78a8.8,8.8,0,0,1-1.79.59,8.86,8.86,0,0,1,1.67-.87c1.07-.5,2.6-1.18,4.38-2l0,.43-2.57-1.8-2.76-2,.39-.16C539.39,172.72,538.94,175.36,538.79,175.33Z"/><path class="cls-2" d="M533.33,184.7a15.36,15.36,0,0,1,.12-1.8c.13-1.3.29-2.85.47-4.59l0-.42.35.25,2.77,1.94,2.53,1.82.37.26-.41.17c-1.79.74-3.34,1.36-4.45,1.78a8.58,8.58,0,0,1-1.79.59,7.87,7.87,0,0,1,1.67-.88c1.07-.49,2.6-1.17,4.38-1.95l0,.44-2.57-1.81-2.75-2,.39-.17C533.93,182.08,533.49,184.72,533.33,184.7Z"/><path class="cls-2" d="M544.66,216.18a15.36,15.36,0,0,1,.12-1.8c.14-1.29.29-2.84.47-4.59l0-.41.34.25,2.77,1.93,2.54,1.82.37.27-.41.16c-1.8.74-3.35,1.36-4.46,1.78a7.72,7.72,0,0,1-1.79.59,8.86,8.86,0,0,1,1.67-.87c1.08-.5,2.6-1.18,4.38-1.95l0,.43-2.56-1.8-2.76-2,.39-.16C545.26,213.57,544.82,216.21,544.66,216.18Z"/><path class="cls-2" d="M554.52,154a11.28,11.28,0,0,1,.12-1.8c.13-1.3.29-2.84.47-4.59l0-.41.35.24,2.76,1.94,2.54,1.82.37.26-.41.17c-1.8.74-3.35,1.36-4.45,1.78a8.8,8.8,0,0,1-1.79.59,8.86,8.86,0,0,1,1.67-.87c1.07-.5,2.6-1.18,4.38-1.95l0,.43-2.57-1.8-2.76-2,.39-.16C555.12,151.36,554.67,154,554.52,154Z"/><path class="cls-2" d="M530,165a11.87,11.87,0,0,1,.11-1.8c.14-1.3.3-2.84.48-4.59l0-.41.35.24,2.76,1.94,2.54,1.82.37.26-.41.17c-1.8.74-3.35,1.36-4.45,1.78A8.8,8.8,0,0,1,530,165a8.08,8.08,0,0,1,1.67-.87c1.07-.5,2.59-1.18,4.38-1.95l0,.43-2.57-1.8-2.76-2,.39-.16C530.54,162.39,530.1,165,530,165Z"/><path class="cls-2" d="M531.34,213.59a11.28,11.28,0,0,1,.12-1.8c.13-1.3.29-2.85.47-4.59l0-.41.35.24,2.76,1.94,2.54,1.82.37.26-.41.17c-1.8.74-3.35,1.36-4.45,1.78a8.8,8.8,0,0,1-1.79.59,8.19,8.19,0,0,1,1.67-.87c1.07-.5,2.6-1.18,4.38-1.95l0,.43-2.57-1.81-2.75-2,.39-.17C531.94,211,531.49,213.61,531.34,213.59Z"/><path class="cls-2" d="M557.67,173a13,13,0,0,1,.12-1.8c.13-1.3.29-2.84.47-4.59l0-.41.35.24,2.76,1.94,2.54,1.82.37.26-.41.17c-1.79.74-3.34,1.36-4.45,1.78a8.8,8.8,0,0,1-1.79.59,8.86,8.86,0,0,1,1.67-.87c1.07-.5,2.6-1.18,4.38-1.95l0,.43-2.57-1.8-2.75-2,.39-.16C558.27,170.36,557.83,173,557.67,173Z"/><path class="cls-2" d="M546.27,195.61a11.87,11.87,0,0,1,.11-1.8c.14-1.29.3-2.84.48-4.59l0-.41.35.24L550,191l2.54,1.82.37.27-.41.16c-1.8.74-3.35,1.36-4.45,1.78a8.8,8.8,0,0,1-1.79.59,8.08,8.08,0,0,1,1.67-.87c1.07-.5,2.59-1.18,4.38-2l0,.43-2.57-1.8-2.76-2,.39-.16C546.86,193,546.42,195.64,546.27,195.61Z"/><path class="cls-2" d="M555.78,206.1a15.36,15.36,0,0,1,.12-1.8c.14-1.3.29-2.85.47-4.59l0-.41.34.24,2.77,1.94,2.54,1.82.37.26-.41.17c-1.8.74-3.35,1.36-4.46,1.78a8.38,8.38,0,0,1-1.79.59,8.86,8.86,0,0,1,1.67-.87c1.08-.5,2.6-1.18,4.38-1.95l0,.43-2.56-1.8-2.76-2,.39-.17C556.38,203.49,555.94,206.13,555.78,206.1Z"/><path class="cls-2" d="M549.27,184.1a11.28,11.28,0,0,1,.12-1.8c.13-1.3.29-2.84.47-4.59l0-.41.35.24,2.76,1.94,2.54,1.82.37.26-.41.17c-1.8.74-3.35,1.36-4.45,1.78a8.8,8.8,0,0,1-1.79.59,8.86,8.86,0,0,1,1.67-.87c1.07-.5,2.59-1.18,4.38-1.95l0,.43-2.57-1.8-2.76-2,.39-.16C549.87,181.49,549.42,184.13,549.27,184.1Z"/><path class="cls-2" d="M518.77,197.58a11.87,11.87,0,0,1,.11-1.8c.14-1.29.3-2.84.48-4.59l0-.41.35.25,2.76,1.94,2.54,1.81.37.27-.41.17c-1.8.74-3.35,1.35-4.45,1.77a8.06,8.06,0,0,1-1.79.59,8.08,8.08,0,0,1,1.67-.87c1.07-.5,2.59-1.18,4.38-2l0,.43-2.57-1.8-2.76-2,.39-.17C519.36,195,518.92,197.61,518.77,197.58Z"/><path class="cls-2" d="M533.8,194.42a15.36,15.36,0,0,1,.12-1.8c.13-1.3.29-2.85.47-4.59l0-.41.35.24,2.77,1.94,2.54,1.82.36.26-.41.17c-1.79.74-3.34,1.36-4.45,1.78a8.58,8.58,0,0,1-1.79.59,7.62,7.62,0,0,1,1.67-.87c1.07-.5,2.6-1.18,4.38-2l0,.44c-.8-.57-1.67-1.17-2.56-1.81l-2.76-2,.39-.17C534.4,191.8,534,194.44,533.8,194.42Z"/><path class="cls-2" d="M507.64,190.84a11.28,11.28,0,0,1,.12-1.8c.13-1.3.29-2.85.47-4.59l0-.41.35.24,2.76,1.94,2.54,1.82.37.26-.41.17c-1.8.74-3.35,1.36-4.45,1.78a8.8,8.8,0,0,1-1.79.59,7.87,7.87,0,0,1,1.67-.88c1.07-.49,2.6-1.17,4.38-2l0,.44-2.57-1.81-2.76-2,.39-.17C508.24,188.22,507.79,190.86,507.64,190.84Z"/><path class="cls-2" d="M566.61,161.82a14.62,14.62,0,0,1-1.75-.45l-4.42-1.31-.4-.12.31-.3,2.42-2.36,2.25-2.15.33-.32.09.44c.39,1.9.72,3.54.92,4.7a8.08,8.08,0,0,1,.25,1.87,9.55,9.55,0,0,1-.55-1.8c-.29-1.15-.67-2.77-1.1-4.67l.42.12c-.71.69-1.47,1.42-2.25,2.19L560.68,160l-.09-.41C564.16,160.75,566.67,161.67,566.61,161.82Z"/><path class="cls-10" d="M471.61,372.44,476,364l16,8.12-6.29,12.49-1-.44c-4.52-2-22.87-10.47-25.36-12.86C456.5,368.6,471.61,372.44,471.61,372.44Z"/><g class="cls-12"><path class="cls-6" d="M479.94,381.49a6.18,6.18,0,0,1,3.77-2.36,6,6,0,0,1,4.32.73l-2.26,4.46Z"/></g><g class="cls-13"><path class="cls-6" d="M464.11,370.8s-5.45-1.05-5.26,0,18.42,10.34,26.82,13.72l.15-.37-21.34-10.62S465,371.31,464.11,370.8Z"/></g><path class="cls-4" d="M486.08,384.31a1.06,1.06,0,0,1-.29-.11l-.81-.35-3-1.35c-2.49-1.16-5.92-2.8-9.66-4.7s-7.09-3.69-9.5-5l-2.84-1.6-.77-.44-.26-.17a1.23,1.23,0,0,1,.29.13l.78.41,2.87,1.53c2.43,1.3,5.79,3.07,9.53,5s7.15,3.56,9.63,4.75l2.93,1.41.8.39A1.41,1.41,0,0,1,486.08,384.31Z"/><path class="cls-4" d="M464.35,373.82a7,7,0,0,0,.17-1.66,7.48,7.48,0,0,0-.43-1.61,2.39,2.39,0,0,1,.64,1.6A2.31,2.31,0,0,1,464.35,373.82Z"/><path class="cls-4" d="M470.28,373.83a2,2,0,0,1-.2-.87,1.92,1.92,0,0,1,0-.89c.06,0,.14.38.19.87A1.88,1.88,0,0,1,470.28,373.83Z"/><path class="cls-4" d="M471.92,373.8c-.06,0-.23-.28-.38-.66s-.22-.72-.17-.74.23.27.38.66S472,373.78,471.92,373.8Z"/><path class="cls-4" d="M473.5,372.71a2.16,2.16,0,0,1-.89-.32,2.3,2.3,0,0,1-.79-.51,2.21,2.21,0,0,1,.89.32C473.17,372.43,473.53,372.65,473.5,372.71Z"/><path class="cls-4" d="M474.32,371.79a1.84,1.84,0,0,1-1.07-.2c-.56-.24-.93-.57-.89-.62a6.72,6.72,0,0,1,1,.42A5.64,5.64,0,0,1,474.32,371.79Z"/><path class="cls-4" d="M470.44,372.16a3.32,3.32,0,0,1-1-.53,6.89,6.89,0,0,1-1-.79,4.15,4.15,0,0,1-.49-.58.66.66,0,0,1-.1-.45.48.48,0,0,1,.37-.33,2.09,2.09,0,0,1,2,1.73,2,2,0,0,1,0,.86.85.85,0,0,1-.11.29,3.59,3.59,0,0,0,0-1.11,2.05,2.05,0,0,0-.58-1,1.82,1.82,0,0,0-1.27-.54c-.22,0-.25.27-.13.47a3.82,3.82,0,0,0,.45.53,7.17,7.17,0,0,0,.92.82C470.07,371.93,470.46,372.13,470.44,372.16Z"/><path class="cls-4" d="M470.15,372.07a1.14,1.14,0,0,1,.24-.77,1.81,1.81,0,0,1,.67-.6,1.12,1.12,0,0,1,1.12-.09.45.45,0,0,1,.07.63,1.29,1.29,0,0,1-.41.37,3.12,3.12,0,0,1-.8.37,1.46,1.46,0,0,1-.79.12s.29-.08.74-.26a3.91,3.91,0,0,0,.74-.4c.25-.14.55-.48.32-.66a1.07,1.07,0,0,0-.9.09,1.87,1.87,0,0,0-.63.52A4.82,4.82,0,0,0,470.15,372.07Z"/><path class="cls-4" d="M488,379.78a12.74,12.74,0,0,0-1.2-.56,5.58,5.58,0,0,0-5.87,1.21c-.59.56-.85,1-.88,1s0-.12.16-.32a4.45,4.45,0,0,1,.61-.77,5.44,5.44,0,0,1,6-1.24,4.29,4.29,0,0,1,.86.47C487.88,379.68,488,379.77,488,379.78Z"/><path class="cls-4" d="M489.69,372.29a64.58,64.58,0,0,1-3.25,6.61,31.18,31.18,0,0,1,1.53-3.35A33.69,33.69,0,0,1,489.69,372.29Z"/><path class="cls-4" d="M478.73,378.92a10.41,10.41,0,0,1-2.45-1,10.06,10.06,0,0,1-2.24-1.37s1,.54,2.34,1.18S478.75,378.86,478.73,378.92Z"/><path class="cls-4" d="M481.86,380.5c0,.06-.2.18-.43.36s-.39.37-.44.34,0-.3.31-.51S481.84,380.44,481.86,380.5Z"/><path class="cls-4" d="M483.78,379.63c0,.06-.17.17-.42.26s-.46.1-.48,0,.16-.17.41-.25S483.76,379.58,483.78,379.63Z"/><path class="cls-4" d="M485.81,379.82c0,.05-.25-.06-.53-.1s-.51,0-.53-.05.22-.21.56-.16S485.85,379.78,485.81,379.82Z"/><path class="cls-4" d="M487.17,380.11c0,.06-.14.1-.3.08s-.28-.08-.27-.13.14-.1.29-.08S487.18,380.05,487.17,380.11Z"/><path class="cls-10" d="M576.35,375.85l-3.8-8.77,16.37-7.23,5.7,12.77-1,.51c-4.41,2.25-22.58,11.11-26,11.53C563.82,385.12,576.35,375.85,576.35,375.85Z"/><g class="cls-12"><path class="cls-6" d="M588.63,375.11a6.2,6.2,0,0,1,.55-4.41,6,6,0,0,1,3.3-2.88l2,4.57Z"/></g><g class="cls-13"><path class="cls-6" d="M570.33,380.62s-4.25,3.56-3.29,4.09,19.66-7.73,27.58-12.09l-.18-.36-21.73,9.83S571.3,380.24,570.33,380.62Z"/></g><path class="cls-4" d="M594.69,372.14l-.27.15-.79.41-2.92,1.44c-2.47,1.21-5.91,2.82-9.74,4.52s-7.35,3.16-9.9,4.19L568,384l-.83.31a1,1,0,0,1-.3.09l.28-.13L568,384l3-1.26c2.54-1.06,6-2.54,9.87-4.24s7.28-3.29,9.77-4.45l3-1.39.8-.36A1.23,1.23,0,0,1,594.69,372.14Z"/><path class="cls-4" d="M572.83,382.34a8.13,8.13,0,0,0-1.18-1.17,6.57,6.57,0,0,0-1.52-.69,2.35,2.35,0,0,1,1.64.51A2.43,2.43,0,0,1,572.83,382.34Z"/><path class="cls-4" d="M576.58,377.75c0,.05-.39-.12-.8-.4s-.7-.53-.67-.58.39.13.79.4S576.61,377.7,576.58,377.75Z"/><path class="cls-4" d="M577.59,376.47a1.43,1.43,0,0,1-.74-.13c-.4-.13-.7-.28-.68-.34s.35,0,.74.13S577.61,376.41,577.59,376.47Z"/><path class="cls-4" d="M577.75,374.55c0,.06-.34.27-.81.49a2.29,2.29,0,0,1-.89.29c0-.06.33-.28.8-.49A2.26,2.26,0,0,1,577.75,374.55Z"/><path class="cls-4" d="M577.55,373.33c0,.05-.29.42-.83.7a1.89,1.89,0,0,1-1,.31,6.39,6.39,0,0,1,.94-.5A6.91,6.91,0,0,1,577.55,373.33Z"/><path class="cls-4" d="M575.39,376.57a3.37,3.37,0,0,1-1,.46,7.19,7.19,0,0,1-1.23.25,3.16,3.16,0,0,1-.76,0,.65.65,0,0,1-.41-.21.48.48,0,0,1,0-.5,2.11,2.11,0,0,1,2.63-.49,2.31,2.31,0,0,1,.66.55c.12.17.16.27.15.28a3.22,3.22,0,0,0-.88-.69,2.09,2.09,0,0,0-1.15-.19,1.81,1.81,0,0,0-1.22.64c-.11.2,0,.37.27.4a4.21,4.21,0,0,0,.71,0,7.26,7.26,0,0,0,1.21-.2C575,376.72,575.38,376.54,575.39,376.57Z"/><path class="cls-4" d="M575.14,376.74s-.28-.18-.44-.67a1.88,1.88,0,0,1-.06-.9,1.17,1.17,0,0,1,.64-.92.46.46,0,0,1,.54.34,1.3,1.3,0,0,1,0,.55,3.73,3.73,0,0,1-.21.86,1.77,1.77,0,0,1-.42.69s.13-.28.27-.74a4.53,4.53,0,0,0,.16-.83c.05-.29,0-.73-.31-.66s-.43.47-.5.75a2.05,2.05,0,0,0,0,.82A3.76,3.76,0,0,0,575.14,376.74Z"/><path class="cls-4" d="M592.37,367.81s-.48.16-1.19.57a5.82,5.82,0,0,0-2.15,2.26,5.66,5.66,0,0,0-.62,3.06c.06.81.24,1.29.2,1.3a1,1,0,0,1-.14-.33,4.16,4.16,0,0,1-.22-1,5.63,5.63,0,0,1,.58-3.17,5.48,5.48,0,0,1,2.28-2.29,4.94,4.94,0,0,1,.91-.37C592.24,367.81,592.37,367.79,592.37,367.81Z"/><path class="cls-4" d="M587.67,361.74a33.89,33.89,0,0,1,1.62,3.3,29.38,29.38,0,0,1,1.43,3.39,31.28,31.28,0,0,1-1.62-3.3A27.79,27.79,0,0,1,587.67,361.74Z"/><path class="cls-4" d="M585.86,374.42a10,10,0,0,1-2.28,1.3,9.83,9.83,0,0,1-2.48.86c0-.06,1.08-.46,2.39-1.06S585.83,374.37,585.86,374.42Z"/><path class="cls-4" d="M589.07,373c.06,0,0,.27,0,.56s0,.54,0,.56-.2-.22-.2-.56S589,373,589.07,373Z"/><path class="cls-4" d="M589.61,371c.06,0,0,.24-.06.49s-.22.43-.27.4,0-.23.06-.48S589.56,370.94,589.61,371Z"/><path class="cls-4" d="M591,369.51c0,.06-.2.15-.41.34s-.32.4-.38.38,0-.3.24-.54S591,369.45,591,369.51Z"/><path class="cls-4" d="M592.13,368.64s0,.17-.13.28-.24.17-.28.13,0-.17.13-.28S592.09,368.6,592.13,368.64Z"/><path class="cls-4" d="M593.07,365.31,570,378.41l-32.31-64.75c-4.8-17.3-9.42-78.24-9.42-78.24l26.63,2s4.1,43.75,10.54,66.29Z"/><path class="cls-4" d="M568.16,208.82c.64,0,5.3,18-.39,28.92-.55,1.06-4.64,7-4.64,7-14.5,17.12-29.2,50.32-33.31,59-8.42,17.89-39.45,76.75-39.45,76.75L470.43,369.1l29.15-74.94,25-73.53Z"/><path class="cls-5" d="M555.07,255.07a10.58,10.58,0,0,0-.84,1.47l-2.16,4.09c-1.82,3.45-4.38,8.2-7.21,13.43s-5.35,10-7.09,13.52c-.87,1.74-1.56,3.16-2,4.16a11,11,0,0,0-.67,1.56,11.23,11.23,0,0,0,.84-1.48l2.16-4.08c1.82-3.46,4.38-8.2,7.22-13.44s5.34-10,7.08-13.51c.87-1.75,1.56-3.17,2-4.16A11.62,11.62,0,0,0,555.07,255.07Z"/><path class="cls-14" d="M500.05,191.2a98.83,98.83,0,0,1-10.5-1.44c-4.28-1-4.2-1.43-4-1.91.52-1.3,7.58,1.53,6.4,0s-9-2.45-8.42-3.78c.78-1.74,8.12,1.36,8.76,1.58s1-.71.36-.87c-.84-.24-9.64-2.93-8.9-4.64.42-1,2,0,2,0s8.07,3.13,8.4,2.31-4.35-2.83-6-3.4-2-1.55-1.2-2.06c.56-.35,5.57,1.26,7.16,1.85s5.94,2.3,4.43-.3-1.7-5.14-1.29-5.86,1.57-.37,1.67.55a10.72,10.72,0,0,0,1,2.85,7,7,0,0,0,1.37,2c.49.51.94.94,1.35,1.32l3.56,3.37-2.47,8.74Z"/><path class="cls-4" d="M544.83,96.33c-1.28-2-3.94-2.8-6.35-2.76a15.06,15.06,0,0,0-14.16,12c-.48,2.71-.2,5.56-1.05,8.18a23.3,23.3,0,0,1-2.88,5.21A13.89,13.89,0,0,0,518,124.4a5.43,5.43,0,0,0,2,5.3,6.63,6.63,0,0,0,5.87,11.18c1.45-.25,3-1,4.32-.27a7,7,0,0,1,1.61,1.51c2,2,5.33,2.39,8,1.35a14,14,0,0,0,6.34-5.62c.41-.63,1-1.37,1.72-1.29a2.35,2.35,0,0,1,1.14.63,6.74,6.74,0,0,0,9.22-9.76,7.73,7.73,0,0,0,5.05-5.07,11.19,11.19,0,0,0-.28-7.31c-1.25-3.46-3.75-6.31-6.2-9.06-2.24-2.52-2.9-6.41-5.15-8.93a7.15,7.15,0,0,0-4.17-2.79,8.19,8.19,0,0,0-4.8,1.07"/><path class="cls-14" d="M539.8,97.52a12.52,12.52,0,0,1,12.52,12.67L552,144.43a8.07,8.07,0,0,1-8.54,7.7h0c-4.72-.1-8.55-3.76-8.56-8.17,0-4.63-.12-9.5-.12-9.5s-6-1-7.2-8.77c-.31-2-.33-9.13-.27-15.75A12.53,12.53,0,0,1,539.8,97.52Z"/><path class="cls-4" d="M529,114.71a1,1,0,0,0,1,1,1,1,0,0,0,1-.9,1,1,0,0,0-1-1A1,1,0,0,0,529,114.71Z"/><path class="cls-4" d="M528.83,113.59c.12.13.88-.43,1.95-.43s1.86.54,2,.41-.07-.29-.42-.54a2.72,2.72,0,0,0-1.58-.49,2.66,2.66,0,0,0-1.55.5C528.88,113.3,528.77,113.53,528.83,113.59Z"/><path class="cls-4" d="M539.79,114.71a1,1,0,0,0,1,1,1,1,0,0,0,1-.9,1,1,0,0,0-1-1A1,1,0,0,0,539.79,114.71Z"/><path class="cls-4" d="M539.38,113.79c.12.13.88-.43,2-.42s1.87.54,2,.4-.07-.29-.41-.54a2.74,2.74,0,0,0-3.14,0C539.43,113.5,539.32,113.73,539.38,113.79Z"/><path class="cls-4" d="M535.48,121.75a7.32,7.32,0,0,0-1.74-.31c-.27,0-.53-.08-.58-.27a1.44,1.44,0,0,1,.18-.81l.81-2.09a36.13,36.13,0,0,0,1.83-5.46,34.75,34.75,0,0,0-2.26,5.3l-.78,2.1a1.62,1.62,0,0,0-.14,1.08.69.69,0,0,0,.45.4,2.16,2.16,0,0,0,.47.06A6.3,6.3,0,0,0,535.48,121.75Z"/><path class="cls-15" d="M534.74,134.46a19.75,19.75,0,0,0,10.42-2.78s-2.53,5.35-10.31,4.62Z"/><path class="cls-15" d="M535.94,124.34a1.93,1.93,0,0,1,1.73-.72,1.76,1.76,0,0,1,1.22.66,1.12,1.12,0,0,1,.09,1.28,1.29,1.29,0,0,1-1.41.35,4.07,4.07,0,0,1-1.37-.81,1.18,1.18,0,0,1-.31-.32.36.36,0,0,1,0-.4"/><path class="cls-4" d="M538.64,122.5c-.17,0-.17,1.15-1.17,2s-2.24.7-2.25.86.28.23.8.24a2.86,2.86,0,0,0,1.88-.65,2.52,2.52,0,0,0,.91-1.66C538.85,122.78,538.72,122.49,538.64,122.5Z"/><path class="cls-4" d="M539.34,110.79c.1.29,1.17.15,2.43.3s2.28.5,2.45.23c.07-.12-.1-.4-.51-.68a4.09,4.09,0,0,0-1.82-.63,3.92,3.92,0,0,0-1.9.22C539.52,110.42,539.29,110.65,539.34,110.79Z"/><path class="cls-4" d="M529.22,110.48c.19.25.93,0,1.82,0s1.64.17,1.82-.09-.05-.37-.38-.6a2.62,2.62,0,0,0-2.92.09C529.24,110.11,529.14,110.36,529.22,110.48Z"/><path class="cls-4" d="M555.14,110c-.55-4.72-2.78-9.46-6.82-12-3.55-2.17-7.17-2.67-10.7-.75a10.13,10.13,0,0,0-8.25,2.59,13.14,13.14,0,0,0-4,8.21,19.12,19.12,0,0,0,1.4,9.14l.6-7.89c4-1.71,8.46-5.1,10-9.22a16.43,16.43,0,0,0,11.79,11.48,13.47,13.47,0,0,0,4.62,12.49C554.78,119.44,555.69,114.69,555.14,110Z"/><path class="cls-4" d="M550,114.64c.6,3-.43,6.08-1.19,9.06s-1.22,6.34.38,9a4.76,4.76,0,0,1,1.08,2.39,8.94,8.94,0,0,1-.81,2.21A3.46,3.46,0,0,0,551,141a5.69,5.69,0,0,0,4.21.6,17.07,17.07,0,0,0,4-1.59l3.79-1.89a6.56,6.56,0,0,0,1.59-1,5.3,5.3,0,0,0,1.38-2.82,17.12,17.12,0,0,0-2-11.94c-2-3.6-1.13-9.57-4.61-11.78"/><path class="cls-5" d="M561.09,138.75a7.16,7.16,0,0,0,2-.8,6,6,0,0,0,1.84-1.74,6.24,6.24,0,0,0,1.16-3.1,7.92,7.92,0,0,0-.68-4,9.12,9.12,0,0,0-1.16-1.95,24.2,24.2,0,0,0-1.63-1.81,15.92,15.92,0,0,1-1.71-2,5.69,5.69,0,0,1-1-2.6c-.24-1.91.49-3.8.18-5.64a3.52,3.52,0,0,0-1.38-2.24,8.81,8.81,0,0,0-2.43-1.17,18.6,18.6,0,0,1-4.88-2.17,33.29,33.29,0,0,1-6.65-6.06c-1.68-1.93-2.9-3.61-3.73-4.77-.41-.58-.72-1-.93-1.36a3,3,0,0,1-.29-.49,2.5,2.5,0,0,1,.38.43c.26.34.6.77,1,1.3.88,1.12,2.14,2.76,3.85,4.65a34.13,34.13,0,0,0,6.63,5.89,17.85,17.85,0,0,0,4.78,2.09A9.65,9.65,0,0,1,559,112.5a4,4,0,0,1,1.57,2.56c.32,2-.41,3.92-.18,5.67s1.45,3.12,2.59,4.32c.57.61,1.15,1.22,1.65,1.86a10,10,0,0,1,1.19,2.06,8.24,8.24,0,0,1,.65,4.18,6.6,6.6,0,0,1-1.29,3.24,6.31,6.31,0,0,1-2,1.74,5,5,0,0,1-1.56.57A1.51,1.51,0,0,1,561.09,138.75Z"/><path class="cls-5" d="M558.69,108.1a2.57,2.57,0,0,1-.83-.17,20.37,20.37,0,0,1-2.18-.73,33.58,33.58,0,0,1-6.71-3.52,34,34,0,0,1-5.75-5A21.61,21.61,0,0,1,541.74,97c-.32-.44-.49-.69-.46-.71s.84.86,2.2,2.21a41.75,41.75,0,0,0,5.78,4.78,42.2,42.2,0,0,0,6.56,3.61C557.58,107.63,558.72,108,558.69,108.1Z"/><path class="cls-5" d="M531.34,96.08s.36-.48,1.14-1A6.5,6.5,0,0,1,536,93.84a4.33,4.33,0,0,1,2.06.43,3.83,3.83,0,0,1,1.34,1.08c.59.81.58,1.46.53,1.46s-.21-.56-.82-1.22a4,4,0,0,0-3.1-1.23,7.21,7.21,0,0,0-3.34,1C531.87,95.82,531.39,96.15,531.34,96.08Z"/></g><g id="Plants"><path class="cls-10" d="M88.15,268.94s6.57.29,4.27,14.84-4.7,22.16-4.7,22.16-.18,3.26,2.4,2.92,7.67-2.95,9.73-.32.84,6.37-2.88,10.42-11.56,13.2-12.26,14-1.12,2.45.68,2.5,14.28-2.63,15.19,3.37S89.27,354.43,88,355.5s-1.47,1.82-1.08,2.61S91.39,357.6,95,357s7.84-.7,8.08,2.8-5.76,13-25.07,21.44l-9.2,3.33-7.62-6.21c-15.5-14.28-18.08-25.2-16.71-28.43s5.36-1.77,8.55,0,6.65,4.31,7.28,3.69.73-1.38-.17-2.82-9.33-14.46-6.51-19.84,13.75,1.22,15.46,1.76,1.84-1.14,1.46-2.13-4.82-12.23-7-17.27-2.24-8.91.67-10.79,6.77,2.31,9.1,3.47,3.22-2,3.22-2,.21-8,2.77-22.48,9-12.55,9-12.55"/><path class="cls-4" d="M86.11,282a1.1,1.1,0,0,1,0,.27L86,283c-.12.71-.28,1.71-.5,3-.44,2.62-1.07,6.37-1.85,11-1.54,9.31-3.65,22.13-6,36.29s-4.46,27-6.09,36.29c-.83,4.61-1.51,8.36-2,11-.24,1.27-.43,2.27-.56,3-.06.32-.12.58-.16.77a1,1,0,0,1-.06.26.93.93,0,0,1,0-.27l.12-.78c.11-.7.28-1.71.49-3l1.85-11c1.57-9.28,3.68-22.11,6-36.3s4.46-27,6.09-36.27c.83-4.62,1.51-8.36,2-11l.56-3c.07-.33.12-.58.16-.78A2,2,0,0,1,86.11,282Z"/><path class="cls-4" d="M92.88,312.47a22.51,22.51,0,0,1-2,1.75c-1.31,1.12-3,2.55-4.82,4.12s-3.59,3.07-4.86,4.09c-.64.5-1.17.9-1.54,1.16a2.27,2.27,0,0,1-.6.38,24.58,24.58,0,0,1,2-1.75l4.79-4.16c1.88-1.62,3.61-3.05,4.89-4.05.64-.5,1.17-.9,1.54-1.16A2.27,2.27,0,0,1,92.88,312.47Z"/><path class="cls-4" d="M78.26,323.58c-.08.07-3-3.54-6.52-8s-6.3-8.22-6.22-8.28,3,3.53,6.52,8S78.34,323.52,78.26,323.58Z"/><path class="cls-4" d="M75.36,348.79a2.74,2.74,0,0,1-.63-.34c-.4-.24-1-.6-1.66-1.06-1.38-.93-3.26-2.25-5.25-3.82s-3.73-3.07-4.95-4.2c-.62-.56-1.1-1-1.43-1.35a2.66,2.66,0,0,1-.48-.55,21.73,21.73,0,0,1,2.08,1.7c1.27,1.07,3,2.54,5,4.1s3.83,2.92,5.17,3.9A19,19,0,0,1,75.36,348.79Z"/><path class="cls-4" d="M90.8,341.65a19,19,0,0,1-2.21,1.13c-1.39.66-3.31,1.54-5.45,2.5s-4.07,1.8-5.49,2.39a15,15,0,0,1-2.31.89,17.24,17.24,0,0,1,2.2-1.13c1.39-.66,3.31-1.54,5.45-2.5s4.08-1.8,5.49-2.39A14.88,14.88,0,0,1,90.8,341.65Z"/><path class="cls-4" d="M91.07,364.22a3.42,3.42,0,0,1-.75.41l-2.11,1c-1.79.81-4.27,1.92-7,3.12s-5.24,2.26-7.06,3l-2.15.88a3.88,3.88,0,0,1-.82.27,4,4,0,0,1,.76-.41l2.11-1c1.78-.82,4.26-1.92,7-3.12s5.24-2.27,7.06-3l2.16-.87A4.26,4.26,0,0,1,91.07,364.22Z"/><path class="cls-4" d="M71.58,372.56a4.61,4.61,0,0,1-.78-.48c-.49-.33-1.18-.83-2-1.45-1.7-1.24-4-3-6.49-5.07s-4.64-4-6.17-5.44c-.77-.72-1.38-1.31-1.79-1.73a3.91,3.91,0,0,1-.62-.68,4,4,0,0,1,.72.57l1.87,1.64c1.58,1.39,3.77,3.3,6.24,5.35s4.74,3.85,6.4,5.15l2,1.54A3.69,3.69,0,0,1,71.58,372.56Z"/><path class="cls-10" d="M623.13,320.89a11.89,11.89,0,0,1,6.17,7,21.06,21.06,0,0,1,.82,9.47c-.7,6.15-4.19,12.36-8,17.27-5.18-4.52-6.37-12.4-6.72-16.44-.56-6.38,2.3-18.24,7.68-17.29"/><path class="cls-10" d="M628.19,364.77a10.16,10.16,0,0,1,3.28-9.67,13.54,13.54,0,0,1,10-3.11c1.64.13,3.42.61,4.37,2a4.33,4.33,0,0,1,.06,4.4,8.74,8.74,0,0,1-3.26,3.21c-4.48,2.82-9.34,4.72-14.41,3.2"/><path class="cls-4" d="M621.55,383.62a7.41,7.41,0,0,1,.18-1.26c.16-.89.37-2,.63-3.42A35.58,35.58,0,0,1,625.88,368a21.83,21.83,0,0,1,7.83-8.31,14.37,14.37,0,0,1,3.19-1.41,7.07,7.07,0,0,1,.92-.24c.21,0,.32-.06.33,0a22.94,22.94,0,0,0-4.28,2,22.52,22.52,0,0,0-7.6,8.26,38.56,38.56,0,0,0-3.6,10.76c-.32,1.43-.57,2.59-.77,3.38A7.6,7.6,0,0,1,621.55,383.62Z"/><path class="cls-4" d="M621.74,330.12a2.22,2.22,0,0,1,.07.55c0,.41.05.93.09,1.58.07,1.38.15,3.37.23,5.84.16,4.92.29,11.73.26,19.25s-.22,14.33-.42,19.26c-.1,2.46-.2,4.45-.29,5.83,0,.65-.08,1.17-.11,1.58a4.06,4.06,0,0,1-.06.55,2,2,0,0,1,0-.55q0-.61,0-1.59c0-1.43.08-3.41.14-5.83.12-4.93.25-11.73.29-19.25s-.05-14.32-.12-19.25c0-2.42-.07-4.4-.1-5.83,0-.65,0-1.18,0-1.59A3.93,3.93,0,0,1,621.74,330.12Z"/><path class="cls-10" d="M619.23,368.51a23.8,23.8,0,0,0-13-17.42c-1.73-.83-4-1.37-5.42-.08s-1.1,3.6-.4,5.39A20.29,20.29,0,0,0,619.11,369"/><path class="cls-4" d="M607.08,356.92a7.09,7.09,0,0,1,1.1.48,12.05,12.05,0,0,1,1.24.66,17.34,17.34,0,0,1,1.58,1,17.81,17.81,0,0,1,1.81,1.36,23.14,23.14,0,0,1,1.93,1.74,26.71,26.71,0,0,1,3.65,4.7,25.7,25.7,0,0,1,2.41,5.45,20.53,20.53,0,0,1,.61,2.53,17.89,17.89,0,0,1,.31,2.24,18.39,18.39,0,0,1,.09,1.86,12.09,12.09,0,0,1,0,1.41,6.13,6.13,0,0,1-.14,1.19c-.1,0,.08-1.71-.22-4.43-.09-.68-.18-1.42-.36-2.2a25.27,25.27,0,0,0-.64-2.48,27,27,0,0,0-2.4-5.34,27.68,27.68,0,0,0-3.57-4.64,24.82,24.82,0,0,0-1.87-1.75c-.59-.54-1.2-1-1.75-1.39C608.6,357.72,607,357,607.08,356.92Z"/></g><g id="Image_upload" data-name="Image upload"><rect class="cls-7" x="232.78" y="75.84" width="199.44" height="199.44"/><path class="cls-4" d="M432.22,275.27c0-1.92-.09-79.88-.23-199.43l.23.22-199.42,0h0l.26-.26c0,73,0,141.47,0,199.43l-.23-.22,199.44.22-199.44.23h-.22v-.23c0-58,0-126.4,0-199.43v-.26h.28l199.42,0h.22v.23C432.31,195.39,432.22,273.35,432.22,275.27Z"/><path class="cls-5" d="M414.33,263.39a34.12,34.12,0,0,1,6-.26c-.52.52-.14.14-.26.25h0v-1.19c0-.39,0-.76,0-1.13,0-.66,0-1.29.06-1.91a6.3,6.3,0,0,1,.18-1.75,5.63,5.63,0,0,1,.19,1.75c0,.62,0,1.25.05,1.91,0,.37,0,.74,0,1.13v1.19h0c-.11.12.26-.25-.26.27A35.32,35.32,0,0,1,414.33,263.39Z"/><path class="cls-5" d="M389.16,263.39a76.21,76.21,0,0,1,12.58,0,76.21,76.21,0,0,1-12.58,0Z"/><path class="cls-5" d="M364,263.39a76.34,76.34,0,0,1,12.59,0,76.34,76.34,0,0,1-12.59,0Z"/><path class="cls-5" d="M338.8,263.39a76.34,76.34,0,0,1,12.59,0,76.34,76.34,0,0,1-12.59,0Z"/><path class="cls-5" d="M313.62,263.39a37.48,37.48,0,0,1,6.29-.26,37.55,37.55,0,0,1,6.3.26,76.34,76.34,0,0,1-12.59,0Z"/><path class="cls-5" d="M288.44,263.39a37.48,37.48,0,0,1,6.29-.26,37.55,37.55,0,0,1,6.3.26,38.87,38.87,0,0,1-6.3.26A38.79,38.79,0,0,1,288.44,263.39Z"/><path class="cls-5" d="M263.26,263.39a37.48,37.48,0,0,1,6.29-.26,37.55,37.55,0,0,1,6.3.26,38.87,38.87,0,0,1-6.3.26A38.79,38.79,0,0,1,263.26,263.39Z"/><path class="cls-5" d="M244.67,257.39a35.22,35.22,0,0,1,.26,6l-.26-.26h1.21l1.12,0,1.91.05a5.67,5.67,0,0,1,1.76.19,6.34,6.34,0,0,1-1.76.18l-1.91.06h-2.33l-.26-.26A35.22,35.22,0,0,1,244.67,257.39Z"/><path class="cls-5" d="M244.67,232.21a38.79,38.79,0,0,1,.26,6.29,38.87,38.87,0,0,1-.26,6.3,38.87,38.87,0,0,1-.26-6.3A38.79,38.79,0,0,1,244.67,232.21Z"/><path class="cls-5" d="M244.67,207a38.79,38.79,0,0,1,.26,6.29,38.87,38.87,0,0,1-.26,6.3,38.87,38.87,0,0,1-.26-6.3A38.79,38.79,0,0,1,244.67,207Z"/><path class="cls-5" d="M244.67,181.85a38.79,38.79,0,0,1,.26,6.29,38.87,38.87,0,0,1-.26,6.3,38.87,38.87,0,0,1-.26-6.3A38.79,38.79,0,0,1,244.67,181.85Z"/><path class="cls-5" d="M244.67,156.67a38.79,38.79,0,0,1,.26,6.29,38.87,38.87,0,0,1-.26,6.3,38.87,38.87,0,0,1-.26-6.3A38.79,38.79,0,0,1,244.67,156.67Z"/><path class="cls-5" d="M244.67,131.49a38.79,38.79,0,0,1,.26,6.29,38.87,38.87,0,0,1-.26,6.3,38.87,38.87,0,0,1-.26-6.3A38.79,38.79,0,0,1,244.67,131.49Z"/><path class="cls-5" d="M244.67,106.31a38.87,38.87,0,0,1,.26,6.3,38.79,38.79,0,0,1-.26,6.29,38.79,38.79,0,0,1-.26-6.29A38.87,38.87,0,0,1,244.67,106.31Z"/><path class="cls-5" d="M250.67,87.72a34.12,34.12,0,0,1-6,.26l.26-.26h0v1.19c0,.38,0,.76,0,1.13,0,.65,0,1.29-.06,1.9a5.9,5.9,0,0,1-.18,1.76,6.07,6.07,0,0,1-.19-1.76c0-.61,0-1.25,0-1.9,0-.37,0-.75,0-1.13V87.74h0l.26-.26A35.32,35.32,0,0,1,250.67,87.72Z"/><path class="cls-5" d="M275.85,87.72a37.55,37.55,0,0,1-6.3.26,37.48,37.48,0,0,1-6.29-.26,38.79,38.79,0,0,1,6.29-.26A38.87,38.87,0,0,1,275.85,87.72Z"/><path class="cls-5" d="M301,87.72a37.55,37.55,0,0,1-6.3.26,37.48,37.48,0,0,1-6.29-.26,38.79,38.79,0,0,1,6.29-.26A38.87,38.87,0,0,1,301,87.72Z"/><path class="cls-5" d="M326.21,87.72a37.55,37.55,0,0,1-6.3.26,37.48,37.48,0,0,1-6.29-.26,76.34,76.34,0,0,1,12.59,0Z"/><path class="cls-5" d="M351.39,87.72a76.34,76.34,0,0,1-12.59,0,76.34,76.34,0,0,1,12.59,0Z"/><path class="cls-5" d="M376.57,87.72a76.34,76.34,0,0,1-12.59,0,76.34,76.34,0,0,1,12.59,0Z"/><path class="cls-5" d="M401.74,87.72a76.21,76.21,0,0,1-12.58,0,76.21,76.21,0,0,1,12.58,0Z"/><path class="cls-5" d="M420.33,93.72a35.32,35.32,0,0,1-.26-6l.26.26h-1.2L418,88l-1.91,0a6.14,6.14,0,0,1-1.76-.19,6,6,0,0,1,1.76-.18l1.91-.06h2.33l.26.26A34.12,34.12,0,0,1,420.33,93.72Z"/><path class="cls-5" d="M420.33,118.9a38.79,38.79,0,0,1-.26-6.29,38.87,38.87,0,0,1,.26-6.3,37.55,37.55,0,0,1,.26,6.3A37.48,37.48,0,0,1,420.33,118.9Z"/><path class="cls-5" d="M420.33,144.08a38.79,38.79,0,0,1-.26-6.29,38.87,38.87,0,0,1,.26-6.3,37.55,37.55,0,0,1,.26,6.3A37.48,37.48,0,0,1,420.33,144.08Z"/><path class="cls-5" d="M420.33,169.26a38.87,38.87,0,0,1-.26-6.3,38.79,38.79,0,0,1,.26-6.29,37.48,37.48,0,0,1,.26,6.29A37.55,37.55,0,0,1,420.33,169.26Z"/><path class="cls-5" d="M420.33,194.44a38.87,38.87,0,0,1-.26-6.3,38.79,38.79,0,0,1,.26-6.29,37.48,37.48,0,0,1,.26,6.29A37.55,37.55,0,0,1,420.33,194.44Z"/><path class="cls-5" d="M420.33,219.62a38.87,38.87,0,0,1-.26-6.3,38.79,38.79,0,0,1,.26-6.29,37.48,37.48,0,0,1,.26,6.29A37.55,37.55,0,0,1,420.33,219.62Z"/><path class="cls-5" d="M420.33,244.8a38.87,38.87,0,0,1-.26-6.3,38.79,38.79,0,0,1,.26-6.29,37.48,37.48,0,0,1,.26,6.29A37.55,37.55,0,0,1,420.33,244.8Z"/><path class="cls-4" d="M323.94,141.73a3.57,3.57,0,0,1-1-.13,5.12,5.12,0,0,1-2.57-1.46,5.35,5.35,0,0,1-1.6-4.34,4.77,4.77,0,0,1,1.27-2.68,4.37,4.37,0,0,1,3-1.42l-.2.2a6.61,6.61,0,0,1,1.05-4.27,3.71,3.71,0,0,1,2.05-1.32,5.45,5.45,0,0,1,2.54,0l-.28.25a5.81,5.81,0,0,1,1.95-5,6.77,6.77,0,0,1,2.59-1.35l.72-.21.74-.12a9.3,9.3,0,0,1,1.5-.14,10.4,10.4,0,0,1,6,1.3,6.68,6.68,0,0,1,2.19,2.41,8.41,8.41,0,0,1,.93,3.18,7.79,7.79,0,0,1,0,1.45l-.27-.29a8.57,8.57,0,0,1,5.58,1.56,10.35,10.35,0,0,1,3.28,4.51,5.66,5.66,0,0,1,.52,2.69,5.29,5.29,0,0,1-.88,2.52,5.89,5.89,0,0,1-4.21,2.6h0l-18.06.18h-5.07l-1.34,0a2.77,2.77,0,0,1-.46,0l.46,0,1.34-.06,5.08-.13,18-.36h0a5.46,5.46,0,0,0,3.87-2.41A4.8,4.8,0,0,0,353,134a9.9,9.9,0,0,0-3.13-4.28,8,8,0,0,0-5.24-1.46h-.3l0-.3a7.63,7.63,0,0,0,0-1.35,6.8,6.8,0,0,0-2.88-5.2,10,10,0,0,0-5.74-1.23,8.64,8.64,0,0,0-5.26,1.69,5.35,5.35,0,0,0-1.81,4.61l0,.33-.31-.08a4.08,4.08,0,0,0-4.15,1.18,6.17,6.17,0,0,0-1,4v.19H323a4.05,4.05,0,0,0-2.76,1.28,4.51,4.51,0,0,0-1.22,2.48A5.19,5.19,0,0,0,320.5,140a5.34,5.34,0,0,0,2.44,1.5C323.58,141.68,323.94,141.7,323.94,141.73Z"/><path class="cls-4" d="M340.84,135.7a47,47,0,0,1-4.73-4.9h.38l-.1.1a45.51,45.51,0,0,1-5,4.8,47.9,47.9,0,0,1,4.66-5.16l.1-.1.19-.2.19.21A43.87,43.87,0,0,1,340.84,135.7Z"/><path class="cls-4" d="M336.3,147.38A68.58,68.58,0,0,1,336,139a68.58,68.58,0,0,1,.26-8.38,66.25,66.25,0,0,1,.26,8.38A66.25,66.25,0,0,1,336.3,147.38Z"/><path class="cls-10" d="M332.78,212.76H276.43a3.51,3.51,0,0,1-3.52-3.52h0a3.51,3.51,0,0,1,3.52-3.51h56.35a3.51,3.51,0,0,1,3.52,3.51h0A3.51,3.51,0,0,1,332.78,212.76Z"/><path class="cls-10" d="M332,198.63c0,1.19-.84,2.14-2.6,2.14a4,4,0,0,1-2.53-.83l.46-.78a3.08,3.08,0,0,0,2.06.74c1,0,1.63-.48,1.63-1.23s-.49-1.26-2.08-1.26h-1.56l.36-3.6h3.88v.86h-3.06l-.18,1.88h.76C331.19,196.55,332,197.41,332,198.63Z"/><path class="cls-10" d="M332.81,197.25c0-2.24,1.2-3.52,2.81-3.52s2.8,1.28,2.8,3.52-1.2,3.52-2.8,3.52S332.81,199.49,332.81,197.25Zm4.63,0c0-1.76-.75-2.64-1.82-2.64s-1.83.88-1.83,2.64.75,2.65,1.83,2.65S337.44,199,337.44,197.25Z"/><path class="cls-10" d="M339.25,195.63a1.62,1.62,0,1,1,1.6,1.88A1.66,1.66,0,0,1,339.25,195.63Zm2.57,0c0-.82-.37-1.32-1-1.32s-1,.51-1,1.32.37,1.32,1,1.32S341.82,196.46,341.82,195.63Zm3.18-1.82h.76l-4.7,6.88h-.76Zm-1.38,5.06c0-1.12.63-1.87,1.59-1.87a1.9,1.9,0,0,1,0,3.75C344.25,200.75,343.62,200,343.62,198.87Zm2.55,0c0-.81-.37-1.31-1-1.31s-1,.49-1,1.31.37,1.32,1,1.32S346.17,199.69,346.17,198.87Z"/><path class="cls-4" d="M391.49,212.76s.22,0,.64-.08a3.54,3.54,0,0,0,1.67-.85,3.48,3.48,0,0,0,1.12-2.74,3.44,3.44,0,0,0-2.36-3.09,8.71,8.71,0,0,0-2.49-.16h-2.79l-6.33,0-15.44,0-89.38.08a3.26,3.26,0,0,0-1.21,6.28,3.49,3.49,0,0,0,1.48.23h37.88l40.18.06,27.09.08,7.37.05,1.91,0,.66,0s-.22,0-.66,0l-1.91,0-7.37.05-27.09.08-40.18.05-23.73,0H276.4a4.07,4.07,0,0,1-1.67-.27,3.78,3.78,0,0,1,1.4-7.29l89.38.08,15.44,0,6.33,0h2.79a8.58,8.58,0,0,1,2.55.2,3.61,3.61,0,0,1,2.46,3.27,3.56,3.56,0,0,1-1.21,2.82,3.47,3.47,0,0,1-1.73.83A2.13,2.13,0,0,1,391.49,212.76Z"/><path class="cls-16" d="M275,170.91h.84l.44,5.08h-1.7Zm-.35-.82v-1.53h1.55v1.53Z"/><path class="cls-16" d="M278.22,174h-1.43l3.54-7.83h1.15L285,174h-1.41l-2.88-6.73h.38Zm.13-1.84.54-1.1h4l.52,1.1Z"/><path class="cls-16" d="M285.76,174v-4c0-.26,0-.52,0-.79s0-.53-.07-.78H287l.16,1.43-.16-.08a1.78,1.78,0,0,1,.65-1.11,1.89,1.89,0,0,1,1.15-.38,1.39,1.39,0,0,1,.3,0,1,1,0,0,1,.26.06l0,1.26a1.8,1.8,0,0,0-.73-.15,1.52,1.52,0,0,0-.81.2,1.2,1.2,0,0,0-.47.53,1.73,1.73,0,0,0-.16.76v3Z"/><path class="cls-16" d="M290.08,174v-4c0-.26,0-.52,0-.79s0-.53-.07-.78h1.3l.15,1.43-.15-.08a1.73,1.73,0,0,1,.64-1.11,1.89,1.89,0,0,1,1.15-.38,1.55,1.55,0,0,1,.31,0,.92.92,0,0,1,.25.06l0,1.26a1.8,1.8,0,0,0-.73-.15,1.52,1.52,0,0,0-.81.2,1.27,1.27,0,0,0-.47.53,1.73,1.73,0,0,0-.16.76v3Z"/><path class="cls-16" d="M296.44,174.07a2.39,2.39,0,0,1-1.28-.35,2.28,2.28,0,0,1-.87-1,4,4,0,0,1,0-3,2.53,2.53,0,0,1,.86-1,2.31,2.31,0,0,1,1.28-.37,2.19,2.19,0,0,1,1.23.35,1.68,1.68,0,0,1,.71,1l-.13.08v-1.24h1.35V174h-1.35v-1.25l.13,0a1.63,1.63,0,0,1-.71.95A2.19,2.19,0,0,1,296.44,174.07Zm.38-1.06a1.26,1.26,0,0,0,1.05-.47,2.59,2.59,0,0,0,0-2.7,1.26,1.26,0,0,0-1.05-.47,1.31,1.31,0,0,0-1.08.48,2.15,2.15,0,0,0-.38,1.37,2,2,0,0,0,.38,1.32A1.31,1.31,0,0,0,296.82,173Z"/><path class="cls-16" d="M303.13,174.07a3.75,3.75,0,0,1-2.4-.7l.39-1a3.12,3.12,0,0,0,1,.49,3.49,3.49,0,0,0,1.08.17,1.49,1.49,0,0,0,.77-.17.52.52,0,0,0,.26-.46.47.47,0,0,0-.19-.4,1.64,1.64,0,0,0-.64-.26l-.92-.21a2.11,2.11,0,0,1-1.14-.56,1.37,1.37,0,0,1-.38-1,1.49,1.49,0,0,1,.29-.9,1.92,1.92,0,0,1,.8-.61,3.21,3.21,0,0,1,1.2-.22,3.58,3.58,0,0,1,1.14.18,2.8,2.8,0,0,1,1,.53l-.4.94a3,3,0,0,0-.85-.47,2.64,2.64,0,0,0-.86-.15,1.31,1.31,0,0,0-.74.17.57.57,0,0,0-.26.49.46.46,0,0,0,.16.38,1.19,1.19,0,0,0,.55.23l.94.23a2.32,2.32,0,0,1,1.2.57,1.38,1.38,0,0,1,.38,1,1.41,1.41,0,0,1-.61,1.2A2.82,2.82,0,0,1,303.13,174.07Z"/><path class="cls-16" d="M305.86,169.47v-1h3.92v1Zm3.92,3.38v1.09a2.33,2.33,0,0,1-.44.1,3.19,3.19,0,0,1-.45,0,1.93,1.93,0,0,1-1.45-.53,2.1,2.1,0,0,1-.51-1.52v-4.94l1.37-.46V172a1.19,1.19,0,0,0,.12.58.66.66,0,0,0,.33.31,1.09,1.09,0,0,0,.45.08,1.27,1.27,0,0,0,.28,0Z"/><path class="cls-16" d="M310.71,174v-4c0-.26,0-.52,0-.79s0-.53-.08-.78h1.3l.16,1.43-.16-.08a1.74,1.74,0,0,1,.65-1.11,1.88,1.88,0,0,1,1.14-.38,1.48,1.48,0,0,1,.31,0,1,1,0,0,1,.26.06l0,1.26a1.75,1.75,0,0,0-.72-.15,1.52,1.52,0,0,0-.81.2,1.2,1.2,0,0,0-.47.53,1.73,1.73,0,0,0-.16.76v3Z"/><path class="cls-16" d="M317.08,174.07a2.45,2.45,0,0,1-1.29-.35,2.26,2.26,0,0,1-.86-1,4,4,0,0,1,0-3,2.46,2.46,0,0,1,.86-1,2.31,2.31,0,0,1,1.28-.37,2.19,2.19,0,0,1,1.23.35,1.73,1.73,0,0,1,.71,1l-.14.08v-1.24h1.36V174h-1.36v-1.25l.14,0a1.67,1.67,0,0,1-.71.95A2.19,2.19,0,0,1,317.08,174.07Zm.37-1.06a1.28,1.28,0,0,0,1.06-.47,2.65,2.65,0,0,0,0-2.7,1.43,1.43,0,0,0-2.13,0,2.15,2.15,0,0,0-.39,1.37,2,2,0,0,0,.39,1.32A1.28,1.28,0,0,0,317.45,173Z"/><path class="cls-16" d="M326.9,174.07a2.39,2.39,0,0,1-1.28-.35,2.22,2.22,0,0,1-.87-1,4,4,0,0,1,0-3,2.46,2.46,0,0,1,.86-1,2.31,2.31,0,0,1,1.28-.37,2.19,2.19,0,0,1,1.23.35,1.73,1.73,0,0,1,.71,1l-.13.08v-1.24h1.35V174h-1.35v-1.25l.13,0a1.67,1.67,0,0,1-.71.95A2.19,2.19,0,0,1,326.9,174.07Zm.38-1.06a1.28,1.28,0,0,0,1.05-.47,2.59,2.59,0,0,0,0-2.7,1.28,1.28,0,0,0-1.05-.47,1.31,1.31,0,0,0-1.08.48,2.15,2.15,0,0,0-.39,1.37,2,2,0,0,0,.39,1.32A1.31,1.31,0,0,0,327.28,173Z"/><path class="cls-16" d="M336.87,176.37h-1.38V172.6l.16.18a1.67,1.67,0,0,1-.71.95,2.19,2.19,0,0,1-1.23.34,2.39,2.39,0,0,1-1.28-.35,2.22,2.22,0,0,1-.87-1,4,4,0,0,1,0-3,2.46,2.46,0,0,1,.86-1,2.31,2.31,0,0,1,1.28-.37,2.19,2.19,0,0,1,1.23.35,1.73,1.73,0,0,1,.71,1l-.1-.06.13-1.1H337c0,.25-.06.51-.08.78s0,.53,0,.79ZM334.09,173a1.28,1.28,0,0,0,1.05-.47,2.59,2.59,0,0,0,0-2.7,1.28,1.28,0,0,0-1.05-.47,1.3,1.3,0,0,0-1.08.48,2.15,2.15,0,0,0-.39,1.37,2,2,0,0,0,.39,1.32A1.29,1.29,0,0,0,334.09,173Z"/><path class="cls-16" d="M340.37,174.07a2,2,0,0,1-1.54-.57,2.5,2.5,0,0,1-.51-1.71v-3.35h1.38v3.36a1.31,1.31,0,0,0,.25.89,1,1,0,0,0,.76.29,1.25,1.25,0,0,0,1-.4,1.49,1.49,0,0,0,.36-1.05v-3.09h1.39V174h-1.35v-1.14h.15a1.92,1.92,0,0,1-.73.91A2,2,0,0,1,340.37,174.07Z"/><path class="cls-16" d="M344.9,174v-5.55h1.37V174Zm1.13-6.27h-.87l1.09-2.27h1.41Z"/><path class="cls-16" d="M350.09,169.47v-1H354v1Zm3.92,3.38v1.09a2.33,2.33,0,0,1-.44.1,3.19,3.19,0,0,1-.45,0,1.93,1.93,0,0,1-1.45-.53,2.1,2.1,0,0,1-.51-1.52v-4.94l1.37-.46V172a1.19,1.19,0,0,0,.12.58.66.66,0,0,0,.33.31,1.11,1.11,0,0,0,.46.08,1.23,1.23,0,0,0,.27,0Z"/><path class="cls-16" d="M357,174.07a2,2,0,0,1-1.54-.57,2.5,2.5,0,0,1-.51-1.71v-3.35h1.37v3.36a1.31,1.31,0,0,0,.26.89,1,1,0,0,0,.76.29,1.22,1.22,0,0,0,1-.4,1.45,1.45,0,0,0,.37-1.05v-3.09H360V174h-1.34v-1.14h.14a1.84,1.84,0,0,1-.72.91A2,2,0,0,1,357,174.07Z"/><path class="cls-16" d="M363.53,174.07a3.7,3.7,0,0,1-2.39-.7l.38-1a3.12,3.12,0,0,0,1,.49,3.49,3.49,0,0,0,1.08.17,1.49,1.49,0,0,0,.77-.17.52.52,0,0,0,.26-.46.47.47,0,0,0-.19-.4,1.64,1.64,0,0,0-.64-.26l-.92-.21a2.11,2.11,0,0,1-1.14-.56,1.37,1.37,0,0,1-.38-1,1.49,1.49,0,0,1,.29-.9,1.92,1.92,0,0,1,.8-.61,3.21,3.21,0,0,1,1.2-.22,3.58,3.58,0,0,1,1.14.18,2.8,2.8,0,0,1,1,.53l-.39.94a3.18,3.18,0,0,0-.86-.47,2.6,2.6,0,0,0-.86-.15,1.31,1.31,0,0,0-.74.17.57.57,0,0,0-.26.49.46.46,0,0,0,.16.38,1.19,1.19,0,0,0,.55.23l.94.23a2.32,2.32,0,0,1,1.2.57,1.38,1.38,0,0,1,.38,1,1.41,1.41,0,0,1-.61,1.2A2.82,2.82,0,0,1,363.53,174.07Z"/><path class="cls-16" d="M369.33,169.47v-1H373v1Zm3.86-2.4a2,2,0,0,0-.55-.09.92.92,0,0,0-.44.1.62.62,0,0,0-.32.3,1.22,1.22,0,0,0-.12.58v6h-1.37V167.9a2.1,2.1,0,0,1,.5-1.52,1.88,1.88,0,0,1,1.43-.53l.45,0a1.84,1.84,0,0,1,.42.1Z"/><path class="cls-16" d="M376.52,174.07a3.08,3.08,0,0,1-1.5-.35,2.46,2.46,0,0,1-1-1,3.2,3.2,0,0,1-.34-1.53,3.27,3.27,0,0,1,.34-1.54,2.42,2.42,0,0,1,1-1,3.08,3.08,0,0,1,1.5-.35,3,3,0,0,1,1.48.35,2.45,2.45,0,0,1,1,1,3.27,3.27,0,0,1,.35,1.54,3.2,3.2,0,0,1-.35,1.53,2.48,2.48,0,0,1-1,1A3,3,0,0,1,376.52,174.07Zm0-1.06a1.24,1.24,0,0,0,1.05-.46,2.68,2.68,0,0,0,0-2.72,1.24,1.24,0,0,0-1.05-.46,1.3,1.3,0,0,0-1.07.46,2.62,2.62,0,0,0,0,2.72A1.27,1.27,0,0,0,376.52,173Z"/><path class="cls-16" d="M379.79,169.47v-1h3.92v1Zm3.92,3.38v1.09a2.33,2.33,0,0,1-.44.1,3.19,3.19,0,0,1-.45,0,1.93,1.93,0,0,1-1.45-.53,2.1,2.1,0,0,1-.51-1.52v-4.94l1.37-.46V172a1.19,1.19,0,0,0,.12.58.66.66,0,0,0,.33.31,1.11,1.11,0,0,0,.46.08,1.23,1.23,0,0,0,.27,0Z"/><path class="cls-16" d="M387.17,174.07a3.08,3.08,0,0,1-1.5-.35,2.4,2.4,0,0,1-1-1,3.2,3.2,0,0,1-.34-1.53,3.27,3.27,0,0,1,.34-1.54,2.36,2.36,0,0,1,1-1,3.08,3.08,0,0,1,1.5-.35,3,3,0,0,1,1.48.35,2.45,2.45,0,0,1,1,1,3.27,3.27,0,0,1,.35,1.54,3.2,3.2,0,0,1-.35,1.53,2.48,2.48,0,0,1-1,1A3,3,0,0,1,387.17,174.07Zm0-1.06a1.24,1.24,0,0,0,1.05-.46,2.68,2.68,0,0,0,0-2.72,1.24,1.24,0,0,0-1.05-.46,1.3,1.3,0,0,0-1.07.46,2.65,2.65,0,0,0,0,2.72A1.3,1.3,0,0,0,387.17,173Z"/><path class="cls-16" d="M393.2,174.07a3.75,3.75,0,0,1-2.4-.7l.39-1a3.18,3.18,0,0,0,.95.49,3.59,3.59,0,0,0,1.08.17,1.44,1.44,0,0,0,.77-.17.51.51,0,0,0,.27-.46.5.5,0,0,0-.19-.4,1.71,1.71,0,0,0-.64-.26l-.92-.21a2.11,2.11,0,0,1-1.14-.56,1.33,1.33,0,0,1-.38-1,1.48,1.48,0,0,1,.28-.9,2,2,0,0,1,.81-.61,3.13,3.13,0,0,1,1.2-.22,3.67,3.67,0,0,1,1.14.18,2.8,2.8,0,0,1,1,.53l-.4.94a3.13,3.13,0,0,0-.85-.47,2.64,2.64,0,0,0-.86-.15,1.29,1.29,0,0,0-.74.17.56.56,0,0,0-.27.49.5.5,0,0,0,.16.38,1.29,1.29,0,0,0,.56.23l.93.23a2.36,2.36,0,0,1,1.21.57,1.52,1.52,0,0,1-.24,2.23A2.79,2.79,0,0,1,393.2,174.07Z"/><path class="cls-16" d="M396.88,171.65l-.42-5.49h1.7l-.44,5.49Zm-.35.8h1.55V174h-1.55Z"/><path class="cls-16" d="M318,226.8a4.44,4.44,0,0,1-.84-.08,3.46,3.46,0,0,1-.75-.23,2.31,2.31,0,0,1-.61-.37l.34-.75a3,3,0,0,0,.88.47,3.43,3.43,0,0,0,1,.14,1.66,1.66,0,0,0,.91-.21.65.65,0,0,0,.33-.58.48.48,0,0,0-.15-.37,1.09,1.09,0,0,0-.43-.26c-.19-.07-.43-.13-.71-.2a5.73,5.73,0,0,1-.89-.23,2.92,2.92,0,0,1-.64-.33,1.41,1.41,0,0,1-.39-.46,1.44,1.44,0,0,1-.13-.64,1.54,1.54,0,0,1,.27-.9,1.82,1.82,0,0,1,.77-.61,2.88,2.88,0,0,1,1.15-.22,4,4,0,0,1,.78.08,2.88,2.88,0,0,1,.7.23,2,2,0,0,1,.55.36l-.35.76a2.41,2.41,0,0,0-.8-.46,2.57,2.57,0,0,0-.87-.15,1.47,1.47,0,0,0-.87.22.71.71,0,0,0-.32.62.56.56,0,0,0,.13.39,1,1,0,0,0,.41.26c.18.06.42.13.71.2a7.34,7.34,0,0,1,.88.24,2.54,2.54,0,0,1,.66.33,1.17,1.17,0,0,1,.41.45,1.21,1.21,0,0,1,.14.62,1.51,1.51,0,0,1-.27.89,1.68,1.68,0,0,1-.78.58A3.16,3.16,0,0,1,318,226.8Z"/><path class="cls-16" d="M322.63,226.79a1.44,1.44,0,0,1-1.11-.41,1.81,1.81,0,0,1-.37-1.25v-2.44h1v2.45a1,1,0,0,0,.18.65.69.69,0,0,0,.55.21.93.93,0,0,0,.71-.29,1.12,1.12,0,0,0,.26-.77v-2.25h1v4h-1v-.83H324a1.44,1.44,0,0,1-.53.67A1.52,1.52,0,0,1,322.63,226.79Z"/><path class="cls-16" d="M325.93,226.73v-5.89h1v2.81l-.09-.12a1.26,1.26,0,0,1,.51-.69,1.52,1.52,0,0,1,.88-.25,1.72,1.72,0,0,1,.94.25,1.73,1.73,0,0,1,.63.73,2.42,2.42,0,0,1,.23,1.11,2.45,2.45,0,0,1-.23,1.11,1.84,1.84,0,0,1-.63.74,1.72,1.72,0,0,1-.94.26,1.52,1.52,0,0,1-.88-.25,1.2,1.2,0,0,1-.51-.69l.09-.14v1ZM328,226a.94.94,0,0,0,.77-.35,1.62,1.62,0,0,0,.27-1,1.53,1.53,0,0,0-.27-1,1,1,0,0,0-1.55,0,1.51,1.51,0,0,0-.27,1,1.58,1.58,0,0,0,.27,1A1,1,0,0,0,328,226Z"/><path class="cls-16" d="M330.84,220.86H332v1h-1.11Zm.05,5.87v-4h1v4Z"/><path class="cls-16" d="M336.44,226.28a2.09,2.09,0,0,1-.71.38,3.07,3.07,0,0,1-.85.13,2.48,2.48,0,0,1-1.13-.25,1.75,1.75,0,0,1-.73-.72,2.32,2.32,0,0,1-.26-1.12,2.29,2.29,0,0,1,.25-1.1,1.77,1.77,0,0,1,.69-.74,1.88,1.88,0,0,1,1-.27,1.8,1.8,0,0,1,1,.24,1.57,1.57,0,0,1,.62.7,2.45,2.45,0,0,1,.22,1.08v.15h-2.87v-.53h2.27l-.27.27a1.35,1.35,0,0,0-.23-.89.81.81,0,0,0-.68-.3.9.9,0,0,0-.75.34,2,2,0,0,0,0,2,1.09,1.09,0,0,0,.89.34,2.06,2.06,0,0,0,.65-.11,1.94,1.94,0,0,0,.58-.32Z"/><path class="cls-16" d="M337.35,226.73v-2.89c0-.2,0-.39,0-.58a5.48,5.48,0,0,0,0-.57h.94l.09.8-.09,0a1.44,1.44,0,0,1,.58-.7,1.66,1.66,0,0,1,.87-.23c1,0,1.44.55,1.44,1.66v2.48h-1v-2.44a1.09,1.09,0,0,0-.18-.69.7.7,0,0,0-.57-.22,1,1,0,0,0-.74.29,1.1,1.1,0,0,0-.28.77v2.29Z"/><path class="cls-16" d="M346,226.73h-1v-1l.09.14a1.2,1.2,0,0,1-.51.69,1.55,1.55,0,0,1-.89.25,1.72,1.72,0,0,1-.94-.26,1.76,1.76,0,0,1-.63-.74,2.75,2.75,0,0,1-.22-1.11,2.56,2.56,0,0,1,.22-1.11,1.73,1.73,0,0,1,.63-.73,1.72,1.72,0,0,1,.94-.25,1.55,1.55,0,0,1,.89.25,1.26,1.26,0,0,1,.51.69l-.11.12v-2.81h1Zm-2-.71a1,1,0,0,0,.77-.34,1.58,1.58,0,0,0,.27-1,1.51,1.51,0,0,0-.27-1,.94.94,0,0,0-.77-.35,1,1,0,0,0-.79.34,1.53,1.53,0,0,0-.28,1,1.62,1.62,0,0,0,.28,1A1,1,0,0,0,344,226Z"/><path class="cls-16" d="M349,226.79a2.22,2.22,0,0,1-1.09-.26,1.76,1.76,0,0,1-.71-.72,2.44,2.44,0,0,1-.25-1.12,2.39,2.39,0,0,1,.25-1.11,1.75,1.75,0,0,1,.71-.74,2.48,2.48,0,0,1,2.17,0,1.81,1.81,0,0,1,.71.74,2.28,2.28,0,0,1,.25,1.11,2.32,2.32,0,0,1-.25,1.12,1.82,1.82,0,0,1-.71.72A2.21,2.21,0,0,1,349,226.79Zm0-.77a.91.91,0,0,0,.76-.33,2,2,0,0,0,0-2,.91.91,0,0,0-.76-.33,1,1,0,0,0-.78.33,2,2,0,0,0,0,2A1,1,0,0,0,349,226Z"/><path class="cls-16" d="M351.66,225.61h1.13v1.12h-1.13Z"/><path class="cls-16" d="M353.67,225.61h1.12v1.12h-1.12Z"/><path class="cls-16" d="M355.67,225.61h1.13v1.12h-1.13Z"/></g></g></svg>