<svg xmlns="http://www.w3.org/2000/svg" viewBox="0 0 466.33 450.72"><defs><style>.cls-1{fill:#f5f4f5;}.cls-2{fill:#e0e0e0;}.cls-3{fill:#7bb732;}.cls-15,.cls-16,.cls-4{fill:#fff;}.cls-5,.cls-6{opacity:0.15;}.cls-7{fill:#f8bfa7;}.cls-8{fill:#455a64;}.cls-9{fill:#263239;}.cls-10{fill:#37474f;}.cls-11{fill:#026a9d;}.cls-12{fill:#f49f7c;}.cls-13{fill:#b26668;}.cls-14{opacity:0.05;}.cls-15,.cls-17{opacity:0.3;}.cls-16{opacity:0.4;}.cls-18{opacity:0.35;}.cls-19{fill:#fbfbfb;}.cls-20{fill:#9b4b4e;}.cls-21{fill:#f4a6a7;}.cls-22{fill:#f28f8f;}</style></defs><title>services</title><g id="Capa_2" data-name="Capa 2"><g id="Floor"><ellipse id="Floor-2" data-name="Floor" class="cls-1" cx="233.16" cy="317.08" rx="233.16" ry="133.64"/></g><g id="Shadows"><ellipse id="Shadow" class="cls-2" cx="394.4" cy="288.75" rx="50.75" ry="29.3"/><ellipse id="Shadow-2" data-name="Shadow" class="cls-2" cx="75.55" cy="358.13" rx="47.89" ry="27.65"/><ellipse id="Shadow-3" data-name="Shadow" class="cls-2" cx="231.72" cy="319.5" rx="40.92" ry="23.62"/></g><g id="Plants"><g id="Plants-2" data-name="Plants"><path class="cls-3" d="M165.29,322.17l5-2.69s2.68-13,1.18-24.22c-2.11-15.8-12.7-21.49-16.63-20s-5,6.12,1.86,15.38C160.71,296.09,165.77,307.56,165.29,322.17Z"/><path class="cls-4" d="M167.22,316h0a.34.34,0,0,1-.29-.4c2.39-14.7-3.15-31-9.66-37.66a.35.35,0,0,1,.51-.49c6.62,6.79,12.27,23.35,9.84,38.26A.35.35,0,0,1,167.22,316Z"/><g class="cls-5"><path d="M165.29,322.17l5-2.69s2.68-13,1.18-24.22c-2.11-15.8-12.7-21.49-16.63-20s-5,6.12,1.86,15.38C160.71,296.09,165.77,307.56,165.29,322.17Z"/></g><path class="cls-3" d="M151.72,329.58c-.79.43-2.37-.58-3-1a7.44,7.44,0,0,1-2.4-2.9,7,7,0,0,1-.52-4.2,18.91,18.91,0,0,1,.58-2.21c.23-.71.45-1.43.68-2.14a5.45,5.45,0,0,0,.36-2.17c-.15-1.48-1.43-2.55-2.6-3.47s-2.64-2.35-2.59-4.13a6.28,6.28,0,0,1,1.66-3.69c.87-1.05,1.9-2,2.7-3.1a4.34,4.34,0,0,0,1-2.74,4.56,4.56,0,0,0-.56-1.74,24.78,24.78,0,0,1-1.81-3.51,3.49,3.49,0,0,1,.69-3.66,4.08,4.08,0,0,1,3.08-.69,7,7,0,0,1,2.82,1.07c2.78,1.64,4.32,5,7.28,6.3a31.85,31.85,0,0,0,3.6,1,4.51,4.51,0,0,1,3,2.12c1,2.22-1.06,4.88-.35,7.23.64,2.08,2.62,2.92,3.7,4.8a4.4,4.4,0,0,1,.47,2.72,13.11,13.11,0,0,1-1.25,4.53,32,32,0,0,1-2.61,4.05C165.54,322.06,151.84,329.52,151.72,329.58Z"/><path class="cls-4" d="M159.82,325.51h0a.35.35,0,0,1-.33-.37c.92-13.94-5.29-29.5-10-34.09a.36.36,0,0,1,0-.5.35.35,0,0,1,.5,0c4.77,4.68,11.1,20.5,10.17,34.63A.35.35,0,0,1,159.82,325.51Z"/><path class="cls-4" d="M158.13,309l-.11,0a47,47,0,0,0-10.08-1.87.36.36,0,0,1-.33-.38.34.34,0,0,1,.37-.33,48.65,48.65,0,0,1,10.27,1.91.37.37,0,0,1,.22.45A.35.35,0,0,1,158.13,309Z"/></g><g id="Plants-3" data-name="Plants"><path class="cls-3" d="M292.87,299.89l-5.39-3.11s-1.32-11.53-.44-20.47c1.23-12.55,9.34-27.65,19-24.11s-4.44,16.33-7.58,27S292.87,299.89,292.87,299.89Z"/><path class="cls-4" d="M290,298.58h0a.34.34,0,0,0,.32-.34c-.95-27.89,12.94-41.92,13.08-42.06a.33.33,0,1,0-.46-.46c-.14.14-14.23,14.37-13.27,42.55A.32.32,0,0,0,290,298.58Z"/><path class="cls-6" d="M292.87,299.89l-5.39-3.11s-1.32-11.53-.44-20.47c1.23-12.55,9.34-27.65,19-24.11s-4.44,16.33-7.58,27S292.87,299.89,292.87,299.89Z"/><path class="cls-3" d="M295.74,302.12l-3.83-2.22a42.32,42.32,0,0,1,3.23-17.53c3.37-8.37,11.76-15.31,16-13.85s4.11,4.44,2.06,7.58S298.61,286.71,295.74,302.12Z"/><path class="cls-4" d="M293.72,301.27h0A.31.31,0,0,0,294,301c-.07-17.64,16.49-29.56,16.65-29.68a.31.31,0,0,0,.08-.45.32.32,0,0,0-.45-.08c-.17.12-17,12.24-16.93,30.21A.32.32,0,0,0,293.72,301.27Z"/></g></g><g id="Character_3" data-name="Character 3"><path class="cls-7" d="M351.75,136.57c16.72-1.52,32.6-4.25,37.76-10.89-4.56-3.58-5.7-4.27-10.46-4.24-4.23,0-22.48,5.27-28.08,4.87-3.88-1.94-15.78-11.15-20.15-14.29-.77-.56-6.73,6.37-3.18,9.46,5,4.35,13.28,10.62,18,13.29C347.72,136,349.35,136.78,351.75,136.57Z"/><path class="cls-8" d="M370.91,68.79h0a1.19,1.19,0,0,0-.83.08L360.87,73a1.09,1.09,0,0,1-1.53-.71c-.36-1.16-6.67-2.5-7.19-3.5L355.7,60Z"/><path class="cls-9" d="M355.7,60.05v0a.86.86,0,0,0-.8,0l-6.8-15.74a1.39,1.39,0,0,0-.55-1.8l-6.66-3.85a1.39,1.39,0,0,0-1.83.43l-7.65,11.51a2.56,2.56,0,0,1-2,1,18.71,18.71,0,0,0-2.67.13V43.28l-5.11-3h0a.86.86,0,0,0-.84.07l-10.35,6a2.78,2.78,0,0,0-1.23,1.93l-1,11.51A3.83,3.83,0,0,1,307.09,62a61.72,61.72,0,0,0-5.75,6.09,2,2,0,0,1-2,.57l-6.64-2.32a1.62,1.62,0,0,0-1.86.7l-7.61,13.17a1.61,1.61,0,0,0,.33,2l5.33,4.6a2,2,0,0,1,.52,2,62.11,62.11,0,0,0-2.4,8,3.85,3.85,0,0,1-1.32,2l-9.45,6.65a2.77,2.77,0,0,0-1.06,2v11.95a.83.83,0,0,0,.37.77h0l12,6.92L283.12,136a1.38,1.38,0,0,0,.54,1.8L300,147.2a1.39,1.39,0,0,0,1.83-.43l7.41-7.57a.87.87,0,0,0,.39.71l15.18,8.75.4-11.87s-3.21-4.15-3.14-4.86l16.53-18a1.62,1.62,0,0,0,1.87-.69L348,100.06a1.63,1.63,0,0,0-.34-2L355,74.77a2.79,2.79,0,0,0,1.05-2Zm-40.09,50.26c-4.44,2.57-8.11,3.11-10.78,1.87-3.13-1.45,22.27-45,24.94-42.62,2.15,1.92,3.32,5.49,3.32,10.47C333.09,91.18,325.26,104.74,315.61,110.31Z"/><path class="cls-8" d="M358.23,50.13l-2.06,4.16-6.61,7.63-7.79-4.5-10.92-6.31a1.77,1.77,0,0,0,.55-.54l7.66-11.5a1.4,1.4,0,0,1,1.81-.44l6.68,3.86,10.14,5.84A1.4,1.4,0,0,1,358.23,50.13Z"/><path class="cls-8" d="M286.35,98.09a3.32,3.32,0,0,1-.7.74l-9.45,6.65a2.44,2.44,0,0,0-.65.76l15.89,9.19L304,108.29Z"/><path class="cls-8" d="M292,66.26a1.58,1.58,0,0,0-1.24.76l-7.61,13.17a1.51,1.51,0,0,0-.17,1l16.66,9.64,10.41-14.09Z"/><path class="cls-8" d="M336.83,49.12v3.79l-9.21,5.32L309.36,47.68a2.81,2.81,0,0,1,1.07-1.29l10.35-6a1.09,1.09,0,0,1,.52-.15.62.62,0,0,1,.31.08l5,2.86.13.08,6.88,4Z"/><path class="cls-10" d="M371.29,81.52v-12a.77.77,0,0,0-1.18-.76L360.9,73a1.1,1.1,0,0,1-1.54-.71,20.32,20.32,0,0,0-2.05-4.57,2.54,2.54,0,0,1-.14-2.23l6.14-12.38a1.39,1.39,0,0,0-.54-1.8l-6.67-3.85a1.39,1.39,0,0,0-1.83.43l-7.65,11.51a2.56,2.56,0,0,1-2,1,20.36,20.36,0,0,0-5,.51,1.1,1.1,0,0,1-1.38-1l-1-10.05a.77.77,0,0,0-1.25-.64l-10.34,6a2.79,2.79,0,0,0-1.24,1.93l-1,11.51a3.91,3.91,0,0,1-1.08,2.15,61.72,61.72,0,0,0-5.75,6.09,2,2,0,0,1-2,.57l-6.65-2.32a1.62,1.62,0,0,0-1.86.7L298.4,89a1.63,1.63,0,0,0,.33,2l5.33,4.59a2,2,0,0,1,.52,2,62,62,0,0,0-2.39,8,3.87,3.87,0,0,1-1.33,2l-9.45,6.65a2.8,2.8,0,0,0-1.06,2v12a.77.77,0,0,0,1.18.76l9.21-4.15a1.1,1.1,0,0,1,1.54.71,20.12,20.12,0,0,0,2.05,4.57,2.54,2.54,0,0,1,.14,2.23l-6.14,12.38a1.39,1.39,0,0,0,.54,1.8l6.67,3.85a1.39,1.39,0,0,0,1.83-.43L315,138.45a2.55,2.55,0,0,1,2-1,20.39,20.39,0,0,0,5-.51,1.1,1.1,0,0,1,1.38,1l1,10a.77.77,0,0,0,1.25.64l10.34-6a2.83,2.83,0,0,0,1.24-1.94l1-11.51a3.91,3.91,0,0,1,1.08-2.15,62.93,62.93,0,0,0,5.75-6.09,2,2,0,0,1,2-.57l6.65,2.32a1.62,1.62,0,0,0,1.86-.7l7.61-13.17a1.63,1.63,0,0,0-.33-2l-5.33-4.6a2,2,0,0,1-.52-2,62,62,0,0,0,2.39-8,3.84,3.84,0,0,1,1.33-2l9.45-6.66A2.8,2.8,0,0,0,371.29,81.52Zm-40.47,37.57c-9.66,5.58-17.48,1.06-17.48-10.09s7.82-24.71,17.48-30.28,17.48-1.06,17.48,10.09S340.48,113.52,330.82,119.09Z"/><g id="Character"><path class="cls-10" d="M389.71,117h.68a17.2,17.2,0,0,0,17.2-17.19h0A16.57,16.57,0,0,0,391,83.25h-1.93a16.58,16.58,0,0,0-16.58,16.58h0A17.2,17.2,0,0,0,389.71,117Z"/><path class="cls-10" d="M416.3,126.71h0a10,10,0,0,1-10-10V94.6h0a10,10,0,0,1,10,10Z"/><path class="cls-9" d="M423.78,272.87c-.64,1.26-.35,2.86-.46,6.32a57.64,57.64,0,0,1-.4,6.82c-.12.8-.4,1.54-.58,2.32a2.89,2.89,0,0,1-.94,1.61,1.78,1.78,0,0,1-1.57.41,1.71,1.71,0,0,1-1-.86,12.72,12.72,0,0,1-.85-2.4c-.75,5.78-6.64,9.52-2.84,11,3.31,1.3,5.65.25,7.7-.62a6.91,6.91,0,0,0,2.65-2.2c1.53-2.55,1.32-4.87,1.38-7.09a42.16,42.16,0,0,1,1.26-9C428.69,276.21,424.71,272.44,423.78,272.87Z"/><path class="cls-7" d="M416.76,275.74,412,263.85l7.87-3c.94,1.86,3.38,11.32,3.88,12a5.59,5.59,0,0,1,1.21,3.35,55.6,55.6,0,0,1-1.46,11.71,5.34,5.34,0,0,1-3.19,3.78,3.89,3.89,0,0,1-2,.43,1.05,1.05,0,0,1-.62-.26c-.33-.34,0-1.14.06-1.54a14,14,0,0,0,.22-1.94c.06-1.28.05-2.85,0-4.13A41.6,41.6,0,0,0,416.76,275.74Z"/><path class="cls-9" d="M381.42,279.34a.53.53,0,0,1,.39.5c.1.65.21,1.87.41,3a15.16,15.16,0,0,1,.27,4.81c-.26,1.18-3,2.86-4.91,3.1A16.4,16.4,0,0,0,371,294,15.31,15.31,0,0,1,362.6,297c-3.08,0-5.49-.69-6.19-2.92-.3-.93.47-2.07,4.44-3.89,0,0,2-1,3.15-1.7,5.76-3.47,7.73-5.47,9.45-9.08Z"/><path class="cls-7" d="M371.26,282.36a10.13,10.13,0,0,0,1.58-5.06l.13-4.91h8.48l0,6.95,0,1.06c-.48,3.37-3.65,3.77-6.31,5.63-1.32.93-6.49,4.9-10,5.54-2.82.52-3.88-.59-4.25-1.39A56.93,56.93,0,0,0,371.26,282.36Z"/><path class="cls-8" d="M408.83,228.24a32.89,32.89,0,0,1,8.62,12.18c2.61,6.66,5.83,29.4,5.83,29.4s-4,3.62-8.42,2.19c0,0-16.2-30.43-18.63-37.7-2.47-3.72-5.55-22-7.79-34.68l-.08.14-3.8,26.86a58.91,58.91,0,0,1,2.13,9.65c.64,6.59-4.92,38.51-4.92,38.51a12.27,12.27,0,0,1-9,.23s-1.88-40-2.47-47.92c-1-13.33-.45-52.54,2-60.43l34.93,2,0,0c2.9,8.37,3.13,13.72,2.75,22.9C409.58,201,408.83,228.24,408.83,228.24Z"/><path class="cls-10" d="M388.36,199.77l-2-12.4s-8.39-1.74-12.2-5.32a21.7,21.7,0,0,0,9.93,6.6l2.23,9.54-1.52,26.36Z"/><path class="cls-11" d="M396.42,122.24h0a14.86,14.86,0,0,1,5.87,1.25c2.68,1.49,2.91,4.17,2.94,7.35,0,3.49-.84,6.18-1.9,11.92l-2,11.06s3,6.68,5.87,14.81c-13.71,7.65-30.83,3.63-34.95-2-.17-1.18.89-10.44,1.54-16.49-2.41-6.05-3.05-9.89-2-13.89,1.89-7.44,9.23-14.68,12.48-14.41Z"/><path class="cls-6" d="M398.61,171.91a32.89,32.89,0,0,0,8.6-3.28c-2.92-8.13-5.87-14.81-5.87-14.81l2-11.06c1-5.39,1.84-8.1,1.9-11.3L400,132.93S377.39,145.1,377.3,145.2s-2.24,1.23-4.45,2.42c.28.81.59,1.66.95,2.56-.15,1.35-.31,2.85-.48,4.39a82.84,82.84,0,0,0,12.6-3.08c6.92-2.43,14.23-7.67,14.49-7.38s-.93,9-.93,9l-3.17-.59s4.94,6.14,6.33,8.81S405.41,169.53,398.61,171.91Z"/><path class="cls-10" d="M407.18,89.94l-1.13,4.35a2.18,2.18,0,0,0,2.76-1.53A2.35,2.35,0,0,0,407.18,89.94Z"/><path class="cls-10" d="M410.21,92l-3.75,2.46a2.17,2.17,0,0,0,3.07.72A2.36,2.36,0,0,0,410.21,92Z"/><path class="cls-7" d="M378.63,90.71c-1.85,1.09-4.14,5.75-3.92,15.52.19,8.28,2.88,10.33,4.23,10.92s3.94.23,6.47-.2v5s-3.49,4.06-3.27,6.34,5,2.82,8.31.59a21.35,21.35,0,0,0,5.36-5.61V110.36s1.64,1.85,4.44,0a4.76,4.76,0,0,0,.92-7.13,3.31,3.31,0,0,0-5.36,1.48s-4,.15-9.4-2.8A15.09,15.09,0,0,1,378.63,90.71Z"/><path class="cls-9" d="M384.88,104.15a1,1,0,1,0,1.1-1A1.06,1.06,0,0,0,384.88,104.15Z"/><path class="cls-12" d="M383.68,111.17l-2.42.77a1.25,1.25,0,0,0,1.57.87A1.34,1.34,0,0,0,383.68,111.17Z"/><path class="cls-9" d="M376.35,101l2.1-1.46a1.23,1.23,0,0,0-1.75-.36A1.34,1.34,0,0,0,376.35,101Z"/><path class="cls-9" d="M376.83,103.4a1,1,0,1,0,2.08.1,1.05,1.05,0,0,0-1-1.13A1.06,1.06,0,0,0,376.83,103.4Z"/><polygon class="cls-12" points="381.92 102.8 381.75 109.07 378.45 108.05 381.92 102.8"/><path class="cls-12" d="M385.41,117c2.66-.34,8.14-1.92,9-4.08a5.56,5.56,0,0,1-1.92,2.76c-1.63,1.4-7.07,3-7.07,3Z"/><path class="cls-7" d="M372.87,153.28c25.66-9.7,34-14.23,33.69-24.08-.13-3.46-1.86-5.07-4.27-5.71-3.32.14-5.81,4.39-10,9.47,0,0-15.13,7.75-20.68,10.62-6.55.22-20.39-1.91-25.61-3.25-.92-.24-1.49-1.63-2-2.42-1.43-2.13-2.9-2.49-4.67-4.06a11,11,0,0,1-1.36-1.5l-.38,4.28s-1.57,0-5-2.61c-3.85-2.89-6.12-3-6,3.17.09,3.84,2.56,6.83,11.13,9.44,2.46.76,6.41,1.65,9.6,2.39,4.78,1.12,6.39,1.36,11.05,2.47C363.39,152.67,370.61,154.13,372.87,153.28Z"/></g></g><g id="Character_2" data-name="Character 2"><path class="cls-13" d="M257.43,103.92a4.09,4.09,0,0,0-1.73-2.29c-2.24-1.42-3.13-2.87-4.81-4.66-1.31-1.4-2.43-1.76-2.26-2.2a2.19,2.19,0,0,1,2.81-1,14.79,14.79,0,0,1,3.17,1.76,20.24,20.24,0,0,0-3.21-5.65c-3.12-3.89-3.23-6.27,3.13-6.26,4,0,7.27,1.51,10.18,10.32a87.56,87.56,0,0,1,2,10.19c1.31,7.61,2.6,17.41,2.21,22.73-.2,2.7-1.14,4.3-2.44,7.23S251,163.43,247.3,168.34c-9.59-4.64-2.53-15.83-2.53-15.83s10.93-22.23,12.73-25a6.37,6.37,0,0,0,.84-2.28C258.61,123.79,258.06,109.47,257.43,103.92Z"/><path class="cls-8" d="M235.8,153.94a12,12,0,0,0,6.47-3.43c3.82-3.51,8.18-11.29,8.18-11.29,3.47-.83,10.69,1.88,11,8.38l-13.86,24.86Z"/><path class="cls-11" d="M261.58,55.78,282.85,51l-.05,0-9.09-5.26-8.43-4.88a1.28,1.28,0,0,0-.6-.17l-7.46-.42A1.22,1.22,0,0,1,256,39a40.16,40.16,0,0,0,0-7.19,3.57,3.57,0,0,1,.82-2.21l11.94-1c.51-.62,10.28-10,10.28-10l-.05,0L261.41,8.42a.74.74,0,0,0-.34-.07C256,5.43,247.16.3,247,.17a1.39,1.39,0,0,0-.87-.16l-8.7.86a2.43,2.43,0,0,0-1.9,1.33l-4.72,12.65a4.14,4.14,0,0,1-1.9,1.84c-.92.43-1.84.92-2.77,1.46L217,12.86c-.36-.24-.94-.08-1.41.42L206,23.36a2.58,2.58,0,0,0-.74,2.11l2.66,9a3,3,0,0,1-.49,2.17A73.82,73.82,0,0,0,203,44.28,3.48,3.48,0,0,1,201,45.82l-8.18,2a2.69,2.69,0,0,0-1.85,1.54l-4.12,13.85a.9.9,0,0,0,.31,1c.18.15,9.27,5.37,9.27,5.37,0,1.27,0,2.51.15,3.71a3.54,3.54,0,0,1-.81,2.21l-8.34,10.08a2.28,2.28,0,0,0-.5,2.08l4,8.75a.66.66,0,0,0,.25.29l17.57,10.17h0l0-.07.26.15h0l14.13,8.17,0,0c.24-.66,7.41-30.37,7.72-29.89l4.46,6.81a.67.67,0,0,0,.14.15L244,97.14l9.17,5.31v0l-6.62-20.7C252.38,83.76,265.73,58.58,261.58,55.78ZM210.1,69.6l32.31-34.1a17,17,0,0,1,1.33,7.1,20.77,20.77,0,0,1,2.2-1.12c.07.75.1,1.54.1,2.37,0,11.16-7.82,24.71-17.48,30.29q-1.06.61-2.07,1.08a20.87,20.87,0,0,1-.14-2.53C219.46,76.71,212.91,75.79,210.1,69.6Z"/><g class="cls-5"><path d="M261.58,55.78,282.85,51l-.05,0-9.09-5.26-8.43-4.88a1.28,1.28,0,0,0-.6-.17l-7.46-.42A1.22,1.22,0,0,1,256,39a40.16,40.16,0,0,0,0-7.19,3.57,3.57,0,0,1,.82-2.21l11.94-1c.51-.62,10.28-10,10.28-10l-.05,0L261.41,8.42a.74.74,0,0,0-.34-.07C256,5.43,247.16.3,247,.17a1.39,1.39,0,0,0-.87-.16l-8.7.86a2.43,2.43,0,0,0-1.9,1.33l-4.72,12.65a4.14,4.14,0,0,1-1.9,1.84c-.92.43-1.84.92-2.77,1.46L217,12.86c-.36-.24-.94-.08-1.41.42L206,23.36a2.58,2.58,0,0,0-.74,2.11l2.66,9a3,3,0,0,1-.49,2.17A73.82,73.82,0,0,0,203,44.28,3.48,3.48,0,0,1,201,45.82l-8.18,2a2.69,2.69,0,0,0-1.85,1.54l-4.12,13.85a.9.9,0,0,0,.31,1c.18.15,9.27,5.37,9.27,5.37,0,1.27,0,2.51.15,3.71a3.54,3.54,0,0,1-.81,2.21l-8.34,10.08a2.28,2.28,0,0,0-.5,2.08l4,8.75a.66.66,0,0,0,.25.29l17.57,10.17h0l0-.07.26.15h0l14.13,8.17,0,0c.24-.66,7.41-30.37,7.72-29.89l4.46,6.81a.67.67,0,0,0,.14.15L244,97.14l9.17,5.31v0l-6.62-20.7C252.38,83.76,265.73,58.58,261.58,55.78ZM210.1,69.6l32.31-34.1a17,17,0,0,1,1.33,7.1,20.77,20.77,0,0,1,2.2-1.12c.07.75.1,1.54.1,2.37,0,11.16-7.82,24.71-17.48,30.29q-1.06.61-2.07,1.08a20.87,20.87,0,0,1-.14-2.53C219.46,76.71,212.91,75.79,210.1,69.6Z"/></g><path class="cls-6" d="M266.72,51l-5.1-10.47-4.4-.25A1.22,1.22,0,0,1,256,39c.11-1.31.17-2.59.16-3.85l-12.28,1.65-.7.83a18.13,18.13,0,0,1,.6,4.94,20.77,20.77,0,0,1,2.2-1.12c.07.75.1,1.54.1,2.37,0,11.16-7.82,24.71-17.48,30.29q-1.06.61-2.07,1.08a20.87,20.87,0,0,1-.14-2.53A17.33,17.33,0,0,1,220.08,75l-.16.46,9,16.58.08,0a55.82,55.82,0,0,1,1.94-6.82l4.46,6.81a.67.67,0,0,0,.14.15L244,97.14l9.17,5.31v0l-6.62-20.7c5.85,2,19.2-23.15,15-25.95l4.11-.92Z"/><path class="cls-6" d="M219.92,91.08s-7,8.29-12.33,15.14l1.08.63h0l0-.07.26.15h0l14.13,8.17,0,0c.14-.39,2.7-10.92,4.84-19.37Z"/><path class="cls-6" d="M196.26,74.56a3.62,3.62,0,0,1-.53.92l-8.34,10.08a2.28,2.28,0,0,0-.5,2.08l4,8.75a.66.66,0,0,0,.25.29l5.12,3,9,3.14,11.68-16.3Z"/><path class="cls-14" d="M210.1,69.6l1.52-1.6c-7.26-1.74-17.26-4.09-17.26-4.09l-.92,4,2.95,1.7c0,1.27,0,2.51.15,3.71a2.77,2.77,0,0,1-.28,1.29l20.63,11.92s5.88-10.37,5.6-10.85c-.07-.12-.31-.5-.64-1C216.74,76,212.28,74.42,210.1,69.6Z"/><path class="cls-6" d="M222.14,56.9,202.06,45.3a3.45,3.45,0,0,1-1.1.52l-8.18,2a2.69,2.69,0,0,0-1.85,1.54l-3,10.1,19.19,8.09,11.36-6.76Z"/><path class="cls-6" d="M227.37,46.93l5.39-10.1-3.64-13.12-20.35-3.28L206,23.36a2.58,2.58,0,0,0-.74,2.11l2.66,9a2.35,2.35,0,0,1-.06,1.19Z"/><path class="cls-6" d="M229.83,16l22,12.72,6-22.24C253,3.68,247.12.28,247,.17a1.39,1.39,0,0,0-.87-.16l-8.7.86a2.43,2.43,0,0,0-1.9,1.33l-4.72,12.65A3.22,3.22,0,0,1,229.83,16Z"/><path class="cls-11" d="M208.69,106.86l-.85-8.14-21-12.11a1.62,1.62,0,0,0,0,1l4,8.76a.63.63,0,0,0,.25.28h0l0,0Z"/><path class="cls-11" d="M211.34,60.36,191.23,48.79a1.63,1.63,0,0,0-.3.54l-4.12,13.85a.89.89,0,0,0,.32,1l.14.09,9.07,5.25,0,0h0l8.42,4.88Z"/><path class="cls-11" d="M205.32,24.56l17.59,10.11L234.52,23,217,12.86h0c-.36-.24-.94-.08-1.41.42L206,23.37A2.89,2.89,0,0,0,205.32,24.56Z"/><path class="cls-11" d="M247,.18A1.38,1.38,0,0,0,246.1,0l-8.71.86a2.56,2.56,0,0,0-1.45.69l22.88,13.21,5.85-3.37-.17-1.07S247.24.36,247,.18Z"/><path class="cls-15" d="M208.69,106.86l-.85-8.14-21-12.11a1.62,1.62,0,0,0,0,1l4,8.76a.63.63,0,0,0,.25.28h0l0,0Z"/><path class="cls-15" d="M211.34,60.36,191.23,48.79a1.63,1.63,0,0,0-.3.54l-4.12,13.85a.89.89,0,0,0,.32,1l.14.09,9.07,5.25,0,0h0l8.42,4.88Z"/><path class="cls-16" d="M205.32,24.56l17.59,10.11L234.52,23,217,12.86h0c-.36-.24-.94-.08-1.41.42L206,23.37A2.89,2.89,0,0,0,205.32,24.56Z"/><path class="cls-16" d="M247,.18A1.38,1.38,0,0,0,246.1,0l-8.71.86a2.56,2.56,0,0,0-1.45.69l22.88,13.21,5.85-3.37-.17-1.07S247.24.36,247,.18Z"/><path class="cls-11" d="M282.85,51l-.05,0a1.38,1.38,0,0,0-.54-.14l-7.46-.42a1.21,1.21,0,0,1-1.26-1.21c.1-1.18.16-2.35.17-3.49a34.84,34.84,0,0,0-.16-3.71,3.61,3.61,0,0,1,.82-2.2l8.33-10.09a2.29,2.29,0,0,0,.51-2.08l-4-8.75a.6.6,0,0,0-.24-.28l-.05,0a1.21,1.21,0,0,0-1.28.39l-8.9,8.13a1.57,1.57,0,0,1-1.95.33,13.82,13.82,0,0,0-3.8-2.22,1.43,1.43,0,0,1-.9-1.55l2.75-12.46a.77.77,0,0,0-.38-.88,1.51,1.51,0,0,0-.83-.15l-8.7.87a2.4,2.4,0,0,0-1.9,1.33L248.35,25a4.07,4.07,0,0,1-1.9,1.83A39.07,39.07,0,0,0,241.06,30c-.73.49-1.55.53-1.87.05l-4.45-6.8c-.32-.49-1-.38-1.61.21l-9.56,10.1a2.54,2.54,0,0,0-.74,2.09l2.66,9a3,3,0,0,1-.48,2.17,74.84,74.84,0,0,0-4.4,7.63A3.46,3.46,0,0,1,218.54,56l-8.18,2a2.71,2.71,0,0,0-1.85,1.54l-4.12,13.86c-.2.64.27,1.2,1,1.24l7.47.43a1.21,1.21,0,0,1,1.26,1.21,39.39,39.39,0,0,0,0,7.2,3.49,3.49,0,0,1-.81,2.2L205,95.75a2.27,2.27,0,0,0-.51,2.07l4,8.75a.56.56,0,0,0,.24.28h0a.53.53,0,0,0,.31.08h0a1.51,1.51,0,0,0,1-.46l8.89-8.13a1.59,1.59,0,0,1,2-.33,13.83,13.83,0,0,0,3.8,2.21,1.43,1.43,0,0,1,.9,1.56l-2.75,12.47a.76.76,0,0,0,.36.85l0,0a1.31,1.31,0,0,0,.82.14l8.7-.86a2.42,2.42,0,0,0,1.9-1.32l4.73-12.66a4.14,4.14,0,0,1,1.9-1.84c.91-.43,1.84-.92,2.76-1.45s1.75-1.07,2.63-1.67c.72-.5,1.55-.53,1.86,0l4.46,6.81a.57.57,0,0,0,.21.2,1.18,1.18,0,0,0,1.39-.42l9.56-10.1a2.53,2.53,0,0,0,.74-2.09l-2.66-9a3,3,0,0,1,.49-2.17A71.91,71.91,0,0,0,267.06,71a3.4,3.4,0,0,1,2.08-1.54l8.17-2A2.62,2.62,0,0,0,279.16,66l4.13-13.85A.94.94,0,0,0,282.85,51ZM239.21,84.86l-.48.12-.35.08-.77.13c-.31,0-.61.06-.9.08l-.56,0h-.26a8.74,8.74,0,0,1-8.2-5.51,15,15,0,0,1-1.2-4.56,20.87,20.87,0,0,1-.14-2.53c.06-7.9,4.11-17.68,10.8-24.75a30,30,0,0,1,6.59-5.34,20.77,20.77,0,0,1,2.2-1.12,13.77,13.77,0,0,1,6.17-1.31h.07l.31,0a1.66,1.66,0,0,1,.32,0l.34,0A8.73,8.73,0,0,1,260,45.68c3.69,8.17-.54,22.43-9.46,31.84C246.79,81.46,242.82,83.93,239.21,84.86Z"/><line class="cls-9" x1="261.41" y1="8.42" x2="279" y2="18.61"/><rect class="cls-13" x="212.22" y="306.54" width="7.6" height="13" transform="translate(422.99 632.13) rotate(-178.36)"/><path class="cls-9" d="M219.74,315.9l0-1.09c.71.34,2.22,6.83,5.15,9.66,2.33,2.25,5.53,4.87,6.29,7.33s-4.66,3.8-6.89,3.34c-2.58-.54-7-2.5-8.12-4.23s-1.54-4.24-2.42-5.51-3-2.72-3.42-4.18a9.12,9.12,0,0,1,.55-4c.39-1.33.81-2.8,1.26-2.66,0,.17,0,.83,0,.83a6,6,0,0,0,3.76,1.39C217,316.89,219.72,316.74,219.74,315.9Z"/><polygon class="cls-13" points="233.32 310.3 240.9 310.78 241.68 297.04 233.72 296.55 233.32 310.3"/><path class="cls-9" d="M241.05,308.44c.39,0,.7.59,1.54,1.56a16.52,16.52,0,0,0,4.38,3.34c2.8,1.5,8.26,3.85,10.73,5.05,1.54.75,1.42,2.63-.23,3.66s-5.57,1.69-10.22.51c-2.53-.64-5.79-3.09-7.89-3s-6-.07-7.56-1.19S231,315,231.46,313c.54-2.12,1.23-5.45,1.94-5.28l0,.74c.87,1.41,5.56,2.1,7.6,1.14Z"/><path class="cls-11" d="M212,209.29c-.2,7.25-.13,49.46-.13,49.46-.24,2.08-2.35,5.73-2.72,13.24-.54,10.89,2.8,40.93,2.8,40.93a10,10,0,0,0,8.45.41s4.6-40.46,6.27-51.21c1.46-9.38,4.2-34.89,4.2-34.89l2.7,30.83a43.25,43.25,0,0,0-1.29,12c.21,5,.73,35.93.73,35.93a10.36,10.36,0,0,0,8.75.92s6.62-43.89,6.84-48.46c.24-5.22-.31-58.55-.31-58.55Z"/><path class="cls-17" d="M212,209.29c-.2,7.25-.13,49.46-.13,49.46-.24,2.08-2.35,5.73-2.72,13.24-.54,10.89,2.8,40.93,2.8,40.93a10,10,0,0,0,8.45.41s4.6-40.46,6.27-51.21c1.46-9.38,4.2-34.89,4.2-34.89l2.7,30.83a43.25,43.25,0,0,0-1.29,12c.21,5,.73,35.93.73,35.93a10.36,10.36,0,0,0,8.75.92s6.62-43.89,6.84-48.46c.24-5.22-.31-58.55-.31-58.55Z"/><path class="cls-18" d="M230.82,227.23a28.21,28.21,0,0,0,10.75-5.76s-2.15,3.76-8.32,7.14l0,26.86Z"/><path class="cls-10" d="M208.26,141.78c-.72-.47-4.38.89-6.81,3.67s-3,6.94-2.44,7.88,9.49-2,9.49-2Z"/><path class="cls-19" d="M216.9,158.13a6.94,6.94,0,0,0-3.66,3.81c-.6,1.51-2.4,4-2.4,6.87l1.28,14.57-.56,26.08a35.15,35.15,0,0,0,37.05-2.88s-1-33.63-1-39.55c0-.26,0-.54,0-.81A13.34,13.34,0,0,0,237.13,154c-2.06-.46-13.32,1.87-13.32,1.87l-6.91,2.28Z"/><path class="cls-13" d="M193,139.37c1.73,5.15,16.69,30.48,20.38,35.39,9.59-4.63,2.52-15.83,2.52-15.83s-12.18-23.31-13.51-26.29c-.83-1.85-.81-13.41-.72-18.91a16.25,16.25,0,0,1,.51-4.4c.44-1.64,1.08-2.72,1.18-4.46a13.29,13.29,0,0,0-1-4.19c-.76-2-1.59-4.55-1.11-6.74a4.3,4.3,0,0,0,.19-1,3,3,0,0,0-1-1.83,33.31,33.31,0,0,0-2.57-2.47,6.33,6.33,0,0,0-1.77-1.19,2.49,2.49,0,0,0-2.07,0,3.12,3.12,0,0,0-1.27,1.48,12.29,12.29,0,0,0-1.12,5.71,27.06,27.06,0,0,0,.4,3.8c.19,1.17-.09,9.09-.12,11.93-.07,7.72-.73,15.93-.34,21.26A28.32,28.32,0,0,0,193,139.37Z"/><path class="cls-8" d="M218.59,157.7l-10.33-15.92s0,9.72-9.25,11.55l12.39,21.84c1.27,2.75,5.39.73,7-5C220.54,162.21,218.59,157.7,218.59,157.7Z"/><circle class="cls-9" cx="236.4" cy="129.26" r="10.44"/><path class="cls-9" d="M218.36,136.68s1.69,7.95,2.36,9.25a3.59,3.59,0,0,0,2.08,1.68l-.11-5.59Z"/><path class="cls-9" d="M220.48,125.3a3.88,3.88,0,0,0-3.24,1.14c-1.4,1.42-.62,5.88,1.12,10.24l3.18.37Z"/><path class="cls-13" d="M222.5,137.05c-.64.38-1.55-.85-2.34-1.67s-3.36-1.95-4.64.75,1.13,6.4,3.15,7c3.49,1.1,4-1.14,4-1.14l.25,14.11h0c4.34,5.57,16.38,5.14,11.37-.67v-5a21.89,21.89,0,0,0,4.7.24c2.57-.39,4.18-2.42,5-5.19,1.25-4.47,1.72-8.07.66-16.84-1.16-9.62-12.35-9.72-18.39-5.92S222.5,137.05,222.5,137.05Z"/><path class="cls-9" d="M222.5,138.12c-.32,0-1.55-2-2.34-2.74-1.1-1,.32-10.08.32-10.08a4.31,4.31,0,0,1,1.06-4.6c1.51-1.66,3.15-2.71,7.51-2.94a85.05,85.05,0,0,1,8.91.42c4.3.29,5.89-.77,8.35-1.46,1.89-.53,2.11,6.29-2.66,8.55,0,0-1.56,1-5.64,1.5a60,60,0,0,1-11.33-.22c-1.18-.16-1.44,1-2.08,4.13C224,133.43,223.58,138.1,222.5,138.12Z"/><path class="cls-9" d="M220.48,126l-3.86-2.07a2.14,2.14,0,0,1,2.93-1A2.31,2.31,0,0,1,220.48,126Z"/><path class="cls-20" d="M234.3,150.44s-5.73-1.15-7.73-2.22a6.51,6.51,0,0,1-2.77-2.73,9,9,0,0,0,1.57,3.23c1.46,1.87,8.93,3.25,8.93,3.25Z"/><path class="cls-9" d="M234,135.62a1.15,1.15,0,1,1-1.15-1.2A1.17,1.17,0,0,1,234,135.62Z"/><path class="cls-9" d="M232.8,131.28l-2.46,1.36a1.48,1.48,0,0,1,.58-2A1.37,1.37,0,0,1,232.8,131.28Z"/><path class="cls-20" d="M233.78,143.55l2.62,1a1.38,1.38,0,0,1-1.78.87A1.46,1.46,0,0,1,233.78,143.55Z"/><path class="cls-9" d="M243.92,132.24l-2.24-1.73a1.37,1.37,0,0,1,1.95-.3A1.49,1.49,0,0,1,243.92,132.24Z"/><path class="cls-9" d="M243.23,135.29a1.17,1.17,0,0,1-1.15,1.19,1.2,1.2,0,1,1,1.15-1.19Z"/><polygon class="cls-20" points="237.38 134.2 237.76 141.1 241.36 139.88 237.38 134.2"/><path class="cls-13" d="M192,104.17c-.84-2.75-2.06-4.27-3.13-6.59-1.66-3.58-.24-6,.11-5.23.75,1.66,3.35,5.31,4.12,5.3s1,4,1,4Z"/></g><g id="Character_1" data-name="Character 1"><path class="cls-21" d="M71.8,191.59c.25-7.38,3.68-11.16,7.17-15.73C85.36,167.47,91.64,159,91.64,159s16.88-35.09,18.34-38.32c1.73-3.83,9.67.45,8.16,3,0,0-1.71,3.54-3,6.91-4.92,12.4-9.42,24.48-14.55,36.59l-20.31,25.7Z"/><path class="cls-8" d="M179.52,69.13h0a1.16,1.16,0,0,0-.82.08l-9.22,4.15a1.1,1.1,0,0,1-1.53-.71c-.36-1.16-6.67-2.5-7.19-3.5l3.55-8.79Z"/><path class="cls-9" d="M164.31,60.39v0a.86.86,0,0,0-.8,0l-6.8-15.74a1.39,1.39,0,0,0-.54-1.8L149.5,39a1.4,1.4,0,0,0-1.83.43L140,50.92a2.56,2.56,0,0,1-2,1,20.38,20.38,0,0,0-2.67.13V43.62l-5.11-2.94h0a.86.86,0,0,0-.84.07l-10.34,6a2.79,2.79,0,0,0-1.24,1.93l-1,11.51a3.83,3.83,0,0,1-1.07,2.15A61.72,61.72,0,0,0,110,68.41a2,2,0,0,1-2,.58l-6.65-2.32a1.61,1.61,0,0,0-1.86.69L91.8,80.54a1.62,1.62,0,0,0,.33,2l5.33,4.59a2,2,0,0,1,.52,2,62,62,0,0,0-2.39,8,3.83,3.83,0,0,1-1.33,2l-9.45,6.65a2.8,2.8,0,0,0-1.06,2v12a.83.83,0,0,0,.37.76h0l12,6.91-4.37,8.81a1.41,1.41,0,0,0,.54,1.81l16.29,9.43a1.39,1.39,0,0,0,1.84-.43l7.4-7.57a.86.86,0,0,0,.39.71L133.37,149l.4-11.88s-3.21-4.14-3.14-4.85l16.54-18a1.63,1.63,0,0,0,1.86-.69l7.61-13.18a1.63,1.63,0,0,0-.33-2l7.32-23.33a2.8,2.8,0,0,0,1.06-2Zm-40.09,50.26c-4.44,2.57-8.11,3.12-10.78,1.88-3.13-1.46,22.27-45,24.94-42.63,2.15,1.92,3.32,5.49,3.32,10.47C141.7,91.52,133.87,105.08,124.22,110.65Z"/><path class="cls-8" d="M166.84,50.48l-2.06,4.15-6.61,7.63-7.79-4.5-10.92-6.31a1.81,1.81,0,0,0,.56-.54l7.65-11.5a1.41,1.41,0,0,1,1.82-.44l6.68,3.86,10.13,5.85A1.39,1.39,0,0,1,166.84,50.48Z"/><path class="cls-8" d="M95,98.43a3.32,3.32,0,0,1-.7.74l-9.45,6.65a2.44,2.44,0,0,0-.65.76l15.9,9.19,12.55-7.14Z"/><path class="cls-8" d="M100.65,66.6a1.61,1.61,0,0,0-1.24.76L91.8,80.54a1.59,1.59,0,0,0-.17,1l16.66,9.64L118.7,77.1Z"/><path class="cls-8" d="M145.44,49.46v3.79l-9.21,5.32L118,48A2.73,2.73,0,0,1,119,46.73l10.35-6a1,1,0,0,1,.52-.16.69.69,0,0,1,.32.08l5,2.87.13.07,6.88,4Z"/><path class="cls-10" d="M179.9,81.86v-12a.77.77,0,0,0-1.18-.76l-9.21,4.15a1.09,1.09,0,0,1-1.53-.71A20.79,20.79,0,0,0,165.92,68a2.57,2.57,0,0,1-.14-2.23l6.14-12.38a1.38,1.38,0,0,0-.54-1.8l-6.66-3.85a1.41,1.41,0,0,0-1.84.43L155.23,59.7a2.54,2.54,0,0,1-2,1,20.76,20.76,0,0,0-5,.51,1.1,1.1,0,0,1-1.39-1l-1-10.06a.77.77,0,0,0-1.24-.64l-10.35,6A2.79,2.79,0,0,0,133,57.44L132,69a3.85,3.85,0,0,1-1.08,2.15,62.93,62.93,0,0,0-5.75,6.09,2,2,0,0,1-2,.58l-6.64-2.32a1.62,1.62,0,0,0-1.87.69L107,89.32a1.63,1.63,0,0,0,.34,2l5.33,4.59a2,2,0,0,1,.51,2,63.67,63.67,0,0,0-2.39,8,3.83,3.83,0,0,1-1.33,2L100,114.6a2.79,2.79,0,0,0-1,2v12a.77.77,0,0,0,1.17.76l9.21-4.16a1.1,1.1,0,0,1,1.54.71,20.12,20.12,0,0,0,2,4.57,2.54,2.54,0,0,1,.14,2.23l-6.14,12.38a1.4,1.4,0,0,0,.55,1.81l6.66,3.84a1.38,1.38,0,0,0,1.83-.43l7.65-11.5a2.54,2.54,0,0,1,2-1,20.78,20.78,0,0,0,5-.5,1.08,1.08,0,0,1,1.38,1l1,10a.77.77,0,0,0,1.25.64l10.35-6a2.8,2.8,0,0,0,1.23-1.93l1-11.52a3.83,3.83,0,0,1,1.07-2.15,61.61,61.61,0,0,0,5.75-6.08,2,2,0,0,1,2-.58l6.65,2.32a1.63,1.63,0,0,0,1.86-.69l7.61-13.18a1.61,1.61,0,0,0-.33-2l-5.33-4.59a2,2,0,0,1-.52-2,62.25,62.25,0,0,0,2.4-8,3.83,3.83,0,0,1,1.32-2l9.45-6.66A2.77,2.77,0,0,0,179.9,81.86Zm-40.47,37.57C129.78,125,122,120.49,122,109.34s7.83-24.71,17.48-30.28S156.91,78,156.91,89.15,149.09,113.86,139.43,119.43Z"/><g id="Girl"><path class="cls-21" d="M105.19,344.68l-.7-9.94-8.36-.59.38,8.5c-.19,2-1.52,2.8-1.75,3.94s6.85,11.89,10.45,14.05,8.7-1.6,9.11-2.85c.54-2-5.33-2-5.52-2.12a3.92,3.92,0,0,1-.39-.22A102.58,102.58,0,0,1,105.19,344.68Z"/><path class="cls-9" d="M96,344.37c1.18.79,2.23,3,4,5.94s4,7.1,7,7.82c2.75.65,6.27-1.42,4.21-1.89-.72-.17-2.25-.35-2.45-.46a1.2,1.2,0,0,1-.33-.32s1.53.26,3.92.43a3.88,3.88,0,0,1,3.51,2.24c.45.9-.16,3.44-6,4.43-4.23.72-7.18.68-9.07-2.16-2.3-3.45-6.1-7-7.68-8.88C91.16,349.21,93.46,345.29,96,344.37Z"/><path class="cls-21" d="M50,336.73,54.81,326l-7.24-3.76-4.08,8.44c-1.27,1.71-3.13,1.14-4,2.05s-.31,14.49,1.76,18.42c1.2,2.28,3.94,3,6.25,3.08,1.66,0,1-2.53-.18-4a1.63,1.63,0,0,1-.42-1C46.94,346.48,50,336.73,50,336.73Z"/><path class="cls-9" d="M41.83,331.4A48.29,48.29,0,0,1,44,339.6c.78,3.94,1.74,9.23,2.42,10.5s.55-.12.53-.89c0,.44.9,1.38,1.14,1.7a32.91,32.91,0,0,1,2.59,3.32c.41.72,1.12,2,.7,2.74s-1.49.86-2.19.92-3.8.66-8.53-2.24a8.63,8.63,0,0,1-1.8-1.82c-1.8-2.63-1.46-5-1.76-8-.4-4-1.71-5-2.39-7.71a9.56,9.56,0,0,1-.1-3.28C35.33,332.11,39.06,330.87,41.83,331.4Z"/><path class="cls-10" d="M37.08,345.85c.3,2.94,0,5.35,1.76,8a8.63,8.63,0,0,0,1.8,1.82c4.73,2.9,7.76,2.3,8.53,2.24a5.72,5.72,0,0,0,.9-.16c-5.52-.2-7.08-5.19-7.75-8.23s-2-11.69-3.5-13.8-4.23-.84-4.23-.84a9.56,9.56,0,0,0,.1,3.28C35.37,340.85,36.68,341.87,37.08,345.85Z"/><path class="cls-8" d="M98,233.21s-17,44-18.42,48.65a38,38,0,0,1-5.31,11.33C72.48,296,52,332.33,52,332.33c-5.59-1.69-6.91-5.3-6.91-5.3s6.53-29.27,8.82-33.78a30.56,30.56,0,0,1,8.22-9.44l5.6-35.49c.6-5.87-2.55-16.92,6.93-25.31l-.14,2.5Z"/><path class="cls-8" d="M89.73,230.2c-3.51,6.19-6.87,11.66-7.28,18.42-.85,14.28,7,29.41,8.72,39.84,0,0-2.69,7.12-2.38,12.66.25,4.33,7.2,38,7.2,38s5,2.39,9-.07c0,0,2.52-49,2.25-67.82s-2.79-45.28-2.79-45.28Z"/><path class="cls-8" d="M103.82,225.91,74.63,223c-1.71,3.55-6.17,12.26-4.57,17.65,1.94,6.53,6,10.84,17.28,13"/><path class="cls-10" d="M85,267.12l-4-16.29s-7.17-1.94-10.6-5.7a18,18,0,0,0,7.8,7.92c.54.55,5.51,17.61,5.51,17.61Z"/><polygon class="cls-21" points="97.74 180.95 96.54 191.53 86.11 192.73 87.62 178.7 97.74 180.95"/><path class="cls-21" d="M72.07,194.51c.18.91.63,2.9,1.47,5.92,1.53,5.53,4.16,13.07,5.15,15.7.06.11.09.21.13.3l-4.11,6.69s2.76,3.42,11,5.8,18.17-2.45,18.17-2.45l3.39-19.42c1.13-2.89,3.19-6.79,5.45-8.14,1.13-.68,16.16-11.47,20-13.79,3.08-1.87,4.29-3.21,4.81-4.67s5.87-23.58,6.73-26,1.66-3.14,3.57-5.18,2.57-2.5,3.16-4.32-.16-2.28-.45-3.18c-.41-1.26,0-2.14-.22-3.08-.35-1.19-1.08-1.5-1.26-2-.28-.83.06-1.29-.49-2.81a4,4,0,0,0-1.84-2.2l-.31,3.49c-1.05,4.28-5.52,5.82-6.12,5.51s-1.48-2.75-2.79-3.82-3.12-.93-2.45.36c.37.76,1.24,3.56,1.68,4.8s1.78,3.85,1.48,5.84c-.37,2.67-9.77,26.77-9.77,26.77a176.65,176.65,0,0,1-16.77,8.92,70.92,70.92,0,0,1-10.55,4.31c-.74-.12-3.75-.17-5.16-.42-.39-.08-.81-.15-1.24-.22l-16.09-3-.59-.11a6.07,6.07,0,0,0-1.59.06,5.46,5.46,0,0,0-3.4,2.9A10.88,10.88,0,0,0,72.07,194.51Z"/><path class="cls-11" d="M101.05,187.86c-.74-.12-3.75-.17-5.16-.42l-1.24-.22c-4.81-.85-10.4-1.86-14.75-2.71a14,14,0,0,0-7.79,13.72c.39,5.67,4.31,14.47,5.25,17h0A49.55,49.55,0,0,0,68.7,231s3,7.54,17.73,9c15,1.5,19.22-5.44,19.22-5.44l-.73-13.88c.65-3.51,2-9.51,2.31-13.66C99,203.72,101.05,187.86,101.05,187.86Z"/><path class="cls-6" d="M76.23,212.36s3.06,4.58,10.2,6.27c-3.82-.19-7.13-.85-9.07-3.43Z"/><path class="cls-21" d="M97,155.28c2.53,1.1,7.24.3,8.89,12.07,1.3,9.26-.37,12.43-1.55,13.73-.8.87-6,1.68-8.3,1.12-2.93-.7-9.35-3.35-12.59-7.94-3.81-5.4-5-12.85-1.25-16C87.48,153.7,94.84,154.34,97,155.28Z"/><path class="cls-22" d="M105.71,166.9s2.77,3.64,2.47,4.06a5.88,5.88,0,0,1-1.87,1Z"/><path class="cls-10" d="M103.23,151.44c-3.59-3.19-11-4.52-17.46-.39-1.19.31-2.42.7-3.67,1.16a10.61,10.61,0,0,0-3.44,2.14,2.16,2.16,0,0,0-.12-1.32,2.28,2.28,0,0,0-3-1.2l1.16,2.74a2.07,2.07,0,0,0-.7-.34,2.27,2.27,0,0,0-2.8,1.57l3.39.95a16.91,16.91,0,0,0-2.69,8.84c-.07.7-.1,1.4-.1,2.11h0v15.23a10.86,10.86,0,0,0,8.62,10.63l15.31,3.25-.34-21.39a6.6,6.6,0,0,1-2.33-.2,4.41,4.41,0,0,1-2.19-1.3c-2-2.2-1.34-6,.63-6.58a3,3,0,0,1,3.15.88l.65,1,.46,2.14.17.81a2.26,2.26,0,0,0,1.74-2.69,2.07,2.07,0,0,0-.2-.56l.26-.37C108,164.4,106.94,154.74,103.23,151.44Z"/></g></g></g></svg>