<svg xmlns="http://www.w3.org/2000/svg" viewBox="0 0 578.07 420.48"><defs><style>.cls-1{fill:#e1e0e0;}.cls-2{fill:#ececec;}.cls-3{fill:#192e35;}.cls-4{fill:#385a65;}.cls-5{fill:#fbfbfb;}.cls-6{fill:#7bb732;}.cls-7{fill:#fff;}.cls-8{fill:#026a9d;}.cls-9{opacity:0.2;}.cls-10{fill:#f8b9a0;}.cls-11{opacity:0.4;}.cls-12{fill:#f3976f;}</style></defs><title>search-fail</title><g id="Capa_2" data-name="Capa 2"><g id="Background_Complete" data-name="Background Complete"><path class="cls-1" d="M35.16,197.53c0-6.49,3.35-10.53,8.12-10.53s8.13,4,8.13,10.53-3.35,10.52-8.13,10.52S35.16,204,35.16,197.53Zm14.73,0c0-5.78-2.69-9.13-6.61-9.13s-6.61,3.35-6.61,9.13,2.7,9.13,6.61,9.13S49.89,203.31,49.89,197.53Z"/><path class="cls-1" d="M93.88,187.15v20.76H92.37V188.52H87.3v-1.37Z"/><path class="cls-2" d="M133.13,197.53c0-6.49,3.35-10.53,8.12-10.53s8.13,4,8.13,10.53-3.35,10.52-8.13,10.52S133.13,204,133.13,197.53Zm14.73,0c0-5.78-2.69-9.13-6.61-9.13s-6.61,3.35-6.61,9.13,2.7,9.13,6.61,9.13S147.86,203.31,147.86,197.53Z"/><path class="cls-1" d="M182.12,197.53c0-6.49,3.34-10.53,8.12-10.53s8.12,4,8.12,10.53-3.35,10.52-8.12,10.52S182.12,204,182.12,197.53Zm14.73,0c0-5.78-2.7-9.13-6.61-9.13s-6.61,3.35-6.61,9.13,2.7,9.13,6.61,9.13S196.85,203.31,196.85,197.53Z"/><path class="cls-1" d="M239.82,187.15v20.76H238.3V188.52h-5.07v-1.37Z"/><path class="cls-2" d="M280.08,197.53c0-6.49,3.35-10.53,8.13-10.53s8.12,4,8.12,10.53-3.35,10.52-8.12,10.52S280.08,204,280.08,197.53Zm14.74,0c0-5.78-2.7-9.13-6.61-9.13s-6.61,3.35-6.61,9.13,2.69,9.13,6.61,9.13S294.82,203.31,294.82,197.53Z"/><path class="cls-1" d="M329.07,197.53c0-6.49,3.35-10.53,8.12-10.53s8.13,4,8.13,10.53-3.35,10.52-8.13,10.52S329.07,204,329.07,197.53Zm14.73,0c0-5.78-2.69-9.13-6.61-9.13s-6.61,3.35-6.61,9.13,2.7,9.13,6.61,9.13S343.8,203.31,343.8,197.53Z"/><path class="cls-1" d="M35.16,101.87c0-6.49,3.35-10.52,8.12-10.52s8.13,4,8.13,10.52-3.35,10.53-8.13,10.53S35.16,108.36,35.16,101.87Zm14.73,0c0-5.78-2.69-9.13-6.61-9.13s-6.61,3.35-6.61,9.13,2.7,9.13,6.61,9.13S49.89,107.65,49.89,101.87Z"/><path class="cls-1" d="M93.88,91.49v20.76H92.37V92.86H87.3V91.49Z"/><path class="cls-2" d="M133.13,101.87c0-6.49,3.35-10.52,8.12-10.52s8.13,4,8.13,10.52S146,112.4,141.25,112.4,133.13,108.36,133.13,101.87Zm14.73,0c0-5.78-2.69-9.13-6.61-9.13s-6.61,3.35-6.61,9.13,2.7,9.13,6.61,9.13S147.86,107.65,147.86,101.87Z"/><path class="cls-1" d="M182.12,101.87c0-6.49,3.34-10.52,8.12-10.52s8.12,4,8.12,10.52S195,112.4,190.24,112.4,182.12,108.36,182.12,101.87Zm14.73,0c0-5.78-2.7-9.13-6.61-9.13s-6.61,3.35-6.61,9.13,2.7,9.13,6.61,9.13S196.85,107.65,196.85,101.87Z"/><path class="cls-1" d="M239.82,91.49v20.76H238.3V92.86h-5.07V91.49Z"/><path class="cls-2" d="M280.09,101.87c0-6.49,3.35-10.52,8.12-10.52s8.12,4,8.12,10.52S293,112.4,288.21,112.4,280.09,108.36,280.09,101.87Zm14.73,0c0-5.78-2.7-9.13-6.61-9.13s-6.61,3.35-6.61,9.13,2.7,9.13,6.61,9.13S294.82,107.65,294.82,101.87Z"/><path class="cls-1" d="M329.07,101.87c0-6.49,3.35-10.52,8.12-10.52s8.13,4,8.13,10.52S342,112.4,337.19,112.4,329.07,108.36,329.07,101.87Zm14.73,0c0-5.78-2.69-9.13-6.61-9.13s-6.61,3.35-6.61,9.13,2.7,9.13,6.61,9.13S343.8,107.65,343.8,101.87Z"/><path class="cls-1" d="M35.16,148.42c0-6.49,3.35-10.52,8.12-10.52s8.13,4,8.13,10.52S48.06,159,43.28,159,35.16,154.92,35.16,148.42Zm14.73,0c0-5.78-2.69-9.13-6.61-9.13s-6.61,3.35-6.61,9.13,2.7,9.14,6.61,9.14S49.89,154.2,49.89,148.42Z"/><path class="cls-2" d="M84.15,148.42c0-6.49,3.34-10.52,8.12-10.52s8.12,4,8.12,10.52S97,159,92.27,159,84.15,154.92,84.15,148.42Zm14.73,0c0-5.78-2.7-9.13-6.61-9.13s-6.61,3.35-6.61,9.13,2.69,9.14,6.61,9.14S98.88,154.2,98.88,148.42Z"/><path class="cls-1" d="M133.13,148.42c0-6.49,3.35-10.52,8.12-10.52s8.13,4,8.13,10.52S146,159,141.25,159,133.13,154.92,133.13,148.42Zm14.73,0c0-5.78-2.69-9.13-6.61-9.13s-6.61,3.35-6.61,9.13,2.7,9.14,6.61,9.14S147.86,154.2,147.86,148.42Z"/><path class="cls-1" d="M191.85,138.05V158.8h-1.51V139.41h-5.07v-1.36Z"/><path class="cls-2" d="M230.08,149.7c0-6.49,3.35-10.53,8.12-10.53s8.12,4,8.12,10.53-3.35,10.52-8.12,10.52S230.08,156.19,230.08,149.7Zm14.73,0c0-5.78-2.7-9.13-6.61-9.13s-6.61,3.35-6.61,9.13,2.7,9.13,6.61,9.13S244.81,155.48,244.81,149.7Z"/><path class="cls-1" d="M280.08,148.42c0-6.49,3.35-10.52,8.13-10.52s8.12,4,8.12,10.52S293,159,288.21,159,280.08,154.92,280.08,148.42Zm14.74,0c0-5.78-2.7-9.13-6.61-9.13s-6.61,3.35-6.61,9.13,2.69,9.14,6.61,9.14S294.82,154.2,294.82,148.42Z"/><path class="cls-1" d="M338.81,138.05V158.8H337.3V139.41h-5.07v-1.36Z"/><path class="cls-1" d="M35.16,10.52C35.16,4,38.51,0,43.28,0s8.13,4,8.13,10.52-3.35,10.53-8.13,10.53S35.16,17,35.16,10.52Zm14.73,0c0-5.78-2.69-9.13-6.61-9.13s-6.61,3.35-6.61,9.13,2.7,9.14,6.61,9.14S49.89,16.31,49.89,10.52Z"/><path class="cls-1" d="M93.88.15V20.9H92.37V1.51H87.3V.15Z"/><path class="cls-2" d="M133.13,10.52C133.13,4,136.48,0,141.25,0s8.13,4,8.13,10.52S146,21.05,141.25,21.05,133.13,17,133.13,10.52Zm14.73,0c0-5.78-2.69-9.13-6.61-9.13s-6.61,3.35-6.61,9.13,2.7,9.14,6.61,9.14S147.86,16.31,147.86,10.52Z"/><path class="cls-1" d="M182.12,10.52C182.12,4,185.46,0,190.24,0s8.12,4,8.12,10.52S195,21.05,190.24,21.05,182.12,17,182.12,10.52Zm14.73,0c0-5.78-2.7-9.13-6.61-9.13s-6.61,3.35-6.61,9.13,2.7,9.14,6.61,9.14S196.85,16.31,196.85,10.52Z"/><path class="cls-1" d="M239.82.15V20.9H238.3V1.51h-5.07V.15Z"/><path class="cls-2" d="M280.09,10.52C280.09,4,283.44,0,288.21,0s8.12,4,8.12,10.52S293,21.05,288.21,21.05,280.09,17,280.09,10.52Zm14.73,0c0-5.78-2.7-9.13-6.61-9.13s-6.61,3.35-6.61,9.13,2.7,9.14,6.61,9.14S294.82,16.31,294.82,10.52Z"/><path class="cls-1" d="M329.07,10.52C329.07,4,332.42,0,337.19,0s8.13,4,8.13,10.52S342,21.05,337.19,21.05,329.07,17,329.07,10.52Zm14.73,0c0-5.78-2.69-9.13-6.61-9.13s-6.61,3.35-6.61,9.13,2.7,9.14,6.61,9.14S343.8,16.31,343.8,10.52Z"/><path class="cls-1" d="M35.16,57.08c0-6.5,3.35-10.53,8.12-10.53s8.13,4,8.13,10.53S48.06,67.6,43.28,67.6,35.16,63.57,35.16,57.08Zm14.73,0c0-5.78-2.69-9.13-6.61-9.13s-6.61,3.35-6.61,9.13,2.7,9.13,6.61,9.13S49.89,62.86,49.89,57.08Z"/><path class="cls-2" d="M84.15,57.08c0-6.5,3.34-10.53,8.12-10.53s8.12,4,8.12,10.53S97,67.6,92.27,67.6,84.15,63.57,84.15,57.08Zm14.73,0c0-5.78-2.7-9.13-6.61-9.13s-6.61,3.35-6.61,9.13,2.69,9.13,6.61,9.13S98.88,62.86,98.88,57.08Z"/><path class="cls-1" d="M133.13,57.08c0-6.5,3.35-10.53,8.12-10.53s8.13,4,8.13,10.53S146,67.6,141.25,67.6,133.13,63.57,133.13,57.08Zm14.73,0c0-5.78-2.69-9.13-6.61-9.13s-6.61,3.35-6.61,9.13,2.7,9.13,6.61,9.13S147.86,62.86,147.86,57.08Z"/><path class="cls-1" d="M191.85,46.7V67.45h-1.51V48.06h-5.07V46.7Z"/><path class="cls-2" d="M230.08,58.35c0-6.49,3.35-10.52,8.12-10.52s8.12,4,8.12,10.52S243,68.88,238.2,68.88,230.08,64.85,230.08,58.35Zm14.73,0c0-5.78-2.7-9.13-6.61-9.13s-6.61,3.35-6.61,9.13,2.7,9.13,6.61,9.13S244.81,64.13,244.81,58.35Z"/><path class="cls-1" d="M280.08,57.08c0-6.5,3.35-10.53,8.13-10.53s8.12,4,8.12,10.53S293,67.6,288.21,67.6,280.08,63.57,280.08,57.08Zm14.74,0c0-5.78-2.7-9.13-6.61-9.13s-6.61,3.35-6.61,9.13,2.69,9.13,6.61,9.13S294.82,62.86,294.82,57.08Z"/><path class="cls-1" d="M338.81,46.7V67.45H337.3V48.06h-5.07V46.7Z"/><path class="cls-2" d="M378.43,197.53c0-6.49,3.35-10.53,8.12-10.53s8.13,4,8.13,10.53-3.35,10.52-8.13,10.52S378.43,204,378.43,197.53Zm14.73,0c0-5.78-2.69-9.13-6.61-9.13s-6.61,3.35-6.61,9.13,2.7,9.13,6.61,9.13S393.16,203.31,393.16,197.53Z"/><path class="cls-1" d="M427.42,197.53c0-6.49,3.35-10.53,8.12-10.53s8.12,4,8.12,10.53-3.35,10.52-8.12,10.52S427.42,204,427.42,197.53Zm14.73,0c0-5.78-2.7-9.13-6.61-9.13s-6.61,3.35-6.61,9.13,2.7,9.13,6.61,9.13S442.15,203.31,442.15,197.53Z"/><path class="cls-1" d="M485.12,187.15v20.76h-1.51V188.52h-5.07v-1.37Z"/><path class="cls-2" d="M525.39,197.53c0-6.49,3.35-10.53,8.12-10.53s8.12,4,8.12,10.53-3.35,10.52-8.12,10.52S525.39,204,525.39,197.53Zm14.73,0c0-5.78-2.7-9.13-6.61-9.13s-6.61,3.35-6.61,9.13,2.7,9.13,6.61,9.13S540.12,203.31,540.12,197.53Z"/><path class="cls-2" d="M378.43,101.87c0-6.49,3.35-10.52,8.12-10.52s8.13,4,8.13,10.52-3.35,10.53-8.13,10.53S378.43,108.36,378.43,101.87Zm14.74,0c0-5.78-2.7-9.13-6.62-9.13s-6.61,3.35-6.61,9.13,2.7,9.13,6.61,9.13S393.17,107.65,393.17,101.87Z"/><path class="cls-1" d="M427.42,101.87c0-6.49,3.35-10.52,8.12-10.52s8.12,4,8.12,10.52-3.35,10.53-8.12,10.53S427.42,108.36,427.42,101.87Zm14.73,0c0-5.78-2.7-9.13-6.61-9.13s-6.61,3.35-6.61,9.13,2.7,9.13,6.61,9.13S442.15,107.65,442.15,101.87Z"/><path class="cls-1" d="M485.12,91.49v20.76h-1.51V92.86h-5.07V91.49Z"/><path class="cls-2" d="M525.39,101.87c0-6.49,3.35-10.52,8.12-10.52s8.12,4,8.12,10.52-3.35,10.53-8.12,10.53S525.39,108.36,525.39,101.87Zm14.73,0c0-5.78-2.7-9.13-6.61-9.13s-6.61,3.35-6.61,9.13,2.7,9.13,6.61,9.13S540.12,107.65,540.12,101.87Z"/><path class="cls-1" d="M378.43,148.42c0-6.49,3.35-10.52,8.12-10.52s8.13,4,8.13,10.52S391.33,159,386.55,159,378.43,154.92,378.43,148.42Zm14.74,0c0-5.78-2.7-9.13-6.62-9.13s-6.61,3.35-6.61,9.13,2.7,9.14,6.61,9.14S393.17,154.2,393.17,148.42Z"/><path class="cls-1" d="M437.15,138.05V158.8h-1.51V139.41h-5.07v-1.36Z"/><path class="cls-2" d="M475.38,149.7c0-6.49,3.35-10.53,8.12-10.53s8.13,4,8.13,10.53-3.35,10.52-8.13,10.52S475.38,156.19,475.38,149.7Zm14.73,0c0-5.78-2.69-9.13-6.61-9.13s-6.61,3.35-6.61,9.13,2.7,9.13,6.61,9.13S490.11,155.48,490.11,149.7Z"/><path class="cls-1" d="M525.39,148.42c0-6.49,3.35-10.52,8.12-10.52s8.12,4,8.12,10.52S538.28,159,533.51,159,525.39,154.92,525.39,148.42Zm14.73,0c0-5.78-2.7-9.13-6.61-9.13s-6.61,3.35-6.61,9.13,2.7,9.14,6.61,9.14S540.12,154.2,540.12,148.42Z"/><path class="cls-2" d="M378.43,10.52C378.43,4,381.78,0,386.55,0s8.13,4,8.13,10.52-3.35,10.53-8.13,10.53S378.43,17,378.43,10.52Zm14.74,0c0-5.78-2.7-9.13-6.62-9.13s-6.61,3.35-6.61,9.13,2.7,9.14,6.61,9.14S393.17,16.31,393.17,10.52Z"/><path class="cls-1" d="M427.42,10.52C427.42,4,430.77,0,435.54,0s8.12,4,8.12,10.52-3.35,10.53-8.12,10.53S427.42,17,427.42,10.52Zm14.73,0c0-5.78-2.7-9.13-6.61-9.13s-6.61,3.35-6.61,9.13,2.7,9.14,6.61,9.14S442.15,16.31,442.15,10.52Z"/><path class="cls-1" d="M485.12.15V20.9h-1.51V1.51h-5.07V.15Z"/><path class="cls-2" d="M525.39,10.52C525.39,4,528.74,0,533.51,0s8.12,4,8.12,10.52-3.35,10.53-8.12,10.53S525.39,17,525.39,10.52Zm14.73,0c0-5.78-2.7-9.13-6.61-9.13s-6.61,3.35-6.61,9.13,2.7,9.14,6.61,9.14S540.12,16.31,540.12,10.52Z"/><path class="cls-1" d="M378.43,57.08c0-6.5,3.35-10.53,8.12-10.53s8.13,4,8.13,10.53-3.35,10.52-8.13,10.52S378.43,63.57,378.43,57.08Zm14.74,0c0-5.78-2.7-9.13-6.62-9.13s-6.61,3.35-6.61,9.13,2.7,9.13,6.61,9.13S393.17,62.86,393.17,57.08Z"/><path class="cls-1" d="M437.15,46.7V67.45h-1.51V48.06h-5.07V46.7Z"/><path class="cls-2" d="M475.38,58.35c0-6.49,3.35-10.52,8.12-10.52s8.13,4,8.13,10.52-3.35,10.53-8.13,10.53S475.38,64.85,475.38,58.35Zm14.73,0c0-5.78-2.69-9.13-6.61-9.13s-6.61,3.35-6.61,9.13,2.7,9.13,6.61,9.13S490.11,64.13,490.11,58.35Z"/><path class="cls-1" d="M525.39,57.08c0-6.5,3.35-10.53,8.12-10.53s8.12,4,8.12,10.53-3.35,10.52-8.12,10.52S525.39,63.57,525.39,57.08Zm14.73,0c0-5.78-2.7-9.13-6.61-9.13s-6.61,3.35-6.61,9.13,2.7,9.13,6.61,9.13S540.12,62.86,540.12,57.08Z"/></g><g id="Device"><rect class="cls-3" x="85.98" y="80.4" width="402.04" height="265.86" rx="14.57"/><path class="cls-3" d="M69.16,326.6H504.74a0,0,0,0,1,0,0v5.47a17.8,17.8,0,0,1-17.8,17.8H87a17.8,17.8,0,0,1-17.8-17.8V326.6a0,0,0,0,1,0,0Z"/><rect class="cls-1" x="96.77" y="90.96" width="379.33" height="224.52"/><polygon class="cls-4" points="247.36 326.6 252.77 335.19 328.82 335.19 333.84 326.6 247.36 326.6"/><rect class="cls-4" x="104.58" y="98.56" width="364.48" height="216.2" rx="3.27"/><rect class="cls-5" x="104.58" y="114.4" width="364.48" height="200.36"/><path class="cls-6" d="M134.47,106.91a2.91,2.91,0,1,1-2.91-2.91A2.91,2.91,0,0,1,134.47,106.91Z"/><path class="cls-6" d="M116.83,106.91a2.91,2.91,0,1,1-2.91-2.91A2.91,2.91,0,0,1,116.83,106.91Z"/><path class="cls-6" d="M125.3,106.91a2.91,2.91,0,1,1-2.91-2.91A2.91,2.91,0,0,1,125.3,106.91Z"/><path class="cls-3" d="M377.2,197.85l1.13-.08c.37,0,.83-.12,1.38-.21a14.6,14.6,0,0,0,1.83-.56,12.38,12.38,0,0,0,4.45-2.95,13.13,13.13,0,0,0,2-2.77,12.27,12.27,0,0,0,1.23-3.68,12.12,12.12,0,0,0-1.84-8.74,12.27,12.27,0,0,0-9-5.42c-1-.06-2-.06-3-.05h-9.63l-14.16,0-155.14.08a12.12,12.12,0,0,0-11.82,9.66,12.26,12.26,0,0,0,.15,5.39,12.08,12.08,0,0,0,11.84,9h46.57l69.75.06,47,.08,12.79.05,3.32,0,1.13,0-1.13,0-3.32,0L360,198l-47,.08-69.75.05-41.19,0h-5.38a12.59,12.59,0,0,1-12.34-9.43,12.46,12.46,0,0,1,2.19-10.77,12.58,12.58,0,0,1,10-4.93l155.14.07,14.16,0h9.63c1,0,2,0,3,.06a12.55,12.55,0,0,1,9.19,5.57,12.39,12.39,0,0,1,1.83,8.92,12.72,12.72,0,0,1-1.27,3.73,13.18,13.18,0,0,1-2,2.78,12.3,12.3,0,0,1-4.52,2.94,11.87,11.87,0,0,1-1.86.54c-.55.09-1,.17-1.38.19C377.59,197.85,377.2,197.85,377.2,197.85Z"/><path class="cls-6" d="M377.2,197.85H353.55V173.24H377.2a12.31,12.31,0,0,1,12.31,12.31h0A12.31,12.31,0,0,1,377.2,197.85Z"/><path class="cls-7" d="M373.07,183.23c-.05,0-.05-.42-.25-1.12a4.63,4.63,0,0,0-1.71-2.46,4.54,4.54,0,0,0-4.24-.6,4.46,4.46,0,1,0,4.24,7.76,4.63,4.63,0,0,0,1.71-2.46c.2-.7.2-1.12.25-1.12s0,.1,0,.3a3.47,3.47,0,0,1-.09.87,4.72,4.72,0,0,1-1.69,2.7,4.88,4.88,0,0,1-4.63.76,4.92,4.92,0,0,1,0-9.26,4.88,4.88,0,0,1,4.63.76,4.72,4.72,0,0,1,1.69,2.7,3.47,3.47,0,0,1,.09.87C373.1,183.13,373.09,183.23,373.07,183.23Z"/><path class="cls-7" d="M379.36,191.05a37.51,37.51,0,0,1-7.31-4.91,19.24,19.24,0,0,1,3.8,2.24A19,19,0,0,1,379.36,191.05Z"/><path class="cls-4" d="M199.42,192.47a47.44,47.44,0,0,1-.26-7,47.53,47.53,0,0,1,.26-7,47.53,47.53,0,0,1,.26,7A47.44,47.44,0,0,1,199.42,192.47Z"/><rect class="cls-1" x="169.49" y="240.32" width="59.09" height="57.17"/><polygon class="cls-8" points="174.07 292.6 190.41 263.18 203.78 281.98 211.91 272 223.99 292.6 174.07 292.6"/><path class="cls-8" d="M209.48,257.45a4.26,4.26,0,1,1-4.25-4.25A4.26,4.26,0,0,1,209.48,257.45Z"/><path class="cls-4" d="M224,292.75a2.07,2.07,0,0,1,0-.23c0-.17,0-.39,0-.67,0-.61,0-1.46,0-2.57,0-2.27,0-5.55-.06-9.71,0-8.35-.08-20.24-.13-34.52l.24.24-49.92,0,.28-.27h0V257.9q0,6.3,0,12.31c0,8,0,15.58,0,22.54l-.24-.24,36.1.12,10.18.07,2.7,0H224s-.06,0-.21,0h-.68l-2.65,0-10.13.06-36.25.13h-.25v-.25c0-7,0-14.53,0-22.54V245.07h0c-.26.25.34-.35.28-.29l49.92,0h.25v.24c-.06,14.34-.1,26.29-.13,34.68,0,4.14-.05,7.4-.06,9.65,0,1.09,0,1.93,0,2.53,0,.26,0,.47,0,.64S224,292.76,224,292.75Z"/><rect class="cls-6" x="263.54" y="240.32" width="59.09" height="57.17"/><polygon class="cls-1" points="268.12 292.6 284.47 263.18 297.84 281.98 305.96 272 318.05 292.6 268.12 292.6"/><path class="cls-1" d="M303.53,257.45a4.25,4.25,0,1,1-4.25-4.25A4.25,4.25,0,0,1,303.53,257.45Z"/><path class="cls-4" d="M318.05,292.75a2.07,2.07,0,0,1,0-.23c0-.17,0-.39,0-.67,0-.61,0-1.46,0-2.57,0-2.27,0-5.55-.06-9.71,0-8.35-.07-20.24-.12-34.52l.24.24-49.92,0c-.07.06.53-.52.27-.27h0V257.9q0,6.3,0,12.31c0,8,0,15.58,0,22.54l-.25-.24,36.1.12,10.18.07,2.7,0h.95l-.22,0h-.67l-2.66,0-10.12.06-36.26.13h-.24v-.25c0-7,0-14.53,0-22.54q0-6,0-12.31V245.07h0l.29-.29,49.92,0h.24v.24c-.05,14.34-.09,26.29-.12,34.68,0,4.14-.05,7.4-.06,9.65,0,1.09,0,1.93,0,2.53,0,.26,0,.47,0,.64A1.23,1.23,0,0,1,318.05,292.75Z"/><rect class="cls-1" x="357.6" y="240.32" width="59.09" height="57.17"/><polygon class="cls-8" points="362.18 292.6 378.52 263.18 391.89 281.98 400.02 272 412.11 292.6 362.18 292.6"/><path class="cls-8" d="M397.59,257.45a4.25,4.25,0,1,1-4.25-4.25A4.25,4.25,0,0,1,397.59,257.45Z"/><path class="cls-4" d="M412.11,292.75a1,1,0,0,1,0-.23c0-.17,0-.39,0-.67,0-.61,0-1.46,0-2.57,0-2.27,0-5.55-.06-9.71,0-8.35-.07-20.24-.13-34.52l.25.24-49.93,0,.28-.27h0V257.9q0,6.3,0,12.31c0,8,0,15.58,0,22.54l-.24-.24,36.1.12,10.18.07,2.7,0h.95l-.22,0h-.68l-2.65,0-10.13.06-36.25.13h-.25v-.25c0-7,0-14.53,0-22.54q0-6,0-12.31V245.07h0l.28-.29,49.93,0h.24v.24c-.05,14.34-.1,26.29-.13,34.68,0,4.14,0,7.4-.06,9.65,0,1.09,0,1.93,0,2.53,0,.26,0,.47,0,.64S412.11,292.76,412.11,292.75Z"/><rect class="cls-4" x="249.4" y="144.3" width="74.84" height="6.27"/><path class="cls-4" d="M484.56,326.6c0,.14-89.24.26-199.28.26S86,326.74,86,326.6s89.21-.26,199.3-.26S484.56,326.45,484.56,326.6Z"/></g><g id="Plants"><path class="cls-6" d="M29.06,217.12c-5.66.91-8.19,7.87-7.7,13.59s2.85,11.3,2.22,17c-.8,7.25-6.27,13.37-6.91,20.63-.75,8.56,5.3,16.15,7.11,24.55.88,4.08.75,8.41,2.28,12.3a15.86,15.86,0,0,0,17,9.54,15.89,15.89,0,0,0,12.67-14.85c.12-6.57-3.93-12.76-3.44-19.31.37-4.85,3.21-9.44,2.6-14.26-.73-5.74-6-9.81-7.92-15.28s-.07-11.49-.72-17.24c-1.16-10.31-6.88-17.5-17.22-16.67"/><path class="cls-6" d="M.14,267c-1,9.55,3.26,20.79,8.17,29a45.52,45.52,0,0,0,21.38,18.56c1,.42,2.25.77,3.09.09a3.08,3.08,0,0,0,.78-2.45,47.28,47.28,0,0,0-9.18-28.18A47.17,47.17,0,0,0,.14,267"/><path class="cls-9" d="M.14,267c-1,9.55,3.26,20.79,8.17,29a45.52,45.52,0,0,0,21.38,18.56c1,.42,2.25.77,3.09.09a3.08,3.08,0,0,0,.78-2.45,47.28,47.28,0,0,0-9.18-28.18A47.17,47.17,0,0,0,.14,267"/><path class="cls-3" d="M41.75,334.61a2.63,2.63,0,0,1-.27-.54l-.69-1.56c-.57-1.36-1.43-3.33-2.52-5.74a204.77,204.77,0,0,0-9.48-18.36,203,203,0,0,0-11.35-17.27c-1.56-2.14-2.85-3.85-3.76-5l-1-1.36a3.09,3.09,0,0,1-.33-.5,2.46,2.46,0,0,1,.42.43l1.11,1.3c1,1.13,2.29,2.81,3.9,4.92a172.88,172.88,0,0,1,11.5,17.23,172.76,172.76,0,0,1,9.37,18.48c1.05,2.43,1.86,4.42,2.37,5.81.24.65.43,1.18.59,1.6A2.21,2.21,0,0,1,41.75,334.61Z"/><path class="cls-3" d="M35.6,243.55a5.94,5.94,0,0,1,.1.91c0,.65.11,1.53.19,2.63.15,2.34.37,5.63.63,9.68.51,8.18,1.24,19.47,2.11,31.93s1.75,23.75,2.38,31.91c.31,4.05.56,7.34.74,9.67.07,1.11.13,2,.18,2.63a6,6,0,0,1,0,.93,9,9,0,0,1-.13-.92c-.07-.64-.16-1.52-.28-2.62l-.91-9.65c-.74-8.16-1.66-19.44-2.54-31.91s-1.54-23.76-2-31.95c-.19-4.05-.34-7.35-.45-9.68,0-1.11-.06-2-.09-2.64A5.89,5.89,0,0,1,35.6,243.55Z"/><path class="cls-4" d="M26.81,321H50.73v17.56A11.48,11.48,0,0,1,39.25,350h0a11.49,11.49,0,0,1-11.47-10.87Z"/><path class="cls-6" d="M557.33,320.71A18.76,18.76,0,0,1,569,319.29c2.11.35,4.31,1,5.74,2.57s1.71,4.37.06,5.73a5.47,5.47,0,0,1-3.62.91c-3.07,0-6.48-.57-8.93,1.28-1.4,1.05-2.33,2.8-4,3.32a4,4,0,0,1-4.35-1.94,6.72,6.72,0,0,1-.49-5A7.58,7.58,0,0,1,557.33,320.71Z"/><path class="cls-6" d="M549.24,305.08c2.16,3.08,6.36,2.06,8.31.18s2.77-4.62,3.51-7.22c1.72-6,3.44-12.19,2.17-18.25a10.19,10.19,0,0,0-2.33-5,5.31,5.31,0,0,0-5-1.67c-2.12.56-3.43,2.64-4.38,4.61a43.42,43.42,0,0,0-4.3,18.67c0,3,.34,6.16,2,8.64"/><path class="cls-6" d="M543.3,309.51a11.25,11.25,0,0,0,1.75-10.34,19.9,19.9,0,0,0-6.12-8.88,32.84,32.84,0,0,0-11-6.46A11.64,11.64,0,0,0,523,283a5.18,5.18,0,0,0-4.14,2.5c-1.15,2.2,0,4.87,1.15,7.05a84.48,84.48,0,0,0,7.2,11c2.16,2.78,4.63,5.53,7.92,6.78s6.7,1.11,8.45-1.17"/><path class="cls-3" d="M549.09,351.63a6.65,6.65,0,0,0,.2-1.4c.1-1,.22-2.3.37-3.83a55.08,55.08,0,0,1,.86-5.61,43.56,43.56,0,0,1,2-6.63,24.56,24.56,0,0,1,3.38-6,12.77,12.77,0,0,1,4.28-3.56,12.28,12.28,0,0,1,3.6-1.12,6.65,6.65,0,0,0,1.4-.2,6.22,6.22,0,0,0-1.42,0,11,11,0,0,0-3.76,1,12.82,12.82,0,0,0-4.51,3.59A24,24,0,0,0,552,334a40,40,0,0,0-2,6.73,46.87,46.87,0,0,0-.75,5.69c-.12,1.62-.17,2.94-.19,3.85A6.43,6.43,0,0,0,549.09,351.63Z"/><path class="cls-3" d="M549.35,348.69a2.39,2.39,0,0,0,0-.65v-1.86c0-1.62,0-4,.08-6.84.14-5.77.64-13.74,1.6-22.5s2.25-16.64,3.42-22.29c.27-1.42.55-2.69.81-3.81s.46-2.08.67-2.86.32-1.34.44-1.81a2.84,2.84,0,0,0,.11-.64,2.37,2.37,0,0,0-.23.61l-.54,1.78c-.24.77-.48,1.73-.76,2.85s-.6,2.38-.9,3.8a209.13,209.13,0,0,0-3.6,22.31c-1,8.77-1.39,16.76-1.43,22.55,0,2.89,0,5.24.1,6.85.05.76.09,1.37.12,1.86A3,3,0,0,0,549.35,348.69Z"/><path class="cls-3" d="M549.39,333.28a11.68,11.68,0,0,0,0-1.95,51.11,51.11,0,0,0-.6-5.26,72.52,72.52,0,0,0-4.92-16.76,48.32,48.32,0,0,0-9.42-14.67,23.68,23.68,0,0,0-2.22-2.06c-.34-.29-.64-.57-.94-.8l-.86-.59a13.23,13.23,0,0,0-1.64-1.05,58.3,58.3,0,0,1,5.36,4.79,50.72,50.72,0,0,1,9.19,14.61,72.6,72.6,0,0,1,3.23,9,77.47,77.47,0,0,1,1.82,7.6c.4,2.19.64,4,.78,5.21A12.6,12.6,0,0,0,549.39,333.28Z"/></g><g id="Pictures"><polygon class="cls-8" points="576.52 135.7 520.03 136.86 521.55 210.52 578.07 210.78 576.52 135.7"/><polygon class="cls-5" points="572.86 138.4 523.43 139.41 524.81 206.22 574.27 206.87 572.86 138.4"/><polygon class="cls-3" points="564.45 150.72 531.63 150.14 532.59 196.84 565.39 196.16 564.45 150.72"/><polygon class="cls-4" points="532.59 196.84 564.9 172.17 531.63 150.14 532.59 196.84"/><polygon class="cls-4" points="557.29 74.64 518.5 75.44 519.55 126.02 558.35 126.2 557.29 74.64"/><polygon class="cls-5" points="554.78 76.5 520.84 77.19 521.78 123.07 555.75 123.52 554.78 76.5"/><polygon class="cls-6" points="549 84.95 526.46 84.56 527.12 116.62 549.65 116.16 549 84.95"/><path class="cls-3" d="M541.58,100.17s.14-.37.26-1a4.25,4.25,0,0,0-.38-2.72,4.08,4.08,0,1,0-6.67,4.55,4.17,4.17,0,0,0,3.7,1.28,4.29,4.29,0,0,0,2.42-1.29c.46-.48.63-.83.67-.8a2.1,2.1,0,0,1-.52.94,4.29,4.29,0,0,1-2.51,1.51,4.48,4.48,0,0,1-4.11-1.31,4.52,4.52,0,0,1,3.88-7.59,4.45,4.45,0,0,1,3.47,2.55,4.29,4.29,0,0,1,.25,2.92A2.19,2.19,0,0,1,541.58,100.17Z"/><path class="cls-3" d="M543.47,109.18a15.44,15.44,0,0,1-2.19-3.4,15.52,15.52,0,0,1-1.74-3.66,15.87,15.87,0,0,1,2.19,3.4A16.55,16.55,0,0,1,543.47,109.18Z"/></g><g id="Floor"><path class="cls-3" d="M577.57,349.86c0,.14-126.52.26-282.56.26S12.42,350,12.42,349.86s126.5-.26,282.59-.26S577.57,349.72,577.57,349.86Z"/></g><g id="Character"><path class="cls-10" d="M413.3,225.4s.89-9.49,1.8-9.42,1,1.76.93,2.58,0,4,0,4Z"/><path class="cls-3" d="M494.73,217.63l-4.55,32,21,91.73-58,4.65,25-147.74S494.68,196.4,494.73,217.63Z"/><polygon class="cls-10" points="423.42 379.12 420.07 416.98 434.38 416.98 440.69 379.12 423.42 379.12"/><path class="cls-10" d="M420.07,417s-9.66,1.24-11.38,2.49l25.31-.3.38-2.19Z"/><polygon class="cls-8" points="408.69 419.47 408.69 420.48 434.75 420.2 434.75 419.12 408.69 419.47"/><path class="cls-8" d="M417.91,420.06c-.14.05-.55-.72-1.39-1.33s-1.69-.8-1.67-.94,1-.18,2,.54S418,420,417.91,420.06Z"/><path class="cls-8" d="M434.71,416.22c0,.15-1.74.5-3.72,1.43s-3.38,2.05-3.48,1.94a10.54,10.54,0,0,1,7.2-3.37Z"/><path class="cls-8" d="M434.12,415.61a50.92,50.92,0,0,1-7-.11,49,49,0,0,1-7-.6,50.05,50.05,0,0,1,7.05.1A49.38,49.38,0,0,1,434.12,415.61Z"/><path class="cls-8" d="M435.8,410.63a123.7,123.7,0,0,1-15.59,2.84,64.61,64.61,0,0,1,7.75-1.66A61.8,61.8,0,0,1,435.8,410.63Z"/><path class="cls-8" d="M435.55,410.81a4.48,4.48,0,0,1-1.89-.41,9.48,9.48,0,0,1-1.88-1,8.43,8.43,0,0,1-1-.78,1.58,1.58,0,0,1-.44-.61,1,1,0,0,1,.08-.87.87.87,0,0,1,.82-.35,2.06,2.06,0,0,1,.69.2,5.88,5.88,0,0,1,1.11.61,5.48,5.48,0,0,1,1.48,1.55,3.22,3.22,0,0,1,.67,1.82,17.46,17.46,0,0,0-1-1.62,5.83,5.83,0,0,0-1.45-1.37,6.26,6.26,0,0,0-1-.54c-.37-.16-.8-.23-.91,0s0,.59.28.85a9.15,9.15,0,0,0,.92.75,10.41,10.41,0,0,0,1.75,1C434.85,410.56,435.56,410.73,435.55,410.81Z"/><path class="cls-8" d="M435.42,411.15a3.15,3.15,0,0,1-.36-1.87,6,6,0,0,1,.44-2,6.56,6.56,0,0,1,.6-1.09,6.38,6.38,0,0,1,.42-.52,1,1,0,0,1,.75-.38.89.89,0,0,1,.73.5,1.53,1.53,0,0,1,.13.74,5.32,5.32,0,0,1-1.16,3.1,3.11,3.11,0,0,1-1.5,1.17c-.05-.07.57-.46,1.21-1.38a5.54,5.54,0,0,0,.81-1.78,5,5,0,0,0,.15-1.12c0-.38-.15-.72-.38-.73s-.53.38-.76.69a5.5,5.5,0,0,0-.57,1,6.08,6.08,0,0,0-.52,1.88C435.3,410.43,435.5,411.13,435.42,411.15Z"/><path class="cls-8" d="M437.34,417.06a7.73,7.73,0,0,1-1.43-2.94,7.53,7.53,0,0,1-.56-3.22,18.17,18.17,0,0,1,1,3.07A18.37,18.37,0,0,1,437.34,417.06Z"/><path class="cls-8" d="M439.05,415.71a6.66,6.66,0,0,1-2.53-2.23,6.82,6.82,0,0,1-1.56-3c.14-.06.83,1.26,2,2.69S439.15,415.6,439.05,415.71Z"/><polygon class="cls-10" points="476.83 382.22 506.15 405.46 513.13 395.26 486.91 366.73 476.83 382.22"/><path class="cls-10" d="M504.08,406s-4.51,8.63-4.47,10.76l14.24-20.92-1.57-1.57Z"/><polygon class="cls-8" points="499.61 416.79 500.44 417.37 515.13 395.84 514.24 395.22 499.61 416.79"/><path class="cls-8" d="M505.37,409.56c0,.15-.91,0-1.89.38s-1.62.93-1.73.83.44-.93,1.57-1.3A2.19,2.19,0,0,1,505.37,409.56Z"/><path class="cls-8" d="M511.84,393.6c.14.06-.59,1.7-.95,3.86s-.26,4-.41,4a10.6,10.6,0,0,1,1.36-7.82Z"/><path class="cls-8" d="M511,393a79.47,79.47,0,0,1-7.83,10.09A82,82,0,0,1,511,393Z"/><path class="cls-8" d="M507.89,389.5A50.74,50.74,0,0,1,505.2,396a48.09,48.09,0,0,1-3.14,6.26,50.51,50.51,0,0,1,2.69-6.47A46.87,46.87,0,0,1,507.89,389.5Z"/><path class="cls-8" d="M507.88,389.81c.05,0-.42.63-1.41,1.31a9.35,9.35,0,0,1-1.88,1,8.93,8.93,0,0,1-1.2.37,1.62,1.62,0,0,1-.76,0,1,1,0,0,1-.66-.56.83.83,0,0,1,.18-.87,2.28,2.28,0,0,1,.55-.46,5.3,5.3,0,0,1,1.15-.56,5.59,5.59,0,0,1,2.11-.33,3.21,3.21,0,0,1,1.87.49c0,.09-.72-.18-1.87-.14a5.85,5.85,0,0,0-3,.95c-.35.21-.65.52-.54.73s.49.35.86.26a9.48,9.48,0,0,0,1.14-.32,11.12,11.12,0,0,0,1.85-.85C507.28,390.24,507.83,389.75,507.88,389.81Z"/><path class="cls-8" d="M508.09,390.11a3.2,3.2,0,0,1-1.73-.78,5.75,5.75,0,0,1-1.43-1.53,5.55,5.55,0,0,1-.55-1.12,4.32,4.32,0,0,1-.19-.64,1.06,1.06,0,0,1,.12-.83.87.87,0,0,1,.82-.31,1.53,1.53,0,0,1,.68.31,5.31,5.31,0,0,1,1.88,2.73,3.15,3.15,0,0,1,.1,1.9c-.08,0-.05-.73-.44-1.79a5.5,5.5,0,0,0-1.82-2.45c-.29-.24-.68-.28-.82-.09s0,.65.13,1a5.81,5.81,0,0,0,.48,1,6,6,0,0,0,1.26,1.49C507.43,389.79,508.12,390,508.09,390.11Z"/><path class="cls-8" d="M514,391.91a11.49,11.49,0,0,1-6.19-1.89,18.76,18.76,0,0,1,3.11.91A19.85,19.85,0,0,1,514,391.91Z"/><path class="cls-8" d="M513.91,389.74a6.61,6.61,0,0,1-3.28.79,6.68,6.68,0,0,1-3.35-.43c0-.14,1.51,0,3.33-.07S513.87,389.6,513.91,389.74Z"/><path class="cls-8" d="M448.57,268s-11.2,74.38-9.57,78,37.89,40.72,37.89,40.72l13.61-23.31s-24-26.58-23.65-28S484.15,262,484.15,262Z"/><path class="cls-8" d="M451.15,360.06l9.56-21,11.05-23.59a174.55,174.55,0,0,0-17,30.84A53.35,53.35,0,0,0,451.15,360.06Z"/><path class="cls-11" d="M451.15,360.06l9.56-21,11.05-23.59a174.55,174.55,0,0,0-17,30.84A53.35,53.35,0,0,0,451.15,360.06Z"/><path class="cls-8" d="M444.59,295.46c.11-.79,9.14-21.11,9.14-21.11l-4.39-6.18-.77-.17Z"/><path class="cls-11" d="M444.59,295.46c.11-.79,9.14-21.11,9.14-21.11l-4.39-6.18-.77-.17Z"/><path class="cls-8" d="M490.51,261l.67,2.76a32.47,32.47,0,0,1-3.41,24l-30.36,52.62a42.17,42.17,0,0,0-4.65,12l-7.56,34s-23.87.81-24.9,0S423.38,363,426.12,346c2.07-12.86,19.27-52.78,27.61-71.63L448.57,268l9-1.5Z"/><path class="cls-3" d="M445.2,386.34a3.57,3.57,0,0,1-1,.16c-.63.08-1.55.15-2.69.23-2.27.15-5.42.25-8.89.25s-6.62-.12-8.89-.23c-1.14-.05-2.06-.11-2.69-.16a4,4,0,0,1-1-.13,3.39,3.39,0,0,1,1-.07h2.69l8.88.08c3.47,0,6.6-.05,8.88-.11l2.69-.06A4.3,4.3,0,0,1,445.2,386.34Z"/><path class="cls-3" d="M446.51,380c0,.14-5.74.23-12.81.2s-12.82-.16-12.82-.3,5.74-.23,12.82-.2S446.51,379.82,446.51,380Z"/><path class="cls-3" d="M486.33,358.6a4.15,4.15,0,0,1-.51.94c-.42.67-.94,1.49-1.54,2.46-1.39,2.17-3.18,5-5.15,8.08L474,378.19l-1.57,2.45a5,5,0,0,1-.63.86,4,4,0,0,1,.46-1c.33-.61.82-1.47,1.43-2.53,1.24-2.13,3-5,5-8.19s3.89-6,5.28-8c.7-1,1.27-1.82,1.68-2.37A3.84,3.84,0,0,1,486.33,358.6Z"/><path class="cls-3" d="M475.46,384.71a11.08,11.08,0,0,1-1.16-3.12,11.35,11.35,0,0,1-.68-3.27,11.73,11.73,0,0,1,1.16,3.13A11.26,11.26,0,0,1,475.46,384.71Z"/><path class="cls-3" d="M477.58,384.65a29,29,0,0,1-1.13-5.24,28.37,28.37,0,0,1-.62-5.32,30.32,30.32,0,0,1,1.12,5.24A29.85,29.85,0,0,1,477.58,384.65Z"/><path class="cls-3" d="M480.36,380.69a28.34,28.34,0,0,1-1.26-4.56,28,28,0,0,1-1-4.63,30.84,30.84,0,0,1,2.25,9.19Z"/><path class="cls-3" d="M482.71,375.23a21.35,21.35,0,0,1-1.13-4.42,20.58,20.58,0,0,1-.64-4.51,21.58,21.58,0,0,1,1.13,4.42A21.18,21.18,0,0,1,482.71,375.23Z"/><path class="cls-3" d="M485.76,370.7a35.16,35.16,0,0,1-1.07-4.36,33.39,33.39,0,0,1-1-4.39,14.85,14.85,0,0,1,1.45,4.27A14.44,14.44,0,0,1,485.76,370.7Z"/><path class="cls-3" d="M488.48,366.86a13.64,13.64,0,0,1-1.14-3.56,14.18,14.18,0,0,1-.66-3.67,13.65,13.65,0,0,1,1.14,3.55A14.29,14.29,0,0,1,488.48,366.86Z"/><path class="cls-3" d="M432.78,379.71c.06.13-2.65,1.5-5.94,3.25s-6,3.2-6,3.08a7.23,7.23,0,0,1,1.62-1.15c1.05-.64,2.52-1.5,4.17-2.37s3.19-1.61,4.31-2.11A7.43,7.43,0,0,1,432.78,379.71Z"/><path class="cls-3" d="M440.13,379.82a9.4,9.4,0,0,1-1.88,1.22c-1.19.7-2.87,1.61-4.76,2.54s-3.64,1.72-4.91,2.25a9.83,9.83,0,0,1-2.12.74,10.77,10.77,0,0,1,2-1.07l4.83-2.37,4.82-2.4A10.6,10.6,0,0,1,440.13,379.82Z"/><path class="cls-3" d="M445.74,379.82a31.41,31.41,0,0,1-4.69,3.85,30.69,30.69,0,0,1-5.11,3.28,125.87,125.87,0,0,1,9.8-7.13Z"/><path class="cls-3" d="M446.34,383.34c.09.11-.84,1-2.08,1.91a8.14,8.14,0,0,1-2.38,1.52c-.09-.11.84-1,2.08-1.91A8.14,8.14,0,0,1,446.34,383.34Z"/><path class="cls-3" d="M426.24,379.58a14.11,14.11,0,0,1-3.08,2.14,14.59,14.59,0,0,1-3.35,1.7,14.21,14.21,0,0,1,3.09-2.13A14.45,14.45,0,0,1,426.24,379.58Z"/><path class="cls-3" d="M453.07,274.21a27.47,27.47,0,0,1-1.26,3.33c-.83,2-2,4.84-3.19,8s-2.27,6-3,8a27.74,27.74,0,0,1-1.32,3.31,4.08,4.08,0,0,1,.21-.93c.17-.6.43-1.45.77-2.49.68-2.1,1.69-5,2.9-8.1s2.42-5.92,3.33-7.92c.46-1,.84-1.81,1.12-2.36A3.51,3.51,0,0,1,453.07,274.21Z"/><path class="cls-3" d="M450.58,362.44a2.61,2.61,0,0,1,0-.59c.06-.44.13-1,.21-1.69a26.59,26.59,0,0,1,.45-2.64c.21-1,.41-2.2.78-3.47.16-.64.34-1.31.52-2s.44-1.4.67-2.14c.44-1.49,1.05-3,1.65-4.66A103.48,103.48,0,0,1,459.68,335a180.51,180.51,0,0,1,10.87-17.44c1.5-2.17,2.73-3.9,3.6-5.08l1-1.37a3.62,3.62,0,0,1,.38-.45,1.88,1.88,0,0,1-.29.51l-.93,1.42-3.47,5.16c-2.91,4.37-6.93,10.43-10.72,17.49a111.35,111.35,0,0,0-4.79,10.2c-.61,1.62-1.23,3.15-1.69,4.62-.24.73-.49,1.43-.69,2.12s-.38,1.35-.55,2c-.38,1.26-.61,2.42-.85,3.44s-.41,1.89-.52,2.62-.23,1.23-.31,1.66A3,3,0,0,1,450.58,362.44Z"/><path class="cls-7" d="M480.35,198.35l-23.49,2s-7.05.17-14.68,18l-5.52,17.7,9.93,2.12,0,1,2,28.83L491,261.13c.09-3.66-2-9-3.53-14,1.59-4,8.28-21.19,8.27-29.49,0-17.75-15.35-19.28-15.35-19.28"/><path class="cls-3" d="M490.5,363.39a4,4,0,0,1-.43,1c-.31.61-.77,1.48-1.36,2.55-1.18,2.14-2.88,5.05-4.8,8.24L479,383.33l-1.5,2.47a4.47,4.47,0,0,1-.6.88,4.66,4.66,0,0,1,.43-1c.31-.62.77-1.49,1.36-2.56,1.18-2.14,2.88-5,4.8-8.24l4.92-8.17,1.5-2.47A4.93,4.93,0,0,1,490.5,363.39Z"/><path class="cls-7" d="M484.93,240.74a8.78,8.78,0,0,1-3.3.87,9,9,0,0,1-3.42,0,17.57,17.57,0,0,1,3.35-.53A17.78,17.78,0,0,1,484.93,240.74Z"/><path class="cls-4" d="M448.67,239.33l-.48,31.29,12.7-71.27c-4.22-.75-12.09,2.58-15.05,6.79-2.11,2.52-3.28,8.32-9.18,25.78L433,243.76l-14.67-16.07-9.9,8.94s17.06,27.87,24.19,29.42c9.7,2.1,16-26.72,16-26.72"/><path class="cls-3" d="M450.7,210.37a5,5,0,0,1-.13,1.22q-.19,1.32-.51,3.3c-.43,2.78-1,6.62-1.53,10.88s-.9,8.12-1.16,10.92c-.12,1.33-.22,2.44-.31,3.32a4.78,4.78,0,0,1-.17,1.21,6,6,0,0,1,0-1.22c0-.79.07-1.93.15-3.33.16-2.82.49-6.7,1-11s1.16-8.1,1.69-10.87c.26-1.39.49-2.5.66-3.27A7.12,7.12,0,0,1,450.7,210.37Z"/><path class="cls-7" d="M447.41,209c-.05-.14,1.92-1,4.16-2.35s3.87-2.76,4-2.65a17.29,17.29,0,0,1-8.13,5Z"/><path class="cls-7" d="M443.35,229.64a23.82,23.82,0,0,1-1.23-3.58,23.86,23.86,0,0,1-1.12-3.61,10.47,10.47,0,0,1,1.6,3.45A10.83,10.83,0,0,1,443.35,229.64Z"/><path class="cls-7" d="M453.65,218.38a18,18,0,0,1-1.53,8.14,34.07,34.07,0,0,1,.74-4.08A33.21,33.21,0,0,1,453.65,218.38Z"/><path class="cls-7" d="M439.36,245.65a21.41,21.41,0,0,1-.3,3.68,21.93,21.93,0,0,1-.46,3.66,16.34,16.34,0,0,1,.76-7.34Z"/><path class="cls-7" d="M420.59,245.41a23.38,23.38,0,0,1-4.44-8.47,42.32,42.32,0,0,1,2.22,4.23A44.32,44.32,0,0,1,420.59,245.41Z"/><path class="cls-7" d="M431.33,246.14a7.76,7.76,0,0,1-2.74,1.72,8.06,8.06,0,0,1-3.1.95,16.06,16.06,0,0,1,2.89-1.41A16.74,16.74,0,0,1,431.33,246.14Z"/><polygon class="cls-4" points="482.19 256.06 489.55 343.42 511.68 341.33 490.66 249.6 493.23 224.97 482.19 256.06"/><path class="cls-3" d="M489.55,343.42c-.14,0-1.77-19.37-3.63-43.28s-3.27-43.32-3.14-43.33,1.77,19.37,3.63,43.29S489.68,343.41,489.55,343.42Z"/><path class="cls-7" d="M487.41,258.08a9.18,9.18,0,0,1,.94-2.88,9.57,9.57,0,0,1,1.39-2.69,9.23,9.23,0,0,1-.93,2.88A9.44,9.44,0,0,1,487.41,258.08Z"/><path class="cls-7" d="M493.52,271.07a37.37,37.37,0,0,1-2.77-2.55c-1.53-1.38-2.92-2.34-2.85-2.46a8.84,8.84,0,0,1,3.19,2.09A9.16,9.16,0,0,1,493.52,271.07Z"/><path class="cls-7" d="M492.17,288.61a25.78,25.78,0,0,1,1.39-3,27,27,0,0,1,1.31-3.07,7.31,7.31,0,0,1-.86,3.27A7.19,7.19,0,0,1,492.17,288.61Z"/><path class="cls-7" d="M496.94,302.68a14.93,14.93,0,0,1-3.06-2.32,14.66,14.66,0,0,1-2.72-2.69,15,15,0,0,1,3,2.32A14.54,14.54,0,0,1,496.94,302.68Z"/><path class="cls-7" d="M501,312.34a17.66,17.66,0,0,1-.22-4.22,17.46,17.46,0,0,1,.28-4.22,19,19,0,0,1,.22,4.22A18.16,18.16,0,0,1,501,312.34Z"/><path class="cls-7" d="M493.85,318.9a18,18,0,0,1-.53-3.35,18.57,18.57,0,0,1-.42-3.37,13.33,13.33,0,0,1,1,6.72Z"/><path class="cls-7" d="M501.18,327.26A10.43,10.43,0,0,1,498,327a10.69,10.69,0,0,1-3.09-.71,10.22,10.22,0,0,1,3.17.21A10,10,0,0,1,501.18,327.26Z"/><path class="cls-7" d="M500,338.37a13.9,13.9,0,0,1,1.79-3.16,13.37,13.37,0,0,1,2.21-2.88,13.67,13.67,0,0,1-1.79,3.16A13.11,13.11,0,0,1,500,338.37Z"/><path class="cls-3" d="M449.57,266.65,412.39,216a53.24,53.24,0,0,0,6.16-5.6,51.23,51.23,0,1,0-41.19,16.11,50.1,50.1,0,0,0,5.49.11,51,51,0,0,0,21.4-5.47l37.57,51.19a4.81,4.81,0,0,0,6.72,1h0A4.81,4.81,0,0,0,449.57,266.65Zm-67-49.63a41.62,41.62,0,0,1-2.83-83.19,42.28,42.28,0,0,1,4.51.08A41.62,41.62,0,0,1,382.53,217Z"/><path class="cls-4" d="M434.8,239.11l-4.4,15s23.07,8.39,35.57,8.24c11.71-.14,15.06-1.47,19.18-10.93s8.8-20.31,9.78-26.57c0,0,6.61-28.8-18.61-26.23l-.68,22.53s-2.79,9.23-3,9.76c-1.88,5-4.32,12.28-6.68,13.16S434.8,239.11,434.8,239.11Z"/><path class="cls-3" d="M471,251.16a14.42,14.42,0,0,1-2.48-3.49,14.86,14.86,0,0,1-1.82-3.87,23.26,23.26,0,0,1,2.25,3.62A24.92,24.92,0,0,1,471,251.16Z"/><path class="cls-3" d="M473.38,248.81a16.73,16.73,0,0,1-3.35-2.28,16.43,16.43,0,0,1-3-2.68,16.73,16.73,0,0,1,3.35,2.28A16,16,0,0,1,473.38,248.81Z"/><path class="cls-3" d="M481.22,207.75a57.9,57.9,0,0,1-2.66,7.05,55.32,55.32,0,0,1-3.11,6.85,56.76,56.76,0,0,1,2.65-7.05A54.44,54.44,0,0,1,481.22,207.75Z"/><path class="cls-3" d="M493.92,229.18a5.31,5.31,0,0,1-.32,1.14l-1.06,3.07c-.92,2.58-2.21,6.14-3.73,10s-3,7.37-4.22,9.84c-.59,1.24-1.09,2.23-1.46,2.9a5.47,5.47,0,0,1-.61,1,5.63,5.63,0,0,1,.44-1.11c.35-.8.79-1.79,1.3-3,1.1-2.5,2.56-6,4.08-9.88s2.84-7.31,3.86-10c.5-1.28.92-2.31,1.21-3A5.79,5.79,0,0,1,493.92,229.18Z"/><path class="cls-3" d="M456.86,243.44c0,.13-5.05-.66-11.22-1.78s-11.16-2.14-11.13-2.28,5.05.66,11.22,1.78S456.89,243.3,456.86,243.44Z"/><path class="cls-7" d="M483,229.7a32.53,32.53,0,0,1,.11-8.13,33.85,33.85,0,0,1-.11,8.13Z"/><path class="cls-7" d="M474,257.37a23.66,23.66,0,0,1,1.33-3.05,23,23,0,0,1,1.32-3,11.18,11.18,0,0,1-2.65,6.1Z"/><path class="cls-7" d="M461.83,256.59a25.12,25.12,0,0,1-2-3.49,24.15,24.15,0,0,1-1.88-3.55,12.34,12.34,0,0,1,2.32,3.31A12,12,0,0,1,461.83,256.59Z"/><path class="cls-7" d="M445,248.81a26.56,26.56,0,0,1-6.72,2.66,13.45,13.45,0,0,1,3.27-1.56A13,13,0,0,1,445,248.81Z"/><path class="cls-7" d="M492.3,213.47c-.11.1-1.22-1-2.82-2.13s-3.06-1.73-3-1.87a7.12,7.12,0,0,1,3.28,1.46A7.23,7.23,0,0,1,492.3,213.47Z"/><path class="cls-7" d="M485.1,238.34a11.92,11.92,0,0,1-4,1,11.53,11.53,0,0,1-4.08,0,29.69,29.69,0,0,1,4-.55A28.41,28.41,0,0,1,485.1,238.34Z"/><path class="cls-8" d="M482.73,161.25a6.16,6.16,0,0,1,7.12-2.95,8.78,8.78,0,0,1,5.63,5.76,15.67,15.67,0,0,1,.15,8.27c-.44,2-1,4.31.3,5.86s3.53,1.39,4.95,2.64a3.43,3.43,0,1,1-4.85,4.83c0,1.39.76,2.66,1.2,4s.48,3-.58,3.89a2.94,2.94,0,0,1-2.94.28A8.73,8.73,0,0,1,491.2,192a6.86,6.86,0,0,1-.05,4.43,4.41,4.41,0,0,1-3.3,2.78,4.74,4.74,0,0,1-4.59-2.63,9.94,9.94,0,0,1-.88-5.5c.21-2.92,1-5.77,1.33-8.68a14.68,14.68,0,0,0-1.09-8.58"/><path class="cls-8" d="M499.68,178.29s-.12.08-.38.05a1.2,1.2,0,0,1-.88-.65,1.33,1.33,0,0,1,.41-1.65,1.75,1.75,0,0,1,2.25.13,2.64,2.64,0,0,1,.67,2.69,2.89,2.89,0,0,1-.81,1.38,2.61,2.61,0,0,1-1.59.65,3.16,3.16,0,0,1-1.74-.39,3.6,3.6,0,0,1-1.33-1.3,5.64,5.64,0,0,1-.64-3.71c.37-2.57,1.61-4.73,1.58-6.88a10.06,10.06,0,0,0-4.1-8.22c-.73-.54-1.21-.75-1.18-.8a1.21,1.21,0,0,1,.35.13,5.8,5.8,0,0,1,.94.51A9.33,9.33,0,0,1,496,163a10.09,10.09,0,0,1,1.66,5.6c0,2.29-1.21,4.51-1.55,6.93a5.22,5.22,0,0,0,.57,3.4,2.87,2.87,0,0,0,2.62,1.48,2.19,2.19,0,0,0,2-1.69,2.24,2.24,0,0,0-.51-2.3,1.43,1.43,0,0,0-1.84-.18,1.1,1.1,0,0,0-.41,1.34,1.17,1.17,0,0,0,.73.64C499.55,178.3,499.68,178.27,499.68,178.29Z"/><path class="cls-10" d="M476.54,199.23l1.34-30.52-12.12-9.18-11,5.38s-.36,13.84,0,19.83,6.42,6.64,6.42,6.64-.14,3.52-.28,7.21a7.83,7.83,0,0,0,7.91,8.13h0A7.83,7.83,0,0,0,476.54,199.23Z"/><path class="cls-3" d="M455.94,175a.77.77,0,1,0,.77-.77A.77.77,0,0,0,455.94,175Z"/><path class="cls-3" d="M455.2,174.16c.1.1.67-.38,1.49-.43s1.45.36,1.53.24-.06-.23-.33-.41a2,2,0,0,0-1.23-.33,2,2,0,0,0-1.18.47C455.23,173.92,455.15,174.12,455.2,174.16Z"/><path class="cls-3" d="M464.84,175a.77.77,0,1,0,.77-.77A.76.76,0,0,0,464.84,175Z"/><path class="cls-3" d="M464.36,174.16c.1.1.67-.38,1.49-.43s1.45.36,1.54.24-.06-.23-.33-.41a2,2,0,0,0-1.24-.33,2,2,0,0,0-1.18.47C464.39,173.92,464.31,174.12,464.36,174.16Z"/><path class="cls-7" d="M464.11,181.92a15.06,15.06,0,0,1-4,1.38,2.34,2.34,0,0,0,2.74.78A1.71,1.71,0,0,0,464.11,181.92Z"/><path class="cls-12" d="M461.15,191.38a15,15,0,0,0,8-2.68s-1.8,4.4-7.81,4.15Z"/><path class="cls-8" d="M495.33,186a4.24,4.24,0,0,1-2.17-.49,6,6,0,0,1-2.37-2.3,24.94,24.94,0,0,1-1.78-3.8c-1.12-2.79-2-5.37-2.54-7.26l-.25-.83c-.05-.32-.1-.61-.15-.82-3.28-12.51-14.27-14.84-16.44-14.84-2.34,0-6.42-1.28-12.37,4.9a13.5,13.5,0,0,0-2.25,3.11,13.27,13.27,0,0,0-2.65,5.65,6.68,6.68,0,0,0-.14,3c.11,0,.13-1.14.6-2.87a13.79,13.79,0,0,1,1.15-2.95,11.34,11.34,0,0,0,.61,6.9l2.13-.58,7.64-2.6c-.7-2.37.33-5.31.9-6.68l.06-.05a11.94,11.94,0,0,0,10.1,9.81l1.41,19.64c10.16-2.17,9.93-15.75,9.86-18.52.46,1.56,1.06,3.35,1.81,5.22a22.42,22.42,0,0,0,1.86,3.87,6.22,6.22,0,0,0,2.64,2.38,4.15,4.15,0,0,0,2.36.35c.57-.11.84-.29.82-.32S495.86,185.92,495.33,186Z"/><path class="cls-3" d="M461.38,181.14A5.25,5.25,0,0,0,460,181c-.21,0-.42,0-.46-.2a1.14,1.14,0,0,1,.11-.66l.57-1.72c.39-1.21.73-2.32,1-3.13a5,5,0,0,0,.3-1.33,5.9,5.9,0,0,0-.52,1.26c-.29.79-.66,1.88-1.06,3.1l-.54,1.72a1.34,1.34,0,0,0-.08.87.5.5,0,0,0,.35.29,1.2,1.2,0,0,0,.36,0A5.26,5.26,0,0,0,461.38,181.14Z"/><path class="cls-10" d="M478.52,180.89a7.37,7.37,0,0,1,.32-3,2.78,2.78,0,0,1,2.15-1.86,2.36,2.36,0,0,1,2.44,2,2.93,2.93,0,0,1-1.48,2.89,3.82,3.82,0,0,1-3.33.09"/><path class="cls-12" d="M480.26,180c0-.07.33.08.75-.05a1.33,1.33,0,0,0,.9-1.28,1,1,0,0,0-.21-.8.92.92,0,0,0-.66-.19c-.45,0-.76.16-.79.08s.2-.28.74-.43a1.18,1.18,0,0,1,1,.19,1.39,1.39,0,0,1,.41,1.19,1.88,1.88,0,0,1-.45,1.12,1.4,1.4,0,0,1-.88.47C480.49,180.37,480.22,180.05,480.26,180Z"/><path class="cls-3" d="M482.06,180.83s.45.31.45,1.12a1.79,1.79,0,0,1-.57,1.25,1.89,1.89,0,0,1-3-.49,1.74,1.74,0,0,1-.14-1.37c.25-.76.76-1,.78-.91s-.32.35-.44,1a1.51,1.51,0,0,0,.2,1,1.56,1.56,0,0,0,1.05.73,1.6,1.6,0,0,0,1.23-.35,1.48,1.48,0,0,0,.51-.94A4.14,4.14,0,0,0,482.06,180.83Z"/><path class="cls-8" d="M478.54,176.7a2.05,2.05,0,0,1-.77.48,6.14,6.14,0,0,1-2.43.49,7.7,7.7,0,0,1-3.58-.89,9.57,9.57,0,0,1-3.33-3,17.37,17.37,0,0,1-2.66-7.64c-.14-1-.21-1.86-.25-2.44a3,3,0,0,1,0-.9,32.53,32.53,0,0,1,.6,3.28,18.76,18.76,0,0,0,2.72,7.42,9.38,9.38,0,0,0,3.14,2.91,7.68,7.68,0,0,0,3.36.95A8,8,0,0,0,478.54,176.7Z"/><path class="cls-3" d="M485.27,168.11c-.15,0-.59-1.74-1.77-3.61s-2.55-3.08-2.45-3.19a9.41,9.41,0,0,1,4.22,6.8Z"/><path class="cls-10" d="M430.84,252.64l-3.53,0c-3.21-.31-5-.36-5.9-1.22-1.2-1.14.45-2.26.45-2.26s-2.32-.8-2.1-2.21c.14-1,1.24-1.08,1.24-1.08s-2-.8-2.45-1.65c-.55-1.17.9-1.79.9-1.79-2.8-1.72-2.54-3.42-1.9-3.59s2.83.83,2.83.83c1.84.53,6.85,2.06,5-.71s-2.24-5.6-1.81-6.43a1,1,0,0,1,1.91.47,12,12,0,0,0,1.31,3.1,8,8,0,0,0,1.68,2.11c.78.7,1.48,1.27,2.08,1.73l3.14,3Z"/><path class="cls-10" d="M408.88,217.41c.25-.76.88-1.3,1.56-.95h0a1.22,1.22,0,0,1,.22,1.18l-2.17,7.09h0l2.06-5c.26-.76.95-1.22,1.42-.8a1.22,1.22,0,0,1,.17,1.15L410.26,226l1.53-3.69c.32-.84.7-1.06,1.12-.88s.44.81.34,1.14l-1.3,4.35c.28.83,1.24,3.46.32,4.94,0,.08.09.32.08.41l.44.5-2.89,2.61s-2.67-6.75-3.18-8.78a5.85,5.85,0,0,1,.16-3.54Z"/></g></g></svg>