<svg xmlns="http://www.w3.org/2000/svg" viewBox="0 0 447.02 376.81"><defs><style>.cls-1{isolation:isolate;}.cls-2{fill:#f5f5f5;}.cls-3{fill:#e6e6e6;}.cls-4{fill:#ebebeb;}.cls-5{fill:#7bb732;}.cls-6{fill:#fff;}.cls-7{fill:#026a9d;}.cls-8{fill:#37474f;}.cls-9{fill:#e0e0e0;}.cls-10{opacity:0.5;mix-blend-mode:multiply;}.cls-11{fill:#f0f0f0;}.cls-12,.cls-16{opacity:0.2;}.cls-13{fill:#263238;}.cls-14{fill:#ffa8a7;}.cls-15{opacity:0.1;}.cls-17{fill:#f28f8f;}</style></defs><title>frontiers</title><g class="cls-1"><g id="Capa_2" data-name="Capa 2"><g id="Floor"><path class="cls-2" d="M65.46,342.61c87.29,45.6,228.81,45.6,316.09,0s87.29-119.53,0-165.12-228.8-45.6-316.09,0S-21.82,297,65.46,342.61Z"/></g><g id="Shadows"><path class="cls-3" d="M277.78,323.57l-206-118.95c-1.44-.82-1.44-2.17,0-3l120.7-69.71a5.74,5.74,0,0,1,5.2,0l206,119c1.44.83,1.44,2.18,0,3L283,323.57A5.8,5.8,0,0,1,277.78,323.57Z"/><ellipse class="cls-4" cx="69.15" cy="265.34" rx="54.36" ry="25.91"/></g><g id="Plant"><path class="cls-5" d="M234.94,152.1c2.54.05,6.74-3.24,7.38-7.32s1.85-7.3,7.66-9.51,9.08-3.19,10.94-8.25-1.05-10.76-1.81-15.07,3.18-9.33,9-14.08,9.18-9.73,4-12.74S260.47,83.4,254.82,87s-10.08,8.39-17,7.75-10.83,2.34-12.19,7.78.61,12.37-4.55,14.08v23.15Z"/><path class="cls-6" d="M224.46,141.66l-.11,0a.5.5,0,0,1-.38-.6c5.29-22.89,29.17-48.24,42.07-53.51a.51.51,0,0,1,.66.28.5.5,0,0,1-.28.65c-12.71,5.19-36.25,30.2-41.47,52.81A.51.51,0,0,1,224.46,141.66Z"/><path class="cls-6" d="M237.76,114.29a.5.5,0,0,1-.49-.42,33.3,33.3,0,0,0-4.07-11,.51.51,0,0,1,.16-.69.49.49,0,0,1,.69.16,33.66,33.66,0,0,1,4.2,11.4.49.49,0,0,1-.41.58Z"/><path class="cls-6" d="M233.63,121.25a.51.51,0,0,1-.49-.37.5.5,0,0,1,.36-.61c7.86-2.08,17.79-.1,18.21,0a.5.5,0,0,1,.39.59.51.51,0,0,1-.59.39c-.1,0-10.13-2-17.76,0Z"/></g><g id="Clouds"><path class="cls-4" d="M322,17.57,325.84,19V10.59c0-6.69,5.34-8.3,11.14-4.95h0c5.8,3.35,10.5,11.49,10.5,18.19v1.23a5.6,5.6,0,0,1,4.88.75h0a16.7,16.7,0,0,1,7.55,13.08v.56l5.35,3.09a11,11,0,0,1,5,8.62c0,3.17-2.22,4.46-5,2.87L322,29.06a11,11,0,0,1-5-8.62C317,17.27,319.26,16,322,17.57Z"/><path class="cls-4" d="M365.42,20.37l6.95,4c0-.31-.06-.62-.06-.92v-2c0-3.59,2.52-5,5.62-3.25a11,11,0,0,1,3.35,3.22c.51-4.5,4-6.18,8.34-3.7,4.64,2.68,8.41,9.2,8.41,14.56v3a8,8,0,0,1-.71,3.49l5.77,3.34a6.89,6.89,0,0,1,3.12,5.4c0,2-1.4,2.79-3.12,1.8L365.42,27.57a6.9,6.9,0,0,1-3.12-5.4C362.3,20.18,363.7,19.37,365.42,20.37Z"/></g><g id="Signal"><polygon class="cls-7" points="223.59 23.41 260.06 2.35 268.19 7.04 260.06 21.11 223.59 42.17 223.59 23.41"/><polygon class="cls-8" points="260.06 2.35 256 0 219.44 21.11 223.59 23.41 260.06 2.35"/><path class="cls-6" d="M228.88,32.84a2.42,2.42,0,0,1-1,.18c-.09,0-.12,0-.12-.08a.35.35,0,0,1,0-.13l.31-.67a.46.46,0,0,1,.1-.14.25.25,0,0,1,.13,0,2.87,2.87,0,0,0,.8-.13,4.71,4.71,0,0,0,.93-.41,3.59,3.59,0,0,0,1-.77,1.35,1.35,0,0,0,.32-.86.47.47,0,0,0-.12-.38.53.53,0,0,0-.36-.09c-.16,0-.41.05-.76.11l-.21,0a6.44,6.44,0,0,1-1,.12,1,1,0,0,1-.66-.21.92.92,0,0,1-.26-.74,2.77,2.77,0,0,1,.65-1.69,5.72,5.72,0,0,1,1.71-1.45,5.63,5.63,0,0,1,1.12-.52,1.9,1.9,0,0,1,.82-.1c.07,0,.11,0,.11.09a.38.38,0,0,1,0,.13l-.3.66a.55.55,0,0,1-.09.14.23.23,0,0,1-.12,0,2.7,2.7,0,0,0-1.49.48,3.06,3.06,0,0,0-.89.72,1.39,1.39,0,0,0-.3.86.47.47,0,0,0,.13.39.5.5,0,0,0,.37.08,6.91,6.91,0,0,0,.78-.12l.24-.05a5.39,5.39,0,0,1,1.06-.11.78.78,0,0,1,.6.23,1.05,1.05,0,0,1,.21.75,2.69,2.69,0,0,1-.61,1.62,5.55,5.55,0,0,1-1.71,1.45A7.63,7.63,0,0,1,228.88,32.84Z"/><path class="cls-6" d="M234.07,29.12c-.56-.26-.83-.92-.83-2a5.42,5.42,0,0,1,.83-2.93A6.49,6.49,0,0,1,236.44,22c1-.59,1.81-.76,2.36-.5s.84.92.84,2a5.48,5.48,0,0,1-.84,2.94,6.51,6.51,0,0,1-2.36,2.23C235.41,29.22,234.62,29.38,234.07,29.12Zm3.86-2.86a4.22,4.22,0,0,0,.52-2.12c0-.8-.17-1.31-.52-1.52s-.84-.13-1.49.25a3.91,3.91,0,0,0-1.51,1.48,4.29,4.29,0,0,0-.51,2.12c0,.8.17,1.3.51,1.52s.85.13,1.51-.25A3.92,3.92,0,0,0,237.93,26.26Z"/><path class="cls-6" d="M241.86,25.2a1.14,1.14,0,0,1-1-.25,1.38,1.38,0,0,1-.35-1.06V20.12a.59.59,0,0,1,.07-.31.8.8,0,0,1,.27-.24l.5-.29a.36.36,0,0,1,.27-.07s.08.1.08.21v3.8c0,.49.14.77.43.86a1.65,1.65,0,0,0,1.22-.33,3.64,3.64,0,0,0,1.21-1.07,2.33,2.33,0,0,0,.43-1.35v-3.8a.62.62,0,0,1,.08-.31.8.8,0,0,1,.27-.24l.49-.28c.24-.14.36-.1.36.13V20.6a3.26,3.26,0,0,1-.36,1.48,5.62,5.62,0,0,1-1,1.41,6.7,6.7,0,0,1-1.48,1.14A4.31,4.31,0,0,1,241.86,25.2Z"/><path class="cls-6" d="M248.93,21.19q-.09,0-.09-.21V15.87l-1.64,1c-.12.07-.2.09-.25.07s-.07-.09-.07-.21v-.25a.56.56,0,0,1,.07-.3.71.71,0,0,1,.25-.23l4.48-2.58c.12-.07.21-.1.26-.07s.07.09.07.21v.25a.56.56,0,0,1-.07.3.86.86,0,0,1-.26.23l-1.64.94v5.11a.61.61,0,0,1-.08.3.62.62,0,0,1-.28.24l-.48.28C249.07,21.19,249,21.21,248.93,21.19Z"/><path class="cls-6" d="M252.82,18.94s-.07-.1-.07-.21V13.05a.62.62,0,0,1,.07-.31,1.09,1.09,0,0,1,.27-.24l.5-.28c.12-.07.21-.1.27-.08s.08.1.08.22v2.36L257,12.94V10.59a.59.59,0,0,1,.08-.31.75.75,0,0,1,.28-.24l.48-.29c.13-.07.22-.09.27-.07s.09.1.09.21v5.68a.56.56,0,0,1-.08.3.78.78,0,0,1-.28.25l-.48.28a.39.39,0,0,1-.28.07s-.08-.09-.08-.2V13.85l-3.07,1.77V18a.52.52,0,0,1-.08.3.82.82,0,0,1-.27.24l-.5.29A.36.36,0,0,1,252.82,18.94Z"/><polygon class="cls-7" points="219.37 44.49 182.89 23.43 174.76 28.12 182.89 42.19 219.37 63.25 219.37 44.49"/><polygon class="cls-8" points="182.89 23.43 186.95 21.08 223.51 42.19 219.37 44.49 182.89 23.43"/><path class="cls-6" d="M186.34,38.41a.65.65,0,0,1-.12-.25l-1.7-6.89a.22.22,0,0,1,0-.09c0-.09.06-.1.2,0l.87.5a1,1,0,0,1,.23.18.52.52,0,0,1,.09.2L187,36.78l1.3-2.88a.11.11,0,0,1,.1-.09s.1,0,.2.07l.5.29a.69.69,0,0,1,.2.15.76.76,0,0,1,.1.22l1.31,4.38,1.06-3.5c0-.06.05-.09.1-.09a.39.39,0,0,1,.22.08l.88.51c.14.08.21.16.21.26a.19.19,0,0,1,0,.08l-1.72,4.91c0,.07-.07.11-.12.11a.6.6,0,0,1-.24-.08l-.58-.34a.75.75,0,0,1-.23-.19.73.73,0,0,1-.13-.25l-1.3-4.5-1.3,3a.16.16,0,0,1-.12.11.51.51,0,0,1-.24-.09l-.59-.34A.83.83,0,0,1,186.34,38.41Z"/><path class="cls-6" d="M194.32,43a.59.59,0,0,1-.09-.31V37q0-.18.09-.21c.06,0,.16,0,.31.1l4.49,2.59a.79.79,0,0,1,.3.25.56.56,0,0,1,.08.3v.25c0,.12,0,.19-.08.21s-.15,0-.3-.09l-3.51-2v1.82l2.55,1.47a.78.78,0,0,1,.3.25.49.49,0,0,1,.09.3v.23q0,.18-.09.21a.45.45,0,0,1-.3-.09l-2.55-1.48v1.83l3.5,2a.93.93,0,0,1,.31.25.62.62,0,0,1,.08.31v.25c0,.11,0,.18-.08.2a.58.58,0,0,1-.31-.1l-4.48-2.59A.94.94,0,0,1,194.32,43Z"/><path class="cls-6" d="M201.57,47.25a7.54,7.54,0,0,1-1.18-1.09.46.46,0,0,1-.14-.23.1.1,0,0,1,0-.09l.36-.28s.08,0,.11,0a.64.64,0,0,1,.15.12,8.81,8.81,0,0,0,2,1.62,2.78,2.78,0,0,0,1.11.43c.25,0,.37-.16.37-.47a1,1,0,0,0-.14-.53,2.82,2.82,0,0,0-.41-.53c-.18-.18-.47-.46-.87-.83l-.25-.23c-.47-.43-.86-.81-1.16-1.13a5.15,5.15,0,0,1-.76-1,2.11,2.11,0,0,1-.31-1.07c0-.56.25-.86.75-.88a4,4,0,0,1,2,.68,10.69,10.69,0,0,1,1.29.86,6.85,6.85,0,0,1,.94.92.47.47,0,0,1,.13.24.08.08,0,0,1,0,.08l-.35.28s-.08,0-.1,0a.64.64,0,0,1-.15-.13,7,7,0,0,0-1.71-1.38,2.09,2.09,0,0,0-1-.37c-.23,0-.34.17-.34.48a1.1,1.1,0,0,0,.14.55,2.74,2.74,0,0,0,.43.54c.18.19.49.47.91.85l.26.25c.53.48.94.89,1.24,1.21a4.4,4.4,0,0,1,.68,1,2.25,2.25,0,0,1,.25,1c0,.54-.24.83-.7.87a3.8,3.8,0,0,1-2-.68A14.3,14.3,0,0,1,201.57,47.25Z"/><path class="cls-6" d="M208.48,51.16a.5.5,0,0,1-.1-.31V45.74l-1.89-1.09a.86.86,0,0,1-.3-.25.55.55,0,0,1-.08-.29v-.26c0-.12,0-.19.08-.21s.16,0,.3.09l5.17,3a.86.86,0,0,1,.3.25.53.53,0,0,1,.08.31v.25c0,.12,0,.19-.08.2s-.16,0-.3-.1l-1.9-1.09v5.11c0,.11,0,.18-.09.2a.46.46,0,0,1-.32-.1l-.56-.32A1.07,1.07,0,0,1,208.48,51.16Z"/><path class="cls-7" d="M223.58,3.94a2.07,2.07,0,0,0-1.21-1.64,6.42,6.42,0,0,0-5.85,0,2.07,2.07,0,0,0-1.21,1.64h0V224.11h8.29V3.94Z"/></g><g id="Map"><path class="cls-7" d="M296.63,170.28l-48.75-14.07-50.51-42.62a4.57,4.57,0,0,0-4.89-.44L71.74,182.85a2,2,0,0,0-.31,3.44L122,228.91,170.7,243l52.8,44.56,54,17.82a7.63,7.63,0,0,0,5.45-.56l5.53-3.19L403.71,235.1c1.43-.83,1.32-1.92-.25-2.44l-54-17.82Z"/><polygon class="cls-7" points="247.88 156.21 121.95 228.91 170.7 242.98 296.63 170.28 247.88 156.21"/><path class="cls-7" d="M223.5,287.54l54,17.82a7.63,7.63,0,0,0,5.45-.56l120.74-69.7c1.43-.83,1.32-1.92-.25-2.44l-54-17.82Z"/><polygon class="cls-9" points="239.75 160.9 193.55 121.91 83.87 185.23 130.08 224.22 239.75 160.9"/><polygon class="cls-9" points="288.5 174.97 178.83 238.29 130.08 224.22 239.75 160.9 288.5 174.97"/><g class="cls-10"><polygon class="cls-9" points="288.5 174.97 178.83 238.29 130.08 224.22 239.75 160.9 288.5 174.97"/></g><polygon class="cls-9" points="341.3 219.53 231.63 282.85 178.83 238.29 288.5 174.97 341.3 219.53"/><polygon class="cls-9" points="387.84 234.88 278.16 298.2 231.63 282.85 341.3 219.53 387.84 234.88"/><g class="cls-10"><polygon class="cls-9" points="387.84 234.88 278.16 298.2 231.63 282.85 341.3 219.53 387.84 234.88"/></g><polygon class="cls-11" points="110.62 207.8 126.02 198.42 101.65 174.97 83.87 185.23 110.62 207.8"/><polygon class="cls-11" points="130.08 196.08 105.71 172.63 142.27 151.44 166.64 174.97 130.08 196.08"/><polygon class="cls-11" points="146.33 149.17 170.7 172.63 182.89 165.59 178.82 130.41 146.33 149.17"/><polygon class="cls-11" points="186.95 163.25 182.89 128.07 193.55 121.91 233.15 155.33 186.95 163.25"/><polygon class="cls-11" points="144.3 216.01 132.11 204.29 116.88 213.08 130.08 224.22 144.3 216.01"/><polygon class="cls-11" points="136.17 201.94 148.36 213.67 184.88 192.58 172.72 180.84 136.17 201.94"/><polygon class="cls-11" points="188.98 190.22 176.79 178.49 187.95 172.05 211.32 167.94 211.32 177.32 188.98 190.22"/><polygon class="cls-11" points="215.38 174.97 215.38 167.22 234.69 163.82 215.38 174.97"/><path class="cls-3" d="M235.7,182c-4.49-1.3-10.86-.77-14.22,1.17s-2.46,4.57,2,5.86,10.85.77,14.22-1.17S240.18,183.3,235.7,182Z"/><path class="cls-3" d="M222.5,179.47a13.58,13.58,0,0,0-2.52,1.11c-3.54,2-3.63,4.7-3.5,5.75a4.89,4.89,0,0,0,.57,1.76l-9.79,5.64L189,190.22l22.34-12.9Z"/><polygon class="cls-3" points="215.38 174.97 227.91 177.14 234.33 178.03 256 165.59 239.75 160.9 215.38 174.97"/><path class="cls-3" d="M288.5,175,258,192.58l-18.17-2.49c2.95-2,3-4.38,2.9-5.37a5.07,5.07,0,0,0-.56-1.75l24.67-14.25Z"/><path class="cls-3" d="M254.33,194.7l-14.57,8.41-24.44-4.69,10.18-5.84.08-.05h0a25.59,25.59,0,0,0,3.44.23,24.43,24.43,0,0,0,6.95-.95h0Z"/><polygon class="cls-3" points="184.88 192.58 148.36 213.67 166.64 217.19 203.17 196.09 184.88 192.58"/><polygon class="cls-3" points="239.76 203.11 215.34 198.43 178.81 219.53 203.2 224.22 239.76 203.11"/><polygon class="cls-3" points="144.3 216.01 130.08 224.22 146.33 228.91 162.57 219.53 144.3 216.01"/><polygon class="cls-3" points="199.13 226.57 174.75 221.88 157.16 232.04 178.83 238.29 199.13 226.57"/><polygon class="cls-11" points="264.13 203.11 277.7 228.11 312.87 207.81 280.38 193.73 264.13 203.11"/><polygon class="cls-11" points="199.13 226.57 203.2 233.6 201.93 257.79 178.83 238.29 199.13 226.57"/><polygon class="cls-11" points="203.2 224.22 207.26 231.26 258.2 201.85 254.33 194.7 203.2 224.22"/><polygon class="cls-11" points="258 192.58 262.1 199.6 295.1 180.54 288.5 174.97 258 192.58"/><polygon class="cls-11" points="260.07 205.46 209.29 234.78 207.98 262.89 211.83 266.14 273.68 230.44 260.07 205.46"/><polygon class="cls-11" points="284.44 191.39 298.4 183.33 321.5 202.82 316.94 205.46 284.44 191.39"/><polygon class="cls-11" points="218.43 271.71 235.69 261.75 243.82 275.82 231.63 282.85 218.43 271.71"/><rect class="cls-11" x="242.56" y="253.62" width="18.76" height="16.25" transform="translate(-97.12 161.04) rotate(-30)"/><polygon class="cls-11" points="260.07 247.67 277.56 237.57 285.34 251.84 268.19 261.75 260.07 247.67"/><polygon class="cls-11" points="289.34 249.54 281.58 235.25 316.94 214.84 334.7 213.96 341.3 219.53 289.34 249.54"/><polygon class="cls-11" points="324.8 205.61 316.94 210.15 329.61 209.66 324.8 205.61"/><path class="cls-3" d="M309.06,257.2c-4.48-1.3-10.85-.77-14.21,1.17s-2.46,4.57,2,5.87,10.85.77,14.22-1.18S313.55,258.5,309.06,257.2Z"/><polygon class="cls-3" points="243.82 275.82 260.07 280.51 247.14 287.97 231.63 282.85 243.82 275.82"/><polygon class="cls-3" points="247.88 273.47 264.13 278.16 280.38 268.78 264.13 264.09 247.88 273.47"/><path class="cls-3" d="M268.19,261.75l16.25,4.69,5.41-3.13s-2.57-5.74,5-8.14l-9.55-3.33Z"/><path class="cls-3" d="M289.34,249.54l10,3.6a33.79,33.79,0,0,1,8.12,0L337.25,236,321,231.26Z"/><polygon class="cls-3" points="325.06 228.91 341.31 233.6 356.82 224.65 341.3 219.53 325.06 228.91"/><polygon class="cls-3" points="367.16 228.06 341.31 242.98 361.62 250.02 387.84 234.88 367.16 228.06"/><path class="cls-3" d="M337.25,245.33l-21.36,12.33s2.62,4.07-.73,7.29l14,3.83,28.44-16.42-19.82-6.75"/><path class="cls-3" d="M325.06,271.13l-14.43-3.64s-6.95,2.72-12.8.6l-21.52,12.42-4.06,15.74,5.91,1.95Z"/><polygon class="cls-3" points="272.25 282.85 268.85 295.13 257.48 291.38 272.25 282.85"/><path class="cls-5" d="M254.33,245.36a1,1,0,0,1-.86-.49,1,1,0,0,1,.35-1.37l21.39-12.61-19.85-36.25-18.68-2.94a1,1,0,0,1-.83-.8,1,1,0,0,1,.46-1c2.77-1.69,4.16-3.29,4-4.64s-1.72-2.65-4.3-3.64c-3.84-1.48-11.78-1-15.21,1.67a3.81,3.81,0,0,0-1.11,5.24,1,1,0,0,1-.32,1.41l-10.3,6.22a.94.94,0,0,1-.69.13l-21.65-3.88a1,1,0,0,1-.53-.28l-21.84-22a1,1,0,0,1,0-1.41,1,1,0,0,1,1.42,0l21.62,21.77,21,3.76,9.18-5.55a5.73,5.73,0,0,1,2-7c4-3.08,12.76-3.65,17.16-1.95,2,.75,5.32,2.45,5.57,5.32.16,1.7-.81,3.4-2.89,5.07l16.7,2.63a1,1,0,0,1,.73.51l20.55,37.53a1,1,0,0,1-.37,1.34l-22.22,13.1A1,1,0,0,1,254.33,245.36Z"/><path class="cls-5" d="M171.68,138.9l-3.42-2h0c-1.64-1.1-3.9-1.05-6.41.4-5,2.87-9,10.17-9,16.29V155c0,6.12,8.23,12.78,8.23,12.78l3.37,1.9s-2-2.3-1.79-2.78c2.2-4.52,8.21-17.31,8.21-22.31v-1.39a10.84,10.84,0,0,0-.39-3l.39.22Zm-9.83,14c-2.49,1.43-4.51.27-4.51-2.61,1.34-.21,4.71-6,4.51-7.8,2.49-1.44,4.5-.27,4.5,2.6A10,10,0,0,1,161.85,153Z"/><path class="cls-5" d="M171.68,138.9l-3.42-2h0c-1.64-1.1-3.9-1.05-6.41.4-5,2.87-9,10.17-9,16.29V155c0,6.12,8.23,12.78,8.23,12.78l3.37,1.9s-2-2.3-1.79-2.78c2.2-4.52,8.21-17.31,8.21-22.31v-1.39a10.84,10.84,0,0,0-.39-3l.39.22Zm-9.83,14c-2.49,1.43-4.51.27-4.51-2.61,1.34-.21,4.71-6,4.51-7.8,2.49-1.44,4.5-.27,4.5,2.6A10,10,0,0,1,161.85,153Z"/><g class="cls-12"><path d="M171.68,138.9l-3.42-2h0c-1.64-1.1-3.9-1.05-6.41.4-5,2.87-9,10.17-9,16.29V155c0,6.12,8.23,12.78,8.23,12.78l3.37,1.9s-2-2.3-1.79-2.78c2.2-4.52,8.21-17.31,8.21-22.31v-1.39a10.84,10.84,0,0,0-.39-3l.39.22Zm-9.83,14c-2.49,1.43-4.51.27-4.51-2.61,1.34-.21,4.71-6,4.51-7.8,2.49-1.44,4.5-.27,4.5,2.6A10,10,0,0,1,161.85,153Z"/></g><path class="cls-5" d="M174.46,145.31c0-6.13-4-8.76-9-5.89s-9,10.17-9,16.29v1.4c0,4.71,5.34,10.19,7.8,12.46a1.22,1.22,0,0,0,1.92-.36c2.12-4.35,8.3-17.43,8.3-22.51Zm-9,9.72c-2.49,1.43-4.5.27-4.5-2.6a10,10,0,0,1,4.5-7.81c2.49-1.43,4.51-.27,4.51,2.6A10,10,0,0,1,165.45,155Z"/><path class="cls-5" d="M260.68,214.9l-3.42-2h0c-1.64-1.1-3.9-1.05-6.41.4-5,2.87-9,10.17-9,16.29V231c0,6.12,8.23,12.78,8.23,12.78l3.37,1.9s-2-2.3-1.79-2.78c2.2-4.52,8.21-17.31,8.21-22.31v-1.39a10.84,10.84,0,0,0-.39-3l.39.22Zm-9.83,14c-2.49,1.43-4.51.27-4.51-2.61,1.34-.21,4.71-6,4.51-7.8,2.49-1.44,4.5-.27,4.5,2.6A10,10,0,0,1,250.85,229Z"/><path class="cls-5" d="M260.68,214.9l-3.42-2h0c-1.64-1.1-3.9-1.05-6.41.4-5,2.87-9,10.17-9,16.29V231c0,6.12,8.23,12.78,8.23,12.78l3.37,1.9s-2-2.3-1.79-2.78c2.2-4.52,8.21-17.31,8.21-22.31v-1.39a10.84,10.84,0,0,0-.39-3l.39.22Zm-9.83,14c-2.49,1.43-4.51.27-4.51-2.61,1.34-.21,4.71-6,4.51-7.8,2.49-1.44,4.5-.27,4.5,2.6A10,10,0,0,1,250.85,229Z"/><g class="cls-12"><path d="M260.68,214.9l-3.42-2h0c-1.64-1.1-3.9-1.05-6.41.4-5,2.87-9,10.17-9,16.29V231c0,6.12,8.23,12.78,8.23,12.78l3.37,1.9s-2-2.3-1.79-2.78c2.2-4.52,8.21-17.31,8.21-22.31v-1.39a10.84,10.84,0,0,0-.39-3l.39.22Zm-9.83,14c-2.49,1.43-4.51.27-4.51-2.61,1.34-.21,4.71-6,4.51-7.8,2.49-1.44,4.5-.27,4.5,2.6A10,10,0,0,1,250.85,229Z"/></g><path class="cls-5" d="M263.46,221.31c0-6.13-4-8.76-9-5.89s-9,10.17-9,16.29v1.4c0,4.71,5.34,10.19,7.8,12.45a1.21,1.21,0,0,0,1.92-.35c2.12-4.35,8.3-17.43,8.3-22.51Zm-9,9.72c-2.49,1.43-4.5.27-4.5-2.6a10,10,0,0,1,4.5-7.81c2.49-1.43,4.51-.27,4.51,2.6A10,10,0,0,1,254.45,231Z"/></g><g id="Locators"><path class="cls-13" d="M329.76,97.83l-.22-.13-6.86-3.94a9.49,9.49,0,0,0-5.36-1.57,16,16,0,0,0-7.9,2.41c-10.3,5.94-18.64,21-18.64,33.7v2.88c0,12.67,17,26.44,17,26.44l6.93,3.92h0c-.23-.27-4.17-4.79-3.7-5.74,4.56-9.36,17-35.81,17-46.15v-2.88a22.8,22.8,0,0,0-.79-6.19l.8.46Zm-12.89,33.35c-4.57,2.64-8.36,1-9.16-3.5-4.33,1.58-7.61-.91-7.61-6.18,2.77-.44,9.73-12.33,9.32-16.14,4.56-2.64,8.35-1,9.15,3.5,4.34-1.58,7.62.91,7.62,6.18C326.19,121,322,128.21,316.87,131.18Z"/><path class="cls-7" d="M329.76,97.83l-.22-.13c-3.33-1.87-7.78-1.62-12.67,1.2-7.37,4.26-13.75,13.21-16.77,22.6a36.51,36.51,0,0,0-1.87,11.1v2.89c0,9.76,11,21.08,16.14,25.77a2.4,2.4,0,0,0,.37.28h0a2.5,2.5,0,0,0,3.56-1c4.39-9,17.18-36.06,17.18-46.55v-2.89C335.51,104.57,333.31,100,329.76,97.83Zm-22.05,29.85a10.13,10.13,0,0,1-.16-1.88c0-5.94,4.17-13.17,9.32-16.14a11.23,11.23,0,0,1,1.7-.8c4.34-1.58,7.62.91,7.62,6.18,0,5.94-4.17,13.17-9.32,16.14C312.3,133.82,308.51,132.23,307.71,127.68Z"/><path class="cls-13" d="M319.92,106.45a13.36,13.36,0,0,0-2.05,1c-6.23,3.59-11.27,12.33-11.27,19.51a11.8,11.8,0,0,0,.2,2.28c1,5.5,5.55,7.42,11.07,4.23,6.22-3.59,11.27-12.33,11.27-19.51C329.14,107.55,325.17,104.54,319.92,106.45Z"/><path class="cls-5" d="M318.65,109.27l1.88,4a.46.46,0,0,0,.62.24l4.22-1.62c.68-.26.94.69.46,1.6l-3.06,5.74a1.88,1.88,0,0,0-.23,1.1l.72,5.19c.11.83-.59,1.91-1.19,1.84l-3.78-.47a.94.94,0,0,0-.76.44l-3.78,4.83c-.6.77-1.3.49-1.18-.46l.72-6a.9.9,0,0,0-.24-.83L310,122.64c-.49-.35-.22-1.6.45-2.12l4.22-3.26a1.91,1.91,0,0,0,.62-1l1.89-6.19C317.48,109.13,318.35,108.63,318.65,109.27Z"/><path class="cls-13" d="M373.28,122.9l-.22-.13-6.86-3.94a9.49,9.49,0,0,0-5.36-1.57,16,16,0,0,0-7.9,2.41c-10.3,5.94-18.64,21-18.64,33.7v2.88c0,12.67,17,26.44,17,26.44l6.93,3.92h0c-.23-.27-4.17-4.79-3.7-5.74,4.56-9.36,17-35.81,17-46.15v-2.88a22.8,22.8,0,0,0-.79-6.19l.8.46Zm-12.89,33.35c-4.57,2.64-8.36,1.05-9.16-3.5-4.33,1.58-7.61-.91-7.61-6.18,2.77-.44,9.73-12.33,9.32-16.14,4.56-2.64,8.35-1.05,9.15,3.5,4.34-1.58,7.62.91,7.62,6.18C369.71,146.05,365.54,153.28,360.39,156.25Z"/><path class="cls-7" d="M373.28,122.9l-.22-.13c-3.33-1.87-7.78-1.62-12.67,1.2-7.37,4.26-13.75,13.21-16.77,22.6a36.51,36.51,0,0,0-1.87,11.1v2.89c0,9.76,11.05,21.08,16.14,25.77a2.4,2.4,0,0,0,.37.28h0a2.5,2.5,0,0,0,3.56-1c4.39-9,17.18-36.06,17.18-46.55v-2.89C379,129.64,376.83,125,373.28,122.9Zm-22,29.85a10.13,10.13,0,0,1-.16-1.88c0-5.94,4.17-13.17,9.32-16.14a11.23,11.23,0,0,1,1.7-.8c4.34-1.58,7.62.91,7.62,6.18,0,5.94-4.17,13.17-9.32,16.14C355.82,158.89,352,157.3,351.23,152.75Z"/><path class="cls-13" d="M363.44,131.52a13.45,13.45,0,0,0-2.05,1c-6.23,3.59-11.27,12.33-11.27,19.5a11.73,11.73,0,0,0,.2,2.28c1,5.5,5.55,7.42,11.07,4.23,6.22-3.59,11.27-12.33,11.27-19.51C372.66,132.62,368.69,129.61,363.44,131.52Z"/><polygon class="cls-5" points="370.76 138.85 361.87 136.48 352.97 149.13 355.32 147.76 355.32 155.2 360.49 152.22 360.49 148.07 363.24 146.48 363.24 150.63 368.41 147.64 368.41 140.21 370.76 138.85"/><path class="cls-13" d="M416.8,147.79l-.22-.13-6.86-3.94a9.49,9.49,0,0,0-5.36-1.57,16,16,0,0,0-7.9,2.41c-10.3,5.94-18.64,21-18.64,33.7v2.88c0,12.67,17,26.44,17,26.44l6.93,3.92h0c-.23-.27-4.17-4.79-3.7-5.74,4.56-9.36,17-35.81,17-46.15v-2.88a22.8,22.8,0,0,0-.79-6.19l.8.46Zm-12.89,33.35c-4.57,2.64-8.36,1.05-9.16-3.5-4.33,1.58-7.61-.91-7.61-6.18,2.77-.44,9.73-12.33,9.32-16.14,4.56-2.64,8.35-1,9.15,3.5,4.34-1.58,7.62.91,7.62,6.18C413.23,170.94,409.06,178.17,403.91,181.14Z"/><path class="cls-7" d="M416.8,147.79l-.22-.13c-3.33-1.87-7.78-1.62-12.67,1.2-7.37,4.26-13.75,13.21-16.77,22.6a36.51,36.51,0,0,0-1.87,11.1v2.89c0,9.76,11.05,21.08,16.14,25.77a2.4,2.4,0,0,0,.37.28h0a2.5,2.5,0,0,0,3.56-1c4.39-9,17.18-36.06,17.18-46.55V161C422.55,154.53,420.35,149.92,416.8,147.79Zm-22.05,29.85a10.13,10.13,0,0,1-.16-1.88c0-5.94,4.17-13.17,9.32-16.14a11.23,11.23,0,0,1,1.7-.8c4.34-1.58,7.62.91,7.62,6.18,0,5.94-4.17,13.17-9.32,16.14C399.34,183.78,395.55,182.19,394.75,177.64Z"/><path class="cls-13" d="M407,156.4a14.48,14.48,0,0,0-2,1c-6.23,3.59-11.27,12.33-11.27,19.51a11.62,11.62,0,0,0,.2,2.27c1,5.5,5.54,7.43,11.07,4.23,6.22-3.59,11.26-12.33,11.26-19.51C416.17,157.5,412.21,154.49,407,156.4Z"/><path class="cls-5" d="M404.82,162.08c2.13-1.23,3.86-.24,3.86,2.22a8.53,8.53,0,0,1-3.86,6.69c-2.13,1.23-3.86.23-3.86-2.23A8.53,8.53,0,0,1,404.82,162.08Z"/><path class="cls-5" d="M397.48,184.44c2,.87,4.58.59,7.43-1.06a22.41,22.41,0,0,0,7.43-7.53v-.65c0-4-2.84-5.68-6.34-3.66l-2.19,1.26a14,14,0,0,0-6.33,11Z"/></g><g id="Character"><path class="cls-13" d="M64,88.58c-6.95.34-11.85,2-16.83,7-3.66,3.68-11.55,25-8.11,42.32A20,20,0,0,0,68,151.9c9.49-4.84,11.33-19.83,11.06-28.58S64,88.58,64,88.58Z"/><path class="cls-8" d="M55.4,95s-1.88-2.45-6.24-1.08c0,0-4.6,5.54-8.15,16,0,0-1.13,0-.41-3s3.6-10,5.45-12.48,4.46-4.53,17-9.13c11-4,7.48,6,7.48,6Z"/><path class="cls-13" d="M34,237.26c-1.47-.76-2.4,1.11-3.73,2.6-.94,1-2.39,2.71-2.61,3.9-.32,1.77,1.28,4.56,3,6.09s3.82,2.64,4.46,6,2,5.37,5.43,6.87c3.83,1.65,9,1.12,10.68,0,2.06-1.33.18-2.79-2.7-6.91-3.76-5.38-6.69-9.23-6.69-14.25Z"/><path class="cls-14" d="M37,232.85,34,237.38a4.34,4.34,0,0,0,1,6l.1.06a4.67,4.67,0,0,0,5.91-.92l4.82-5.26Z"/><path class="cls-8" d="M94.56,145.88c.2,5.77-.78,27.84-5,38.88a103,103,0,0,1-8.76,18c-1.26,2.15-37.4,37.34-37.4,37.34s-6.13-.45-7.11-6.4c0,0,14.81-25.17,18-30.34s14.56-13.08,14.56-13.08l-1-48.4Z"/><rect class="cls-14" x="84.44" y="255.3" width="7.84" height="11.41" transform="translate(232.38 495.92) rotate(167.19)"/><path class="cls-8" d="M79.83,164.53a48.49,48.49,0,0,0,7-8.05c5.84-8.07,4.94-15.24,4.94-15.24H89.37l-35.18,4.64a44.73,44.73,0,0,0,.42,17.28c3.09,15.6,15.63,42.23,15.63,42.23-.18,2.16-1.09,11.21,1,19.23,3.24,12.66,12.07,34.08,12.07,34.08s5.54.79,8.28-2.41c0,0-4.89-43.49-6.2-54.63C83.92,189.6,79.83,164.53,79.83,164.53Z"/><path class="cls-13" d="M92.59,261.93l-.25-1.1c.8.16,4.23,5.85,7.63,8.33,3.73,2.71,7,4.31,8.63,5.53,2.23,1.63-1,5-6.48,5.28a16.22,16.22,0,0,1-7.52-1.26c-2.39-1.14-3.84-3.27-5.66-5.1-1.33-1.35-3.34-2.32-4.35-3.95-.46-.73-.53-2.55-.48-4.11s.1-3,.59-3c0,.16.19.83.19.83a9.47,9.47,0,0,0,4.64,1C90.82,264.37,93.22,264.07,92.59,261.93Z"/><path class="cls-13" d="M84.38,194.28s-3.68-26.17-4.55-29.75c0,0,6.49-2.48,8.49-4.74,0,0-1.43,3.17-6.07,6Z"/><path class="cls-13" d="M70.24,205.39c-1.57-2.15-5.48-11.88-5.48-11.88l4,12.59c-1,3.77-.92,10-.92,10l2.05-1.79C69.85,212.81,70.24,205.39,70.24,205.39Z"/><path class="cls-14" d="M90.62,135c-5.08-17.15-4-31.65-5-36.09l13.11,18.46a163.56,163.56,0,0,0,2.64,18.08c1.5,6.55,3.55,14.72,6,19.8a4.08,4.08,0,0,0,2.14,2c2.48,1,3.63,2.31,5.62,3.79,1.56,1.16,2.75,1.32,2.65,1.79a2.22,2.22,0,0,1-2.63,1.46,15.29,15.29,0,0,1-3.47-1.19,20.43,20.43,0,0,0,4.21,5.06c3.8,3.32,4.34,5.67-2,6.8-4,.71-7.57-1.2-12.06-9.47A72.41,72.41,0,0,1,97.42,156C94.42,147.61,92.16,140.14,90.62,135Z"/><path class="cls-5" d="M81.2,91.22c6.17.06,12.25,1.45,14.34,8s4.68,25,4.68,25-2.6,3.45-11.26,2.88Z"/><path class="cls-5" d="M81.2,91.22c6.17.06,12.25,1.45,14.34,8s4.68,25,4.68,25-2.6,3.45-11.26,2.88Z"/><g class="cls-15"><path d="M81.2,91.22c6.17.06,12.25,1.45,14.34,8s4.68,25,4.68,25-2.6,3.45-11.26,2.88Z"/></g><path class="cls-5" d="M68.52,91.59c-4.34,1-9.35,1.89-13.55,4-2.92,1.44,1.27,25.64,1.27,25.64l-2.05,24.7c5.76,6.27,27.8,9.18,40.37,0v-40c0-6.39-3.55-14.07-13.36-14.64Z"/><polygon class="cls-5" points="56.22 120.7 60.02 110.2 55.58 129.07 56.22 120.7"/><polygon class="cls-16" points="56.22 120.7 60.02 110.2 55.58 129.07 56.22 120.7"/><path class="cls-13" d="M61.68,69.34,64.4,80.08a5.18,5.18,0,0,0,5,3.91h3.18V69Z"/><circle class="cls-13" cx="83.53" cy="65.4" r="11.51" transform="translate(-7.38 10.73) rotate(-7.04)"/><path class="cls-13" d="M65.76,58.86a4.37,4.37,0,0,0-3.62,1.27c-1.56,1.59-1.23,4.54,0,11.3L67,72Z"/><path class="cls-14" d="M68,72c-.71.43-1.73-.94-2.61-1.86s-3.75-2.18-5.18.84.82,7.13,3,8a3.35,3.35,0,0,0,4.43-1.41l.86,14A12.55,12.55,0,0,0,78,98.77c6.91.93,5.49-4.76,3.22-7.55V86.94a21.38,21.38,0,0,0,5.25.27c2.52-.47,3.76-2.81,5-5.81,1.77-4.46,2.86-10.79,1.33-18.8C90.69,52,78.93,51.75,72.19,56S68,72,68,72Z"/><path class="cls-13" d="M68,73.18c-.36,0-1.72-2.25-2.61-3.06-1.23-1.12.36-11.26.36-11.26.62-8.31,12.88-8.94,16.27-9.18,7.76-.56,13,3.74,10.93,9.15-1.4,2.46-4.27,3.13-7,3.46-4.57.56-12.34-1.89-13.32-2-1.32-.18-1.6,1.11-2.32,4.61C69.74,68,69.22,73.16,68,73.18Z"/><path class="cls-13" d="M65.77,59.65l-4.32-2.32a2.39,2.39,0,0,1,3.27-1.08A2.58,2.58,0,0,1,65.77,59.65Z"/><path class="cls-17" d="M81.19,86.94s-6.4-1.29-8.64-2.48a7.39,7.39,0,0,1-3.09-3.06A10.07,10.07,0,0,0,71.22,85c1.64,2.09,10,3.63,10,3.63Z"/><path class="cls-13" d="M81.39,71.75a1.28,1.28,0,1,1-1.28-1.34A1.32,1.32,0,0,1,81.39,71.75Z"/><path class="cls-13" d="M80,66.91l-2.74,1.51a1.64,1.64,0,0,1,.64-2.18A1.52,1.52,0,0,1,80,66.91Z"/><path class="cls-17" d="M80.61,80.32l2.92,1.1a1.53,1.53,0,0,1-2,1A1.64,1.64,0,0,1,80.61,80.32Z"/><path class="cls-13" d="M92.15,68l-2.5-1.93a1.53,1.53,0,0,1,2.18-.33A1.66,1.66,0,0,1,92.15,68Z"/><path class="cls-13" d="M91.39,71a1.28,1.28,0,1,1-1.28-1.33A1.3,1.3,0,0,1,91.39,71Z"/><polygon class="cls-17" points="86.01 71.23 84.81 78.86 89.03 78.36 86.01 71.23"/><path class="cls-8" d="M64.3,91.33S74,95.64,75,110.54c2.19,31.16-21.27,38.33-21.27,38.33-2-3.93-.39-9.24,1.25-13a25.82,25.82,0,0,0,11.67-23.11c-.54-11.36-6.18-17.72-9-18.59A19.12,19.12,0,0,1,64.3,91.33Z"/><path class="cls-14" d="M46.07,149.76c4.2-1.47,5.25-2,10.54-6.27s9.77-9.94,14-15.57a16.22,16.22,0,0,1,1.69-1.83,16.71,16.71,0,0,0,2.86-3.23c1.85-2.81,1.88-4.64,2.06-8a28.28,28.28,0,0,0-1.39-9.95,2.7,2.7,0,0,0-.47-1,1,1,0,0,0-1-.36,1.47,1.47,0,0,0-.69.64c-1.18,1.81-2,3.82-3.17,5.64-.53.84-.9,1.17-1.38,2-.06.11-1,1.07-1.18.64s.4-1.72.19-3.84-.79-2.89-1.44-3c-1-.26-1,.86-1.45,2.55-.51,2-1.29,3.66-1.2,6.63a18.29,18.29,0,0,1-.88,6c-.57,2.29-3.18,7.45-9.64,11.43-1.41.86-1.86,1-1-2.37a100.25,100.25,0,0,1,6.06-18.53c2.58-5.87,4.36-10.37,2-12.75-4.13-4.11-9.92-1.76-13.15,5.21-3.73,8.07-5.77,14.19-7.27,29C39.44,139.15,38.84,152.28,46.07,149.76Z"/><path class="cls-5" d="M58.13,94.34c-4.88.22-8.13,2.19-11.36,8.56s-5.71,17.55-5.71,17.55,4.59,4.89,13.5,4.64c0,0,5.6-14.68,6.67-18.64C62.4,102.15,61.38,95.82,58.13,94.34Z"/></g></g></g></svg>