<?xml version="1.0" encoding="UTF-8"?><svg id="Capa_2" xmlns="http://www.w3.org/2000/svg" viewBox="0 0 820.55 820.55"><g id="Capa_1-2"><path d="M410.27,223.47c-103.26,0-186.97,83.71-186.97,186.97s83.71,186.97,186.97,186.97,186.97-83.71,186.97-186.97c-.12-103.21-83.76-186.85-186.97-186.97Z" style="fill:#478aff;"/><circle cx="678.73" cy="154.88" r="85.17" style="fill:#478aff;"/><path d="M783.6,240.5l-3.57-7.81-5.58,6.47c-13.96,15.84-31.62,28-51.4,35.38l-5.58,2.01,2.23,5.58c71.12,171.03-9.88,367.32-180.9,438.44s-367.32-9.88-438.44-180.9c-71.12-171.03,9.88-367.32,180.9-438.44,87.72-36.48,186.8-34.04,272.62,6.71l5.25,2.51,2.29-5.58c8.34-19.4,21.34-36.44,37.84-49.62l6.7-5.58-7.65-3.96C540.22,15.52,475.68-.16,410.22,0,183.63.03-.03,183.75,0,410.34c.03,226.59,183.75,410.25,410.33,410.22,226.59-.03,410.25-183.75,410.22-410.33,0-58.74-12.63-116.79-37.01-170.22l.06.5Z" style="fill:#478aff;"/></g></svg>