<svg id="Group_19" data-name="Group 19" xmlns="http://www.w3.org/2000/svg" width="116" height="195" viewBox="0 0 116 195">
  <circle id="Ellipse_4" data-name="Ellipse 4" cx="2.5" cy="2.5" r="2.5" fill="#001e35"/>
  <circle id="Ellipse_6" data-name="Ellipse 6" cx="2.5" cy="2.5" r="2.5" transform="translate(72)" fill="#001e35"/>
  <circle id="Ellipse_5" data-name="Ellipse 5" cx="2.5" cy="2.5" r="2.5" transform="translate(35)" fill="#001e35"/>
  <circle id="Ellipse_7" data-name="Ellipse 7" cx="2.5" cy="2.5" r="2.5" transform="translate(111)" fill="#001e35"/>
  <circle id="Ellipse_4-2" data-name="Ellipse 4" cx="2.5" cy="2.5" r="2.5" transform="translate(0 38)" fill="#001e35"/>
  <circle id="Ellipse_6-2" data-name="Ellipse 6" cx="2.5" cy="2.5" r="2.5" transform="translate(72 38)" fill="#001e35"/>
  <circle id="Ellipse_5-2" data-name="Ellipse 5" cx="2.5" cy="2.5" r="2.5" transform="translate(35 38)" fill="#001e35"/>
  <circle id="Ellipse_7-2" data-name="Ellipse 7" cx="2.5" cy="2.5" r="2.5" transform="translate(111 38)" fill="#001e35"/>
  <circle id="Ellipse_4-3" data-name="Ellipse 4" cx="2.5" cy="2.5" r="2.5" transform="translate(0 77)" fill="#001e35"/>
  <circle id="Ellipse_6-3" data-name="Ellipse 6" cx="2.5" cy="2.5" r="2.5" transform="translate(72 77)" fill="#001e35"/>
  <circle id="Ellipse_5-3" data-name="Ellipse 5" cx="2.5" cy="2.5" r="2.5" transform="translate(35 77)" fill="#001e35"/>
  <circle id="Ellipse_7-3" data-name="Ellipse 7" cx="2.5" cy="2.5" r="2.5" transform="translate(111 77)" fill="#001e35"/>
  <circle id="Ellipse_4-4" data-name="Ellipse 4" cx="2.5" cy="2.5" r="2.5" transform="translate(0 113)" fill="#001e35"/>
  <circle id="Ellipse_6-4" data-name="Ellipse 6" cx="2.5" cy="2.5" r="2.5" transform="translate(72 113)" fill="#001e35"/>
  <circle id="Ellipse_5-4" data-name="Ellipse 5" cx="2.5" cy="2.5" r="2.5" transform="translate(35 113)" fill="#001e35"/>
  <circle id="Ellipse_7-4" data-name="Ellipse 7" cx="2.5" cy="2.5" r="2.5" transform="translate(111 113)" fill="#001e35"/>
  <circle id="Ellipse_4-5" data-name="Ellipse 4" cx="2.5" cy="2.5" r="2.5" transform="translate(0 152)" fill="#001e35"/>
  <circle id="Ellipse_6-5" data-name="Ellipse 6" cx="2.5" cy="2.5" r="2.5" transform="translate(72 152)" fill="#001e35"/>
  <circle id="Ellipse_5-5" data-name="Ellipse 5" cx="2.5" cy="2.5" r="2.5" transform="translate(35 152)" fill="#001e35"/>
  <circle id="Ellipse_7-5" data-name="Ellipse 7" cx="2.5" cy="2.5" r="2.5" transform="translate(111 152)" fill="#001e35"/>
  <circle id="Ellipse_4-6" data-name="Ellipse 4" cx="2.5" cy="2.5" r="2.5" transform="translate(0 190)" fill="#001e35"/>
  <circle id="Ellipse_6-6" data-name="Ellipse 6" cx="2.5" cy="2.5" r="2.5" transform="translate(72 190)" fill="#001e35"/>
  <circle id="Ellipse_5-6" data-name="Ellipse 5" cx="2.5" cy="2.5" r="2.5" transform="translate(35 190)" fill="#001e35"/>
  <circle id="Ellipse_7-6" data-name="Ellipse 7" cx="2.5" cy="2.5" r="2.5" transform="translate(111 190)" fill="#001e35"/>
</svg>
