<?xml version="1.0" encoding="utf-8"?>
<!-- Generator: Adobe Illustrator 25.4.1, SVG Export Plug-In . SVG Version: 6.00 Build 0)  -->
<svg version="1.1" id="Capa_1" xmlns="http://www.w3.org/2000/svg" xmlns:xlink="http://www.w3.org/1999/xlink" x="0px" y="0px"
	 viewBox="0 0 588.2 155.4" style="enable-background:new 0 0 588.2 155.4;" xml:space="preserve">
<style type="text/css">
	.st0{fill:#FFFFFF;}
</style>
<g>
	<path class="st0" d="M520.7,0c-22.4,0-44.1,7.5-61.6,21.5c-6.8,5.4-7.8,15.3-2.4,22.1c0.4,0.5,0.7,0.9,1.2,1.3l0,0
		c5.7,5.7,14.7,6.1,21,1.1c24.5-19.4,59.2-19.4,83.7,0c6.3,5,15.3,4.5,21-1.1l0,0c6.2-6.1,6.2-16.1,0-22.2c-0.4-0.4-0.8-0.8-1.3-1.2
		C564.8,7.5,543.1,0,520.7,0z"/>
	<g>
		<path class="st0" d="M29.3,92.6c-4.4-1.5-8.3-3-11.9-4.5c-3.3-1.4-6.4-3.3-9.2-5.6c-2.5-2.1-4.6-4.8-6-7.8
			C0.6,71.2-0.1,67.4,0,63.6c-0.2-7.9,3.4-15.5,9.7-20.2c6.5-5.1,15.6-7.6,27.3-7.6c4,0,8,0.3,11.9,0.9c3.3,0.5,6.4,1.4,9.4,2.8
			c2.4,1.1,4.5,2.7,6.2,4.8c1.5,1.9,2.3,4.3,2.3,6.8c0.1,2.3-0.5,4.6-1.8,6.6c-1.2,1.8-2.6,3.4-4.3,4.7c-2.7-1.6-5.7-2.8-8.8-3.6
			c-3.9-1.1-7.9-1.6-12-1.6c-4.5,0-7.7,0.6-9.8,1.9S27,61.7,27,63.6c0,1.5,0.7,2.8,1.9,3.6c1.8,1.2,3.7,2,5.8,2.6l7.9,2.5
			c9.3,3,16.4,6.8,21.4,11.4s7.5,10.9,7.5,18.8c0.2,8-3.5,15.7-10,20.4c-6.7,5.2-16.4,7.8-29.3,7.8c-4.3,0-8.5-0.3-12.7-1.1
			c-3.6-0.6-7-1.7-10.3-3.3c-2.7-1.2-5-3.1-6.8-5.3c-1.6-2.1-2.4-4.7-2.4-7.4c-0.1-2.7,0.8-5.3,2.5-7.4c1.5-1.9,3.4-3.5,5.5-4.7
			c3.1,2.4,6.5,4.3,10.2,5.7c4.2,1.6,8.7,2.4,13.2,2.4c4.8,0,8.3-0.7,10.3-2.2c1.8-1.1,2.9-3.1,3-5.2c0.1-1.8-0.8-3.6-2.4-4.5
			c-2.1-1.3-4.3-2.3-6.7-3L29.3,92.6z"/>
		<path class="st0" d="M109,103.6c0,2.6,0.8,4.4,2.4,5.5c2.1,1.2,4.5,1.8,6.9,1.6c1.5,0,3.1-0.1,4.6-0.4c1.4-0.2,2.8-0.6,4.2-1
			c0.9,1.1,1.7,2.3,2.3,3.6c0.7,1.5,1,3.2,1,4.8c0.1,3.6-1.5,7-4.2,9.2c-2.8,2.4-7.8,3.6-14.9,3.6c-8.7,0-15.5-2-20.2-5.9
			c-4.7-4-7.1-10.4-7.1-19.3V41.8c1.1-0.3,2.7-0.6,4.7-1c2.1-0.4,4.3-0.5,6.5-0.5c4.4,0,7.8,0.8,10.2,2.3s3.6,4.8,3.7,9.8v9.5h19.5
			c0.7,1.3,1.3,2.7,1.7,4.1c0.6,1.8,0.8,3.6,0.8,5.4c0,3.5-0.8,6-2.3,7.5c-1.7,1.6-3.9,2.4-6.2,2.3H109V103.6z"/>
		<path class="st0" d="M143.2,57.2c1.5-0.4,3.1-0.7,4.7-0.9c2.2-0.3,4.4-0.4,6.6-0.4c2,0,3.9,0.1,5.9,0.4c1.6,0.2,3.1,0.9,4.4,1.8
			c1.2,0.9,2.2,2.2,2.8,3.6c0.7,1.9,1.1,4,1,6v32c0,4.1,1,7,3,8.7s4.9,2.6,8.6,2.6c1.9,0,3.8-0.2,5.6-0.6c1.2-0.3,2.3-0.7,3.4-1.2
			v-52c1.5-0.4,3.1-0.7,4.7-0.9c2.2-0.3,4.4-0.4,6.6-0.4c2,0,3.9,0.1,5.9,0.4c1.6,0.2,3.1,0.9,4.4,1.8c1.2,0.9,2.2,2.2,2.8,3.6
			c0.7,1.9,1.1,4,1,6V113c0.2,4.6-2.3,8.9-6.4,11.1c-3.8,2.3-8,4-12.4,5c-5.1,1.2-10.4,1.8-15.7,1.7c-5,0-10-0.6-14.8-1.8
			c-4.2-1-8.2-2.9-11.7-5.5c-3.3-2.5-5.9-5.8-7.6-9.6c-1.9-4.5-2.8-9.3-2.7-14.2L143.2,57.2z"/>
		<path class="st0" d="M226.6,92.3c-0.1-5.8,0.9-11.6,3-17c1.8-4.6,4.6-8.7,8.2-12c3.6-3.2,7.8-5.6,12.3-7.1
			c4.9-1.6,10.1-2.4,15.3-2.3c1.9,0,3.9,0.2,5.8,0.5c1.6,0.3,3.1,0.7,4.6,1.3V31.6c1.6-0.4,3.2-0.8,4.8-1c2.2-0.4,4.4-0.5,6.7-0.5
			c2,0,3.9,0.1,5.9,0.5c1.6,0.2,3.1,0.8,4.4,1.8c1.2,0.9,2.1,2.2,2.7,3.7c0.7,1.9,1,4,0.9,6v70.5c0,4.7-2.2,8.4-6.5,11.2
			c-3.5,2.2-7.2,3.8-11.1,5c-10.8,3-22.3,2.9-33.1-0.5c-4.8-1.6-9.2-4.2-12.9-7.7c-3.5-3.4-6.3-7.5-8-12.1
			C227.5,103.2,226.5,97.8,226.6,92.3z M268.9,73.7c-5.3,0-9.5,1.5-12.4,4.6s-4.3,7.7-4.3,14c0,6.1,1.3,10.8,4,13.9
			s6.5,4.7,11.6,4.7c1.6,0,3.3-0.3,4.8-0.8c1.2-0.4,2.3-1.1,3.3-1.9V75.5C273.8,74.3,271.3,73.7,268.9,73.7z"/>
		<path class="st0" d="M355.1,130.8c-5.5,0-11-0.8-16.3-2.4c-4.8-1.5-9.3-4-13.1-7.4c-3.8-3.4-6.8-7.6-8.7-12.3
			c-2.2-5.5-3.3-11.4-3.2-17.4c-0.1-5.8,0.9-11.5,3.2-16.9c1.9-4.4,4.8-8.4,8.4-11.6c3.5-3,7.5-5.3,11.9-6.7s9-2.2,13.7-2.2
			c4.9-0.1,9.7,0.7,14.4,2.4c4.1,1.5,7.9,3.7,11.1,6.5c3.1,2.8,5.6,6.2,7.3,10c1.8,4,2.6,8.3,2.6,12.6c0,3.4-1,5.9-2.8,7.7
			c-2.2,1.9-5,3.1-7.9,3.4L339,102c1.1,3.3,3.5,6,6.7,7.4c3.6,1.7,7.6,2.5,11.6,2.4c3.9,0,7.8-0.5,11.5-1.6c3.1-0.8,6.1-2,8.8-3.6
			c1.6,1.1,3,2.5,4,4.2c1.1,1.7,1.6,3.7,1.6,5.7c0,4.5-2.1,7.8-6.2,10c-3.4,1.7-7,2.9-10.7,3.4C362.6,130.5,358.8,130.8,355.1,130.8
			z M350.9,72.4c-2.1-0.1-4.2,0.4-6.2,1.2c-1.6,0.7-3.1,1.7-4.2,3.1c-1.1,1.2-1.9,2.6-2.5,4.2c-0.6,1.5-0.9,3.1-1,4.7l25.4-4.2
			c-0.4-2.3-1.6-4.4-3.3-6C357.4,73.4,354.6,72.4,350.9,72.4z"/>
		<path class="st0" d="M444.3,82.6c0-3.1-0.9-5.3-2.6-6.8c-2-1.5-4.5-2.3-7.1-2.2c-2,0-4,0.3-5.9,0.7c-1.8,0.4-3.5,1.2-5,2.2v51.6
			c-1.5,0.4-3.1,0.7-4.7,0.9c-2.2,0.3-4.4,0.5-6.6,0.4c-2,0-3.9-0.1-5.9-0.4c-1.6-0.2-3.1-0.8-4.4-1.8c-1.2-0.9-2.2-2.2-2.8-3.6
			c-0.7-1.9-1.1-4-1-6V73.1c-0.1-2.3,0.5-4.6,1.7-6.5c1.3-1.8,2.9-3.4,4.7-4.6c3.9-2.6,8.2-4.6,12.7-5.8c5.5-1.5,11.3-2.3,17-2.2
			c11.2,0,19.8,2.5,25.9,7.4s9.1,11.7,9.1,20.4v46.5c-1.5,0.4-3.1,0.7-4.7,0.9c-2.2,0.3-4.4,0.5-6.6,0.4c-2,0-3.9-0.1-5.9-0.4
			c-1.6-0.2-3.1-0.9-4.4-1.8c-1.2-0.9-2.2-2.2-2.8-3.6c-0.7-1.9-1.1-4-1-6L444.3,82.6z"/>
		<path class="st0" d="M520.4,53.9c5.2-0.1,10.4,0.7,15.4,2.2c4.2,1.2,8.1,3.1,11.7,5.6c1.8,1.2,3.4,2.8,4.7,4.6
			c1.2,2,1.8,4.2,1.7,6.6v52c0.1,4.7-0.9,9.4-3,13.6c-1.9,3.8-4.7,7-8.1,9.5c-3.6,2.6-7.7,4.5-12,5.6c-4.8,1.2-9.8,1.8-14.8,1.8
			c-9,0-16.1-1.2-21.3-3.6c-5.2-2.4-7.7-6.4-7.7-11.8c0-2.1,0.4-4.2,1.4-6c0.8-1.5,1.9-2.9,3.2-3.9c3.1,1.7,6.4,3,9.7,4
			c3.6,1.1,7.4,1.6,11.2,1.6c5.3,0,9.6-0.9,12.8-2.7s4.8-4.7,4.8-8.6V122c-4.7,1.9-9.8,2.8-14.9,2.7c-4.3,0-8.6-0.6-12.7-2
			c-3.9-1.3-7.5-3.4-10.5-6.2c-3.2-3.1-5.7-6.8-7.3-10.9c-1.9-5.1-2.9-10.5-2.8-15.9c-0.1-5.4,0.9-10.8,2.9-15.8
			c1.8-4.3,4.5-8.1,8-11.1c3.6-3,7.7-5.2,12.2-6.5C510,54.6,515.2,53.9,520.4,53.9z M529.7,75.5c-1-0.5-2-0.9-3-1.2
			c-1.6-0.4-3.3-0.6-5-0.6c-4.9,0-8.5,1.4-10.9,4.1s-3.6,6.6-3.6,11.7c0,5.8,1.2,9.9,3.6,12.4s5.8,3.9,9.3,3.8
			c4.1,0,7.3-0.9,9.7-2.8L529.7,75.5z"/>
	</g>
</g>
</svg>
