<svg xmlns="http://www.w3.org/2000/svg" width="639.63544" height="134.80122" viewBox="0 0 639.63544 134.80122">
  <g id="ab638cb8-9a0a-41c3-b27d-e4905289b576" data-name="Capa 2">
    <g id="f0ba751b-f04f-4d0b-a694-fcdc9f9db03b" data-name="Capa 1">
      <g>
        <path d="M29.3094,73.00121c-4.4-1.5-8.3-3-11.9-4.5a37.779,37.779,0,0,1-9.2-5.6,22.98876,22.98876,0,0,1-6-7.8,25.0553,25.0553,0,0,1-2.2-11.1,24.46172,24.46172,0,0,1,9.7-20.2c6.5-5.1,15.6-7.6,27.3-7.6a78.47359,78.47359,0,0,1,11.9.9,33.99672,33.99672,0,0,1,9.4,2.8,17.03626,17.03626,0,0,1,6.2,4.8,10.94943,10.94943,0,0,1,2.3,6.8,11.17966,11.17966,0,0,1-1.8,6.6,19.28082,19.28082,0,0,1-4.3,4.7,33.95255,33.95255,0,0,0-8.8-3.6,43.95382,43.95382,0,0,0-12-1.6c-4.5,0-7.7.6-9.8,1.9s-3.1,2.6-3.1,4.5a4.2392,4.2392,0,0,0,1.9,3.6,20.21846,20.21846,0,0,0,5.8,2.6l7.9,2.5c9.3,3,16.4,6.8,21.4,11.4s7.5,10.9,7.5,18.8a24.43726,24.43726,0,0,1-10,20.4c-6.7,5.2-16.4,7.8-29.3,7.8a67.385,67.385,0,0,1-12.7-1.1,37.55134,37.55134,0,0,1-10.3-3.3,18.71266,18.71266,0,0,1-6.8-5.3,12.13724,12.13724,0,0,1-2.4-7.4,11.07425,11.07425,0,0,1,2.5-7.4,19.09672,19.09672,0,0,1,5.5-4.7,39.26068,39.26068,0,0,0,10.2,5.7,37.16357,37.16357,0,0,0,13.2,2.4c4.8,0,8.3-.7,10.3-2.2a6.46091,6.46091,0,0,0,3-5.2,4.868,4.868,0,0,0-2.4-4.5,26.92667,26.92667,0,0,0-6.7-3Z" style="fill: #fff"/>
        <path d="M109.00935,84.00121c0,2.6.8,4.4,2.4,5.5a11.95016,11.95016,0,0,0,6.9,1.6,23.83281,23.83281,0,0,0,4.6-.4,31.96609,31.96609,0,0,0,4.2-1,16.94075,16.94075,0,0,1,2.3,3.6,12.12726,12.12726,0,0,1-3.2,14c-2.8,2.4-7.8,3.6-14.9,3.6-8.7,0-15.5-2-20.2-5.9-4.7-4-7.1-10.4-7.1-19.3v-63.5c1.1-.3,2.7-.6,4.7-1a34.92485,34.92485,0,0,1,6.5-.5c4.4,0,7.8.8,10.2,2.3s3.6,4.8,3.7,9.8v9.5h19.5a20.87806,20.87806,0,0,1,1.7,4.1,16.84593,16.84593,0,0,1,.8,5.4c0,3.5-.8,6-2.3,7.5a8.4247,8.4247,0,0,1-6.2,2.3h-13.6v22.4Z" style="fill: #fff"/>
        <path d="M143.20936,37.60121a35.50065,35.50065,0,0,1,4.7-.9,48.7229,48.7229,0,0,1,6.6-.4,38.99919,38.99919,0,0,1,5.9.4,10.03566,10.03566,0,0,1,4.4,1.8,9.028,9.028,0,0,1,2.8,3.6,15.46078,15.46078,0,0,1,1,6v32q0,6.15,3,8.7c2,1.7,4.9,2.6,8.6,2.6a25.96634,25.96634,0,0,0,5.6-.6,19.5707,19.5707,0,0,0,3.4-1.2v-52a35.5,35.5,0,0,1,4.7-.9,48.7229,48.7229,0,0,1,6.6-.4,39.00048,39.00048,0,0,1,5.9.4,10.03578,10.03578,0,0,1,4.4,1.8,9.028,9.028,0,0,1,2.8,3.6,15.46083,15.46083,0,0,1,1,6v45.3a12.03677,12.03677,0,0,1-6.4,11.1,41.93478,41.93478,0,0,1-12.4,5,63.50886,63.50886,0,0,1-15.7,1.7,61.191,61.191,0,0,1-14.8-1.8,32.24008,32.24008,0,0,1-11.7-5.5,24.62893,24.62893,0,0,1-7.6-9.6,34.52939,34.52939,0,0,1-2.7-14.2Z" style="fill: #fff"/>
        <path d="M226.60938,72.70121a44.84306,44.84306,0,0,1,3-17,32.139,32.139,0,0,1,8.2-12,35.33625,35.33625,0,0,1,12.3-7.1,46.56141,46.56141,0,0,1,15.3-2.3,37.85082,37.85082,0,0,1,5.8.5,24.171,24.171,0,0,1,4.6,1.3v-24.1a40.9636,40.9636,0,0,1,4.8-1,37.10445,37.10445,0,0,1,6.7-.5,29.39559,29.39559,0,0,1,5.9.5,8.98087,8.98087,0,0,1,4.4,1.8,8.49516,8.49516,0,0,1,2.7,3.7,15.37431,15.37431,0,0,1,.9,6v70.5c0,4.7-2.2,8.4-6.5,11.2a46.1132,46.1132,0,0,1-11.1,5,58.28216,58.28216,0,0,1-33.1-.5,34.68235,34.68235,0,0,1-12.9-7.7,32.82671,32.82671,0,0,1-8-12.1A41.54359,41.54359,0,0,1,226.60938,72.70121Zm42.3-18.6c-5.3,0-9.5,1.5-12.4,4.6s-4.3,7.7-4.3,14c0,6.1,1.3,10.8,4,13.9s6.5,4.7,11.6,4.7a15.58349,15.58349,0,0,0,4.8-.8,10.90948,10.90948,0,0,0,3.3-1.9v-32.7A14.31013,14.31013,0,0,0,268.90937,54.10121Z" style="fill: #fff"/>
        <path d="M355.10938,111.20121a56.431,56.431,0,0,1-16.3-2.4,35.56153,35.56153,0,0,1-13.1-7.4,33.3005,33.3005,0,0,1-8.7-12.3,44.7908,44.7908,0,0,1-3.2-17.4,40.99657,40.99657,0,0,1,3.2-16.9,33.25032,33.25032,0,0,1,8.4-11.6,34.20859,34.20859,0,0,1,11.9-6.7,45.1507,45.1507,0,0,1,13.7-2.2,39.62158,39.62158,0,0,1,14.4,2.4,35.27655,35.27655,0,0,1,11.1,6.5,30.02312,30.02312,0,0,1,7.3,10,30.59862,30.59862,0,0,1,2.6,12.6,10.35562,10.35562,0,0,1-2.8,7.7,14.44609,14.44609,0,0,1-7.9,3.4l-36.7,5.5a12.26019,12.26019,0,0,0,6.7,7.4,25.71482,25.71482,0,0,0,11.6,2.4,40.43664,40.43664,0,0,0,11.5-1.6,33.95177,33.95177,0,0,0,8.8-3.6,13.37782,13.37782,0,0,1,4,4.2,10.46093,10.46093,0,0,1,1.6,5.7c0,4.5-2.1,7.8-6.2,10a34.26581,34.26581,0,0,1-10.7,3.4A70.475,70.475,0,0,1,355.10938,111.20121Zm-4.2-58.4a14.89593,14.89593,0,0,0-6.2,1.2,10.72145,10.72145,0,0,0-4.2,3.1,12.67207,12.67207,0,0,0-2.5,4.2,15.19083,15.19083,0,0,0-1,4.7l25.4-4.2a10.86325,10.86325,0,0,0-3.3-6C357.40937,53.80121,354.60938,52.80121,350.90937,52.80121Z" style="fill: #fff"/>
        <path d="M444.30936,63.00121c0-3.1-.9-5.3-2.6-6.8a11.11465,11.11465,0,0,0-7.1-2.2,28.8456,28.8456,0,0,0-5.9.7,14.97107,14.97107,0,0,0-5,2.2v51.6a35.502,35.502,0,0,1-4.7.9,36.57381,36.57381,0,0,1-6.6.4,39.00213,39.00213,0,0,1-5.9-.4,9.03385,9.03385,0,0,1-7.2-5.4,15.461,15.461,0,0,1-1-6v-44.5a11.32681,11.32681,0,0,1,1.7-6.5,18.662,18.662,0,0,1,4.7-4.6,42.95631,42.95631,0,0,1,12.7-5.8,61.04684,61.04684,0,0,1,17-2.2c11.2,0,19.8,2.5,25.9,7.4s9.1,11.7,9.1,20.4v46.5a35.502,35.502,0,0,1-4.7.9,36.57385,36.57385,0,0,1-6.6.4,39.00306,39.00306,0,0,1-5.9-.4,10.03556,10.03556,0,0,1-4.4-1.8,9.02851,9.02851,0,0,1-2.8-3.6,15.46134,15.46134,0,0,1-1-6Z" style="fill: #fff"/>
        <path d="M520.40937,33.30121a50.33728,50.33728,0,0,1,15.4,2.2,39.44252,39.44252,0,0,1,11.7,5.6,18.66279,18.66279,0,0,1,4.7,4.6,11.65006,11.65006,0,0,1,1.7,6.6v52a29.08066,29.08066,0,0,1-3,13.6,26.54661,26.54661,0,0,1-8.1,9.5,35.62314,35.62314,0,0,1-12,5.6,61.19112,61.19112,0,0,1-14.8,1.8q-13.5,0-21.3-3.6c-5.2-2.4-7.7-6.4-7.7-11.8a12.33781,12.33781,0,0,1,1.4-6,12.18607,12.18607,0,0,1,3.2-3.9,50.86346,50.86346,0,0,0,9.7,4,38.39859,38.39859,0,0,0,11.2,1.6c5.3,0,9.6-.9,12.8-2.7a9.182,9.182,0,0,0,4.8-8.6v-2.4a37.86288,37.86288,0,0,1-14.9,2.7,39.22825,39.22825,0,0,1-12.7-2,28.6625,28.6625,0,0,1-10.5-6.2,30.77264,30.77264,0,0,1-7.3-10.9,43.35376,43.35376,0,0,1-2.8-15.9,40.63843,40.63843,0,0,1,2.9-15.8,29.57168,29.57168,0,0,1,8-11.1,33.47517,33.47517,0,0,1,12.2-6.5A47.65918,47.65918,0,0,1,520.40937,33.30121Zm9.3,21.6a18.76964,18.76964,0,0,0-3-1.2,20.74049,20.74049,0,0,0-5-.6c-4.9,0-8.5,1.4-10.9,4.1s-3.6,6.6-3.6,11.7c0,5.8,1.2,9.9,3.6,12.4a12.44722,12.44722,0,0,0,9.3,3.8c4.1,0,7.3-.9,9.7-2.8Z" style="fill: #fff"/>
        <path d="M604.342,104.91617a8.39228,8.39228,0,0,1-6.32178-2.36133,8.98025,8.98025,0,0,1-2.293-6.53125V77.54312H577.52509a8.449,8.449,0,0,1-6.25293-2.22265,8.25565,8.25565,0,0,1-2.22314-6.11426,8.02619,8.02619,0,0,1,2.22314-6.04395,8.6165,8.6165,0,0,1,6.25293-2.15332h18.20215V43.08414a8.7342,8.7342,0,0,1,2.293-6.46094,8.73694,8.73694,0,0,1,6.46094-2.293q4.16822,0,6.32226,2.293a9.07573,9.07573,0,0,1,2.15381,6.46094v17.9248h18.20215a8.62354,8.62354,0,0,1,6.25293,2.15332,8.03551,8.03551,0,0,1,2.22314,6.04395,8.21674,8.21674,0,0,1-2.22314,6.18359,8.61107,8.61107,0,0,1-6.25293,2.15332H612.95722V96.02359a9.53166,9.53166,0,0,1-2.08447,6.53125Q608.789,104.9191,604.342,104.91617Z" style="fill: #fff"/>
        <path d="M520.21423,0a64.895,64.895,0,0,0-40.45031,14.14765,10.313,10.313,0,0,0-1.59411,14.54617,6.44542,6.44542,0,0,0,.79705.89668h0a10.35912,10.35912,0,0,0,13.74913.69742,44.1679,44.1679,0,0,1,54.89687,0A10.35355,10.35355,0,0,0,561.362,29.5905h0a10.16491,10.16491,0,0,0,0-14.54617c-.2989-.2989-.59779-.49816-.89667-.79705A63.25126,63.25126,0,0,0,520.21423,0Z" style="fill: #fff"/>
      </g>
    </g>
  </g>
</svg>
