<svg xmlns="http://www.w3.org/2000/svg" viewBox="0 0 896.99 607.61">
  <title>logo</title>
  <g id="Capa_2" data-name="Capa 2">
    <g id="Capa_1-2" data-name="Capa 1">
      <g>
        <g>
          <path d="M99.71,533.11q-6.28-15.75-12.47-30T74.48,475H51.92q-6.57,13.88-12.75,28.14t-12.46,30q-6.29,15.75-12.84,33.39T0,605H25.3q2.58-7.37,5.26-14.82T35.82,575H89.69q2.58,7.72,5.35,15.09T100.39,605h26.24q-7.3-20.84-14-38.46T99.71,533.11ZM41.3,556q6-16.76,11.57-31.05t9.88-24.27q4.14,9.6,9.79,24.08T84.2,556Z" style="fill: #ff5252"/>
          <path d="M200.35,586.54a44.84,44.84,0,0,1-6.81.94c-3,.26-5.94.38-8.67.38q-11.37,0-16-6.78t-4.57-22.57V507h-23v55.12a75.88,75.88,0,0,0,2.08,18.35,36.83,36.83,0,0,0,6.88,14.39,31.89,31.89,0,0,0,12.82,9.41q8,3.38,19.88,3.38a139.55,139.55,0,0,0,23.19-1.78q10.55-1.8,17.15-3.49V507h-23Z" style="fill: #ff5252"/>
          <path d="M381.92,518a27.89,27.89,0,0,0-11.68-9.22q-7.44-3.28-18.92-3.3a42.69,42.69,0,0,0-8.94.95,64.05,64.05,0,0,0-8.38,2.35,54.4,54.4,0,0,0-7.16,3.1,45.27,45.27,0,0,0-5.27,3.2,32.13,32.13,0,0,0-10.83-7q-6.5-2.64-16.66-2.64a143,143,0,0,0-22.5,1.7,153.8,153.8,0,0,0-17.23,3.57V606h23V526.55q2.23-.37,6.71-.93a65.46,65.46,0,0,1,8.21-.57q10.44,0,14.26,6.87t3.82,22.29V606h23V551.58a108.12,108.12,0,0,0-.56-11.29,50.76,50.76,0,0,0-2.05-10,33,33,0,0,1,7.27-3.48,29.44,29.44,0,0,1,10.26-1.79q10.62,0,14.35,6.87t3.73,22.29V606h23V550.64a97.62,97.62,0,0,0-1.6-18.34A35.91,35.91,0,0,0,381.92,518Z" style="fill: #ff5252"/>
          <path d="M460.22,504.26a45.38,45.38,0,0,0-16.94,3.29,42.41,42.41,0,0,0-14.68,9.79,47.78,47.78,0,0,0-10.25,16.27,61.83,61.83,0,0,0-3.86,22.76,66.28,66.28,0,0,0,3,20.42A44,44,0,0,0,426.72,593a42,42,0,0,0,15.81,10.72q9.59,3.87,22.57,3.86a88.61,88.61,0,0,0,10-.56c3.25-.38,6.3-.85,9.12-1.41a75,75,0,0,0,7.53-1.89,36.6,36.6,0,0,0,5.17-2l-3-18.63a62.24,62.24,0,0,1-10.83,3.2,70.4,70.4,0,0,1-15.15,1.5c-9.39,0-16.59-2.16-21.54-6.49S438.64,570.86,438,563h64.92c.11-1.25.21-2.66.27-4.24s.09-3,.09-4.23q0-25-11.38-37.63T460.22,504.26Zm-22,42.7a39.77,39.77,0,0,1,2.07-8.48,23.59,23.59,0,0,1,4.23-7.33,21,21,0,0,1,6.68-5.17,20.36,20.36,0,0,1,9.22-2,19.75,19.75,0,0,1,8.74,1.79,18.22,18.22,0,0,1,6.23,4.89,21.66,21.66,0,0,1,3.84,7.34,29.84,29.84,0,0,1,1.33,8.94Z" style="fill: #ff5252"/>
          <path d="M603.63,518a31.4,31.4,0,0,0-12.86-9.22q-8.07-3.28-20.08-3.3a146.58,146.58,0,0,0-23.26,1.7,153.08,153.08,0,0,0-17.08,3.57V606h22V526.55q2.28-.37,7-.93a76.4,76.4,0,0,1,9.11-.57,27.5,27.5,0,0,1,10,1.6,13.63,13.63,0,0,1,6.45,5.08,23.87,23.87,0,0,1,3.42,9,74.61,74.61,0,0,1,1,13.45V606h23V550.64a79.71,79.71,0,0,0-2-18.34A35.2,35.2,0,0,0,603.63,518Z" style="fill: #ff5252"/>
          <path d="M692.2,586.73A42.9,42.9,0,0,1,681.08,588Q672,588,668.15,583T664.35,566V526h35V507h-35V477.22l-23,3.77v85.23a79.88,79.88,0,0,0,1.71,17.4,32.26,32.26,0,0,0,5.9,13,26.12,26.12,0,0,0,11.31,8.18q7.13,2.82,17.77,2.82a57.53,57.53,0,0,0,15.21-1.78,87.73,87.73,0,0,0,10.45-3.49l-3.8-18.06A76.81,76.81,0,0,1,692.2,586.73Z" style="fill: #ff5252"/>
          <path d="M781.35,586.54a44.84,44.84,0,0,1-6.81.94c-3,.26-5.94.38-8.67.38q-11.39,0-16-6.78t-4.57-22.57V507h-23v55.12a76.4,76.4,0,0,0,2.07,18.35,36.84,36.84,0,0,0,6.89,14.39,31.93,31.93,0,0,0,12.81,9.41q8,3.38,19.89,3.38a139.55,139.55,0,0,0,23.19-1.78q10.54-1.8,17.15-3.49V507h-23Z" style="fill: #ff5252"/>
          <path d="M892.43,507.65c-1.9-.44-3.86-.81-5.89-1.13s-4.06-.56-6.08-.75-3.81-.29-5.33-.29A104.79,104.79,0,0,0,853,507.65a127.19,127.19,0,0,0-16.64,4.61V606h23V527.12a58.66,58.66,0,0,1,14.07-2.07,58.54,58.54,0,0,1,11.69,1,73.37,73.37,0,0,1,7.89,2l4-19.19C895.85,508.5,894.33,508.09,892.43,507.65Z" style="fill: #ff5252"/>
        </g>
        <path d="M631.28,214.57C633.31,96.68,543.76,2.82,429.74.07,308.33-2.86,207.85,87.87,204.16,206,201.64,286.6,234.5,350.35,301,392.78c70.14,44.76,145.31,48.55,216.64,7.07C572,368.24,625,351.26,687.15,370.33,643.29,326.61,630.26,274.26,631.28,214.57Zm-369.75-.18a160.4,160.4,0,0,1,273.22-114,160.4,160.4,0,0,0-180,259.69A160.39,160.39,0,0,1,261.53,214.39Zm103.32,36.46a120.47,120.47,0,0,1,205.4-85.45A120.41,120.41,0,0,0,434.67,360.05,120.37,120.37,0,0,1,364.85,250.85Zm169.9,64.46a21.9,21.9,0,1,1,21.89-21.89A21.89,21.89,0,0,1,534.75,315.31ZM545.45,222A75.8,75.8,0,0,0,492,351.53a75.77,75.77,0,1,1,85.31-122.47A75.4,75.4,0,0,0,545.45,222Z" style="fill: #ff5252"/>
      </g>
    </g>
  </g>
</svg>
