<svg xmlns="http://www.w3.org/2000/svg" width="512" height="47.643" viewBox="0 0 512 47.643">
  <g id="Grupo_9" data-name="Grupo 9" transform="translate(-125 -380)">
    <path id="Path" d="M-25.526,47.624a25.8,25.8,0,0,1-15.311-4.511,19.763,19.763,0,0,1-8.075-12.375h0l12.466-2.945q2.434,8.866,10.92,8.866A11.753,11.753,0,0,0-16.6,33.146a12.98,12.98,0,0,0,3.339-9.334,12.929,12.929,0,0,0-3.339-9.32A11.781,11.781,0,0,0-25.53,11a10.753,10.753,0,0,0-6.723,2.05,11.368,11.368,0,0,0-3.865,5.905h0l-12.17-3.415A17.244,17.244,0,0,1-44.045,7.41,21.677,21.677,0,0,1-35.97,1.928,27.872,27.872,0,0,1-25.526,0,27.81,27.81,0,0,1-15.363,1.725,24.387,24.387,0,0,1-7.206,6.659a22.488,22.488,0,0,1,5.328,7.613A22.907,22.907,0,0,1,0,23.812a22.907,22.907,0,0,1-1.877,9.54A22.488,22.488,0,0,1-7.2,40.965,24.387,24.387,0,0,1-15.362,45.9a27.81,27.81,0,0,1-10.164,1.725Z" transform="translate(173.912 380.01)" fill="#fff"/>
    <path id="Path-2" data-name="Path" d="M22.564,46.2q10.492,0,16.5-4.946t6-13.7h0V0H31.773V26.34q0,8.915-9.21,8.915-9.308,0-9.308-8.915h0V0H0V27.56q0,8.821,5.953,13.734T22.564,46.2Z" transform="translate(184.76 381.427)" fill="#fff"/>
    <path id="Path-3" data-name="Path" d="M24.932,47.623q9.835,0,15.837-3.916t6-10.276A10.779,10.779,0,0,0,42.4,24.478q-4.375-3.4-13.617-5.4-6.219-1.4-8.783-2.126a13.888,13.888,0,0,1-3.585-1.394,2.53,2.53,0,0,1-1.184-1.8A3.089,3.089,0,0,1,17.2,10.981a11.8,11.8,0,0,1,5.361-1.018q7.8,0,10.328,6.36h0l12.334-2.444a16.57,16.57,0,0,0-7.8-10.088A27.806,27.806,0,0,0,22.564,0Q13.288,0,7.631,3.837A11.763,11.763,0,0,0,1.974,14a10.151,10.151,0,0,0,4.144,8.4q4.144,3.227,12.762,5.138,6.513,1.5,9.424,2.4a13.87,13.87,0,0,1,3.98,1.708,2.946,2.946,0,0,1,1.2,2.131,3.192,3.192,0,0,1-2.253,2.9,15.688,15.688,0,0,1-6.3,1.018q-5.526,0-8.47-2.021a10.435,10.435,0,0,1-4-6.595h0L0,31.015A17.34,17.34,0,0,0,7.762,43.28Q14.275,47.623,24.932,47.623Z" transform="translate(234.619 380.012)" fill="#fff"/>
    <path id="Path-4" data-name="Path" d="M29.5,44.79V10.963H45.851V0H0V10.963H16.216V44.79Z" transform="translate(285.546 381.427)" fill="#fff"/>
    <path id="Combined_Shape" data-name="Combined Shape" d="M25.159,47.623a27.827,27.827,0,0,1-9.8-1.725A24.5,24.5,0,0,1,7.2,40.965a22.593,22.593,0,0,1-5.328-7.613A23.015,23.015,0,0,1,0,23.812a23.018,23.018,0,0,1,1.877-9.54A22.58,22.58,0,0,1,7.205,6.66a24.488,24.488,0,0,1,8.158-4.934A27.845,27.845,0,0,1,25.166,0h.72a27.855,27.855,0,0,1,9.8,1.726A24.488,24.488,0,0,1,43.844,6.66a22.58,22.58,0,0,1,5.328,7.612,23,23,0,0,1,1.878,9.54,23,23,0,0,1-1.875,9.539,22.593,22.593,0,0,1-5.328,7.613A24.5,24.5,0,0,1,35.689,45.9a27.742,27.742,0,0,1-9.337,1.726H25.159ZM25.526,11a11.833,11.833,0,0,0-8.93,3.494,12.982,12.982,0,0,0-3.338,9.32A13.032,13.032,0,0,0,16.6,33.146a11.8,11.8,0,0,0,8.93,3.509,11.753,11.753,0,0,0,8.914-3.509,13,13,0,0,0,3.354-9.334,12.989,12.989,0,0,0-3.338-9.321A11.834,11.834,0,0,0,25.526,11Z" transform="translate(335.464 380.01)" fill="#fff"/>
    <path id="Path-5" data-name="Path" d="M13.124,44.79V19.834h.132L27.53,44.79H32.2L46.542,19.834h.132V44.79H59.732V0H45.654L29.964,28.08h-.132L14.143,0H0V44.79Z" transform="translate(394.807 381.427)" fill="#f37777"/>
    <path id="Path-6" data-name="Path" d="M13.255,44.79V0H0V44.79Z" transform="translate(466.896 381.427)" fill="#f37777"/>
    <path id="Path-7" data-name="Path" d="M44.009,44.791V33.859H18.683v-.125L44.075,9.621V0H.954V10.963H25.327v.125L0,35.2v9.591Z" transform="translate(490.374 381.427)" fill="#fff"/>
    <path id="Path-8" data-name="Path" d="M37.1,44.79V33.859H13.255V27.206H34.832V17.148H13.255V10.963H37.036V0H0V44.79Z" transform="translate(541.442 381.427)" fill="#fff"/>
    <path id="Combined_Shape-2" data-name="Combined Shape" d="M21.479,44.791H0V0H21.61a28.546,28.546,0,0,1,12.5,2.592,19.409,19.409,0,0,1,8.39,7.7,23.41,23.41,0,0,1,3.026,12.1,23.506,23.506,0,0,1-3.063,12.275,19.144,19.144,0,0,1-8.419,7.606,29.469,29.469,0,0,1-12.565,2.515ZM13.255,10.963V33.858H20.2c4,0,7.051-.964,9.053-2.865s3.018-4.794,3.018-8.6-1.015-6.678-3.018-8.574S24.2,10.963,20.2,10.963Z" transform="translate(591.464 381.427)" fill="#fff"/>
  </g>
</svg>
