<svg xmlns="http://www.w3.org/2000/svg" width="537.526" height="50" viewBox="0 0 537.526 50">
  <g id="Group_2" data-name="Group 2" transform="translate(0 0)">
    <path id="Path" d="M-25.526,50a24.923,24.923,0,0,1-15.311-4.736,20.856,20.856,0,0,1-8.075-12.992h0l12.466-3.092q2.434,9.308,10.92,9.308A11.462,11.462,0,0,0-16.6,34.8q3.339-3.684,3.339-9.8T-16.6,15.215a11.487,11.487,0,0,0-8.93-3.667A10.4,10.4,0,0,0-32.253,13.7a12,12,0,0,0-3.865,6.2h0l-12.17-3.585a18.426,18.426,0,0,1,4.243-8.535,21.664,21.664,0,0,1,8.075-5.756A26.705,26.705,0,0,1-25.526,0,26.625,26.625,0,0,1-15.363,1.811a24.2,24.2,0,0,1,8.157,5.18,23.654,23.654,0,0,1,5.328,7.993A25.094,25.094,0,0,1,0,25,25.094,25.094,0,0,1-1.877,35.016a23.654,23.654,0,0,1-5.328,7.993,24.2,24.2,0,0,1-8.157,5.18A26.625,26.625,0,0,1-25.526,50Z" transform="translate(48.912 0)" fill="#001e35"/>
    <path id="Path-2" data-name="Path" d="M22.564,48.581q10.492,0,16.5-5.2t6-14.407h0V0H31.773V27.695q0,9.374-9.21,9.374-9.308,0-9.308-9.374h0V0H0V28.978q0,9.275,5.953,14.44T22.564,48.581Z" transform="translate(59.76 1.417)" fill="#001e35"/>
    <path id="Path-3" data-name="Path" d="M24.932,50q9.835,0,15.837-4.111t6-10.789A11.527,11.527,0,0,0,42.4,25.7q-4.375-3.569-13.617-5.674Q22.564,18.551,20,17.794a13.5,13.5,0,0,1-3.585-1.464,2.668,2.668,0,0,1-1.184-1.891A3.239,3.239,0,0,1,17.2,11.529a11.317,11.317,0,0,1,5.361-1.069q7.8,0,10.328,6.677h0l12.334-2.566a17.306,17.306,0,0,0-7.8-10.591A26.78,26.78,0,0,0,22.564,0Q13.288,0,7.631,4.029A12.5,12.5,0,0,0,1.974,14.7a10.85,10.85,0,0,0,4.144,8.815q4.144,3.388,12.762,5.394,6.513,1.579,9.424,2.516a13.533,13.533,0,0,1,3.98,1.793,3.132,3.132,0,0,1,1.2,2.237A3.328,3.328,0,0,1,31.231,38.5a15.016,15.016,0,0,1-6.3,1.069q-5.526,0-8.47-2.122t-4-6.924h0L0,32.563A18.323,18.323,0,0,0,7.762,45.44Q14.275,50,24.932,50Z" transform="translate(115.637 0.002)" fill="#001e35"/>
    <path id="Path-4" data-name="Path" d="M29.5,47.167V11.545H45.851V0H0V11.545H16.216V47.167Z" transform="translate(169.342 1.417)" fill="#001e35"/>
    <path id="Combined_Shape" data-name="Combined Shape" d="M25.159,50a26.647,26.647,0,0,1-9.8-1.811,24.312,24.312,0,0,1-8.158-5.18,23.765,23.765,0,0,1-5.328-7.993A25.214,25.214,0,0,1,0,25,25.216,25.216,0,0,1,1.877,14.984,23.751,23.751,0,0,1,7.205,6.992a24.3,24.3,0,0,1,8.158-5.18A26.665,26.665,0,0,1,25.166,0l.36,0,.36,0a26.674,26.674,0,0,1,9.8,1.812,24.3,24.3,0,0,1,8.158,5.18,23.751,23.751,0,0,1,5.328,7.992A25.2,25.2,0,0,1,51.05,25a25.2,25.2,0,0,1-1.875,10.015,23.765,23.765,0,0,1-5.328,7.993,24.312,24.312,0,0,1-8.158,5.18A26.576,26.576,0,0,1,26.352,50h-.826Zm.367-38.453a11.537,11.537,0,0,0-8.93,3.668C14.381,17.648,13.258,20.94,13.258,25s1.123,7.358,3.338,9.8a11.512,11.512,0,0,0,8.93,3.684A11.462,11.462,0,0,0,34.44,34.8c2.226-2.444,3.354-5.742,3.354-9.8s-1.123-7.352-3.338-9.786A11.538,11.538,0,0,0,25.526,11.547Z" transform="translate(222.125 0)" fill="#001e35"/>
    <path id="Path-5" data-name="Path" d="M13.124,47.167V20.886h.132L27.53,47.167H32.2L46.542,20.886h.132V47.167H59.732V0H45.654L29.964,29.57h-.132L14.143,0H0V47.167Z" transform="translate(285.043 1.417)" fill="#f37777"/>
    <path id="Path-6" data-name="Path" d="M13.255,47.167V0H0V47.167Z" transform="translate(359.404 1.417)" fill="#f37777"/>
    <path id="Path-7" data-name="Path" d="M44.009,47.167V35.655H18.683v-.132L44.075,10.131V0H.954V11.545H25.327v.132L0,37.069v10.1Z" transform="translate(385.316 1.417)" fill="#001e35"/>
    <path id="Path-8" data-name="Path" d="M37.1,47.167V35.655H13.255V28.649H34.832V18.058H13.255V11.545H37.036V0H0V47.167Z" transform="translate(441.982 1.417)" fill="#001e35"/>
    <path id="Combined_Shape-2" data-name="Combined Shape" d="M21.479,47.167H0V0H21.61a27.325,27.325,0,0,1,12.5,2.73A19.829,19.829,0,0,1,42.5,10.838a25.694,25.694,0,0,1,3.026,12.746A25.8,25.8,0,0,1,42.463,36.51a19.535,19.535,0,0,1-8.419,8.009A28.194,28.194,0,0,1,21.479,47.167ZM13.255,11.545V35.654H20.2c4,0,7.051-1.015,9.053-3.017s3.018-5.048,3.018-9.053-1.015-7.032-3.018-9.029S24.2,11.545,20.2,11.545Z" transform="translate(492.004 1.417)" fill="#001e35"/>
  </g>
</svg>
